<?xml version="1.0" encoding="utf-8" standalone="no"?>
<!DOCTYPE svg PUBLIC "-//W3C//DTD SVG 1.1//EN"
  "http://www.w3.org/Graphics/SVG/1.1/DTD/svg11.dtd">
<svg xmlns:xlink="http://www.w3.org/1999/xlink" width="551.154688pt" height="321.437187pt" viewBox="0 0 551.154688 321.437187" xmlns="http://www.w3.org/2000/svg" version="1.1">
 <metadata>
  <rdf:RDF xmlns:dc="http://purl.org/dc/elements/1.1/" xmlns:cc="http://creativecommons.org/ns#" xmlns:rdf="http://www.w3.org/1999/02/22-rdf-syntax-ns#">
   <cc:Work>
    <dc:type rdf:resource="http://purl.org/dc/dcmitype/StillImage"/>
    <dc:date>2026-05-20T06:40:56.833638</dc:date>
    <dc:format>image/svg+xml</dc:format>
    <dc:creator>
     <cc:Agent>
      <dc:title>Matplotlib v3.10.9, https://matplotlib.org/</dc:title>
     </cc:Agent>
    </dc:creator>
   </cc:Work>
  </rdf:RDF>
 </metadata>
 <defs>
  <style type="text/css">*{stroke-linejoin: round; stroke-linecap: butt}</style>
 </defs>
 <g id="figure_1">
  <g id="patch_1">
   <path d="M 0 321.437187 
L 551.154688 321.437187 
L 551.154688 0 
L 0 0 
z
" style="fill: #ffffff"/>
  </g>
  <g id="axes_1">
   <g id="patch_2">
    <path d="M 37.074688 288.72 
L 543.954687 288.72 
L 543.954687 7.2 
L 37.074688 7.2 
z
" style="fill: #ffffff"/>
   </g>
   <g id="line2d_1">
    <path d="M 37.074688 19.996364 
L 543.954687 19.996364 
" clip-path="url(#p99afd1780d)" style="fill: none; stroke: #888888; stroke-width: 0.7; stroke-linecap: square"/>
   </g>
   <g id="matplotlib.axis_1">
    <g id="xtick_1">
     <g id="line2d_2">
      <path d="M 51.736506 288.72 
L 51.736506 7.2 
" clip-path="url(#p99afd1780d)" style="fill: none; stroke: #999999; stroke-opacity: 0.3; stroke-width: 0.5; stroke-linecap: square"/>
     </g>
     <g id="line2d_3">
      <defs>
       <path id="m18b169c4d7" d="M 0 0 
L 0 3.5 
" style="stroke: #000000; stroke-width: 0.8"/>
      </defs>
      <g>
       <use xlink:href="#m18b169c4d7" x="51.736506" y="288.72" style="stroke: #000000; stroke-width: 0.8"/>
      </g>
     </g>
     <g id="text_1">
      <!-- 0 -->
      <g transform="translate(49.509631 301.038906) scale(0.07 -0.07)">
       <defs>
        <path id="DejaVuSans-30" d="M 2034 4250 
Q 1547 4250 1301 3770 
Q 1056 3291 1056 2328 
Q 1056 1369 1301 889 
Q 1547 409 2034 409 
Q 2525 409 2770 889 
Q 3016 1369 3016 2328 
Q 3016 3291 2770 3770 
Q 2525 4250 2034 4250 
z
M 2034 4750 
Q 2819 4750 3233 4129 
Q 3647 3509 3647 2328 
Q 3647 1150 3233 529 
Q 2819 -91 2034 -91 
Q 1250 -91 836 529 
Q 422 1150 422 2328 
Q 422 3509 836 4129 
Q 1250 4750 2034 4750 
z
" transform="scale(0.015625)"/>
       </defs>
       <use xlink:href="#DejaVuSans-30"/>
      </g>
     </g>
    </g>
    <g id="xtick_2">
     <g id="line2d_4">
      <path d="M 144.827415 288.72 
L 144.827415 7.2 
" clip-path="url(#p99afd1780d)" style="fill: none; stroke: #999999; stroke-opacity: 0.3; stroke-width: 0.5; stroke-linecap: square"/>
     </g>
     <g id="line2d_5">
      <g>
       <use xlink:href="#m18b169c4d7" x="144.827415" y="288.72" style="stroke: #000000; stroke-width: 0.8"/>
      </g>
     </g>
     <g id="text_2">
      <!-- 100 -->
      <g transform="translate(138.14679 301.038906) scale(0.07 -0.07)">
       <defs>
        <path id="DejaVuSans-31" d="M 794 531 
L 1825 531 
L 1825 4091 
L 703 3866 
L 703 4441 
L 1819 4666 
L 2450 4666 
L 2450 531 
L 3481 531 
L 3481 0 
L 794 0 
L 794 531 
z
" transform="scale(0.015625)"/>
       </defs>
       <use xlink:href="#DejaVuSans-31"/>
       <use xlink:href="#DejaVuSans-30" transform="translate(63.623047 0)"/>
       <use xlink:href="#DejaVuSans-30" transform="translate(127.246094 0)"/>
      </g>
     </g>
    </g>
    <g id="xtick_3">
     <g id="line2d_6">
      <path d="M 237.918324 288.72 
L 237.918324 7.2 
" clip-path="url(#p99afd1780d)" style="fill: none; stroke: #999999; stroke-opacity: 0.3; stroke-width: 0.5; stroke-linecap: square"/>
     </g>
     <g id="line2d_7">
      <g>
       <use xlink:href="#m18b169c4d7" x="237.918324" y="288.72" style="stroke: #000000; stroke-width: 0.8"/>
      </g>
     </g>
     <g id="text_3">
      <!-- 200 -->
      <g transform="translate(231.237699 301.038906) scale(0.07 -0.07)">
       <defs>
        <path id="DejaVuSans-32" d="M 1228 531 
L 3431 531 
L 3431 0 
L 469 0 
L 469 531 
Q 828 903 1448 1529 
Q 2069 2156 2228 2338 
Q 2531 2678 2651 2914 
Q 2772 3150 2772 3378 
Q 2772 3750 2511 3984 
Q 2250 4219 1831 4219 
Q 1534 4219 1204 4116 
Q 875 4013 500 3803 
L 500 4441 
Q 881 4594 1212 4672 
Q 1544 4750 1819 4750 
Q 2544 4750 2975 4387 
Q 3406 4025 3406 3419 
Q 3406 3131 3298 2873 
Q 3191 2616 2906 2266 
Q 2828 2175 2409 1742 
Q 1991 1309 1228 531 
z
" transform="scale(0.015625)"/>
       </defs>
       <use xlink:href="#DejaVuSans-32"/>
       <use xlink:href="#DejaVuSans-30" transform="translate(63.623047 0)"/>
       <use xlink:href="#DejaVuSans-30" transform="translate(127.246094 0)"/>
      </g>
     </g>
    </g>
    <g id="xtick_4">
     <g id="line2d_8">
      <path d="M 331.009233 288.72 
L 331.009233 7.2 
" clip-path="url(#p99afd1780d)" style="fill: none; stroke: #999999; stroke-opacity: 0.3; stroke-width: 0.5; stroke-linecap: square"/>
     </g>
     <g id="line2d_9">
      <g>
       <use xlink:href="#m18b169c4d7" x="331.009233" y="288.72" style="stroke: #000000; stroke-width: 0.8"/>
      </g>
     </g>
     <g id="text_4">
      <!-- 300 -->
      <g transform="translate(324.328608 301.038906) scale(0.07 -0.07)">
       <defs>
        <path id="DejaVuSans-33" d="M 2597 2516 
Q 3050 2419 3304 2112 
Q 3559 1806 3559 1356 
Q 3559 666 3084 287 
Q 2609 -91 1734 -91 
Q 1441 -91 1130 -33 
Q 819 25 488 141 
L 488 750 
Q 750 597 1062 519 
Q 1375 441 1716 441 
Q 2309 441 2620 675 
Q 2931 909 2931 1356 
Q 2931 1769 2642 2001 
Q 2353 2234 1838 2234 
L 1294 2234 
L 1294 2753 
L 1863 2753 
Q 2328 2753 2575 2939 
Q 2822 3125 2822 3475 
Q 2822 3834 2567 4026 
Q 2313 4219 1838 4219 
Q 1578 4219 1281 4162 
Q 984 4106 628 3988 
L 628 4550 
Q 988 4650 1302 4700 
Q 1616 4750 1894 4750 
Q 2613 4750 3031 4423 
Q 3450 4097 3450 3541 
Q 3450 3153 3228 2886 
Q 3006 2619 2597 2516 
z
" transform="scale(0.015625)"/>
       </defs>
       <use xlink:href="#DejaVuSans-33"/>
       <use xlink:href="#DejaVuSans-30" transform="translate(63.623047 0)"/>
       <use xlink:href="#DejaVuSans-30" transform="translate(127.246094 0)"/>
      </g>
     </g>
    </g>
    <g id="xtick_5">
     <g id="line2d_10">
      <path d="M 424.100142 288.72 
L 424.100142 7.2 
" clip-path="url(#p99afd1780d)" style="fill: none; stroke: #999999; stroke-opacity: 0.3; stroke-width: 0.5; stroke-linecap: square"/>
     </g>
     <g id="line2d_11">
      <g>
       <use xlink:href="#m18b169c4d7" x="424.100142" y="288.72" style="stroke: #000000; stroke-width: 0.8"/>
      </g>
     </g>
     <g id="text_5">
      <!-- 400 -->
      <g transform="translate(417.419517 301.038906) scale(0.07 -0.07)">
       <defs>
        <path id="DejaVuSans-34" d="M 2419 4116 
L 825 1625 
L 2419 1625 
L 2419 4116 
z
M 2253 4666 
L 3047 4666 
L 3047 1625 
L 3713 1625 
L 3713 1100 
L 3047 1100 
L 3047 0 
L 2419 0 
L 2419 1100 
L 313 1100 
L 313 1709 
L 2253 4666 
z
" transform="scale(0.015625)"/>
       </defs>
       <use xlink:href="#DejaVuSans-34"/>
       <use xlink:href="#DejaVuSans-30" transform="translate(63.623047 0)"/>
       <use xlink:href="#DejaVuSans-30" transform="translate(127.246094 0)"/>
      </g>
     </g>
    </g>
    <g id="xtick_6">
     <g id="line2d_12">
      <path d="M 517.191051 288.72 
L 517.191051 7.2 
" clip-path="url(#p99afd1780d)" style="fill: none; stroke: #999999; stroke-opacity: 0.3; stroke-width: 0.5; stroke-linecap: square"/>
     </g>
     <g id="line2d_13">
      <g>
       <use xlink:href="#m18b169c4d7" x="517.191051" y="288.72" style="stroke: #000000; stroke-width: 0.8"/>
      </g>
     </g>
     <g id="text_6">
      <!-- 500 -->
      <g transform="translate(510.510426 301.038906) scale(0.07 -0.07)">
       <defs>
        <path id="DejaVuSans-35" d="M 691 4666 
L 3169 4666 
L 3169 4134 
L 1269 4134 
L 1269 2991 
Q 1406 3038 1543 3061 
Q 1681 3084 1819 3084 
Q 2600 3084 3056 2656 
Q 3513 2228 3513 1497 
Q 3513 744 3044 326 
Q 2575 -91 1722 -91 
Q 1428 -91 1123 -41 
Q 819 9 494 109 
L 494 744 
Q 775 591 1075 516 
Q 1375 441 1709 441 
Q 2250 441 2565 725 
Q 2881 1009 2881 1497 
Q 2881 1984 2565 2268 
Q 2250 2553 1709 2553 
Q 1456 2553 1204 2497 
Q 953 2441 691 2322 
L 691 4666 
z
" transform="scale(0.015625)"/>
       </defs>
       <use xlink:href="#DejaVuSans-35"/>
       <use xlink:href="#DejaVuSans-30" transform="translate(63.623047 0)"/>
       <use xlink:href="#DejaVuSans-30" transform="translate(127.246094 0)"/>
      </g>
     </g>
    </g>
    <g id="xtick_7">
     <g id="line2d_14">
      <path d="M 70.354688 288.72 
L 70.354688 7.2 
" clip-path="url(#p99afd1780d)" style="fill: none; stroke: #bbbbbb; stroke-opacity: 0.15; stroke-width: 0.3; stroke-linecap: square"/>
     </g>
     <g id="line2d_15">
      <defs>
       <path id="maabb9d06a4" d="M 0 0 
L 0 2 
" style="stroke: #000000; stroke-width: 0.6"/>
      </defs>
      <g>
       <use xlink:href="#maabb9d06a4" x="70.354688" y="288.72" style="stroke: #000000; stroke-width: 0.6"/>
      </g>
     </g>
    </g>
    <g id="xtick_8">
     <g id="line2d_16">
      <path d="M 88.972869 288.72 
L 88.972869 7.2 
" clip-path="url(#p99afd1780d)" style="fill: none; stroke: #bbbbbb; stroke-opacity: 0.15; stroke-width: 0.3; stroke-linecap: square"/>
     </g>
     <g id="line2d_17">
      <g>
       <use xlink:href="#maabb9d06a4" x="88.972869" y="288.72" style="stroke: #000000; stroke-width: 0.6"/>
      </g>
     </g>
    </g>
    <g id="xtick_9">
     <g id="line2d_18">
      <path d="M 107.591051 288.72 
L 107.591051 7.2 
" clip-path="url(#p99afd1780d)" style="fill: none; stroke: #bbbbbb; stroke-opacity: 0.15; stroke-width: 0.3; stroke-linecap: square"/>
     </g>
     <g id="line2d_19">
      <g>
       <use xlink:href="#maabb9d06a4" x="107.591051" y="288.72" style="stroke: #000000; stroke-width: 0.6"/>
      </g>
     </g>
    </g>
    <g id="xtick_10">
     <g id="line2d_20">
      <path d="M 126.209233 288.72 
L 126.209233 7.2 
" clip-path="url(#p99afd1780d)" style="fill: none; stroke: #bbbbbb; stroke-opacity: 0.15; stroke-width: 0.3; stroke-linecap: square"/>
     </g>
     <g id="line2d_21">
      <g>
       <use xlink:href="#maabb9d06a4" x="126.209233" y="288.72" style="stroke: #000000; stroke-width: 0.6"/>
      </g>
     </g>
    </g>
    <g id="xtick_11">
     <g id="line2d_22">
      <path d="M 163.445597 288.72 
L 163.445597 7.2 
" clip-path="url(#p99afd1780d)" style="fill: none; stroke: #bbbbbb; stroke-opacity: 0.15; stroke-width: 0.3; stroke-linecap: square"/>
     </g>
     <g id="line2d_23">
      <g>
       <use xlink:href="#maabb9d06a4" x="163.445597" y="288.72" style="stroke: #000000; stroke-width: 0.6"/>
      </g>
     </g>
    </g>
    <g id="xtick_12">
     <g id="line2d_24">
      <path d="M 182.063778 288.72 
L 182.063778 7.2 
" clip-path="url(#p99afd1780d)" style="fill: none; stroke: #bbbbbb; stroke-opacity: 0.15; stroke-width: 0.3; stroke-linecap: square"/>
     </g>
     <g id="line2d_25">
      <g>
       <use xlink:href="#maabb9d06a4" x="182.063778" y="288.72" style="stroke: #000000; stroke-width: 0.6"/>
      </g>
     </g>
    </g>
    <g id="xtick_13">
     <g id="line2d_26">
      <path d="M 200.68196 288.72 
L 200.68196 7.2 
" clip-path="url(#p99afd1780d)" style="fill: none; stroke: #bbbbbb; stroke-opacity: 0.15; stroke-width: 0.3; stroke-linecap: square"/>
     </g>
     <g id="line2d_27">
      <g>
       <use xlink:href="#maabb9d06a4" x="200.68196" y="288.72" style="stroke: #000000; stroke-width: 0.6"/>
      </g>
     </g>
    </g>
    <g id="xtick_14">
     <g id="line2d_28">
      <path d="M 219.300142 288.72 
L 219.300142 7.2 
" clip-path="url(#p99afd1780d)" style="fill: none; stroke: #bbbbbb; stroke-opacity: 0.15; stroke-width: 0.3; stroke-linecap: square"/>
     </g>
     <g id="line2d_29">
      <g>
       <use xlink:href="#maabb9d06a4" x="219.300142" y="288.72" style="stroke: #000000; stroke-width: 0.6"/>
      </g>
     </g>
    </g>
    <g id="xtick_15">
     <g id="line2d_30">
      <path d="M 256.536506 288.72 
L 256.536506 7.2 
" clip-path="url(#p99afd1780d)" style="fill: none; stroke: #bbbbbb; stroke-opacity: 0.15; stroke-width: 0.3; stroke-linecap: square"/>
     </g>
     <g id="line2d_31">
      <g>
       <use xlink:href="#maabb9d06a4" x="256.536506" y="288.72" style="stroke: #000000; stroke-width: 0.6"/>
      </g>
     </g>
    </g>
    <g id="xtick_16">
     <g id="line2d_32">
      <path d="M 275.154688 288.72 
L 275.154688 7.2 
" clip-path="url(#p99afd1780d)" style="fill: none; stroke: #bbbbbb; stroke-opacity: 0.15; stroke-width: 0.3; stroke-linecap: square"/>
     </g>
     <g id="line2d_33">
      <g>
       <use xlink:href="#maabb9d06a4" x="275.154688" y="288.72" style="stroke: #000000; stroke-width: 0.6"/>
      </g>
     </g>
    </g>
    <g id="xtick_17">
     <g id="line2d_34">
      <path d="M 293.772869 288.72 
L 293.772869 7.2 
" clip-path="url(#p99afd1780d)" style="fill: none; stroke: #bbbbbb; stroke-opacity: 0.15; stroke-width: 0.3; stroke-linecap: square"/>
     </g>
     <g id="line2d_35">
      <g>
       <use xlink:href="#maabb9d06a4" x="293.772869" y="288.72" style="stroke: #000000; stroke-width: 0.6"/>
      </g>
     </g>
    </g>
    <g id="xtick_18">
     <g id="line2d_36">
      <path d="M 312.391051 288.72 
L 312.391051 7.2 
" clip-path="url(#p99afd1780d)" style="fill: none; stroke: #bbbbbb; stroke-opacity: 0.15; stroke-width: 0.3; stroke-linecap: square"/>
     </g>
     <g id="line2d_37">
      <g>
       <use xlink:href="#maabb9d06a4" x="312.391051" y="288.72" style="stroke: #000000; stroke-width: 0.6"/>
      </g>
     </g>
    </g>
    <g id="xtick_19">
     <g id="line2d_38">
      <path d="M 349.627415 288.72 
L 349.627415 7.2 
" clip-path="url(#p99afd1780d)" style="fill: none; stroke: #bbbbbb; stroke-opacity: 0.15; stroke-width: 0.3; stroke-linecap: square"/>
     </g>
     <g id="line2d_39">
      <g>
       <use xlink:href="#maabb9d06a4" x="349.627415" y="288.72" style="stroke: #000000; stroke-width: 0.6"/>
      </g>
     </g>
    </g>
    <g id="xtick_20">
     <g id="line2d_40">
      <path d="M 368.245597 288.72 
L 368.245597 7.2 
" clip-path="url(#p99afd1780d)" style="fill: none; stroke: #bbbbbb; stroke-opacity: 0.15; stroke-width: 0.3; stroke-linecap: square"/>
     </g>
     <g id="line2d_41">
      <g>
       <use xlink:href="#maabb9d06a4" x="368.245597" y="288.72" style="stroke: #000000; stroke-width: 0.6"/>
      </g>
     </g>
    </g>
    <g id="xtick_21">
     <g id="line2d_42">
      <path d="M 386.863778 288.72 
L 386.863778 7.2 
" clip-path="url(#p99afd1780d)" style="fill: none; stroke: #bbbbbb; stroke-opacity: 0.15; stroke-width: 0.3; stroke-linecap: square"/>
     </g>
     <g id="line2d_43">
      <g>
       <use xlink:href="#maabb9d06a4" x="386.863778" y="288.72" style="stroke: #000000; stroke-width: 0.6"/>
      </g>
     </g>
    </g>
    <g id="xtick_22">
     <g id="line2d_44">
      <path d="M 405.48196 288.72 
L 405.48196 7.2 
" clip-path="url(#p99afd1780d)" style="fill: none; stroke: #bbbbbb; stroke-opacity: 0.15; stroke-width: 0.3; stroke-linecap: square"/>
     </g>
     <g id="line2d_45">
      <g>
       <use xlink:href="#maabb9d06a4" x="405.48196" y="288.72" style="stroke: #000000; stroke-width: 0.6"/>
      </g>
     </g>
    </g>
    <g id="xtick_23">
     <g id="line2d_46">
      <path d="M 442.718324 288.72 
L 442.718324 7.2 
" clip-path="url(#p99afd1780d)" style="fill: none; stroke: #bbbbbb; stroke-opacity: 0.15; stroke-width: 0.3; stroke-linecap: square"/>
     </g>
     <g id="line2d_47">
      <g>
       <use xlink:href="#maabb9d06a4" x="442.718324" y="288.72" style="stroke: #000000; stroke-width: 0.6"/>
      </g>
     </g>
    </g>
    <g id="xtick_24">
     <g id="line2d_48">
      <path d="M 461.336506 288.72 
L 461.336506 7.2 
" clip-path="url(#p99afd1780d)" style="fill: none; stroke: #bbbbbb; stroke-opacity: 0.15; stroke-width: 0.3; stroke-linecap: square"/>
     </g>
     <g id="line2d_49">
      <g>
       <use xlink:href="#maabb9d06a4" x="461.336506" y="288.72" style="stroke: #000000; stroke-width: 0.6"/>
      </g>
     </g>
    </g>
    <g id="xtick_25">
     <g id="line2d_50">
      <path d="M 479.954687 288.72 
L 479.954687 7.2 
" clip-path="url(#p99afd1780d)" style="fill: none; stroke: #bbbbbb; stroke-opacity: 0.15; stroke-width: 0.3; stroke-linecap: square"/>
     </g>
     <g id="line2d_51">
      <g>
       <use xlink:href="#maabb9d06a4" x="479.954687" y="288.72" style="stroke: #000000; stroke-width: 0.6"/>
      </g>
     </g>
    </g>
    <g id="xtick_26">
     <g id="line2d_52">
      <path d="M 498.572869 288.72 
L 498.572869 7.2 
" clip-path="url(#p99afd1780d)" style="fill: none; stroke: #bbbbbb; stroke-opacity: 0.15; stroke-width: 0.3; stroke-linecap: square"/>
     </g>
     <g id="line2d_53">
      <g>
       <use xlink:href="#maabb9d06a4" x="498.572869" y="288.72" style="stroke: #000000; stroke-width: 0.6"/>
      </g>
     </g>
    </g>
    <g id="xtick_27">
     <g id="line2d_54">
      <path d="M 535.809233 288.72 
L 535.809233 7.2 
" clip-path="url(#p99afd1780d)" style="fill: none; stroke: #bbbbbb; stroke-opacity: 0.15; stroke-width: 0.3; stroke-linecap: square"/>
     </g>
     <g id="line2d_55">
      <g>
       <use xlink:href="#maabb9d06a4" x="535.809233" y="288.72" style="stroke: #000000; stroke-width: 0.6"/>
      </g>
     </g>
    </g>
    <g id="text_7">
     <!-- training step (within stage) -->
     <g transform="translate(236.195938 312.573438) scale(0.08 -0.08)">
      <defs>
       <path id="DejaVuSans-74" d="M 1172 4494 
L 1172 3500 
L 2356 3500 
L 2356 3053 
L 1172 3053 
L 1172 1153 
Q 1172 725 1289 603 
Q 1406 481 1766 481 
L 2356 481 
L 2356 0 
L 1766 0 
Q 1100 0 847 248 
Q 594 497 594 1153 
L 594 3053 
L 172 3053 
L 172 3500 
L 594 3500 
L 594 4494 
L 1172 4494 
z
" transform="scale(0.015625)"/>
       <path id="DejaVuSans-72" d="M 2631 2963 
Q 2534 3019 2420 3045 
Q 2306 3072 2169 3072 
Q 1681 3072 1420 2755 
Q 1159 2438 1159 1844 
L 1159 0 
L 581 0 
L 581 3500 
L 1159 3500 
L 1159 2956 
Q 1341 3275 1631 3429 
Q 1922 3584 2338 3584 
Q 2397 3584 2469 3576 
Q 2541 3569 2628 3553 
L 2631 2963 
z
" transform="scale(0.015625)"/>
       <path id="DejaVuSans-61" d="M 2194 1759 
Q 1497 1759 1228 1600 
Q 959 1441 959 1056 
Q 959 750 1161 570 
Q 1363 391 1709 391 
Q 2188 391 2477 730 
Q 2766 1069 2766 1631 
L 2766 1759 
L 2194 1759 
z
M 3341 1997 
L 3341 0 
L 2766 0 
L 2766 531 
Q 2569 213 2275 61 
Q 1981 -91 1556 -91 
Q 1019 -91 701 211 
Q 384 513 384 1019 
Q 384 1609 779 1909 
Q 1175 2209 1959 2209 
L 2766 2209 
L 2766 2266 
Q 2766 2663 2505 2880 
Q 2244 3097 1772 3097 
Q 1472 3097 1187 3025 
Q 903 2953 641 2809 
L 641 3341 
Q 956 3463 1253 3523 
Q 1550 3584 1831 3584 
Q 2591 3584 2966 3190 
Q 3341 2797 3341 1997 
z
" transform="scale(0.015625)"/>
       <path id="DejaVuSans-69" d="M 603 3500 
L 1178 3500 
L 1178 0 
L 603 0 
L 603 3500 
z
M 603 4863 
L 1178 4863 
L 1178 4134 
L 603 4134 
L 603 4863 
z
" transform="scale(0.015625)"/>
       <path id="DejaVuSans-6e" d="M 3513 2113 
L 3513 0 
L 2938 0 
L 2938 2094 
Q 2938 2591 2744 2837 
Q 2550 3084 2163 3084 
Q 1697 3084 1428 2787 
Q 1159 2491 1159 1978 
L 1159 0 
L 581 0 
L 581 3500 
L 1159 3500 
L 1159 2956 
Q 1366 3272 1645 3428 
Q 1925 3584 2291 3584 
Q 2894 3584 3203 3211 
Q 3513 2838 3513 2113 
z
" transform="scale(0.015625)"/>
       <path id="DejaVuSans-67" d="M 2906 1791 
Q 2906 2416 2648 2759 
Q 2391 3103 1925 3103 
Q 1463 3103 1205 2759 
Q 947 2416 947 1791 
Q 947 1169 1205 825 
Q 1463 481 1925 481 
Q 2391 481 2648 825 
Q 2906 1169 2906 1791 
z
M 3481 434 
Q 3481 -459 3084 -895 
Q 2688 -1331 1869 -1331 
Q 1566 -1331 1297 -1286 
Q 1028 -1241 775 -1147 
L 775 -588 
Q 1028 -725 1275 -790 
Q 1522 -856 1778 -856 
Q 2344 -856 2625 -561 
Q 2906 -266 2906 331 
L 2906 616 
Q 2728 306 2450 153 
Q 2172 0 1784 0 
Q 1141 0 747 490 
Q 353 981 353 1791 
Q 353 2603 747 3093 
Q 1141 3584 1784 3584 
Q 2172 3584 2450 3431 
Q 2728 3278 2906 2969 
L 2906 3500 
L 3481 3500 
L 3481 434 
z
" transform="scale(0.015625)"/>
       <path id="DejaVuSans-20" transform="scale(0.015625)"/>
       <path id="DejaVuSans-73" d="M 2834 3397 
L 2834 2853 
Q 2591 2978 2328 3040 
Q 2066 3103 1784 3103 
Q 1356 3103 1142 2972 
Q 928 2841 928 2578 
Q 928 2378 1081 2264 
Q 1234 2150 1697 2047 
L 1894 2003 
Q 2506 1872 2764 1633 
Q 3022 1394 3022 966 
Q 3022 478 2636 193 
Q 2250 -91 1575 -91 
Q 1294 -91 989 -36 
Q 684 19 347 128 
L 347 722 
Q 666 556 975 473 
Q 1284 391 1588 391 
Q 1994 391 2212 530 
Q 2431 669 2431 922 
Q 2431 1156 2273 1281 
Q 2116 1406 1581 1522 
L 1381 1569 
Q 847 1681 609 1914 
Q 372 2147 372 2553 
Q 372 3047 722 3315 
Q 1072 3584 1716 3584 
Q 2034 3584 2315 3537 
Q 2597 3491 2834 3397 
z
" transform="scale(0.015625)"/>
       <path id="DejaVuSans-65" d="M 3597 1894 
L 3597 1613 
L 953 1613 
Q 991 1019 1311 708 
Q 1631 397 2203 397 
Q 2534 397 2845 478 
Q 3156 559 3463 722 
L 3463 178 
Q 3153 47 2828 -22 
Q 2503 -91 2169 -91 
Q 1331 -91 842 396 
Q 353 884 353 1716 
Q 353 2575 817 3079 
Q 1281 3584 2069 3584 
Q 2775 3584 3186 3129 
Q 3597 2675 3597 1894 
z
M 3022 2063 
Q 3016 2534 2758 2815 
Q 2500 3097 2075 3097 
Q 1594 3097 1305 2825 
Q 1016 2553 972 2059 
L 3022 2063 
z
" transform="scale(0.015625)"/>
       <path id="DejaVuSans-70" d="M 1159 525 
L 1159 -1331 
L 581 -1331 
L 581 3500 
L 1159 3500 
L 1159 2969 
Q 1341 3281 1617 3432 
Q 1894 3584 2278 3584 
Q 2916 3584 3314 3078 
Q 3713 2572 3713 1747 
Q 3713 922 3314 415 
Q 2916 -91 2278 -91 
Q 1894 -91 1617 61 
Q 1341 213 1159 525 
z
M 3116 1747 
Q 3116 2381 2855 2742 
Q 2594 3103 2138 3103 
Q 1681 3103 1420 2742 
Q 1159 2381 1159 1747 
Q 1159 1113 1420 752 
Q 1681 391 2138 391 
Q 2594 391 2855 752 
Q 3116 1113 3116 1747 
z
" transform="scale(0.015625)"/>
       <path id="DejaVuSans-28" d="M 1984 4856 
Q 1566 4138 1362 3434 
Q 1159 2731 1159 2009 
Q 1159 1288 1364 580 
Q 1569 -128 1984 -844 
L 1484 -844 
Q 1016 -109 783 600 
Q 550 1309 550 2009 
Q 550 2706 781 3412 
Q 1013 4119 1484 4856 
L 1984 4856 
z
" transform="scale(0.015625)"/>
       <path id="DejaVuSans-77" d="M 269 3500 
L 844 3500 
L 1563 769 
L 2278 3500 
L 2956 3500 
L 3675 769 
L 4391 3500 
L 4966 3500 
L 4050 0 
L 3372 0 
L 2619 2869 
L 1863 0 
L 1184 0 
L 269 3500 
z
" transform="scale(0.015625)"/>
       <path id="DejaVuSans-68" d="M 3513 2113 
L 3513 0 
L 2938 0 
L 2938 2094 
Q 2938 2591 2744 2837 
Q 2550 3084 2163 3084 
Q 1697 3084 1428 2787 
Q 1159 2491 1159 1978 
L 1159 0 
L 581 0 
L 581 4863 
L 1159 4863 
L 1159 2956 
Q 1366 3272 1645 3428 
Q 1925 3584 2291 3584 
Q 2894 3584 3203 3211 
Q 3513 2838 3513 2113 
z
" transform="scale(0.015625)"/>
       <path id="DejaVuSans-29" d="M 513 4856 
L 1013 4856 
Q 1481 4119 1714 3412 
Q 1947 2706 1947 2009 
Q 1947 1309 1714 600 
Q 1481 -109 1013 -844 
L 513 -844 
Q 928 -128 1133 580 
Q 1338 1288 1338 2009 
Q 1338 2731 1133 3434 
Q 928 4138 513 4856 
z
" transform="scale(0.015625)"/>
      </defs>
      <use xlink:href="#DejaVuSans-74"/>
      <use xlink:href="#DejaVuSans-72" transform="translate(39.208984 0)"/>
      <use xlink:href="#DejaVuSans-61" transform="translate(80.322266 0)"/>
      <use xlink:href="#DejaVuSans-69" transform="translate(141.601562 0)"/>
      <use xlink:href="#DejaVuSans-6e" transform="translate(169.384766 0)"/>
      <use xlink:href="#DejaVuSans-69" transform="translate(232.763672 0)"/>
      <use xlink:href="#DejaVuSans-6e" transform="translate(260.546875 0)"/>
      <use xlink:href="#DejaVuSans-67" transform="translate(323.925781 0)"/>
      <use xlink:href="#DejaVuSans-20" transform="translate(387.402344 0)"/>
      <use xlink:href="#DejaVuSans-73" transform="translate(419.189453 0)"/>
      <use xlink:href="#DejaVuSans-74" transform="translate(471.289062 0)"/>
      <use xlink:href="#DejaVuSans-65" transform="translate(510.498047 0)"/>
      <use xlink:href="#DejaVuSans-70" transform="translate(572.021484 0)"/>
      <use xlink:href="#DejaVuSans-20" transform="translate(635.498047 0)"/>
      <use xlink:href="#DejaVuSans-28" transform="translate(667.285156 0)"/>
      <use xlink:href="#DejaVuSans-77" transform="translate(706.298828 0)"/>
      <use xlink:href="#DejaVuSans-69" transform="translate(788.085938 0)"/>
      <use xlink:href="#DejaVuSans-74" transform="translate(815.869141 0)"/>
      <use xlink:href="#DejaVuSans-68" transform="translate(855.078125 0)"/>
      <use xlink:href="#DejaVuSans-69" transform="translate(918.457031 0)"/>
      <use xlink:href="#DejaVuSans-6e" transform="translate(946.240234 0)"/>
      <use xlink:href="#DejaVuSans-20" transform="translate(1009.619141 0)"/>
      <use xlink:href="#DejaVuSans-73" transform="translate(1041.40625 0)"/>
      <use xlink:href="#DejaVuSans-74" transform="translate(1093.505859 0)"/>
      <use xlink:href="#DejaVuSans-61" transform="translate(1132.714844 0)"/>
      <use xlink:href="#DejaVuSans-67" transform="translate(1193.994141 0)"/>
      <use xlink:href="#DejaVuSans-65" transform="translate(1257.470703 0)"/>
      <use xlink:href="#DejaVuSans-29" transform="translate(1318.994141 0)"/>
     </g>
    </g>
   </g>
   <g id="matplotlib.axis_2">
    <g id="ytick_1">
     <g id="line2d_56">
      <path d="M 37.074688 278.409063 
L 543.954687 278.409063 
" clip-path="url(#p99afd1780d)" style="fill: none; stroke: #999999; stroke-opacity: 0.3; stroke-width: 0.5; stroke-linecap: square"/>
     </g>
     <g id="line2d_57">
      <defs>
       <path id="mbf70754efc" d="M 0 0 
L -3.5 0 
" style="stroke: #000000; stroke-width: 0.8"/>
      </defs>
      <g>
       <use xlink:href="#mbf70754efc" x="37.074688" y="278.409063" style="stroke: #000000; stroke-width: 0.8"/>
      </g>
     </g>
     <g id="text_8">
      <!-- 0.0 -->
      <g transform="translate(18.9425 281.068516) scale(0.07 -0.07)">
       <defs>
        <path id="DejaVuSans-2e" d="M 684 794 
L 1344 794 
L 1344 0 
L 684 0 
L 684 794 
z
" transform="scale(0.015625)"/>
       </defs>
       <use xlink:href="#DejaVuSans-30"/>
       <use xlink:href="#DejaVuSans-2e" transform="translate(63.623047 0)"/>
       <use xlink:href="#DejaVuSans-30" transform="translate(95.410156 0)"/>
      </g>
     </g>
    </g>
    <g id="ytick_2">
     <g id="line2d_58">
      <path d="M 37.074688 226.726523 
L 543.954687 226.726523 
" clip-path="url(#p99afd1780d)" style="fill: none; stroke: #999999; stroke-opacity: 0.3; stroke-width: 0.5; stroke-linecap: square"/>
     </g>
     <g id="line2d_59">
      <g>
       <use xlink:href="#mbf70754efc" x="37.074688" y="226.726523" style="stroke: #000000; stroke-width: 0.8"/>
      </g>
     </g>
     <g id="text_9">
      <!-- 0.2 -->
      <g transform="translate(18.9425 229.385977) scale(0.07 -0.07)">
       <use xlink:href="#DejaVuSans-30"/>
       <use xlink:href="#DejaVuSans-2e" transform="translate(63.623047 0)"/>
       <use xlink:href="#DejaVuSans-32" transform="translate(95.410156 0)"/>
      </g>
     </g>
    </g>
    <g id="ytick_3">
     <g id="line2d_60">
      <path d="M 37.074688 175.043983 
L 543.954687 175.043983 
" clip-path="url(#p99afd1780d)" style="fill: none; stroke: #999999; stroke-opacity: 0.3; stroke-width: 0.5; stroke-linecap: square"/>
     </g>
     <g id="line2d_61">
      <g>
       <use xlink:href="#mbf70754efc" x="37.074688" y="175.043983" style="stroke: #000000; stroke-width: 0.8"/>
      </g>
     </g>
     <g id="text_10">
      <!-- 0.4 -->
      <g transform="translate(18.9425 177.703437) scale(0.07 -0.07)">
       <use xlink:href="#DejaVuSans-30"/>
       <use xlink:href="#DejaVuSans-2e" transform="translate(63.623047 0)"/>
       <use xlink:href="#DejaVuSans-34" transform="translate(95.410156 0)"/>
      </g>
     </g>
    </g>
    <g id="ytick_4">
     <g id="line2d_62">
      <path d="M 37.074688 123.361444 
L 543.954687 123.361444 
" clip-path="url(#p99afd1780d)" style="fill: none; stroke: #999999; stroke-opacity: 0.3; stroke-width: 0.5; stroke-linecap: square"/>
     </g>
     <g id="line2d_63">
      <g>
       <use xlink:href="#mbf70754efc" x="37.074688" y="123.361444" style="stroke: #000000; stroke-width: 0.8"/>
      </g>
     </g>
     <g id="text_11">
      <!-- 0.6 -->
      <g transform="translate(18.9425 126.020897) scale(0.07 -0.07)">
       <defs>
        <path id="DejaVuSans-36" d="M 2113 2584 
Q 1688 2584 1439 2293 
Q 1191 2003 1191 1497 
Q 1191 994 1439 701 
Q 1688 409 2113 409 
Q 2538 409 2786 701 
Q 3034 994 3034 1497 
Q 3034 2003 2786 2293 
Q 2538 2584 2113 2584 
z
M 3366 4563 
L 3366 3988 
Q 3128 4100 2886 4159 
Q 2644 4219 2406 4219 
Q 1781 4219 1451 3797 
Q 1122 3375 1075 2522 
Q 1259 2794 1537 2939 
Q 1816 3084 2150 3084 
Q 2853 3084 3261 2657 
Q 3669 2231 3669 1497 
Q 3669 778 3244 343 
Q 2819 -91 2113 -91 
Q 1303 -91 875 529 
Q 447 1150 447 2328 
Q 447 3434 972 4092 
Q 1497 4750 2381 4750 
Q 2619 4750 2861 4703 
Q 3103 4656 3366 4563 
z
" transform="scale(0.015625)"/>
       </defs>
       <use xlink:href="#DejaVuSans-30"/>
       <use xlink:href="#DejaVuSans-2e" transform="translate(63.623047 0)"/>
       <use xlink:href="#DejaVuSans-36" transform="translate(95.410156 0)"/>
      </g>
     </g>
    </g>
    <g id="ytick_5">
     <g id="line2d_64">
      <path d="M 37.074688 71.678904 
L 543.954687 71.678904 
" clip-path="url(#p99afd1780d)" style="fill: none; stroke: #999999; stroke-opacity: 0.3; stroke-width: 0.5; stroke-linecap: square"/>
     </g>
     <g id="line2d_65">
      <g>
       <use xlink:href="#mbf70754efc" x="37.074688" y="71.678904" style="stroke: #000000; stroke-width: 0.8"/>
      </g>
     </g>
     <g id="text_12">
      <!-- 0.8 -->
      <g transform="translate(18.9425 74.338357) scale(0.07 -0.07)">
       <defs>
        <path id="DejaVuSans-38" d="M 2034 2216 
Q 1584 2216 1326 1975 
Q 1069 1734 1069 1313 
Q 1069 891 1326 650 
Q 1584 409 2034 409 
Q 2484 409 2743 651 
Q 3003 894 3003 1313 
Q 3003 1734 2745 1975 
Q 2488 2216 2034 2216 
z
M 1403 2484 
Q 997 2584 770 2862 
Q 544 3141 544 3541 
Q 544 4100 942 4425 
Q 1341 4750 2034 4750 
Q 2731 4750 3128 4425 
Q 3525 4100 3525 3541 
Q 3525 3141 3298 2862 
Q 3072 2584 2669 2484 
Q 3125 2378 3379 2068 
Q 3634 1759 3634 1313 
Q 3634 634 3220 271 
Q 2806 -91 2034 -91 
Q 1263 -91 848 271 
Q 434 634 434 1313 
Q 434 1759 690 2068 
Q 947 2378 1403 2484 
z
M 1172 3481 
Q 1172 3119 1398 2916 
Q 1625 2713 2034 2713 
Q 2441 2713 2670 2916 
Q 2900 3119 2900 3481 
Q 2900 3844 2670 4047 
Q 2441 4250 2034 4250 
Q 1625 4250 1398 4047 
Q 1172 3844 1172 3481 
z
" transform="scale(0.015625)"/>
       </defs>
       <use xlink:href="#DejaVuSans-30"/>
       <use xlink:href="#DejaVuSans-2e" transform="translate(63.623047 0)"/>
       <use xlink:href="#DejaVuSans-38" transform="translate(95.410156 0)"/>
      </g>
     </g>
    </g>
    <g id="ytick_6">
     <g id="line2d_66">
      <path d="M 37.074688 19.996364 
L 543.954687 19.996364 
" clip-path="url(#p99afd1780d)" style="fill: none; stroke: #999999; stroke-opacity: 0.3; stroke-width: 0.5; stroke-linecap: square"/>
     </g>
     <g id="line2d_67">
      <g>
       <use xlink:href="#mbf70754efc" x="37.074688" y="19.996364" style="stroke: #000000; stroke-width: 0.8"/>
      </g>
     </g>
     <g id="text_13">
      <!-- 1.0 -->
      <g transform="translate(18.9425 22.655817) scale(0.07 -0.07)">
       <use xlink:href="#DejaVuSans-31"/>
       <use xlink:href="#DejaVuSans-2e" transform="translate(63.623047 0)"/>
       <use xlink:href="#DejaVuSans-30" transform="translate(95.410156 0)"/>
      </g>
     </g>
    </g>
    <g id="ytick_7">
     <g id="line2d_68">
      <path d="M 37.074688 265.488428 
L 543.954687 265.488428 
" clip-path="url(#p99afd1780d)" style="fill: none; stroke: #bbbbbb; stroke-opacity: 0.15; stroke-width: 0.3; stroke-linecap: square"/>
     </g>
     <g id="line2d_69">
      <defs>
       <path id="m9788bc51c4" d="M 0 0 
L -2 0 
" style="stroke: #000000; stroke-width: 0.6"/>
      </defs>
      <g>
       <use xlink:href="#m9788bc51c4" x="37.074688" y="265.488428" style="stroke: #000000; stroke-width: 0.6"/>
      </g>
     </g>
    </g>
    <g id="ytick_8">
     <g id="line2d_70">
      <path d="M 37.074688 252.567793 
L 543.954687 252.567793 
" clip-path="url(#p99afd1780d)" style="fill: none; stroke: #bbbbbb; stroke-opacity: 0.15; stroke-width: 0.3; stroke-linecap: square"/>
     </g>
     <g id="line2d_71">
      <g>
       <use xlink:href="#m9788bc51c4" x="37.074688" y="252.567793" style="stroke: #000000; stroke-width: 0.6"/>
      </g>
     </g>
    </g>
    <g id="ytick_9">
     <g id="line2d_72">
      <path d="M 37.074688 239.647158 
L 543.954687 239.647158 
" clip-path="url(#p99afd1780d)" style="fill: none; stroke: #bbbbbb; stroke-opacity: 0.15; stroke-width: 0.3; stroke-linecap: square"/>
     </g>
     <g id="line2d_73">
      <g>
       <use xlink:href="#m9788bc51c4" x="37.074688" y="239.647158" style="stroke: #000000; stroke-width: 0.6"/>
      </g>
     </g>
    </g>
    <g id="ytick_10">
     <g id="line2d_74">
      <path d="M 37.074688 213.805888 
L 543.954687 213.805888 
" clip-path="url(#p99afd1780d)" style="fill: none; stroke: #bbbbbb; stroke-opacity: 0.15; stroke-width: 0.3; stroke-linecap: square"/>
     </g>
     <g id="line2d_75">
      <g>
       <use xlink:href="#m9788bc51c4" x="37.074688" y="213.805888" style="stroke: #000000; stroke-width: 0.6"/>
      </g>
     </g>
    </g>
    <g id="ytick_11">
     <g id="line2d_76">
      <path d="M 37.074688 200.885253 
L 543.954687 200.885253 
" clip-path="url(#p99afd1780d)" style="fill: none; stroke: #bbbbbb; stroke-opacity: 0.15; stroke-width: 0.3; stroke-linecap: square"/>
     </g>
     <g id="line2d_77">
      <g>
       <use xlink:href="#m9788bc51c4" x="37.074688" y="200.885253" style="stroke: #000000; stroke-width: 0.6"/>
      </g>
     </g>
    </g>
    <g id="ytick_12">
     <g id="line2d_78">
      <path d="M 37.074688 187.964618 
L 543.954687 187.964618 
" clip-path="url(#p99afd1780d)" style="fill: none; stroke: #bbbbbb; stroke-opacity: 0.15; stroke-width: 0.3; stroke-linecap: square"/>
     </g>
     <g id="line2d_79">
      <g>
       <use xlink:href="#m9788bc51c4" x="37.074688" y="187.964618" style="stroke: #000000; stroke-width: 0.6"/>
      </g>
     </g>
    </g>
    <g id="ytick_13">
     <g id="line2d_80">
      <path d="M 37.074688 162.123348 
L 543.954687 162.123348 
" clip-path="url(#p99afd1780d)" style="fill: none; stroke: #bbbbbb; stroke-opacity: 0.15; stroke-width: 0.3; stroke-linecap: square"/>
     </g>
     <g id="line2d_81">
      <g>
       <use xlink:href="#m9788bc51c4" x="37.074688" y="162.123348" style="stroke: #000000; stroke-width: 0.6"/>
      </g>
     </g>
    </g>
    <g id="ytick_14">
     <g id="line2d_82">
      <path d="M 37.074688 149.202713 
L 543.954687 149.202713 
" clip-path="url(#p99afd1780d)" style="fill: none; stroke: #bbbbbb; stroke-opacity: 0.15; stroke-width: 0.3; stroke-linecap: square"/>
     </g>
     <g id="line2d_83">
      <g>
       <use xlink:href="#m9788bc51c4" x="37.074688" y="149.202713" style="stroke: #000000; stroke-width: 0.6"/>
      </g>
     </g>
    </g>
    <g id="ytick_15">
     <g id="line2d_84">
      <path d="M 37.074688 136.282079 
L 543.954687 136.282079 
" clip-path="url(#p99afd1780d)" style="fill: none; stroke: #bbbbbb; stroke-opacity: 0.15; stroke-width: 0.3; stroke-linecap: square"/>
     </g>
     <g id="line2d_85">
      <g>
       <use xlink:href="#m9788bc51c4" x="37.074688" y="136.282079" style="stroke: #000000; stroke-width: 0.6"/>
      </g>
     </g>
    </g>
    <g id="ytick_16">
     <g id="line2d_86">
      <path d="M 37.074688 110.440809 
L 543.954687 110.440809 
" clip-path="url(#p99afd1780d)" style="fill: none; stroke: #bbbbbb; stroke-opacity: 0.15; stroke-width: 0.3; stroke-linecap: square"/>
     </g>
     <g id="line2d_87">
      <g>
       <use xlink:href="#m9788bc51c4" x="37.074688" y="110.440809" style="stroke: #000000; stroke-width: 0.6"/>
      </g>
     </g>
    </g>
    <g id="ytick_17">
     <g id="line2d_88">
      <path d="M 37.074688 97.520174 
L 543.954687 97.520174 
" clip-path="url(#p99afd1780d)" style="fill: none; stroke: #bbbbbb; stroke-opacity: 0.15; stroke-width: 0.3; stroke-linecap: square"/>
     </g>
     <g id="line2d_89">
      <g>
       <use xlink:href="#m9788bc51c4" x="37.074688" y="97.520174" style="stroke: #000000; stroke-width: 0.6"/>
      </g>
     </g>
    </g>
    <g id="ytick_18">
     <g id="line2d_90">
      <path d="M 37.074688 84.599539 
L 543.954687 84.599539 
" clip-path="url(#p99afd1780d)" style="fill: none; stroke: #bbbbbb; stroke-opacity: 0.15; stroke-width: 0.3; stroke-linecap: square"/>
     </g>
     <g id="line2d_91">
      <g>
       <use xlink:href="#m9788bc51c4" x="37.074688" y="84.599539" style="stroke: #000000; stroke-width: 0.6"/>
      </g>
     </g>
    </g>
    <g id="ytick_19">
     <g id="line2d_92">
      <path d="M 37.074688 58.758269 
L 543.954687 58.758269 
" clip-path="url(#p99afd1780d)" style="fill: none; stroke: #bbbbbb; stroke-opacity: 0.15; stroke-width: 0.3; stroke-linecap: square"/>
     </g>
     <g id="line2d_93">
      <g>
       <use xlink:href="#m9788bc51c4" x="37.074688" y="58.758269" style="stroke: #000000; stroke-width: 0.6"/>
      </g>
     </g>
    </g>
    <g id="ytick_20">
     <g id="line2d_94">
      <path d="M 37.074688 45.837634 
L 543.954687 45.837634 
" clip-path="url(#p99afd1780d)" style="fill: none; stroke: #bbbbbb; stroke-opacity: 0.15; stroke-width: 0.3; stroke-linecap: square"/>
     </g>
     <g id="line2d_95">
      <g>
       <use xlink:href="#m9788bc51c4" x="37.074688" y="45.837634" style="stroke: #000000; stroke-width: 0.6"/>
      </g>
     </g>
    </g>
    <g id="ytick_21">
     <g id="line2d_96">
      <path d="M 37.074688 32.916999 
L 543.954687 32.916999 
" clip-path="url(#p99afd1780d)" style="fill: none; stroke: #bbbbbb; stroke-opacity: 0.15; stroke-width: 0.3; stroke-linecap: square"/>
     </g>
     <g id="line2d_97">
      <g>
       <use xlink:href="#m9788bc51c4" x="37.074688" y="32.916999" style="stroke: #000000; stroke-width: 0.6"/>
      </g>
     </g>
    </g>
    <g id="text_14">
     <!-- val loss / $L_0$ -->
     <g transform="translate(13.27875 170.92) rotate(-90) scale(0.08 -0.08)">
      <defs>
       <path id="DejaVuSans-76" d="M 191 3500 
L 800 3500 
L 1894 563 
L 2988 3500 
L 3597 3500 
L 2284 0 
L 1503 0 
L 191 3500 
z
" transform="scale(0.015625)"/>
       <path id="DejaVuSans-6c" d="M 603 4863 
L 1178 4863 
L 1178 0 
L 603 0 
L 603 4863 
z
" transform="scale(0.015625)"/>
       <path id="DejaVuSans-6f" d="M 1959 3097 
Q 1497 3097 1228 2736 
Q 959 2375 959 1747 
Q 959 1119 1226 758 
Q 1494 397 1959 397 
Q 2419 397 2687 759 
Q 2956 1122 2956 1747 
Q 2956 2369 2687 2733 
Q 2419 3097 1959 3097 
z
M 1959 3584 
Q 2709 3584 3137 3096 
Q 3566 2609 3566 1747 
Q 3566 888 3137 398 
Q 2709 -91 1959 -91 
Q 1206 -91 779 398 
Q 353 888 353 1747 
Q 353 2609 779 3096 
Q 1206 3584 1959 3584 
z
" transform="scale(0.015625)"/>
       <path id="DejaVuSans-2f" d="M 1625 4666 
L 2156 4666 
L 531 -594 
L 0 -594 
L 1625 4666 
z
" transform="scale(0.015625)"/>
       <path id="DejaVuSans-Oblique-4c" d="M 1075 4666 
L 1709 4666 
L 909 525 
L 3181 525 
L 3078 0 
L 172 0 
L 1075 4666 
z
" transform="scale(0.015625)"/>
      </defs>
      <use xlink:href="#DejaVuSans-76" transform="translate(0 0.015625)"/>
      <use xlink:href="#DejaVuSans-61" transform="translate(59.179688 0.015625)"/>
      <use xlink:href="#DejaVuSans-6c" transform="translate(120.458984 0.015625)"/>
      <use xlink:href="#DejaVuSans-20" transform="translate(148.242188 0.015625)"/>
      <use xlink:href="#DejaVuSans-6c" transform="translate(180.029297 0.015625)"/>
      <use xlink:href="#DejaVuSans-6f" transform="translate(207.8125 0.015625)"/>
      <use xlink:href="#DejaVuSans-73" transform="translate(268.994141 0.015625)"/>
      <use xlink:href="#DejaVuSans-73" transform="translate(321.09375 0.015625)"/>
      <use xlink:href="#DejaVuSans-20" transform="translate(373.193359 0.015625)"/>
      <use xlink:href="#DejaVuSans-2f" transform="translate(404.980469 0.015625)"/>
      <use xlink:href="#DejaVuSans-20" transform="translate(438.671875 0.015625)"/>
      <use xlink:href="#DejaVuSans-Oblique-4c" transform="translate(470.458984 0.015625)"/>
      <use xlink:href="#DejaVuSans-30" transform="translate(526.171875 -16.390625) scale(0.7)"/>
     </g>
    </g>
   </g>
   <g id="line2d_98">
    <path d="M 60.114688 19.996364 
L 68.492869 20.814809 
L 76.871051 23.632695 
L 85.249233 28.296396 
L 93.627415 34.304579 
L 102.005597 41.466325 
L 110.383778 49.681416 
L 118.76196 58.845084 
L 127.140142 68.838265 
L 135.518324 79.455038 
L 143.896506 90.453706 
L 152.274687 101.58804 
L 160.652869 112.622877 
L 169.031051 123.311765 
L 177.409233 133.414478 
L 185.787415 142.683576 
L 194.165597 150.917455 
L 202.543778 157.97166 
L 210.92196 163.755538 
L 219.300142 168.225584 
L 227.678324 171.384737 
L 236.056506 173.277719 
L 244.434687 173.983842 
L 252.812869 173.930407 
L 261.191051 173.99323 
L 269.569233 173.9932 
L 277.947415 173.993554 
L 286.325597 173.993774 
L 294.703778 173.993721 
L 303.08196 173.993717 
L 311.460142 173.993835 
L 319.838324 173.993845 
L 328.216506 173.993837 
L 336.594688 173.993848 
L 344.972869 173.99383 
L 353.351051 173.993813 
L 361.729233 173.993774 
L 370.107415 173.993733 
L 378.485597 173.993791 
L 386.863778 173.99379 
L 395.24196 173.99381 
L 403.620142 173.993768 
L 411.998324 173.993789 
L 420.376506 173.993778 
L 428.754687 173.993833 
L 437.132869 173.993812 
L 445.511051 173.993782 
L 453.889233 173.993797 
L 462.267415 173.993843 
L 470.645597 173.993796 
L 479.023778 173.993841 
L 487.40196 173.99383 
L 495.780142 173.993824 
L 504.158324 173.993839 
L 512.536506 173.993844 
L 520.914688 173.993842 
" clip-path="url(#p99afd1780d)" style="fill: none; stroke: #0072b2; stroke-opacity: 0.85; stroke-width: 1.5; stroke-linecap: square"/>
   </g>
   <g id="line2d_99">
    <path d="M 60.114688 19.996364 
L 68.492869 21.499616 
L 76.871051 26.298241 
L 85.249233 34.040223 
L 93.627415 43.842925 
L 102.005597 55.468878 
L 110.383778 68.726242 
L 118.76196 83.382779 
L 127.140142 99.214452 
L 135.518324 115.965288 
L 143.896506 133.363958 
L 152.274687 151.094323 
L 160.652869 168.813732 
L 169.031051 186.198675 
L 177.409233 202.867819 
L 185.787415 218.443191 
L 194.165597 232.572802 
L 202.543778 244.942232 
L 210.92196 255.285002 
L 219.300142 263.462241 
L 227.678324 269.441886 
L 236.056506 273.31217 
L 244.434687 275.076267 
L 252.812869 275.138908 
L 261.191051 275.223719 
L 269.569233 275.225477 
L 277.947415 275.232624 
L 286.325597 275.234988 
L 294.703778 275.234962 
L 303.08196 275.234856 
L 311.460142 275.235146 
L 319.838324 275.235058 
L 328.216506 275.234926 
L 336.594688 275.235006 
L 344.972869 275.235099 
L 353.351051 275.235027 
L 361.729233 275.23482 
L 370.107415 275.235063 
L 378.485597 275.235107 
L 386.863778 275.235083 
L 395.24196 275.235063 
L 403.620142 275.235117 
L 411.998324 275.235042 
L 420.376506 275.235156 
L 428.754687 275.235148 
L 437.132869 275.235156 
L 445.511051 275.23514 
L 453.889233 275.235163 
L 462.267415 275.235204 
L 470.645597 275.235191 
L 479.023778 275.235201 
L 487.40196 275.235192 
L 495.780142 275.2352 
L 504.158324 275.235206 
L 512.536506 275.235187 
L 520.914688 275.235196 
" clip-path="url(#p99afd1780d)" style="fill: none; stroke: #e69f00; stroke-opacity: 0.85; stroke-width: 1.5; stroke-linecap: square"/>
   </g>
   <g id="line2d_100">
    <path d="M 60.114688 19.996364 
L 68.492869 22.07199 
L 76.871051 28.522132 
L 85.249233 38.816631 
L 93.627415 51.849346 
L 102.005597 67.290763 
L 110.383778 84.841638 
L 118.76196 104.209945 
L 127.140142 124.987056 
L 135.518324 146.612774 
L 143.896506 168.370879 
L 152.274687 189.447889 
L 160.652869 209.026172 
L 169.031051 226.37775 
L 177.409233 240.952959 
L 185.787415 252.467303 
L 194.165597 260.957098 
L 202.543778 266.7556 
L 210.92196 270.425273 
L 219.300142 272.626983 
L 227.678324 274.018043 
L 236.056506 275.124762 
L 244.434687 275.612842 
L 252.812869 275.762232 
L 261.191051 275.833419 
L 269.569233 275.916303 
L 277.947415 275.914997 
L 286.325597 275.921181 
L 294.703778 275.923286 
L 303.08196 275.923164 
L 311.460142 275.9236 
L 319.838324 275.923312 
L 328.216506 275.923468 
L 336.594688 275.923332 
L 344.972869 275.92343 
L 353.351051 275.923488 
L 361.729233 275.923475 
L 370.107415 275.923558 
L 378.485597 275.923463 
L 386.863778 275.923489 
L 395.24196 275.923538 
L 403.620142 275.923598 
L 411.998324 275.923526 
L 420.376506 275.923636 
L 428.754687 275.923479 
L 437.132869 275.923626 
L 445.511051 275.923584 
L 453.889233 275.923608 
L 462.267415 275.923576 
L 470.645597 275.923619 
L 479.023778 275.923615 
L 487.40196 275.923633 
L 495.780142 275.923605 
L 504.158324 275.923614 
L 512.536506 275.923584 
L 520.914688 275.923629 
" clip-path="url(#p99afd1780d)" style="fill: none; stroke: #009e73; stroke-opacity: 0.85; stroke-width: 1.5; stroke-linecap: square"/>
   </g>
   <g id="line2d_101">
    <path d="M 60.114688 19.996364 
L 68.492869 22.589546 
L 76.871051 30.533764 
L 85.249233 43.146244 
L 93.627415 59.059172 
L 102.005597 77.844672 
L 110.383778 99.052168 
L 118.76196 122.106589 
L 127.140142 146.182393 
L 135.518324 170.237667 
L 143.896506 193.112463 
L 152.274687 213.733687 
L 160.652869 231.264187 
L 169.031051 245.250209 
L 177.409233 255.703148 
L 185.787415 263.040163 
L 194.165597 267.915323 
L 202.543778 271.055462 
L 210.92196 273.083699 
L 219.300142 274.357271 
L 227.678324 275.079997 
L 236.056506 275.471982 
L 244.434687 275.56574 
L 252.812869 275.653456 
L 261.191051 275.67682 
L 269.569233 275.69412 
L 277.947415 275.705789 
L 286.325597 275.70938 
L 294.703778 275.710961 
L 303.08196 275.71274 
L 311.460142 275.715549 
L 319.838324 275.718654 
L 328.216506 275.723573 
L 336.594688 275.728937 
L 344.972869 275.734794 
L 353.351051 275.741083 
L 361.729233 275.747287 
L 370.107415 275.753437 
L 378.485597 275.758985 
L 386.863778 275.763871 
L 395.24196 275.768504 
L 403.620142 275.772813 
L 411.998324 275.776548 
L 420.376506 275.779976 
L 428.754687 275.783054 
L 437.132869 275.785795 
L 445.511051 275.788242 
L 453.889233 275.790441 
L 462.267415 275.792542 
L 470.645597 275.794311 
L 479.023778 275.795902 
L 487.40196 275.797364 
L 495.780142 275.798751 
L 504.158324 275.800003 
L 512.536506 275.801188 
L 520.914688 275.802363 
" clip-path="url(#p99afd1780d)" style="fill: none; stroke: #cc79a7; stroke-opacity: 0.85; stroke-width: 1.5; stroke-linecap: square"/>
   </g>
   <g id="line2d_102">
    <path d="M 60.114688 19.996364 
L 68.492869 23.016003 
L 76.871051 32.238741 
L 85.249233 46.852369 
L 93.627415 65.260513 
L 102.005597 86.886521 
L 110.383778 111.067582 
L 118.76196 136.841099 
L 127.140142 162.953223 
L 135.518324 187.9781 
L 143.896506 210.531862 
L 152.274687 229.579161 
L 160.652869 244.591278 
L 169.031051 255.607601 
L 177.409233 263.160059 
L 185.787415 268.046213 
L 194.165597 271.074796 
L 202.543778 272.89572 
L 210.92196 273.991708 
L 219.300142 274.692188 
L 227.678324 275.13183 
L 236.056506 275.262744 
L 244.434687 275.355468 
L 252.812869 275.385657 
L 261.191051 275.412439 
L 269.569233 275.433885 
L 277.947415 275.44484 
L 286.325597 275.460661 
L 294.703778 275.477234 
L 303.08196 275.495376 
L 311.460142 275.513546 
L 319.838324 275.531599 
L 328.216506 275.551918 
L 336.594688 275.567184 
L 344.972869 275.582619 
L 353.351051 275.595833 
L 361.729233 275.608116 
L 370.107415 275.618938 
L 378.485597 275.628467 
L 386.863778 275.63711 
L 395.24196 275.64468 
L 403.620142 275.651263 
L 411.998324 275.656974 
L 420.376506 275.661898 
L 428.754687 275.666235 
L 437.132869 275.670002 
L 445.511051 275.673334 
L 453.889233 275.676255 
L 462.267415 275.678907 
L 470.645597 275.681185 
L 479.023778 275.683198 
L 487.40196 275.684986 
L 495.780142 275.686689 
L 504.158324 275.688234 
L 512.536506 275.689693 
L 520.914688 275.691099 
" clip-path="url(#p99afd1780d)" style="fill: none; stroke: #d55e00; stroke-opacity: 0.85; stroke-width: 1.5; stroke-linecap: square"/>
   </g>
   <g id="line2d_103">
    <path d="M 60.114688 19.996364 
L 68.492869 23.502545 
L 76.871051 34.061329 
L 85.249233 50.740966 
L 93.627415 71.626185 
L 102.005597 95.99583 
L 110.383778 122.861958 
L 118.76196 150.845456 
L 127.140142 178.268051 
L 135.518324 203.396007 
L 143.896506 224.793897 
L 152.274687 241.656147 
L 160.652869 253.908051 
L 169.031051 262.125983 
L 177.409233 267.286654 
L 185.787415 270.41102 
L 194.165597 272.313715 
L 202.543778 273.509293 
L 210.92196 274.265905 
L 219.300142 274.747832 
L 227.678324 274.967697 
L 236.056506 275.067762 
L 244.434687 275.108961 
L 252.812869 275.155889 
L 261.191051 275.18702 
L 269.569233 275.218798 
L 277.947415 275.25208 
L 286.325597 275.28644 
L 294.703778 275.320019 
L 303.08196 275.352459 
L 311.460142 275.383928 
L 319.838324 275.411694 
L 328.216506 275.436694 
L 336.594688 275.460094 
L 344.972869 275.481351 
L 353.351051 275.500938 
L 361.729233 275.518814 
L 370.107415 275.535055 
L 378.485597 275.550077 
L 386.863778 275.563892 
L 395.24196 275.576432 
L 403.620142 275.587338 
L 411.998324 275.597177 
L 420.376506 275.605789 
L 428.754687 275.613377 
L 437.132869 275.619995 
L 445.511051 275.625934 
L 453.889233 275.631172 
L 462.267415 275.635868 
L 470.645597 275.639948 
L 479.023778 275.643567 
L 487.40196 275.646836 
L 495.780142 275.649896 
L 504.158324 275.652694 
L 512.536506 275.655264 
L 520.914688 275.657741 
" clip-path="url(#p99afd1780d)" style="fill: none; stroke: #56b4e9; stroke-opacity: 0.85; stroke-width: 1.5; stroke-linecap: square"/>
   </g>
   <g id="line2d_104">
    <path d="M 60.114688 19.996364 
L 68.492869 23.797637 
L 76.871051 35.325469 
L 85.249233 53.465629 
L 93.627415 76.118868 
L 102.005597 102.390605 
L 110.383778 131.071449 
L 118.76196 160.445386 
L 127.140142 188.470467 
L 135.518324 213.20326 
L 143.896506 233.251703 
L 152.274687 248.152942 
L 160.652869 258.330507 
L 169.031051 264.795153 
L 177.409233 268.731996 
L 185.787415 271.124017 
L 194.165597 272.610413 
L 202.543778 273.561391 
L 210.92196 274.184148 
L 219.300142 274.58226 
L 227.678324 274.716094 
L 236.056506 274.836041 
L 244.434687 274.894941 
L 252.812869 274.967116 
L 261.191051 275.031488 
L 269.569233 275.092427 
L 277.947415 275.151792 
L 286.325597 275.208289 
L 294.703778 275.259653 
L 303.08196 275.304512 
L 311.460142 275.344197 
L 319.838324 275.379945 
L 328.216506 275.410857 
L 336.594688 275.439397 
L 344.972869 275.464534 
L 353.351051 275.487306 
L 361.729233 275.508043 
L 370.107415 275.526808 
L 378.485597 275.54407 
L 386.863778 275.559492 
L 395.24196 275.573375 
L 403.620142 275.58565 
L 411.998324 275.59644 
L 420.376506 275.605833 
L 428.754687 275.614135 
L 437.132869 275.621369 
L 445.511051 275.627785 
L 453.889233 275.633404 
L 462.267415 275.638414 
L 470.645597 275.642761 
L 479.023778 275.646632 
L 487.40196 275.650139 
L 495.780142 275.653423 
L 504.158324 275.65642 
L 512.536506 275.659208 
L 520.914688 275.661864 
" clip-path="url(#p99afd1780d)" style="fill: none; stroke: #000000; stroke-opacity: 0.85; stroke-width: 1.5; stroke-linecap: square"/>
   </g>
   <g id="patch_3">
    <path d="M 37.074688 288.72 
L 37.074688 7.2 
" style="fill: none; stroke: #000000; stroke-width: 0.8; stroke-linejoin: miter; stroke-linecap: square"/>
   </g>
   <g id="patch_4">
    <path d="M 37.074688 288.72 
L 543.954687 288.72 
" style="fill: none; stroke: #000000; stroke-width: 0.8; stroke-linejoin: miter; stroke-linecap: square"/>
   </g>
   <g id="line2d_105">
    <path d="M 76.871051 23.632695 
L 135.518324 79.455038 
L 194.165597 150.917455 
L 252.812869 173.930407 
L 311.460142 173.993835 
L 370.107415 173.993733 
L 428.754687 173.993833 
L 487.40196 173.99383 
L 520.914688 173.993842 
" clip-path="url(#p99afd1780d)" style="fill: none"/>
    <defs>
     <path id="m9e4c2c3895" d="M 0 2.25 
C 0.596707 2.25 1.169055 2.012926 1.59099 1.59099 
C 2.012926 1.169055 2.25 0.596707 2.25 0 
C 2.25 -0.596707 2.012926 -1.169055 1.59099 -1.59099 
C 1.169055 -2.012926 0.596707 -2.25 0 -2.25 
C -0.596707 -2.25 -1.169055 -2.012926 -1.59099 -1.59099 
C -2.012926 -1.169055 -2.25 -0.596707 -2.25 0 
C -2.25 0.596707 -2.012926 1.169055 -1.59099 1.59099 
C -1.169055 2.012926 -0.596707 2.25 0 2.25 
z
" style="stroke: #0072b2"/>
    </defs>
    <g clip-path="url(#p99afd1780d)">
     <use xlink:href="#m9e4c2c3895" x="76.871051" y="23.632695" style="fill: #0072b2; stroke: #0072b2"/>
     <use xlink:href="#m9e4c2c3895" x="135.518324" y="79.455038" style="fill: #0072b2; stroke: #0072b2"/>
     <use xlink:href="#m9e4c2c3895" x="194.165597" y="150.917455" style="fill: #0072b2; stroke: #0072b2"/>
     <use xlink:href="#m9e4c2c3895" x="252.812869" y="173.930407" style="fill: #0072b2; stroke: #0072b2"/>
     <use xlink:href="#m9e4c2c3895" x="311.460142" y="173.993835" style="fill: #0072b2; stroke: #0072b2"/>
     <use xlink:href="#m9e4c2c3895" x="370.107415" y="173.993733" style="fill: #0072b2; stroke: #0072b2"/>
     <use xlink:href="#m9e4c2c3895" x="428.754687" y="173.993833" style="fill: #0072b2; stroke: #0072b2"/>
     <use xlink:href="#m9e4c2c3895" x="487.40196" y="173.99383" style="fill: #0072b2; stroke: #0072b2"/>
     <use xlink:href="#m9e4c2c3895" x="520.914688" y="173.993842" style="fill: #0072b2; stroke: #0072b2"/>
    </g>
   </g>
   <g id="line2d_106">
    <path d="M 93.627415 43.842925 
L 169.031051 186.198675 
L 244.434687 275.076267 
L 319.838324 275.235058 
L 395.24196 275.235063 
L 470.645597 275.235191 
L 520.914688 275.235196 
" clip-path="url(#p99afd1780d)" style="fill: none"/>
    <defs>
     <path id="m47f6200a8a" d="M -1.125 2.25 
L 0 1.125 
L 1.125 2.25 
L 2.25 1.125 
L 1.125 0 
L 2.25 -1.125 
L 1.125 -2.25 
L 0 -1.125 
L -1.125 -2.25 
L -2.25 -1.125 
L -1.125 0 
L -2.25 1.125 
z
" style="stroke: #e69f00; stroke-linejoin: miter"/>
    </defs>
    <g clip-path="url(#p99afd1780d)">
     <use xlink:href="#m47f6200a8a" x="93.627415" y="43.842925" style="fill: #e69f00; stroke: #e69f00; stroke-linejoin: miter"/>
     <use xlink:href="#m47f6200a8a" x="169.031051" y="186.198675" style="fill: #e69f00; stroke: #e69f00; stroke-linejoin: miter"/>
     <use xlink:href="#m47f6200a8a" x="244.434687" y="275.076267" style="fill: #e69f00; stroke: #e69f00; stroke-linejoin: miter"/>
     <use xlink:href="#m47f6200a8a" x="319.838324" y="275.235058" style="fill: #e69f00; stroke: #e69f00; stroke-linejoin: miter"/>
     <use xlink:href="#m47f6200a8a" x="395.24196" y="275.235063" style="fill: #e69f00; stroke: #e69f00; stroke-linejoin: miter"/>
     <use xlink:href="#m47f6200a8a" x="470.645597" y="275.235191" style="fill: #e69f00; stroke: #e69f00; stroke-linejoin: miter"/>
     <use xlink:href="#m47f6200a8a" x="520.914688" y="275.235196" style="fill: #e69f00; stroke: #e69f00; stroke-linejoin: miter"/>
    </g>
   </g>
   <g id="line2d_107">
    <path d="M 110.383778 84.841638 
L 202.543778 266.7556 
L 294.703778 275.923286 
L 386.863778 275.923489 
L 479.023778 275.923615 
L 520.914688 275.923629 
" clip-path="url(#p99afd1780d)" style="fill: none"/>
    <defs>
     <path id="ma9aebca998" d="M 0 -2.25 
L -2.25 2.25 
L 2.25 2.25 
z
" style="stroke: #009e73; stroke-linejoin: miter"/>
    </defs>
    <g clip-path="url(#p99afd1780d)">
     <use xlink:href="#ma9aebca998" x="110.383778" y="84.841638" style="fill: #009e73; stroke: #009e73; stroke-linejoin: miter"/>
     <use xlink:href="#ma9aebca998" x="202.543778" y="266.7556" style="fill: #009e73; stroke: #009e73; stroke-linejoin: miter"/>
     <use xlink:href="#ma9aebca998" x="294.703778" y="275.923286" style="fill: #009e73; stroke: #009e73; stroke-linejoin: miter"/>
     <use xlink:href="#ma9aebca998" x="386.863778" y="275.923489" style="fill: #009e73; stroke: #009e73; stroke-linejoin: miter"/>
     <use xlink:href="#ma9aebca998" x="479.023778" y="275.923615" style="fill: #009e73; stroke: #009e73; stroke-linejoin: miter"/>
     <use xlink:href="#ma9aebca998" x="520.914688" y="275.923629" style="fill: #009e73; stroke: #009e73; stroke-linejoin: miter"/>
    </g>
   </g>
   <g id="line2d_108">
    <path d="M 127.140142 146.182393 
L 236.056506 275.471982 
L 344.972869 275.734794 
L 453.889233 275.790441 
L 520.914688 275.802363 
" clip-path="url(#p99afd1780d)" style="fill: none"/>
    <defs>
     <path id="m83b91dada6" d="M -0.75 2.25 
L 0.75 2.25 
L 0.75 0.75 
L 2.25 0.75 
L 2.25 -0.75 
L 0.75 -0.75 
L 0.75 -2.25 
L -0.75 -2.25 
L -0.75 -0.75 
L -2.25 -0.75 
L -2.25 0.75 
L -0.75 0.75 
z
" style="stroke: #cc79a7; stroke-linejoin: miter"/>
    </defs>
    <g clip-path="url(#p99afd1780d)">
     <use xlink:href="#m83b91dada6" x="127.140142" y="146.182393" style="fill: #cc79a7; stroke: #cc79a7; stroke-linejoin: miter"/>
     <use xlink:href="#m83b91dada6" x="236.056506" y="275.471982" style="fill: #cc79a7; stroke: #cc79a7; stroke-linejoin: miter"/>
     <use xlink:href="#m83b91dada6" x="344.972869" y="275.734794" style="fill: #cc79a7; stroke: #cc79a7; stroke-linejoin: miter"/>
     <use xlink:href="#m83b91dada6" x="453.889233" y="275.790441" style="fill: #cc79a7; stroke: #cc79a7; stroke-linejoin: miter"/>
     <use xlink:href="#m83b91dada6" x="520.914688" y="275.802363" style="fill: #cc79a7; stroke: #cc79a7; stroke-linejoin: miter"/>
    </g>
   </g>
   <g id="line2d_109">
    <path d="M 85.249233 46.852369 
L 152.274687 229.579161 
L 219.300142 274.692188 
L 286.325597 275.460661 
L 353.351051 275.595833 
L 420.376506 275.661898 
L 487.40196 275.684986 
L 520.914688 275.691099 
" clip-path="url(#p99afd1780d)" style="fill: none"/>
    <defs>
     <path id="m10f048df12" d="M -2.25 2.25 
L 2.25 2.25 
L 2.25 -2.25 
L -2.25 -2.25 
z
" style="stroke: #d55e00; stroke-linejoin: miter"/>
    </defs>
    <g clip-path="url(#p99afd1780d)">
     <use xlink:href="#m10f048df12" x="85.249233" y="46.852369" style="fill: #d55e00; stroke: #d55e00; stroke-linejoin: miter"/>
     <use xlink:href="#m10f048df12" x="152.274687" y="229.579161" style="fill: #d55e00; stroke: #d55e00; stroke-linejoin: miter"/>
     <use xlink:href="#m10f048df12" x="219.300142" y="274.692188" style="fill: #d55e00; stroke: #d55e00; stroke-linejoin: miter"/>
     <use xlink:href="#m10f048df12" x="286.325597" y="275.460661" style="fill: #d55e00; stroke: #d55e00; stroke-linejoin: miter"/>
     <use xlink:href="#m10f048df12" x="353.351051" y="275.595833" style="fill: #d55e00; stroke: #d55e00; stroke-linejoin: miter"/>
     <use xlink:href="#m10f048df12" x="420.376506" y="275.661898" style="fill: #d55e00; stroke: #d55e00; stroke-linejoin: miter"/>
     <use xlink:href="#m10f048df12" x="487.40196" y="275.684986" style="fill: #d55e00; stroke: #d55e00; stroke-linejoin: miter"/>
     <use xlink:href="#m10f048df12" x="520.914688" y="275.691099" style="fill: #d55e00; stroke: #d55e00; stroke-linejoin: miter"/>
    </g>
   </g>
   <g id="line2d_110">
    <path d="M 102.005597 95.99583 
L 185.787415 270.41102 
L 269.569233 275.218798 
L 353.351051 275.500938 
L 437.132869 275.619995 
L 520.914688 275.657741 
" clip-path="url(#p99afd1780d)" style="fill: none"/>
    <defs>
     <path id="mfa76617f13" d="M 0 -2.25 
L -1.948557 -1.125 
L -1.948557 1.125 
L -0 2.25 
L 1.948557 1.125 
L 1.948557 -1.125 
z
" style="stroke: #56b4e9; stroke-linejoin: miter"/>
    </defs>
    <g clip-path="url(#p99afd1780d)">
     <use xlink:href="#mfa76617f13" x="102.005597" y="95.99583" style="fill: #56b4e9; stroke: #56b4e9; stroke-linejoin: miter"/>
     <use xlink:href="#mfa76617f13" x="185.787415" y="270.41102" style="fill: #56b4e9; stroke: #56b4e9; stroke-linejoin: miter"/>
     <use xlink:href="#mfa76617f13" x="269.569233" y="275.218798" style="fill: #56b4e9; stroke: #56b4e9; stroke-linejoin: miter"/>
     <use xlink:href="#mfa76617f13" x="353.351051" y="275.500938" style="fill: #56b4e9; stroke: #56b4e9; stroke-linejoin: miter"/>
     <use xlink:href="#mfa76617f13" x="437.132869" y="275.619995" style="fill: #56b4e9; stroke: #56b4e9; stroke-linejoin: miter"/>
     <use xlink:href="#mfa76617f13" x="520.914688" y="275.657741" style="fill: #56b4e9; stroke: #56b4e9; stroke-linejoin: miter"/>
    </g>
   </g>
   <g id="line2d_111">
    <path d="M 118.76196 160.445386 
L 219.300142 274.58226 
L 319.838324 275.379945 
L 420.376506 275.605833 
L 520.914688 275.661864 
" clip-path="url(#p99afd1780d)" style="fill: none"/>
    <defs>
     <path id="m29460a2ac1" d="M -0 3.181981 
L 3.181981 0 
L 0 -3.181981 
L -3.181981 -0 
z
" style="stroke: #000000; stroke-linejoin: miter"/>
    </defs>
    <g clip-path="url(#p99afd1780d)">
     <use xlink:href="#m29460a2ac1" x="118.76196" y="160.445386" style="stroke: #000000; stroke-linejoin: miter"/>
     <use xlink:href="#m29460a2ac1" x="219.300142" y="274.58226" style="stroke: #000000; stroke-linejoin: miter"/>
     <use xlink:href="#m29460a2ac1" x="319.838324" y="275.379945" style="stroke: #000000; stroke-linejoin: miter"/>
     <use xlink:href="#m29460a2ac1" x="420.376506" y="275.605833" style="stroke: #000000; stroke-linejoin: miter"/>
     <use xlink:href="#m29460a2ac1" x="520.914688" y="275.661864" style="stroke: #000000; stroke-linejoin: miter"/>
    </g>
   </g>
   <g id="legend_1">
    <g id="patch_5">
     <path d="M 440.844687 84.722813 
L 539.054688 84.722813 
Q 540.454687 84.722813 540.454687 83.322813 
L 540.454687 12.1 
Q 540.454687 10.7 539.054688 10.7 
L 440.844687 10.7 
Q 439.444687 10.7 439.444687 12.1 
L 439.444687 83.322813 
Q 439.444687 84.722813 440.844687 84.722813 
z
" style="fill: #ffffff; opacity: 0.85; stroke: #cccccc; stroke-linejoin: miter"/>
    </g>
    <g id="line2d_112">
     <path d="M 442.244687 16.368906 
L 450.644687 16.368906 
L 459.044688 16.368906 
" style="fill: none"/>
     <g>
      <use xlink:href="#m9e4c2c3895" x="450.644687" y="16.368906" style="fill: #0072b2; stroke: #0072b2"/>
     </g>
    </g>
    <g id="text_15">
     <!-- k=1  (13452$\rightarrow$5436) -->
     <g transform="translate(464.644687 18.818906) scale(0.07 -0.07)">
      <defs>
       <path id="DejaVuSans-6b" d="M 581 4863 
L 1159 4863 
L 1159 1991 
L 2875 3500 
L 3609 3500 
L 1753 1863 
L 3688 0 
L 2938 0 
L 1159 1709 
L 1159 0 
L 581 0 
L 581 4863 
z
" transform="scale(0.015625)"/>
       <path id="DejaVuSans-3d" d="M 678 2906 
L 4684 2906 
L 4684 2381 
L 678 2381 
L 678 2906 
z
M 678 1631 
L 4684 1631 
L 4684 1100 
L 678 1100 
L 678 1631 
z
" transform="scale(0.015625)"/>
       <path id="DejaVuSans-2192" d="M 5050 2147 
L 5050 1866 
L 3822 638 
L 3447 1013 
L 4175 1741 
L 366 1741 
L 366 2272 
L 4175 2272 
L 3447 3000 
L 3822 3375 
L 5050 2147 
z
" transform="scale(0.015625)"/>
      </defs>
      <use xlink:href="#DejaVuSans-6b" transform="translate(0 0.015625)"/>
      <use xlink:href="#DejaVuSans-3d" transform="translate(57.910156 0.015625)"/>
      <use xlink:href="#DejaVuSans-31" transform="translate(141.699219 0.015625)"/>
      <use xlink:href="#DejaVuSans-20" transform="translate(205.322266 0.015625)"/>
      <use xlink:href="#DejaVuSans-20" transform="translate(237.109375 0.015625)"/>
      <use xlink:href="#DejaVuSans-28" transform="translate(268.896484 0.015625)"/>
      <use xlink:href="#DejaVuSans-31" transform="translate(307.910156 0.015625)"/>
      <use xlink:href="#DejaVuSans-33" transform="translate(371.533203 0.015625)"/>
      <use xlink:href="#DejaVuSans-34" transform="translate(435.15625 0.015625)"/>
      <use xlink:href="#DejaVuSans-35" transform="translate(498.779297 0.015625)"/>
      <use xlink:href="#DejaVuSans-32" transform="translate(562.402344 0.015625)"/>
      <use xlink:href="#DejaVuSans-2192" transform="translate(645.507812 0.015625)"/>
      <use xlink:href="#DejaVuSans-35" transform="translate(748.779297 0.015625)"/>
      <use xlink:href="#DejaVuSans-34" transform="translate(812.402344 0.015625)"/>
      <use xlink:href="#DejaVuSans-33" transform="translate(876.025391 0.015625)"/>
      <use xlink:href="#DejaVuSans-36" transform="translate(939.648438 0.015625)"/>
      <use xlink:href="#DejaVuSans-29" transform="translate(1003.271484 0.015625)"/>
     </g>
    </g>
    <g id="line2d_113">
     <path d="M 442.244687 26.643594 
L 450.644687 26.643594 
L 459.044688 26.643594 
" style="fill: none"/>
     <g>
      <use xlink:href="#m47f6200a8a" x="450.644687" y="26.643594" style="fill: #e69f00; stroke: #e69f00; stroke-linejoin: miter"/>
     </g>
    </g>
    <g id="text_16">
     <!-- k=2  (13449$\rightarrow$165) -->
     <g transform="translate(464.644687 29.093594) scale(0.07 -0.07)">
      <defs>
       <path id="DejaVuSans-39" d="M 703 97 
L 703 672 
Q 941 559 1184 500 
Q 1428 441 1663 441 
Q 2288 441 2617 861 
Q 2947 1281 2994 2138 
Q 2813 1869 2534 1725 
Q 2256 1581 1919 1581 
Q 1219 1581 811 2004 
Q 403 2428 403 3163 
Q 403 3881 828 4315 
Q 1253 4750 1959 4750 
Q 2769 4750 3195 4129 
Q 3622 3509 3622 2328 
Q 3622 1225 3098 567 
Q 2575 -91 1691 -91 
Q 1453 -91 1209 -44 
Q 966 3 703 97 
z
M 1959 2075 
Q 2384 2075 2632 2365 
Q 2881 2656 2881 3163 
Q 2881 3666 2632 3958 
Q 2384 4250 1959 4250 
Q 1534 4250 1286 3958 
Q 1038 3666 1038 3163 
Q 1038 2656 1286 2365 
Q 1534 2075 1959 2075 
z
" transform="scale(0.015625)"/>
      </defs>
      <use xlink:href="#DejaVuSans-6b" transform="translate(0 0.015625)"/>
      <use xlink:href="#DejaVuSans-3d" transform="translate(57.910156 0.015625)"/>
      <use xlink:href="#DejaVuSans-32" transform="translate(141.699219 0.015625)"/>
      <use xlink:href="#DejaVuSans-20" transform="translate(205.322266 0.015625)"/>
      <use xlink:href="#DejaVuSans-20" transform="translate(237.109375 0.015625)"/>
      <use xlink:href="#DejaVuSans-28" transform="translate(268.896484 0.015625)"/>
      <use xlink:href="#DejaVuSans-31" transform="translate(307.910156 0.015625)"/>
      <use xlink:href="#DejaVuSans-33" transform="translate(371.533203 0.015625)"/>
      <use xlink:href="#DejaVuSans-34" transform="translate(435.15625 0.015625)"/>
      <use xlink:href="#DejaVuSans-34" transform="translate(498.779297 0.015625)"/>
      <use xlink:href="#DejaVuSans-39" transform="translate(562.402344 0.015625)"/>
      <use xlink:href="#DejaVuSans-2192" transform="translate(645.507812 0.015625)"/>
      <use xlink:href="#DejaVuSans-31" transform="translate(748.779297 0.015625)"/>
      <use xlink:href="#DejaVuSans-36" transform="translate(812.402344 0.015625)"/>
      <use xlink:href="#DejaVuSans-35" transform="translate(876.025391 0.015625)"/>
      <use xlink:href="#DejaVuSans-29" transform="translate(939.648438 0.015625)"/>
     </g>
    </g>
    <g id="line2d_114">
     <path d="M 442.244687 36.918281 
L 450.644687 36.918281 
L 459.044688 36.918281 
" style="fill: none"/>
     <g>
      <use xlink:href="#ma9aebca998" x="450.644687" y="36.918281" style="fill: #009e73; stroke: #009e73; stroke-linejoin: miter"/>
     </g>
    </g>
    <g id="text_17">
     <!-- k=3  (13446$\rightarrow$129) -->
     <g transform="translate(464.644687 39.368281) scale(0.07 -0.07)">
      <use xlink:href="#DejaVuSans-6b" transform="translate(0 0.015625)"/>
      <use xlink:href="#DejaVuSans-3d" transform="translate(57.910156 0.015625)"/>
      <use xlink:href="#DejaVuSans-33" transform="translate(141.699219 0.015625)"/>
      <use xlink:href="#DejaVuSans-20" transform="translate(205.322266 0.015625)"/>
      <use xlink:href="#DejaVuSans-20" transform="translate(237.109375 0.015625)"/>
      <use xlink:href="#DejaVuSans-28" transform="translate(268.896484 0.015625)"/>
      <use xlink:href="#DejaVuSans-31" transform="translate(307.910156 0.015625)"/>
      <use xlink:href="#DejaVuSans-33" transform="translate(371.533203 0.015625)"/>
      <use xlink:href="#DejaVuSans-34" transform="translate(435.15625 0.015625)"/>
      <use xlink:href="#DejaVuSans-34" transform="translate(498.779297 0.015625)"/>
      <use xlink:href="#DejaVuSans-36" transform="translate(562.402344 0.015625)"/>
      <use xlink:href="#DejaVuSans-2192" transform="translate(645.507812 0.015625)"/>
      <use xlink:href="#DejaVuSans-31" transform="translate(748.779297 0.015625)"/>
      <use xlink:href="#DejaVuSans-32" transform="translate(812.402344 0.015625)"/>
      <use xlink:href="#DejaVuSans-39" transform="translate(874.275391 0.015625)"/>
      <use xlink:href="#DejaVuSans-29" transform="translate(937.898438 0.015625)"/>
     </g>
    </g>
    <g id="line2d_115">
     <path d="M 442.244687 47.192969 
L 450.644687 47.192969 
L 459.044688 47.192969 
" style="fill: none"/>
     <g>
      <use xlink:href="#m83b91dada6" x="450.644687" y="47.192969" style="fill: #cc79a7; stroke: #cc79a7; stroke-linejoin: miter"/>
     </g>
    </g>
    <g id="text_18">
     <!-- k=4  (13443$\rightarrow$136) -->
     <g transform="translate(464.644687 49.642969) scale(0.07 -0.07)">
      <use xlink:href="#DejaVuSans-6b" transform="translate(0 0.015625)"/>
      <use xlink:href="#DejaVuSans-3d" transform="translate(57.910156 0.015625)"/>
      <use xlink:href="#DejaVuSans-34" transform="translate(141.699219 0.015625)"/>
      <use xlink:href="#DejaVuSans-20" transform="translate(205.322266 0.015625)"/>
      <use xlink:href="#DejaVuSans-20" transform="translate(237.109375 0.015625)"/>
      <use xlink:href="#DejaVuSans-28" transform="translate(268.896484 0.015625)"/>
      <use xlink:href="#DejaVuSans-31" transform="translate(307.910156 0.015625)"/>
      <use xlink:href="#DejaVuSans-33" transform="translate(371.533203 0.015625)"/>
      <use xlink:href="#DejaVuSans-34" transform="translate(435.15625 0.015625)"/>
      <use xlink:href="#DejaVuSans-34" transform="translate(498.779297 0.015625)"/>
      <use xlink:href="#DejaVuSans-33" transform="translate(562.402344 0.015625)"/>
      <use xlink:href="#DejaVuSans-2192" transform="translate(645.507812 0.015625)"/>
      <use xlink:href="#DejaVuSans-31" transform="translate(748.779297 0.015625)"/>
      <use xlink:href="#DejaVuSans-33" transform="translate(812.402344 0.015625)"/>
      <use xlink:href="#DejaVuSans-36" transform="translate(876.025391 0.015625)"/>
      <use xlink:href="#DejaVuSans-29" transform="translate(939.648438 0.015625)"/>
     </g>
    </g>
    <g id="line2d_116">
     <path d="M 442.244687 57.467656 
L 450.644687 57.467656 
L 459.044688 57.467656 
" style="fill: none"/>
     <g>
      <use xlink:href="#m10f048df12" x="450.644687" y="57.467656" style="fill: #d55e00; stroke: #d55e00; stroke-linejoin: miter"/>
     </g>
    </g>
    <g id="text_19">
     <!-- k=5  (13441$\rightarrow$141) -->
     <g transform="translate(464.644687 59.917656) scale(0.07 -0.07)">
      <use xlink:href="#DejaVuSans-6b" transform="translate(0 0.015625)"/>
      <use xlink:href="#DejaVuSans-3d" transform="translate(57.910156 0.015625)"/>
      <use xlink:href="#DejaVuSans-35" transform="translate(141.699219 0.015625)"/>
      <use xlink:href="#DejaVuSans-20" transform="translate(205.322266 0.015625)"/>
      <use xlink:href="#DejaVuSans-20" transform="translate(237.109375 0.015625)"/>
      <use xlink:href="#DejaVuSans-28" transform="translate(268.896484 0.015625)"/>
      <use xlink:href="#DejaVuSans-31" transform="translate(307.910156 0.015625)"/>
      <use xlink:href="#DejaVuSans-33" transform="translate(371.533203 0.015625)"/>
      <use xlink:href="#DejaVuSans-34" transform="translate(435.15625 0.015625)"/>
      <use xlink:href="#DejaVuSans-34" transform="translate(498.779297 0.015625)"/>
      <use xlink:href="#DejaVuSans-31" transform="translate(562.402344 0.015625)"/>
      <use xlink:href="#DejaVuSans-2192" transform="translate(645.507812 0.015625)"/>
      <use xlink:href="#DejaVuSans-31" transform="translate(748.779297 0.015625)"/>
      <use xlink:href="#DejaVuSans-34" transform="translate(812.402344 0.015625)"/>
      <use xlink:href="#DejaVuSans-31" transform="translate(876.025391 0.015625)"/>
      <use xlink:href="#DejaVuSans-29" transform="translate(939.648438 0.015625)"/>
     </g>
    </g>
    <g id="line2d_117">
     <path d="M 442.244687 67.742344 
L 450.644687 67.742344 
L 459.044688 67.742344 
" style="fill: none"/>
     <g>
      <use xlink:href="#mfa76617f13" x="450.644687" y="67.742344" style="fill: #56b4e9; stroke: #56b4e9; stroke-linejoin: miter"/>
     </g>
    </g>
    <g id="text_20">
     <!-- k=6  (13437$\rightarrow$143) -->
     <g transform="translate(464.644687 70.192344) scale(0.07 -0.07)">
      <defs>
       <path id="DejaVuSans-37" d="M 525 4666 
L 3525 4666 
L 3525 4397 
L 1831 0 
L 1172 0 
L 2766 4134 
L 525 4134 
L 525 4666 
z
" transform="scale(0.015625)"/>
      </defs>
      <use xlink:href="#DejaVuSans-6b" transform="translate(0 0.015625)"/>
      <use xlink:href="#DejaVuSans-3d" transform="translate(57.910156 0.015625)"/>
      <use xlink:href="#DejaVuSans-36" transform="translate(141.699219 0.015625)"/>
      <use xlink:href="#DejaVuSans-20" transform="translate(205.322266 0.015625)"/>
      <use xlink:href="#DejaVuSans-20" transform="translate(237.109375 0.015625)"/>
      <use xlink:href="#DejaVuSans-28" transform="translate(268.896484 0.015625)"/>
      <use xlink:href="#DejaVuSans-31" transform="translate(307.910156 0.015625)"/>
      <use xlink:href="#DejaVuSans-33" transform="translate(371.533203 0.015625)"/>
      <use xlink:href="#DejaVuSans-34" transform="translate(435.15625 0.015625)"/>
      <use xlink:href="#DejaVuSans-33" transform="translate(498.779297 0.015625)"/>
      <use xlink:href="#DejaVuSans-37" transform="translate(562.402344 0.015625)"/>
      <use xlink:href="#DejaVuSans-2192" transform="translate(645.507812 0.015625)"/>
      <use xlink:href="#DejaVuSans-31" transform="translate(748.779297 0.015625)"/>
      <use xlink:href="#DejaVuSans-34" transform="translate(812.402344 0.015625)"/>
      <use xlink:href="#DejaVuSans-33" transform="translate(876.025391 0.015625)"/>
      <use xlink:href="#DejaVuSans-29" transform="translate(939.648438 0.015625)"/>
     </g>
    </g>
    <g id="line2d_118">
     <path d="M 442.244687 78.017031 
L 450.644687 78.017031 
L 459.044688 78.017031 
" style="fill: none"/>
     <g>
      <use xlink:href="#m29460a2ac1" x="450.644687" y="78.017031" style="stroke: #000000; stroke-linejoin: miter"/>
     </g>
    </g>
    <g id="text_21">
     <!-- k=7  (13437$\rightarrow$143) -->
     <g transform="translate(464.644687 80.467031) scale(0.07 -0.07)">
      <use xlink:href="#DejaVuSans-6b" transform="translate(0 0.015625)"/>
      <use xlink:href="#DejaVuSans-3d" transform="translate(57.910156 0.015625)"/>
      <use xlink:href="#DejaVuSans-37" transform="translate(141.699219 0.015625)"/>
      <use xlink:href="#DejaVuSans-20" transform="translate(205.322266 0.015625)"/>
      <use xlink:href="#DejaVuSans-20" transform="translate(237.109375 0.015625)"/>
      <use xlink:href="#DejaVuSans-28" transform="translate(268.896484 0.015625)"/>
      <use xlink:href="#DejaVuSans-31" transform="translate(307.910156 0.015625)"/>
      <use xlink:href="#DejaVuSans-33" transform="translate(371.533203 0.015625)"/>
      <use xlink:href="#DejaVuSans-34" transform="translate(435.15625 0.015625)"/>
      <use xlink:href="#DejaVuSans-33" transform="translate(498.779297 0.015625)"/>
      <use xlink:href="#DejaVuSans-37" transform="translate(562.402344 0.015625)"/>
      <use xlink:href="#DejaVuSans-2192" transform="translate(645.507812 0.015625)"/>
      <use xlink:href="#DejaVuSans-31" transform="translate(748.779297 0.015625)"/>
      <use xlink:href="#DejaVuSans-34" transform="translate(812.402344 0.015625)"/>
      <use xlink:href="#DejaVuSans-33" transform="translate(876.025391 0.015625)"/>
      <use xlink:href="#DejaVuSans-29" transform="translate(939.648438 0.015625)"/>
     </g>
    </g>
   </g>
  </g>
 </g>
 <defs>
  <clipPath id="p99afd1780d">
   <rect x="37.074688" y="7.2" width="506.88" height="281.52"/>
  </clipPath>
 </defs>
</svg>
