<?xml version="1.0" encoding="utf-8" standalone="no"?>
<!DOCTYPE svg PUBLIC "-//W3C//DTD SVG 1.1//EN"
  "http://www.w3.org/Graphics/SVG/1.1/DTD/svg11.dtd">
<svg xmlns:xlink="http://www.w3.org/1999/xlink" width="322.929531pt" height="254.803125pt" viewBox="0 0 322.929531 254.803125" xmlns="http://www.w3.org/2000/svg" version="1.1">
 <metadata>
  <rdf:RDF xmlns:dc="http://purl.org/dc/elements/1.1/" xmlns:cc="http://creativecommons.org/ns#" xmlns:rdf="http://www.w3.org/1999/02/22-rdf-syntax-ns#">
   <cc:Work>
    <dc:type rdf:resource="http://purl.org/dc/dcmitype/StillImage"/>
    <dc:date>2026-07-01T00:51:36.992449</dc:date>
    <dc:format>image/svg+xml</dc:format>
    <dc:creator>
     <cc:Agent>
      <dc:title>Matplotlib v3.10.9, https://matplotlib.org/</dc:title>
     </cc:Agent>
    </dc:creator>
   </cc:Work>
  </rdf:RDF>
 </metadata>
 <defs>
  <style type="text/css">*{stroke-linejoin: round; stroke-linecap: butt}</style>
 </defs>
 <g id="figure_1">
  <g id="patch_1">
   <path d="M 0 254.803125 
L 322.929531 254.803125 
L 322.929531 0 
L 0 0 
z
" style="fill: #ffffff"/>
  </g>
  <g id="axes_1">
   <g id="patch_2">
    <path d="M 42.329531 218.68 
L 315.729531 218.68 
L 315.729531 7.2 
L 42.329531 7.2 
z
" style="fill: #ffffff"/>
   </g>
   <g id="patch_3">
    <path d="M 54.756804 218.68 
L 60.723925 218.68 
L 60.723925 218.68 
L 54.756804 218.68 
z
" clip-path="url(#pc0b552d20e)" style="fill: #0072b2; opacity: 0.3"/>
   </g>
   <g id="patch_4">
    <path d="M 60.723925 218.68 
L 66.691046 218.68 
L 66.691046 218.68 
L 60.723925 218.68 
z
" clip-path="url(#pc0b552d20e)" style="fill: #0072b2; opacity: 0.3"/>
   </g>
   <g id="patch_5">
    <path d="M 66.691046 218.68 
L 72.658167 218.68 
L 72.658167 189.907211 
L 66.691046 189.907211 
z
" clip-path="url(#pc0b552d20e)" style="fill: #0072b2; opacity: 0.3"/>
   </g>
   <g id="patch_6">
    <path d="M 72.658167 218.68 
L 78.625287 218.68 
L 78.625287 218.68 
L 72.658167 218.68 
z
" clip-path="url(#pc0b552d20e)" style="fill: #0072b2; opacity: 0.3"/>
   </g>
   <g id="patch_7">
    <path d="M 78.625287 218.68 
L 84.592408 218.68 
L 84.592408 175.520816 
L 78.625287 175.520816 
z
" clip-path="url(#pc0b552d20e)" style="fill: #0072b2; opacity: 0.3"/>
   </g>
   <g id="patch_8">
    <path d="M 84.592408 218.68 
L 90.559529 218.68 
L 90.559529 175.520816 
L 84.592408 175.520816 
z
" clip-path="url(#pc0b552d20e)" style="fill: #0072b2; opacity: 0.3"/>
   </g>
   <g id="patch_9">
    <path d="M 90.559529 218.68 
L 96.52665 218.68 
L 96.52665 161.134422 
L 90.559529 161.134422 
z
" clip-path="url(#pc0b552d20e)" style="fill: #0072b2; opacity: 0.3"/>
   </g>
   <g id="patch_10">
    <path d="M 96.52665 218.68 
L 102.493771 218.68 
L 102.493771 117.975238 
L 96.52665 117.975238 
z
" clip-path="url(#pc0b552d20e)" style="fill: #0072b2; opacity: 0.3"/>
   </g>
   <g id="patch_11">
    <path d="M 102.493771 218.68 
L 108.460892 218.68 
L 108.460892 46.043265 
L 102.493771 46.043265 
z
" clip-path="url(#pc0b552d20e)" style="fill: #0072b2; opacity: 0.3"/>
   </g>
   <g id="patch_12">
    <path d="M 108.460892 218.68 
L 114.428012 218.68 
L 114.428012 17.270476 
L 108.460892 17.270476 
z
" clip-path="url(#pc0b552d20e)" style="fill: #0072b2; opacity: 0.3"/>
   </g>
   <g id="patch_13">
    <path d="M 114.428012 218.68 
L 120.395133 218.68 
L 120.395133 46.043265 
L 114.428012 46.043265 
z
" clip-path="url(#pc0b552d20e)" style="fill: #0072b2; opacity: 0.3"/>
   </g>
   <g id="patch_14">
    <path d="M 120.395133 218.68 
L 126.362254 218.68 
L 126.362254 74.816054 
L 120.395133 74.816054 
z
" clip-path="url(#pc0b552d20e)" style="fill: #0072b2; opacity: 0.3"/>
   </g>
   <g id="patch_15">
    <path d="M 126.362254 218.68 
L 132.329375 218.68 
L 132.329375 132.361633 
L 126.362254 132.361633 
z
" clip-path="url(#pc0b552d20e)" style="fill: #0072b2; opacity: 0.3"/>
   </g>
   <g id="patch_16">
    <path d="M 132.329375 218.68 
L 138.296496 218.68 
L 138.296496 132.361633 
L 132.329375 132.361633 
z
" clip-path="url(#pc0b552d20e)" style="fill: #0072b2; opacity: 0.3"/>
   </g>
   <g id="patch_17">
    <path d="M 138.296496 218.68 
L 144.263617 218.68 
L 144.263617 103.588844 
L 138.296496 103.588844 
z
" clip-path="url(#pc0b552d20e)" style="fill: #0072b2; opacity: 0.3"/>
   </g>
   <g id="patch_18">
    <path d="M 144.263617 218.68 
L 150.230737 218.68 
L 150.230737 146.748027 
L 144.263617 146.748027 
z
" clip-path="url(#pc0b552d20e)" style="fill: #0072b2; opacity: 0.3"/>
   </g>
   <g id="patch_19">
    <path d="M 150.230737 218.68 
L 156.197858 218.68 
L 156.197858 161.134422 
L 150.230737 161.134422 
z
" clip-path="url(#pc0b552d20e)" style="fill: #0072b2; opacity: 0.3"/>
   </g>
   <g id="patch_20">
    <path d="M 156.197858 218.68 
L 162.164979 218.68 
L 162.164979 189.907211 
L 156.197858 189.907211 
z
" clip-path="url(#pc0b552d20e)" style="fill: #0072b2; opacity: 0.3"/>
   </g>
   <g id="patch_21">
    <path d="M 162.164979 218.68 
L 168.1321 218.68 
L 168.1321 218.68 
L 162.164979 218.68 
z
" clip-path="url(#pc0b552d20e)" style="fill: #0072b2; opacity: 0.3"/>
   </g>
   <g id="patch_22">
    <path d="M 168.1321 218.68 
L 174.099221 218.68 
L 174.099221 218.68 
L 168.1321 218.68 
z
" clip-path="url(#pc0b552d20e)" style="fill: #0072b2; opacity: 0.3"/>
   </g>
   <g id="patch_23">
    <path d="M 174.099221 218.68 
L 180.066342 218.68 
L 180.066342 189.907211 
L 174.099221 189.907211 
z
" clip-path="url(#pc0b552d20e)" style="fill: #0072b2; opacity: 0.3"/>
   </g>
   <g id="patch_24">
    <path d="M 180.066342 218.68 
L 186.033463 218.68 
L 186.033463 218.68 
L 180.066342 218.68 
z
" clip-path="url(#pc0b552d20e)" style="fill: #0072b2; opacity: 0.3"/>
   </g>
   <g id="patch_25">
    <path d="M 186.033463 218.68 
L 192.000583 218.68 
L 192.000583 218.68 
L 186.033463 218.68 
z
" clip-path="url(#pc0b552d20e)" style="fill: #0072b2; opacity: 0.3"/>
   </g>
   <g id="matplotlib.axis_1">
    <g id="xtick_1">
     <g id="line2d_1">
      <defs>
       <path id="m04314c10cf" d="M 0 0 
L 0 3.5 
" style="stroke: #000000; stroke-width: 0.8"/>
      </defs>
      <g>
       <use xlink:href="#m04314c10cf" x="74.493286" y="218.68" style="stroke: #000000; stroke-width: 0.8"/>
      </g>
     </g>
     <g id="text_1">
      <!-- 28 -->
      <g transform="translate(68.130786 233.278438) scale(0.1 -0.1)">
       <defs>
        <path id="DejaVuSans-32" d="M 1228 531 
L 3431 531 
L 3431 0 
L 469 0 
L 469 531 
Q 828 903 1448 1529 
Q 2069 2156 2228 2338 
Q 2531 2678 2651 2914 
Q 2772 3150 2772 3378 
Q 2772 3750 2511 3984 
Q 2250 4219 1831 4219 
Q 1534 4219 1204 4116 
Q 875 4013 500 3803 
L 500 4441 
Q 881 4594 1212 4672 
Q 1544 4750 1819 4750 
Q 2544 4750 2975 4387 
Q 3406 4025 3406 3419 
Q 3406 3131 3298 2873 
Q 3191 2616 2906 2266 
Q 2828 2175 2409 1742 
Q 1991 1309 1228 531 
z
" transform="scale(0.015625)"/>
        <path id="DejaVuSans-38" d="M 2034 2216 
Q 1584 2216 1326 1975 
Q 1069 1734 1069 1313 
Q 1069 891 1326 650 
Q 1584 409 2034 409 
Q 2484 409 2743 651 
Q 3003 894 3003 1313 
Q 3003 1734 2745 1975 
Q 2488 2216 2034 2216 
z
M 1403 2484 
Q 997 2584 770 2862 
Q 544 3141 544 3541 
Q 544 4100 942 4425 
Q 1341 4750 2034 4750 
Q 2731 4750 3128 4425 
Q 3525 4100 3525 3541 
Q 3525 3141 3298 2862 
Q 3072 2584 2669 2484 
Q 3125 2378 3379 2068 
Q 3634 1759 3634 1313 
Q 3634 634 3220 271 
Q 2806 -91 2034 -91 
Q 1263 -91 848 271 
Q 434 634 434 1313 
Q 434 1759 690 2068 
Q 947 2378 1403 2484 
z
M 1172 3481 
Q 1172 3119 1398 2916 
Q 1625 2713 2034 2713 
Q 2441 2713 2670 2916 
Q 2900 3119 2900 3481 
Q 2900 3844 2670 4047 
Q 2441 4250 2034 4250 
Q 1625 4250 1398 4047 
Q 1172 3844 1172 3481 
z
" transform="scale(0.015625)"/>
       </defs>
       <use xlink:href="#DejaVuSans-32"/>
       <use xlink:href="#DejaVuSans-38" transform="translate(63.623047 0)"/>
      </g>
     </g>
    </g>
    <g id="xtick_2">
     <g id="line2d_2">
      <g>
       <use xlink:href="#m04314c10cf" x="112.583676" y="218.68" style="stroke: #000000; stroke-width: 0.8"/>
      </g>
     </g>
     <g id="text_2">
      <!-- 29 -->
      <g transform="translate(106.221176 233.278438) scale(0.1 -0.1)">
       <defs>
        <path id="DejaVuSans-39" d="M 703 97 
L 703 672 
Q 941 559 1184 500 
Q 1428 441 1663 441 
Q 2288 441 2617 861 
Q 2947 1281 2994 2138 
Q 2813 1869 2534 1725 
Q 2256 1581 1919 1581 
Q 1219 1581 811 2004 
Q 403 2428 403 3163 
Q 403 3881 828 4315 
Q 1253 4750 1959 4750 
Q 2769 4750 3195 4129 
Q 3622 3509 3622 2328 
Q 3622 1225 3098 567 
Q 2575 -91 1691 -91 
Q 1453 -91 1209 -44 
Q 966 3 703 97 
z
M 1959 2075 
Q 2384 2075 2632 2365 
Q 2881 2656 2881 3163 
Q 2881 3666 2632 3958 
Q 2384 4250 1959 4250 
Q 1534 4250 1286 3958 
Q 1038 3666 1038 3163 
Q 1038 2656 1286 2365 
Q 1534 2075 1959 2075 
z
" transform="scale(0.015625)"/>
       </defs>
       <use xlink:href="#DejaVuSans-32"/>
       <use xlink:href="#DejaVuSans-39" transform="translate(63.623047 0)"/>
      </g>
     </g>
    </g>
    <g id="xtick_3">
     <g id="line2d_3">
      <g>
       <use xlink:href="#m04314c10cf" x="150.674066" y="218.68" style="stroke: #000000; stroke-width: 0.8"/>
      </g>
     </g>
     <g id="text_3">
      <!-- 30 -->
      <g transform="translate(144.311566 233.278438) scale(0.1 -0.1)">
       <defs>
        <path id="DejaVuSans-33" d="M 2597 2516 
Q 3050 2419 3304 2112 
Q 3559 1806 3559 1356 
Q 3559 666 3084 287 
Q 2609 -91 1734 -91 
Q 1441 -91 1130 -33 
Q 819 25 488 141 
L 488 750 
Q 750 597 1062 519 
Q 1375 441 1716 441 
Q 2309 441 2620 675 
Q 2931 909 2931 1356 
Q 2931 1769 2642 2001 
Q 2353 2234 1838 2234 
L 1294 2234 
L 1294 2753 
L 1863 2753 
Q 2328 2753 2575 2939 
Q 2822 3125 2822 3475 
Q 2822 3834 2567 4026 
Q 2313 4219 1838 4219 
Q 1578 4219 1281 4162 
Q 984 4106 628 3988 
L 628 4550 
Q 988 4650 1302 4700 
Q 1616 4750 1894 4750 
Q 2613 4750 3031 4423 
Q 3450 4097 3450 3541 
Q 3450 3153 3228 2886 
Q 3006 2619 2597 2516 
z
" transform="scale(0.015625)"/>
        <path id="DejaVuSans-30" d="M 2034 4250 
Q 1547 4250 1301 3770 
Q 1056 3291 1056 2328 
Q 1056 1369 1301 889 
Q 1547 409 2034 409 
Q 2525 409 2770 889 
Q 3016 1369 3016 2328 
Q 3016 3291 2770 3770 
Q 2525 4250 2034 4250 
z
M 2034 4750 
Q 2819 4750 3233 4129 
Q 3647 3509 3647 2328 
Q 3647 1150 3233 529 
Q 2819 -91 2034 -91 
Q 1250 -91 836 529 
Q 422 1150 422 2328 
Q 422 3509 836 4129 
Q 1250 4750 2034 4750 
z
" transform="scale(0.015625)"/>
       </defs>
       <use xlink:href="#DejaVuSans-33"/>
       <use xlink:href="#DejaVuSans-30" transform="translate(63.623047 0)"/>
      </g>
     </g>
    </g>
    <g id="xtick_4">
     <g id="line2d_4">
      <g>
       <use xlink:href="#m04314c10cf" x="188.764456" y="218.68" style="stroke: #000000; stroke-width: 0.8"/>
      </g>
     </g>
     <g id="text_4">
      <!-- 31 -->
      <g transform="translate(182.401956 233.278438) scale(0.1 -0.1)">
       <defs>
        <path id="DejaVuSans-31" d="M 794 531 
L 1825 531 
L 1825 4091 
L 703 3866 
L 703 4441 
L 1819 4666 
L 2450 4666 
L 2450 531 
L 3481 531 
L 3481 0 
L 794 0 
L 794 531 
z
" transform="scale(0.015625)"/>
       </defs>
       <use xlink:href="#DejaVuSans-33"/>
       <use xlink:href="#DejaVuSans-31" transform="translate(63.623047 0)"/>
      </g>
     </g>
    </g>
    <g id="xtick_5">
     <g id="line2d_5">
      <g>
       <use xlink:href="#m04314c10cf" x="226.854846" y="218.68" style="stroke: #000000; stroke-width: 0.8"/>
      </g>
     </g>
     <g id="text_5">
      <!-- 32 -->
      <g transform="translate(220.492346 233.278438) scale(0.1 -0.1)">
       <use xlink:href="#DejaVuSans-33"/>
       <use xlink:href="#DejaVuSans-32" transform="translate(63.623047 0)"/>
      </g>
     </g>
    </g>
    <g id="xtick_6">
     <g id="line2d_6">
      <g>
       <use xlink:href="#m04314c10cf" x="264.945236" y="218.68" style="stroke: #000000; stroke-width: 0.8"/>
      </g>
     </g>
     <g id="text_6">
      <!-- 33 -->
      <g transform="translate(258.582736 233.278438) scale(0.1 -0.1)">
       <use xlink:href="#DejaVuSans-33"/>
       <use xlink:href="#DejaVuSans-33" transform="translate(63.623047 0)"/>
      </g>
     </g>
    </g>
    <g id="xtick_7">
     <g id="line2d_7">
      <g>
       <use xlink:href="#m04314c10cf" x="303.035626" y="218.68" style="stroke: #000000; stroke-width: 0.8"/>
      </g>
     </g>
     <g id="text_7">
      <!-- 34 -->
      <g transform="translate(296.673126 233.278438) scale(0.1 -0.1)">
       <defs>
        <path id="DejaVuSans-34" d="M 2419 4116 
L 825 1625 
L 2419 1625 
L 2419 4116 
z
M 2253 4666 
L 3047 4666 
L 3047 1625 
L 3713 1625 
L 3713 1100 
L 3047 1100 
L 3047 0 
L 2419 0 
L 2419 1100 
L 313 1100 
L 313 1709 
L 2253 4666 
z
" transform="scale(0.015625)"/>
       </defs>
       <use xlink:href="#DejaVuSans-33"/>
       <use xlink:href="#DejaVuSans-34" transform="translate(63.623047 0)"/>
      </g>
     </g>
    </g>
    <g id="text_8">
     <!-- test PSNR @ $\rho=.20$  (dB) -->
     <g transform="translate(124.162031 245.818125) scale(0.085 -0.085)">
      <defs>
       <path id="DejaVuSans-74" d="M 1172 4494 
L 1172 3500 
L 2356 3500 
L 2356 3053 
L 1172 3053 
L 1172 1153 
Q 1172 725 1289 603 
Q 1406 481 1766 481 
L 2356 481 
L 2356 0 
L 1766 0 
Q 1100 0 847 248 
Q 594 497 594 1153 
L 594 3053 
L 172 3053 
L 172 3500 
L 594 3500 
L 594 4494 
L 1172 4494 
z
" transform="scale(0.015625)"/>
       <path id="DejaVuSans-65" d="M 3597 1894 
L 3597 1613 
L 953 1613 
Q 991 1019 1311 708 
Q 1631 397 2203 397 
Q 2534 397 2845 478 
Q 3156 559 3463 722 
L 3463 178 
Q 3153 47 2828 -22 
Q 2503 -91 2169 -91 
Q 1331 -91 842 396 
Q 353 884 353 1716 
Q 353 2575 817 3079 
Q 1281 3584 2069 3584 
Q 2775 3584 3186 3129 
Q 3597 2675 3597 1894 
z
M 3022 2063 
Q 3016 2534 2758 2815 
Q 2500 3097 2075 3097 
Q 1594 3097 1305 2825 
Q 1016 2553 972 2059 
L 3022 2063 
z
" transform="scale(0.015625)"/>
       <path id="DejaVuSans-73" d="M 2834 3397 
L 2834 2853 
Q 2591 2978 2328 3040 
Q 2066 3103 1784 3103 
Q 1356 3103 1142 2972 
Q 928 2841 928 2578 
Q 928 2378 1081 2264 
Q 1234 2150 1697 2047 
L 1894 2003 
Q 2506 1872 2764 1633 
Q 3022 1394 3022 966 
Q 3022 478 2636 193 
Q 2250 -91 1575 -91 
Q 1294 -91 989 -36 
Q 684 19 347 128 
L 347 722 
Q 666 556 975 473 
Q 1284 391 1588 391 
Q 1994 391 2212 530 
Q 2431 669 2431 922 
Q 2431 1156 2273 1281 
Q 2116 1406 1581 1522 
L 1381 1569 
Q 847 1681 609 1914 
Q 372 2147 372 2553 
Q 372 3047 722 3315 
Q 1072 3584 1716 3584 
Q 2034 3584 2315 3537 
Q 2597 3491 2834 3397 
z
" transform="scale(0.015625)"/>
       <path id="DejaVuSans-20" transform="scale(0.015625)"/>
       <path id="DejaVuSans-50" d="M 1259 4147 
L 1259 2394 
L 2053 2394 
Q 2494 2394 2734 2622 
Q 2975 2850 2975 3272 
Q 2975 3691 2734 3919 
Q 2494 4147 2053 4147 
L 1259 4147 
z
M 628 4666 
L 2053 4666 
Q 2838 4666 3239 4311 
Q 3641 3956 3641 3272 
Q 3641 2581 3239 2228 
Q 2838 1875 2053 1875 
L 1259 1875 
L 1259 0 
L 628 0 
L 628 4666 
z
" transform="scale(0.015625)"/>
       <path id="DejaVuSans-53" d="M 3425 4513 
L 3425 3897 
Q 3066 4069 2747 4153 
Q 2428 4238 2131 4238 
Q 1616 4238 1336 4038 
Q 1056 3838 1056 3469 
Q 1056 3159 1242 3001 
Q 1428 2844 1947 2747 
L 2328 2669 
Q 3034 2534 3370 2195 
Q 3706 1856 3706 1288 
Q 3706 609 3251 259 
Q 2797 -91 1919 -91 
Q 1588 -91 1214 -16 
Q 841 59 441 206 
L 441 856 
Q 825 641 1194 531 
Q 1563 422 1919 422 
Q 2459 422 2753 634 
Q 3047 847 3047 1241 
Q 3047 1584 2836 1778 
Q 2625 1972 2144 2069 
L 1759 2144 
Q 1053 2284 737 2584 
Q 422 2884 422 3419 
Q 422 4038 858 4394 
Q 1294 4750 2059 4750 
Q 2388 4750 2728 4690 
Q 3069 4631 3425 4513 
z
" transform="scale(0.015625)"/>
       <path id="DejaVuSans-4e" d="M 628 4666 
L 1478 4666 
L 3547 763 
L 3547 4666 
L 4159 4666 
L 4159 0 
L 3309 0 
L 1241 3903 
L 1241 0 
L 628 0 
L 628 4666 
z
" transform="scale(0.015625)"/>
       <path id="DejaVuSans-52" d="M 2841 2188 
Q 3044 2119 3236 1894 
Q 3428 1669 3622 1275 
L 4263 0 
L 3584 0 
L 2988 1197 
Q 2756 1666 2539 1819 
Q 2322 1972 1947 1972 
L 1259 1972 
L 1259 0 
L 628 0 
L 628 4666 
L 2053 4666 
Q 2853 4666 3247 4331 
Q 3641 3997 3641 3322 
Q 3641 2881 3436 2590 
Q 3231 2300 2841 2188 
z
M 1259 4147 
L 1259 2491 
L 2053 2491 
Q 2509 2491 2742 2702 
Q 2975 2913 2975 3322 
Q 2975 3731 2742 3939 
Q 2509 4147 2053 4147 
L 1259 4147 
z
" transform="scale(0.015625)"/>
       <path id="DejaVuSans-40" d="M 2381 1678 
Q 2381 1231 2603 976 
Q 2825 722 3213 722 
Q 3597 722 3817 978 
Q 4038 1234 4038 1678 
Q 4038 2116 3813 2373 
Q 3588 2631 3206 2631 
Q 2828 2631 2604 2375 
Q 2381 2119 2381 1678 
z
M 4084 744 
Q 3897 503 3655 389 
Q 3413 275 3091 275 
Q 2553 275 2217 664 
Q 1881 1053 1881 1678 
Q 1881 2303 2218 2693 
Q 2556 3084 3091 3084 
Q 3413 3084 3656 2967 
Q 3900 2850 4084 2613 
L 4084 3022 
L 4531 3022 
L 4531 722 
Q 4988 791 5245 1139 
Q 5503 1488 5503 2041 
Q 5503 2375 5404 2669 
Q 5306 2963 5106 3213 
Q 4781 3622 4314 3839 
Q 3847 4056 3297 4056 
Q 2913 4056 2559 3954 
Q 2206 3853 1906 3653 
Q 1416 3334 1139 2817 
Q 863 2300 863 1697 
Q 863 1200 1042 765 
Q 1222 331 1563 0 
Q 1891 -325 2322 -495 
Q 2753 -666 3244 -666 
Q 3647 -666 4036 -530 
Q 4425 -394 4750 -141 
L 5031 -488 
Q 4641 -791 4180 -952 
Q 3719 -1113 3244 -1113 
Q 2666 -1113 2153 -908 
Q 1641 -703 1241 -313 
Q 841 78 631 592 
Q 422 1106 422 1697 
Q 422 2266 634 2781 
Q 847 3297 1241 3688 
Q 1644 4084 2172 4295 
Q 2700 4506 3291 4506 
Q 3953 4506 4520 4234 
Q 5088 3963 5472 3463 
Q 5706 3156 5829 2797 
Q 5953 2438 5953 2053 
Q 5953 1231 5456 756 
Q 4959 281 4084 263 
L 4084 744 
z
" transform="scale(0.015625)"/>
       <path id="DejaVuSans-Oblique-3c1" d="M 1203 2875 
Q 1453 3194 1981 3475 
Q 2188 3584 2756 3584 
Q 3394 3584 3694 3078 
Q 3994 2572 3834 1747 
Q 3672 922 3175 415 
Q 2678 -91 2041 -91 
Q 1656 -91 1409 63 
Q 1163 213 1044 525 
L 681 -1331 
L 103 -1331 
L 697 1716 
Q 838 2438 1203 2875 
z
M 3238 1747 
Q 3359 2381 3169 2744 
Q 2978 3103 2522 3103 
Q 2066 3103 1734 2744 
Q 1403 2381 1281 1747 
Q 1156 1113 1347 750 
Q 1538 391 1994 391 
Q 2450 391 2781 750 
Q 3113 1113 3238 1747 
z
" transform="scale(0.015625)"/>
       <path id="DejaVuSans-3d" d="M 678 2906 
L 4684 2906 
L 4684 2381 
L 678 2381 
L 678 2906 
z
M 678 1631 
L 4684 1631 
L 4684 1100 
L 678 1100 
L 678 1631 
z
" transform="scale(0.015625)"/>
       <path id="DejaVuSans-2e" d="M 684 794 
L 1344 794 
L 1344 0 
L 684 0 
L 684 794 
z
" transform="scale(0.015625)"/>
       <path id="DejaVuSans-28" d="M 1984 4856 
Q 1566 4138 1362 3434 
Q 1159 2731 1159 2009 
Q 1159 1288 1364 580 
Q 1569 -128 1984 -844 
L 1484 -844 
Q 1016 -109 783 600 
Q 550 1309 550 2009 
Q 550 2706 781 3412 
Q 1013 4119 1484 4856 
L 1984 4856 
z
" transform="scale(0.015625)"/>
       <path id="DejaVuSans-64" d="M 2906 2969 
L 2906 4863 
L 3481 4863 
L 3481 0 
L 2906 0 
L 2906 525 
Q 2725 213 2448 61 
Q 2172 -91 1784 -91 
Q 1150 -91 751 415 
Q 353 922 353 1747 
Q 353 2572 751 3078 
Q 1150 3584 1784 3584 
Q 2172 3584 2448 3432 
Q 2725 3281 2906 2969 
z
M 947 1747 
Q 947 1113 1208 752 
Q 1469 391 1925 391 
Q 2381 391 2643 752 
Q 2906 1113 2906 1747 
Q 2906 2381 2643 2742 
Q 2381 3103 1925 3103 
Q 1469 3103 1208 2742 
Q 947 2381 947 1747 
z
" transform="scale(0.015625)"/>
       <path id="DejaVuSans-42" d="M 1259 2228 
L 1259 519 
L 2272 519 
Q 2781 519 3026 730 
Q 3272 941 3272 1375 
Q 3272 1813 3026 2020 
Q 2781 2228 2272 2228 
L 1259 2228 
z
M 1259 4147 
L 1259 2741 
L 2194 2741 
Q 2656 2741 2882 2914 
Q 3109 3088 3109 3444 
Q 3109 3797 2882 3972 
Q 2656 4147 2194 4147 
L 1259 4147 
z
M 628 4666 
L 2241 4666 
Q 2963 4666 3353 4366 
Q 3744 4066 3744 3513 
Q 3744 3084 3544 2831 
Q 3344 2578 2956 2516 
Q 3422 2416 3680 2098 
Q 3938 1781 3938 1306 
Q 3938 681 3513 340 
Q 3088 0 2303 0 
L 628 0 
L 628 4666 
z
" transform="scale(0.015625)"/>
       <path id="DejaVuSans-29" d="M 513 4856 
L 1013 4856 
Q 1481 4119 1714 3412 
Q 1947 2706 1947 2009 
Q 1947 1309 1714 600 
Q 1481 -109 1013 -844 
L 513 -844 
Q 928 -128 1133 580 
Q 1338 1288 1338 2009 
Q 1338 2731 1133 3434 
Q 928 4138 513 4856 
z
" transform="scale(0.015625)"/>
      </defs>
      <use xlink:href="#DejaVuSans-74" transform="translate(0 0.015625)"/>
      <use xlink:href="#DejaVuSans-65" transform="translate(39.208984 0.015625)"/>
      <use xlink:href="#DejaVuSans-73" transform="translate(100.732422 0.015625)"/>
      <use xlink:href="#DejaVuSans-74" transform="translate(152.832031 0.015625)"/>
      <use xlink:href="#DejaVuSans-20" transform="translate(192.041016 0.015625)"/>
      <use xlink:href="#DejaVuSans-50" transform="translate(223.828125 0.015625)"/>
      <use xlink:href="#DejaVuSans-53" transform="translate(284.130859 0.015625)"/>
      <use xlink:href="#DejaVuSans-4e" transform="translate(347.607422 0.015625)"/>
      <use xlink:href="#DejaVuSans-52" transform="translate(418.787109 0.015625)"/>
      <use xlink:href="#DejaVuSans-20" transform="translate(488.269531 0.015625)"/>
      <use xlink:href="#DejaVuSans-40" transform="translate(520.056641 0.015625)"/>
      <use xlink:href="#DejaVuSans-20" transform="translate(620.056641 0.015625)"/>
      <use xlink:href="#DejaVuSans-Oblique-3c1" transform="translate(651.84375 0.015625)"/>
      <use xlink:href="#DejaVuSans-3d" transform="translate(734.802734 0.015625)"/>
      <use xlink:href="#DejaVuSans-2e" transform="translate(838.074219 0.015625)"/>
      <use xlink:href="#DejaVuSans-32" transform="translate(889.34375 0.015625)"/>
      <use xlink:href="#DejaVuSans-30" transform="translate(952.966797 0.015625)"/>
      <use xlink:href="#DejaVuSans-20" transform="translate(1016.589844 0.015625)"/>
      <use xlink:href="#DejaVuSans-20" transform="translate(1048.376953 0.015625)"/>
      <use xlink:href="#DejaVuSans-28" transform="translate(1080.164062 0.015625)"/>
      <use xlink:href="#DejaVuSans-64" transform="translate(1119.177734 0.015625)"/>
      <use xlink:href="#DejaVuSans-42" transform="translate(1182.654297 0.015625)"/>
      <use xlink:href="#DejaVuSans-29" transform="translate(1251.257812 0.015625)"/>
     </g>
    </g>
   </g>
   <g id="matplotlib.axis_2">
    <g id="ytick_1">
     <g id="line2d_8">
      <defs>
       <path id="m4b7743e5fc" d="M 0 0 
L -3.5 0 
" style="stroke: #000000; stroke-width: 0.8"/>
      </defs>
      <g>
       <use xlink:href="#m4b7743e5fc" x="42.329531" y="218.68" style="stroke: #000000; stroke-width: 0.8"/>
      </g>
     </g>
     <g id="text_9">
      <!-- 0.0 -->
      <g transform="translate(19.426406 222.479219) scale(0.1 -0.1)">
       <use xlink:href="#DejaVuSans-30"/>
       <use xlink:href="#DejaVuSans-2e" transform="translate(63.623047 0)"/>
       <use xlink:href="#DejaVuSans-30" transform="translate(95.410156 0)"/>
      </g>
     </g>
    </g>
    <g id="ytick_2">
     <g id="line2d_9">
      <g>
       <use xlink:href="#m4b7743e5fc" x="42.329531" y="173.605452" style="stroke: #000000; stroke-width: 0.8"/>
      </g>
     </g>
     <g id="text_10">
      <!-- 0.2 -->
      <g transform="translate(19.426406 177.404671) scale(0.1 -0.1)">
       <use xlink:href="#DejaVuSans-30"/>
       <use xlink:href="#DejaVuSans-2e" transform="translate(63.623047 0)"/>
       <use xlink:href="#DejaVuSans-32" transform="translate(95.410156 0)"/>
      </g>
     </g>
    </g>
    <g id="ytick_3">
     <g id="line2d_10">
      <g>
       <use xlink:href="#m4b7743e5fc" x="42.329531" y="128.530905" style="stroke: #000000; stroke-width: 0.8"/>
      </g>
     </g>
     <g id="text_11">
      <!-- 0.4 -->
      <g transform="translate(19.426406 132.330124) scale(0.1 -0.1)">
       <use xlink:href="#DejaVuSans-30"/>
       <use xlink:href="#DejaVuSans-2e" transform="translate(63.623047 0)"/>
       <use xlink:href="#DejaVuSans-34" transform="translate(95.410156 0)"/>
      </g>
     </g>
    </g>
    <g id="ytick_4">
     <g id="line2d_11">
      <g>
       <use xlink:href="#m4b7743e5fc" x="42.329531" y="83.456357" style="stroke: #000000; stroke-width: 0.8"/>
      </g>
     </g>
     <g id="text_12">
      <!-- 0.6 -->
      <g transform="translate(19.426406 87.255576) scale(0.1 -0.1)">
       <defs>
        <path id="DejaVuSans-36" d="M 2113 2584 
Q 1688 2584 1439 2293 
Q 1191 2003 1191 1497 
Q 1191 994 1439 701 
Q 1688 409 2113 409 
Q 2538 409 2786 701 
Q 3034 994 3034 1497 
Q 3034 2003 2786 2293 
Q 2538 2584 2113 2584 
z
M 3366 4563 
L 3366 3988 
Q 3128 4100 2886 4159 
Q 2644 4219 2406 4219 
Q 1781 4219 1451 3797 
Q 1122 3375 1075 2522 
Q 1259 2794 1537 2939 
Q 1816 3084 2150 3084 
Q 2853 3084 3261 2657 
Q 3669 2231 3669 1497 
Q 3669 778 3244 343 
Q 2819 -91 2113 -91 
Q 1303 -91 875 529 
Q 447 1150 447 2328 
Q 447 3434 972 4092 
Q 1497 4750 2381 4750 
Q 2619 4750 2861 4703 
Q 3103 4656 3366 4563 
z
" transform="scale(0.015625)"/>
       </defs>
       <use xlink:href="#DejaVuSans-30"/>
       <use xlink:href="#DejaVuSans-2e" transform="translate(63.623047 0)"/>
       <use xlink:href="#DejaVuSans-36" transform="translate(95.410156 0)"/>
      </g>
     </g>
    </g>
    <g id="ytick_5">
     <g id="line2d_12">
      <g>
       <use xlink:href="#m4b7743e5fc" x="42.329531" y="38.38181" style="stroke: #000000; stroke-width: 0.8"/>
      </g>
     </g>
     <g id="text_13">
      <!-- 0.8 -->
      <g transform="translate(19.426406 42.181029) scale(0.1 -0.1)">
       <use xlink:href="#DejaVuSans-30"/>
       <use xlink:href="#DejaVuSans-2e" transform="translate(63.623047 0)"/>
       <use xlink:href="#DejaVuSans-38" transform="translate(95.410156 0)"/>
      </g>
     </g>
    </g>
    <g id="text_14">
     <!-- density -->
     <g transform="translate(13.658672 128.522891) rotate(-90) scale(0.085 -0.085)">
      <defs>
       <path id="DejaVuSans-6e" d="M 3513 2113 
L 3513 0 
L 2938 0 
L 2938 2094 
Q 2938 2591 2744 2837 
Q 2550 3084 2163 3084 
Q 1697 3084 1428 2787 
Q 1159 2491 1159 1978 
L 1159 0 
L 581 0 
L 581 3500 
L 1159 3500 
L 1159 2956 
Q 1366 3272 1645 3428 
Q 1925 3584 2291 3584 
Q 2894 3584 3203 3211 
Q 3513 2838 3513 2113 
z
" transform="scale(0.015625)"/>
       <path id="DejaVuSans-69" d="M 603 3500 
L 1178 3500 
L 1178 0 
L 603 0 
L 603 3500 
z
M 603 4863 
L 1178 4863 
L 1178 4134 
L 603 4134 
L 603 4863 
z
" transform="scale(0.015625)"/>
       <path id="DejaVuSans-79" d="M 2059 -325 
Q 1816 -950 1584 -1140 
Q 1353 -1331 966 -1331 
L 506 -1331 
L 506 -850 
L 844 -850 
Q 1081 -850 1212 -737 
Q 1344 -625 1503 -206 
L 1606 56 
L 191 3500 
L 800 3500 
L 1894 763 
L 2988 3500 
L 3597 3500 
L 2059 -325 
z
" transform="scale(0.015625)"/>
      </defs>
      <use xlink:href="#DejaVuSans-64"/>
      <use xlink:href="#DejaVuSans-65" transform="translate(63.476562 0)"/>
      <use xlink:href="#DejaVuSans-6e" transform="translate(125 0)"/>
      <use xlink:href="#DejaVuSans-73" transform="translate(188.378906 0)"/>
      <use xlink:href="#DejaVuSans-69" transform="translate(240.478516 0)"/>
      <use xlink:href="#DejaVuSans-74" transform="translate(268.261719 0)"/>
      <use xlink:href="#DejaVuSans-79" transform="translate(307.470703 0)"/>
     </g>
    </g>
   </g>
   <g id="line2d_13">
    <path d="M 54.756804 217.240627 
L 57.515473 216.540264 
L 59.584475 215.831882 
L 61.653476 214.925785 
L 63.722478 213.779462 
L 65.79148 212.345215 
L 67.860481 210.570698 
L 69.929483 208.39987 
L 71.998485 205.77443 
L 74.067487 202.635756 
L 76.136488 198.927375 
L 78.20549 194.597928 
L 80.274492 189.604555 
L 82.343493 183.916589 
L 84.412495 177.519383 
L 86.481497 170.41805 
L 88.550498 162.640877 
L 91.309167 151.317766 
L 94.757503 135.936929 
L 105.102512 88.342762 
L 107.171514 80.059856 
L 109.240515 72.681746 
L 110.61985 68.362947 
L 111.999184 64.585922 
L 113.378519 61.397375 
L 114.757853 58.837357 
L 116.137188 56.938427 
L 116.826855 56.244825 
L 117.516522 55.724968 
L 118.206189 55.38054 
L 118.895857 55.21266 
L 119.585524 55.221873 
L 120.275191 55.408149 
L 120.964858 55.770882 
L 121.654526 56.308896 
L 122.344193 57.020447 
L 123.723527 58.954426 
L 125.102862 61.547998 
L 126.482196 64.768193 
L 127.861531 68.574593 
L 129.240865 72.920175 
L 131.309867 80.333027 
L 133.378869 88.643591 
L 136.137537 100.756078 
L 140.965208 123.363366 
L 145.792879 145.621625 
L 148.551548 157.400554 
L 151.310217 168.164102 
L 153.379218 175.471379 
L 155.44822 182.08041 
L 157.517222 187.979495 
L 159.586223 193.177761 
L 161.655225 197.701493 
L 163.724227 201.590304 
L 165.793229 204.893387 
L 167.86223 207.666019 
L 169.931232 209.966462 
L 172.000234 211.853341 
L 174.069235 213.383544 
L 176.138237 214.61064 
L 178.207239 215.583791 
L 180.27624 216.347091 
L 183.034909 217.104574 
L 185.793578 217.634398 
L 189.241914 218.068726 
L 192.000583 218.289826 
L 192.000583 218.289826 
" clip-path="url(#pc0b552d20e)" style="fill: none; stroke: #0072b2; stroke-width: 1.6; stroke-linecap: square"/>
   </g>
   <g id="line2d_14">
    <path d="M 171.357147 218.68 
L 171.357147 7.2 
" clip-path="url(#pc0b552d20e)" style="fill: none; stroke-dasharray: 7.68,1.92,1.2,1.92; stroke-dashoffset: 0; stroke: #0072b2; stroke-width: 1.2"/>
   </g>
   <g id="line2d_15">
    <path d="M 180.613112 218.68 
L 180.613112 7.2 
" clip-path="url(#pc0b552d20e)" style="fill: none; stroke-dasharray: 4.44,1.92; stroke-dashoffset: 0; stroke: #000000; stroke-width: 1.2"/>
   </g>
   <g id="line2d_16">
    <path d="M 303.302259 218.68 
L 303.302259 7.2 
" clip-path="url(#pc0b552d20e)" style="fill: none; stroke-dasharray: 1.2,1.98; stroke-dashoffset: 0; stroke: #737373; stroke-width: 1.2"/>
   </g>
   <g id="patch_26">
    <path d="M 42.329531 218.68 
L 42.329531 7.2 
" style="fill: none; stroke: #000000; stroke-width: 0.8; stroke-linejoin: miter; stroke-linecap: square"/>
   </g>
   <g id="patch_27">
    <path d="M 315.729531 218.68 
L 315.729531 7.2 
" style="fill: none; stroke: #000000; stroke-width: 0.8; stroke-linejoin: miter; stroke-linecap: square"/>
   </g>
   <g id="patch_28">
    <path d="M 42.329531 218.68 
L 315.729531 218.68 
" style="fill: none; stroke: #000000; stroke-width: 0.8; stroke-linejoin: miter; stroke-linecap: square"/>
   </g>
   <g id="patch_29">
    <path d="M 42.329531 7.2 
L 315.729531 7.2 
" style="fill: none; stroke: #000000; stroke-width: 0.8; stroke-linejoin: miter; stroke-linecap: square"/>
   </g>
   <g id="legend_1">
    <g id="line2d_17">
     <path d="M 48.629531 16.368906 
L 55.629531 16.368906 
L 62.629531 16.368906 
" style="fill: none; stroke: #0072b2; stroke-width: 1.6; stroke-linecap: square"/>
    </g>
    <g id="text_15">
     <!-- $\mu=29.17,\ \sigma=0.55$ -->
     <g transform="translate(68.229531 18.818906) scale(0.07 -0.07)">
      <defs>
       <path id="DejaVuSans-Oblique-3bc" d="M -84 -1331 
L 856 3500 
L 1434 3500 
L 1009 1322 
Q 997 1256 987 1175 
Q 978 1094 978 1013 
Q 978 722 1161 565 
Q 1344 409 1684 409 
Q 2147 409 2431 671 
Q 2716 934 2816 1459 
L 3213 3500 
L 3788 3500 
L 3266 809 
Q 3253 750 3248 706 
Q 3244 663 3244 628 
Q 3244 531 3283 486 
Q 3322 441 3406 441 
Q 3438 441 3492 456 
Q 3547 472 3647 513 
L 3559 50 
Q 3422 -19 3297 -55 
Q 3172 -91 3053 -91 
Q 2847 -91 2730 40 
Q 2613 172 2613 403 
Q 2438 153 2195 31 
Q 1953 -91 1625 -91 
Q 1334 -91 1117 43 
Q 900 178 831 397 
L 494 -1331 
L -84 -1331 
z
" transform="scale(0.015625)"/>
       <path id="DejaVuSans-37" d="M 525 4666 
L 3525 4666 
L 3525 4397 
L 1831 0 
L 1172 0 
L 2766 4134 
L 525 4134 
L 525 4666 
z
" transform="scale(0.015625)"/>
       <path id="DejaVuSans-2c" d="M 750 794 
L 1409 794 
L 1409 256 
L 897 -744 
L 494 -744 
L 750 256 
L 750 794 
z
" transform="scale(0.015625)"/>
       <path id="DejaVuSans-Oblique-3c3" d="M 2219 3044 
Q 1744 3044 1422 2700 
Q 1081 2341 969 1747 
Q 844 1119 1044 756 
Q 1241 397 1706 397 
Q 2166 397 2503 759 
Q 2844 1122 2966 1747 
Q 3075 2319 2881 2700 
Q 2700 3044 2219 3044 
z
M 2309 3503 
L 4219 3500 
L 4106 2925 
L 3463 2925 
Q 3706 2438 3575 1747 
Q 3406 888 2884 400 
Q 2359 -91 1609 -91 
Q 856 -91 525 400 
Q 194 888 363 1747 
Q 528 2609 1050 3097 
Q 1484 3503 2309 3503 
z
" transform="scale(0.015625)"/>
       <path id="DejaVuSans-35" d="M 691 4666 
L 3169 4666 
L 3169 4134 
L 1269 4134 
L 1269 2991 
Q 1406 3038 1543 3061 
Q 1681 3084 1819 3084 
Q 2600 3084 3056 2656 
Q 3513 2228 3513 1497 
Q 3513 744 3044 326 
Q 2575 -91 1722 -91 
Q 1428 -91 1123 -41 
Q 819 9 494 109 
L 494 744 
Q 775 591 1075 516 
Q 1375 441 1709 441 
Q 2250 441 2565 725 
Q 2881 1009 2881 1497 
Q 2881 1984 2565 2268 
Q 2250 2553 1709 2553 
Q 1456 2553 1204 2497 
Q 953 2441 691 2322 
L 691 4666 
z
" transform="scale(0.015625)"/>
      </defs>
      <use xlink:href="#DejaVuSans-Oblique-3bc" transform="translate(0 0.78125)"/>
      <use xlink:href="#DejaVuSans-3d" transform="translate(83.105469 0.78125)"/>
      <use xlink:href="#DejaVuSans-32" transform="translate(186.376953 0.78125)"/>
      <use xlink:href="#DejaVuSans-39" transform="translate(248.25 0.78125)"/>
      <use xlink:href="#DejaVuSans-2e" transform="translate(311.873047 0.78125)"/>
      <use xlink:href="#DejaVuSans-31" transform="translate(343.660156 0.78125)"/>
      <use xlink:href="#DejaVuSans-37" transform="translate(407.283203 0.78125)"/>
      <use xlink:href="#DejaVuSans-2c" transform="translate(470.90625 0.78125)"/>
      <use xlink:href="#DejaVuSans-Oblique-3c3" transform="translate(554.64616 0.78125)"/>
      <use xlink:href="#DejaVuSans-3d" transform="translate(637.507488 0.78125)"/>
      <use xlink:href="#DejaVuSans-30" transform="translate(740.778972 0.78125)"/>
      <use xlink:href="#DejaVuSans-2e" transform="translate(804.402019 0.78125)"/>
      <use xlink:href="#DejaVuSans-35" transform="translate(836.189128 0.78125)"/>
      <use xlink:href="#DejaVuSans-35" transform="translate(899.812175 0.78125)"/>
     </g>
    </g>
   </g>
  </g>
 </g>
 <defs>
  <clipPath id="pc0b552d20e">
   <rect x="42.329531" y="7.2" width="273.4" height="211.48"/>
  </clipPath>
 </defs>
</svg>
