<?xml version="1.0" encoding="utf-8" standalone="no"?>
<!DOCTYPE svg PUBLIC "-//W3C//DTD SVG 1.1//EN"
  "http://www.w3.org/Graphics/SVG/1.1/DTD/svg11.dtd">
<svg xmlns:xlink="http://www.w3.org/1999/xlink" width="744.820937pt" height="247.218281pt" viewBox="0 0 744.820937 247.218281" xmlns="http://www.w3.org/2000/svg" version="1.1">
 <metadata>
  <rdf:RDF xmlns:dc="http://purl.org/dc/elements/1.1/" xmlns:cc="http://creativecommons.org/ns#" xmlns:rdf="http://www.w3.org/1999/02/22-rdf-syntax-ns#">
   <cc:Work>
    <dc:type rdf:resource="http://purl.org/dc/dcmitype/StillImage"/>
    <dc:date>2026-07-21T06:02:04.946424</dc:date>
    <dc:format>image/svg+xml</dc:format>
    <dc:creator>
     <cc:Agent>
      <dc:title>Matplotlib v3.10.9, https://matplotlib.org/</dc:title>
     </cc:Agent>
    </dc:creator>
   </cc:Work>
  </rdf:RDF>
 </metadata>
 <defs>
  <style type="text/css">*{stroke-linejoin: round; stroke-linecap: butt}</style>
 </defs>
 <g id="figure_1">
  <g id="patch_1">
   <path d="M 0 247.218281 
L 744.820937 247.218281 
L 744.820937 0 
L 0 0 
z
" style="fill: #ffffff"/>
  </g>
  <g id="axes_1">
   <g id="patch_2">
    <path d="M 42.030938 213.998594 
L 445.372476 213.998594 
L 445.372476 20.038594 
L 42.030938 20.038594 
z
" style="fill: #ffffff"/>
   </g>
   <g id="patch_3">
    <path d="M 42.030938 159.534626 
L 445.372476 159.534626 
L 445.372476 132.84573 
L 42.030938 132.84573 
z
" clip-path="url(#p6bf04afe37)" style="fill: #555555; opacity: 0.12"/>
   </g>
   <g id="matplotlib.axis_1">
    <g id="xtick_1">
     <g id="line2d_1">
      <defs>
       <path id="m8f1a58366f" d="M 0 0 
L 0 3.5 
" style="stroke: #000000; stroke-width: 0.8"/>
      </defs>
      <g>
       <use xlink:href="#m8f1a58366f" x="60.364644" y="213.998594" style="stroke: #000000; stroke-width: 0.8"/>
      </g>
     </g>
     <g id="text_1">
      <!-- 1 -->
      <g transform="translate(58.137769 226.3175) scale(0.07 -0.07)">
       <defs>
        <path id="DejaVuSans-31" d="M 794 531 
L 1825 531 
L 1825 4091 
L 703 3866 
L 703 4441 
L 1819 4666 
L 2450 4666 
L 2450 531 
L 3481 531 
L 3481 0 
L 794 0 
L 794 531 
z
" transform="scale(0.015625)"/>
       </defs>
       <use xlink:href="#DejaVuSans-31"/>
      </g>
     </g>
    </g>
    <g id="xtick_2">
     <g id="line2d_2">
      <g>
       <use xlink:href="#m8f1a58366f" x="83.281777" y="213.998594" style="stroke: #000000; stroke-width: 0.8"/>
      </g>
     </g>
     <g id="text_2">
      <!-- 2 -->
      <g transform="translate(81.054902 226.3175) scale(0.07 -0.07)">
       <defs>
        <path id="DejaVuSans-32" d="M 1228 531 
L 3431 531 
L 3431 0 
L 469 0 
L 469 531 
Q 828 903 1448 1529 
Q 2069 2156 2228 2338 
Q 2531 2678 2651 2914 
Q 2772 3150 2772 3378 
Q 2772 3750 2511 3984 
Q 2250 4219 1831 4219 
Q 1534 4219 1204 4116 
Q 875 4013 500 3803 
L 500 4441 
Q 881 4594 1212 4672 
Q 1544 4750 1819 4750 
Q 2544 4750 2975 4387 
Q 3406 4025 3406 3419 
Q 3406 3131 3298 2873 
Q 3191 2616 2906 2266 
Q 2828 2175 2409 1742 
Q 1991 1309 1228 531 
z
" transform="scale(0.015625)"/>
       </defs>
       <use xlink:href="#DejaVuSans-32"/>
      </g>
     </g>
    </g>
    <g id="xtick_3">
     <g id="line2d_3">
      <g>
       <use xlink:href="#m8f1a58366f" x="106.19891" y="213.998594" style="stroke: #000000; stroke-width: 0.8"/>
      </g>
     </g>
     <g id="text_3">
      <!-- 3 -->
      <g transform="translate(103.972035 226.3175) scale(0.07 -0.07)">
       <defs>
        <path id="DejaVuSans-33" d="M 2597 2516 
Q 3050 2419 3304 2112 
Q 3559 1806 3559 1356 
Q 3559 666 3084 287 
Q 2609 -91 1734 -91 
Q 1441 -91 1130 -33 
Q 819 25 488 141 
L 488 750 
Q 750 597 1062 519 
Q 1375 441 1716 441 
Q 2309 441 2620 675 
Q 2931 909 2931 1356 
Q 2931 1769 2642 2001 
Q 2353 2234 1838 2234 
L 1294 2234 
L 1294 2753 
L 1863 2753 
Q 2328 2753 2575 2939 
Q 2822 3125 2822 3475 
Q 2822 3834 2567 4026 
Q 2313 4219 1838 4219 
Q 1578 4219 1281 4162 
Q 984 4106 628 3988 
L 628 4550 
Q 988 4650 1302 4700 
Q 1616 4750 1894 4750 
Q 2613 4750 3031 4423 
Q 3450 4097 3450 3541 
Q 3450 3153 3228 2886 
Q 3006 2619 2597 2516 
z
" transform="scale(0.015625)"/>
       </defs>
       <use xlink:href="#DejaVuSans-33"/>
      </g>
     </g>
    </g>
    <g id="xtick_4">
     <g id="line2d_4">
      <g>
       <use xlink:href="#m8f1a58366f" x="129.116042" y="213.998594" style="stroke: #000000; stroke-width: 0.8"/>
      </g>
     </g>
     <g id="text_4">
      <!-- 4 -->
      <g transform="translate(126.889167 226.3175) scale(0.07 -0.07)">
       <defs>
        <path id="DejaVuSans-34" d="M 2419 4116 
L 825 1625 
L 2419 1625 
L 2419 4116 
z
M 2253 4666 
L 3047 4666 
L 3047 1625 
L 3713 1625 
L 3713 1100 
L 3047 1100 
L 3047 0 
L 2419 0 
L 2419 1100 
L 313 1100 
L 313 1709 
L 2253 4666 
z
" transform="scale(0.015625)"/>
       </defs>
       <use xlink:href="#DejaVuSans-34"/>
      </g>
     </g>
    </g>
    <g id="xtick_5">
     <g id="line2d_5">
      <g>
       <use xlink:href="#m8f1a58366f" x="152.033175" y="213.998594" style="stroke: #000000; stroke-width: 0.8"/>
      </g>
     </g>
     <g id="text_5">
      <!-- 5 -->
      <g transform="translate(149.8063 226.3175) scale(0.07 -0.07)">
       <defs>
        <path id="DejaVuSans-35" d="M 691 4666 
L 3169 4666 
L 3169 4134 
L 1269 4134 
L 1269 2991 
Q 1406 3038 1543 3061 
Q 1681 3084 1819 3084 
Q 2600 3084 3056 2656 
Q 3513 2228 3513 1497 
Q 3513 744 3044 326 
Q 2575 -91 1722 -91 
Q 1428 -91 1123 -41 
Q 819 9 494 109 
L 494 744 
Q 775 591 1075 516 
Q 1375 441 1709 441 
Q 2250 441 2565 725 
Q 2881 1009 2881 1497 
Q 2881 1984 2565 2268 
Q 2250 2553 1709 2553 
Q 1456 2553 1204 2497 
Q 953 2441 691 2322 
L 691 4666 
z
" transform="scale(0.015625)"/>
       </defs>
       <use xlink:href="#DejaVuSans-35"/>
      </g>
     </g>
    </g>
    <g id="xtick_6">
     <g id="line2d_6">
      <g>
       <use xlink:href="#m8f1a58366f" x="174.950308" y="213.998594" style="stroke: #000000; stroke-width: 0.8"/>
      </g>
     </g>
     <g id="text_6">
      <!-- 6 -->
      <g transform="translate(172.723433 226.3175) scale(0.07 -0.07)">
       <defs>
        <path id="DejaVuSans-36" d="M 2113 2584 
Q 1688 2584 1439 2293 
Q 1191 2003 1191 1497 
Q 1191 994 1439 701 
Q 1688 409 2113 409 
Q 2538 409 2786 701 
Q 3034 994 3034 1497 
Q 3034 2003 2786 2293 
Q 2538 2584 2113 2584 
z
M 3366 4563 
L 3366 3988 
Q 3128 4100 2886 4159 
Q 2644 4219 2406 4219 
Q 1781 4219 1451 3797 
Q 1122 3375 1075 2522 
Q 1259 2794 1537 2939 
Q 1816 3084 2150 3084 
Q 2853 3084 3261 2657 
Q 3669 2231 3669 1497 
Q 3669 778 3244 343 
Q 2819 -91 2113 -91 
Q 1303 -91 875 529 
Q 447 1150 447 2328 
Q 447 3434 972 4092 
Q 1497 4750 2381 4750 
Q 2619 4750 2861 4703 
Q 3103 4656 3366 4563 
z
" transform="scale(0.015625)"/>
       </defs>
       <use xlink:href="#DejaVuSans-36"/>
      </g>
     </g>
    </g>
    <g id="xtick_7">
     <g id="line2d_7">
      <g>
       <use xlink:href="#m8f1a58366f" x="197.867441" y="213.998594" style="stroke: #000000; stroke-width: 0.8"/>
      </g>
     </g>
     <g id="text_7">
      <!-- 7 -->
      <g transform="translate(195.640566 226.3175) scale(0.07 -0.07)">
       <defs>
        <path id="DejaVuSans-37" d="M 525 4666 
L 3525 4666 
L 3525 4397 
L 1831 0 
L 1172 0 
L 2766 4134 
L 525 4134 
L 525 4666 
z
" transform="scale(0.015625)"/>
       </defs>
       <use xlink:href="#DejaVuSans-37"/>
      </g>
     </g>
    </g>
    <g id="xtick_8">
     <g id="line2d_8">
      <g>
       <use xlink:href="#m8f1a58366f" x="220.784574" y="213.998594" style="stroke: #000000; stroke-width: 0.8"/>
      </g>
     </g>
     <g id="text_8">
      <!-- 8 -->
      <g transform="translate(218.557699 226.3175) scale(0.07 -0.07)">
       <defs>
        <path id="DejaVuSans-38" d="M 2034 2216 
Q 1584 2216 1326 1975 
Q 1069 1734 1069 1313 
Q 1069 891 1326 650 
Q 1584 409 2034 409 
Q 2484 409 2743 651 
Q 3003 894 3003 1313 
Q 3003 1734 2745 1975 
Q 2488 2216 2034 2216 
z
M 1403 2484 
Q 997 2584 770 2862 
Q 544 3141 544 3541 
Q 544 4100 942 4425 
Q 1341 4750 2034 4750 
Q 2731 4750 3128 4425 
Q 3525 4100 3525 3541 
Q 3525 3141 3298 2862 
Q 3072 2584 2669 2484 
Q 3125 2378 3379 2068 
Q 3634 1759 3634 1313 
Q 3634 634 3220 271 
Q 2806 -91 2034 -91 
Q 1263 -91 848 271 
Q 434 634 434 1313 
Q 434 1759 690 2068 
Q 947 2378 1403 2484 
z
M 1172 3481 
Q 1172 3119 1398 2916 
Q 1625 2713 2034 2713 
Q 2441 2713 2670 2916 
Q 2900 3119 2900 3481 
Q 2900 3844 2670 4047 
Q 2441 4250 2034 4250 
Q 1625 4250 1398 4047 
Q 1172 3844 1172 3481 
z
" transform="scale(0.015625)"/>
       </defs>
       <use xlink:href="#DejaVuSans-38"/>
      </g>
     </g>
    </g>
    <g id="xtick_9">
     <g id="line2d_9">
      <g>
       <use xlink:href="#m8f1a58366f" x="243.701707" y="213.998594" style="stroke: #000000; stroke-width: 0.8"/>
      </g>
     </g>
     <g id="text_9">
      <!-- 9 -->
      <g transform="translate(241.474832 226.3175) scale(0.07 -0.07)">
       <defs>
        <path id="DejaVuSans-39" d="M 703 97 
L 703 672 
Q 941 559 1184 500 
Q 1428 441 1663 441 
Q 2288 441 2617 861 
Q 2947 1281 2994 2138 
Q 2813 1869 2534 1725 
Q 2256 1581 1919 1581 
Q 1219 1581 811 2004 
Q 403 2428 403 3163 
Q 403 3881 828 4315 
Q 1253 4750 1959 4750 
Q 2769 4750 3195 4129 
Q 3622 3509 3622 2328 
Q 3622 1225 3098 567 
Q 2575 -91 1691 -91 
Q 1453 -91 1209 -44 
Q 966 3 703 97 
z
M 1959 2075 
Q 2384 2075 2632 2365 
Q 2881 2656 2881 3163 
Q 2881 3666 2632 3958 
Q 2384 4250 1959 4250 
Q 1534 4250 1286 3958 
Q 1038 3666 1038 3163 
Q 1038 2656 1286 2365 
Q 1534 2075 1959 2075 
z
" transform="scale(0.015625)"/>
       </defs>
       <use xlink:href="#DejaVuSans-39"/>
      </g>
     </g>
    </g>
    <g id="xtick_10">
     <g id="line2d_10">
      <g>
       <use xlink:href="#m8f1a58366f" x="266.61884" y="213.998594" style="stroke: #000000; stroke-width: 0.8"/>
      </g>
     </g>
     <g id="text_10">
      <!-- 10 -->
      <g transform="translate(262.16509 226.3175) scale(0.07 -0.07)">
       <defs>
        <path id="DejaVuSans-30" d="M 2034 4250 
Q 1547 4250 1301 3770 
Q 1056 3291 1056 2328 
Q 1056 1369 1301 889 
Q 1547 409 2034 409 
Q 2525 409 2770 889 
Q 3016 1369 3016 2328 
Q 3016 3291 2770 3770 
Q 2525 4250 2034 4250 
z
M 2034 4750 
Q 2819 4750 3233 4129 
Q 3647 3509 3647 2328 
Q 3647 1150 3233 529 
Q 2819 -91 2034 -91 
Q 1250 -91 836 529 
Q 422 1150 422 2328 
Q 422 3509 836 4129 
Q 1250 4750 2034 4750 
z
" transform="scale(0.015625)"/>
       </defs>
       <use xlink:href="#DejaVuSans-31"/>
       <use xlink:href="#DejaVuSans-30" transform="translate(63.623047 0)"/>
      </g>
     </g>
    </g>
    <g id="xtick_11">
     <g id="line2d_11">
      <g>
       <use xlink:href="#m8f1a58366f" x="289.535972" y="213.998594" style="stroke: #000000; stroke-width: 0.8"/>
      </g>
     </g>
     <g id="text_11">
      <!-- 11 -->
      <g transform="translate(285.082222 226.3175) scale(0.07 -0.07)">
       <use xlink:href="#DejaVuSans-31"/>
       <use xlink:href="#DejaVuSans-31" transform="translate(63.623047 0)"/>
      </g>
     </g>
    </g>
    <g id="xtick_12">
     <g id="line2d_12">
      <g>
       <use xlink:href="#m8f1a58366f" x="312.453105" y="213.998594" style="stroke: #000000; stroke-width: 0.8"/>
      </g>
     </g>
     <g id="text_12">
      <!-- 12 -->
      <g transform="translate(307.999355 226.3175) scale(0.07 -0.07)">
       <use xlink:href="#DejaVuSans-31"/>
       <use xlink:href="#DejaVuSans-32" transform="translate(63.623047 0)"/>
      </g>
     </g>
    </g>
    <g id="xtick_13">
     <g id="line2d_13">
      <g>
       <use xlink:href="#m8f1a58366f" x="335.370238" y="213.998594" style="stroke: #000000; stroke-width: 0.8"/>
      </g>
     </g>
     <g id="text_13">
      <!-- 13 -->
      <g transform="translate(330.916488 226.3175) scale(0.07 -0.07)">
       <use xlink:href="#DejaVuSans-31"/>
       <use xlink:href="#DejaVuSans-33" transform="translate(63.623047 0)"/>
      </g>
     </g>
    </g>
    <g id="xtick_14">
     <g id="line2d_14">
      <g>
       <use xlink:href="#m8f1a58366f" x="358.287371" y="213.998594" style="stroke: #000000; stroke-width: 0.8"/>
      </g>
     </g>
     <g id="text_14">
      <!-- 14 -->
      <g transform="translate(353.833621 226.3175) scale(0.07 -0.07)">
       <use xlink:href="#DejaVuSans-31"/>
       <use xlink:href="#DejaVuSans-34" transform="translate(63.623047 0)"/>
      </g>
     </g>
    </g>
    <g id="xtick_15">
     <g id="line2d_15">
      <g>
       <use xlink:href="#m8f1a58366f" x="381.204504" y="213.998594" style="stroke: #000000; stroke-width: 0.8"/>
      </g>
     </g>
     <g id="text_15">
      <!-- 15 -->
      <g transform="translate(376.750754 226.3175) scale(0.07 -0.07)">
       <use xlink:href="#DejaVuSans-31"/>
       <use xlink:href="#DejaVuSans-35" transform="translate(63.623047 0)"/>
      </g>
     </g>
    </g>
    <g id="xtick_16">
     <g id="line2d_16">
      <g>
       <use xlink:href="#m8f1a58366f" x="404.121637" y="213.998594" style="stroke: #000000; stroke-width: 0.8"/>
      </g>
     </g>
     <g id="text_16">
      <!-- 16 -->
      <g transform="translate(399.667887 226.3175) scale(0.07 -0.07)">
       <use xlink:href="#DejaVuSans-31"/>
       <use xlink:href="#DejaVuSans-36" transform="translate(63.623047 0)"/>
      </g>
     </g>
    </g>
    <g id="xtick_17">
     <g id="line2d_17">
      <g>
       <use xlink:href="#m8f1a58366f" x="427.03877" y="213.998594" style="stroke: #000000; stroke-width: 0.8"/>
      </g>
     </g>
     <g id="text_17">
      <!-- 42 -->
      <g transform="translate(422.58502 226.3175) scale(0.07 -0.07)">
       <use xlink:href="#DejaVuSans-34"/>
       <use xlink:href="#DejaVuSans-32" transform="translate(63.623047 0)"/>
      </g>
     </g>
    </g>
    <g id="text_18">
     <!-- random-init seed -->
     <g transform="translate(207.471121 238.231953) scale(0.085 -0.085)">
      <defs>
       <path id="DejaVuSans-72" d="M 2631 2963 
Q 2534 3019 2420 3045 
Q 2306 3072 2169 3072 
Q 1681 3072 1420 2755 
Q 1159 2438 1159 1844 
L 1159 0 
L 581 0 
L 581 3500 
L 1159 3500 
L 1159 2956 
Q 1341 3275 1631 3429 
Q 1922 3584 2338 3584 
Q 2397 3584 2469 3576 
Q 2541 3569 2628 3553 
L 2631 2963 
z
" transform="scale(0.015625)"/>
       <path id="DejaVuSans-61" d="M 2194 1759 
Q 1497 1759 1228 1600 
Q 959 1441 959 1056 
Q 959 750 1161 570 
Q 1363 391 1709 391 
Q 2188 391 2477 730 
Q 2766 1069 2766 1631 
L 2766 1759 
L 2194 1759 
z
M 3341 1997 
L 3341 0 
L 2766 0 
L 2766 531 
Q 2569 213 2275 61 
Q 1981 -91 1556 -91 
Q 1019 -91 701 211 
Q 384 513 384 1019 
Q 384 1609 779 1909 
Q 1175 2209 1959 2209 
L 2766 2209 
L 2766 2266 
Q 2766 2663 2505 2880 
Q 2244 3097 1772 3097 
Q 1472 3097 1187 3025 
Q 903 2953 641 2809 
L 641 3341 
Q 956 3463 1253 3523 
Q 1550 3584 1831 3584 
Q 2591 3584 2966 3190 
Q 3341 2797 3341 1997 
z
" transform="scale(0.015625)"/>
       <path id="DejaVuSans-6e" d="M 3513 2113 
L 3513 0 
L 2938 0 
L 2938 2094 
Q 2938 2591 2744 2837 
Q 2550 3084 2163 3084 
Q 1697 3084 1428 2787 
Q 1159 2491 1159 1978 
L 1159 0 
L 581 0 
L 581 3500 
L 1159 3500 
L 1159 2956 
Q 1366 3272 1645 3428 
Q 1925 3584 2291 3584 
Q 2894 3584 3203 3211 
Q 3513 2838 3513 2113 
z
" transform="scale(0.015625)"/>
       <path id="DejaVuSans-64" d="M 2906 2969 
L 2906 4863 
L 3481 4863 
L 3481 0 
L 2906 0 
L 2906 525 
Q 2725 213 2448 61 
Q 2172 -91 1784 -91 
Q 1150 -91 751 415 
Q 353 922 353 1747 
Q 353 2572 751 3078 
Q 1150 3584 1784 3584 
Q 2172 3584 2448 3432 
Q 2725 3281 2906 2969 
z
M 947 1747 
Q 947 1113 1208 752 
Q 1469 391 1925 391 
Q 2381 391 2643 752 
Q 2906 1113 2906 1747 
Q 2906 2381 2643 2742 
Q 2381 3103 1925 3103 
Q 1469 3103 1208 2742 
Q 947 2381 947 1747 
z
" transform="scale(0.015625)"/>
       <path id="DejaVuSans-6f" d="M 1959 3097 
Q 1497 3097 1228 2736 
Q 959 2375 959 1747 
Q 959 1119 1226 758 
Q 1494 397 1959 397 
Q 2419 397 2687 759 
Q 2956 1122 2956 1747 
Q 2956 2369 2687 2733 
Q 2419 3097 1959 3097 
z
M 1959 3584 
Q 2709 3584 3137 3096 
Q 3566 2609 3566 1747 
Q 3566 888 3137 398 
Q 2709 -91 1959 -91 
Q 1206 -91 779 398 
Q 353 888 353 1747 
Q 353 2609 779 3096 
Q 1206 3584 1959 3584 
z
" transform="scale(0.015625)"/>
       <path id="DejaVuSans-6d" d="M 3328 2828 
Q 3544 3216 3844 3400 
Q 4144 3584 4550 3584 
Q 5097 3584 5394 3201 
Q 5691 2819 5691 2113 
L 5691 0 
L 5113 0 
L 5113 2094 
Q 5113 2597 4934 2840 
Q 4756 3084 4391 3084 
Q 3944 3084 3684 2787 
Q 3425 2491 3425 1978 
L 3425 0 
L 2847 0 
L 2847 2094 
Q 2847 2600 2669 2842 
Q 2491 3084 2119 3084 
Q 1678 3084 1418 2786 
Q 1159 2488 1159 1978 
L 1159 0 
L 581 0 
L 581 3500 
L 1159 3500 
L 1159 2956 
Q 1356 3278 1631 3431 
Q 1906 3584 2284 3584 
Q 2666 3584 2933 3390 
Q 3200 3197 3328 2828 
z
" transform="scale(0.015625)"/>
       <path id="DejaVuSans-2d" d="M 313 2009 
L 1997 2009 
L 1997 1497 
L 313 1497 
L 313 2009 
z
" transform="scale(0.015625)"/>
       <path id="DejaVuSans-69" d="M 603 3500 
L 1178 3500 
L 1178 0 
L 603 0 
L 603 3500 
z
M 603 4863 
L 1178 4863 
L 1178 4134 
L 603 4134 
L 603 4863 
z
" transform="scale(0.015625)"/>
       <path id="DejaVuSans-74" d="M 1172 4494 
L 1172 3500 
L 2356 3500 
L 2356 3053 
L 1172 3053 
L 1172 1153 
Q 1172 725 1289 603 
Q 1406 481 1766 481 
L 2356 481 
L 2356 0 
L 1766 0 
Q 1100 0 847 248 
Q 594 497 594 1153 
L 594 3053 
L 172 3053 
L 172 3500 
L 594 3500 
L 594 4494 
L 1172 4494 
z
" transform="scale(0.015625)"/>
       <path id="DejaVuSans-20" transform="scale(0.015625)"/>
       <path id="DejaVuSans-73" d="M 2834 3397 
L 2834 2853 
Q 2591 2978 2328 3040 
Q 2066 3103 1784 3103 
Q 1356 3103 1142 2972 
Q 928 2841 928 2578 
Q 928 2378 1081 2264 
Q 1234 2150 1697 2047 
L 1894 2003 
Q 2506 1872 2764 1633 
Q 3022 1394 3022 966 
Q 3022 478 2636 193 
Q 2250 -91 1575 -91 
Q 1294 -91 989 -36 
Q 684 19 347 128 
L 347 722 
Q 666 556 975 473 
Q 1284 391 1588 391 
Q 1994 391 2212 530 
Q 2431 669 2431 922 
Q 2431 1156 2273 1281 
Q 2116 1406 1581 1522 
L 1381 1569 
Q 847 1681 609 1914 
Q 372 2147 372 2553 
Q 372 3047 722 3315 
Q 1072 3584 1716 3584 
Q 2034 3584 2315 3537 
Q 2597 3491 2834 3397 
z
" transform="scale(0.015625)"/>
       <path id="DejaVuSans-65" d="M 3597 1894 
L 3597 1613 
L 953 1613 
Q 991 1019 1311 708 
Q 1631 397 2203 397 
Q 2534 397 2845 478 
Q 3156 559 3463 722 
L 3463 178 
Q 3153 47 2828 -22 
Q 2503 -91 2169 -91 
Q 1331 -91 842 396 
Q 353 884 353 1716 
Q 353 2575 817 3079 
Q 1281 3584 2069 3584 
Q 2775 3584 3186 3129 
Q 3597 2675 3597 1894 
z
M 3022 2063 
Q 3016 2534 2758 2815 
Q 2500 3097 2075 3097 
Q 1594 3097 1305 2825 
Q 1016 2553 972 2059 
L 3022 2063 
z
" transform="scale(0.015625)"/>
      </defs>
      <use xlink:href="#DejaVuSans-72"/>
      <use xlink:href="#DejaVuSans-61" transform="translate(41.113281 0)"/>
      <use xlink:href="#DejaVuSans-6e" transform="translate(102.392578 0)"/>
      <use xlink:href="#DejaVuSans-64" transform="translate(165.771484 0)"/>
      <use xlink:href="#DejaVuSans-6f" transform="translate(229.248047 0)"/>
      <use xlink:href="#DejaVuSans-6d" transform="translate(290.429688 0)"/>
      <use xlink:href="#DejaVuSans-2d" transform="translate(387.841797 0)"/>
      <use xlink:href="#DejaVuSans-69" transform="translate(423.925781 0)"/>
      <use xlink:href="#DejaVuSans-6e" transform="translate(451.708984 0)"/>
      <use xlink:href="#DejaVuSans-69" transform="translate(515.087891 0)"/>
      <use xlink:href="#DejaVuSans-74" transform="translate(542.871094 0)"/>
      <use xlink:href="#DejaVuSans-20" transform="translate(582.080078 0)"/>
      <use xlink:href="#DejaVuSans-73" transform="translate(613.867188 0)"/>
      <use xlink:href="#DejaVuSans-65" transform="translate(665.966797 0)"/>
      <use xlink:href="#DejaVuSans-65" transform="translate(727.490234 0)"/>
      <use xlink:href="#DejaVuSans-64" transform="translate(789.013672 0)"/>
     </g>
    </g>
   </g>
   <g id="matplotlib.axis_2">
    <g id="ytick_1">
     <g id="line2d_18">
      <path d="M 42.030938 213.998594 
L 445.372476 213.998594 
" clip-path="url(#p6bf04afe37)" style="fill: none; stroke: #b0b0b0; stroke-opacity: 0.25; stroke-width: 0.5; stroke-linecap: square"/>
     </g>
     <g id="line2d_19">
      <defs>
       <path id="m6ea0230c04" d="M 0 0 
L -3.5 0 
" style="stroke: #000000; stroke-width: 0.8"/>
      </defs>
      <g>
       <use xlink:href="#m6ea0230c04" x="42.030938" y="213.998594" style="stroke: #000000; stroke-width: 0.8"/>
      </g>
     </g>
     <g id="text_19">
      <!-- 31.2 -->
      <g transform="translate(19.445 216.658047) scale(0.07 -0.07)">
       <defs>
        <path id="DejaVuSans-2e" d="M 684 794 
L 1344 794 
L 1344 0 
L 684 0 
L 684 794 
z
" transform="scale(0.015625)"/>
       </defs>
       <use xlink:href="#DejaVuSans-33"/>
       <use xlink:href="#DejaVuSans-31" transform="translate(63.623047 0)"/>
       <use xlink:href="#DejaVuSans-2e" transform="translate(127.246094 0)"/>
       <use xlink:href="#DejaVuSans-32" transform="translate(159.033203 0)"/>
      </g>
     </g>
    </g>
    <g id="ytick_2">
     <g id="line2d_20">
      <path d="M 42.030938 182.964994 
L 445.372476 182.964994 
" clip-path="url(#p6bf04afe37)" style="fill: none; stroke: #b0b0b0; stroke-opacity: 0.25; stroke-width: 0.5; stroke-linecap: square"/>
     </g>
     <g id="line2d_21">
      <g>
       <use xlink:href="#m6ea0230c04" x="42.030938" y="182.964994" style="stroke: #000000; stroke-width: 0.8"/>
      </g>
     </g>
     <g id="text_20">
      <!-- 31.4 -->
      <g transform="translate(19.445 185.624447) scale(0.07 -0.07)">
       <use xlink:href="#DejaVuSans-33"/>
       <use xlink:href="#DejaVuSans-31" transform="translate(63.623047 0)"/>
       <use xlink:href="#DejaVuSans-2e" transform="translate(127.246094 0)"/>
       <use xlink:href="#DejaVuSans-34" transform="translate(159.033203 0)"/>
      </g>
     </g>
    </g>
    <g id="ytick_3">
     <g id="line2d_22">
      <path d="M 42.030938 151.931394 
L 445.372476 151.931394 
" clip-path="url(#p6bf04afe37)" style="fill: none; stroke: #b0b0b0; stroke-opacity: 0.25; stroke-width: 0.5; stroke-linecap: square"/>
     </g>
     <g id="line2d_23">
      <g>
       <use xlink:href="#m6ea0230c04" x="42.030938" y="151.931394" style="stroke: #000000; stroke-width: 0.8"/>
      </g>
     </g>
     <g id="text_21">
      <!-- 31.6 -->
      <g transform="translate(19.445 154.590847) scale(0.07 -0.07)">
       <use xlink:href="#DejaVuSans-33"/>
       <use xlink:href="#DejaVuSans-31" transform="translate(63.623047 0)"/>
       <use xlink:href="#DejaVuSans-2e" transform="translate(127.246094 0)"/>
       <use xlink:href="#DejaVuSans-36" transform="translate(159.033203 0)"/>
      </g>
     </g>
    </g>
    <g id="ytick_4">
     <g id="line2d_24">
      <path d="M 42.030938 120.897794 
L 445.372476 120.897794 
" clip-path="url(#p6bf04afe37)" style="fill: none; stroke: #b0b0b0; stroke-opacity: 0.25; stroke-width: 0.5; stroke-linecap: square"/>
     </g>
     <g id="line2d_25">
      <g>
       <use xlink:href="#m6ea0230c04" x="42.030938" y="120.897794" style="stroke: #000000; stroke-width: 0.8"/>
      </g>
     </g>
     <g id="text_22">
      <!-- 31.8 -->
      <g transform="translate(19.445 123.557247) scale(0.07 -0.07)">
       <use xlink:href="#DejaVuSans-33"/>
       <use xlink:href="#DejaVuSans-31" transform="translate(63.623047 0)"/>
       <use xlink:href="#DejaVuSans-2e" transform="translate(127.246094 0)"/>
       <use xlink:href="#DejaVuSans-38" transform="translate(159.033203 0)"/>
      </g>
     </g>
    </g>
    <g id="ytick_5">
     <g id="line2d_26">
      <path d="M 42.030938 89.864194 
L 445.372476 89.864194 
" clip-path="url(#p6bf04afe37)" style="fill: none; stroke: #b0b0b0; stroke-opacity: 0.25; stroke-width: 0.5; stroke-linecap: square"/>
     </g>
     <g id="line2d_27">
      <g>
       <use xlink:href="#m6ea0230c04" x="42.030938" y="89.864194" style="stroke: #000000; stroke-width: 0.8"/>
      </g>
     </g>
     <g id="text_23">
      <!-- 32.0 -->
      <g transform="translate(19.445 92.523647) scale(0.07 -0.07)">
       <use xlink:href="#DejaVuSans-33"/>
       <use xlink:href="#DejaVuSans-32" transform="translate(63.623047 0)"/>
       <use xlink:href="#DejaVuSans-2e" transform="translate(127.246094 0)"/>
       <use xlink:href="#DejaVuSans-30" transform="translate(159.033203 0)"/>
      </g>
     </g>
    </g>
    <g id="ytick_6">
     <g id="line2d_28">
      <path d="M 42.030938 58.830594 
L 445.372476 58.830594 
" clip-path="url(#p6bf04afe37)" style="fill: none; stroke: #b0b0b0; stroke-opacity: 0.25; stroke-width: 0.5; stroke-linecap: square"/>
     </g>
     <g id="line2d_29">
      <g>
       <use xlink:href="#m6ea0230c04" x="42.030938" y="58.830594" style="stroke: #000000; stroke-width: 0.8"/>
      </g>
     </g>
     <g id="text_24">
      <!-- 32.2 -->
      <g transform="translate(19.445 61.490047) scale(0.07 -0.07)">
       <use xlink:href="#DejaVuSans-33"/>
       <use xlink:href="#DejaVuSans-32" transform="translate(63.623047 0)"/>
       <use xlink:href="#DejaVuSans-2e" transform="translate(127.246094 0)"/>
       <use xlink:href="#DejaVuSans-32" transform="translate(159.033203 0)"/>
      </g>
     </g>
    </g>
    <g id="ytick_7">
     <g id="line2d_30">
      <path d="M 42.030938 27.796994 
L 445.372476 27.796994 
" clip-path="url(#p6bf04afe37)" style="fill: none; stroke: #b0b0b0; stroke-opacity: 0.25; stroke-width: 0.5; stroke-linecap: square"/>
     </g>
     <g id="line2d_31">
      <g>
       <use xlink:href="#m6ea0230c04" x="42.030938" y="27.796994" style="stroke: #000000; stroke-width: 0.8"/>
      </g>
     </g>
     <g id="text_25">
      <!-- 32.4 -->
      <g transform="translate(19.445 30.456447) scale(0.07 -0.07)">
       <use xlink:href="#DejaVuSans-33"/>
       <use xlink:href="#DejaVuSans-32" transform="translate(63.623047 0)"/>
       <use xlink:href="#DejaVuSans-2e" transform="translate(127.246094 0)"/>
       <use xlink:href="#DejaVuSans-34" transform="translate(159.033203 0)"/>
      </g>
     </g>
    </g>
    <g id="text_26">
     <!-- test PSNR @ $\rho=.20$  (dB) -->
     <g transform="translate(13.66 171.886094) rotate(-90) scale(0.085 -0.085)">
      <defs>
       <path id="DejaVuSans-50" d="M 1259 4147 
L 1259 2394 
L 2053 2394 
Q 2494 2394 2734 2622 
Q 2975 2850 2975 3272 
Q 2975 3691 2734 3919 
Q 2494 4147 2053 4147 
L 1259 4147 
z
M 628 4666 
L 2053 4666 
Q 2838 4666 3239 4311 
Q 3641 3956 3641 3272 
Q 3641 2581 3239 2228 
Q 2838 1875 2053 1875 
L 1259 1875 
L 1259 0 
L 628 0 
L 628 4666 
z
" transform="scale(0.015625)"/>
       <path id="DejaVuSans-53" d="M 3425 4513 
L 3425 3897 
Q 3066 4069 2747 4153 
Q 2428 4238 2131 4238 
Q 1616 4238 1336 4038 
Q 1056 3838 1056 3469 
Q 1056 3159 1242 3001 
Q 1428 2844 1947 2747 
L 2328 2669 
Q 3034 2534 3370 2195 
Q 3706 1856 3706 1288 
Q 3706 609 3251 259 
Q 2797 -91 1919 -91 
Q 1588 -91 1214 -16 
Q 841 59 441 206 
L 441 856 
Q 825 641 1194 531 
Q 1563 422 1919 422 
Q 2459 422 2753 634 
Q 3047 847 3047 1241 
Q 3047 1584 2836 1778 
Q 2625 1972 2144 2069 
L 1759 2144 
Q 1053 2284 737 2584 
Q 422 2884 422 3419 
Q 422 4038 858 4394 
Q 1294 4750 2059 4750 
Q 2388 4750 2728 4690 
Q 3069 4631 3425 4513 
z
" transform="scale(0.015625)"/>
       <path id="DejaVuSans-4e" d="M 628 4666 
L 1478 4666 
L 3547 763 
L 3547 4666 
L 4159 4666 
L 4159 0 
L 3309 0 
L 1241 3903 
L 1241 0 
L 628 0 
L 628 4666 
z
" transform="scale(0.015625)"/>
       <path id="DejaVuSans-52" d="M 2841 2188 
Q 3044 2119 3236 1894 
Q 3428 1669 3622 1275 
L 4263 0 
L 3584 0 
L 2988 1197 
Q 2756 1666 2539 1819 
Q 2322 1972 1947 1972 
L 1259 1972 
L 1259 0 
L 628 0 
L 628 4666 
L 2053 4666 
Q 2853 4666 3247 4331 
Q 3641 3997 3641 3322 
Q 3641 2881 3436 2590 
Q 3231 2300 2841 2188 
z
M 1259 4147 
L 1259 2491 
L 2053 2491 
Q 2509 2491 2742 2702 
Q 2975 2913 2975 3322 
Q 2975 3731 2742 3939 
Q 2509 4147 2053 4147 
L 1259 4147 
z
" transform="scale(0.015625)"/>
       <path id="DejaVuSans-40" d="M 2381 1678 
Q 2381 1231 2603 976 
Q 2825 722 3213 722 
Q 3597 722 3817 978 
Q 4038 1234 4038 1678 
Q 4038 2116 3813 2373 
Q 3588 2631 3206 2631 
Q 2828 2631 2604 2375 
Q 2381 2119 2381 1678 
z
M 4084 744 
Q 3897 503 3655 389 
Q 3413 275 3091 275 
Q 2553 275 2217 664 
Q 1881 1053 1881 1678 
Q 1881 2303 2218 2693 
Q 2556 3084 3091 3084 
Q 3413 3084 3656 2967 
Q 3900 2850 4084 2613 
L 4084 3022 
L 4531 3022 
L 4531 722 
Q 4988 791 5245 1139 
Q 5503 1488 5503 2041 
Q 5503 2375 5404 2669 
Q 5306 2963 5106 3213 
Q 4781 3622 4314 3839 
Q 3847 4056 3297 4056 
Q 2913 4056 2559 3954 
Q 2206 3853 1906 3653 
Q 1416 3334 1139 2817 
Q 863 2300 863 1697 
Q 863 1200 1042 765 
Q 1222 331 1563 0 
Q 1891 -325 2322 -495 
Q 2753 -666 3244 -666 
Q 3647 -666 4036 -530 
Q 4425 -394 4750 -141 
L 5031 -488 
Q 4641 -791 4180 -952 
Q 3719 -1113 3244 -1113 
Q 2666 -1113 2153 -908 
Q 1641 -703 1241 -313 
Q 841 78 631 592 
Q 422 1106 422 1697 
Q 422 2266 634 2781 
Q 847 3297 1241 3688 
Q 1644 4084 2172 4295 
Q 2700 4506 3291 4506 
Q 3953 4506 4520 4234 
Q 5088 3963 5472 3463 
Q 5706 3156 5829 2797 
Q 5953 2438 5953 2053 
Q 5953 1231 5456 756 
Q 4959 281 4084 263 
L 4084 744 
z
" transform="scale(0.015625)"/>
       <path id="DejaVuSans-Oblique-3c1" d="M 1203 2875 
Q 1453 3194 1981 3475 
Q 2188 3584 2756 3584 
Q 3394 3584 3694 3078 
Q 3994 2572 3834 1747 
Q 3672 922 3175 415 
Q 2678 -91 2041 -91 
Q 1656 -91 1409 63 
Q 1163 213 1044 525 
L 681 -1331 
L 103 -1331 
L 697 1716 
Q 838 2438 1203 2875 
z
M 3238 1747 
Q 3359 2381 3169 2744 
Q 2978 3103 2522 3103 
Q 2066 3103 1734 2744 
Q 1403 2381 1281 1747 
Q 1156 1113 1347 750 
Q 1538 391 1994 391 
Q 2450 391 2781 750 
Q 3113 1113 3238 1747 
z
" transform="scale(0.015625)"/>
       <path id="DejaVuSans-3d" d="M 678 2906 
L 4684 2906 
L 4684 2381 
L 678 2381 
L 678 2906 
z
M 678 1631 
L 4684 1631 
L 4684 1100 
L 678 1100 
L 678 1631 
z
" transform="scale(0.015625)"/>
       <path id="DejaVuSans-28" d="M 1984 4856 
Q 1566 4138 1362 3434 
Q 1159 2731 1159 2009 
Q 1159 1288 1364 580 
Q 1569 -128 1984 -844 
L 1484 -844 
Q 1016 -109 783 600 
Q 550 1309 550 2009 
Q 550 2706 781 3412 
Q 1013 4119 1484 4856 
L 1984 4856 
z
" transform="scale(0.015625)"/>
       <path id="DejaVuSans-42" d="M 1259 2228 
L 1259 519 
L 2272 519 
Q 2781 519 3026 730 
Q 3272 941 3272 1375 
Q 3272 1813 3026 2020 
Q 2781 2228 2272 2228 
L 1259 2228 
z
M 1259 4147 
L 1259 2741 
L 2194 2741 
Q 2656 2741 2882 2914 
Q 3109 3088 3109 3444 
Q 3109 3797 2882 3972 
Q 2656 4147 2194 4147 
L 1259 4147 
z
M 628 4666 
L 2241 4666 
Q 2963 4666 3353 4366 
Q 3744 4066 3744 3513 
Q 3744 3084 3544 2831 
Q 3344 2578 2956 2516 
Q 3422 2416 3680 2098 
Q 3938 1781 3938 1306 
Q 3938 681 3513 340 
Q 3088 0 2303 0 
L 628 0 
L 628 4666 
z
" transform="scale(0.015625)"/>
       <path id="DejaVuSans-29" d="M 513 4856 
L 1013 4856 
Q 1481 4119 1714 3412 
Q 1947 2706 1947 2009 
Q 1947 1309 1714 600 
Q 1481 -109 1013 -844 
L 513 -844 
Q 928 -128 1133 580 
Q 1338 1288 1338 2009 
Q 1338 2731 1133 3434 
Q 928 4138 513 4856 
z
" transform="scale(0.015625)"/>
      </defs>
      <use xlink:href="#DejaVuSans-74" transform="translate(0 0.015625)"/>
      <use xlink:href="#DejaVuSans-65" transform="translate(39.208984 0.015625)"/>
      <use xlink:href="#DejaVuSans-73" transform="translate(100.732422 0.015625)"/>
      <use xlink:href="#DejaVuSans-74" transform="translate(152.832031 0.015625)"/>
      <use xlink:href="#DejaVuSans-20" transform="translate(192.041016 0.015625)"/>
      <use xlink:href="#DejaVuSans-50" transform="translate(223.828125 0.015625)"/>
      <use xlink:href="#DejaVuSans-53" transform="translate(284.130859 0.015625)"/>
      <use xlink:href="#DejaVuSans-4e" transform="translate(347.607422 0.015625)"/>
      <use xlink:href="#DejaVuSans-52" transform="translate(418.787109 0.015625)"/>
      <use xlink:href="#DejaVuSans-20" transform="translate(488.269531 0.015625)"/>
      <use xlink:href="#DejaVuSans-40" transform="translate(520.056641 0.015625)"/>
      <use xlink:href="#DejaVuSans-20" transform="translate(620.056641 0.015625)"/>
      <use xlink:href="#DejaVuSans-Oblique-3c1" transform="translate(651.84375 0.015625)"/>
      <use xlink:href="#DejaVuSans-3d" transform="translate(734.802734 0.015625)"/>
      <use xlink:href="#DejaVuSans-2e" transform="translate(838.074219 0.015625)"/>
      <use xlink:href="#DejaVuSans-32" transform="translate(889.34375 0.015625)"/>
      <use xlink:href="#DejaVuSans-30" transform="translate(952.966797 0.015625)"/>
      <use xlink:href="#DejaVuSans-20" transform="translate(1016.589844 0.015625)"/>
      <use xlink:href="#DejaVuSans-20" transform="translate(1048.376953 0.015625)"/>
      <use xlink:href="#DejaVuSans-28" transform="translate(1080.164062 0.015625)"/>
      <use xlink:href="#DejaVuSans-64" transform="translate(1119.177734 0.015625)"/>
      <use xlink:href="#DejaVuSans-42" transform="translate(1182.654297 0.015625)"/>
      <use xlink:href="#DejaVuSans-29" transform="translate(1251.257812 0.015625)"/>
     </g>
    </g>
   </g>
   <g id="line2d_32">
    <path d="M 42.030938 146.190178 
L 445.372476 146.190178 
" clip-path="url(#p6bf04afe37)" style="fill: none; stroke: #555555; stroke-linecap: square"/>
   </g>
   <g id="line2d_33">
    <path d="M 42.030938 92.38628 
L 445.372476 92.38628 
" clip-path="url(#p6bf04afe37)" style="fill: none; stroke-dasharray: 4.81,2.08; stroke-dashoffset: 0; stroke: #e69f00; stroke-width: 1.3"/>
   </g>
   <g id="line2d_34">
    <path d="M 42.030938 49.365346 
L 445.372476 49.365346 
" clip-path="url(#p6bf04afe37)" style="fill: none; stroke-dasharray: 8.32,2.08,1.3,2.08; stroke-dashoffset: 0; stroke: #009e73; stroke-width: 1.3"/>
   </g>
   <g id="patch_4">
    <path d="M 42.030938 213.998594 
L 42.030938 20.038594 
" style="fill: none; stroke: #000000; stroke-width: 0.8; stroke-linejoin: miter; stroke-linecap: square"/>
   </g>
   <g id="patch_5">
    <path d="M 445.372476 213.998594 
L 445.372476 20.038594 
" style="fill: none; stroke: #000000; stroke-width: 0.8; stroke-linejoin: miter; stroke-linecap: square"/>
   </g>
   <g id="patch_6">
    <path d="M 42.030938 213.998594 
L 445.372476 213.998594 
" style="fill: none; stroke: #000000; stroke-width: 0.8; stroke-linejoin: miter; stroke-linecap: square"/>
   </g>
   <g id="patch_7">
    <path d="M 42.030938 20.038594 
L 445.372476 20.038594 
" style="fill: none; stroke: #000000; stroke-width: 0.8; stroke-linejoin: miter; stroke-linecap: square"/>
   </g>
   <g id="line2d_35">
    <path d="M 60.364644 142.797862 
" clip-path="url(#p6bf04afe37)" style="fill: none; stroke: #0072b2; stroke-width: 1.5; stroke-linecap: square"/>
    <defs>
     <path id="m72c74d6a1b" d="M 0 2.5 
C 0.663008 2.5 1.29895 2.236584 1.767767 1.767767 
C 2.236584 1.29895 2.5 0.663008 2.5 0 
C 2.5 -0.663008 2.236584 -1.29895 1.767767 -1.767767 
C 1.29895 -2.236584 0.663008 -2.5 0 -2.5 
C -0.663008 -2.5 -1.29895 -2.236584 -1.767767 -1.767767 
C -2.236584 -1.29895 -2.5 -0.663008 -2.5 0 
C -2.5 0.663008 -2.236584 1.29895 -1.767767 1.767767 
C -1.29895 2.236584 -0.663008 2.5 0 2.5 
z
" style="stroke: #0072b2"/>
    </defs>
    <g clip-path="url(#p6bf04afe37)">
     <use xlink:href="#m72c74d6a1b" x="60.364644" y="142.797862" style="fill: #0072b2; stroke: #0072b2"/>
    </g>
   </g>
   <g id="line2d_36">
    <path d="M 83.281777 199.647288 
" clip-path="url(#p6bf04afe37)" style="fill: none; stroke: #d55e00; stroke-width: 1.5; stroke-linecap: square"/>
    <defs>
     <path id="m01a6759cb1" d="M 0 2.5 
C 0.663008 2.5 1.29895 2.236584 1.767767 1.767767 
C 2.236584 1.29895 2.5 0.663008 2.5 0 
C 2.5 -0.663008 2.236584 -1.29895 1.767767 -1.767767 
C 1.29895 -2.236584 0.663008 -2.5 0 -2.5 
C -0.663008 -2.5 -1.29895 -2.236584 -1.767767 -1.767767 
C -2.236584 -1.29895 -2.5 -0.663008 -2.5 0 
C -2.5 0.663008 -2.236584 1.29895 -1.767767 1.767767 
C -1.29895 2.236584 -0.663008 2.5 0 2.5 
z
" style="stroke: #d55e00"/>
    </defs>
    <g clip-path="url(#p6bf04afe37)">
     <use xlink:href="#m01a6759cb1" x="83.281777" y="199.647288" style="fill: #d55e00; stroke: #d55e00"/>
    </g>
   </g>
   <g id="text_27">
    <!-- seed 2 -->
    <g style="fill: #d55e00" transform="translate(88.281777 201.440882) scale(0.065 -0.065)">
     <use xlink:href="#DejaVuSans-73"/>
     <use xlink:href="#DejaVuSans-65" transform="translate(52.099609 0)"/>
     <use xlink:href="#DejaVuSans-65" transform="translate(113.623047 0)"/>
     <use xlink:href="#DejaVuSans-64" transform="translate(175.146484 0)"/>
     <use xlink:href="#DejaVuSans-20" transform="translate(238.623047 0)"/>
     <use xlink:href="#DejaVuSans-32" transform="translate(270.410156 0)"/>
    </g>
   </g>
   <g id="line2d_37">
    <path d="M 106.19891 142.829806 
" clip-path="url(#p6bf04afe37)" style="fill: none; stroke: #0072b2; stroke-width: 1.5; stroke-linecap: square"/>
    <g clip-path="url(#p6bf04afe37)">
     <use xlink:href="#m72c74d6a1b" x="106.19891" y="142.829806" style="fill: #0072b2; stroke: #0072b2"/>
    </g>
   </g>
   <g id="line2d_38">
    <path d="M 129.116042 142.86471 
" clip-path="url(#p6bf04afe37)" style="fill: none; stroke: #0072b2; stroke-width: 1.5; stroke-linecap: square"/>
    <g clip-path="url(#p6bf04afe37)">
     <use xlink:href="#m72c74d6a1b" x="129.116042" y="142.86471" style="fill: #0072b2; stroke: #0072b2"/>
    </g>
   </g>
   <g id="line2d_39">
    <path d="M 152.033175 142.779326 
" clip-path="url(#p6bf04afe37)" style="fill: none; stroke: #0072b2; stroke-width: 1.5; stroke-linecap: square"/>
    <g clip-path="url(#p6bf04afe37)">
     <use xlink:href="#m72c74d6a1b" x="152.033175" y="142.779326" style="fill: #0072b2; stroke: #0072b2"/>
    </g>
   </g>
   <g id="line2d_40">
    <path d="M 174.950308 142.838228 
" clip-path="url(#p6bf04afe37)" style="fill: none; stroke: #0072b2; stroke-width: 1.5; stroke-linecap: square"/>
    <g clip-path="url(#p6bf04afe37)">
     <use xlink:href="#m72c74d6a1b" x="174.950308" y="142.838228" style="fill: #0072b2; stroke: #0072b2"/>
    </g>
   </g>
   <g id="line2d_41">
    <path d="M 197.867441 142.853685 
" clip-path="url(#p6bf04afe37)" style="fill: none; stroke: #0072b2; stroke-width: 1.5; stroke-linecap: square"/>
    <g clip-path="url(#p6bf04afe37)">
     <use xlink:href="#m72c74d6a1b" x="197.867441" y="142.853685" style="fill: #0072b2; stroke: #0072b2"/>
    </g>
   </g>
   <g id="line2d_42">
    <path d="M 220.784574 142.820315 
" clip-path="url(#p6bf04afe37)" style="fill: none; stroke: #0072b2; stroke-width: 1.5; stroke-linecap: square"/>
    <g clip-path="url(#p6bf04afe37)">
     <use xlink:href="#m72c74d6a1b" x="220.784574" y="142.820315" style="fill: #0072b2; stroke: #0072b2"/>
    </g>
   </g>
   <g id="line2d_43">
    <path d="M 243.701707 142.829332 
" clip-path="url(#p6bf04afe37)" style="fill: none; stroke: #0072b2; stroke-width: 1.5; stroke-linecap: square"/>
    <g clip-path="url(#p6bf04afe37)">
     <use xlink:href="#m72c74d6a1b" x="243.701707" y="142.829332" style="fill: #0072b2; stroke: #0072b2"/>
    </g>
   </g>
   <g id="line2d_44">
    <path d="M 266.61884 142.820236 
" clip-path="url(#p6bf04afe37)" style="fill: none; stroke: #0072b2; stroke-width: 1.5; stroke-linecap: square"/>
    <g clip-path="url(#p6bf04afe37)">
     <use xlink:href="#m72c74d6a1b" x="266.61884" y="142.820236" style="fill: #0072b2; stroke: #0072b2"/>
    </g>
   </g>
   <g id="line2d_45">
    <path d="M 289.535972 142.824293 
" clip-path="url(#p6bf04afe37)" style="fill: none; stroke: #0072b2; stroke-width: 1.5; stroke-linecap: square"/>
    <g clip-path="url(#p6bf04afe37)">
     <use xlink:href="#m72c74d6a1b" x="289.535972" y="142.824293" style="fill: #0072b2; stroke: #0072b2"/>
    </g>
   </g>
   <g id="line2d_46">
    <path d="M 312.453105 142.794042 
" clip-path="url(#p6bf04afe37)" style="fill: none; stroke: #0072b2; stroke-width: 1.5; stroke-linecap: square"/>
    <g clip-path="url(#p6bf04afe37)">
     <use xlink:href="#m72c74d6a1b" x="312.453105" y="142.794042" style="fill: #0072b2; stroke: #0072b2"/>
    </g>
   </g>
   <g id="line2d_47">
    <path d="M 335.370238 142.782045 
" clip-path="url(#p6bf04afe37)" style="fill: none; stroke: #0072b2; stroke-width: 1.5; stroke-linecap: square"/>
    <g clip-path="url(#p6bf04afe37)">
     <use xlink:href="#m72c74d6a1b" x="335.370238" y="142.782045" style="fill: #0072b2; stroke: #0072b2"/>
    </g>
   </g>
   <g id="line2d_48">
    <path d="M 358.287371 142.839063 
" clip-path="url(#p6bf04afe37)" style="fill: none; stroke: #0072b2; stroke-width: 1.5; stroke-linecap: square"/>
    <g clip-path="url(#p6bf04afe37)">
     <use xlink:href="#m72c74d6a1b" x="358.287371" y="142.839063" style="fill: #0072b2; stroke: #0072b2"/>
    </g>
   </g>
   <g id="line2d_49">
    <path d="M 381.204504 142.781709 
" clip-path="url(#p6bf04afe37)" style="fill: none; stroke: #0072b2; stroke-width: 1.5; stroke-linecap: square"/>
    <g clip-path="url(#p6bf04afe37)">
     <use xlink:href="#m72c74d6a1b" x="381.204504" y="142.781709" style="fill: #0072b2; stroke: #0072b2"/>
    </g>
   </g>
   <g id="line2d_50">
    <path d="M 404.121637 142.771825 
" clip-path="url(#p6bf04afe37)" style="fill: none; stroke: #0072b2; stroke-width: 1.5; stroke-linecap: square"/>
    <g clip-path="url(#p6bf04afe37)">
     <use xlink:href="#m72c74d6a1b" x="404.121637" y="142.771825" style="fill: #0072b2; stroke: #0072b2"/>
    </g>
   </g>
   <g id="line2d_51">
    <path d="M 427.03877 142.850074 
" clip-path="url(#p6bf04afe37)" style="fill: none; stroke: #0072b2; stroke-width: 1.5; stroke-linecap: square"/>
    <g clip-path="url(#p6bf04afe37)">
     <use xlink:href="#m72c74d6a1b" x="427.03877" y="142.850074" style="fill: #0072b2; stroke: #0072b2"/>
    </g>
   </g>
   <g id="text_28">
    <!-- per seed  (n=17) -->
    <g transform="translate(205.336394 14.038594) scale(0.09 -0.09)">
     <defs>
      <path id="DejaVuSans-70" d="M 1159 525 
L 1159 -1331 
L 581 -1331 
L 581 3500 
L 1159 3500 
L 1159 2969 
Q 1341 3281 1617 3432 
Q 1894 3584 2278 3584 
Q 2916 3584 3314 3078 
Q 3713 2572 3713 1747 
Q 3713 922 3314 415 
Q 2916 -91 2278 -91 
Q 1894 -91 1617 61 
Q 1341 213 1159 525 
z
M 3116 1747 
Q 3116 2381 2855 2742 
Q 2594 3103 2138 3103 
Q 1681 3103 1420 2742 
Q 1159 2381 1159 1747 
Q 1159 1113 1420 752 
Q 1681 391 2138 391 
Q 2594 391 2855 752 
Q 3116 1113 3116 1747 
z
" transform="scale(0.015625)"/>
     </defs>
     <use xlink:href="#DejaVuSans-70"/>
     <use xlink:href="#DejaVuSans-65" transform="translate(63.476562 0)"/>
     <use xlink:href="#DejaVuSans-72" transform="translate(125 0)"/>
     <use xlink:href="#DejaVuSans-20" transform="translate(166.113281 0)"/>
     <use xlink:href="#DejaVuSans-73" transform="translate(197.900391 0)"/>
     <use xlink:href="#DejaVuSans-65" transform="translate(250 0)"/>
     <use xlink:href="#DejaVuSans-65" transform="translate(311.523438 0)"/>
     <use xlink:href="#DejaVuSans-64" transform="translate(373.046875 0)"/>
     <use xlink:href="#DejaVuSans-20" transform="translate(436.523438 0)"/>
     <use xlink:href="#DejaVuSans-20" transform="translate(468.310547 0)"/>
     <use xlink:href="#DejaVuSans-28" transform="translate(500.097656 0)"/>
     <use xlink:href="#DejaVuSans-6e" transform="translate(539.111328 0)"/>
     <use xlink:href="#DejaVuSans-3d" transform="translate(602.490234 0)"/>
     <use xlink:href="#DejaVuSans-31" transform="translate(686.279297 0)"/>
     <use xlink:href="#DejaVuSans-37" transform="translate(749.902344 0)"/>
     <use xlink:href="#DejaVuSans-29" transform="translate(813.525391 0)"/>
    </g>
   </g>
   <g id="legend_1">
    <g id="line2d_52">
     <path d="M 198.156863 183.243437 
L 205.156863 183.243437 
L 212.156863 183.243437 
" style="fill: none; stroke: #555555; stroke-linecap: square"/>
    </g>
    <g id="text_29">
     <!-- random mean 31.64 -->
     <g transform="translate(217.756863 185.693437) scale(0.07 -0.07)">
      <use xlink:href="#DejaVuSans-72"/>
      <use xlink:href="#DejaVuSans-61" transform="translate(41.113281 0)"/>
      <use xlink:href="#DejaVuSans-6e" transform="translate(102.392578 0)"/>
      <use xlink:href="#DejaVuSans-64" transform="translate(165.771484 0)"/>
      <use xlink:href="#DejaVuSans-6f" transform="translate(229.248047 0)"/>
      <use xlink:href="#DejaVuSans-6d" transform="translate(290.429688 0)"/>
      <use xlink:href="#DejaVuSans-20" transform="translate(387.841797 0)"/>
      <use xlink:href="#DejaVuSans-6d" transform="translate(419.628906 0)"/>
      <use xlink:href="#DejaVuSans-65" transform="translate(517.041016 0)"/>
      <use xlink:href="#DejaVuSans-61" transform="translate(578.564453 0)"/>
      <use xlink:href="#DejaVuSans-6e" transform="translate(639.84375 0)"/>
      <use xlink:href="#DejaVuSans-20" transform="translate(703.222656 0)"/>
      <use xlink:href="#DejaVuSans-33" transform="translate(735.009766 0)"/>
      <use xlink:href="#DejaVuSans-31" transform="translate(798.632812 0)"/>
      <use xlink:href="#DejaVuSans-2e" transform="translate(862.255859 0)"/>
      <use xlink:href="#DejaVuSans-36" transform="translate(894.042969 0)"/>
      <use xlink:href="#DejaVuSans-34" transform="translate(957.666016 0)"/>
     </g>
    </g>
    <g id="line2d_53">
     <path d="M 198.156863 193.518125 
L 205.156863 193.518125 
L 212.156863 193.518125 
" style="fill: none; stroke-dasharray: 4.81,2.08; stroke-dashoffset: 0; stroke: #e69f00; stroke-width: 1.3"/>
    </g>
    <g id="text_30">
     <!-- identity init 31.98 -->
     <g transform="translate(217.756863 195.968125) scale(0.07 -0.07)">
      <defs>
       <path id="DejaVuSans-79" d="M 2059 -325 
Q 1816 -950 1584 -1140 
Q 1353 -1331 966 -1331 
L 506 -1331 
L 506 -850 
L 844 -850 
Q 1081 -850 1212 -737 
Q 1344 -625 1503 -206 
L 1606 56 
L 191 3500 
L 800 3500 
L 1894 763 
L 2988 3500 
L 3597 3500 
L 2059 -325 
z
" transform="scale(0.015625)"/>
      </defs>
      <use xlink:href="#DejaVuSans-69"/>
      <use xlink:href="#DejaVuSans-64" transform="translate(27.783203 0)"/>
      <use xlink:href="#DejaVuSans-65" transform="translate(91.259766 0)"/>
      <use xlink:href="#DejaVuSans-6e" transform="translate(152.783203 0)"/>
      <use xlink:href="#DejaVuSans-74" transform="translate(216.162109 0)"/>
      <use xlink:href="#DejaVuSans-69" transform="translate(255.371094 0)"/>
      <use xlink:href="#DejaVuSans-74" transform="translate(283.154297 0)"/>
      <use xlink:href="#DejaVuSans-79" transform="translate(322.363281 0)"/>
      <use xlink:href="#DejaVuSans-20" transform="translate(381.542969 0)"/>
      <use xlink:href="#DejaVuSans-69" transform="translate(413.330078 0)"/>
      <use xlink:href="#DejaVuSans-6e" transform="translate(441.113281 0)"/>
      <use xlink:href="#DejaVuSans-69" transform="translate(504.492188 0)"/>
      <use xlink:href="#DejaVuSans-74" transform="translate(532.275391 0)"/>
      <use xlink:href="#DejaVuSans-20" transform="translate(571.484375 0)"/>
      <use xlink:href="#DejaVuSans-33" transform="translate(603.271484 0)"/>
      <use xlink:href="#DejaVuSans-31" transform="translate(666.894531 0)"/>
      <use xlink:href="#DejaVuSans-2e" transform="translate(730.517578 0)"/>
      <use xlink:href="#DejaVuSans-39" transform="translate(762.304688 0)"/>
      <use xlink:href="#DejaVuSans-38" transform="translate(825.927734 0)"/>
     </g>
    </g>
    <g id="line2d_54">
     <path d="M 198.156863 203.792812 
L 205.156863 203.792812 
L 212.156863 203.792812 
" style="fill: none; stroke-dasharray: 8.32,2.08,1.3,2.08; stroke-dashoffset: 0; stroke: #009e73; stroke-width: 1.3"/>
    </g>
    <g id="text_31">
     <!-- block 8×8 32.26 -->
     <g transform="translate(217.756863 206.242812) scale(0.07 -0.07)">
      <defs>
       <path id="DejaVuSans-62" d="M 3116 1747 
Q 3116 2381 2855 2742 
Q 2594 3103 2138 3103 
Q 1681 3103 1420 2742 
Q 1159 2381 1159 1747 
Q 1159 1113 1420 752 
Q 1681 391 2138 391 
Q 2594 391 2855 752 
Q 3116 1113 3116 1747 
z
M 1159 2969 
Q 1341 3281 1617 3432 
Q 1894 3584 2278 3584 
Q 2916 3584 3314 3078 
Q 3713 2572 3713 1747 
Q 3713 922 3314 415 
Q 2916 -91 2278 -91 
Q 1894 -91 1617 61 
Q 1341 213 1159 525 
L 1159 0 
L 581 0 
L 581 4863 
L 1159 4863 
L 1159 2969 
z
" transform="scale(0.015625)"/>
       <path id="DejaVuSans-6c" d="M 603 4863 
L 1178 4863 
L 1178 0 
L 603 0 
L 603 4863 
z
" transform="scale(0.015625)"/>
       <path id="DejaVuSans-63" d="M 3122 3366 
L 3122 2828 
Q 2878 2963 2633 3030 
Q 2388 3097 2138 3097 
Q 1578 3097 1268 2742 
Q 959 2388 959 1747 
Q 959 1106 1268 751 
Q 1578 397 2138 397 
Q 2388 397 2633 464 
Q 2878 531 3122 666 
L 3122 134 
Q 2881 22 2623 -34 
Q 2366 -91 2075 -91 
Q 1284 -91 818 406 
Q 353 903 353 1747 
Q 353 2603 823 3093 
Q 1294 3584 2113 3584 
Q 2378 3584 2631 3529 
Q 2884 3475 3122 3366 
z
" transform="scale(0.015625)"/>
       <path id="DejaVuSans-6b" d="M 581 4863 
L 1159 4863 
L 1159 1991 
L 2875 3500 
L 3609 3500 
L 1753 1863 
L 3688 0 
L 2938 0 
L 1159 1709 
L 1159 0 
L 581 0 
L 581 4863 
z
" transform="scale(0.015625)"/>
       <path id="DejaVuSans-d7" d="M 4488 3438 
L 3059 2003 
L 4488 575 
L 4116 197 
L 2681 1631 
L 1247 197 
L 878 575 
L 2303 2003 
L 878 3438 
L 1247 3816 
L 2681 2381 
L 4116 3816 
L 4488 3438 
z
" transform="scale(0.015625)"/>
      </defs>
      <use xlink:href="#DejaVuSans-62"/>
      <use xlink:href="#DejaVuSans-6c" transform="translate(63.476562 0)"/>
      <use xlink:href="#DejaVuSans-6f" transform="translate(91.259766 0)"/>
      <use xlink:href="#DejaVuSans-63" transform="translate(152.441406 0)"/>
      <use xlink:href="#DejaVuSans-6b" transform="translate(207.421875 0)"/>
      <use xlink:href="#DejaVuSans-20" transform="translate(265.332031 0)"/>
      <use xlink:href="#DejaVuSans-38" transform="translate(297.119141 0)"/>
      <use xlink:href="#DejaVuSans-d7" transform="translate(360.742188 0)"/>
      <use xlink:href="#DejaVuSans-38" transform="translate(444.53125 0)"/>
      <use xlink:href="#DejaVuSans-20" transform="translate(508.154297 0)"/>
      <use xlink:href="#DejaVuSans-33" transform="translate(539.941406 0)"/>
      <use xlink:href="#DejaVuSans-32" transform="translate(603.564453 0)"/>
      <use xlink:href="#DejaVuSans-2e" transform="translate(667.1875 0)"/>
      <use xlink:href="#DejaVuSans-32" transform="translate(698.974609 0)"/>
      <use xlink:href="#DejaVuSans-36" transform="translate(762.597656 0)"/>
     </g>
    </g>
   </g>
  </g>
  <g id="axes_2">
   <g id="patch_8">
    <path d="M 485.532476 213.998594 
L 737.620937 213.998594 
L 737.620937 20.038594 
L 485.532476 20.038594 
z
" style="fill: #ffffff"/>
   </g>
   <g id="FillBetweenPolyCollection_1">
    <defs>
     <path id="m77e1a750cd" d="M 496.991042 -122.289142 
L 496.991042 -120.347421 
L 573.381485 -154.245499 
L 649.771928 -181.046722 
L 726.162371 -205.113127 
L 726.162371 -210.13152 
L 726.162371 -210.13152 
L 649.771928 -185.272017 
L 573.381485 -157.513607 
L 496.991042 -122.289142 
z
"/>
    </defs>
    <g clip-path="url(#p8771c56e94)">
     <use xlink:href="#m77e1a750cd" x="0" y="247.218281" style="fill: #0072b2; fill-opacity: 0.3"/>
    </g>
   </g>
   <g id="matplotlib.axis_3">
    <g id="xtick_18">
     <g id="line2d_55">
      <path d="M 496.991042 213.998594 
L 496.991042 20.038594 
" clip-path="url(#p8771c56e94)" style="fill: none; stroke: #b0b0b0; stroke-opacity: 0.25; stroke-width: 0.5; stroke-linecap: square"/>
     </g>
     <g id="line2d_56">
      <g>
       <use xlink:href="#m8f1a58366f" x="496.991042" y="213.998594" style="stroke: #000000; stroke-width: 0.8"/>
      </g>
     </g>
     <g id="text_32">
      <!-- 0.05 -->
      <g transform="translate(489.198074 226.3175) scale(0.07 -0.07)">
       <use xlink:href="#DejaVuSans-30"/>
       <use xlink:href="#DejaVuSans-2e" transform="translate(63.623047 0)"/>
       <use xlink:href="#DejaVuSans-30" transform="translate(95.410156 0)"/>
       <use xlink:href="#DejaVuSans-35" transform="translate(159.033203 0)"/>
      </g>
     </g>
    </g>
    <g id="xtick_19">
     <g id="line2d_57">
      <path d="M 573.381485 213.998594 
L 573.381485 20.038594 
" clip-path="url(#p8771c56e94)" style="fill: none; stroke: #b0b0b0; stroke-opacity: 0.25; stroke-width: 0.5; stroke-linecap: square"/>
     </g>
     <g id="line2d_58">
      <g>
       <use xlink:href="#m8f1a58366f" x="573.381485" y="213.998594" style="stroke: #000000; stroke-width: 0.8"/>
      </g>
     </g>
     <g id="text_33">
      <!-- 0.10 -->
      <g transform="translate(565.588517 226.3175) scale(0.07 -0.07)">
       <use xlink:href="#DejaVuSans-30"/>
       <use xlink:href="#DejaVuSans-2e" transform="translate(63.623047 0)"/>
       <use xlink:href="#DejaVuSans-31" transform="translate(95.410156 0)"/>
       <use xlink:href="#DejaVuSans-30" transform="translate(159.033203 0)"/>
      </g>
     </g>
    </g>
    <g id="xtick_20">
     <g id="line2d_59">
      <path d="M 649.771928 213.998594 
L 649.771928 20.038594 
" clip-path="url(#p8771c56e94)" style="fill: none; stroke: #b0b0b0; stroke-opacity: 0.25; stroke-width: 0.5; stroke-linecap: square"/>
     </g>
     <g id="line2d_60">
      <g>
       <use xlink:href="#m8f1a58366f" x="649.771928" y="213.998594" style="stroke: #000000; stroke-width: 0.8"/>
      </g>
     </g>
     <g id="text_34">
      <!-- 0.15 -->
      <g transform="translate(641.978959 226.3175) scale(0.07 -0.07)">
       <use xlink:href="#DejaVuSans-30"/>
       <use xlink:href="#DejaVuSans-2e" transform="translate(63.623047 0)"/>
       <use xlink:href="#DejaVuSans-31" transform="translate(95.410156 0)"/>
       <use xlink:href="#DejaVuSans-35" transform="translate(159.033203 0)"/>
      </g>
     </g>
    </g>
    <g id="xtick_21">
     <g id="line2d_61">
      <path d="M 726.162371 213.998594 
L 726.162371 20.038594 
" clip-path="url(#p8771c56e94)" style="fill: none; stroke: #b0b0b0; stroke-opacity: 0.25; stroke-width: 0.5; stroke-linecap: square"/>
     </g>
     <g id="line2d_62">
      <g>
       <use xlink:href="#m8f1a58366f" x="726.162371" y="213.998594" style="stroke: #000000; stroke-width: 0.8"/>
      </g>
     </g>
     <g id="text_35">
      <!-- 0.20 -->
      <g transform="translate(718.369402 226.3175) scale(0.07 -0.07)">
       <use xlink:href="#DejaVuSans-30"/>
       <use xlink:href="#DejaVuSans-2e" transform="translate(63.623047 0)"/>
       <use xlink:href="#DejaVuSans-32" transform="translate(95.410156 0)"/>
       <use xlink:href="#DejaVuSans-30" transform="translate(159.033203 0)"/>
      </g>
     </g>
    </g>
    <g id="text_36">
     <!-- keep ratio $\rho$ -->
     <g transform="translate(585.949207 238.233281) scale(0.085 -0.085)">
      <use xlink:href="#DejaVuSans-6b" transform="translate(0 0.015625)"/>
      <use xlink:href="#DejaVuSans-65" transform="translate(57.910156 0.015625)"/>
      <use xlink:href="#DejaVuSans-65" transform="translate(119.433594 0.015625)"/>
      <use xlink:href="#DejaVuSans-70" transform="translate(180.957031 0.015625)"/>
      <use xlink:href="#DejaVuSans-20" transform="translate(244.433594 0.015625)"/>
      <use xlink:href="#DejaVuSans-72" transform="translate(276.220703 0.015625)"/>
      <use xlink:href="#DejaVuSans-61" transform="translate(317.333984 0.015625)"/>
      <use xlink:href="#DejaVuSans-74" transform="translate(378.613281 0.015625)"/>
      <use xlink:href="#DejaVuSans-69" transform="translate(417.822266 0.015625)"/>
      <use xlink:href="#DejaVuSans-6f" transform="translate(445.605469 0.015625)"/>
      <use xlink:href="#DejaVuSans-20" transform="translate(506.787109 0.015625)"/>
      <use xlink:href="#DejaVuSans-Oblique-3c1" transform="translate(538.574219 0.015625)"/>
     </g>
    </g>
   </g>
   <g id="matplotlib.axis_4">
    <g id="ytick_8">
     <g id="line2d_63">
      <path d="M 485.532476 196.513019 
L 737.620937 196.513019 
" clip-path="url(#p8771c56e94)" style="fill: none; stroke: #b0b0b0; stroke-opacity: 0.25; stroke-width: 0.5; stroke-linecap: square"/>
     </g>
     <g id="line2d_64">
      <g>
       <use xlink:href="#m6ea0230c04" x="485.532476" y="196.513019" style="stroke: #000000; stroke-width: 0.8"/>
      </g>
     </g>
     <g id="text_37">
      <!-- 20 -->
      <g transform="translate(469.624976 199.172472) scale(0.07 -0.07)">
       <use xlink:href="#DejaVuSans-32"/>
       <use xlink:href="#DejaVuSans-30" transform="translate(63.623047 0)"/>
      </g>
     </g>
    </g>
    <g id="ytick_9">
     <g id="line2d_65">
      <path d="M 485.532476 169.164832 
L 737.620937 169.164832 
" clip-path="url(#p8771c56e94)" style="fill: none; stroke: #b0b0b0; stroke-opacity: 0.25; stroke-width: 0.5; stroke-linecap: square"/>
     </g>
     <g id="line2d_66">
      <g>
       <use xlink:href="#m6ea0230c04" x="485.532476" y="169.164832" style="stroke: #000000; stroke-width: 0.8"/>
      </g>
     </g>
     <g id="text_38">
      <!-- 22 -->
      <g transform="translate(469.624976 171.824285) scale(0.07 -0.07)">
       <use xlink:href="#DejaVuSans-32"/>
       <use xlink:href="#DejaVuSans-32" transform="translate(63.623047 0)"/>
      </g>
     </g>
    </g>
    <g id="ytick_10">
     <g id="line2d_67">
      <path d="M 485.532476 141.816645 
L 737.620937 141.816645 
" clip-path="url(#p8771c56e94)" style="fill: none; stroke: #b0b0b0; stroke-opacity: 0.25; stroke-width: 0.5; stroke-linecap: square"/>
     </g>
     <g id="line2d_68">
      <g>
       <use xlink:href="#m6ea0230c04" x="485.532476" y="141.816645" style="stroke: #000000; stroke-width: 0.8"/>
      </g>
     </g>
     <g id="text_39">
      <!-- 24 -->
      <g transform="translate(469.624976 144.476098) scale(0.07 -0.07)">
       <use xlink:href="#DejaVuSans-32"/>
       <use xlink:href="#DejaVuSans-34" transform="translate(63.623047 0)"/>
      </g>
     </g>
    </g>
    <g id="ytick_11">
     <g id="line2d_69">
      <path d="M 485.532476 114.468457 
L 737.620937 114.468457 
" clip-path="url(#p8771c56e94)" style="fill: none; stroke: #b0b0b0; stroke-opacity: 0.25; stroke-width: 0.5; stroke-linecap: square"/>
     </g>
     <g id="line2d_70">
      <g>
       <use xlink:href="#m6ea0230c04" x="485.532476" y="114.468457" style="stroke: #000000; stroke-width: 0.8"/>
      </g>
     </g>
     <g id="text_40">
      <!-- 26 -->
      <g transform="translate(469.624976 117.12791) scale(0.07 -0.07)">
       <use xlink:href="#DejaVuSans-32"/>
       <use xlink:href="#DejaVuSans-36" transform="translate(63.623047 0)"/>
      </g>
     </g>
    </g>
    <g id="ytick_12">
     <g id="line2d_71">
      <path d="M 485.532476 87.12027 
L 737.620937 87.12027 
" clip-path="url(#p8771c56e94)" style="fill: none; stroke: #b0b0b0; stroke-opacity: 0.25; stroke-width: 0.5; stroke-linecap: square"/>
     </g>
     <g id="line2d_72">
      <g>
       <use xlink:href="#m6ea0230c04" x="485.532476" y="87.12027" style="stroke: #000000; stroke-width: 0.8"/>
      </g>
     </g>
     <g id="text_41">
      <!-- 28 -->
      <g transform="translate(469.624976 89.779723) scale(0.07 -0.07)">
       <use xlink:href="#DejaVuSans-32"/>
       <use xlink:href="#DejaVuSans-38" transform="translate(63.623047 0)"/>
      </g>
     </g>
    </g>
    <g id="ytick_13">
     <g id="line2d_73">
      <path d="M 485.532476 59.772083 
L 737.620937 59.772083 
" clip-path="url(#p8771c56e94)" style="fill: none; stroke: #b0b0b0; stroke-opacity: 0.25; stroke-width: 0.5; stroke-linecap: square"/>
     </g>
     <g id="line2d_74">
      <g>
       <use xlink:href="#m6ea0230c04" x="485.532476" y="59.772083" style="stroke: #000000; stroke-width: 0.8"/>
      </g>
     </g>
     <g id="text_42">
      <!-- 30 -->
      <g transform="translate(469.624976 62.431536) scale(0.07 -0.07)">
       <use xlink:href="#DejaVuSans-33"/>
       <use xlink:href="#DejaVuSans-30" transform="translate(63.623047 0)"/>
      </g>
     </g>
    </g>
    <g id="ytick_14">
     <g id="line2d_75">
      <path d="M 485.532476 32.423896 
L 737.620937 32.423896 
" clip-path="url(#p8771c56e94)" style="fill: none; stroke: #b0b0b0; stroke-opacity: 0.25; stroke-width: 0.5; stroke-linecap: square"/>
     </g>
     <g id="line2d_76">
      <g>
       <use xlink:href="#m6ea0230c04" x="485.532476" y="32.423896" style="stroke: #000000; stroke-width: 0.8"/>
      </g>
     </g>
     <g id="text_43">
      <!-- 32 -->
      <g transform="translate(469.624976 35.083349) scale(0.07 -0.07)">
       <use xlink:href="#DejaVuSans-33"/>
       <use xlink:href="#DejaVuSans-32" transform="translate(63.623047 0)"/>
      </g>
     </g>
    </g>
    <g id="text_44">
     <!-- test PSNR (dB) -->
     <g transform="translate(463.857242 148.204961) rotate(-90) scale(0.085 -0.085)">
      <use xlink:href="#DejaVuSans-74"/>
      <use xlink:href="#DejaVuSans-65" transform="translate(39.208984 0)"/>
      <use xlink:href="#DejaVuSans-73" transform="translate(100.732422 0)"/>
      <use xlink:href="#DejaVuSans-74" transform="translate(152.832031 0)"/>
      <use xlink:href="#DejaVuSans-20" transform="translate(192.041016 0)"/>
      <use xlink:href="#DejaVuSans-50" transform="translate(223.828125 0)"/>
      <use xlink:href="#DejaVuSans-53" transform="translate(284.130859 0)"/>
      <use xlink:href="#DejaVuSans-4e" transform="translate(347.607422 0)"/>
      <use xlink:href="#DejaVuSans-52" transform="translate(422.412109 0)"/>
      <use xlink:href="#DejaVuSans-20" transform="translate(491.894531 0)"/>
      <use xlink:href="#DejaVuSans-28" transform="translate(523.681641 0)"/>
      <use xlink:href="#DejaVuSans-64" transform="translate(562.695312 0)"/>
      <use xlink:href="#DejaVuSans-42" transform="translate(626.171875 0)"/>
      <use xlink:href="#DejaVuSans-29" transform="translate(694.775391 0)"/>
     </g>
    </g>
   </g>
   <g id="line2d_77">
    <path d="M 496.991042 125.052206 
L 573.381485 89.896111 
L 649.771928 62.206072 
L 726.162371 37.387592 
" clip-path="url(#p8771c56e94)" style="fill: none; stroke: #0072b2; stroke-width: 1.5; stroke-linecap: square"/>
    <defs>
     <path id="m68592f05bb" d="M 0 1.75 
C 0.464105 1.75 0.909265 1.565609 1.237437 1.237437 
C 1.565609 0.909265 1.75 0.464105 1.75 0 
C 1.75 -0.464105 1.565609 -0.909265 1.237437 -1.237437 
C 0.909265 -1.565609 0.464105 -1.75 0 -1.75 
C -0.464105 -1.75 -0.909265 -1.565609 -1.237437 -1.237437 
C -1.565609 -0.909265 -1.75 -0.464105 -1.75 0 
C -1.75 0.464105 -1.565609 0.909265 -1.237437 1.237437 
C -0.909265 1.565609 -0.464105 1.75 0 1.75 
z
" style="stroke: #0072b2"/>
    </defs>
    <g clip-path="url(#p8771c56e94)">
     <use xlink:href="#m68592f05bb" x="496.991042" y="125.052206" style="fill: #0072b2; stroke: #0072b2"/>
     <use xlink:href="#m68592f05bb" x="573.381485" y="89.896111" style="fill: #0072b2; stroke: #0072b2"/>
     <use xlink:href="#m68592f05bb" x="649.771928" y="62.206072" style="fill: #0072b2; stroke: #0072b2"/>
     <use xlink:href="#m68592f05bb" x="726.162371" y="37.387592" style="fill: #0072b2; stroke: #0072b2"/>
    </g>
   </g>
   <g id="line2d_78">
    <path d="M 496.991042 205.18223 
L 573.381485 101.781613 
L 649.771928 63.445531 
L 726.162371 32.646153 
" clip-path="url(#p8771c56e94)" style="fill: none; stroke-dasharray: 5.55,2.4; stroke-dashoffset: 0; stroke: #e69f00; stroke-width: 1.5"/>
    <defs>
     <path id="m2c9a5d315a" d="M -1.75 1.75 
L 1.75 1.75 
L 1.75 -1.75 
L -1.75 -1.75 
z
" style="stroke: #e69f00; stroke-linejoin: miter"/>
    </defs>
    <g clip-path="url(#p8771c56e94)">
     <use xlink:href="#m2c9a5d315a" x="496.991042" y="205.18223" style="fill: #e69f00; stroke: #e69f00; stroke-linejoin: miter"/>
     <use xlink:href="#m2c9a5d315a" x="573.381485" y="101.781613" style="fill: #e69f00; stroke: #e69f00; stroke-linejoin: miter"/>
     <use xlink:href="#m2c9a5d315a" x="649.771928" y="63.445531" style="fill: #e69f00; stroke: #e69f00; stroke-linejoin: miter"/>
     <use xlink:href="#m2c9a5d315a" x="726.162371" y="32.646153" style="fill: #e69f00; stroke: #e69f00; stroke-linejoin: miter"/>
    </g>
   </g>
   <g id="line2d_79">
    <path d="M 496.991042 125.612844 
L 573.381485 85.944298 
L 649.771928 55.710877 
L 726.162371 28.854957 
" clip-path="url(#p8771c56e94)" style="fill: none; stroke-dasharray: 9.6,2.4,1.5,2.4; stroke-dashoffset: 0; stroke: #009e73; stroke-width: 1.5"/>
    <defs>
     <path id="ma037cac9f9" d="M 0 -1.75 
L -1.75 1.75 
L 1.75 1.75 
z
" style="stroke: #009e73; stroke-linejoin: miter"/>
    </defs>
    <g clip-path="url(#p8771c56e94)">
     <use xlink:href="#ma037cac9f9" x="496.991042" y="125.612844" style="fill: #009e73; stroke: #009e73; stroke-linejoin: miter"/>
     <use xlink:href="#ma037cac9f9" x="573.381485" y="85.944298" style="fill: #009e73; stroke: #009e73; stroke-linejoin: miter"/>
     <use xlink:href="#ma037cac9f9" x="649.771928" y="55.710877" style="fill: #009e73; stroke: #009e73; stroke-linejoin: miter"/>
     <use xlink:href="#ma037cac9f9" x="726.162371" y="28.854957" style="fill: #009e73; stroke: #009e73; stroke-linejoin: miter"/>
    </g>
   </g>
   <g id="patch_9">
    <path d="M 485.532476 213.998594 
L 485.532476 20.038594 
" style="fill: none; stroke: #000000; stroke-width: 0.8; stroke-linejoin: miter; stroke-linecap: square"/>
   </g>
   <g id="patch_10">
    <path d="M 737.620937 213.998594 
L 737.620937 20.038594 
" style="fill: none; stroke: #000000; stroke-width: 0.8; stroke-linejoin: miter; stroke-linecap: square"/>
   </g>
   <g id="patch_11">
    <path d="M 485.532476 213.998594 
L 737.620937 213.998594 
" style="fill: none; stroke: #000000; stroke-width: 0.8; stroke-linejoin: miter; stroke-linecap: square"/>
   </g>
   <g id="patch_12">
    <path d="M 485.532476 20.038594 
L 737.620937 20.038594 
" style="fill: none; stroke: #000000; stroke-width: 0.8; stroke-linejoin: miter; stroke-linecap: square"/>
   </g>
   <g id="text_45">
    <!-- across keep ratio -->
    <g transform="translate(573.081316 14.038594) scale(0.09 -0.09)">
     <use xlink:href="#DejaVuSans-61"/>
     <use xlink:href="#DejaVuSans-63" transform="translate(61.279297 0)"/>
     <use xlink:href="#DejaVuSans-72" transform="translate(116.259766 0)"/>
     <use xlink:href="#DejaVuSans-6f" transform="translate(155.123047 0)"/>
     <use xlink:href="#DejaVuSans-73" transform="translate(216.304688 0)"/>
     <use xlink:href="#DejaVuSans-73" transform="translate(268.404297 0)"/>
     <use xlink:href="#DejaVuSans-20" transform="translate(320.503906 0)"/>
     <use xlink:href="#DejaVuSans-6b" transform="translate(352.291016 0)"/>
     <use xlink:href="#DejaVuSans-65" transform="translate(406.576172 0)"/>
     <use xlink:href="#DejaVuSans-65" transform="translate(468.099609 0)"/>
     <use xlink:href="#DejaVuSans-70" transform="translate(529.623047 0)"/>
     <use xlink:href="#DejaVuSans-20" transform="translate(593.099609 0)"/>
     <use xlink:href="#DejaVuSans-72" transform="translate(624.886719 0)"/>
     <use xlink:href="#DejaVuSans-61" transform="translate(666 0)"/>
     <use xlink:href="#DejaVuSans-74" transform="translate(727.279297 0)"/>
     <use xlink:href="#DejaVuSans-69" transform="translate(766.488281 0)"/>
     <use xlink:href="#DejaVuSans-6f" transform="translate(794.271484 0)"/>
    </g>
   </g>
   <g id="legend_2">
    <g id="patch_13">
     <path d="M 491.832476 31.6575 
L 505.832476 31.6575 
L 505.832476 26.7575 
L 491.832476 26.7575 
z
" style="fill: #0072b2; fill-opacity: 0.3"/>
    </g>
    <g id="text_46">
     <!-- random min–max -->
     <g transform="translate(511.432476 31.6575) scale(0.07 -0.07)">
      <defs>
       <path id="DejaVuSans-2013" d="M 313 1978 
L 2888 1978 
L 2888 1528 
L 313 1528 
L 313 1978 
z
" transform="scale(0.015625)"/>
       <path id="DejaVuSans-78" d="M 3513 3500 
L 2247 1797 
L 3578 0 
L 2900 0 
L 1881 1375 
L 863 0 
L 184 0 
L 1544 1831 
L 300 3500 
L 978 3500 
L 1906 2253 
L 2834 3500 
L 3513 3500 
z
" transform="scale(0.015625)"/>
      </defs>
      <use xlink:href="#DejaVuSans-72"/>
      <use xlink:href="#DejaVuSans-61" transform="translate(41.113281 0)"/>
      <use xlink:href="#DejaVuSans-6e" transform="translate(102.392578 0)"/>
      <use xlink:href="#DejaVuSans-64" transform="translate(165.771484 0)"/>
      <use xlink:href="#DejaVuSans-6f" transform="translate(229.248047 0)"/>
      <use xlink:href="#DejaVuSans-6d" transform="translate(290.429688 0)"/>
      <use xlink:href="#DejaVuSans-20" transform="translate(387.841797 0)"/>
      <use xlink:href="#DejaVuSans-6d" transform="translate(419.628906 0)"/>
      <use xlink:href="#DejaVuSans-69" transform="translate(517.041016 0)"/>
      <use xlink:href="#DejaVuSans-6e" transform="translate(544.824219 0)"/>
      <use xlink:href="#DejaVuSans-2013" transform="translate(608.203125 0)"/>
      <use xlink:href="#DejaVuSans-6d" transform="translate(658.203125 0)"/>
      <use xlink:href="#DejaVuSans-61" transform="translate(755.615234 0)"/>
      <use xlink:href="#DejaVuSans-78" transform="translate(816.894531 0)"/>
     </g>
    </g>
    <g id="line2d_80">
     <path d="M 491.832476 39.482187 
L 498.832476 39.482187 
L 505.832476 39.482187 
" style="fill: none; stroke: #0072b2; stroke-width: 1.5; stroke-linecap: square"/>
     <g>
      <use xlink:href="#m68592f05bb" x="498.832476" y="39.482187" style="fill: #0072b2; stroke: #0072b2"/>
     </g>
    </g>
    <g id="text_47">
     <!-- random mean -->
     <g transform="translate(511.432476 41.932187) scale(0.07 -0.07)">
      <use xlink:href="#DejaVuSans-72"/>
      <use xlink:href="#DejaVuSans-61" transform="translate(41.113281 0)"/>
      <use xlink:href="#DejaVuSans-6e" transform="translate(102.392578 0)"/>
      <use xlink:href="#DejaVuSans-64" transform="translate(165.771484 0)"/>
      <use xlink:href="#DejaVuSans-6f" transform="translate(229.248047 0)"/>
      <use xlink:href="#DejaVuSans-6d" transform="translate(290.429688 0)"/>
      <use xlink:href="#DejaVuSans-20" transform="translate(387.841797 0)"/>
      <use xlink:href="#DejaVuSans-6d" transform="translate(419.628906 0)"/>
      <use xlink:href="#DejaVuSans-65" transform="translate(517.041016 0)"/>
      <use xlink:href="#DejaVuSans-61" transform="translate(578.564453 0)"/>
      <use xlink:href="#DejaVuSans-6e" transform="translate(639.84375 0)"/>
     </g>
    </g>
    <g id="line2d_81">
     <path d="M 491.832476 49.756875 
L 498.832476 49.756875 
L 505.832476 49.756875 
" style="fill: none; stroke-dasharray: 5.55,2.4; stroke-dashoffset: 0; stroke: #e69f00; stroke-width: 1.5"/>
     <g>
      <use xlink:href="#m2c9a5d315a" x="498.832476" y="49.756875" style="fill: #e69f00; stroke: #e69f00; stroke-linejoin: miter"/>
     </g>
    </g>
    <g id="text_48">
     <!-- identity init -->
     <g transform="translate(511.432476 52.206875) scale(0.07 -0.07)">
      <use xlink:href="#DejaVuSans-69"/>
      <use xlink:href="#DejaVuSans-64" transform="translate(27.783203 0)"/>
      <use xlink:href="#DejaVuSans-65" transform="translate(91.259766 0)"/>
      <use xlink:href="#DejaVuSans-6e" transform="translate(152.783203 0)"/>
      <use xlink:href="#DejaVuSans-74" transform="translate(216.162109 0)"/>
      <use xlink:href="#DejaVuSans-69" transform="translate(255.371094 0)"/>
      <use xlink:href="#DejaVuSans-74" transform="translate(283.154297 0)"/>
      <use xlink:href="#DejaVuSans-79" transform="translate(322.363281 0)"/>
      <use xlink:href="#DejaVuSans-20" transform="translate(381.542969 0)"/>
      <use xlink:href="#DejaVuSans-69" transform="translate(413.330078 0)"/>
      <use xlink:href="#DejaVuSans-6e" transform="translate(441.113281 0)"/>
      <use xlink:href="#DejaVuSans-69" transform="translate(504.492188 0)"/>
      <use xlink:href="#DejaVuSans-74" transform="translate(532.275391 0)"/>
     </g>
    </g>
    <g id="line2d_82">
     <path d="M 491.832476 60.031562 
L 498.832476 60.031562 
L 505.832476 60.031562 
" style="fill: none; stroke-dasharray: 9.6,2.4,1.5,2.4; stroke-dashoffset: 0; stroke: #009e73; stroke-width: 1.5"/>
     <g>
      <use xlink:href="#ma037cac9f9" x="498.832476" y="60.031562" style="fill: #009e73; stroke: #009e73; stroke-linejoin: miter"/>
     </g>
    </g>
    <g id="text_49">
     <!-- block 8×8 -->
     <g transform="translate(511.432476 62.481562) scale(0.07 -0.07)">
      <use xlink:href="#DejaVuSans-62"/>
      <use xlink:href="#DejaVuSans-6c" transform="translate(63.476562 0)"/>
      <use xlink:href="#DejaVuSans-6f" transform="translate(91.259766 0)"/>
      <use xlink:href="#DejaVuSans-63" transform="translate(152.441406 0)"/>
      <use xlink:href="#DejaVuSans-6b" transform="translate(207.421875 0)"/>
      <use xlink:href="#DejaVuSans-20" transform="translate(265.332031 0)"/>
      <use xlink:href="#DejaVuSans-38" transform="translate(297.119141 0)"/>
      <use xlink:href="#DejaVuSans-d7" transform="translate(360.742188 0)"/>
      <use xlink:href="#DejaVuSans-38" transform="translate(444.53125 0)"/>
     </g>
    </g>
   </g>
  </g>
 </g>
 <defs>
  <clipPath id="p6bf04afe37">
   <rect x="42.030938" y="20.038594" width="403.341538" height="193.96"/>
  </clipPath>
  <clipPath id="p8771c56e94">
   <rect x="485.532476" y="20.038594" width="252.088462" height="193.96"/>
  </clipPath>
 </defs>
</svg>
