<?xml version="1.0" encoding="utf-8" standalone="no"?>
<!DOCTYPE svg PUBLIC "-//W3C//DTD SVG 1.1//EN"
  "http://www.w3.org/Graphics/SVG/1.1/DTD/svg11.dtd">
<svg xmlns:xlink="http://www.w3.org/1999/xlink" width="560.830312pt" height="329.996812pt" viewBox="0 0 560.830312 329.996812" xmlns="http://www.w3.org/2000/svg" version="1.1">
 <metadata>
  <rdf:RDF xmlns:dc="http://purl.org/dc/elements/1.1/" xmlns:cc="http://creativecommons.org/ns#" xmlns:rdf="http://www.w3.org/1999/02/22-rdf-syntax-ns#">
   <cc:Work>
    <dc:type rdf:resource="http://purl.org/dc/dcmitype/StillImage"/>
    <dc:date>2026-05-12T06:54:39.380584</dc:date>
    <dc:format>image/svg+xml</dc:format>
    <dc:creator>
     <cc:Agent>
      <dc:title>Matplotlib v3.10.9, https://matplotlib.org/</dc:title>
     </cc:Agent>
    </dc:creator>
   </cc:Work>
  </rdf:RDF>
 </metadata>
 <defs>
  <style type="text/css">*{stroke-linejoin: round; stroke-linecap: butt}</style>
 </defs>
 <g id="figure_1">
  <g id="patch_1">
   <path d="M 0 329.996812 
L 560.830312 329.996812 
L 560.830312 0 
L 0 0 
z
" style="fill: #ffffff"/>
  </g>
  <g id="axes_1">
   <g id="patch_2">
    <path d="M 40.990313 295.344 
L 553.630313 295.344 
L 553.630313 7.2 
L 40.990313 7.2 
z
" style="fill: #ffffff"/>
   </g>
   <g id="matplotlib.axis_1">
    <g id="xtick_1">
     <g id="line2d_1">
      <path d="M 60.093605 295.344 
L 60.093605 7.2 
" clip-path="url(#p12587d30a3)" style="fill: none; stroke: #999999; stroke-opacity: 0.3; stroke-width: 0.5; stroke-linecap: square"/>
     </g>
     <g id="line2d_2">
      <defs>
       <path id="mf2c8d75b31" d="M 0 0 
L 0 3.5 
" style="stroke: #000000; stroke-width: 0.8"/>
      </defs>
      <g>
       <use xlink:href="#mf2c8d75b31" x="60.093605" y="295.344" style="stroke: #000000; stroke-width: 0.8"/>
      </g>
     </g>
     <g id="text_1">
      <!-- 0 -->
      <g transform="translate(57.548605 308.42275) scale(0.08 -0.08)">
       <defs>
        <path id="DejaVuSans-30" d="M 2034 4250 
Q 1547 4250 1301 3770 
Q 1056 3291 1056 2328 
Q 1056 1369 1301 889 
Q 1547 409 2034 409 
Q 2525 409 2770 889 
Q 3016 1369 3016 2328 
Q 3016 3291 2770 3770 
Q 2525 4250 2034 4250 
z
M 2034 4750 
Q 2819 4750 3233 4129 
Q 3647 3509 3647 2328 
Q 3647 1150 3233 529 
Q 2819 -91 2034 -91 
Q 1250 -91 836 529 
Q 422 1150 422 2328 
Q 422 3509 836 4129 
Q 1250 4750 2034 4750 
z
" transform="scale(0.015625)"/>
       </defs>
       <use xlink:href="#DejaVuSans-30"/>
      </g>
     </g>
    </g>
    <g id="xtick_2">
     <g id="line2d_3">
      <path d="M 153.394178 295.344 
L 153.394178 7.2 
" clip-path="url(#p12587d30a3)" style="fill: none; stroke: #999999; stroke-opacity: 0.3; stroke-width: 0.5; stroke-linecap: square"/>
     </g>
     <g id="line2d_4">
      <g>
       <use xlink:href="#mf2c8d75b31" x="153.394178" y="295.344" style="stroke: #000000; stroke-width: 0.8"/>
      </g>
     </g>
     <g id="text_2">
      <!-- 200 -->
      <g transform="translate(145.759178 308.42275) scale(0.08 -0.08)">
       <defs>
        <path id="DejaVuSans-32" d="M 1228 531 
L 3431 531 
L 3431 0 
L 469 0 
L 469 531 
Q 828 903 1448 1529 
Q 2069 2156 2228 2338 
Q 2531 2678 2651 2914 
Q 2772 3150 2772 3378 
Q 2772 3750 2511 3984 
Q 2250 4219 1831 4219 
Q 1534 4219 1204 4116 
Q 875 4013 500 3803 
L 500 4441 
Q 881 4594 1212 4672 
Q 1544 4750 1819 4750 
Q 2544 4750 2975 4387 
Q 3406 4025 3406 3419 
Q 3406 3131 3298 2873 
Q 3191 2616 2906 2266 
Q 2828 2175 2409 1742 
Q 1991 1309 1228 531 
z
" transform="scale(0.015625)"/>
       </defs>
       <use xlink:href="#DejaVuSans-32"/>
       <use xlink:href="#DejaVuSans-30" transform="translate(63.623047 0)"/>
       <use xlink:href="#DejaVuSans-30" transform="translate(127.246094 0)"/>
      </g>
     </g>
    </g>
    <g id="xtick_3">
     <g id="line2d_5">
      <path d="M 246.694751 295.344 
L 246.694751 7.2 
" clip-path="url(#p12587d30a3)" style="fill: none; stroke: #999999; stroke-opacity: 0.3; stroke-width: 0.5; stroke-linecap: square"/>
     </g>
     <g id="line2d_6">
      <g>
       <use xlink:href="#mf2c8d75b31" x="246.694751" y="295.344" style="stroke: #000000; stroke-width: 0.8"/>
      </g>
     </g>
     <g id="text_3">
      <!-- 400 -->
      <g transform="translate(239.059751 308.42275) scale(0.08 -0.08)">
       <defs>
        <path id="DejaVuSans-34" d="M 2419 4116 
L 825 1625 
L 2419 1625 
L 2419 4116 
z
M 2253 4666 
L 3047 4666 
L 3047 1625 
L 3713 1625 
L 3713 1100 
L 3047 1100 
L 3047 0 
L 2419 0 
L 2419 1100 
L 313 1100 
L 313 1709 
L 2253 4666 
z
" transform="scale(0.015625)"/>
       </defs>
       <use xlink:href="#DejaVuSans-34"/>
       <use xlink:href="#DejaVuSans-30" transform="translate(63.623047 0)"/>
       <use xlink:href="#DejaVuSans-30" transform="translate(127.246094 0)"/>
      </g>
     </g>
    </g>
    <g id="xtick_4">
     <g id="line2d_7">
      <path d="M 339.995325 295.344 
L 339.995325 7.2 
" clip-path="url(#p12587d30a3)" style="fill: none; stroke: #999999; stroke-opacity: 0.3; stroke-width: 0.5; stroke-linecap: square"/>
     </g>
     <g id="line2d_8">
      <g>
       <use xlink:href="#mf2c8d75b31" x="339.995325" y="295.344" style="stroke: #000000; stroke-width: 0.8"/>
      </g>
     </g>
     <g id="text_4">
      <!-- 600 -->
      <g transform="translate(332.360325 308.42275) scale(0.08 -0.08)">
       <defs>
        <path id="DejaVuSans-36" d="M 2113 2584 
Q 1688 2584 1439 2293 
Q 1191 2003 1191 1497 
Q 1191 994 1439 701 
Q 1688 409 2113 409 
Q 2538 409 2786 701 
Q 3034 994 3034 1497 
Q 3034 2003 2786 2293 
Q 2538 2584 2113 2584 
z
M 3366 4563 
L 3366 3988 
Q 3128 4100 2886 4159 
Q 2644 4219 2406 4219 
Q 1781 4219 1451 3797 
Q 1122 3375 1075 2522 
Q 1259 2794 1537 2939 
Q 1816 3084 2150 3084 
Q 2853 3084 3261 2657 
Q 3669 2231 3669 1497 
Q 3669 778 3244 343 
Q 2819 -91 2113 -91 
Q 1303 -91 875 529 
Q 447 1150 447 2328 
Q 447 3434 972 4092 
Q 1497 4750 2381 4750 
Q 2619 4750 2861 4703 
Q 3103 4656 3366 4563 
z
" transform="scale(0.015625)"/>
       </defs>
       <use xlink:href="#DejaVuSans-36"/>
       <use xlink:href="#DejaVuSans-30" transform="translate(63.623047 0)"/>
       <use xlink:href="#DejaVuSans-30" transform="translate(127.246094 0)"/>
      </g>
     </g>
    </g>
    <g id="xtick_5">
     <g id="line2d_9">
      <path d="M 433.295898 295.344 
L 433.295898 7.2 
" clip-path="url(#p12587d30a3)" style="fill: none; stroke: #999999; stroke-opacity: 0.3; stroke-width: 0.5; stroke-linecap: square"/>
     </g>
     <g id="line2d_10">
      <g>
       <use xlink:href="#mf2c8d75b31" x="433.295898" y="295.344" style="stroke: #000000; stroke-width: 0.8"/>
      </g>
     </g>
     <g id="text_5">
      <!-- 800 -->
      <g transform="translate(425.660898 308.42275) scale(0.08 -0.08)">
       <defs>
        <path id="DejaVuSans-38" d="M 2034 2216 
Q 1584 2216 1326 1975 
Q 1069 1734 1069 1313 
Q 1069 891 1326 650 
Q 1584 409 2034 409 
Q 2484 409 2743 651 
Q 3003 894 3003 1313 
Q 3003 1734 2745 1975 
Q 2488 2216 2034 2216 
z
M 1403 2484 
Q 997 2584 770 2862 
Q 544 3141 544 3541 
Q 544 4100 942 4425 
Q 1341 4750 2034 4750 
Q 2731 4750 3128 4425 
Q 3525 4100 3525 3541 
Q 3525 3141 3298 2862 
Q 3072 2584 2669 2484 
Q 3125 2378 3379 2068 
Q 3634 1759 3634 1313 
Q 3634 634 3220 271 
Q 2806 -91 2034 -91 
Q 1263 -91 848 271 
Q 434 634 434 1313 
Q 434 1759 690 2068 
Q 947 2378 1403 2484 
z
M 1172 3481 
Q 1172 3119 1398 2916 
Q 1625 2713 2034 2713 
Q 2441 2713 2670 2916 
Q 2900 3119 2900 3481 
Q 2900 3844 2670 4047 
Q 2441 4250 2034 4250 
Q 1625 4250 1398 4047 
Q 1172 3844 1172 3481 
z
" transform="scale(0.015625)"/>
       </defs>
       <use xlink:href="#DejaVuSans-38"/>
       <use xlink:href="#DejaVuSans-30" transform="translate(63.623047 0)"/>
       <use xlink:href="#DejaVuSans-30" transform="translate(127.246094 0)"/>
      </g>
     </g>
    </g>
    <g id="xtick_6">
     <g id="line2d_11">
      <path d="M 526.596471 295.344 
L 526.596471 7.2 
" clip-path="url(#p12587d30a3)" style="fill: none; stroke: #999999; stroke-opacity: 0.3; stroke-width: 0.5; stroke-linecap: square"/>
     </g>
     <g id="line2d_12">
      <g>
       <use xlink:href="#mf2c8d75b31" x="526.596471" y="295.344" style="stroke: #000000; stroke-width: 0.8"/>
      </g>
     </g>
     <g id="text_6">
      <!-- 1000 -->
      <g transform="translate(516.416471 308.42275) scale(0.08 -0.08)">
       <defs>
        <path id="DejaVuSans-31" d="M 794 531 
L 1825 531 
L 1825 4091 
L 703 3866 
L 703 4441 
L 1819 4666 
L 2450 4666 
L 2450 531 
L 3481 531 
L 3481 0 
L 794 0 
L 794 531 
z
" transform="scale(0.015625)"/>
       </defs>
       <use xlink:href="#DejaVuSans-31"/>
       <use xlink:href="#DejaVuSans-30" transform="translate(63.623047 0)"/>
       <use xlink:href="#DejaVuSans-30" transform="translate(127.246094 0)"/>
       <use xlink:href="#DejaVuSans-30" transform="translate(190.869141 0)"/>
      </g>
     </g>
    </g>
    <g id="xtick_7">
     <g id="line2d_13">
      <path d="M 83.418748 295.344 
L 83.418748 7.2 
" clip-path="url(#p12587d30a3)" style="fill: none; stroke: #bbbbbb; stroke-opacity: 0.15; stroke-width: 0.3; stroke-linecap: square"/>
     </g>
     <g id="line2d_14">
      <defs>
       <path id="m3bf0384798" d="M 0 0 
L 0 2 
" style="stroke: #000000; stroke-width: 0.6"/>
      </defs>
      <g>
       <use xlink:href="#m3bf0384798" x="83.418748" y="295.344" style="stroke: #000000; stroke-width: 0.6"/>
      </g>
     </g>
    </g>
    <g id="xtick_8">
     <g id="line2d_15">
      <path d="M 106.743892 295.344 
L 106.743892 7.2 
" clip-path="url(#p12587d30a3)" style="fill: none; stroke: #bbbbbb; stroke-opacity: 0.15; stroke-width: 0.3; stroke-linecap: square"/>
     </g>
     <g id="line2d_16">
      <g>
       <use xlink:href="#m3bf0384798" x="106.743892" y="295.344" style="stroke: #000000; stroke-width: 0.6"/>
      </g>
     </g>
    </g>
    <g id="xtick_9">
     <g id="line2d_17">
      <path d="M 130.069035 295.344 
L 130.069035 7.2 
" clip-path="url(#p12587d30a3)" style="fill: none; stroke: #bbbbbb; stroke-opacity: 0.15; stroke-width: 0.3; stroke-linecap: square"/>
     </g>
     <g id="line2d_18">
      <g>
       <use xlink:href="#m3bf0384798" x="130.069035" y="295.344" style="stroke: #000000; stroke-width: 0.6"/>
      </g>
     </g>
    </g>
    <g id="xtick_10">
     <g id="line2d_19">
      <path d="M 176.719322 295.344 
L 176.719322 7.2 
" clip-path="url(#p12587d30a3)" style="fill: none; stroke: #bbbbbb; stroke-opacity: 0.15; stroke-width: 0.3; stroke-linecap: square"/>
     </g>
     <g id="line2d_20">
      <g>
       <use xlink:href="#m3bf0384798" x="176.719322" y="295.344" style="stroke: #000000; stroke-width: 0.6"/>
      </g>
     </g>
    </g>
    <g id="xtick_11">
     <g id="line2d_21">
      <path d="M 200.044465 295.344 
L 200.044465 7.2 
" clip-path="url(#p12587d30a3)" style="fill: none; stroke: #bbbbbb; stroke-opacity: 0.15; stroke-width: 0.3; stroke-linecap: square"/>
     </g>
     <g id="line2d_22">
      <g>
       <use xlink:href="#m3bf0384798" x="200.044465" y="295.344" style="stroke: #000000; stroke-width: 0.6"/>
      </g>
     </g>
    </g>
    <g id="xtick_12">
     <g id="line2d_23">
      <path d="M 223.369608 295.344 
L 223.369608 7.2 
" clip-path="url(#p12587d30a3)" style="fill: none; stroke: #bbbbbb; stroke-opacity: 0.15; stroke-width: 0.3; stroke-linecap: square"/>
     </g>
     <g id="line2d_24">
      <g>
       <use xlink:href="#m3bf0384798" x="223.369608" y="295.344" style="stroke: #000000; stroke-width: 0.6"/>
      </g>
     </g>
    </g>
    <g id="xtick_13">
     <g id="line2d_25">
      <path d="M 270.019895 295.344 
L 270.019895 7.2 
" clip-path="url(#p12587d30a3)" style="fill: none; stroke: #bbbbbb; stroke-opacity: 0.15; stroke-width: 0.3; stroke-linecap: square"/>
     </g>
     <g id="line2d_26">
      <g>
       <use xlink:href="#m3bf0384798" x="270.019895" y="295.344" style="stroke: #000000; stroke-width: 0.6"/>
      </g>
     </g>
    </g>
    <g id="xtick_14">
     <g id="line2d_27">
      <path d="M 293.345038 295.344 
L 293.345038 7.2 
" clip-path="url(#p12587d30a3)" style="fill: none; stroke: #bbbbbb; stroke-opacity: 0.15; stroke-width: 0.3; stroke-linecap: square"/>
     </g>
     <g id="line2d_28">
      <g>
       <use xlink:href="#m3bf0384798" x="293.345038" y="295.344" style="stroke: #000000; stroke-width: 0.6"/>
      </g>
     </g>
    </g>
    <g id="xtick_15">
     <g id="line2d_29">
      <path d="M 316.670181 295.344 
L 316.670181 7.2 
" clip-path="url(#p12587d30a3)" style="fill: none; stroke: #bbbbbb; stroke-opacity: 0.15; stroke-width: 0.3; stroke-linecap: square"/>
     </g>
     <g id="line2d_30">
      <g>
       <use xlink:href="#m3bf0384798" x="316.670181" y="295.344" style="stroke: #000000; stroke-width: 0.6"/>
      </g>
     </g>
    </g>
    <g id="xtick_16">
     <g id="line2d_31">
      <path d="M 363.320468 295.344 
L 363.320468 7.2 
" clip-path="url(#p12587d30a3)" style="fill: none; stroke: #bbbbbb; stroke-opacity: 0.15; stroke-width: 0.3; stroke-linecap: square"/>
     </g>
     <g id="line2d_32">
      <g>
       <use xlink:href="#m3bf0384798" x="363.320468" y="295.344" style="stroke: #000000; stroke-width: 0.6"/>
      </g>
     </g>
    </g>
    <g id="xtick_17">
     <g id="line2d_33">
      <path d="M 386.645611 295.344 
L 386.645611 7.2 
" clip-path="url(#p12587d30a3)" style="fill: none; stroke: #bbbbbb; stroke-opacity: 0.15; stroke-width: 0.3; stroke-linecap: square"/>
     </g>
     <g id="line2d_34">
      <g>
       <use xlink:href="#m3bf0384798" x="386.645611" y="295.344" style="stroke: #000000; stroke-width: 0.6"/>
      </g>
     </g>
    </g>
    <g id="xtick_18">
     <g id="line2d_35">
      <path d="M 409.970755 295.344 
L 409.970755 7.2 
" clip-path="url(#p12587d30a3)" style="fill: none; stroke: #bbbbbb; stroke-opacity: 0.15; stroke-width: 0.3; stroke-linecap: square"/>
     </g>
     <g id="line2d_36">
      <g>
       <use xlink:href="#m3bf0384798" x="409.970755" y="295.344" style="stroke: #000000; stroke-width: 0.6"/>
      </g>
     </g>
    </g>
    <g id="xtick_19">
     <g id="line2d_37">
      <path d="M 456.621041 295.344 
L 456.621041 7.2 
" clip-path="url(#p12587d30a3)" style="fill: none; stroke: #bbbbbb; stroke-opacity: 0.15; stroke-width: 0.3; stroke-linecap: square"/>
     </g>
     <g id="line2d_38">
      <g>
       <use xlink:href="#m3bf0384798" x="456.621041" y="295.344" style="stroke: #000000; stroke-width: 0.6"/>
      </g>
     </g>
    </g>
    <g id="xtick_20">
     <g id="line2d_39">
      <path d="M 479.946185 295.344 
L 479.946185 7.2 
" clip-path="url(#p12587d30a3)" style="fill: none; stroke: #bbbbbb; stroke-opacity: 0.15; stroke-width: 0.3; stroke-linecap: square"/>
     </g>
     <g id="line2d_40">
      <g>
       <use xlink:href="#m3bf0384798" x="479.946185" y="295.344" style="stroke: #000000; stroke-width: 0.6"/>
      </g>
     </g>
    </g>
    <g id="xtick_21">
     <g id="line2d_41">
      <path d="M 503.271328 295.344 
L 503.271328 7.2 
" clip-path="url(#p12587d30a3)" style="fill: none; stroke: #bbbbbb; stroke-opacity: 0.15; stroke-width: 0.3; stroke-linecap: square"/>
     </g>
     <g id="line2d_42">
      <g>
       <use xlink:href="#m3bf0384798" x="503.271328" y="295.344" style="stroke: #000000; stroke-width: 0.6"/>
      </g>
     </g>
    </g>
    <g id="xtick_22">
     <g id="line2d_43">
      <path d="M 549.921615 295.344 
L 549.921615 7.2 
" clip-path="url(#p12587d30a3)" style="fill: none; stroke: #bbbbbb; stroke-opacity: 0.15; stroke-width: 0.3; stroke-linecap: square"/>
     </g>
     <g id="line2d_44">
      <g>
       <use xlink:href="#m3bf0384798" x="549.921615" y="295.344" style="stroke: #000000; stroke-width: 0.6"/>
      </g>
     </g>
    </g>
    <g id="text_7">
     <!-- training step -->
     <g transform="translate(268.713516 320.925094) scale(0.09 -0.09)">
      <defs>
       <path id="DejaVuSans-74" d="M 1172 4494 
L 1172 3500 
L 2356 3500 
L 2356 3053 
L 1172 3053 
L 1172 1153 
Q 1172 725 1289 603 
Q 1406 481 1766 481 
L 2356 481 
L 2356 0 
L 1766 0 
Q 1100 0 847 248 
Q 594 497 594 1153 
L 594 3053 
L 172 3053 
L 172 3500 
L 594 3500 
L 594 4494 
L 1172 4494 
z
" transform="scale(0.015625)"/>
       <path id="DejaVuSans-72" d="M 2631 2963 
Q 2534 3019 2420 3045 
Q 2306 3072 2169 3072 
Q 1681 3072 1420 2755 
Q 1159 2438 1159 1844 
L 1159 0 
L 581 0 
L 581 3500 
L 1159 3500 
L 1159 2956 
Q 1341 3275 1631 3429 
Q 1922 3584 2338 3584 
Q 2397 3584 2469 3576 
Q 2541 3569 2628 3553 
L 2631 2963 
z
" transform="scale(0.015625)"/>
       <path id="DejaVuSans-61" d="M 2194 1759 
Q 1497 1759 1228 1600 
Q 959 1441 959 1056 
Q 959 750 1161 570 
Q 1363 391 1709 391 
Q 2188 391 2477 730 
Q 2766 1069 2766 1631 
L 2766 1759 
L 2194 1759 
z
M 3341 1997 
L 3341 0 
L 2766 0 
L 2766 531 
Q 2569 213 2275 61 
Q 1981 -91 1556 -91 
Q 1019 -91 701 211 
Q 384 513 384 1019 
Q 384 1609 779 1909 
Q 1175 2209 1959 2209 
L 2766 2209 
L 2766 2266 
Q 2766 2663 2505 2880 
Q 2244 3097 1772 3097 
Q 1472 3097 1187 3025 
Q 903 2953 641 2809 
L 641 3341 
Q 956 3463 1253 3523 
Q 1550 3584 1831 3584 
Q 2591 3584 2966 3190 
Q 3341 2797 3341 1997 
z
" transform="scale(0.015625)"/>
       <path id="DejaVuSans-69" d="M 603 3500 
L 1178 3500 
L 1178 0 
L 603 0 
L 603 3500 
z
M 603 4863 
L 1178 4863 
L 1178 4134 
L 603 4134 
L 603 4863 
z
" transform="scale(0.015625)"/>
       <path id="DejaVuSans-6e" d="M 3513 2113 
L 3513 0 
L 2938 0 
L 2938 2094 
Q 2938 2591 2744 2837 
Q 2550 3084 2163 3084 
Q 1697 3084 1428 2787 
Q 1159 2491 1159 1978 
L 1159 0 
L 581 0 
L 581 3500 
L 1159 3500 
L 1159 2956 
Q 1366 3272 1645 3428 
Q 1925 3584 2291 3584 
Q 2894 3584 3203 3211 
Q 3513 2838 3513 2113 
z
" transform="scale(0.015625)"/>
       <path id="DejaVuSans-67" d="M 2906 1791 
Q 2906 2416 2648 2759 
Q 2391 3103 1925 3103 
Q 1463 3103 1205 2759 
Q 947 2416 947 1791 
Q 947 1169 1205 825 
Q 1463 481 1925 481 
Q 2391 481 2648 825 
Q 2906 1169 2906 1791 
z
M 3481 434 
Q 3481 -459 3084 -895 
Q 2688 -1331 1869 -1331 
Q 1566 -1331 1297 -1286 
Q 1028 -1241 775 -1147 
L 775 -588 
Q 1028 -725 1275 -790 
Q 1522 -856 1778 -856 
Q 2344 -856 2625 -561 
Q 2906 -266 2906 331 
L 2906 616 
Q 2728 306 2450 153 
Q 2172 0 1784 0 
Q 1141 0 747 490 
Q 353 981 353 1791 
Q 353 2603 747 3093 
Q 1141 3584 1784 3584 
Q 2172 3584 2450 3431 
Q 2728 3278 2906 2969 
L 2906 3500 
L 3481 3500 
L 3481 434 
z
" transform="scale(0.015625)"/>
       <path id="DejaVuSans-20" transform="scale(0.015625)"/>
       <path id="DejaVuSans-73" d="M 2834 3397 
L 2834 2853 
Q 2591 2978 2328 3040 
Q 2066 3103 1784 3103 
Q 1356 3103 1142 2972 
Q 928 2841 928 2578 
Q 928 2378 1081 2264 
Q 1234 2150 1697 2047 
L 1894 2003 
Q 2506 1872 2764 1633 
Q 3022 1394 3022 966 
Q 3022 478 2636 193 
Q 2250 -91 1575 -91 
Q 1294 -91 989 -36 
Q 684 19 347 128 
L 347 722 
Q 666 556 975 473 
Q 1284 391 1588 391 
Q 1994 391 2212 530 
Q 2431 669 2431 922 
Q 2431 1156 2273 1281 
Q 2116 1406 1581 1522 
L 1381 1569 
Q 847 1681 609 1914 
Q 372 2147 372 2553 
Q 372 3047 722 3315 
Q 1072 3584 1716 3584 
Q 2034 3584 2315 3537 
Q 2597 3491 2834 3397 
z
" transform="scale(0.015625)"/>
       <path id="DejaVuSans-65" d="M 3597 1894 
L 3597 1613 
L 953 1613 
Q 991 1019 1311 708 
Q 1631 397 2203 397 
Q 2534 397 2845 478 
Q 3156 559 3463 722 
L 3463 178 
Q 3153 47 2828 -22 
Q 2503 -91 2169 -91 
Q 1331 -91 842 396 
Q 353 884 353 1716 
Q 353 2575 817 3079 
Q 1281 3584 2069 3584 
Q 2775 3584 3186 3129 
Q 3597 2675 3597 1894 
z
M 3022 2063 
Q 3016 2534 2758 2815 
Q 2500 3097 2075 3097 
Q 1594 3097 1305 2825 
Q 1016 2553 972 2059 
L 3022 2063 
z
" transform="scale(0.015625)"/>
       <path id="DejaVuSans-70" d="M 1159 525 
L 1159 -1331 
L 581 -1331 
L 581 3500 
L 1159 3500 
L 1159 2969 
Q 1341 3281 1617 3432 
Q 1894 3584 2278 3584 
Q 2916 3584 3314 3078 
Q 3713 2572 3713 1747 
Q 3713 922 3314 415 
Q 2916 -91 2278 -91 
Q 1894 -91 1617 61 
Q 1341 213 1159 525 
z
M 3116 1747 
Q 3116 2381 2855 2742 
Q 2594 3103 2138 3103 
Q 1681 3103 1420 2742 
Q 1159 2381 1159 1747 
Q 1159 1113 1420 752 
Q 1681 391 2138 391 
Q 2594 391 2855 752 
Q 3116 1113 3116 1747 
z
" transform="scale(0.015625)"/>
      </defs>
      <use xlink:href="#DejaVuSans-74"/>
      <use xlink:href="#DejaVuSans-72" transform="translate(39.208984 0)"/>
      <use xlink:href="#DejaVuSans-61" transform="translate(80.322266 0)"/>
      <use xlink:href="#DejaVuSans-69" transform="translate(141.601562 0)"/>
      <use xlink:href="#DejaVuSans-6e" transform="translate(169.384766 0)"/>
      <use xlink:href="#DejaVuSans-69" transform="translate(232.763672 0)"/>
      <use xlink:href="#DejaVuSans-6e" transform="translate(260.546875 0)"/>
      <use xlink:href="#DejaVuSans-67" transform="translate(323.925781 0)"/>
      <use xlink:href="#DejaVuSans-20" transform="translate(387.402344 0)"/>
      <use xlink:href="#DejaVuSans-73" transform="translate(419.189453 0)"/>
      <use xlink:href="#DejaVuSans-74" transform="translate(471.289062 0)"/>
      <use xlink:href="#DejaVuSans-65" transform="translate(510.498047 0)"/>
      <use xlink:href="#DejaVuSans-70" transform="translate(572.021484 0)"/>
     </g>
    </g>
   </g>
   <g id="matplotlib.axis_2">
    <g id="ytick_1">
     <g id="line2d_45">
      <path d="M 40.990313 62.575386 
L 553.630313 62.575386 
" clip-path="url(#p12587d30a3)" style="fill: none; stroke: #999999; stroke-opacity: 0.3; stroke-width: 0.5; stroke-linecap: square"/>
     </g>
     <g id="line2d_46">
      <defs>
       <path id="m43f2d1310c" d="M 0 0 
L -3.5 0 
" style="stroke: #000000; stroke-width: 0.8"/>
      </defs>
      <g>
       <use xlink:href="#m43f2d1310c" x="40.990313" y="62.575386" style="stroke: #000000; stroke-width: 0.8"/>
      </g>
     </g>
     <g id="text_8">
      <!-- $\mathdefault{10^{3}}$ -->
      <g transform="translate(19.910313 65.614761) scale(0.08 -0.08)">
       <defs>
        <path id="DejaVuSans-33" d="M 2597 2516 
Q 3050 2419 3304 2112 
Q 3559 1806 3559 1356 
Q 3559 666 3084 287 
Q 2609 -91 1734 -91 
Q 1441 -91 1130 -33 
Q 819 25 488 141 
L 488 750 
Q 750 597 1062 519 
Q 1375 441 1716 441 
Q 2309 441 2620 675 
Q 2931 909 2931 1356 
Q 2931 1769 2642 2001 
Q 2353 2234 1838 2234 
L 1294 2234 
L 1294 2753 
L 1863 2753 
Q 2328 2753 2575 2939 
Q 2822 3125 2822 3475 
Q 2822 3834 2567 4026 
Q 2313 4219 1838 4219 
Q 1578 4219 1281 4162 
Q 984 4106 628 3988 
L 628 4550 
Q 988 4650 1302 4700 
Q 1616 4750 1894 4750 
Q 2613 4750 3031 4423 
Q 3450 4097 3450 3541 
Q 3450 3153 3228 2886 
Q 3006 2619 2597 2516 
z
" transform="scale(0.015625)"/>
       </defs>
       <use xlink:href="#DejaVuSans-31" transform="translate(0 0.765625)"/>
       <use xlink:href="#DejaVuSans-30" transform="translate(63.623047 0.765625)"/>
       <use xlink:href="#DejaVuSans-33" transform="translate(128.203125 39.046875) scale(0.7)"/>
      </g>
     </g>
    </g>
    <g id="ytick_2">
     <g id="line2d_47">
      <path d="M 40.990313 235.420222 
L 553.630313 235.420222 
" clip-path="url(#p12587d30a3)" style="fill: none; stroke: #bbbbbb; stroke-opacity: 0.15; stroke-width: 0.3; stroke-linecap: square"/>
     </g>
     <g id="line2d_48">
      <defs>
       <path id="m47c6896748" d="M 0 0 
L -2 0 
" style="stroke: #000000; stroke-width: 0.6"/>
      </defs>
      <g>
       <use xlink:href="#m47c6896748" x="40.990313" y="235.420222" style="stroke: #000000; stroke-width: 0.6"/>
      </g>
     </g>
    </g>
    <g id="ytick_3">
     <g id="line2d_49">
      <path d="M 40.990313 191.875485 
L 553.630313 191.875485 
" clip-path="url(#p12587d30a3)" style="fill: none; stroke: #bbbbbb; stroke-opacity: 0.15; stroke-width: 0.3; stroke-linecap: square"/>
     </g>
     <g id="line2d_50">
      <g>
       <use xlink:href="#m47c6896748" x="40.990313" y="191.875485" style="stroke: #000000; stroke-width: 0.6"/>
      </g>
     </g>
    </g>
    <g id="ytick_4">
     <g id="line2d_51">
      <path d="M 40.990313 160.980003 
L 553.630313 160.980003 
" clip-path="url(#p12587d30a3)" style="fill: none; stroke: #bbbbbb; stroke-opacity: 0.15; stroke-width: 0.3; stroke-linecap: square"/>
     </g>
     <g id="line2d_52">
      <g>
       <use xlink:href="#m47c6896748" x="40.990313" y="160.980003" style="stroke: #000000; stroke-width: 0.6"/>
      </g>
     </g>
    </g>
    <g id="ytick_5">
     <g id="line2d_53">
      <path d="M 40.990313 137.015605 
L 553.630313 137.015605 
" clip-path="url(#p12587d30a3)" style="fill: none; stroke: #bbbbbb; stroke-opacity: 0.15; stroke-width: 0.3; stroke-linecap: square"/>
     </g>
     <g id="line2d_54">
      <g>
       <use xlink:href="#m47c6896748" x="40.990313" y="137.015605" style="stroke: #000000; stroke-width: 0.6"/>
      </g>
     </g>
    </g>
    <g id="ytick_6">
     <g id="line2d_55">
      <path d="M 40.990313 117.435266 
L 553.630313 117.435266 
" clip-path="url(#p12587d30a3)" style="fill: none; stroke: #bbbbbb; stroke-opacity: 0.15; stroke-width: 0.3; stroke-linecap: square"/>
     </g>
     <g id="line2d_56">
      <g>
       <use xlink:href="#m47c6896748" x="40.990313" y="117.435266" style="stroke: #000000; stroke-width: 0.6"/>
      </g>
     </g>
    </g>
    <g id="ytick_7">
     <g id="line2d_57">
      <path d="M 40.990313 100.880326 
L 553.630313 100.880326 
" clip-path="url(#p12587d30a3)" style="fill: none; stroke: #bbbbbb; stroke-opacity: 0.15; stroke-width: 0.3; stroke-linecap: square"/>
     </g>
     <g id="line2d_58">
      <g>
       <use xlink:href="#m47c6896748" x="40.990313" y="100.880326" style="stroke: #000000; stroke-width: 0.6"/>
      </g>
     </g>
    </g>
    <g id="ytick_8">
     <g id="line2d_59">
      <path d="M 40.990313 86.539784 
L 553.630313 86.539784 
" clip-path="url(#p12587d30a3)" style="fill: none; stroke: #bbbbbb; stroke-opacity: 0.15; stroke-width: 0.3; stroke-linecap: square"/>
     </g>
     <g id="line2d_60">
      <g>
       <use xlink:href="#m47c6896748" x="40.990313" y="86.539784" style="stroke: #000000; stroke-width: 0.6"/>
      </g>
     </g>
    </g>
    <g id="ytick_9">
     <g id="line2d_61">
      <path d="M 40.990313 73.89053 
L 553.630313 73.89053 
" clip-path="url(#p12587d30a3)" style="fill: none; stroke: #bbbbbb; stroke-opacity: 0.15; stroke-width: 0.3; stroke-linecap: square"/>
     </g>
     <g id="line2d_62">
      <g>
       <use xlink:href="#m47c6896748" x="40.990313" y="73.89053" style="stroke: #000000; stroke-width: 0.6"/>
      </g>
     </g>
    </g>
    <g id="text_9">
     <!-- absolute val MSE (log scale) -->
     <g transform="translate(14.038594 214.560984) rotate(-90) scale(0.09 -0.09)">
      <defs>
       <path id="DejaVuSans-62" d="M 3116 1747 
Q 3116 2381 2855 2742 
Q 2594 3103 2138 3103 
Q 1681 3103 1420 2742 
Q 1159 2381 1159 1747 
Q 1159 1113 1420 752 
Q 1681 391 2138 391 
Q 2594 391 2855 752 
Q 3116 1113 3116 1747 
z
M 1159 2969 
Q 1341 3281 1617 3432 
Q 1894 3584 2278 3584 
Q 2916 3584 3314 3078 
Q 3713 2572 3713 1747 
Q 3713 922 3314 415 
Q 2916 -91 2278 -91 
Q 1894 -91 1617 61 
Q 1341 213 1159 525 
L 1159 0 
L 581 0 
L 581 4863 
L 1159 4863 
L 1159 2969 
z
" transform="scale(0.015625)"/>
       <path id="DejaVuSans-6f" d="M 1959 3097 
Q 1497 3097 1228 2736 
Q 959 2375 959 1747 
Q 959 1119 1226 758 
Q 1494 397 1959 397 
Q 2419 397 2687 759 
Q 2956 1122 2956 1747 
Q 2956 2369 2687 2733 
Q 2419 3097 1959 3097 
z
M 1959 3584 
Q 2709 3584 3137 3096 
Q 3566 2609 3566 1747 
Q 3566 888 3137 398 
Q 2709 -91 1959 -91 
Q 1206 -91 779 398 
Q 353 888 353 1747 
Q 353 2609 779 3096 
Q 1206 3584 1959 3584 
z
" transform="scale(0.015625)"/>
       <path id="DejaVuSans-6c" d="M 603 4863 
L 1178 4863 
L 1178 0 
L 603 0 
L 603 4863 
z
" transform="scale(0.015625)"/>
       <path id="DejaVuSans-75" d="M 544 1381 
L 544 3500 
L 1119 3500 
L 1119 1403 
Q 1119 906 1312 657 
Q 1506 409 1894 409 
Q 2359 409 2629 706 
Q 2900 1003 2900 1516 
L 2900 3500 
L 3475 3500 
L 3475 0 
L 2900 0 
L 2900 538 
Q 2691 219 2414 64 
Q 2138 -91 1772 -91 
Q 1169 -91 856 284 
Q 544 659 544 1381 
z
M 1991 3584 
L 1991 3584 
z
" transform="scale(0.015625)"/>
       <path id="DejaVuSans-76" d="M 191 3500 
L 800 3500 
L 1894 563 
L 2988 3500 
L 3597 3500 
L 2284 0 
L 1503 0 
L 191 3500 
z
" transform="scale(0.015625)"/>
       <path id="DejaVuSans-4d" d="M 628 4666 
L 1569 4666 
L 2759 1491 
L 3956 4666 
L 4897 4666 
L 4897 0 
L 4281 0 
L 4281 4097 
L 3078 897 
L 2444 897 
L 1241 4097 
L 1241 0 
L 628 0 
L 628 4666 
z
" transform="scale(0.015625)"/>
       <path id="DejaVuSans-53" d="M 3425 4513 
L 3425 3897 
Q 3066 4069 2747 4153 
Q 2428 4238 2131 4238 
Q 1616 4238 1336 4038 
Q 1056 3838 1056 3469 
Q 1056 3159 1242 3001 
Q 1428 2844 1947 2747 
L 2328 2669 
Q 3034 2534 3370 2195 
Q 3706 1856 3706 1288 
Q 3706 609 3251 259 
Q 2797 -91 1919 -91 
Q 1588 -91 1214 -16 
Q 841 59 441 206 
L 441 856 
Q 825 641 1194 531 
Q 1563 422 1919 422 
Q 2459 422 2753 634 
Q 3047 847 3047 1241 
Q 3047 1584 2836 1778 
Q 2625 1972 2144 2069 
L 1759 2144 
Q 1053 2284 737 2584 
Q 422 2884 422 3419 
Q 422 4038 858 4394 
Q 1294 4750 2059 4750 
Q 2388 4750 2728 4690 
Q 3069 4631 3425 4513 
z
" transform="scale(0.015625)"/>
       <path id="DejaVuSans-45" d="M 628 4666 
L 3578 4666 
L 3578 4134 
L 1259 4134 
L 1259 2753 
L 3481 2753 
L 3481 2222 
L 1259 2222 
L 1259 531 
L 3634 531 
L 3634 0 
L 628 0 
L 628 4666 
z
" transform="scale(0.015625)"/>
       <path id="DejaVuSans-28" d="M 1984 4856 
Q 1566 4138 1362 3434 
Q 1159 2731 1159 2009 
Q 1159 1288 1364 580 
Q 1569 -128 1984 -844 
L 1484 -844 
Q 1016 -109 783 600 
Q 550 1309 550 2009 
Q 550 2706 781 3412 
Q 1013 4119 1484 4856 
L 1984 4856 
z
" transform="scale(0.015625)"/>
       <path id="DejaVuSans-63" d="M 3122 3366 
L 3122 2828 
Q 2878 2963 2633 3030 
Q 2388 3097 2138 3097 
Q 1578 3097 1268 2742 
Q 959 2388 959 1747 
Q 959 1106 1268 751 
Q 1578 397 2138 397 
Q 2388 397 2633 464 
Q 2878 531 3122 666 
L 3122 134 
Q 2881 22 2623 -34 
Q 2366 -91 2075 -91 
Q 1284 -91 818 406 
Q 353 903 353 1747 
Q 353 2603 823 3093 
Q 1294 3584 2113 3584 
Q 2378 3584 2631 3529 
Q 2884 3475 3122 3366 
z
" transform="scale(0.015625)"/>
       <path id="DejaVuSans-29" d="M 513 4856 
L 1013 4856 
Q 1481 4119 1714 3412 
Q 1947 2706 1947 2009 
Q 1947 1309 1714 600 
Q 1481 -109 1013 -844 
L 513 -844 
Q 928 -128 1133 580 
Q 1338 1288 1338 2009 
Q 1338 2731 1133 3434 
Q 928 4138 513 4856 
z
" transform="scale(0.015625)"/>
      </defs>
      <use xlink:href="#DejaVuSans-61"/>
      <use xlink:href="#DejaVuSans-62" transform="translate(61.279297 0)"/>
      <use xlink:href="#DejaVuSans-73" transform="translate(124.755859 0)"/>
      <use xlink:href="#DejaVuSans-6f" transform="translate(176.855469 0)"/>
      <use xlink:href="#DejaVuSans-6c" transform="translate(238.037109 0)"/>
      <use xlink:href="#DejaVuSans-75" transform="translate(265.820312 0)"/>
      <use xlink:href="#DejaVuSans-74" transform="translate(329.199219 0)"/>
      <use xlink:href="#DejaVuSans-65" transform="translate(368.408203 0)"/>
      <use xlink:href="#DejaVuSans-20" transform="translate(429.931641 0)"/>
      <use xlink:href="#DejaVuSans-76" transform="translate(461.71875 0)"/>
      <use xlink:href="#DejaVuSans-61" transform="translate(520.898438 0)"/>
      <use xlink:href="#DejaVuSans-6c" transform="translate(582.177734 0)"/>
      <use xlink:href="#DejaVuSans-20" transform="translate(609.960938 0)"/>
      <use xlink:href="#DejaVuSans-4d" transform="translate(641.748047 0)"/>
      <use xlink:href="#DejaVuSans-53" transform="translate(728.027344 0)"/>
      <use xlink:href="#DejaVuSans-45" transform="translate(791.503906 0)"/>
      <use xlink:href="#DejaVuSans-20" transform="translate(854.6875 0)"/>
      <use xlink:href="#DejaVuSans-28" transform="translate(886.474609 0)"/>
      <use xlink:href="#DejaVuSans-6c" transform="translate(925.488281 0)"/>
      <use xlink:href="#DejaVuSans-6f" transform="translate(953.271484 0)"/>
      <use xlink:href="#DejaVuSans-67" transform="translate(1014.453125 0)"/>
      <use xlink:href="#DejaVuSans-20" transform="translate(1077.929688 0)"/>
      <use xlink:href="#DejaVuSans-73" transform="translate(1109.716797 0)"/>
      <use xlink:href="#DejaVuSans-63" transform="translate(1161.816406 0)"/>
      <use xlink:href="#DejaVuSans-61" transform="translate(1216.796875 0)"/>
      <use xlink:href="#DejaVuSans-6c" transform="translate(1278.076172 0)"/>
      <use xlink:href="#DejaVuSans-65" transform="translate(1305.859375 0)"/>
      <use xlink:href="#DejaVuSans-29" transform="translate(1367.382812 0)"/>
     </g>
    </g>
   </g>
   <g id="line2d_63">
    <path d="M 64.292131 203.52364 
L 68.490656 203.528161 
L 72.689182 203.53326 
L 76.887708 203.5683 
L 81.086234 203.696399 
L 85.28476 204.028249 
L 89.483285 204.593669 
L 93.681811 205.356413 
L 97.880337 206.35357 
L 102.078863 207.631387 
L 106.277389 209.190107 
L 110.475914 211.090571 
L 114.67444 213.368965 
L 118.872966 215.969758 
L 123.071492 218.786013 
L 127.270018 221.800763 
L 131.468543 225.019122 
L 135.667069 228.563728 
L 139.865595 232.728692 
L 144.064121 238.05997 
L 148.262647 244.899275 
L 152.461172 252.267591 
L 156.659698 258.084775 
L 160.858224 260.720014 
L 165.05675 261.809394 
L 169.255276 262.768614 
L 173.453801 263.732356 
L 177.652327 264.688921 
L 181.850853 265.55765 
L 186.049379 266.261223 
L 190.247905 266.802919 
L 194.44643 267.141803 
L 198.644956 267.333191 
L 202.843482 267.412236 
L 207.042008 267.431699 
L 211.240534 267.457467 
L 215.439059 267.447979 
L 219.637585 267.454458 
L 223.836111 267.449421 
L 228.034637 267.454672 
L 232.233163 267.434593 
L 236.431688 267.453919 
L 240.630214 267.458308 
L 244.82874 267.462956 
L 249.027266 267.456761 
L 253.225792 267.458144 
L 257.424317 267.459734 
L 261.622843 267.461575 
L 265.821369 267.451564 
L 270.019895 267.465323 
L 274.218421 267.465314 
L 278.416946 267.443695 
L 282.615472 267.466917 
L 286.813998 267.454457 
L 291.012524 267.463469 
L 295.21105 267.460818 
L 299.409575 267.459877 
L 303.608101 267.458871 
L 307.806627 267.454441 
L 312.005153 267.46707 
L 316.203679 267.45886 
L 320.402204 267.459367 
L 324.60073 267.467544 
L 328.799256 267.465461 
L 332.997782 267.465597 
L 337.196308 267.465071 
L 341.394833 267.460211 
L 345.593359 267.460869 
L 349.791885 267.458776 
L 353.990411 267.466177 
L 358.188937 267.469453 
L 362.387462 267.466937 
L 366.585988 267.460546 
L 370.784514 267.463715 
L 374.98304 267.468214 
L 379.181566 267.459865 
L 383.380091 267.467678 
L 387.578617 267.468721 
L 391.777143 267.471772 
L 395.975669 267.467264 
L 400.174195 267.472908 
L 404.37272 267.467496 
L 408.571246 267.468915 
L 412.769772 267.467626 
L 416.968298 267.468882 
L 421.166824 267.465576 
L 425.365349 267.466029 
L 429.563875 267.470214 
L 433.762401 267.471155 
L 437.960927 267.468889 
L 442.159453 267.472151 
L 446.357978 267.46841 
L 450.556504 267.471533 
L 454.75503 267.471452 
L 458.953556 267.471199 
L 463.152082 267.470867 
L 467.350607 267.471575 
L 471.549133 267.471051 
L 475.747659 267.471533 
L 479.946185 267.471405 
L 484.144711 267.471133 
L 488.343236 267.472484 
L 492.541762 267.472829 
L 496.740288 267.473097 
L 500.938814 267.471824 
L 505.13734 267.471202 
L 509.335865 267.472432 
L 513.534391 267.472041 
L 517.732917 267.4722 
L 521.931443 267.470861 
L 526.129969 267.472587 
L 530.328494 267.471466 
" clip-path="url(#p12587d30a3)" style="fill: none; stroke: #0072b2; stroke-opacity: 0.9; stroke-width: 1.6; stroke-linecap: square"/>
   </g>
   <g id="line2d_64">
    <path d="M 64.292131 260.362881 
L 68.490656 260.374253 
L 72.689182 260.39431 
L 76.887708 260.475963 
L 81.086234 260.672173 
L 85.28476 261.054117 
L 89.483285 261.655744 
L 93.681811 262.431469 
L 97.880337 263.515995 
L 102.078863 264.993939 
L 106.277389 266.959558 
L 110.475914 269.453881 
L 114.67444 272.187895 
L 118.872966 274.898495 
L 123.071492 277.126823 
L 127.270018 278.830081 
L 131.468543 280.226371 
L 135.667069 281.287287 
L 139.865595 281.884687 
L 144.064121 282.11148 
L 148.262647 282.180266 
L 152.461172 282.223085 
L 156.659698 282.223869 
L 160.858224 282.230094 
L 165.05675 282.228384 
L 169.255276 282.184868 
L 173.453801 282.185945 
L 177.652327 282.240115 
L 181.850853 282.225782 
L 186.049379 282.236032 
L 190.247905 282.230853 
L 194.44643 282.235644 
L 198.644956 282.237971 
L 202.843482 282.218845 
L 207.042008 282.231057 
L 211.240534 282.233121 
L 215.439059 282.23349 
L 219.637585 282.232103 
L 223.836111 282.235736 
L 228.034637 282.236117 
L 232.233163 282.239167 
L 236.431688 282.235453 
L 240.630214 282.229865 
L 244.82874 282.239946 
L 249.027266 282.239335 
L 253.225792 282.234678 
L 257.424317 282.235844 
L 261.622843 282.238989 
L 265.821369 282.229983 
L 270.019895 282.237175 
L 274.218421 282.236027 
L 278.416946 282.234074 
L 282.615472 282.235522 
L 286.813998 282.241934 
L 291.012524 282.236563 
L 295.21105 282.22544 
L 299.409575 282.240514 
L 303.608101 282.237362 
L 307.806627 282.238665 
L 312.005153 282.239193 
L 316.203679 282.242999 
L 320.402204 282.225699 
L 324.60073 282.238592 
L 328.799256 282.240332 
L 332.997782 282.23958 
L 337.196308 282.245186 
L 341.394833 282.2434 
L 345.593359 282.244559 
L 349.791885 282.223842 
L 353.990411 282.23828 
L 358.188937 282.228464 
L 362.387462 282.240097 
L 366.585988 282.238823 
L 370.784514 282.22943 
L 374.98304 282.243158 
L 379.181566 282.238608 
L 383.380091 282.24147 
L 387.578617 282.242306 
L 391.777143 282.241301 
L 395.975669 282.242988 
L 400.174195 282.243152 
L 404.37272 282.243183 
L 408.571246 282.239088 
L 412.769772 282.246545 
L 416.968298 282.242493 
L 421.166824 282.245764 
L 425.365349 282.243575 
L 429.563875 282.241567 
L 433.762401 282.245912 
L 437.960927 282.243644 
L 442.159453 282.242657 
L 446.357978 282.244766 
L 450.556504 282.242838 
L 454.75503 282.246223 
L 458.953556 282.237556 
L 463.152082 282.242361 
L 467.350607 282.244967 
L 471.549133 282.242787 
L 475.747659 282.244897 
L 479.946185 282.245585 
L 484.144711 282.24499 
L 488.343236 282.24223 
L 492.541762 282.245541 
L 496.740288 282.245059 
L 500.938814 282.245441 
L 505.13734 282.242412 
L 509.335865 282.24486 
L 513.534391 282.243957 
L 517.732917 282.244436 
L 521.931443 282.245181 
L 526.129969 282.242071 
L 530.328494 282.245634 
" clip-path="url(#p12587d30a3)" style="fill: none; stroke: #d55e00; stroke-opacity: 0.9; stroke-width: 1.6; stroke-linecap: square"/>
   </g>
   <g id="line2d_65">
    <path d="M 64.292131 20.297455 
L 68.490656 43.665876 
L 72.689182 72.516764 
L 76.887708 111.466593 
L 81.086234 173.918439 
L 85.28476 250.484546 
L 89.483285 271.635872 
L 93.681811 275.845456 
L 97.880337 281.221027 
L 102.078863 281.703264 
L 106.277389 282.019576 
L 110.475914 281.999892 
L 114.67444 282.1009 
L 118.872966 282.037173 
L 123.071492 282.051231 
L 127.270018 282.067735 
L 131.468543 282.155283 
L 135.667069 282.152484 
L 139.865595 282.176035 
L 144.064121 282.14836 
L 148.262647 282.177015 
L 152.461172 282.17808 
L 156.659698 282.178551 
L 160.858224 282.174775 
L 165.05675 282.159334 
L 169.255276 282.172512 
L 173.453801 282.182517 
L 177.652327 282.172147 
L 181.850853 282.196039 
L 186.049379 282.167776 
L 190.247905 282.181545 
L 194.44643 282.192047 
L 198.644956 282.193954 
L 202.843482 282.201281 
L 207.042008 282.198695 
L 211.240534 282.202248 
L 215.439059 282.206283 
L 219.637585 282.166467 
L 223.836111 282.206599 
L 228.034637 282.201455 
L 232.233163 282.212448 
L 236.431688 282.209903 
L 240.630214 282.20391 
L 244.82874 282.210812 
L 249.027266 282.218368 
L 253.225792 282.206823 
L 257.424317 282.217498 
L 261.622843 282.216088 
L 265.821369 282.217168 
L 270.019895 282.209161 
L 274.218421 282.215819 
L 278.416946 282.213137 
L 282.615472 282.221877 
L 286.813998 282.215162 
L 291.012524 282.226262 
L 295.21105 282.223319 
L 299.409575 282.228862 
L 303.608101 282.224623 
L 307.806627 282.229147 
L 312.005153 282.221426 
L 316.203679 282.229707 
L 320.402204 282.226177 
L 324.60073 282.230266 
L 328.799256 282.229993 
L 332.997782 282.234513 
L 337.196308 282.231887 
L 341.394833 282.23587 
L 345.593359 282.233531 
L 349.791885 282.236709 
L 353.990411 282.234637 
L 358.188937 282.226333 
L 362.387462 282.236221 
L 366.585988 282.233078 
L 370.784514 282.237862 
L 374.98304 282.237528 
L 379.181566 282.237317 
L 383.380091 282.241288 
L 387.578617 282.240875 
L 391.777143 282.240284 
L 395.975669 282.23869 
L 400.174195 282.238828 
L 404.37272 282.241655 
L 408.571246 282.239005 
L 412.769772 282.244075 
L 416.968298 282.240881 
L 421.166824 282.242584 
L 425.365349 282.239912 
L 429.563875 282.239332 
L 433.762401 282.243235 
L 437.960927 282.243069 
L 442.159453 282.239678 
L 446.357978 282.240029 
L 450.556504 282.239603 
L 454.75503 282.243712 
L 458.953556 282.23712 
L 463.152082 282.242601 
L 467.350607 282.242587 
L 471.549133 282.242864 
L 475.747659 282.243288 
L 479.946185 282.243849 
L 484.144711 282.244004 
L 488.343236 282.242594 
L 492.541762 282.244043 
L 496.740288 282.244457 
L 500.938814 282.243712 
L 505.13734 282.242661 
L 509.335865 282.242261 
L 513.534391 282.243283 
L 517.732917 282.242122 
L 521.931443 282.244136 
L 526.129969 282.241505 
L 530.328494 282.245088 
" clip-path="url(#p12587d30a3)" style="fill: none; stroke: #009e73; stroke-opacity: 0.9; stroke-width: 1.6; stroke-linecap: square"/>
   </g>
   <g id="patch_3">
    <path d="M 40.990313 295.344 
L 40.990313 7.2 
" style="fill: none; stroke: #000000; stroke-width: 0.8; stroke-linejoin: miter; stroke-linecap: square"/>
   </g>
   <g id="patch_4">
    <path d="M 40.990313 295.344 
L 553.630313 295.344 
" style="fill: none; stroke: #000000; stroke-width: 0.8; stroke-linejoin: miter; stroke-linecap: square"/>
   </g>
   <g id="line2d_66">
    <path d="M 64.292131 203.52364 
L 97.880337 206.35357 
L 131.468543 225.019122 
L 165.05675 261.809394 
L 198.644956 267.333191 
L 232.233163 267.434593 
L 265.821369 267.451564 
L 299.409575 267.459877 
L 332.997782 267.465597 
L 366.585988 267.460546 
L 400.174195 267.472908 
L 433.762401 267.471155 
L 467.350607 267.471575 
L 500.938814 267.471824 
L 530.328494 267.471466 
" clip-path="url(#p12587d30a3)" style="fill: none"/>
    <defs>
     <path id="md70544c325" d="M 0 2.5 
C 0.663008 2.5 1.29895 2.236584 1.767767 1.767767 
C 2.236584 1.29895 2.5 0.663008 2.5 0 
C 2.5 -0.663008 2.236584 -1.29895 1.767767 -1.767767 
C 1.29895 -2.236584 0.663008 -2.5 0 -2.5 
C -0.663008 -2.5 -1.29895 -2.236584 -1.767767 -1.767767 
C -2.236584 -1.29895 -2.5 -0.663008 -2.5 0 
C -2.5 0.663008 -2.236584 1.29895 -1.767767 1.767767 
C -1.29895 2.236584 -0.663008 2.5 0 2.5 
z
" style="stroke: #0072b2"/>
    </defs>
    <g clip-path="url(#p12587d30a3)">
     <use xlink:href="#md70544c325" x="64.292131" y="203.52364" style="fill: #0072b2; stroke: #0072b2"/>
     <use xlink:href="#md70544c325" x="97.880337" y="206.35357" style="fill: #0072b2; stroke: #0072b2"/>
     <use xlink:href="#md70544c325" x="131.468543" y="225.019122" style="fill: #0072b2; stroke: #0072b2"/>
     <use xlink:href="#md70544c325" x="165.05675" y="261.809394" style="fill: #0072b2; stroke: #0072b2"/>
     <use xlink:href="#md70544c325" x="198.644956" y="267.333191" style="fill: #0072b2; stroke: #0072b2"/>
     <use xlink:href="#md70544c325" x="232.233163" y="267.434593" style="fill: #0072b2; stroke: #0072b2"/>
     <use xlink:href="#md70544c325" x="265.821369" y="267.451564" style="fill: #0072b2; stroke: #0072b2"/>
     <use xlink:href="#md70544c325" x="299.409575" y="267.459877" style="fill: #0072b2; stroke: #0072b2"/>
     <use xlink:href="#md70544c325" x="332.997782" y="267.465597" style="fill: #0072b2; stroke: #0072b2"/>
     <use xlink:href="#md70544c325" x="366.585988" y="267.460546" style="fill: #0072b2; stroke: #0072b2"/>
     <use xlink:href="#md70544c325" x="400.174195" y="267.472908" style="fill: #0072b2; stroke: #0072b2"/>
     <use xlink:href="#md70544c325" x="433.762401" y="267.471155" style="fill: #0072b2; stroke: #0072b2"/>
     <use xlink:href="#md70544c325" x="467.350607" y="267.471575" style="fill: #0072b2; stroke: #0072b2"/>
     <use xlink:href="#md70544c325" x="500.938814" y="267.471824" style="fill: #0072b2; stroke: #0072b2"/>
     <use xlink:href="#md70544c325" x="530.328494" y="267.471466" style="fill: #0072b2; stroke: #0072b2"/>
    </g>
   </g>
   <g id="line2d_67">
    <path d="M 64.292131 260.362881 
L 97.880337 263.515995 
L 131.468543 280.226371 
L 165.05675 282.228384 
L 198.644956 282.237971 
L 232.233163 282.239167 
L 265.821369 282.229983 
L 299.409575 282.240514 
L 332.997782 282.23958 
L 366.585988 282.238823 
L 400.174195 282.243152 
L 433.762401 282.245912 
L 467.350607 282.244967 
L 500.938814 282.245441 
L 530.328494 282.245634 
" clip-path="url(#p12587d30a3)" style="fill: none"/>
    <defs>
     <path id="mc9fff1dd36" d="M -2.5 2.5 
L 2.5 2.5 
L 2.5 -2.5 
L -2.5 -2.5 
z
" style="stroke: #d55e00; stroke-linejoin: miter"/>
    </defs>
    <g clip-path="url(#p12587d30a3)">
     <use xlink:href="#mc9fff1dd36" x="64.292131" y="260.362881" style="fill: #d55e00; stroke: #d55e00; stroke-linejoin: miter"/>
     <use xlink:href="#mc9fff1dd36" x="97.880337" y="263.515995" style="fill: #d55e00; stroke: #d55e00; stroke-linejoin: miter"/>
     <use xlink:href="#mc9fff1dd36" x="131.468543" y="280.226371" style="fill: #d55e00; stroke: #d55e00; stroke-linejoin: miter"/>
     <use xlink:href="#mc9fff1dd36" x="165.05675" y="282.228384" style="fill: #d55e00; stroke: #d55e00; stroke-linejoin: miter"/>
     <use xlink:href="#mc9fff1dd36" x="198.644956" y="282.237971" style="fill: #d55e00; stroke: #d55e00; stroke-linejoin: miter"/>
     <use xlink:href="#mc9fff1dd36" x="232.233163" y="282.239167" style="fill: #d55e00; stroke: #d55e00; stroke-linejoin: miter"/>
     <use xlink:href="#mc9fff1dd36" x="265.821369" y="282.229983" style="fill: #d55e00; stroke: #d55e00; stroke-linejoin: miter"/>
     <use xlink:href="#mc9fff1dd36" x="299.409575" y="282.240514" style="fill: #d55e00; stroke: #d55e00; stroke-linejoin: miter"/>
     <use xlink:href="#mc9fff1dd36" x="332.997782" y="282.23958" style="fill: #d55e00; stroke: #d55e00; stroke-linejoin: miter"/>
     <use xlink:href="#mc9fff1dd36" x="366.585988" y="282.238823" style="fill: #d55e00; stroke: #d55e00; stroke-linejoin: miter"/>
     <use xlink:href="#mc9fff1dd36" x="400.174195" y="282.243152" style="fill: #d55e00; stroke: #d55e00; stroke-linejoin: miter"/>
     <use xlink:href="#mc9fff1dd36" x="433.762401" y="282.245912" style="fill: #d55e00; stroke: #d55e00; stroke-linejoin: miter"/>
     <use xlink:href="#mc9fff1dd36" x="467.350607" y="282.244967" style="fill: #d55e00; stroke: #d55e00; stroke-linejoin: miter"/>
     <use xlink:href="#mc9fff1dd36" x="500.938814" y="282.245441" style="fill: #d55e00; stroke: #d55e00; stroke-linejoin: miter"/>
     <use xlink:href="#mc9fff1dd36" x="530.328494" y="282.245634" style="fill: #d55e00; stroke: #d55e00; stroke-linejoin: miter"/>
    </g>
   </g>
   <g id="line2d_68">
    <path d="M 64.292131 20.297455 
L 97.880337 281.221027 
L 131.468543 282.155283 
L 165.05675 282.159334 
L 198.644956 282.193954 
L 232.233163 282.212448 
L 265.821369 282.217168 
L 299.409575 282.228862 
L 332.997782 282.234513 
L 366.585988 282.233078 
L 400.174195 282.238828 
L 433.762401 282.243235 
L 467.350607 282.242587 
L 500.938814 282.243712 
L 530.328494 282.245088 
" clip-path="url(#p12587d30a3)" style="fill: none"/>
    <defs>
     <path id="m7b9b73ae54" d="M 0 -2.5 
L -2.5 2.5 
L 2.5 2.5 
z
" style="stroke: #009e73; stroke-linejoin: miter"/>
    </defs>
    <g clip-path="url(#p12587d30a3)">
     <use xlink:href="#m7b9b73ae54" x="64.292131" y="20.297455" style="fill: #009e73; stroke: #009e73; stroke-linejoin: miter"/>
     <use xlink:href="#m7b9b73ae54" x="97.880337" y="281.221027" style="fill: #009e73; stroke: #009e73; stroke-linejoin: miter"/>
     <use xlink:href="#m7b9b73ae54" x="131.468543" y="282.155283" style="fill: #009e73; stroke: #009e73; stroke-linejoin: miter"/>
     <use xlink:href="#m7b9b73ae54" x="165.05675" y="282.159334" style="fill: #009e73; stroke: #009e73; stroke-linejoin: miter"/>
     <use xlink:href="#m7b9b73ae54" x="198.644956" y="282.193954" style="fill: #009e73; stroke: #009e73; stroke-linejoin: miter"/>
     <use xlink:href="#m7b9b73ae54" x="232.233163" y="282.212448" style="fill: #009e73; stroke: #009e73; stroke-linejoin: miter"/>
     <use xlink:href="#m7b9b73ae54" x="265.821369" y="282.217168" style="fill: #009e73; stroke: #009e73; stroke-linejoin: miter"/>
     <use xlink:href="#m7b9b73ae54" x="299.409575" y="282.228862" style="fill: #009e73; stroke: #009e73; stroke-linejoin: miter"/>
     <use xlink:href="#m7b9b73ae54" x="332.997782" y="282.234513" style="fill: #009e73; stroke: #009e73; stroke-linejoin: miter"/>
     <use xlink:href="#m7b9b73ae54" x="366.585988" y="282.233078" style="fill: #009e73; stroke: #009e73; stroke-linejoin: miter"/>
     <use xlink:href="#m7b9b73ae54" x="400.174195" y="282.238828" style="fill: #009e73; stroke: #009e73; stroke-linejoin: miter"/>
     <use xlink:href="#m7b9b73ae54" x="433.762401" y="282.243235" style="fill: #009e73; stroke: #009e73; stroke-linejoin: miter"/>
     <use xlink:href="#m7b9b73ae54" x="467.350607" y="282.242587" style="fill: #009e73; stroke: #009e73; stroke-linejoin: miter"/>
     <use xlink:href="#m7b9b73ae54" x="500.938814" y="282.243712" style="fill: #009e73; stroke: #009e73; stroke-linejoin: miter"/>
     <use xlink:href="#m7b9b73ae54" x="530.328494" y="282.245088" style="fill: #009e73; stroke: #009e73; stroke-linejoin: miter"/>
    </g>
   </g>
   <g id="legend_1">
    <g id="patch_5">
     <path d="M 389.407813 50.2325 
L 548.030313 50.2325 
Q 549.630313 50.2325 549.630313 48.6325 
L 549.630313 12.8 
Q 549.630313 11.2 548.030313 11.2 
L 389.407813 11.2 
Q 387.807813 11.2 387.807813 12.8 
L 387.807813 48.6325 
Q 387.807813 50.2325 389.407813 50.2325 
z
" style="fill: #ffffff; opacity: 0.85; stroke: #cccccc; stroke-linejoin: miter"/>
    </g>
    <g id="line2d_69">
     <path d="M 391.007813 17.99875 
L 400.607813 17.99875 
L 410.207813 17.99875 
" style="fill: none; stroke: #0072b2; stroke-opacity: 0.9; stroke-width: 1.6; stroke-linecap: square"/>
    </g>
    <g id="text_10">
     <!-- `qft` (random init) -->
     <g transform="translate(416.607813 20.79875) scale(0.08 -0.08)">
      <defs>
       <path id="DejaVuSans-60" d="M 1147 5119 
L 2028 3950 
L 1550 3950 
L 531 5119 
L 1147 5119 
z
" transform="scale(0.015625)"/>
       <path id="DejaVuSans-71" d="M 947 1747 
Q 947 1113 1208 752 
Q 1469 391 1925 391 
Q 2381 391 2643 752 
Q 2906 1113 2906 1747 
Q 2906 2381 2643 2742 
Q 2381 3103 1925 3103 
Q 1469 3103 1208 2742 
Q 947 2381 947 1747 
z
M 2906 525 
Q 2725 213 2448 61 
Q 2172 -91 1784 -91 
Q 1150 -91 751 415 
Q 353 922 353 1747 
Q 353 2572 751 3078 
Q 1150 3584 1784 3584 
Q 2172 3584 2448 3432 
Q 2725 3281 2906 2969 
L 2906 3500 
L 3481 3500 
L 3481 -1331 
L 2906 -1331 
L 2906 525 
z
" transform="scale(0.015625)"/>
       <path id="DejaVuSans-66" d="M 2375 4863 
L 2375 4384 
L 1825 4384 
Q 1516 4384 1395 4259 
Q 1275 4134 1275 3809 
L 1275 3500 
L 2222 3500 
L 2222 3053 
L 1275 3053 
L 1275 0 
L 697 0 
L 697 3053 
L 147 3053 
L 147 3500 
L 697 3500 
L 697 3744 
Q 697 4328 969 4595 
Q 1241 4863 1831 4863 
L 2375 4863 
z
" transform="scale(0.015625)"/>
       <path id="DejaVuSans-64" d="M 2906 2969 
L 2906 4863 
L 3481 4863 
L 3481 0 
L 2906 0 
L 2906 525 
Q 2725 213 2448 61 
Q 2172 -91 1784 -91 
Q 1150 -91 751 415 
Q 353 922 353 1747 
Q 353 2572 751 3078 
Q 1150 3584 1784 3584 
Q 2172 3584 2448 3432 
Q 2725 3281 2906 2969 
z
M 947 1747 
Q 947 1113 1208 752 
Q 1469 391 1925 391 
Q 2381 391 2643 752 
Q 2906 1113 2906 1747 
Q 2906 2381 2643 2742 
Q 2381 3103 1925 3103 
Q 1469 3103 1208 2742 
Q 947 2381 947 1747 
z
" transform="scale(0.015625)"/>
       <path id="DejaVuSans-6d" d="M 3328 2828 
Q 3544 3216 3844 3400 
Q 4144 3584 4550 3584 
Q 5097 3584 5394 3201 
Q 5691 2819 5691 2113 
L 5691 0 
L 5113 0 
L 5113 2094 
Q 5113 2597 4934 2840 
Q 4756 3084 4391 3084 
Q 3944 3084 3684 2787 
Q 3425 2491 3425 1978 
L 3425 0 
L 2847 0 
L 2847 2094 
Q 2847 2600 2669 2842 
Q 2491 3084 2119 3084 
Q 1678 3084 1418 2786 
Q 1159 2488 1159 1978 
L 1159 0 
L 581 0 
L 581 3500 
L 1159 3500 
L 1159 2956 
Q 1356 3278 1631 3431 
Q 1906 3584 2284 3584 
Q 2666 3584 2933 3390 
Q 3200 3197 3328 2828 
z
" transform="scale(0.015625)"/>
      </defs>
      <use xlink:href="#DejaVuSans-60"/>
      <use xlink:href="#DejaVuSans-71" transform="translate(50 0)"/>
      <use xlink:href="#DejaVuSans-66" transform="translate(113.476562 0)"/>
      <use xlink:href="#DejaVuSans-74" transform="translate(146.931641 0)"/>
      <use xlink:href="#DejaVuSans-60" transform="translate(186.140625 0)"/>
      <use xlink:href="#DejaVuSans-20" transform="translate(236.140625 0)"/>
      <use xlink:href="#DejaVuSans-28" transform="translate(267.927734 0)"/>
      <use xlink:href="#DejaVuSans-72" transform="translate(306.941406 0)"/>
      <use xlink:href="#DejaVuSans-61" transform="translate(348.054688 0)"/>
      <use xlink:href="#DejaVuSans-6e" transform="translate(409.333984 0)"/>
      <use xlink:href="#DejaVuSans-64" transform="translate(472.712891 0)"/>
      <use xlink:href="#DejaVuSans-6f" transform="translate(536.189453 0)"/>
      <use xlink:href="#DejaVuSans-6d" transform="translate(597.371094 0)"/>
      <use xlink:href="#DejaVuSans-20" transform="translate(694.783203 0)"/>
      <use xlink:href="#DejaVuSans-69" transform="translate(726.570312 0)"/>
      <use xlink:href="#DejaVuSans-6e" transform="translate(754.353516 0)"/>
      <use xlink:href="#DejaVuSans-69" transform="translate(817.732422 0)"/>
      <use xlink:href="#DejaVuSans-74" transform="translate(845.515625 0)"/>
      <use xlink:href="#DejaVuSans-29" transform="translate(884.724609 0)"/>
     </g>
    </g>
    <g id="line2d_70">
     <path d="M 391.007813 30.06125 
L 400.607813 30.06125 
L 410.207813 30.06125 
" style="fill: none; stroke: #d55e00; stroke-opacity: 0.9; stroke-width: 1.6; stroke-linecap: square"/>
    </g>
    <g id="text_11">
     <!-- `blocked_8` (warm-start source) -->
     <g transform="translate(416.607813 32.86125) scale(0.08 -0.08)">
      <defs>
       <path id="DejaVuSans-6b" d="M 581 4863 
L 1159 4863 
L 1159 1991 
L 2875 3500 
L 3609 3500 
L 1753 1863 
L 3688 0 
L 2938 0 
L 1159 1709 
L 1159 0 
L 581 0 
L 581 4863 
z
" transform="scale(0.015625)"/>
       <path id="DejaVuSans-5f" d="M 3263 -1063 
L 3263 -1509 
L -63 -1509 
L -63 -1063 
L 3263 -1063 
z
" transform="scale(0.015625)"/>
       <path id="DejaVuSans-77" d="M 269 3500 
L 844 3500 
L 1563 769 
L 2278 3500 
L 2956 3500 
L 3675 769 
L 4391 3500 
L 4966 3500 
L 4050 0 
L 3372 0 
L 2619 2869 
L 1863 0 
L 1184 0 
L 269 3500 
z
" transform="scale(0.015625)"/>
       <path id="DejaVuSans-2d" d="M 313 2009 
L 1997 2009 
L 1997 1497 
L 313 1497 
L 313 2009 
z
" transform="scale(0.015625)"/>
      </defs>
      <use xlink:href="#DejaVuSans-60"/>
      <use xlink:href="#DejaVuSans-62" transform="translate(50 0)"/>
      <use xlink:href="#DejaVuSans-6c" transform="translate(113.476562 0)"/>
      <use xlink:href="#DejaVuSans-6f" transform="translate(141.259766 0)"/>
      <use xlink:href="#DejaVuSans-63" transform="translate(202.441406 0)"/>
      <use xlink:href="#DejaVuSans-6b" transform="translate(257.421875 0)"/>
      <use xlink:href="#DejaVuSans-65" transform="translate(311.707031 0)"/>
      <use xlink:href="#DejaVuSans-64" transform="translate(373.230469 0)"/>
      <use xlink:href="#DejaVuSans-5f" transform="translate(436.707031 0)"/>
      <use xlink:href="#DejaVuSans-38" transform="translate(486.707031 0)"/>
      <use xlink:href="#DejaVuSans-60" transform="translate(550.330078 0)"/>
      <use xlink:href="#DejaVuSans-20" transform="translate(600.330078 0)"/>
      <use xlink:href="#DejaVuSans-28" transform="translate(632.117188 0)"/>
      <use xlink:href="#DejaVuSans-77" transform="translate(671.130859 0)"/>
      <use xlink:href="#DejaVuSans-61" transform="translate(752.917969 0)"/>
      <use xlink:href="#DejaVuSans-72" transform="translate(814.197266 0)"/>
      <use xlink:href="#DejaVuSans-6d" transform="translate(853.560547 0)"/>
      <use xlink:href="#DejaVuSans-2d" transform="translate(950.972656 0)"/>
      <use xlink:href="#DejaVuSans-73" transform="translate(987.056641 0)"/>
      <use xlink:href="#DejaVuSans-74" transform="translate(1039.15625 0)"/>
      <use xlink:href="#DejaVuSans-61" transform="translate(1078.365234 0)"/>
      <use xlink:href="#DejaVuSans-72" transform="translate(1139.644531 0)"/>
      <use xlink:href="#DejaVuSans-74" transform="translate(1180.757812 0)"/>
      <use xlink:href="#DejaVuSans-20" transform="translate(1219.966797 0)"/>
      <use xlink:href="#DejaVuSans-73" transform="translate(1251.753906 0)"/>
      <use xlink:href="#DejaVuSans-6f" transform="translate(1303.853516 0)"/>
      <use xlink:href="#DejaVuSans-75" transform="translate(1365.035156 0)"/>
      <use xlink:href="#DejaVuSans-72" transform="translate(1428.414062 0)"/>
      <use xlink:href="#DejaVuSans-63" transform="translate(1467.277344 0)"/>
      <use xlink:href="#DejaVuSans-65" transform="translate(1522.257812 0)"/>
      <use xlink:href="#DejaVuSans-29" transform="translate(1583.78125 0)"/>
     </g>
    </g>
    <g id="line2d_71">
     <path d="M 391.007813 42.34625 
L 400.607813 42.34625 
L 410.207813 42.34625 
" style="fill: none; stroke: #009e73; stroke-opacity: 0.9; stroke-width: 1.6; stroke-linecap: square"/>
    </g>
    <g id="text_12">
     <!-- `qft_warmstart_blocked_8` -->
     <g transform="translate(416.607813 45.14625) scale(0.08 -0.08)">
      <use xlink:href="#DejaVuSans-60"/>
      <use xlink:href="#DejaVuSans-71" transform="translate(50 0)"/>
      <use xlink:href="#DejaVuSans-66" transform="translate(113.476562 0)"/>
      <use xlink:href="#DejaVuSans-74" transform="translate(146.931641 0)"/>
      <use xlink:href="#DejaVuSans-5f" transform="translate(186.140625 0)"/>
      <use xlink:href="#DejaVuSans-77" transform="translate(236.140625 0)"/>
      <use xlink:href="#DejaVuSans-61" transform="translate(317.927734 0)"/>
      <use xlink:href="#DejaVuSans-72" transform="translate(379.207031 0)"/>
      <use xlink:href="#DejaVuSans-6d" transform="translate(418.570312 0)"/>
      <use xlink:href="#DejaVuSans-73" transform="translate(515.982422 0)"/>
      <use xlink:href="#DejaVuSans-74" transform="translate(568.082031 0)"/>
      <use xlink:href="#DejaVuSans-61" transform="translate(607.291016 0)"/>
      <use xlink:href="#DejaVuSans-72" transform="translate(668.570312 0)"/>
      <use xlink:href="#DejaVuSans-74" transform="translate(709.683594 0)"/>
      <use xlink:href="#DejaVuSans-5f" transform="translate(748.892578 0)"/>
      <use xlink:href="#DejaVuSans-62" transform="translate(798.892578 0)"/>
      <use xlink:href="#DejaVuSans-6c" transform="translate(862.369141 0)"/>
      <use xlink:href="#DejaVuSans-6f" transform="translate(890.152344 0)"/>
      <use xlink:href="#DejaVuSans-63" transform="translate(951.333984 0)"/>
      <use xlink:href="#DejaVuSans-6b" transform="translate(1006.314453 0)"/>
      <use xlink:href="#DejaVuSans-65" transform="translate(1060.599609 0)"/>
      <use xlink:href="#DejaVuSans-64" transform="translate(1122.123047 0)"/>
      <use xlink:href="#DejaVuSans-5f" transform="translate(1185.599609 0)"/>
      <use xlink:href="#DejaVuSans-38" transform="translate(1235.599609 0)"/>
      <use xlink:href="#DejaVuSans-60" transform="translate(1299.222656 0)"/>
     </g>
    </g>
   </g>
  </g>
 </g>
 <defs>
  <clipPath id="p12587d30a3">
   <rect x="40.990313" y="7.2" width="512.64" height="288.144"/>
  </clipPath>
 </defs>
</svg>
