<?xml version="1.0" encoding="utf-8" standalone="no"?>
<!DOCTYPE svg PUBLIC "-//W3C//DTD SVG 1.1//EN"
  "http://www.w3.org/Graphics/SVG/1.1/DTD/svg11.dtd">
<svg xmlns:xlink="http://www.w3.org/1999/xlink" width="590.950312pt" height="329.996812pt" viewBox="0 0 590.950312 329.996812" xmlns="http://www.w3.org/2000/svg" version="1.1">
 <metadata>
  <rdf:RDF xmlns:dc="http://purl.org/dc/elements/1.1/" xmlns:cc="http://creativecommons.org/ns#" xmlns:rdf="http://www.w3.org/1999/02/22-rdf-syntax-ns#">
   <cc:Work>
    <dc:type rdf:resource="http://purl.org/dc/dcmitype/StillImage"/>
    <dc:date>2026-05-12T09:34:08.195646</dc:date>
    <dc:format>image/svg+xml</dc:format>
    <dc:creator>
     <cc:Agent>
      <dc:title>Matplotlib v3.10.9, https://matplotlib.org/</dc:title>
     </cc:Agent>
    </dc:creator>
   </cc:Work>
  </rdf:RDF>
 </metadata>
 <defs>
  <style type="text/css">*{stroke-linejoin: round; stroke-linecap: butt}</style>
 </defs>
 <g id="figure_1">
  <g id="patch_1">
   <path d="M 0 329.996812 
L 590.950312 329.996812 
L 590.950312 0 
L 0 0 
z
" style="fill: #ffffff"/>
  </g>
  <g id="axes_1">
   <g id="patch_2">
    <path d="M 71.110313 295.344 
L 583.750313 295.344 
L 583.750313 7.2 
L 71.110313 7.2 
z
" style="fill: #ffffff"/>
   </g>
   <g id="matplotlib.axis_1">
    <g id="xtick_1">
     <g id="line2d_1">
      <path d="M 94.412131 295.344 
L 94.412131 7.2 
" clip-path="url(#p2bf5353a0a)" style="fill: none; stroke: #999999; stroke-opacity: 0.3; stroke-width: 0.5; stroke-linecap: square"/>
     </g>
     <g id="line2d_2">
      <defs>
       <path id="mc0de703989" d="M 0 0 
L 0 3.5 
" style="stroke: #000000; stroke-width: 0.8"/>
      </defs>
      <g>
       <use xlink:href="#mc0de703989" x="94.412131" y="295.344" style="stroke: #000000; stroke-width: 0.8"/>
      </g>
     </g>
     <g id="text_1">
      <!-- 0 -->
      <g transform="translate(91.867131 308.42275) scale(0.08 -0.08)">
       <defs>
        <path id="DejaVuSans-30" d="M 2034 4250 
Q 1547 4250 1301 3770 
Q 1056 3291 1056 2328 
Q 1056 1369 1301 889 
Q 1547 409 2034 409 
Q 2525 409 2770 889 
Q 3016 1369 3016 2328 
Q 3016 3291 2770 3770 
Q 2525 4250 2034 4250 
z
M 2034 4750 
Q 2819 4750 3233 4129 
Q 3647 3509 3647 2328 
Q 3647 1150 3233 529 
Q 2819 -91 2034 -91 
Q 1250 -91 836 529 
Q 422 1150 422 2328 
Q 422 3509 836 4129 
Q 1250 4750 2034 4750 
z
" transform="scale(0.015625)"/>
       </defs>
       <use xlink:href="#DejaVuSans-30"/>
      </g>
     </g>
    </g>
    <g id="xtick_2">
     <g id="line2d_3">
      <path d="M 186.879663 295.344 
L 186.879663 7.2 
" clip-path="url(#p2bf5353a0a)" style="fill: none; stroke: #999999; stroke-opacity: 0.3; stroke-width: 0.5; stroke-linecap: square"/>
     </g>
     <g id="line2d_4">
      <g>
       <use xlink:href="#mc0de703989" x="186.879663" y="295.344" style="stroke: #000000; stroke-width: 0.8"/>
      </g>
     </g>
     <g id="text_2">
      <!-- 200 -->
      <g transform="translate(179.244663 308.42275) scale(0.08 -0.08)">
       <defs>
        <path id="DejaVuSans-32" d="M 1228 531 
L 3431 531 
L 3431 0 
L 469 0 
L 469 531 
Q 828 903 1448 1529 
Q 2069 2156 2228 2338 
Q 2531 2678 2651 2914 
Q 2772 3150 2772 3378 
Q 2772 3750 2511 3984 
Q 2250 4219 1831 4219 
Q 1534 4219 1204 4116 
Q 875 4013 500 3803 
L 500 4441 
Q 881 4594 1212 4672 
Q 1544 4750 1819 4750 
Q 2544 4750 2975 4387 
Q 3406 4025 3406 3419 
Q 3406 3131 3298 2873 
Q 3191 2616 2906 2266 
Q 2828 2175 2409 1742 
Q 1991 1309 1228 531 
z
" transform="scale(0.015625)"/>
       </defs>
       <use xlink:href="#DejaVuSans-32"/>
       <use xlink:href="#DejaVuSans-30" transform="translate(63.623047 0)"/>
       <use xlink:href="#DejaVuSans-30" transform="translate(127.246094 0)"/>
      </g>
     </g>
    </g>
    <g id="xtick_3">
     <g id="line2d_5">
      <path d="M 279.347196 295.344 
L 279.347196 7.2 
" clip-path="url(#p2bf5353a0a)" style="fill: none; stroke: #999999; stroke-opacity: 0.3; stroke-width: 0.5; stroke-linecap: square"/>
     </g>
     <g id="line2d_6">
      <g>
       <use xlink:href="#mc0de703989" x="279.347196" y="295.344" style="stroke: #000000; stroke-width: 0.8"/>
      </g>
     </g>
     <g id="text_3">
      <!-- 400 -->
      <g transform="translate(271.712196 308.42275) scale(0.08 -0.08)">
       <defs>
        <path id="DejaVuSans-34" d="M 2419 4116 
L 825 1625 
L 2419 1625 
L 2419 4116 
z
M 2253 4666 
L 3047 4666 
L 3047 1625 
L 3713 1625 
L 3713 1100 
L 3047 1100 
L 3047 0 
L 2419 0 
L 2419 1100 
L 313 1100 
L 313 1709 
L 2253 4666 
z
" transform="scale(0.015625)"/>
       </defs>
       <use xlink:href="#DejaVuSans-34"/>
       <use xlink:href="#DejaVuSans-30" transform="translate(63.623047 0)"/>
       <use xlink:href="#DejaVuSans-30" transform="translate(127.246094 0)"/>
      </g>
     </g>
    </g>
    <g id="xtick_4">
     <g id="line2d_7">
      <path d="M 371.814728 295.344 
L 371.814728 7.2 
" clip-path="url(#p2bf5353a0a)" style="fill: none; stroke: #999999; stroke-opacity: 0.3; stroke-width: 0.5; stroke-linecap: square"/>
     </g>
     <g id="line2d_8">
      <g>
       <use xlink:href="#mc0de703989" x="371.814728" y="295.344" style="stroke: #000000; stroke-width: 0.8"/>
      </g>
     </g>
     <g id="text_4">
      <!-- 600 -->
      <g transform="translate(364.179728 308.42275) scale(0.08 -0.08)">
       <defs>
        <path id="DejaVuSans-36" d="M 2113 2584 
Q 1688 2584 1439 2293 
Q 1191 2003 1191 1497 
Q 1191 994 1439 701 
Q 1688 409 2113 409 
Q 2538 409 2786 701 
Q 3034 994 3034 1497 
Q 3034 2003 2786 2293 
Q 2538 2584 2113 2584 
z
M 3366 4563 
L 3366 3988 
Q 3128 4100 2886 4159 
Q 2644 4219 2406 4219 
Q 1781 4219 1451 3797 
Q 1122 3375 1075 2522 
Q 1259 2794 1537 2939 
Q 1816 3084 2150 3084 
Q 2853 3084 3261 2657 
Q 3669 2231 3669 1497 
Q 3669 778 3244 343 
Q 2819 -91 2113 -91 
Q 1303 -91 875 529 
Q 447 1150 447 2328 
Q 447 3434 972 4092 
Q 1497 4750 2381 4750 
Q 2619 4750 2861 4703 
Q 3103 4656 3366 4563 
z
" transform="scale(0.015625)"/>
       </defs>
       <use xlink:href="#DejaVuSans-36"/>
       <use xlink:href="#DejaVuSans-30" transform="translate(63.623047 0)"/>
       <use xlink:href="#DejaVuSans-30" transform="translate(127.246094 0)"/>
      </g>
     </g>
    </g>
    <g id="xtick_5">
     <g id="line2d_9">
      <path d="M 464.282261 295.344 
L 464.282261 7.2 
" clip-path="url(#p2bf5353a0a)" style="fill: none; stroke: #999999; stroke-opacity: 0.3; stroke-width: 0.5; stroke-linecap: square"/>
     </g>
     <g id="line2d_10">
      <g>
       <use xlink:href="#mc0de703989" x="464.282261" y="295.344" style="stroke: #000000; stroke-width: 0.8"/>
      </g>
     </g>
     <g id="text_5">
      <!-- 800 -->
      <g transform="translate(456.647261 308.42275) scale(0.08 -0.08)">
       <defs>
        <path id="DejaVuSans-38" d="M 2034 2216 
Q 1584 2216 1326 1975 
Q 1069 1734 1069 1313 
Q 1069 891 1326 650 
Q 1584 409 2034 409 
Q 2484 409 2743 651 
Q 3003 894 3003 1313 
Q 3003 1734 2745 1975 
Q 2488 2216 2034 2216 
z
M 1403 2484 
Q 997 2584 770 2862 
Q 544 3141 544 3541 
Q 544 4100 942 4425 
Q 1341 4750 2034 4750 
Q 2731 4750 3128 4425 
Q 3525 4100 3525 3541 
Q 3525 3141 3298 2862 
Q 3072 2584 2669 2484 
Q 3125 2378 3379 2068 
Q 3634 1759 3634 1313 
Q 3634 634 3220 271 
Q 2806 -91 2034 -91 
Q 1263 -91 848 271 
Q 434 634 434 1313 
Q 434 1759 690 2068 
Q 947 2378 1403 2484 
z
M 1172 3481 
Q 1172 3119 1398 2916 
Q 1625 2713 2034 2713 
Q 2441 2713 2670 2916 
Q 2900 3119 2900 3481 
Q 2900 3844 2670 4047 
Q 2441 4250 2034 4250 
Q 1625 4250 1398 4047 
Q 1172 3844 1172 3481 
z
" transform="scale(0.015625)"/>
       </defs>
       <use xlink:href="#DejaVuSans-38"/>
       <use xlink:href="#DejaVuSans-30" transform="translate(63.623047 0)"/>
       <use xlink:href="#DejaVuSans-30" transform="translate(127.246094 0)"/>
      </g>
     </g>
    </g>
    <g id="xtick_6">
     <g id="line2d_11">
      <path d="M 556.749793 295.344 
L 556.749793 7.2 
" clip-path="url(#p2bf5353a0a)" style="fill: none; stroke: #999999; stroke-opacity: 0.3; stroke-width: 0.5; stroke-linecap: square"/>
     </g>
     <g id="line2d_12">
      <g>
       <use xlink:href="#mc0de703989" x="556.749793" y="295.344" style="stroke: #000000; stroke-width: 0.8"/>
      </g>
     </g>
     <g id="text_6">
      <!-- 1000 -->
      <g transform="translate(546.569793 308.42275) scale(0.08 -0.08)">
       <defs>
        <path id="DejaVuSans-31" d="M 794 531 
L 1825 531 
L 1825 4091 
L 703 3866 
L 703 4441 
L 1819 4666 
L 2450 4666 
L 2450 531 
L 3481 531 
L 3481 0 
L 794 0 
L 794 531 
z
" transform="scale(0.015625)"/>
       </defs>
       <use xlink:href="#DejaVuSans-31"/>
       <use xlink:href="#DejaVuSans-30" transform="translate(63.623047 0)"/>
       <use xlink:href="#DejaVuSans-30" transform="translate(127.246094 0)"/>
       <use xlink:href="#DejaVuSans-30" transform="translate(190.869141 0)"/>
      </g>
     </g>
    </g>
    <g id="xtick_7">
     <g id="line2d_13">
      <path d="M 71.295248 295.344 
L 71.295248 7.2 
" clip-path="url(#p2bf5353a0a)" style="fill: none; stroke: #bbbbbb; stroke-opacity: 0.15; stroke-width: 0.3; stroke-linecap: square"/>
     </g>
     <g id="line2d_14">
      <defs>
       <path id="m14f99a3cff" d="M 0 0 
L 0 2 
" style="stroke: #000000; stroke-width: 0.6"/>
      </defs>
      <g>
       <use xlink:href="#m14f99a3cff" x="71.295248" y="295.344" style="stroke: #000000; stroke-width: 0.6"/>
      </g>
     </g>
    </g>
    <g id="xtick_8">
     <g id="line2d_15">
      <path d="M 117.529014 295.344 
L 117.529014 7.2 
" clip-path="url(#p2bf5353a0a)" style="fill: none; stroke: #bbbbbb; stroke-opacity: 0.15; stroke-width: 0.3; stroke-linecap: square"/>
     </g>
     <g id="line2d_16">
      <g>
       <use xlink:href="#m14f99a3cff" x="117.529014" y="295.344" style="stroke: #000000; stroke-width: 0.6"/>
      </g>
     </g>
    </g>
    <g id="xtick_9">
     <g id="line2d_17">
      <path d="M 140.645897 295.344 
L 140.645897 7.2 
" clip-path="url(#p2bf5353a0a)" style="fill: none; stroke: #bbbbbb; stroke-opacity: 0.15; stroke-width: 0.3; stroke-linecap: square"/>
     </g>
     <g id="line2d_18">
      <g>
       <use xlink:href="#m14f99a3cff" x="140.645897" y="295.344" style="stroke: #000000; stroke-width: 0.6"/>
      </g>
     </g>
    </g>
    <g id="xtick_10">
     <g id="line2d_19">
      <path d="M 163.76278 295.344 
L 163.76278 7.2 
" clip-path="url(#p2bf5353a0a)" style="fill: none; stroke: #bbbbbb; stroke-opacity: 0.15; stroke-width: 0.3; stroke-linecap: square"/>
     </g>
     <g id="line2d_20">
      <g>
       <use xlink:href="#m14f99a3cff" x="163.76278" y="295.344" style="stroke: #000000; stroke-width: 0.6"/>
      </g>
     </g>
    </g>
    <g id="xtick_11">
     <g id="line2d_21">
      <path d="M 209.996546 295.344 
L 209.996546 7.2 
" clip-path="url(#p2bf5353a0a)" style="fill: none; stroke: #bbbbbb; stroke-opacity: 0.15; stroke-width: 0.3; stroke-linecap: square"/>
     </g>
     <g id="line2d_22">
      <g>
       <use xlink:href="#m14f99a3cff" x="209.996546" y="295.344" style="stroke: #000000; stroke-width: 0.6"/>
      </g>
     </g>
    </g>
    <g id="xtick_12">
     <g id="line2d_23">
      <path d="M 233.113429 295.344 
L 233.113429 7.2 
" clip-path="url(#p2bf5353a0a)" style="fill: none; stroke: #bbbbbb; stroke-opacity: 0.15; stroke-width: 0.3; stroke-linecap: square"/>
     </g>
     <g id="line2d_24">
      <g>
       <use xlink:href="#m14f99a3cff" x="233.113429" y="295.344" style="stroke: #000000; stroke-width: 0.6"/>
      </g>
     </g>
    </g>
    <g id="xtick_13">
     <g id="line2d_25">
      <path d="M 256.230313 295.344 
L 256.230313 7.2 
" clip-path="url(#p2bf5353a0a)" style="fill: none; stroke: #bbbbbb; stroke-opacity: 0.15; stroke-width: 0.3; stroke-linecap: square"/>
     </g>
     <g id="line2d_26">
      <g>
       <use xlink:href="#m14f99a3cff" x="256.230313" y="295.344" style="stroke: #000000; stroke-width: 0.6"/>
      </g>
     </g>
    </g>
    <g id="xtick_14">
     <g id="line2d_27">
      <path d="M 302.464079 295.344 
L 302.464079 7.2 
" clip-path="url(#p2bf5353a0a)" style="fill: none; stroke: #bbbbbb; stroke-opacity: 0.15; stroke-width: 0.3; stroke-linecap: square"/>
     </g>
     <g id="line2d_28">
      <g>
       <use xlink:href="#m14f99a3cff" x="302.464079" y="295.344" style="stroke: #000000; stroke-width: 0.6"/>
      </g>
     </g>
    </g>
    <g id="xtick_15">
     <g id="line2d_29">
      <path d="M 325.580962 295.344 
L 325.580962 7.2 
" clip-path="url(#p2bf5353a0a)" style="fill: none; stroke: #bbbbbb; stroke-opacity: 0.15; stroke-width: 0.3; stroke-linecap: square"/>
     </g>
     <g id="line2d_30">
      <g>
       <use xlink:href="#m14f99a3cff" x="325.580962" y="295.344" style="stroke: #000000; stroke-width: 0.6"/>
      </g>
     </g>
    </g>
    <g id="xtick_16">
     <g id="line2d_31">
      <path d="M 348.697845 295.344 
L 348.697845 7.2 
" clip-path="url(#p2bf5353a0a)" style="fill: none; stroke: #bbbbbb; stroke-opacity: 0.15; stroke-width: 0.3; stroke-linecap: square"/>
     </g>
     <g id="line2d_32">
      <g>
       <use xlink:href="#m14f99a3cff" x="348.697845" y="295.344" style="stroke: #000000; stroke-width: 0.6"/>
      </g>
     </g>
    </g>
    <g id="xtick_17">
     <g id="line2d_33">
      <path d="M 394.931611 295.344 
L 394.931611 7.2 
" clip-path="url(#p2bf5353a0a)" style="fill: none; stroke: #bbbbbb; stroke-opacity: 0.15; stroke-width: 0.3; stroke-linecap: square"/>
     </g>
     <g id="line2d_34">
      <g>
       <use xlink:href="#m14f99a3cff" x="394.931611" y="295.344" style="stroke: #000000; stroke-width: 0.6"/>
      </g>
     </g>
    </g>
    <g id="xtick_18">
     <g id="line2d_35">
      <path d="M 418.048494 295.344 
L 418.048494 7.2 
" clip-path="url(#p2bf5353a0a)" style="fill: none; stroke: #bbbbbb; stroke-opacity: 0.15; stroke-width: 0.3; stroke-linecap: square"/>
     </g>
     <g id="line2d_36">
      <g>
       <use xlink:href="#m14f99a3cff" x="418.048494" y="295.344" style="stroke: #000000; stroke-width: 0.6"/>
      </g>
     </g>
    </g>
    <g id="xtick_19">
     <g id="line2d_37">
      <path d="M 441.165377 295.344 
L 441.165377 7.2 
" clip-path="url(#p2bf5353a0a)" style="fill: none; stroke: #bbbbbb; stroke-opacity: 0.15; stroke-width: 0.3; stroke-linecap: square"/>
     </g>
     <g id="line2d_38">
      <g>
       <use xlink:href="#m14f99a3cff" x="441.165377" y="295.344" style="stroke: #000000; stroke-width: 0.6"/>
      </g>
     </g>
    </g>
    <g id="xtick_20">
     <g id="line2d_39">
      <path d="M 487.399144 295.344 
L 487.399144 7.2 
" clip-path="url(#p2bf5353a0a)" style="fill: none; stroke: #bbbbbb; stroke-opacity: 0.15; stroke-width: 0.3; stroke-linecap: square"/>
     </g>
     <g id="line2d_40">
      <g>
       <use xlink:href="#m14f99a3cff" x="487.399144" y="295.344" style="stroke: #000000; stroke-width: 0.6"/>
      </g>
     </g>
    </g>
    <g id="xtick_21">
     <g id="line2d_41">
      <path d="M 510.516027 295.344 
L 510.516027 7.2 
" clip-path="url(#p2bf5353a0a)" style="fill: none; stroke: #bbbbbb; stroke-opacity: 0.15; stroke-width: 0.3; stroke-linecap: square"/>
     </g>
     <g id="line2d_42">
      <g>
       <use xlink:href="#m14f99a3cff" x="510.516027" y="295.344" style="stroke: #000000; stroke-width: 0.6"/>
      </g>
     </g>
    </g>
    <g id="xtick_22">
     <g id="line2d_43">
      <path d="M 533.63291 295.344 
L 533.63291 7.2 
" clip-path="url(#p2bf5353a0a)" style="fill: none; stroke: #bbbbbb; stroke-opacity: 0.15; stroke-width: 0.3; stroke-linecap: square"/>
     </g>
     <g id="line2d_44">
      <g>
       <use xlink:href="#m14f99a3cff" x="533.63291" y="295.344" style="stroke: #000000; stroke-width: 0.6"/>
      </g>
     </g>
    </g>
    <g id="xtick_23">
     <g id="line2d_45">
      <path d="M 579.866676 295.344 
L 579.866676 7.2 
" clip-path="url(#p2bf5353a0a)" style="fill: none; stroke: #bbbbbb; stroke-opacity: 0.15; stroke-width: 0.3; stroke-linecap: square"/>
     </g>
     <g id="line2d_46">
      <g>
       <use xlink:href="#m14f99a3cff" x="579.866676" y="295.344" style="stroke: #000000; stroke-width: 0.6"/>
      </g>
     </g>
    </g>
    <g id="text_7">
     <!-- training step -->
     <g transform="translate(298.833516 320.925094) scale(0.09 -0.09)">
      <defs>
       <path id="DejaVuSans-74" d="M 1172 4494 
L 1172 3500 
L 2356 3500 
L 2356 3053 
L 1172 3053 
L 1172 1153 
Q 1172 725 1289 603 
Q 1406 481 1766 481 
L 2356 481 
L 2356 0 
L 1766 0 
Q 1100 0 847 248 
Q 594 497 594 1153 
L 594 3053 
L 172 3053 
L 172 3500 
L 594 3500 
L 594 4494 
L 1172 4494 
z
" transform="scale(0.015625)"/>
       <path id="DejaVuSans-72" d="M 2631 2963 
Q 2534 3019 2420 3045 
Q 2306 3072 2169 3072 
Q 1681 3072 1420 2755 
Q 1159 2438 1159 1844 
L 1159 0 
L 581 0 
L 581 3500 
L 1159 3500 
L 1159 2956 
Q 1341 3275 1631 3429 
Q 1922 3584 2338 3584 
Q 2397 3584 2469 3576 
Q 2541 3569 2628 3553 
L 2631 2963 
z
" transform="scale(0.015625)"/>
       <path id="DejaVuSans-61" d="M 2194 1759 
Q 1497 1759 1228 1600 
Q 959 1441 959 1056 
Q 959 750 1161 570 
Q 1363 391 1709 391 
Q 2188 391 2477 730 
Q 2766 1069 2766 1631 
L 2766 1759 
L 2194 1759 
z
M 3341 1997 
L 3341 0 
L 2766 0 
L 2766 531 
Q 2569 213 2275 61 
Q 1981 -91 1556 -91 
Q 1019 -91 701 211 
Q 384 513 384 1019 
Q 384 1609 779 1909 
Q 1175 2209 1959 2209 
L 2766 2209 
L 2766 2266 
Q 2766 2663 2505 2880 
Q 2244 3097 1772 3097 
Q 1472 3097 1187 3025 
Q 903 2953 641 2809 
L 641 3341 
Q 956 3463 1253 3523 
Q 1550 3584 1831 3584 
Q 2591 3584 2966 3190 
Q 3341 2797 3341 1997 
z
" transform="scale(0.015625)"/>
       <path id="DejaVuSans-69" d="M 603 3500 
L 1178 3500 
L 1178 0 
L 603 0 
L 603 3500 
z
M 603 4863 
L 1178 4863 
L 1178 4134 
L 603 4134 
L 603 4863 
z
" transform="scale(0.015625)"/>
       <path id="DejaVuSans-6e" d="M 3513 2113 
L 3513 0 
L 2938 0 
L 2938 2094 
Q 2938 2591 2744 2837 
Q 2550 3084 2163 3084 
Q 1697 3084 1428 2787 
Q 1159 2491 1159 1978 
L 1159 0 
L 581 0 
L 581 3500 
L 1159 3500 
L 1159 2956 
Q 1366 3272 1645 3428 
Q 1925 3584 2291 3584 
Q 2894 3584 3203 3211 
Q 3513 2838 3513 2113 
z
" transform="scale(0.015625)"/>
       <path id="DejaVuSans-67" d="M 2906 1791 
Q 2906 2416 2648 2759 
Q 2391 3103 1925 3103 
Q 1463 3103 1205 2759 
Q 947 2416 947 1791 
Q 947 1169 1205 825 
Q 1463 481 1925 481 
Q 2391 481 2648 825 
Q 2906 1169 2906 1791 
z
M 3481 434 
Q 3481 -459 3084 -895 
Q 2688 -1331 1869 -1331 
Q 1566 -1331 1297 -1286 
Q 1028 -1241 775 -1147 
L 775 -588 
Q 1028 -725 1275 -790 
Q 1522 -856 1778 -856 
Q 2344 -856 2625 -561 
Q 2906 -266 2906 331 
L 2906 616 
Q 2728 306 2450 153 
Q 2172 0 1784 0 
Q 1141 0 747 490 
Q 353 981 353 1791 
Q 353 2603 747 3093 
Q 1141 3584 1784 3584 
Q 2172 3584 2450 3431 
Q 2728 3278 2906 2969 
L 2906 3500 
L 3481 3500 
L 3481 434 
z
" transform="scale(0.015625)"/>
       <path id="DejaVuSans-20" transform="scale(0.015625)"/>
       <path id="DejaVuSans-73" d="M 2834 3397 
L 2834 2853 
Q 2591 2978 2328 3040 
Q 2066 3103 1784 3103 
Q 1356 3103 1142 2972 
Q 928 2841 928 2578 
Q 928 2378 1081 2264 
Q 1234 2150 1697 2047 
L 1894 2003 
Q 2506 1872 2764 1633 
Q 3022 1394 3022 966 
Q 3022 478 2636 193 
Q 2250 -91 1575 -91 
Q 1294 -91 989 -36 
Q 684 19 347 128 
L 347 722 
Q 666 556 975 473 
Q 1284 391 1588 391 
Q 1994 391 2212 530 
Q 2431 669 2431 922 
Q 2431 1156 2273 1281 
Q 2116 1406 1581 1522 
L 1381 1569 
Q 847 1681 609 1914 
Q 372 2147 372 2553 
Q 372 3047 722 3315 
Q 1072 3584 1716 3584 
Q 2034 3584 2315 3537 
Q 2597 3491 2834 3397 
z
" transform="scale(0.015625)"/>
       <path id="DejaVuSans-65" d="M 3597 1894 
L 3597 1613 
L 953 1613 
Q 991 1019 1311 708 
Q 1631 397 2203 397 
Q 2534 397 2845 478 
Q 3156 559 3463 722 
L 3463 178 
Q 3153 47 2828 -22 
Q 2503 -91 2169 -91 
Q 1331 -91 842 396 
Q 353 884 353 1716 
Q 353 2575 817 3079 
Q 1281 3584 2069 3584 
Q 2775 3584 3186 3129 
Q 3597 2675 3597 1894 
z
M 3022 2063 
Q 3016 2534 2758 2815 
Q 2500 3097 2075 3097 
Q 1594 3097 1305 2825 
Q 1016 2553 972 2059 
L 3022 2063 
z
" transform="scale(0.015625)"/>
       <path id="DejaVuSans-70" d="M 1159 525 
L 1159 -1331 
L 581 -1331 
L 581 3500 
L 1159 3500 
L 1159 2969 
Q 1341 3281 1617 3432 
Q 1894 3584 2278 3584 
Q 2916 3584 3314 3078 
Q 3713 2572 3713 1747 
Q 3713 922 3314 415 
Q 2916 -91 2278 -91 
Q 1894 -91 1617 61 
Q 1341 213 1159 525 
z
M 3116 1747 
Q 3116 2381 2855 2742 
Q 2594 3103 2138 3103 
Q 1681 3103 1420 2742 
Q 1159 2381 1159 1747 
Q 1159 1113 1420 752 
Q 1681 391 2138 391 
Q 2594 391 2855 752 
Q 3116 1113 3116 1747 
z
" transform="scale(0.015625)"/>
      </defs>
      <use xlink:href="#DejaVuSans-74"/>
      <use xlink:href="#DejaVuSans-72" transform="translate(39.208984 0)"/>
      <use xlink:href="#DejaVuSans-61" transform="translate(80.322266 0)"/>
      <use xlink:href="#DejaVuSans-69" transform="translate(141.601562 0)"/>
      <use xlink:href="#DejaVuSans-6e" transform="translate(169.384766 0)"/>
      <use xlink:href="#DejaVuSans-69" transform="translate(232.763672 0)"/>
      <use xlink:href="#DejaVuSans-6e" transform="translate(260.546875 0)"/>
      <use xlink:href="#DejaVuSans-67" transform="translate(323.925781 0)"/>
      <use xlink:href="#DejaVuSans-20" transform="translate(387.402344 0)"/>
      <use xlink:href="#DejaVuSans-73" transform="translate(419.189453 0)"/>
      <use xlink:href="#DejaVuSans-74" transform="translate(471.289062 0)"/>
      <use xlink:href="#DejaVuSans-65" transform="translate(510.498047 0)"/>
      <use xlink:href="#DejaVuSans-70" transform="translate(572.021484 0)"/>
     </g>
    </g>
   </g>
   <g id="matplotlib.axis_2">
    <g id="ytick_1">
     <g id="line2d_47">
      <path d="M 71.110313 253.891789 
L 583.750313 253.891789 
" clip-path="url(#p2bf5353a0a)" style="fill: none; stroke: #bbbbbb; stroke-opacity: 0.15; stroke-width: 0.3; stroke-linecap: square"/>
     </g>
     <g id="line2d_48">
      <defs>
       <path id="m8524986f6d" d="M 0 0 
L -2 0 
" style="stroke: #000000; stroke-width: 0.6"/>
      </defs>
      <g>
       <use xlink:href="#m8524986f6d" x="71.110313" y="253.891789" style="stroke: #000000; stroke-width: 0.6"/>
      </g>
     </g>
     <g id="text_8">
      <!-- $\mathdefault{1.4\times10^{2}}$ -->
      <g transform="translate(19.910312 257.691008) scale(0.1 -0.1)">
       <defs>
        <path id="DejaVuSans-2e" d="M 684 794 
L 1344 794 
L 1344 0 
L 684 0 
L 684 794 
z
" transform="scale(0.015625)"/>
        <path id="DejaVuSans-d7" d="M 4488 3438 
L 3059 2003 
L 4488 575 
L 4116 197 
L 2681 1631 
L 1247 197 
L 878 575 
L 2303 2003 
L 878 3438 
L 1247 3816 
L 2681 2381 
L 4116 3816 
L 4488 3438 
z
" transform="scale(0.015625)"/>
       </defs>
       <use xlink:href="#DejaVuSans-31" transform="translate(0 0.765625)"/>
       <use xlink:href="#DejaVuSans-2e" transform="translate(63.623047 0.765625)"/>
       <use xlink:href="#DejaVuSans-34" transform="translate(95.410156 0.765625)"/>
       <use xlink:href="#DejaVuSans-d7" transform="translate(178.515625 0.765625)"/>
       <use xlink:href="#DejaVuSans-31" transform="translate(281.787109 0.765625)"/>
       <use xlink:href="#DejaVuSans-30" transform="translate(345.410156 0.765625)"/>
       <use xlink:href="#DejaVuSans-32" transform="translate(409.990234 39.046875) scale(0.7)"/>
      </g>
     </g>
    </g>
    <g id="ytick_2">
     <g id="line2d_49">
      <path d="M 71.110313 206.173887 
L 583.750313 206.173887 
" clip-path="url(#p2bf5353a0a)" style="fill: none; stroke: #bbbbbb; stroke-opacity: 0.15; stroke-width: 0.3; stroke-linecap: square"/>
     </g>
     <g id="line2d_50">
      <g>
       <use xlink:href="#m8524986f6d" x="71.110313" y="206.173887" style="stroke: #000000; stroke-width: 0.6"/>
      </g>
     </g>
     <g id="text_9">
      <!-- $\mathdefault{1.6\times10^{2}}$ -->
      <g transform="translate(19.910312 209.973106) scale(0.1 -0.1)">
       <use xlink:href="#DejaVuSans-31" transform="translate(0 0.765625)"/>
       <use xlink:href="#DejaVuSans-2e" transform="translate(63.623047 0.765625)"/>
       <use xlink:href="#DejaVuSans-36" transform="translate(95.410156 0.765625)"/>
       <use xlink:href="#DejaVuSans-d7" transform="translate(178.515625 0.765625)"/>
       <use xlink:href="#DejaVuSans-31" transform="translate(281.787109 0.765625)"/>
       <use xlink:href="#DejaVuSans-30" transform="translate(345.410156 0.765625)"/>
       <use xlink:href="#DejaVuSans-32" transform="translate(409.990234 39.046875) scale(0.7)"/>
      </g>
     </g>
    </g>
    <g id="ytick_3">
     <g id="line2d_51">
      <path d="M 71.110313 164.083715 
L 583.750313 164.083715 
" clip-path="url(#p2bf5353a0a)" style="fill: none; stroke: #bbbbbb; stroke-opacity: 0.15; stroke-width: 0.3; stroke-linecap: square"/>
     </g>
     <g id="line2d_52">
      <g>
       <use xlink:href="#m8524986f6d" x="71.110313" y="164.083715" style="stroke: #000000; stroke-width: 0.6"/>
      </g>
     </g>
     <g id="text_10">
      <!-- $\mathdefault{1.8\times10^{2}}$ -->
      <g transform="translate(20.210313 167.882934) scale(0.1 -0.1)">
       <use xlink:href="#DejaVuSans-31" transform="translate(0 0.765625)"/>
       <use xlink:href="#DejaVuSans-2e" transform="translate(63.623047 0.765625)"/>
       <use xlink:href="#DejaVuSans-38" transform="translate(92.785156 0.765625)"/>
       <use xlink:href="#DejaVuSans-d7" transform="translate(175.890625 0.765625)"/>
       <use xlink:href="#DejaVuSans-31" transform="translate(279.162109 0.765625)"/>
       <use xlink:href="#DejaVuSans-30" transform="translate(342.785156 0.765625)"/>
       <use xlink:href="#DejaVuSans-32" transform="translate(407.365234 39.046875) scale(0.7)"/>
      </g>
     </g>
    </g>
    <g id="ytick_4">
     <g id="line2d_53">
      <path d="M 71.110313 126.432773 
L 583.750313 126.432773 
" clip-path="url(#p2bf5353a0a)" style="fill: none; stroke: #bbbbbb; stroke-opacity: 0.15; stroke-width: 0.3; stroke-linecap: square"/>
     </g>
     <g id="line2d_54">
      <g>
       <use xlink:href="#m8524986f6d" x="71.110313" y="126.432773" style="stroke: #000000; stroke-width: 0.6"/>
      </g>
     </g>
     <g id="text_11">
      <!-- $\mathdefault{2\times10^{2}}$ -->
      <g transform="translate(29.510312 130.231991) scale(0.1 -0.1)">
       <use xlink:href="#DejaVuSans-32" transform="translate(0 0.765625)"/>
       <use xlink:href="#DejaVuSans-d7" transform="translate(83.105469 0.765625)"/>
       <use xlink:href="#DejaVuSans-31" transform="translate(186.376953 0.765625)"/>
       <use xlink:href="#DejaVuSans-30" transform="translate(250 0.765625)"/>
       <use xlink:href="#DejaVuSans-32" transform="translate(314.580078 39.046875) scale(0.7)"/>
      </g>
     </g>
    </g>
    <g id="ytick_5">
     <g id="line2d_55">
      <path d="M 71.110313 92.373353 
L 583.750313 92.373353 
" clip-path="url(#p2bf5353a0a)" style="fill: none; stroke: #bbbbbb; stroke-opacity: 0.15; stroke-width: 0.3; stroke-linecap: square"/>
     </g>
     <g id="line2d_56">
      <g>
       <use xlink:href="#m8524986f6d" x="71.110313" y="92.373353" style="stroke: #000000; stroke-width: 0.6"/>
      </g>
     </g>
     <g id="text_12">
      <!-- $\mathdefault{2.2\times10^{2}}$ -->
      <g transform="translate(20.510312 96.172571) scale(0.1 -0.1)">
       <use xlink:href="#DejaVuSans-32" transform="translate(0 0.765625)"/>
       <use xlink:href="#DejaVuSans-2e" transform="translate(63.623047 0.765625)"/>
       <use xlink:href="#DejaVuSans-32" transform="translate(89.910156 0.765625)"/>
       <use xlink:href="#DejaVuSans-d7" transform="translate(173.015625 0.765625)"/>
       <use xlink:href="#DejaVuSans-31" transform="translate(276.287109 0.765625)"/>
       <use xlink:href="#DejaVuSans-30" transform="translate(339.910156 0.765625)"/>
       <use xlink:href="#DejaVuSans-32" transform="translate(404.490234 39.046875) scale(0.7)"/>
      </g>
     </g>
    </g>
    <g id="ytick_6">
     <g id="line2d_57">
      <path d="M 71.110313 61.279538 
L 583.750313 61.279538 
" clip-path="url(#p2bf5353a0a)" style="fill: none; stroke: #bbbbbb; stroke-opacity: 0.15; stroke-width: 0.3; stroke-linecap: square"/>
     </g>
     <g id="line2d_58">
      <g>
       <use xlink:href="#m8524986f6d" x="71.110313" y="61.279538" style="stroke: #000000; stroke-width: 0.6"/>
      </g>
     </g>
     <g id="text_13">
      <!-- $\mathdefault{2.4\times10^{2}}$ -->
      <g transform="translate(19.910312 65.078757) scale(0.1 -0.1)">
       <use xlink:href="#DejaVuSans-32" transform="translate(0 0.765625)"/>
       <use xlink:href="#DejaVuSans-2e" transform="translate(63.623047 0.765625)"/>
       <use xlink:href="#DejaVuSans-34" transform="translate(95.410156 0.765625)"/>
       <use xlink:href="#DejaVuSans-d7" transform="translate(178.515625 0.765625)"/>
       <use xlink:href="#DejaVuSans-31" transform="translate(281.787109 0.765625)"/>
       <use xlink:href="#DejaVuSans-30" transform="translate(345.410156 0.765625)"/>
       <use xlink:href="#DejaVuSans-32" transform="translate(409.990234 39.046875) scale(0.7)"/>
      </g>
     </g>
    </g>
    <g id="ytick_7">
     <g id="line2d_59">
      <path d="M 71.110313 32.676002 
L 583.750313 32.676002 
" clip-path="url(#p2bf5353a0a)" style="fill: none; stroke: #bbbbbb; stroke-opacity: 0.15; stroke-width: 0.3; stroke-linecap: square"/>
     </g>
     <g id="line2d_60">
      <g>
       <use xlink:href="#m8524986f6d" x="71.110313" y="32.676002" style="stroke: #000000; stroke-width: 0.6"/>
      </g>
     </g>
     <g id="text_14">
      <!-- $\mathdefault{2.6\times10^{2}}$ -->
      <g transform="translate(19.910312 36.47522) scale(0.1 -0.1)">
       <use xlink:href="#DejaVuSans-32" transform="translate(0 0.765625)"/>
       <use xlink:href="#DejaVuSans-2e" transform="translate(63.623047 0.765625)"/>
       <use xlink:href="#DejaVuSans-36" transform="translate(95.410156 0.765625)"/>
       <use xlink:href="#DejaVuSans-d7" transform="translate(178.515625 0.765625)"/>
       <use xlink:href="#DejaVuSans-31" transform="translate(281.787109 0.765625)"/>
       <use xlink:href="#DejaVuSans-30" transform="translate(345.410156 0.765625)"/>
       <use xlink:href="#DejaVuSans-32" transform="translate(409.990234 39.046875) scale(0.7)"/>
      </g>
     </g>
    </g>
    <g id="text_15">
     <!-- absolute val MSE (log scale) -->
     <g transform="translate(14.038594 214.560984) rotate(-90) scale(0.09 -0.09)">
      <defs>
       <path id="DejaVuSans-62" d="M 3116 1747 
Q 3116 2381 2855 2742 
Q 2594 3103 2138 3103 
Q 1681 3103 1420 2742 
Q 1159 2381 1159 1747 
Q 1159 1113 1420 752 
Q 1681 391 2138 391 
Q 2594 391 2855 752 
Q 3116 1113 3116 1747 
z
M 1159 2969 
Q 1341 3281 1617 3432 
Q 1894 3584 2278 3584 
Q 2916 3584 3314 3078 
Q 3713 2572 3713 1747 
Q 3713 922 3314 415 
Q 2916 -91 2278 -91 
Q 1894 -91 1617 61 
Q 1341 213 1159 525 
L 1159 0 
L 581 0 
L 581 4863 
L 1159 4863 
L 1159 2969 
z
" transform="scale(0.015625)"/>
       <path id="DejaVuSans-6f" d="M 1959 3097 
Q 1497 3097 1228 2736 
Q 959 2375 959 1747 
Q 959 1119 1226 758 
Q 1494 397 1959 397 
Q 2419 397 2687 759 
Q 2956 1122 2956 1747 
Q 2956 2369 2687 2733 
Q 2419 3097 1959 3097 
z
M 1959 3584 
Q 2709 3584 3137 3096 
Q 3566 2609 3566 1747 
Q 3566 888 3137 398 
Q 2709 -91 1959 -91 
Q 1206 -91 779 398 
Q 353 888 353 1747 
Q 353 2609 779 3096 
Q 1206 3584 1959 3584 
z
" transform="scale(0.015625)"/>
       <path id="DejaVuSans-6c" d="M 603 4863 
L 1178 4863 
L 1178 0 
L 603 0 
L 603 4863 
z
" transform="scale(0.015625)"/>
       <path id="DejaVuSans-75" d="M 544 1381 
L 544 3500 
L 1119 3500 
L 1119 1403 
Q 1119 906 1312 657 
Q 1506 409 1894 409 
Q 2359 409 2629 706 
Q 2900 1003 2900 1516 
L 2900 3500 
L 3475 3500 
L 3475 0 
L 2900 0 
L 2900 538 
Q 2691 219 2414 64 
Q 2138 -91 1772 -91 
Q 1169 -91 856 284 
Q 544 659 544 1381 
z
M 1991 3584 
L 1991 3584 
z
" transform="scale(0.015625)"/>
       <path id="DejaVuSans-76" d="M 191 3500 
L 800 3500 
L 1894 563 
L 2988 3500 
L 3597 3500 
L 2284 0 
L 1503 0 
L 191 3500 
z
" transform="scale(0.015625)"/>
       <path id="DejaVuSans-4d" d="M 628 4666 
L 1569 4666 
L 2759 1491 
L 3956 4666 
L 4897 4666 
L 4897 0 
L 4281 0 
L 4281 4097 
L 3078 897 
L 2444 897 
L 1241 4097 
L 1241 0 
L 628 0 
L 628 4666 
z
" transform="scale(0.015625)"/>
       <path id="DejaVuSans-53" d="M 3425 4513 
L 3425 3897 
Q 3066 4069 2747 4153 
Q 2428 4238 2131 4238 
Q 1616 4238 1336 4038 
Q 1056 3838 1056 3469 
Q 1056 3159 1242 3001 
Q 1428 2844 1947 2747 
L 2328 2669 
Q 3034 2534 3370 2195 
Q 3706 1856 3706 1288 
Q 3706 609 3251 259 
Q 2797 -91 1919 -91 
Q 1588 -91 1214 -16 
Q 841 59 441 206 
L 441 856 
Q 825 641 1194 531 
Q 1563 422 1919 422 
Q 2459 422 2753 634 
Q 3047 847 3047 1241 
Q 3047 1584 2836 1778 
Q 2625 1972 2144 2069 
L 1759 2144 
Q 1053 2284 737 2584 
Q 422 2884 422 3419 
Q 422 4038 858 4394 
Q 1294 4750 2059 4750 
Q 2388 4750 2728 4690 
Q 3069 4631 3425 4513 
z
" transform="scale(0.015625)"/>
       <path id="DejaVuSans-45" d="M 628 4666 
L 3578 4666 
L 3578 4134 
L 1259 4134 
L 1259 2753 
L 3481 2753 
L 3481 2222 
L 1259 2222 
L 1259 531 
L 3634 531 
L 3634 0 
L 628 0 
L 628 4666 
z
" transform="scale(0.015625)"/>
       <path id="DejaVuSans-28" d="M 1984 4856 
Q 1566 4138 1362 3434 
Q 1159 2731 1159 2009 
Q 1159 1288 1364 580 
Q 1569 -128 1984 -844 
L 1484 -844 
Q 1016 -109 783 600 
Q 550 1309 550 2009 
Q 550 2706 781 3412 
Q 1013 4119 1484 4856 
L 1984 4856 
z
" transform="scale(0.015625)"/>
       <path id="DejaVuSans-63" d="M 3122 3366 
L 3122 2828 
Q 2878 2963 2633 3030 
Q 2388 3097 2138 3097 
Q 1578 3097 1268 2742 
Q 959 2388 959 1747 
Q 959 1106 1268 751 
Q 1578 397 2138 397 
Q 2388 397 2633 464 
Q 2878 531 3122 666 
L 3122 134 
Q 2881 22 2623 -34 
Q 2366 -91 2075 -91 
Q 1284 -91 818 406 
Q 353 903 353 1747 
Q 353 2603 823 3093 
Q 1294 3584 2113 3584 
Q 2378 3584 2631 3529 
Q 2884 3475 3122 3366 
z
" transform="scale(0.015625)"/>
       <path id="DejaVuSans-29" d="M 513 4856 
L 1013 4856 
Q 1481 4119 1714 3412 
Q 1947 2706 1947 2009 
Q 1947 1309 1714 600 
Q 1481 -109 1013 -844 
L 513 -844 
Q 928 -128 1133 580 
Q 1338 1288 1338 2009 
Q 1338 2731 1133 3434 
Q 928 4138 513 4856 
z
" transform="scale(0.015625)"/>
      </defs>
      <use xlink:href="#DejaVuSans-61"/>
      <use xlink:href="#DejaVuSans-62" transform="translate(61.279297 0)"/>
      <use xlink:href="#DejaVuSans-73" transform="translate(124.755859 0)"/>
      <use xlink:href="#DejaVuSans-6f" transform="translate(176.855469 0)"/>
      <use xlink:href="#DejaVuSans-6c" transform="translate(238.037109 0)"/>
      <use xlink:href="#DejaVuSans-75" transform="translate(265.820312 0)"/>
      <use xlink:href="#DejaVuSans-74" transform="translate(329.199219 0)"/>
      <use xlink:href="#DejaVuSans-65" transform="translate(368.408203 0)"/>
      <use xlink:href="#DejaVuSans-20" transform="translate(429.931641 0)"/>
      <use xlink:href="#DejaVuSans-76" transform="translate(461.71875 0)"/>
      <use xlink:href="#DejaVuSans-61" transform="translate(520.898438 0)"/>
      <use xlink:href="#DejaVuSans-6c" transform="translate(582.177734 0)"/>
      <use xlink:href="#DejaVuSans-20" transform="translate(609.960938 0)"/>
      <use xlink:href="#DejaVuSans-4d" transform="translate(641.748047 0)"/>
      <use xlink:href="#DejaVuSans-53" transform="translate(728.027344 0)"/>
      <use xlink:href="#DejaVuSans-45" transform="translate(791.503906 0)"/>
      <use xlink:href="#DejaVuSans-20" transform="translate(854.6875 0)"/>
      <use xlink:href="#DejaVuSans-28" transform="translate(886.474609 0)"/>
      <use xlink:href="#DejaVuSans-6c" transform="translate(925.488281 0)"/>
      <use xlink:href="#DejaVuSans-6f" transform="translate(953.271484 0)"/>
      <use xlink:href="#DejaVuSans-67" transform="translate(1014.453125 0)"/>
      <use xlink:href="#DejaVuSans-20" transform="translate(1077.929688 0)"/>
      <use xlink:href="#DejaVuSans-73" transform="translate(1109.716797 0)"/>
      <use xlink:href="#DejaVuSans-63" transform="translate(1161.816406 0)"/>
      <use xlink:href="#DejaVuSans-61" transform="translate(1216.796875 0)"/>
      <use xlink:href="#DejaVuSans-6c" transform="translate(1278.076172 0)"/>
      <use xlink:href="#DejaVuSans-65" transform="translate(1305.859375 0)"/>
      <use xlink:href="#DejaVuSans-29" transform="translate(1367.382812 0)"/>
     </g>
    </g>
   </g>
   <g id="line2d_61">
    <path d="M 98.57317 20.297455 
L 102.734209 20.312498 
L 106.895248 20.329465 
L 111.056287 20.44606 
L 115.217325 20.872307 
L 119.378364 21.976532 
L 123.539403 23.857959 
L 127.700442 26.395976 
L 131.861481 29.713996 
L 136.02252 33.965911 
L 140.183559 39.152525 
L 144.344598 45.476286 
L 148.505637 53.057602 
L 152.666676 61.711694 
L 156.827715 71.082733 
L 160.988754 81.114262 
L 165.149793 91.823294 
L 169.310832 103.617911 
L 173.471871 117.476755 
L 177.63291 135.216488 
L 181.793949 157.974157 
L 185.954988 182.492098 
L 190.116027 201.848679 
L 194.277066 210.617388 
L 198.438105 214.242282 
L 202.599144 217.434068 
L 206.760183 220.640903 
L 210.921222 223.823857 
L 215.082261 226.714538 
L 219.2433 229.055666 
L 223.404338 230.85815 
L 227.565377 231.985779 
L 231.726416 232.622619 
L 235.887455 232.885641 
L 240.048494 232.950402 
L 244.209533 233.036147 
L 248.370572 233.004573 
L 252.531611 233.026132 
L 256.69265 233.009372 
L 260.853689 233.026845 
L 265.014728 232.960034 
L 269.175767 233.024341 
L 273.336806 233.038943 
L 277.497845 233.054411 
L 281.658884 233.033798 
L 285.819923 233.038399 
L 289.980962 233.04369 
L 294.142001 233.049815 
L 298.30304 233.016502 
L 302.464079 233.062287 
L 306.625118 233.062258 
L 310.786157 232.990318 
L 314.947196 233.06759 
L 319.108235 233.026129 
L 323.269274 233.056118 
L 327.430313 233.047296 
L 331.591351 233.044165 
L 335.75239 233.040816 
L 339.913429 233.026078 
L 344.074468 233.068101 
L 348.235507 233.040782 
L 352.396546 233.042469 
L 356.557585 233.069678 
L 360.718624 233.062745 
L 364.879663 233.063198 
L 369.040702 233.061448 
L 373.201741 233.045275 
L 377.36278 233.047464 
L 381.523819 233.040501 
L 385.684858 233.065128 
L 389.845897 233.076028 
L 394.006936 233.067657 
L 398.167975 233.046391 
L 402.329014 233.056936 
L 406.490053 233.071905 
L 410.651092 233.044125 
L 414.812131 233.070124 
L 418.97317 233.073593 
L 423.134209 233.083745 
L 427.295248 233.068746 
L 431.456287 233.087524 
L 435.617325 233.069516 
L 439.778364 233.074238 
L 443.939403 233.069951 
L 448.100442 233.074128 
L 452.261481 233.063127 
L 456.42252 233.064635 
L 460.583559 233.078562 
L 464.744598 233.081691 
L 468.905637 233.074151 
L 473.066676 233.085007 
L 477.227715 233.072559 
L 481.388754 233.082951 
L 485.549793 233.082681 
L 489.710832 233.08184 
L 493.871871 233.080733 
L 498.03291 233.083089 
L 502.193949 233.081348 
L 506.354988 233.08295 
L 510.516027 233.082523 
L 514.677066 233.08162 
L 518.838105 233.086114 
L 522.999144 233.087263 
L 527.160183 233.088153 
L 531.321222 233.083919 
L 535.482261 233.08185 
L 539.6433 233.08594 
L 543.804338 233.084641 
L 547.965377 233.085171 
L 552.126416 233.080714 
L 556.287455 233.086457 
L 560.448494 233.082728 
" clip-path="url(#p2bf5353a0a)" style="fill: none; stroke: #0072b2; stroke-opacity: 0.9; stroke-width: 1.6; stroke-linecap: square"/>
   </g>
   <g id="line2d_62">
    <path d="M 98.57317 209.429035 
L 102.734209 209.466874 
L 106.895248 209.533613 
L 111.056287 209.805312 
L 115.217325 210.458199 
L 119.378364 211.729112 
L 123.539403 213.731014 
L 127.700442 216.312226 
L 131.861481 219.920965 
L 136.02252 224.8388 
L 140.183559 231.379361 
L 144.344598 239.679178 
L 148.505637 248.776561 
L 152.666676 257.796038 
L 156.827715 265.210758 
L 160.988754 270.87832 
L 165.149793 275.52445 
L 169.310832 279.054631 
L 173.471871 281.042468 
L 177.63291 281.797118 
L 181.793949 282.026001 
L 185.954988 282.168482 
L 190.116027 282.171091 
L 194.277066 282.191802 
L 198.438105 282.186114 
L 202.599144 282.041316 
L 206.760183 282.044899 
L 210.921222 282.225148 
L 215.082261 282.177457 
L 219.2433 282.211561 
L 223.404338 282.19433 
L 227.565377 282.210272 
L 231.726416 282.218014 
L 235.887455 282.154371 
L 240.048494 282.195009 
L 244.209533 282.201876 
L 248.370572 282.203104 
L 252.531611 282.198489 
L 256.69265 282.210576 
L 260.853689 282.211846 
L 265.014728 282.221992 
L 269.175767 282.209635 
L 273.336806 282.191042 
L 277.497845 282.224584 
L 281.658884 282.222552 
L 285.819923 282.207055 
L 289.980962 282.210936 
L 294.142001 282.2214 
L 298.30304 282.191433 
L 302.464079 282.215365 
L 306.625118 282.211545 
L 310.786157 282.205047 
L 314.947196 282.209864 
L 319.108235 282.231199 
L 323.269274 282.213328 
L 327.430313 282.176317 
L 331.591351 282.226475 
L 335.75239 282.215989 
L 339.913429 282.220323 
L 344.074468 282.222079 
L 348.235507 282.234746 
L 352.396546 282.17718 
L 356.557585 282.220079 
L 360.718624 282.225872 
L 364.879663 282.223369 
L 369.040702 282.242021 
L 373.201741 282.236078 
L 377.36278 282.239936 
L 381.523819 282.171001 
L 385.684858 282.219044 
L 389.845897 282.186379 
L 394.006936 282.22509 
L 398.167975 282.220848 
L 402.329014 282.189593 
L 406.490053 282.235273 
L 410.651092 282.220135 
L 414.812131 282.229658 
L 418.97317 282.232439 
L 423.134209 282.229093 
L 427.295248 282.234708 
L 431.456287 282.235253 
L 435.617325 282.235358 
L 439.778364 282.22173 
L 443.939403 282.246545 
L 448.100442 282.233062 
L 452.261481 282.243945 
L 456.42252 282.236661 
L 460.583559 282.22998 
L 464.744598 282.244436 
L 468.905637 282.23689 
L 473.066676 282.233606 
L 477.227715 282.240626 
L 481.388754 282.234208 
L 485.549793 282.245471 
L 489.710832 282.216633 
L 493.871871 282.232621 
L 498.03291 282.241292 
L 502.193949 282.234038 
L 506.354988 282.24106 
L 510.516027 282.243349 
L 514.677066 282.24137 
L 518.838105 282.232186 
L 522.999144 282.243203 
L 527.160183 282.241598 
L 531.321222 282.242871 
L 535.482261 282.232792 
L 539.6433 282.240938 
L 543.804338 282.237933 
L 547.965377 282.239525 
L 552.126416 282.242005 
L 556.287455 282.231657 
L 560.448494 282.243511 
" clip-path="url(#p2bf5353a0a)" style="fill: none; stroke: #d55e00; stroke-opacity: 0.9; stroke-width: 1.6; stroke-linecap: square"/>
   </g>
   <g id="line2d_63">
    <path d="M 94.412131 282.243511 
L 98.57317 282.208392 
L 102.734209 282.174395 
L 106.895248 282.18438 
L 111.056287 282.220543 
L 115.217325 282.194817 
L 119.378364 282.170222 
L 123.539403 282.19447 
L 127.700442 282.203787 
L 131.861481 282.200464 
L 136.02252 282.223712 
L 140.183559 282.092897 
L 144.344598 282.170662 
L 148.505637 282.201567 
L 152.666676 282.212617 
L 156.827715 282.172461 
L 160.988754 282.155203 
L 165.149793 282.194602 
L 169.310832 282.185998 
L 173.471871 282.177836 
L 177.63291 282.161754 
L 181.793949 282.155504 
L 185.954988 282.181142 
L 190.116027 282.186747 
L 194.277066 282.195396 
L 198.438105 282.158831 
L 202.599144 282.110302 
L 206.760183 282.072522 
L 210.921222 282.210878 
L 215.082261 282.2071 
L 219.2433 282.184921 
L 223.404338 282.215405 
L 227.565377 282.178356 
L 231.726416 282.188235 
L 235.887455 282.181954 
L 240.048494 282.196745 
L 244.209533 282.223103 
L 248.370572 282.167276 
L 252.531611 282.198219 
L 256.69265 282.202543 
L 260.853689 282.20146 
L 265.014728 282.210995 
L 269.175767 282.205434 
L 273.336806 282.203303 
L 277.497845 282.2066 
L 281.658884 282.223967 
L 285.819923 282.177089 
L 289.980962 282.196747 
L 294.142001 282.202254 
L 298.30304 282.197412 
L 302.464079 282.222074 
L 306.625118 282.215491 
L 310.786157 282.218685 
L 314.947196 282.208361 
L 319.108235 282.212955 
L 323.269274 282.203273 
L 327.430313 282.16825 
L 331.591351 282.230716 
L 335.75239 282.197416 
L 339.913429 282.207582 
L 344.074468 282.208536 
L 348.235507 282.222411 
L 352.396546 282.167153 
L 356.557585 282.202442 
L 360.718624 282.22885 
L 364.879663 282.221623 
L 369.040702 282.238299 
L 373.201741 282.233592 
L 377.36278 282.234274 
L 381.523819 282.159477 
L 385.684858 282.222523 
L 389.845897 282.189346 
L 394.006936 282.222856 
L 398.167975 282.218316 
L 402.329014 282.146464 
L 406.490053 282.224641 
L 410.651092 282.214495 
L 414.812131 282.226483 
L 418.97317 282.233136 
L 423.134209 282.22155 
L 427.295248 282.228309 
L 431.456287 282.225767 
L 435.617325 282.22762 
L 439.778364 282.224366 
L 443.939403 282.240626 
L 448.100442 282.226262 
L 452.261481 282.242335 
L 456.42252 282.235156 
L 460.583559 282.224363 
L 464.744598 282.238358 
L 468.905637 282.233525 
L 473.066676 282.225725 
L 477.227715 282.230381 
L 481.388754 282.227342 
L 485.549793 282.241271 
L 489.710832 282.214455 
L 493.871871 282.230854 
L 498.03291 282.237155 
L 502.193949 282.225945 
L 506.354988 282.233614 
L 510.516027 282.23863 
L 514.677066 282.236679 
L 518.838105 282.230703 
L 522.999144 282.238813 
L 527.160183 282.234407 
L 531.321222 282.234403 
L 535.482261 282.228054 
L 539.6433 282.236505 
L 543.804338 282.232979 
L 547.965377 282.232582 
L 552.126416 282.236291 
L 556.287455 282.22448 
L 560.448494 282.238604 
" clip-path="url(#p2bf5353a0a)" style="fill: none; stroke: #009e73; stroke-opacity: 0.9; stroke-width: 1.6; stroke-linecap: square"/>
   </g>
   <g id="patch_3">
    <path d="M 71.110313 295.344 
L 71.110313 7.2 
" style="fill: none; stroke: #000000; stroke-width: 0.8; stroke-linejoin: miter; stroke-linecap: square"/>
   </g>
   <g id="patch_4">
    <path d="M 71.110313 295.344 
L 583.750313 295.344 
" style="fill: none; stroke: #000000; stroke-width: 0.8; stroke-linejoin: miter; stroke-linecap: square"/>
   </g>
   <g id="line2d_64">
    <path d="M 98.57317 20.297455 
L 131.861481 29.713996 
L 165.149793 91.823294 
L 198.438105 214.242282 
L 231.726416 232.622619 
L 265.014728 232.960034 
L 298.30304 233.016502 
L 331.591351 233.044165 
L 364.879663 233.063198 
L 398.167975 233.046391 
L 431.456287 233.087524 
L 464.744598 233.081691 
L 498.03291 233.083089 
L 531.321222 233.083919 
L 560.448494 233.082728 
" clip-path="url(#p2bf5353a0a)" style="fill: none"/>
    <defs>
     <path id="m90921e9bb4" d="M 0 2.5 
C 0.663008 2.5 1.29895 2.236584 1.767767 1.767767 
C 2.236584 1.29895 2.5 0.663008 2.5 0 
C 2.5 -0.663008 2.236584 -1.29895 1.767767 -1.767767 
C 1.29895 -2.236584 0.663008 -2.5 0 -2.5 
C -0.663008 -2.5 -1.29895 -2.236584 -1.767767 -1.767767 
C -2.236584 -1.29895 -2.5 -0.663008 -2.5 0 
C -2.5 0.663008 -2.236584 1.29895 -1.767767 1.767767 
C -1.29895 2.236584 -0.663008 2.5 0 2.5 
z
" style="stroke: #0072b2"/>
    </defs>
    <g clip-path="url(#p2bf5353a0a)">
     <use xlink:href="#m90921e9bb4" x="98.57317" y="20.297455" style="fill: #0072b2; stroke: #0072b2"/>
     <use xlink:href="#m90921e9bb4" x="131.861481" y="29.713996" style="fill: #0072b2; stroke: #0072b2"/>
     <use xlink:href="#m90921e9bb4" x="165.149793" y="91.823294" style="fill: #0072b2; stroke: #0072b2"/>
     <use xlink:href="#m90921e9bb4" x="198.438105" y="214.242282" style="fill: #0072b2; stroke: #0072b2"/>
     <use xlink:href="#m90921e9bb4" x="231.726416" y="232.622619" style="fill: #0072b2; stroke: #0072b2"/>
     <use xlink:href="#m90921e9bb4" x="265.014728" y="232.960034" style="fill: #0072b2; stroke: #0072b2"/>
     <use xlink:href="#m90921e9bb4" x="298.30304" y="233.016502" style="fill: #0072b2; stroke: #0072b2"/>
     <use xlink:href="#m90921e9bb4" x="331.591351" y="233.044165" style="fill: #0072b2; stroke: #0072b2"/>
     <use xlink:href="#m90921e9bb4" x="364.879663" y="233.063198" style="fill: #0072b2; stroke: #0072b2"/>
     <use xlink:href="#m90921e9bb4" x="398.167975" y="233.046391" style="fill: #0072b2; stroke: #0072b2"/>
     <use xlink:href="#m90921e9bb4" x="431.456287" y="233.087524" style="fill: #0072b2; stroke: #0072b2"/>
     <use xlink:href="#m90921e9bb4" x="464.744598" y="233.081691" style="fill: #0072b2; stroke: #0072b2"/>
     <use xlink:href="#m90921e9bb4" x="498.03291" y="233.083089" style="fill: #0072b2; stroke: #0072b2"/>
     <use xlink:href="#m90921e9bb4" x="531.321222" y="233.083919" style="fill: #0072b2; stroke: #0072b2"/>
     <use xlink:href="#m90921e9bb4" x="560.448494" y="233.082728" style="fill: #0072b2; stroke: #0072b2"/>
    </g>
   </g>
   <g id="line2d_65">
    <path d="M 98.57317 209.429035 
L 131.861481 219.920965 
L 165.149793 275.52445 
L 198.438105 282.186114 
L 231.726416 282.218014 
L 265.014728 282.221992 
L 298.30304 282.191433 
L 331.591351 282.226475 
L 364.879663 282.223369 
L 398.167975 282.220848 
L 431.456287 282.235253 
L 464.744598 282.244436 
L 498.03291 282.241292 
L 531.321222 282.242871 
L 560.448494 282.243511 
" clip-path="url(#p2bf5353a0a)" style="fill: none"/>
    <defs>
     <path id="mdaaaf7caf1" d="M -2.5 2.5 
L 2.5 2.5 
L 2.5 -2.5 
L -2.5 -2.5 
z
" style="stroke: #d55e00; stroke-linejoin: miter"/>
    </defs>
    <g clip-path="url(#p2bf5353a0a)">
     <use xlink:href="#mdaaaf7caf1" x="98.57317" y="209.429035" style="fill: #d55e00; stroke: #d55e00; stroke-linejoin: miter"/>
     <use xlink:href="#mdaaaf7caf1" x="131.861481" y="219.920965" style="fill: #d55e00; stroke: #d55e00; stroke-linejoin: miter"/>
     <use xlink:href="#mdaaaf7caf1" x="165.149793" y="275.52445" style="fill: #d55e00; stroke: #d55e00; stroke-linejoin: miter"/>
     <use xlink:href="#mdaaaf7caf1" x="198.438105" y="282.186114" style="fill: #d55e00; stroke: #d55e00; stroke-linejoin: miter"/>
     <use xlink:href="#mdaaaf7caf1" x="231.726416" y="282.218014" style="fill: #d55e00; stroke: #d55e00; stroke-linejoin: miter"/>
     <use xlink:href="#mdaaaf7caf1" x="265.014728" y="282.221992" style="fill: #d55e00; stroke: #d55e00; stroke-linejoin: miter"/>
     <use xlink:href="#mdaaaf7caf1" x="298.30304" y="282.191433" style="fill: #d55e00; stroke: #d55e00; stroke-linejoin: miter"/>
     <use xlink:href="#mdaaaf7caf1" x="331.591351" y="282.226475" style="fill: #d55e00; stroke: #d55e00; stroke-linejoin: miter"/>
     <use xlink:href="#mdaaaf7caf1" x="364.879663" y="282.223369" style="fill: #d55e00; stroke: #d55e00; stroke-linejoin: miter"/>
     <use xlink:href="#mdaaaf7caf1" x="398.167975" y="282.220848" style="fill: #d55e00; stroke: #d55e00; stroke-linejoin: miter"/>
     <use xlink:href="#mdaaaf7caf1" x="431.456287" y="282.235253" style="fill: #d55e00; stroke: #d55e00; stroke-linejoin: miter"/>
     <use xlink:href="#mdaaaf7caf1" x="464.744598" y="282.244436" style="fill: #d55e00; stroke: #d55e00; stroke-linejoin: miter"/>
     <use xlink:href="#mdaaaf7caf1" x="498.03291" y="282.241292" style="fill: #d55e00; stroke: #d55e00; stroke-linejoin: miter"/>
     <use xlink:href="#mdaaaf7caf1" x="531.321222" y="282.242871" style="fill: #d55e00; stroke: #d55e00; stroke-linejoin: miter"/>
     <use xlink:href="#mdaaaf7caf1" x="560.448494" y="282.243511" style="fill: #d55e00; stroke: #d55e00; stroke-linejoin: miter"/>
    </g>
   </g>
   <g id="line2d_66">
    <path d="M 94.412131 282.243511 
L 127.700442 282.203787 
L 160.988754 282.155203 
L 194.277066 282.195396 
L 227.565377 282.178356 
L 260.853689 282.20146 
L 294.142001 282.202254 
L 327.430313 282.16825 
L 360.718624 282.22885 
L 394.006936 282.222856 
L 427.295248 282.228309 
L 460.583559 282.224363 
L 493.871871 282.230854 
L 527.160183 282.234407 
L 560.448494 282.238604 
" clip-path="url(#p2bf5353a0a)" style="fill: none"/>
    <defs>
     <path id="mee7806b0e4" d="M 0 -2.5 
L -2.5 2.5 
L 2.5 2.5 
z
" style="stroke: #009e73; stroke-linejoin: miter"/>
    </defs>
    <g clip-path="url(#p2bf5353a0a)">
     <use xlink:href="#mee7806b0e4" x="94.412131" y="282.243511" style="fill: #009e73; stroke: #009e73; stroke-linejoin: miter"/>
     <use xlink:href="#mee7806b0e4" x="127.700442" y="282.203787" style="fill: #009e73; stroke: #009e73; stroke-linejoin: miter"/>
     <use xlink:href="#mee7806b0e4" x="160.988754" y="282.155203" style="fill: #009e73; stroke: #009e73; stroke-linejoin: miter"/>
     <use xlink:href="#mee7806b0e4" x="194.277066" y="282.195396" style="fill: #009e73; stroke: #009e73; stroke-linejoin: miter"/>
     <use xlink:href="#mee7806b0e4" x="227.565377" y="282.178356" style="fill: #009e73; stroke: #009e73; stroke-linejoin: miter"/>
     <use xlink:href="#mee7806b0e4" x="260.853689" y="282.20146" style="fill: #009e73; stroke: #009e73; stroke-linejoin: miter"/>
     <use xlink:href="#mee7806b0e4" x="294.142001" y="282.202254" style="fill: #009e73; stroke: #009e73; stroke-linejoin: miter"/>
     <use xlink:href="#mee7806b0e4" x="327.430313" y="282.16825" style="fill: #009e73; stroke: #009e73; stroke-linejoin: miter"/>
     <use xlink:href="#mee7806b0e4" x="360.718624" y="282.22885" style="fill: #009e73; stroke: #009e73; stroke-linejoin: miter"/>
     <use xlink:href="#mee7806b0e4" x="394.006936" y="282.222856" style="fill: #009e73; stroke: #009e73; stroke-linejoin: miter"/>
     <use xlink:href="#mee7806b0e4" x="427.295248" y="282.228309" style="fill: #009e73; stroke: #009e73; stroke-linejoin: miter"/>
     <use xlink:href="#mee7806b0e4" x="460.583559" y="282.224363" style="fill: #009e73; stroke: #009e73; stroke-linejoin: miter"/>
     <use xlink:href="#mee7806b0e4" x="493.871871" y="282.230854" style="fill: #009e73; stroke: #009e73; stroke-linejoin: miter"/>
     <use xlink:href="#mee7806b0e4" x="527.160183" y="282.234407" style="fill: #009e73; stroke: #009e73; stroke-linejoin: miter"/>
     <use xlink:href="#mee7806b0e4" x="560.448494" y="282.238604" style="fill: #009e73; stroke: #009e73; stroke-linejoin: miter"/>
    </g>
   </g>
   <g id="legend_1">
    <g id="patch_5">
     <path d="M 419.527813 50.2325 
L 578.150313 50.2325 
Q 579.750313 50.2325 579.750313 48.6325 
L 579.750313 12.8 
Q 579.750313 11.2 578.150313 11.2 
L 419.527813 11.2 
Q 417.927813 11.2 417.927813 12.8 
L 417.927813 48.6325 
Q 417.927813 50.2325 419.527813 50.2325 
z
" style="fill: #ffffff; opacity: 0.85; stroke: #cccccc; stroke-linejoin: miter"/>
    </g>
    <g id="line2d_67">
     <path d="M 421.127813 17.99875 
L 430.727813 17.99875 
L 440.327813 17.99875 
" style="fill: none; stroke: #0072b2; stroke-opacity: 0.9; stroke-width: 1.6; stroke-linecap: square"/>
    </g>
    <g id="text_16">
     <!-- `qft` (random init) -->
     <g transform="translate(446.727813 20.79875) scale(0.08 -0.08)">
      <defs>
       <path id="DejaVuSans-60" d="M 1147 5119 
L 2028 3950 
L 1550 3950 
L 531 5119 
L 1147 5119 
z
" transform="scale(0.015625)"/>
       <path id="DejaVuSans-71" d="M 947 1747 
Q 947 1113 1208 752 
Q 1469 391 1925 391 
Q 2381 391 2643 752 
Q 2906 1113 2906 1747 
Q 2906 2381 2643 2742 
Q 2381 3103 1925 3103 
Q 1469 3103 1208 2742 
Q 947 2381 947 1747 
z
M 2906 525 
Q 2725 213 2448 61 
Q 2172 -91 1784 -91 
Q 1150 -91 751 415 
Q 353 922 353 1747 
Q 353 2572 751 3078 
Q 1150 3584 1784 3584 
Q 2172 3584 2448 3432 
Q 2725 3281 2906 2969 
L 2906 3500 
L 3481 3500 
L 3481 -1331 
L 2906 -1331 
L 2906 525 
z
" transform="scale(0.015625)"/>
       <path id="DejaVuSans-66" d="M 2375 4863 
L 2375 4384 
L 1825 4384 
Q 1516 4384 1395 4259 
Q 1275 4134 1275 3809 
L 1275 3500 
L 2222 3500 
L 2222 3053 
L 1275 3053 
L 1275 0 
L 697 0 
L 697 3053 
L 147 3053 
L 147 3500 
L 697 3500 
L 697 3744 
Q 697 4328 969 4595 
Q 1241 4863 1831 4863 
L 2375 4863 
z
" transform="scale(0.015625)"/>
       <path id="DejaVuSans-64" d="M 2906 2969 
L 2906 4863 
L 3481 4863 
L 3481 0 
L 2906 0 
L 2906 525 
Q 2725 213 2448 61 
Q 2172 -91 1784 -91 
Q 1150 -91 751 415 
Q 353 922 353 1747 
Q 353 2572 751 3078 
Q 1150 3584 1784 3584 
Q 2172 3584 2448 3432 
Q 2725 3281 2906 2969 
z
M 947 1747 
Q 947 1113 1208 752 
Q 1469 391 1925 391 
Q 2381 391 2643 752 
Q 2906 1113 2906 1747 
Q 2906 2381 2643 2742 
Q 2381 3103 1925 3103 
Q 1469 3103 1208 2742 
Q 947 2381 947 1747 
z
" transform="scale(0.015625)"/>
       <path id="DejaVuSans-6d" d="M 3328 2828 
Q 3544 3216 3844 3400 
Q 4144 3584 4550 3584 
Q 5097 3584 5394 3201 
Q 5691 2819 5691 2113 
L 5691 0 
L 5113 0 
L 5113 2094 
Q 5113 2597 4934 2840 
Q 4756 3084 4391 3084 
Q 3944 3084 3684 2787 
Q 3425 2491 3425 1978 
L 3425 0 
L 2847 0 
L 2847 2094 
Q 2847 2600 2669 2842 
Q 2491 3084 2119 3084 
Q 1678 3084 1418 2786 
Q 1159 2488 1159 1978 
L 1159 0 
L 581 0 
L 581 3500 
L 1159 3500 
L 1159 2956 
Q 1356 3278 1631 3431 
Q 1906 3584 2284 3584 
Q 2666 3584 2933 3390 
Q 3200 3197 3328 2828 
z
" transform="scale(0.015625)"/>
      </defs>
      <use xlink:href="#DejaVuSans-60"/>
      <use xlink:href="#DejaVuSans-71" transform="translate(50 0)"/>
      <use xlink:href="#DejaVuSans-66" transform="translate(113.476562 0)"/>
      <use xlink:href="#DejaVuSans-74" transform="translate(146.931641 0)"/>
      <use xlink:href="#DejaVuSans-60" transform="translate(186.140625 0)"/>
      <use xlink:href="#DejaVuSans-20" transform="translate(236.140625 0)"/>
      <use xlink:href="#DejaVuSans-28" transform="translate(267.927734 0)"/>
      <use xlink:href="#DejaVuSans-72" transform="translate(306.941406 0)"/>
      <use xlink:href="#DejaVuSans-61" transform="translate(348.054688 0)"/>
      <use xlink:href="#DejaVuSans-6e" transform="translate(409.333984 0)"/>
      <use xlink:href="#DejaVuSans-64" transform="translate(472.712891 0)"/>
      <use xlink:href="#DejaVuSans-6f" transform="translate(536.189453 0)"/>
      <use xlink:href="#DejaVuSans-6d" transform="translate(597.371094 0)"/>
      <use xlink:href="#DejaVuSans-20" transform="translate(694.783203 0)"/>
      <use xlink:href="#DejaVuSans-69" transform="translate(726.570312 0)"/>
      <use xlink:href="#DejaVuSans-6e" transform="translate(754.353516 0)"/>
      <use xlink:href="#DejaVuSans-69" transform="translate(817.732422 0)"/>
      <use xlink:href="#DejaVuSans-74" transform="translate(845.515625 0)"/>
      <use xlink:href="#DejaVuSans-29" transform="translate(884.724609 0)"/>
     </g>
    </g>
    <g id="line2d_68">
     <path d="M 421.127813 30.06125 
L 430.727813 30.06125 
L 440.327813 30.06125 
" style="fill: none; stroke: #d55e00; stroke-opacity: 0.9; stroke-width: 1.6; stroke-linecap: square"/>
    </g>
    <g id="text_17">
     <!-- `blocked_8` (warm-start source) -->
     <g transform="translate(446.727813 32.86125) scale(0.08 -0.08)">
      <defs>
       <path id="DejaVuSans-6b" d="M 581 4863 
L 1159 4863 
L 1159 1991 
L 2875 3500 
L 3609 3500 
L 1753 1863 
L 3688 0 
L 2938 0 
L 1159 1709 
L 1159 0 
L 581 0 
L 581 4863 
z
" transform="scale(0.015625)"/>
       <path id="DejaVuSans-5f" d="M 3263 -1063 
L 3263 -1509 
L -63 -1509 
L -63 -1063 
L 3263 -1063 
z
" transform="scale(0.015625)"/>
       <path id="DejaVuSans-77" d="M 269 3500 
L 844 3500 
L 1563 769 
L 2278 3500 
L 2956 3500 
L 3675 769 
L 4391 3500 
L 4966 3500 
L 4050 0 
L 3372 0 
L 2619 2869 
L 1863 0 
L 1184 0 
L 269 3500 
z
" transform="scale(0.015625)"/>
       <path id="DejaVuSans-2d" d="M 313 2009 
L 1997 2009 
L 1997 1497 
L 313 1497 
L 313 2009 
z
" transform="scale(0.015625)"/>
      </defs>
      <use xlink:href="#DejaVuSans-60"/>
      <use xlink:href="#DejaVuSans-62" transform="translate(50 0)"/>
      <use xlink:href="#DejaVuSans-6c" transform="translate(113.476562 0)"/>
      <use xlink:href="#DejaVuSans-6f" transform="translate(141.259766 0)"/>
      <use xlink:href="#DejaVuSans-63" transform="translate(202.441406 0)"/>
      <use xlink:href="#DejaVuSans-6b" transform="translate(257.421875 0)"/>
      <use xlink:href="#DejaVuSans-65" transform="translate(311.707031 0)"/>
      <use xlink:href="#DejaVuSans-64" transform="translate(373.230469 0)"/>
      <use xlink:href="#DejaVuSans-5f" transform="translate(436.707031 0)"/>
      <use xlink:href="#DejaVuSans-38" transform="translate(486.707031 0)"/>
      <use xlink:href="#DejaVuSans-60" transform="translate(550.330078 0)"/>
      <use xlink:href="#DejaVuSans-20" transform="translate(600.330078 0)"/>
      <use xlink:href="#DejaVuSans-28" transform="translate(632.117188 0)"/>
      <use xlink:href="#DejaVuSans-77" transform="translate(671.130859 0)"/>
      <use xlink:href="#DejaVuSans-61" transform="translate(752.917969 0)"/>
      <use xlink:href="#DejaVuSans-72" transform="translate(814.197266 0)"/>
      <use xlink:href="#DejaVuSans-6d" transform="translate(853.560547 0)"/>
      <use xlink:href="#DejaVuSans-2d" transform="translate(950.972656 0)"/>
      <use xlink:href="#DejaVuSans-73" transform="translate(987.056641 0)"/>
      <use xlink:href="#DejaVuSans-74" transform="translate(1039.15625 0)"/>
      <use xlink:href="#DejaVuSans-61" transform="translate(1078.365234 0)"/>
      <use xlink:href="#DejaVuSans-72" transform="translate(1139.644531 0)"/>
      <use xlink:href="#DejaVuSans-74" transform="translate(1180.757812 0)"/>
      <use xlink:href="#DejaVuSans-20" transform="translate(1219.966797 0)"/>
      <use xlink:href="#DejaVuSans-73" transform="translate(1251.753906 0)"/>
      <use xlink:href="#DejaVuSans-6f" transform="translate(1303.853516 0)"/>
      <use xlink:href="#DejaVuSans-75" transform="translate(1365.035156 0)"/>
      <use xlink:href="#DejaVuSans-72" transform="translate(1428.414062 0)"/>
      <use xlink:href="#DejaVuSans-63" transform="translate(1467.277344 0)"/>
      <use xlink:href="#DejaVuSans-65" transform="translate(1522.257812 0)"/>
      <use xlink:href="#DejaVuSans-29" transform="translate(1583.78125 0)"/>
     </g>
    </g>
    <g id="line2d_69">
     <path d="M 421.127813 42.34625 
L 430.727813 42.34625 
L 440.327813 42.34625 
" style="fill: none; stroke: #009e73; stroke-opacity: 0.9; stroke-width: 1.6; stroke-linecap: square"/>
    </g>
    <g id="text_18">
     <!-- `qft_warmstart_blocked_8` -->
     <g transform="translate(446.727813 45.14625) scale(0.08 -0.08)">
      <use xlink:href="#DejaVuSans-60"/>
      <use xlink:href="#DejaVuSans-71" transform="translate(50 0)"/>
      <use xlink:href="#DejaVuSans-66" transform="translate(113.476562 0)"/>
      <use xlink:href="#DejaVuSans-74" transform="translate(146.931641 0)"/>
      <use xlink:href="#DejaVuSans-5f" transform="translate(186.140625 0)"/>
      <use xlink:href="#DejaVuSans-77" transform="translate(236.140625 0)"/>
      <use xlink:href="#DejaVuSans-61" transform="translate(317.927734 0)"/>
      <use xlink:href="#DejaVuSans-72" transform="translate(379.207031 0)"/>
      <use xlink:href="#DejaVuSans-6d" transform="translate(418.570312 0)"/>
      <use xlink:href="#DejaVuSans-73" transform="translate(515.982422 0)"/>
      <use xlink:href="#DejaVuSans-74" transform="translate(568.082031 0)"/>
      <use xlink:href="#DejaVuSans-61" transform="translate(607.291016 0)"/>
      <use xlink:href="#DejaVuSans-72" transform="translate(668.570312 0)"/>
      <use xlink:href="#DejaVuSans-74" transform="translate(709.683594 0)"/>
      <use xlink:href="#DejaVuSans-5f" transform="translate(748.892578 0)"/>
      <use xlink:href="#DejaVuSans-62" transform="translate(798.892578 0)"/>
      <use xlink:href="#DejaVuSans-6c" transform="translate(862.369141 0)"/>
      <use xlink:href="#DejaVuSans-6f" transform="translate(890.152344 0)"/>
      <use xlink:href="#DejaVuSans-63" transform="translate(951.333984 0)"/>
      <use xlink:href="#DejaVuSans-6b" transform="translate(1006.314453 0)"/>
      <use xlink:href="#DejaVuSans-65" transform="translate(1060.599609 0)"/>
      <use xlink:href="#DejaVuSans-64" transform="translate(1122.123047 0)"/>
      <use xlink:href="#DejaVuSans-5f" transform="translate(1185.599609 0)"/>
      <use xlink:href="#DejaVuSans-38" transform="translate(1235.599609 0)"/>
      <use xlink:href="#DejaVuSans-60" transform="translate(1299.222656 0)"/>
     </g>
    </g>
   </g>
  </g>
 </g>
 <defs>
  <clipPath id="p2bf5353a0a">
   <rect x="71.110313" y="7.2" width="512.64" height="288.144"/>
  </clipPath>
 </defs>
</svg>
