<?xml version="1.0" encoding="utf-8" standalone="no"?>
<!DOCTYPE svg PUBLIC "-//W3C//DTD SVG 1.1//EN"
  "http://www.w3.org/Graphics/SVG/1.1/DTD/svg11.dtd">
<svg xmlns:xlink="http://www.w3.org/1999/xlink" width="581.350312pt" height="329.996812pt" viewBox="0 0 581.350312 329.996812" xmlns="http://www.w3.org/2000/svg" version="1.1">
 <metadata>
  <rdf:RDF xmlns:dc="http://purl.org/dc/elements/1.1/" xmlns:cc="http://creativecommons.org/ns#" xmlns:rdf="http://www.w3.org/1999/02/22-rdf-syntax-ns#">
   <cc:Work>
    <dc:type rdf:resource="http://purl.org/dc/dcmitype/StillImage"/>
    <dc:date>2026-05-12T07:35:36.133536</dc:date>
    <dc:format>image/svg+xml</dc:format>
    <dc:creator>
     <cc:Agent>
      <dc:title>Matplotlib v3.10.9, https://matplotlib.org/</dc:title>
     </cc:Agent>
    </dc:creator>
   </cc:Work>
  </rdf:RDF>
 </metadata>
 <defs>
  <style type="text/css">*{stroke-linejoin: round; stroke-linecap: butt}</style>
 </defs>
 <g id="figure_1">
  <g id="patch_1">
   <path d="M 0 329.996812 
L 581.350312 329.996812 
L 581.350312 0 
L 0 0 
z
" style="fill: #ffffff"/>
  </g>
  <g id="axes_1">
   <g id="patch_2">
    <path d="M 61.510313 295.344 
L 574.150313 295.344 
L 574.150313 7.2 
L 61.510313 7.2 
z
" style="fill: #ffffff"/>
   </g>
   <g id="matplotlib.axis_1">
    <g id="xtick_1">
     <g id="line2d_1">
      <path d="M 84.812131 295.344 
L 84.812131 7.2 
" clip-path="url(#p862a14a8f2)" style="fill: none; stroke: #999999; stroke-opacity: 0.3; stroke-width: 0.5; stroke-linecap: square"/>
     </g>
     <g id="line2d_2">
      <defs>
       <path id="m76df22ccdc" d="M 0 0 
L 0 3.5 
" style="stroke: #000000; stroke-width: 0.8"/>
      </defs>
      <g>
       <use xlink:href="#m76df22ccdc" x="84.812131" y="295.344" style="stroke: #000000; stroke-width: 0.8"/>
      </g>
     </g>
     <g id="text_1">
      <!-- 0 -->
      <g transform="translate(82.267131 308.42275) scale(0.08 -0.08)">
       <defs>
        <path id="DejaVuSans-30" d="M 2034 4250 
Q 1547 4250 1301 3770 
Q 1056 3291 1056 2328 
Q 1056 1369 1301 889 
Q 1547 409 2034 409 
Q 2525 409 2770 889 
Q 3016 1369 3016 2328 
Q 3016 3291 2770 3770 
Q 2525 4250 2034 4250 
z
M 2034 4750 
Q 2819 4750 3233 4129 
Q 3647 3509 3647 2328 
Q 3647 1150 3233 529 
Q 2819 -91 2034 -91 
Q 1250 -91 836 529 
Q 422 1150 422 2328 
Q 422 3509 836 4129 
Q 1250 4750 2034 4750 
z
" transform="scale(0.015625)"/>
       </defs>
       <use xlink:href="#DejaVuSans-30"/>
      </g>
     </g>
    </g>
    <g id="xtick_2">
     <g id="line2d_3">
      <path d="M 177.279663 295.344 
L 177.279663 7.2 
" clip-path="url(#p862a14a8f2)" style="fill: none; stroke: #999999; stroke-opacity: 0.3; stroke-width: 0.5; stroke-linecap: square"/>
     </g>
     <g id="line2d_4">
      <g>
       <use xlink:href="#m76df22ccdc" x="177.279663" y="295.344" style="stroke: #000000; stroke-width: 0.8"/>
      </g>
     </g>
     <g id="text_2">
      <!-- 200 -->
      <g transform="translate(169.644663 308.42275) scale(0.08 -0.08)">
       <defs>
        <path id="DejaVuSans-32" d="M 1228 531 
L 3431 531 
L 3431 0 
L 469 0 
L 469 531 
Q 828 903 1448 1529 
Q 2069 2156 2228 2338 
Q 2531 2678 2651 2914 
Q 2772 3150 2772 3378 
Q 2772 3750 2511 3984 
Q 2250 4219 1831 4219 
Q 1534 4219 1204 4116 
Q 875 4013 500 3803 
L 500 4441 
Q 881 4594 1212 4672 
Q 1544 4750 1819 4750 
Q 2544 4750 2975 4387 
Q 3406 4025 3406 3419 
Q 3406 3131 3298 2873 
Q 3191 2616 2906 2266 
Q 2828 2175 2409 1742 
Q 1991 1309 1228 531 
z
" transform="scale(0.015625)"/>
       </defs>
       <use xlink:href="#DejaVuSans-32"/>
       <use xlink:href="#DejaVuSans-30" transform="translate(63.623047 0)"/>
       <use xlink:href="#DejaVuSans-30" transform="translate(127.246094 0)"/>
      </g>
     </g>
    </g>
    <g id="xtick_3">
     <g id="line2d_5">
      <path d="M 269.747196 295.344 
L 269.747196 7.2 
" clip-path="url(#p862a14a8f2)" style="fill: none; stroke: #999999; stroke-opacity: 0.3; stroke-width: 0.5; stroke-linecap: square"/>
     </g>
     <g id="line2d_6">
      <g>
       <use xlink:href="#m76df22ccdc" x="269.747196" y="295.344" style="stroke: #000000; stroke-width: 0.8"/>
      </g>
     </g>
     <g id="text_3">
      <!-- 400 -->
      <g transform="translate(262.112196 308.42275) scale(0.08 -0.08)">
       <defs>
        <path id="DejaVuSans-34" d="M 2419 4116 
L 825 1625 
L 2419 1625 
L 2419 4116 
z
M 2253 4666 
L 3047 4666 
L 3047 1625 
L 3713 1625 
L 3713 1100 
L 3047 1100 
L 3047 0 
L 2419 0 
L 2419 1100 
L 313 1100 
L 313 1709 
L 2253 4666 
z
" transform="scale(0.015625)"/>
       </defs>
       <use xlink:href="#DejaVuSans-34"/>
       <use xlink:href="#DejaVuSans-30" transform="translate(63.623047 0)"/>
       <use xlink:href="#DejaVuSans-30" transform="translate(127.246094 0)"/>
      </g>
     </g>
    </g>
    <g id="xtick_4">
     <g id="line2d_7">
      <path d="M 362.214728 295.344 
L 362.214728 7.2 
" clip-path="url(#p862a14a8f2)" style="fill: none; stroke: #999999; stroke-opacity: 0.3; stroke-width: 0.5; stroke-linecap: square"/>
     </g>
     <g id="line2d_8">
      <g>
       <use xlink:href="#m76df22ccdc" x="362.214728" y="295.344" style="stroke: #000000; stroke-width: 0.8"/>
      </g>
     </g>
     <g id="text_4">
      <!-- 600 -->
      <g transform="translate(354.579728 308.42275) scale(0.08 -0.08)">
       <defs>
        <path id="DejaVuSans-36" d="M 2113 2584 
Q 1688 2584 1439 2293 
Q 1191 2003 1191 1497 
Q 1191 994 1439 701 
Q 1688 409 2113 409 
Q 2538 409 2786 701 
Q 3034 994 3034 1497 
Q 3034 2003 2786 2293 
Q 2538 2584 2113 2584 
z
M 3366 4563 
L 3366 3988 
Q 3128 4100 2886 4159 
Q 2644 4219 2406 4219 
Q 1781 4219 1451 3797 
Q 1122 3375 1075 2522 
Q 1259 2794 1537 2939 
Q 1816 3084 2150 3084 
Q 2853 3084 3261 2657 
Q 3669 2231 3669 1497 
Q 3669 778 3244 343 
Q 2819 -91 2113 -91 
Q 1303 -91 875 529 
Q 447 1150 447 2328 
Q 447 3434 972 4092 
Q 1497 4750 2381 4750 
Q 2619 4750 2861 4703 
Q 3103 4656 3366 4563 
z
" transform="scale(0.015625)"/>
       </defs>
       <use xlink:href="#DejaVuSans-36"/>
       <use xlink:href="#DejaVuSans-30" transform="translate(63.623047 0)"/>
       <use xlink:href="#DejaVuSans-30" transform="translate(127.246094 0)"/>
      </g>
     </g>
    </g>
    <g id="xtick_5">
     <g id="line2d_9">
      <path d="M 454.682261 295.344 
L 454.682261 7.2 
" clip-path="url(#p862a14a8f2)" style="fill: none; stroke: #999999; stroke-opacity: 0.3; stroke-width: 0.5; stroke-linecap: square"/>
     </g>
     <g id="line2d_10">
      <g>
       <use xlink:href="#m76df22ccdc" x="454.682261" y="295.344" style="stroke: #000000; stroke-width: 0.8"/>
      </g>
     </g>
     <g id="text_5">
      <!-- 800 -->
      <g transform="translate(447.047261 308.42275) scale(0.08 -0.08)">
       <defs>
        <path id="DejaVuSans-38" d="M 2034 2216 
Q 1584 2216 1326 1975 
Q 1069 1734 1069 1313 
Q 1069 891 1326 650 
Q 1584 409 2034 409 
Q 2484 409 2743 651 
Q 3003 894 3003 1313 
Q 3003 1734 2745 1975 
Q 2488 2216 2034 2216 
z
M 1403 2484 
Q 997 2584 770 2862 
Q 544 3141 544 3541 
Q 544 4100 942 4425 
Q 1341 4750 2034 4750 
Q 2731 4750 3128 4425 
Q 3525 4100 3525 3541 
Q 3525 3141 3298 2862 
Q 3072 2584 2669 2484 
Q 3125 2378 3379 2068 
Q 3634 1759 3634 1313 
Q 3634 634 3220 271 
Q 2806 -91 2034 -91 
Q 1263 -91 848 271 
Q 434 634 434 1313 
Q 434 1759 690 2068 
Q 947 2378 1403 2484 
z
M 1172 3481 
Q 1172 3119 1398 2916 
Q 1625 2713 2034 2713 
Q 2441 2713 2670 2916 
Q 2900 3119 2900 3481 
Q 2900 3844 2670 4047 
Q 2441 4250 2034 4250 
Q 1625 4250 1398 4047 
Q 1172 3844 1172 3481 
z
" transform="scale(0.015625)"/>
       </defs>
       <use xlink:href="#DejaVuSans-38"/>
       <use xlink:href="#DejaVuSans-30" transform="translate(63.623047 0)"/>
       <use xlink:href="#DejaVuSans-30" transform="translate(127.246094 0)"/>
      </g>
     </g>
    </g>
    <g id="xtick_6">
     <g id="line2d_11">
      <path d="M 547.149793 295.344 
L 547.149793 7.2 
" clip-path="url(#p862a14a8f2)" style="fill: none; stroke: #999999; stroke-opacity: 0.3; stroke-width: 0.5; stroke-linecap: square"/>
     </g>
     <g id="line2d_12">
      <g>
       <use xlink:href="#m76df22ccdc" x="547.149793" y="295.344" style="stroke: #000000; stroke-width: 0.8"/>
      </g>
     </g>
     <g id="text_6">
      <!-- 1000 -->
      <g transform="translate(536.969793 308.42275) scale(0.08 -0.08)">
       <defs>
        <path id="DejaVuSans-31" d="M 794 531 
L 1825 531 
L 1825 4091 
L 703 3866 
L 703 4441 
L 1819 4666 
L 2450 4666 
L 2450 531 
L 3481 531 
L 3481 0 
L 794 0 
L 794 531 
z
" transform="scale(0.015625)"/>
       </defs>
       <use xlink:href="#DejaVuSans-31"/>
       <use xlink:href="#DejaVuSans-30" transform="translate(63.623047 0)"/>
       <use xlink:href="#DejaVuSans-30" transform="translate(127.246094 0)"/>
       <use xlink:href="#DejaVuSans-30" transform="translate(190.869141 0)"/>
      </g>
     </g>
    </g>
    <g id="xtick_7">
     <g id="line2d_13">
      <path d="M 61.695248 295.344 
L 61.695248 7.2 
" clip-path="url(#p862a14a8f2)" style="fill: none; stroke: #bbbbbb; stroke-opacity: 0.15; stroke-width: 0.3; stroke-linecap: square"/>
     </g>
     <g id="line2d_14">
      <defs>
       <path id="m5035d6c227" d="M 0 0 
L 0 2 
" style="stroke: #000000; stroke-width: 0.6"/>
      </defs>
      <g>
       <use xlink:href="#m5035d6c227" x="61.695248" y="295.344" style="stroke: #000000; stroke-width: 0.6"/>
      </g>
     </g>
    </g>
    <g id="xtick_8">
     <g id="line2d_15">
      <path d="M 107.929014 295.344 
L 107.929014 7.2 
" clip-path="url(#p862a14a8f2)" style="fill: none; stroke: #bbbbbb; stroke-opacity: 0.15; stroke-width: 0.3; stroke-linecap: square"/>
     </g>
     <g id="line2d_16">
      <g>
       <use xlink:href="#m5035d6c227" x="107.929014" y="295.344" style="stroke: #000000; stroke-width: 0.6"/>
      </g>
     </g>
    </g>
    <g id="xtick_9">
     <g id="line2d_17">
      <path d="M 131.045897 295.344 
L 131.045897 7.2 
" clip-path="url(#p862a14a8f2)" style="fill: none; stroke: #bbbbbb; stroke-opacity: 0.15; stroke-width: 0.3; stroke-linecap: square"/>
     </g>
     <g id="line2d_18">
      <g>
       <use xlink:href="#m5035d6c227" x="131.045897" y="295.344" style="stroke: #000000; stroke-width: 0.6"/>
      </g>
     </g>
    </g>
    <g id="xtick_10">
     <g id="line2d_19">
      <path d="M 154.16278 295.344 
L 154.16278 7.2 
" clip-path="url(#p862a14a8f2)" style="fill: none; stroke: #bbbbbb; stroke-opacity: 0.15; stroke-width: 0.3; stroke-linecap: square"/>
     </g>
     <g id="line2d_20">
      <g>
       <use xlink:href="#m5035d6c227" x="154.16278" y="295.344" style="stroke: #000000; stroke-width: 0.6"/>
      </g>
     </g>
    </g>
    <g id="xtick_11">
     <g id="line2d_21">
      <path d="M 200.396546 295.344 
L 200.396546 7.2 
" clip-path="url(#p862a14a8f2)" style="fill: none; stroke: #bbbbbb; stroke-opacity: 0.15; stroke-width: 0.3; stroke-linecap: square"/>
     </g>
     <g id="line2d_22">
      <g>
       <use xlink:href="#m5035d6c227" x="200.396546" y="295.344" style="stroke: #000000; stroke-width: 0.6"/>
      </g>
     </g>
    </g>
    <g id="xtick_12">
     <g id="line2d_23">
      <path d="M 223.513429 295.344 
L 223.513429 7.2 
" clip-path="url(#p862a14a8f2)" style="fill: none; stroke: #bbbbbb; stroke-opacity: 0.15; stroke-width: 0.3; stroke-linecap: square"/>
     </g>
     <g id="line2d_24">
      <g>
       <use xlink:href="#m5035d6c227" x="223.513429" y="295.344" style="stroke: #000000; stroke-width: 0.6"/>
      </g>
     </g>
    </g>
    <g id="xtick_13">
     <g id="line2d_25">
      <path d="M 246.630312 295.344 
L 246.630312 7.2 
" clip-path="url(#p862a14a8f2)" style="fill: none; stroke: #bbbbbb; stroke-opacity: 0.15; stroke-width: 0.3; stroke-linecap: square"/>
     </g>
     <g id="line2d_26">
      <g>
       <use xlink:href="#m5035d6c227" x="246.630312" y="295.344" style="stroke: #000000; stroke-width: 0.6"/>
      </g>
     </g>
    </g>
    <g id="xtick_14">
     <g id="line2d_27">
      <path d="M 292.864079 295.344 
L 292.864079 7.2 
" clip-path="url(#p862a14a8f2)" style="fill: none; stroke: #bbbbbb; stroke-opacity: 0.15; stroke-width: 0.3; stroke-linecap: square"/>
     </g>
     <g id="line2d_28">
      <g>
       <use xlink:href="#m5035d6c227" x="292.864079" y="295.344" style="stroke: #000000; stroke-width: 0.6"/>
      </g>
     </g>
    </g>
    <g id="xtick_15">
     <g id="line2d_29">
      <path d="M 315.980962 295.344 
L 315.980962 7.2 
" clip-path="url(#p862a14a8f2)" style="fill: none; stroke: #bbbbbb; stroke-opacity: 0.15; stroke-width: 0.3; stroke-linecap: square"/>
     </g>
     <g id="line2d_30">
      <g>
       <use xlink:href="#m5035d6c227" x="315.980962" y="295.344" style="stroke: #000000; stroke-width: 0.6"/>
      </g>
     </g>
    </g>
    <g id="xtick_16">
     <g id="line2d_31">
      <path d="M 339.097845 295.344 
L 339.097845 7.2 
" clip-path="url(#p862a14a8f2)" style="fill: none; stroke: #bbbbbb; stroke-opacity: 0.15; stroke-width: 0.3; stroke-linecap: square"/>
     </g>
     <g id="line2d_32">
      <g>
       <use xlink:href="#m5035d6c227" x="339.097845" y="295.344" style="stroke: #000000; stroke-width: 0.6"/>
      </g>
     </g>
    </g>
    <g id="xtick_17">
     <g id="line2d_33">
      <path d="M 385.331611 295.344 
L 385.331611 7.2 
" clip-path="url(#p862a14a8f2)" style="fill: none; stroke: #bbbbbb; stroke-opacity: 0.15; stroke-width: 0.3; stroke-linecap: square"/>
     </g>
     <g id="line2d_34">
      <g>
       <use xlink:href="#m5035d6c227" x="385.331611" y="295.344" style="stroke: #000000; stroke-width: 0.6"/>
      </g>
     </g>
    </g>
    <g id="xtick_18">
     <g id="line2d_35">
      <path d="M 408.448494 295.344 
L 408.448494 7.2 
" clip-path="url(#p862a14a8f2)" style="fill: none; stroke: #bbbbbb; stroke-opacity: 0.15; stroke-width: 0.3; stroke-linecap: square"/>
     </g>
     <g id="line2d_36">
      <g>
       <use xlink:href="#m5035d6c227" x="408.448494" y="295.344" style="stroke: #000000; stroke-width: 0.6"/>
      </g>
     </g>
    </g>
    <g id="xtick_19">
     <g id="line2d_37">
      <path d="M 431.565377 295.344 
L 431.565377 7.2 
" clip-path="url(#p862a14a8f2)" style="fill: none; stroke: #bbbbbb; stroke-opacity: 0.15; stroke-width: 0.3; stroke-linecap: square"/>
     </g>
     <g id="line2d_38">
      <g>
       <use xlink:href="#m5035d6c227" x="431.565377" y="295.344" style="stroke: #000000; stroke-width: 0.6"/>
      </g>
     </g>
    </g>
    <g id="xtick_20">
     <g id="line2d_39">
      <path d="M 477.799144 295.344 
L 477.799144 7.2 
" clip-path="url(#p862a14a8f2)" style="fill: none; stroke: #bbbbbb; stroke-opacity: 0.15; stroke-width: 0.3; stroke-linecap: square"/>
     </g>
     <g id="line2d_40">
      <g>
       <use xlink:href="#m5035d6c227" x="477.799144" y="295.344" style="stroke: #000000; stroke-width: 0.6"/>
      </g>
     </g>
    </g>
    <g id="xtick_21">
     <g id="line2d_41">
      <path d="M 500.916027 295.344 
L 500.916027 7.2 
" clip-path="url(#p862a14a8f2)" style="fill: none; stroke: #bbbbbb; stroke-opacity: 0.15; stroke-width: 0.3; stroke-linecap: square"/>
     </g>
     <g id="line2d_42">
      <g>
       <use xlink:href="#m5035d6c227" x="500.916027" y="295.344" style="stroke: #000000; stroke-width: 0.6"/>
      </g>
     </g>
    </g>
    <g id="xtick_22">
     <g id="line2d_43">
      <path d="M 524.03291 295.344 
L 524.03291 7.2 
" clip-path="url(#p862a14a8f2)" style="fill: none; stroke: #bbbbbb; stroke-opacity: 0.15; stroke-width: 0.3; stroke-linecap: square"/>
     </g>
     <g id="line2d_44">
      <g>
       <use xlink:href="#m5035d6c227" x="524.03291" y="295.344" style="stroke: #000000; stroke-width: 0.6"/>
      </g>
     </g>
    </g>
    <g id="xtick_23">
     <g id="line2d_45">
      <path d="M 570.266676 295.344 
L 570.266676 7.2 
" clip-path="url(#p862a14a8f2)" style="fill: none; stroke: #bbbbbb; stroke-opacity: 0.15; stroke-width: 0.3; stroke-linecap: square"/>
     </g>
     <g id="line2d_46">
      <g>
       <use xlink:href="#m5035d6c227" x="570.266676" y="295.344" style="stroke: #000000; stroke-width: 0.6"/>
      </g>
     </g>
    </g>
    <g id="text_7">
     <!-- training step -->
     <g transform="translate(289.233516 320.925094) scale(0.09 -0.09)">
      <defs>
       <path id="DejaVuSans-74" d="M 1172 4494 
L 1172 3500 
L 2356 3500 
L 2356 3053 
L 1172 3053 
L 1172 1153 
Q 1172 725 1289 603 
Q 1406 481 1766 481 
L 2356 481 
L 2356 0 
L 1766 0 
Q 1100 0 847 248 
Q 594 497 594 1153 
L 594 3053 
L 172 3053 
L 172 3500 
L 594 3500 
L 594 4494 
L 1172 4494 
z
" transform="scale(0.015625)"/>
       <path id="DejaVuSans-72" d="M 2631 2963 
Q 2534 3019 2420 3045 
Q 2306 3072 2169 3072 
Q 1681 3072 1420 2755 
Q 1159 2438 1159 1844 
L 1159 0 
L 581 0 
L 581 3500 
L 1159 3500 
L 1159 2956 
Q 1341 3275 1631 3429 
Q 1922 3584 2338 3584 
Q 2397 3584 2469 3576 
Q 2541 3569 2628 3553 
L 2631 2963 
z
" transform="scale(0.015625)"/>
       <path id="DejaVuSans-61" d="M 2194 1759 
Q 1497 1759 1228 1600 
Q 959 1441 959 1056 
Q 959 750 1161 570 
Q 1363 391 1709 391 
Q 2188 391 2477 730 
Q 2766 1069 2766 1631 
L 2766 1759 
L 2194 1759 
z
M 3341 1997 
L 3341 0 
L 2766 0 
L 2766 531 
Q 2569 213 2275 61 
Q 1981 -91 1556 -91 
Q 1019 -91 701 211 
Q 384 513 384 1019 
Q 384 1609 779 1909 
Q 1175 2209 1959 2209 
L 2766 2209 
L 2766 2266 
Q 2766 2663 2505 2880 
Q 2244 3097 1772 3097 
Q 1472 3097 1187 3025 
Q 903 2953 641 2809 
L 641 3341 
Q 956 3463 1253 3523 
Q 1550 3584 1831 3584 
Q 2591 3584 2966 3190 
Q 3341 2797 3341 1997 
z
" transform="scale(0.015625)"/>
       <path id="DejaVuSans-69" d="M 603 3500 
L 1178 3500 
L 1178 0 
L 603 0 
L 603 3500 
z
M 603 4863 
L 1178 4863 
L 1178 4134 
L 603 4134 
L 603 4863 
z
" transform="scale(0.015625)"/>
       <path id="DejaVuSans-6e" d="M 3513 2113 
L 3513 0 
L 2938 0 
L 2938 2094 
Q 2938 2591 2744 2837 
Q 2550 3084 2163 3084 
Q 1697 3084 1428 2787 
Q 1159 2491 1159 1978 
L 1159 0 
L 581 0 
L 581 3500 
L 1159 3500 
L 1159 2956 
Q 1366 3272 1645 3428 
Q 1925 3584 2291 3584 
Q 2894 3584 3203 3211 
Q 3513 2838 3513 2113 
z
" transform="scale(0.015625)"/>
       <path id="DejaVuSans-67" d="M 2906 1791 
Q 2906 2416 2648 2759 
Q 2391 3103 1925 3103 
Q 1463 3103 1205 2759 
Q 947 2416 947 1791 
Q 947 1169 1205 825 
Q 1463 481 1925 481 
Q 2391 481 2648 825 
Q 2906 1169 2906 1791 
z
M 3481 434 
Q 3481 -459 3084 -895 
Q 2688 -1331 1869 -1331 
Q 1566 -1331 1297 -1286 
Q 1028 -1241 775 -1147 
L 775 -588 
Q 1028 -725 1275 -790 
Q 1522 -856 1778 -856 
Q 2344 -856 2625 -561 
Q 2906 -266 2906 331 
L 2906 616 
Q 2728 306 2450 153 
Q 2172 0 1784 0 
Q 1141 0 747 490 
Q 353 981 353 1791 
Q 353 2603 747 3093 
Q 1141 3584 1784 3584 
Q 2172 3584 2450 3431 
Q 2728 3278 2906 2969 
L 2906 3500 
L 3481 3500 
L 3481 434 
z
" transform="scale(0.015625)"/>
       <path id="DejaVuSans-20" transform="scale(0.015625)"/>
       <path id="DejaVuSans-73" d="M 2834 3397 
L 2834 2853 
Q 2591 2978 2328 3040 
Q 2066 3103 1784 3103 
Q 1356 3103 1142 2972 
Q 928 2841 928 2578 
Q 928 2378 1081 2264 
Q 1234 2150 1697 2047 
L 1894 2003 
Q 2506 1872 2764 1633 
Q 3022 1394 3022 966 
Q 3022 478 2636 193 
Q 2250 -91 1575 -91 
Q 1294 -91 989 -36 
Q 684 19 347 128 
L 347 722 
Q 666 556 975 473 
Q 1284 391 1588 391 
Q 1994 391 2212 530 
Q 2431 669 2431 922 
Q 2431 1156 2273 1281 
Q 2116 1406 1581 1522 
L 1381 1569 
Q 847 1681 609 1914 
Q 372 2147 372 2553 
Q 372 3047 722 3315 
Q 1072 3584 1716 3584 
Q 2034 3584 2315 3537 
Q 2597 3491 2834 3397 
z
" transform="scale(0.015625)"/>
       <path id="DejaVuSans-65" d="M 3597 1894 
L 3597 1613 
L 953 1613 
Q 991 1019 1311 708 
Q 1631 397 2203 397 
Q 2534 397 2845 478 
Q 3156 559 3463 722 
L 3463 178 
Q 3153 47 2828 -22 
Q 2503 -91 2169 -91 
Q 1331 -91 842 396 
Q 353 884 353 1716 
Q 353 2575 817 3079 
Q 1281 3584 2069 3584 
Q 2775 3584 3186 3129 
Q 3597 2675 3597 1894 
z
M 3022 2063 
Q 3016 2534 2758 2815 
Q 2500 3097 2075 3097 
Q 1594 3097 1305 2825 
Q 1016 2553 972 2059 
L 3022 2063 
z
" transform="scale(0.015625)"/>
       <path id="DejaVuSans-70" d="M 1159 525 
L 1159 -1331 
L 581 -1331 
L 581 3500 
L 1159 3500 
L 1159 2969 
Q 1341 3281 1617 3432 
Q 1894 3584 2278 3584 
Q 2916 3584 3314 3078 
Q 3713 2572 3713 1747 
Q 3713 922 3314 415 
Q 2916 -91 2278 -91 
Q 1894 -91 1617 61 
Q 1341 213 1159 525 
z
M 3116 1747 
Q 3116 2381 2855 2742 
Q 2594 3103 2138 3103 
Q 1681 3103 1420 2742 
Q 1159 2381 1159 1747 
Q 1159 1113 1420 752 
Q 1681 391 2138 391 
Q 2594 391 2855 752 
Q 3116 1113 3116 1747 
z
" transform="scale(0.015625)"/>
      </defs>
      <use xlink:href="#DejaVuSans-74"/>
      <use xlink:href="#DejaVuSans-72" transform="translate(39.208984 0)"/>
      <use xlink:href="#DejaVuSans-61" transform="translate(80.322266 0)"/>
      <use xlink:href="#DejaVuSans-69" transform="translate(141.601562 0)"/>
      <use xlink:href="#DejaVuSans-6e" transform="translate(169.384766 0)"/>
      <use xlink:href="#DejaVuSans-69" transform="translate(232.763672 0)"/>
      <use xlink:href="#DejaVuSans-6e" transform="translate(260.546875 0)"/>
      <use xlink:href="#DejaVuSans-67" transform="translate(323.925781 0)"/>
      <use xlink:href="#DejaVuSans-20" transform="translate(387.402344 0)"/>
      <use xlink:href="#DejaVuSans-73" transform="translate(419.189453 0)"/>
      <use xlink:href="#DejaVuSans-74" transform="translate(471.289062 0)"/>
      <use xlink:href="#DejaVuSans-65" transform="translate(510.498047 0)"/>
      <use xlink:href="#DejaVuSans-70" transform="translate(572.021484 0)"/>
     </g>
    </g>
   </g>
   <g id="matplotlib.axis_2">
    <g id="ytick_1">
     <g id="line2d_47">
      <path d="M 61.510313 251.87872 
L 574.150313 251.87872 
" clip-path="url(#p862a14a8f2)" style="fill: none; stroke: #999999; stroke-opacity: 0.3; stroke-width: 0.5; stroke-linecap: square"/>
     </g>
     <g id="line2d_48">
      <defs>
       <path id="m6117023c6e" d="M 0 0 
L -3.5 0 
" style="stroke: #000000; stroke-width: 0.8"/>
      </defs>
      <g>
       <use xlink:href="#m6117023c6e" x="61.510313" y="251.87872" style="stroke: #000000; stroke-width: 0.8"/>
      </g>
     </g>
     <g id="text_8">
      <!-- $\mathdefault{10^{1}}$ -->
      <g transform="translate(40.430313 254.918095) scale(0.08 -0.08)">
       <use xlink:href="#DejaVuSans-31" transform="translate(0 0.684375)"/>
       <use xlink:href="#DejaVuSans-30" transform="translate(63.623047 0.684375)"/>
       <use xlink:href="#DejaVuSans-31" transform="translate(128.203125 38.965625) scale(0.7)"/>
      </g>
     </g>
    </g>
    <g id="ytick_2">
     <g id="line2d_49">
      <path d="M 61.510313 274.331691 
L 574.150313 274.331691 
" clip-path="url(#p862a14a8f2)" style="fill: none; stroke: #bbbbbb; stroke-opacity: 0.15; stroke-width: 0.3; stroke-linecap: square"/>
     </g>
     <g id="line2d_50">
      <defs>
       <path id="m85985077c0" d="M 0 0 
L -2 0 
" style="stroke: #000000; stroke-width: 0.6"/>
      </defs>
      <g>
       <use xlink:href="#m85985077c0" x="61.510313" y="274.331691" style="stroke: #000000; stroke-width: 0.6"/>
      </g>
     </g>
    </g>
    <g id="ytick_3">
     <g id="line2d_51">
      <path d="M 61.510313 104.164812 
L 574.150313 104.164812 
" clip-path="url(#p862a14a8f2)" style="fill: none; stroke: #bbbbbb; stroke-opacity: 0.15; stroke-width: 0.3; stroke-linecap: square"/>
     </g>
     <g id="line2d_52">
      <g>
       <use xlink:href="#m85985077c0" x="61.510313" y="104.164812" style="stroke: #000000; stroke-width: 0.6"/>
      </g>
     </g>
     <g id="text_9">
      <!-- $\mathdefault{2\times10^{1}}$ -->
      <g transform="translate(19.910313 107.96403) scale(0.1 -0.1)">
       <defs>
        <path id="DejaVuSans-d7" d="M 4488 3438 
L 3059 2003 
L 4488 575 
L 4116 197 
L 2681 1631 
L 1247 197 
L 878 575 
L 2303 2003 
L 878 3438 
L 1247 3816 
L 2681 2381 
L 4116 3816 
L 4488 3438 
z
" transform="scale(0.015625)"/>
       </defs>
       <use xlink:href="#DejaVuSans-32" transform="translate(0 0.684375)"/>
       <use xlink:href="#DejaVuSans-d7" transform="translate(83.105469 0.684375)"/>
       <use xlink:href="#DejaVuSans-31" transform="translate(186.376953 0.684375)"/>
       <use xlink:href="#DejaVuSans-30" transform="translate(250 0.684375)"/>
       <use xlink:href="#DejaVuSans-31" transform="translate(314.580078 38.965625) scale(0.7)"/>
      </g>
     </g>
    </g>
    <g id="ytick_4">
     <g id="line2d_53">
      <path d="M 61.510313 17.757715 
L 574.150313 17.757715 
" clip-path="url(#p862a14a8f2)" style="fill: none; stroke: #bbbbbb; stroke-opacity: 0.15; stroke-width: 0.3; stroke-linecap: square"/>
     </g>
     <g id="line2d_54">
      <g>
       <use xlink:href="#m85985077c0" x="61.510313" y="17.757715" style="stroke: #000000; stroke-width: 0.6"/>
      </g>
     </g>
     <g id="text_10">
      <!-- $\mathdefault{3\times10^{1}}$ -->
      <g transform="translate(19.910313 21.556933) scale(0.1 -0.1)">
       <defs>
        <path id="DejaVuSans-33" d="M 2597 2516 
Q 3050 2419 3304 2112 
Q 3559 1806 3559 1356 
Q 3559 666 3084 287 
Q 2609 -91 1734 -91 
Q 1441 -91 1130 -33 
Q 819 25 488 141 
L 488 750 
Q 750 597 1062 519 
Q 1375 441 1716 441 
Q 2309 441 2620 675 
Q 2931 909 2931 1356 
Q 2931 1769 2642 2001 
Q 2353 2234 1838 2234 
L 1294 2234 
L 1294 2753 
L 1863 2753 
Q 2328 2753 2575 2939 
Q 2822 3125 2822 3475 
Q 2822 3834 2567 4026 
Q 2313 4219 1838 4219 
Q 1578 4219 1281 4162 
Q 984 4106 628 3988 
L 628 4550 
Q 988 4650 1302 4700 
Q 1616 4750 1894 4750 
Q 2613 4750 3031 4423 
Q 3450 4097 3450 3541 
Q 3450 3153 3228 2886 
Q 3006 2619 2597 2516 
z
" transform="scale(0.015625)"/>
       </defs>
       <use xlink:href="#DejaVuSans-33" transform="translate(0 0.684375)"/>
       <use xlink:href="#DejaVuSans-d7" transform="translate(83.105469 0.684375)"/>
       <use xlink:href="#DejaVuSans-31" transform="translate(186.376953 0.684375)"/>
       <use xlink:href="#DejaVuSans-30" transform="translate(250 0.684375)"/>
       <use xlink:href="#DejaVuSans-31" transform="translate(314.580078 38.965625) scale(0.7)"/>
      </g>
     </g>
    </g>
    <g id="text_11">
     <!-- absolute val MSE (log scale) -->
     <g transform="translate(14.038594 214.560984) rotate(-90) scale(0.09 -0.09)">
      <defs>
       <path id="DejaVuSans-62" d="M 3116 1747 
Q 3116 2381 2855 2742 
Q 2594 3103 2138 3103 
Q 1681 3103 1420 2742 
Q 1159 2381 1159 1747 
Q 1159 1113 1420 752 
Q 1681 391 2138 391 
Q 2594 391 2855 752 
Q 3116 1113 3116 1747 
z
M 1159 2969 
Q 1341 3281 1617 3432 
Q 1894 3584 2278 3584 
Q 2916 3584 3314 3078 
Q 3713 2572 3713 1747 
Q 3713 922 3314 415 
Q 2916 -91 2278 -91 
Q 1894 -91 1617 61 
Q 1341 213 1159 525 
L 1159 0 
L 581 0 
L 581 4863 
L 1159 4863 
L 1159 2969 
z
" transform="scale(0.015625)"/>
       <path id="DejaVuSans-6f" d="M 1959 3097 
Q 1497 3097 1228 2736 
Q 959 2375 959 1747 
Q 959 1119 1226 758 
Q 1494 397 1959 397 
Q 2419 397 2687 759 
Q 2956 1122 2956 1747 
Q 2956 2369 2687 2733 
Q 2419 3097 1959 3097 
z
M 1959 3584 
Q 2709 3584 3137 3096 
Q 3566 2609 3566 1747 
Q 3566 888 3137 398 
Q 2709 -91 1959 -91 
Q 1206 -91 779 398 
Q 353 888 353 1747 
Q 353 2609 779 3096 
Q 1206 3584 1959 3584 
z
" transform="scale(0.015625)"/>
       <path id="DejaVuSans-6c" d="M 603 4863 
L 1178 4863 
L 1178 0 
L 603 0 
L 603 4863 
z
" transform="scale(0.015625)"/>
       <path id="DejaVuSans-75" d="M 544 1381 
L 544 3500 
L 1119 3500 
L 1119 1403 
Q 1119 906 1312 657 
Q 1506 409 1894 409 
Q 2359 409 2629 706 
Q 2900 1003 2900 1516 
L 2900 3500 
L 3475 3500 
L 3475 0 
L 2900 0 
L 2900 538 
Q 2691 219 2414 64 
Q 2138 -91 1772 -91 
Q 1169 -91 856 284 
Q 544 659 544 1381 
z
M 1991 3584 
L 1991 3584 
z
" transform="scale(0.015625)"/>
       <path id="DejaVuSans-76" d="M 191 3500 
L 800 3500 
L 1894 563 
L 2988 3500 
L 3597 3500 
L 2284 0 
L 1503 0 
L 191 3500 
z
" transform="scale(0.015625)"/>
       <path id="DejaVuSans-4d" d="M 628 4666 
L 1569 4666 
L 2759 1491 
L 3956 4666 
L 4897 4666 
L 4897 0 
L 4281 0 
L 4281 4097 
L 3078 897 
L 2444 897 
L 1241 4097 
L 1241 0 
L 628 0 
L 628 4666 
z
" transform="scale(0.015625)"/>
       <path id="DejaVuSans-53" d="M 3425 4513 
L 3425 3897 
Q 3066 4069 2747 4153 
Q 2428 4238 2131 4238 
Q 1616 4238 1336 4038 
Q 1056 3838 1056 3469 
Q 1056 3159 1242 3001 
Q 1428 2844 1947 2747 
L 2328 2669 
Q 3034 2534 3370 2195 
Q 3706 1856 3706 1288 
Q 3706 609 3251 259 
Q 2797 -91 1919 -91 
Q 1588 -91 1214 -16 
Q 841 59 441 206 
L 441 856 
Q 825 641 1194 531 
Q 1563 422 1919 422 
Q 2459 422 2753 634 
Q 3047 847 3047 1241 
Q 3047 1584 2836 1778 
Q 2625 1972 2144 2069 
L 1759 2144 
Q 1053 2284 737 2584 
Q 422 2884 422 3419 
Q 422 4038 858 4394 
Q 1294 4750 2059 4750 
Q 2388 4750 2728 4690 
Q 3069 4631 3425 4513 
z
" transform="scale(0.015625)"/>
       <path id="DejaVuSans-45" d="M 628 4666 
L 3578 4666 
L 3578 4134 
L 1259 4134 
L 1259 2753 
L 3481 2753 
L 3481 2222 
L 1259 2222 
L 1259 531 
L 3634 531 
L 3634 0 
L 628 0 
L 628 4666 
z
" transform="scale(0.015625)"/>
       <path id="DejaVuSans-28" d="M 1984 4856 
Q 1566 4138 1362 3434 
Q 1159 2731 1159 2009 
Q 1159 1288 1364 580 
Q 1569 -128 1984 -844 
L 1484 -844 
Q 1016 -109 783 600 
Q 550 1309 550 2009 
Q 550 2706 781 3412 
Q 1013 4119 1484 4856 
L 1984 4856 
z
" transform="scale(0.015625)"/>
       <path id="DejaVuSans-63" d="M 3122 3366 
L 3122 2828 
Q 2878 2963 2633 3030 
Q 2388 3097 2138 3097 
Q 1578 3097 1268 2742 
Q 959 2388 959 1747 
Q 959 1106 1268 751 
Q 1578 397 2138 397 
Q 2388 397 2633 464 
Q 2878 531 3122 666 
L 3122 134 
Q 2881 22 2623 -34 
Q 2366 -91 2075 -91 
Q 1284 -91 818 406 
Q 353 903 353 1747 
Q 353 2603 823 3093 
Q 1294 3584 2113 3584 
Q 2378 3584 2631 3529 
Q 2884 3475 3122 3366 
z
" transform="scale(0.015625)"/>
       <path id="DejaVuSans-29" d="M 513 4856 
L 1013 4856 
Q 1481 4119 1714 3412 
Q 1947 2706 1947 2009 
Q 1947 1309 1714 600 
Q 1481 -109 1013 -844 
L 513 -844 
Q 928 -128 1133 580 
Q 1338 1288 1338 2009 
Q 1338 2731 1133 3434 
Q 928 4138 513 4856 
z
" transform="scale(0.015625)"/>
      </defs>
      <use xlink:href="#DejaVuSans-61"/>
      <use xlink:href="#DejaVuSans-62" transform="translate(61.279297 0)"/>
      <use xlink:href="#DejaVuSans-73" transform="translate(124.755859 0)"/>
      <use xlink:href="#DejaVuSans-6f" transform="translate(176.855469 0)"/>
      <use xlink:href="#DejaVuSans-6c" transform="translate(238.037109 0)"/>
      <use xlink:href="#DejaVuSans-75" transform="translate(265.820312 0)"/>
      <use xlink:href="#DejaVuSans-74" transform="translate(329.199219 0)"/>
      <use xlink:href="#DejaVuSans-65" transform="translate(368.408203 0)"/>
      <use xlink:href="#DejaVuSans-20" transform="translate(429.931641 0)"/>
      <use xlink:href="#DejaVuSans-76" transform="translate(461.71875 0)"/>
      <use xlink:href="#DejaVuSans-61" transform="translate(520.898438 0)"/>
      <use xlink:href="#DejaVuSans-6c" transform="translate(582.177734 0)"/>
      <use xlink:href="#DejaVuSans-20" transform="translate(609.960938 0)"/>
      <use xlink:href="#DejaVuSans-4d" transform="translate(641.748047 0)"/>
      <use xlink:href="#DejaVuSans-53" transform="translate(728.027344 0)"/>
      <use xlink:href="#DejaVuSans-45" transform="translate(791.503906 0)"/>
      <use xlink:href="#DejaVuSans-20" transform="translate(854.6875 0)"/>
      <use xlink:href="#DejaVuSans-28" transform="translate(886.474609 0)"/>
      <use xlink:href="#DejaVuSans-6c" transform="translate(925.488281 0)"/>
      <use xlink:href="#DejaVuSans-6f" transform="translate(953.271484 0)"/>
      <use xlink:href="#DejaVuSans-67" transform="translate(1014.453125 0)"/>
      <use xlink:href="#DejaVuSans-20" transform="translate(1077.929688 0)"/>
      <use xlink:href="#DejaVuSans-73" transform="translate(1109.716797 0)"/>
      <use xlink:href="#DejaVuSans-63" transform="translate(1161.816406 0)"/>
      <use xlink:href="#DejaVuSans-61" transform="translate(1216.796875 0)"/>
      <use xlink:href="#DejaVuSans-6c" transform="translate(1278.076172 0)"/>
      <use xlink:href="#DejaVuSans-65" transform="translate(1305.859375 0)"/>
      <use xlink:href="#DejaVuSans-29" transform="translate(1367.382812 0)"/>
     </g>
    </g>
   </g>
   <g id="line2d_55">
    <path d="M 88.97317 20.297455 
L 93.134209 20.38213 
L 97.295248 20.559691 
L 101.456287 20.946052 
L 105.617325 21.64281 
L 109.778364 22.651602 
L 113.939403 23.724231 
L 118.100442 25.096977 
L 122.261481 26.658485 
L 126.42252 29.051433 
L 130.583559 32.8425 
L 134.744598 37.603415 
L 138.905637 43.839775 
L 143.066676 51.758196 
L 147.227715 61.164359 
L 151.388754 71.34343 
L 155.549793 81.788172 
L 159.710832 92.249048 
L 163.871871 102.202597 
L 168.03291 111.436493 
L 172.193949 119.611105 
L 176.354988 126.842468 
L 180.516027 133.404419 
L 184.677066 139.179433 
L 188.838105 143.917112 
L 192.999144 148.589351 
L 197.160183 153.333379 
L 201.321222 157.350784 
L 205.482261 160.675393 
L 209.6433 163.033618 
L 213.804338 164.35066 
L 217.965377 164.696428 
L 222.126416 164.821532 
L 226.287455 164.80745 
L 230.448494 164.862139 
L 234.609533 164.794698 
L 238.770572 164.782387 
L 242.931611 164.72032 
L 247.09265 164.825406 
L 251.253689 164.802343 
L 255.414728 164.726451 
L 259.575767 164.674061 
L 263.736806 164.746315 
L 267.897845 164.749414 
L 272.058884 164.715721 
L 276.219923 164.769417 
L 280.380962 164.75001 
L 284.542001 164.724845 
L 288.70304 164.771901 
L 292.864079 164.743155 
L 297.025118 164.690975 
L 301.186157 164.706599 
L 305.347196 164.764934 
L 309.508235 164.760554 
L 313.669274 164.770102 
L 317.830312 164.777448 
L 321.991351 164.788058 
L 326.15239 164.715831 
L 330.313429 164.718496 
L 334.474468 164.703531 
L 338.635507 164.674972 
L 342.796546 164.75357 
L 346.957585 164.719779 
L 351.118624 164.661414 
L 355.279663 164.707726 
L 359.440702 164.719774 
L 363.601741 164.742305 
L 367.76278 164.710602 
L 371.923819 164.755168 
L 376.084858 164.768334 
L 380.245897 164.763378 
L 384.406936 164.784857 
L 388.567975 164.760838 
L 392.729014 164.725611 
L 396.890053 164.760608 
L 401.051092 164.773203 
L 405.212131 164.767245 
L 409.37317 164.749632 
L 413.534209 164.74181 
L 417.695248 164.763355 
L 421.856287 164.76956 
L 426.017325 164.770858 
L 430.178364 164.765625 
L 434.339403 164.760957 
L 438.500442 164.735876 
L 442.661481 164.772067 
L 446.82252 164.756096 
L 450.983559 164.748527 
L 455.144598 164.754564 
L 459.305637 164.754899 
L 463.466676 164.738977 
L 467.627715 164.731622 
L 471.788754 164.734124 
L 475.949793 164.747406 
L 480.110832 164.75512 
L 484.271871 164.750673 
L 488.43291 164.758767 
L 492.593949 164.757434 
L 496.754988 164.749271 
L 500.916027 164.752977 
L 505.077066 164.757695 
L 509.238105 164.758668 
L 513.399144 164.753754 
L 517.560183 164.749996 
L 521.721222 164.761273 
L 525.882261 164.760991 
L 530.0433 164.759879 
L 534.204338 164.763161 
L 538.365377 164.764819 
L 542.526416 164.760868 
L 546.687455 164.75958 
L 550.848494 164.761916 
" clip-path="url(#p862a14a8f2)" style="fill: none; stroke: #0072b2; stroke-opacity: 0.9; stroke-width: 1.6; stroke-linecap: square"/>
   </g>
   <g id="line2d_56">
    <path d="M 88.97317 118.092611 
L 93.134209 118.17753 
L 97.295248 118.41033 
L 101.456287 119.018613 
L 105.617325 120.594504 
L 109.778364 123.865831 
L 113.939403 128.58482 
L 118.100442 134.427796 
L 122.261481 141.148941 
L 126.42252 149.07416 
L 130.583559 158.249716 
L 134.744598 168.250106 
L 138.905637 178.943836 
L 143.066676 190.04582 
L 147.227715 201.525536 
L 151.388754 213.961495 
L 155.549793 226.724122 
L 159.710832 239.494808 
L 163.871871 251.815296 
L 168.03291 262.911725 
L 172.193949 272.063889 
L 176.354988 278.424204 
L 180.516027 281.667068 
L 184.677066 282.071733 
L 188.838105 282.035073 
L 192.999144 282.022621 
L 197.160183 282.070449 
L 201.321222 282.086476 
L 205.482261 282.051284 
L 209.6433 282.082406 
L 213.804338 282.104979 
L 217.965377 282.118681 
L 222.126416 282.097621 
L 226.287455 282.113578 
L 230.448494 282.124893 
L 234.609533 282.108202 
L 238.770572 282.129026 
L 242.931611 282.111668 
L 247.09265 282.134738 
L 251.253689 282.10604 
L 255.414728 282.084692 
L 259.575767 282.110371 
L 263.736806 282.106972 
L 267.897845 282.101315 
L 272.058884 282.098177 
L 276.219923 282.115264 
L 280.380962 282.112886 
L 284.542001 282.1163 
L 288.70304 282.134784 
L 292.864079 282.132912 
L 297.025118 282.112963 
L 301.186157 282.082105 
L 305.347196 282.12035 
L 309.508235 282.103593 
L 313.669274 282.092186 
L 317.830312 282.111752 
L 321.991351 282.112026 
L 326.15239 282.098086 
L 330.313429 282.123572 
L 334.474468 282.096205 
L 338.635507 282.085038 
L 342.796546 282.106867 
L 346.957585 282.06182 
L 351.118624 282.092579 
L 355.279663 282.103924 
L 359.440702 282.089275 
L 363.601741 282.073814 
L 367.76278 282.106344 
L 371.923819 282.098674 
L 376.084858 282.123252 
L 380.245897 282.124346 
L 384.406936 282.11307 
L 388.567975 282.114329 
L 392.729014 282.127571 
L 396.890053 282.133495 
L 401.051092 282.116864 
L 405.212131 282.111962 
L 409.37317 282.108962 
L 413.534209 282.117403 
L 417.695248 282.120488 
L 421.856287 282.117752 
L 426.017325 282.123728 
L 430.178364 282.124316 
L 434.339403 282.122159 
L 438.500442 282.11256 
L 442.661481 282.111882 
L 446.82252 282.113773 
L 450.983559 282.120925 
L 455.144598 282.128205 
L 459.305637 282.120763 
L 463.466676 282.113285 
L 467.627715 282.11287 
L 471.788754 282.113407 
L 475.949793 282.111365 
L 480.110832 282.113098 
L 484.271871 282.118741 
L 488.43291 282.119374 
L 492.593949 282.12579 
L 496.754988 282.122689 
L 500.916027 282.119791 
L 505.077066 282.118397 
L 509.238105 282.116946 
L 513.399144 282.114041 
L 517.560183 282.110463 
L 521.721222 282.117794 
L 525.882261 282.119695 
L 530.0433 282.121276 
L 534.204338 282.121562 
L 538.365377 282.123257 
L 542.526416 282.1213 
L 546.687455 282.119064 
L 550.848494 282.11255 
" clip-path="url(#p862a14a8f2)" style="fill: none; stroke: #d55e00; stroke-opacity: 0.9; stroke-width: 1.6; stroke-linecap: square"/>
   </g>
   <g id="line2d_57">
    <path d="M 84.812131 282.11255 
L 88.97317 51.517756 
L 93.134209 68.36815 
L 97.295248 96.003888 
L 101.456287 133.181941 
L 105.617325 177.079305 
L 109.778364 222.216427 
L 113.939403 254.658373 
L 118.100442 272.873251 
L 122.261481 280.688677 
L 126.42252 281.388 
L 130.583559 282.089391 
L 134.744598 282.063343 
L 138.905637 282.06702 
L 143.066676 282.116661 
L 147.227715 282.090639 
L 151.388754 282.203753 
L 155.549793 282.135379 
L 159.710832 282.203025 
L 163.871871 282.173904 
L 168.03291 282.205574 
L 172.193949 282.217526 
L 176.354988 282.171789 
L 180.516027 282.206753 
L 184.677066 282.151923 
L 188.838105 282.200497 
L 192.999144 282.214931 
L 197.160183 282.195798 
L 201.321222 282.210937 
L 205.482261 282.170858 
L 209.6433 282.190643 
L 213.804338 282.20649 
L 217.965377 282.218393 
L 222.126416 282.183637 
L 226.287455 282.221567 
L 230.448494 282.222118 
L 234.609533 282.224401 
L 238.770572 282.221515 
L 242.931611 282.245208 
L 247.09265 282.226542 
L 251.253689 282.224156 
L 255.414728 282.194662 
L 259.575767 282.217894 
L 263.736806 282.189667 
L 267.897845 282.209367 
L 272.058884 282.185935 
L 276.219923 282.214155 
L 280.380962 282.205522 
L 284.542001 282.203837 
L 288.70304 282.246545 
L 292.864079 282.231294 
L 297.025118 282.222263 
L 301.186157 282.20287 
L 305.347196 282.223395 
L 309.508235 282.21834 
L 313.669274 282.192051 
L 317.830312 282.23883 
L 321.991351 282.239714 
L 326.15239 282.199117 
L 330.313429 282.234118 
L 334.474468 282.197907 
L 338.635507 282.211332 
L 342.796546 282.201561 
L 346.957585 282.196706 
L 351.118624 282.207931 
L 355.279663 282.24274 
L 359.440702 282.193848 
L 363.601741 282.202433 
L 367.76278 282.2149 
L 371.923819 282.204207 
L 376.084858 282.235596 
L 380.245897 282.2261 
L 384.406936 282.215129 
L 388.567975 282.231315 
L 392.729014 282.233334 
L 396.890053 282.234682 
L 401.051092 282.215547 
L 405.212131 282.223007 
L 409.37317 282.22089 
L 413.534209 282.228536 
L 417.695248 282.226693 
L 421.856287 282.220184 
L 426.017325 282.216325 
L 430.178364 282.211781 
L 434.339403 282.233959 
L 438.500442 282.212904 
L 442.661481 282.217168 
L 446.82252 282.217779 
L 450.983559 282.233779 
L 455.144598 282.231572 
L 459.305637 282.228561 
L 463.466676 282.215939 
L 467.627715 282.217057 
L 471.788754 282.221727 
L 475.949793 282.21482 
L 480.110832 282.213814 
L 484.271871 282.220086 
L 488.43291 282.216207 
L 492.593949 282.22552 
L 496.754988 282.218538 
L 500.916027 282.212937 
L 505.077066 282.212126 
L 509.238105 282.21564 
L 513.399144 282.215691 
L 517.560183 282.211809 
L 521.721222 282.214659 
L 525.882261 282.212871 
L 530.0433 282.21582 
L 534.204338 282.217552 
L 538.365377 282.218307 
L 542.526416 282.221206 
L 546.687455 282.217431 
L 550.848494 282.211712 
" clip-path="url(#p862a14a8f2)" style="fill: none; stroke: #009e73; stroke-opacity: 0.9; stroke-width: 1.6; stroke-linecap: square"/>
   </g>
   <g id="patch_3">
    <path d="M 61.510313 295.344 
L 61.510313 7.2 
" style="fill: none; stroke: #000000; stroke-width: 0.8; stroke-linejoin: miter; stroke-linecap: square"/>
   </g>
   <g id="patch_4">
    <path d="M 61.510313 295.344 
L 574.150312 295.344 
" style="fill: none; stroke: #000000; stroke-width: 0.8; stroke-linejoin: miter; stroke-linecap: square"/>
   </g>
   <g id="line2d_58">
    <path d="M 88.97317 20.297455 
L 122.261481 26.658485 
L 155.549793 81.788172 
L 188.838105 143.917112 
L 222.126416 164.821532 
L 255.414728 164.726451 
L 288.70304 164.771901 
L 321.991351 164.788058 
L 355.279663 164.707726 
L 388.567975 164.760838 
L 421.856287 164.76956 
L 455.144598 164.754564 
L 488.43291 164.758767 
L 521.721222 164.761273 
L 550.848494 164.761916 
" clip-path="url(#p862a14a8f2)" style="fill: none"/>
    <defs>
     <path id="m173a3cc36d" d="M 0 2.5 
C 0.663008 2.5 1.29895 2.236584 1.767767 1.767767 
C 2.236584 1.29895 2.5 0.663008 2.5 0 
C 2.5 -0.663008 2.236584 -1.29895 1.767767 -1.767767 
C 1.29895 -2.236584 0.663008 -2.5 0 -2.5 
C -0.663008 -2.5 -1.29895 -2.236584 -1.767767 -1.767767 
C -2.236584 -1.29895 -2.5 -0.663008 -2.5 0 
C -2.5 0.663008 -2.236584 1.29895 -1.767767 1.767767 
C -1.29895 2.236584 -0.663008 2.5 0 2.5 
z
" style="stroke: #0072b2"/>
    </defs>
    <g clip-path="url(#p862a14a8f2)">
     <use xlink:href="#m173a3cc36d" x="88.97317" y="20.297455" style="fill: #0072b2; stroke: #0072b2"/>
     <use xlink:href="#m173a3cc36d" x="122.261481" y="26.658485" style="fill: #0072b2; stroke: #0072b2"/>
     <use xlink:href="#m173a3cc36d" x="155.549793" y="81.788172" style="fill: #0072b2; stroke: #0072b2"/>
     <use xlink:href="#m173a3cc36d" x="188.838105" y="143.917112" style="fill: #0072b2; stroke: #0072b2"/>
     <use xlink:href="#m173a3cc36d" x="222.126416" y="164.821532" style="fill: #0072b2; stroke: #0072b2"/>
     <use xlink:href="#m173a3cc36d" x="255.414728" y="164.726451" style="fill: #0072b2; stroke: #0072b2"/>
     <use xlink:href="#m173a3cc36d" x="288.70304" y="164.771901" style="fill: #0072b2; stroke: #0072b2"/>
     <use xlink:href="#m173a3cc36d" x="321.991351" y="164.788058" style="fill: #0072b2; stroke: #0072b2"/>
     <use xlink:href="#m173a3cc36d" x="355.279663" y="164.707726" style="fill: #0072b2; stroke: #0072b2"/>
     <use xlink:href="#m173a3cc36d" x="388.567975" y="164.760838" style="fill: #0072b2; stroke: #0072b2"/>
     <use xlink:href="#m173a3cc36d" x="421.856287" y="164.76956" style="fill: #0072b2; stroke: #0072b2"/>
     <use xlink:href="#m173a3cc36d" x="455.144598" y="164.754564" style="fill: #0072b2; stroke: #0072b2"/>
     <use xlink:href="#m173a3cc36d" x="488.43291" y="164.758767" style="fill: #0072b2; stroke: #0072b2"/>
     <use xlink:href="#m173a3cc36d" x="521.721222" y="164.761273" style="fill: #0072b2; stroke: #0072b2"/>
     <use xlink:href="#m173a3cc36d" x="550.848494" y="164.761916" style="fill: #0072b2; stroke: #0072b2"/>
    </g>
   </g>
   <g id="line2d_59">
    <path d="M 88.97317 118.092611 
L 122.261481 141.148941 
L 155.549793 226.724122 
L 188.838105 282.035073 
L 222.126416 282.097621 
L 255.414728 282.084692 
L 288.70304 282.134784 
L 321.991351 282.112026 
L 355.279663 282.103924 
L 388.567975 282.114329 
L 421.856287 282.117752 
L 455.144598 282.128205 
L 488.43291 282.119374 
L 521.721222 282.117794 
L 550.848494 282.11255 
" clip-path="url(#p862a14a8f2)" style="fill: none"/>
    <defs>
     <path id="m5007937f28" d="M -2.5 2.5 
L 2.5 2.5 
L 2.5 -2.5 
L -2.5 -2.5 
z
" style="stroke: #d55e00; stroke-linejoin: miter"/>
    </defs>
    <g clip-path="url(#p862a14a8f2)">
     <use xlink:href="#m5007937f28" x="88.97317" y="118.092611" style="fill: #d55e00; stroke: #d55e00; stroke-linejoin: miter"/>
     <use xlink:href="#m5007937f28" x="122.261481" y="141.148941" style="fill: #d55e00; stroke: #d55e00; stroke-linejoin: miter"/>
     <use xlink:href="#m5007937f28" x="155.549793" y="226.724122" style="fill: #d55e00; stroke: #d55e00; stroke-linejoin: miter"/>
     <use xlink:href="#m5007937f28" x="188.838105" y="282.035073" style="fill: #d55e00; stroke: #d55e00; stroke-linejoin: miter"/>
     <use xlink:href="#m5007937f28" x="222.126416" y="282.097621" style="fill: #d55e00; stroke: #d55e00; stroke-linejoin: miter"/>
     <use xlink:href="#m5007937f28" x="255.414728" y="282.084692" style="fill: #d55e00; stroke: #d55e00; stroke-linejoin: miter"/>
     <use xlink:href="#m5007937f28" x="288.70304" y="282.134784" style="fill: #d55e00; stroke: #d55e00; stroke-linejoin: miter"/>
     <use xlink:href="#m5007937f28" x="321.991351" y="282.112026" style="fill: #d55e00; stroke: #d55e00; stroke-linejoin: miter"/>
     <use xlink:href="#m5007937f28" x="355.279663" y="282.103924" style="fill: #d55e00; stroke: #d55e00; stroke-linejoin: miter"/>
     <use xlink:href="#m5007937f28" x="388.567975" y="282.114329" style="fill: #d55e00; stroke: #d55e00; stroke-linejoin: miter"/>
     <use xlink:href="#m5007937f28" x="421.856287" y="282.117752" style="fill: #d55e00; stroke: #d55e00; stroke-linejoin: miter"/>
     <use xlink:href="#m5007937f28" x="455.144598" y="282.128205" style="fill: #d55e00; stroke: #d55e00; stroke-linejoin: miter"/>
     <use xlink:href="#m5007937f28" x="488.43291" y="282.119374" style="fill: #d55e00; stroke: #d55e00; stroke-linejoin: miter"/>
     <use xlink:href="#m5007937f28" x="521.721222" y="282.117794" style="fill: #d55e00; stroke: #d55e00; stroke-linejoin: miter"/>
     <use xlink:href="#m5007937f28" x="550.848494" y="282.11255" style="fill: #d55e00; stroke: #d55e00; stroke-linejoin: miter"/>
    </g>
   </g>
   <g id="line2d_60">
    <path d="M 84.812131 282.11255 
L 118.100442 272.873251 
L 151.388754 282.203753 
L 184.677066 282.151923 
L 217.965377 282.218393 
L 251.253689 282.224156 
L 284.542001 282.203837 
L 317.830312 282.23883 
L 351.118624 282.207931 
L 384.406936 282.215129 
L 417.695248 282.226693 
L 450.983559 282.233779 
L 484.271871 282.220086 
L 517.560183 282.211809 
L 550.848494 282.211712 
" clip-path="url(#p862a14a8f2)" style="fill: none"/>
    <defs>
     <path id="m2e1706c020" d="M 0 -2.5 
L -2.5 2.5 
L 2.5 2.5 
z
" style="stroke: #009e73; stroke-linejoin: miter"/>
    </defs>
    <g clip-path="url(#p862a14a8f2)">
     <use xlink:href="#m2e1706c020" x="84.812131" y="282.11255" style="fill: #009e73; stroke: #009e73; stroke-linejoin: miter"/>
     <use xlink:href="#m2e1706c020" x="118.100442" y="272.873251" style="fill: #009e73; stroke: #009e73; stroke-linejoin: miter"/>
     <use xlink:href="#m2e1706c020" x="151.388754" y="282.203753" style="fill: #009e73; stroke: #009e73; stroke-linejoin: miter"/>
     <use xlink:href="#m2e1706c020" x="184.677066" y="282.151923" style="fill: #009e73; stroke: #009e73; stroke-linejoin: miter"/>
     <use xlink:href="#m2e1706c020" x="217.965377" y="282.218393" style="fill: #009e73; stroke: #009e73; stroke-linejoin: miter"/>
     <use xlink:href="#m2e1706c020" x="251.253689" y="282.224156" style="fill: #009e73; stroke: #009e73; stroke-linejoin: miter"/>
     <use xlink:href="#m2e1706c020" x="284.542001" y="282.203837" style="fill: #009e73; stroke: #009e73; stroke-linejoin: miter"/>
     <use xlink:href="#m2e1706c020" x="317.830312" y="282.23883" style="fill: #009e73; stroke: #009e73; stroke-linejoin: miter"/>
     <use xlink:href="#m2e1706c020" x="351.118624" y="282.207931" style="fill: #009e73; stroke: #009e73; stroke-linejoin: miter"/>
     <use xlink:href="#m2e1706c020" x="384.406936" y="282.215129" style="fill: #009e73; stroke: #009e73; stroke-linejoin: miter"/>
     <use xlink:href="#m2e1706c020" x="417.695248" y="282.226693" style="fill: #009e73; stroke: #009e73; stroke-linejoin: miter"/>
     <use xlink:href="#m2e1706c020" x="450.983559" y="282.233779" style="fill: #009e73; stroke: #009e73; stroke-linejoin: miter"/>
     <use xlink:href="#m2e1706c020" x="484.271871" y="282.220086" style="fill: #009e73; stroke: #009e73; stroke-linejoin: miter"/>
     <use xlink:href="#m2e1706c020" x="517.560183" y="282.211809" style="fill: #009e73; stroke: #009e73; stroke-linejoin: miter"/>
     <use xlink:href="#m2e1706c020" x="550.848494" y="282.211712" style="fill: #009e73; stroke: #009e73; stroke-linejoin: miter"/>
    </g>
   </g>
   <g id="legend_1">
    <g id="patch_5">
     <path d="M 419.017813 49.69 
L 568.550313 49.69 
Q 570.150313 49.69 570.150313 48.09 
L 570.150313 12.8 
Q 570.150313 11.2 568.550313 11.2 
L 419.017813 11.2 
Q 417.417813 11.2 417.417813 12.8 
L 417.417813 48.09 
Q 417.417813 49.69 419.017813 49.69 
z
" style="fill: #ffffff; opacity: 0.85; stroke: #cccccc; stroke-linejoin: miter"/>
    </g>
    <g id="line2d_61">
     <path d="M 420.617813 17.99875 
L 430.217813 17.99875 
L 439.817813 17.99875 
" style="fill: none; stroke: #0072b2; stroke-opacity: 0.9; stroke-width: 1.6; stroke-linecap: square"/>
    </g>
    <g id="text_12">
     <!-- `qft` (random init) -->
     <g transform="translate(446.217813 20.79875) scale(0.08 -0.08)">
      <defs>
       <path id="DejaVuSans-60" d="M 1147 5119 
L 2028 3950 
L 1550 3950 
L 531 5119 
L 1147 5119 
z
" transform="scale(0.015625)"/>
       <path id="DejaVuSans-71" d="M 947 1747 
Q 947 1113 1208 752 
Q 1469 391 1925 391 
Q 2381 391 2643 752 
Q 2906 1113 2906 1747 
Q 2906 2381 2643 2742 
Q 2381 3103 1925 3103 
Q 1469 3103 1208 2742 
Q 947 2381 947 1747 
z
M 2906 525 
Q 2725 213 2448 61 
Q 2172 -91 1784 -91 
Q 1150 -91 751 415 
Q 353 922 353 1747 
Q 353 2572 751 3078 
Q 1150 3584 1784 3584 
Q 2172 3584 2448 3432 
Q 2725 3281 2906 2969 
L 2906 3500 
L 3481 3500 
L 3481 -1331 
L 2906 -1331 
L 2906 525 
z
" transform="scale(0.015625)"/>
       <path id="DejaVuSans-66" d="M 2375 4863 
L 2375 4384 
L 1825 4384 
Q 1516 4384 1395 4259 
Q 1275 4134 1275 3809 
L 1275 3500 
L 2222 3500 
L 2222 3053 
L 1275 3053 
L 1275 0 
L 697 0 
L 697 3053 
L 147 3053 
L 147 3500 
L 697 3500 
L 697 3744 
Q 697 4328 969 4595 
Q 1241 4863 1831 4863 
L 2375 4863 
z
" transform="scale(0.015625)"/>
       <path id="DejaVuSans-64" d="M 2906 2969 
L 2906 4863 
L 3481 4863 
L 3481 0 
L 2906 0 
L 2906 525 
Q 2725 213 2448 61 
Q 2172 -91 1784 -91 
Q 1150 -91 751 415 
Q 353 922 353 1747 
Q 353 2572 751 3078 
Q 1150 3584 1784 3584 
Q 2172 3584 2448 3432 
Q 2725 3281 2906 2969 
z
M 947 1747 
Q 947 1113 1208 752 
Q 1469 391 1925 391 
Q 2381 391 2643 752 
Q 2906 1113 2906 1747 
Q 2906 2381 2643 2742 
Q 2381 3103 1925 3103 
Q 1469 3103 1208 2742 
Q 947 2381 947 1747 
z
" transform="scale(0.015625)"/>
       <path id="DejaVuSans-6d" d="M 3328 2828 
Q 3544 3216 3844 3400 
Q 4144 3584 4550 3584 
Q 5097 3584 5394 3201 
Q 5691 2819 5691 2113 
L 5691 0 
L 5113 0 
L 5113 2094 
Q 5113 2597 4934 2840 
Q 4756 3084 4391 3084 
Q 3944 3084 3684 2787 
Q 3425 2491 3425 1978 
L 3425 0 
L 2847 0 
L 2847 2094 
Q 2847 2600 2669 2842 
Q 2491 3084 2119 3084 
Q 1678 3084 1418 2786 
Q 1159 2488 1159 1978 
L 1159 0 
L 581 0 
L 581 3500 
L 1159 3500 
L 1159 2956 
Q 1356 3278 1631 3431 
Q 1906 3584 2284 3584 
Q 2666 3584 2933 3390 
Q 3200 3197 3328 2828 
z
" transform="scale(0.015625)"/>
      </defs>
      <use xlink:href="#DejaVuSans-60"/>
      <use xlink:href="#DejaVuSans-71" transform="translate(50 0)"/>
      <use xlink:href="#DejaVuSans-66" transform="translate(113.476562 0)"/>
      <use xlink:href="#DejaVuSans-74" transform="translate(146.931641 0)"/>
      <use xlink:href="#DejaVuSans-60" transform="translate(186.140625 0)"/>
      <use xlink:href="#DejaVuSans-20" transform="translate(236.140625 0)"/>
      <use xlink:href="#DejaVuSans-28" transform="translate(267.927734 0)"/>
      <use xlink:href="#DejaVuSans-72" transform="translate(306.941406 0)"/>
      <use xlink:href="#DejaVuSans-61" transform="translate(348.054688 0)"/>
      <use xlink:href="#DejaVuSans-6e" transform="translate(409.333984 0)"/>
      <use xlink:href="#DejaVuSans-64" transform="translate(472.712891 0)"/>
      <use xlink:href="#DejaVuSans-6f" transform="translate(536.189453 0)"/>
      <use xlink:href="#DejaVuSans-6d" transform="translate(597.371094 0)"/>
      <use xlink:href="#DejaVuSans-20" transform="translate(694.783203 0)"/>
      <use xlink:href="#DejaVuSans-69" transform="translate(726.570312 0)"/>
      <use xlink:href="#DejaVuSans-6e" transform="translate(754.353516 0)"/>
      <use xlink:href="#DejaVuSans-69" transform="translate(817.732422 0)"/>
      <use xlink:href="#DejaVuSans-74" transform="translate(845.515625 0)"/>
      <use xlink:href="#DejaVuSans-29" transform="translate(884.724609 0)"/>
     </g>
    </g>
    <g id="line2d_62">
     <path d="M 420.617813 29.74125 
L 430.217813 29.74125 
L 439.817813 29.74125 
" style="fill: none; stroke: #d55e00; stroke-opacity: 0.9; stroke-width: 1.6; stroke-linecap: square"/>
    </g>
    <g id="text_13">
     <!-- `blocked` (warm-start source) -->
     <g transform="translate(446.217813 32.54125) scale(0.08 -0.08)">
      <defs>
       <path id="DejaVuSans-6b" d="M 581 4863 
L 1159 4863 
L 1159 1991 
L 2875 3500 
L 3609 3500 
L 1753 1863 
L 3688 0 
L 2938 0 
L 1159 1709 
L 1159 0 
L 581 0 
L 581 4863 
z
" transform="scale(0.015625)"/>
       <path id="DejaVuSans-77" d="M 269 3500 
L 844 3500 
L 1563 769 
L 2278 3500 
L 2956 3500 
L 3675 769 
L 4391 3500 
L 4966 3500 
L 4050 0 
L 3372 0 
L 2619 2869 
L 1863 0 
L 1184 0 
L 269 3500 
z
" transform="scale(0.015625)"/>
       <path id="DejaVuSans-2d" d="M 313 2009 
L 1997 2009 
L 1997 1497 
L 313 1497 
L 313 2009 
z
" transform="scale(0.015625)"/>
      </defs>
      <use xlink:href="#DejaVuSans-60"/>
      <use xlink:href="#DejaVuSans-62" transform="translate(50 0)"/>
      <use xlink:href="#DejaVuSans-6c" transform="translate(113.476562 0)"/>
      <use xlink:href="#DejaVuSans-6f" transform="translate(141.259766 0)"/>
      <use xlink:href="#DejaVuSans-63" transform="translate(202.441406 0)"/>
      <use xlink:href="#DejaVuSans-6b" transform="translate(257.421875 0)"/>
      <use xlink:href="#DejaVuSans-65" transform="translate(311.707031 0)"/>
      <use xlink:href="#DejaVuSans-64" transform="translate(373.230469 0)"/>
      <use xlink:href="#DejaVuSans-60" transform="translate(436.707031 0)"/>
      <use xlink:href="#DejaVuSans-20" transform="translate(486.707031 0)"/>
      <use xlink:href="#DejaVuSans-28" transform="translate(518.494141 0)"/>
      <use xlink:href="#DejaVuSans-77" transform="translate(557.507812 0)"/>
      <use xlink:href="#DejaVuSans-61" transform="translate(639.294922 0)"/>
      <use xlink:href="#DejaVuSans-72" transform="translate(700.574219 0)"/>
      <use xlink:href="#DejaVuSans-6d" transform="translate(739.9375 0)"/>
      <use xlink:href="#DejaVuSans-2d" transform="translate(837.349609 0)"/>
      <use xlink:href="#DejaVuSans-73" transform="translate(873.433594 0)"/>
      <use xlink:href="#DejaVuSans-74" transform="translate(925.533203 0)"/>
      <use xlink:href="#DejaVuSans-61" transform="translate(964.742188 0)"/>
      <use xlink:href="#DejaVuSans-72" transform="translate(1026.021484 0)"/>
      <use xlink:href="#DejaVuSans-74" transform="translate(1067.134766 0)"/>
      <use xlink:href="#DejaVuSans-20" transform="translate(1106.34375 0)"/>
      <use xlink:href="#DejaVuSans-73" transform="translate(1138.130859 0)"/>
      <use xlink:href="#DejaVuSans-6f" transform="translate(1190.230469 0)"/>
      <use xlink:href="#DejaVuSans-75" transform="translate(1251.412109 0)"/>
      <use xlink:href="#DejaVuSans-72" transform="translate(1314.791016 0)"/>
      <use xlink:href="#DejaVuSans-63" transform="translate(1353.654297 0)"/>
      <use xlink:href="#DejaVuSans-65" transform="translate(1408.634766 0)"/>
      <use xlink:href="#DejaVuSans-29" transform="translate(1470.158203 0)"/>
     </g>
    </g>
    <g id="line2d_63">
     <path d="M 420.617813 41.80375 
L 430.217813 41.80375 
L 439.817813 41.80375 
" style="fill: none; stroke: #009e73; stroke-opacity: 0.9; stroke-width: 1.6; stroke-linecap: square"/>
    </g>
    <g id="text_14">
     <!-- `qft_warmstart_blocked` -->
     <g transform="translate(446.217813 44.60375) scale(0.08 -0.08)">
      <defs>
       <path id="DejaVuSans-5f" d="M 3263 -1063 
L 3263 -1509 
L -63 -1509 
L -63 -1063 
L 3263 -1063 
z
" transform="scale(0.015625)"/>
      </defs>
      <use xlink:href="#DejaVuSans-60"/>
      <use xlink:href="#DejaVuSans-71" transform="translate(50 0)"/>
      <use xlink:href="#DejaVuSans-66" transform="translate(113.476562 0)"/>
      <use xlink:href="#DejaVuSans-74" transform="translate(146.931641 0)"/>
      <use xlink:href="#DejaVuSans-5f" transform="translate(186.140625 0)"/>
      <use xlink:href="#DejaVuSans-77" transform="translate(236.140625 0)"/>
      <use xlink:href="#DejaVuSans-61" transform="translate(317.927734 0)"/>
      <use xlink:href="#DejaVuSans-72" transform="translate(379.207031 0)"/>
      <use xlink:href="#DejaVuSans-6d" transform="translate(418.570312 0)"/>
      <use xlink:href="#DejaVuSans-73" transform="translate(515.982422 0)"/>
      <use xlink:href="#DejaVuSans-74" transform="translate(568.082031 0)"/>
      <use xlink:href="#DejaVuSans-61" transform="translate(607.291016 0)"/>
      <use xlink:href="#DejaVuSans-72" transform="translate(668.570312 0)"/>
      <use xlink:href="#DejaVuSans-74" transform="translate(709.683594 0)"/>
      <use xlink:href="#DejaVuSans-5f" transform="translate(748.892578 0)"/>
      <use xlink:href="#DejaVuSans-62" transform="translate(798.892578 0)"/>
      <use xlink:href="#DejaVuSans-6c" transform="translate(862.369141 0)"/>
      <use xlink:href="#DejaVuSans-6f" transform="translate(890.152344 0)"/>
      <use xlink:href="#DejaVuSans-63" transform="translate(951.333984 0)"/>
      <use xlink:href="#DejaVuSans-6b" transform="translate(1006.314453 0)"/>
      <use xlink:href="#DejaVuSans-65" transform="translate(1060.599609 0)"/>
      <use xlink:href="#DejaVuSans-64" transform="translate(1122.123047 0)"/>
      <use xlink:href="#DejaVuSans-60" transform="translate(1185.599609 0)"/>
     </g>
    </g>
   </g>
  </g>
 </g>
 <defs>
  <clipPath id="p862a14a8f2">
   <rect x="61.510313" y="7.2" width="512.64" height="288.144"/>
  </clipPath>
 </defs>
</svg>
