<?xml version="1.0" encoding="utf-8" standalone="no"?>
<!DOCTYPE svg PUBLIC "-//W3C//DTD SVG 1.1//EN"
  "http://www.w3.org/Graphics/SVG/1.1/DTD/svg11.dtd">
<svg xmlns:xlink="http://www.w3.org/1999/xlink" width="335.722813pt" height="243.562772pt" viewBox="0 0 335.722813 243.562772" xmlns="http://www.w3.org/2000/svg" version="1.1">
 <metadata>
  <rdf:RDF xmlns:dc="http://purl.org/dc/elements/1.1/" xmlns:cc="http://creativecommons.org/ns#" xmlns:rdf="http://www.w3.org/1999/02/22-rdf-syntax-ns#">
   <cc:Work>
    <dc:type rdf:resource="http://purl.org/dc/dcmitype/StillImage"/>
    <dc:date>2026-07-02T06:39:57.709466</dc:date>
    <dc:format>image/svg+xml</dc:format>
    <dc:creator>
     <cc:Agent>
      <dc:title>Matplotlib v3.10.9, https://matplotlib.org/</dc:title>
     </cc:Agent>
    </dc:creator>
   </cc:Work>
  </rdf:RDF>
 </metadata>
 <defs>
  <style type="text/css">*{stroke-linejoin: round; stroke-linecap: butt}</style>
 </defs>
 <g id="figure_1">
  <g id="patch_1">
   <path d="M 0 243.562772 
L 335.722813 243.562772 
L 335.722813 0 
L 0 0 
z
" style="fill: #ffffff"/>
  </g>
  <g id="axes_1">
   <g id="patch_2">
    <path d="M 38.362813 207.942147 
L 328.522813 207.942147 
L 328.522813 8.358147 
L 38.362813 8.358147 
z
" style="fill: #ffffff"/>
   </g>
   <g id="FillBetweenPolyCollection_1">
    <defs>
     <path id="m1ffcdfbedf" d="M 51.551903 -49.886457 
L 51.551903 -49.835522 
L 78.02065 -49.830609 
L 113.01043 -49.805407 
L 139.479176 -49.85756 
L 165.947923 -46.360469 
L 200.937702 -44.692625 
L 227.406449 -49.707597 
L 253.875195 -44.724916 
L 288.864975 -45.519682 
L 315.333722 -45.394644 
L 315.333722 -49.238196 
L 315.333722 -49.238196 
L 288.864975 -49.774239 
L 253.875195 -49.397594 
L 227.406449 -49.90089 
L 200.937702 -49.533307 
L 165.947923 -50.794988 
L 139.479176 -49.918804 
L 113.01043 -49.853156 
L 78.02065 -49.933902 
L 51.551903 -49.886457 
z
"/>
    </defs>
    <g clip-path="url(#p6ec51cebbf)">
     <use xlink:href="#m1ffcdfbedf" x="0" y="243.562772" style="fill: #0072b2; fill-opacity: 0.18"/>
    </g>
   </g>
   <g id="FillBetweenPolyCollection_2">
    <defs>
     <path id="m5604d523a7" d="M 51.551903 -116.377755 
L 51.551903 -116.270656 
L 78.02065 -116.198147 
L 113.01043 -116.155822 
L 139.479176 -116.305725 
L 165.947923 -116.161944 
L 200.937702 -115.896608 
L 227.406449 -116.24298 
L 253.875195 -116.093724 
L 288.864975 -116.187614 
L 315.333722 -116.455033 
L 315.333722 -117.68018 
L 315.333722 -117.68018 
L 288.864975 -117.414613 
L 253.875195 -117.677859 
L 227.406449 -116.364095 
L 200.937702 -117.303837 
L 165.947923 -116.585295 
L 139.479176 -116.333315 
L 113.01043 -116.354003 
L 78.02065 -116.344554 
L 51.551903 -116.377755 
z
"/>
    </defs>
    <g clip-path="url(#p6ec51cebbf)">
     <use xlink:href="#m5604d523a7" x="0" y="243.562772" style="fill: #e69f00; fill-opacity: 0.18"/>
    </g>
   </g>
   <g id="FillBetweenPolyCollection_3">
    <defs>
     <path id="m62b422ad93" d="M 51.551903 -159.056318 
L 51.551903 -158.862619 
L 78.02065 -158.73802 
L 113.01043 -158.671441 
L 139.479176 -158.922107 
L 165.947923 -158.539439 
L 200.937702 -158.776928 
L 227.406449 -158.888069 
L 253.875195 -159.021095 
L 288.864975 -158.801174 
L 315.333722 -159.613255 
L 315.333722 -161.654924 
L 315.333722 -161.654924 
L 288.864975 -161.157213 
L 253.875195 -161.769402 
L 227.406449 -158.999061 
L 200.937702 -161.257939 
L 165.947923 -159.990773 
L 139.479176 -158.962292 
L 113.01043 -159.033396 
L 78.02065 -158.977574 
L 51.551903 -159.056318 
z
"/>
    </defs>
    <g clip-path="url(#p6ec51cebbf)">
     <use xlink:href="#m62b422ad93" x="0" y="243.562772" style="fill: #009e73; fill-opacity: 0.18"/>
    </g>
   </g>
   <g id="FillBetweenPolyCollection_4">
    <defs>
     <path id="m4c76199893" d="M 51.551903 -221.285238 
L 51.551903 -221.002222 
L 78.02065 -220.81172 
L 113.01043 -220.676347 
L 139.479176 -221.103493 
L 165.947923 -220.450241 
L 200.937702 -221.053505 
L 227.406449 -221.118219 
L 253.875195 -221.384307 
L 288.864975 -220.806574 
L 315.333722 -222.464726 
L 315.333722 -225.75388 
L 315.333722 -225.75388 
L 288.864975 -224.799167 
L 253.875195 -226.132625 
L 227.406449 -221.268163 
L 200.937702 -225.482417 
L 165.947923 -223.084415 
L 139.479176 -221.145312 
L 113.01043 -221.286459 
L 78.02065 -221.159829 
L 51.551903 -221.285238 
z
"/>
    </defs>
    <g clip-path="url(#p6ec51cebbf)">
     <use xlink:href="#m4c76199893" x="0" y="243.562772" style="fill: #cc79a7; fill-opacity: 0.18"/>
    </g>
   </g>
   <g id="matplotlib.axis_1">
    <g id="xtick_1">
     <g id="line2d_1">
      <path d="M 51.551903 207.942147 
L 51.551903 8.358147 
" clip-path="url(#p6ec51cebbf)" style="fill: none; stroke-dasharray: 0.4,0.66; stroke-dashoffset: 0; stroke: #b0b0b0; stroke-opacity: 0.5; stroke-width: 0.4"/>
     </g>
     <g id="line2d_2">
      <defs>
       <path id="m57045a64c2" d="M 0 0 
L 0 3.5 
" style="stroke: #000000; stroke-width: 0.8"/>
      </defs>
      <g>
       <use xlink:href="#m57045a64c2" x="51.551903" y="207.942147" style="stroke: #000000; stroke-width: 0.8"/>
      </g>
     </g>
     <g id="text_1">
      <!-- 0.1 -->
      <g transform="translate(44.395497 221.780741) scale(0.09 -0.09)">
       <defs>
        <path id="DejaVuSans-30" d="M 2034 4250 
Q 1547 4250 1301 3770 
Q 1056 3291 1056 2328 
Q 1056 1369 1301 889 
Q 1547 409 2034 409 
Q 2525 409 2770 889 
Q 3016 1369 3016 2328 
Q 3016 3291 2770 3770 
Q 2525 4250 2034 4250 
z
M 2034 4750 
Q 2819 4750 3233 4129 
Q 3647 3509 3647 2328 
Q 3647 1150 3233 529 
Q 2819 -91 2034 -91 
Q 1250 -91 836 529 
Q 422 1150 422 2328 
Q 422 3509 836 4129 
Q 1250 4750 2034 4750 
z
" transform="scale(0.015625)"/>
        <path id="DejaVuSans-2e" d="M 684 794 
L 1344 794 
L 1344 0 
L 684 0 
L 684 794 
z
" transform="scale(0.015625)"/>
        <path id="DejaVuSans-31" d="M 794 531 
L 1825 531 
L 1825 4091 
L 703 3866 
L 703 4441 
L 1819 4666 
L 2450 4666 
L 2450 531 
L 3481 531 
L 3481 0 
L 794 0 
L 794 531 
z
" transform="scale(0.015625)"/>
       </defs>
       <use xlink:href="#DejaVuSans-30"/>
       <use xlink:href="#DejaVuSans-2e" transform="translate(63.623047 0)"/>
       <use xlink:href="#DejaVuSans-31" transform="translate(95.410156 0)"/>
      </g>
     </g>
    </g>
    <g id="xtick_2">
     <g id="line2d_3">
      <path d="M 78.02065 207.942147 
L 78.02065 8.358147 
" clip-path="url(#p6ec51cebbf)" style="fill: none; stroke-dasharray: 0.4,0.66; stroke-dashoffset: 0; stroke: #b0b0b0; stroke-opacity: 0.5; stroke-width: 0.4"/>
     </g>
     <g id="line2d_4">
      <g>
       <use xlink:href="#m57045a64c2" x="78.02065" y="207.942147" style="stroke: #000000; stroke-width: 0.8"/>
      </g>
     </g>
     <g id="text_2">
      <!-- 0.2 -->
      <g transform="translate(70.864244 221.780741) scale(0.09 -0.09)">
       <defs>
        <path id="DejaVuSans-32" d="M 1228 531 
L 3431 531 
L 3431 0 
L 469 0 
L 469 531 
Q 828 903 1448 1529 
Q 2069 2156 2228 2338 
Q 2531 2678 2651 2914 
Q 2772 3150 2772 3378 
Q 2772 3750 2511 3984 
Q 2250 4219 1831 4219 
Q 1534 4219 1204 4116 
Q 875 4013 500 3803 
L 500 4441 
Q 881 4594 1212 4672 
Q 1544 4750 1819 4750 
Q 2544 4750 2975 4387 
Q 3406 4025 3406 3419 
Q 3406 3131 3298 2873 
Q 3191 2616 2906 2266 
Q 2828 2175 2409 1742 
Q 1991 1309 1228 531 
z
" transform="scale(0.015625)"/>
       </defs>
       <use xlink:href="#DejaVuSans-30"/>
       <use xlink:href="#DejaVuSans-2e" transform="translate(63.623047 0)"/>
       <use xlink:href="#DejaVuSans-32" transform="translate(95.410156 0)"/>
      </g>
     </g>
    </g>
    <g id="xtick_3">
     <g id="line2d_5">
      <path d="M 113.01043 207.942147 
L 113.01043 8.358147 
" clip-path="url(#p6ec51cebbf)" style="fill: none; stroke-dasharray: 0.4,0.66; stroke-dashoffset: 0; stroke: #b0b0b0; stroke-opacity: 0.5; stroke-width: 0.4"/>
     </g>
     <g id="line2d_6">
      <g>
       <use xlink:href="#m57045a64c2" x="113.01043" y="207.942147" style="stroke: #000000; stroke-width: 0.8"/>
      </g>
     </g>
     <g id="text_3">
      <!-- 0.5 -->
      <g transform="translate(105.854023 221.780741) scale(0.09 -0.09)">
       <defs>
        <path id="DejaVuSans-35" d="M 691 4666 
L 3169 4666 
L 3169 4134 
L 1269 4134 
L 1269 2991 
Q 1406 3038 1543 3061 
Q 1681 3084 1819 3084 
Q 2600 3084 3056 2656 
Q 3513 2228 3513 1497 
Q 3513 744 3044 326 
Q 2575 -91 1722 -91 
Q 1428 -91 1123 -41 
Q 819 9 494 109 
L 494 744 
Q 775 591 1075 516 
Q 1375 441 1709 441 
Q 2250 441 2565 725 
Q 2881 1009 2881 1497 
Q 2881 1984 2565 2268 
Q 2250 2553 1709 2553 
Q 1456 2553 1204 2497 
Q 953 2441 691 2322 
L 691 4666 
z
" transform="scale(0.015625)"/>
       </defs>
       <use xlink:href="#DejaVuSans-30"/>
       <use xlink:href="#DejaVuSans-2e" transform="translate(63.623047 0)"/>
       <use xlink:href="#DejaVuSans-35" transform="translate(95.410156 0)"/>
      </g>
     </g>
    </g>
    <g id="xtick_4">
     <g id="line2d_7">
      <path d="M 139.479176 207.942147 
L 139.479176 8.358147 
" clip-path="url(#p6ec51cebbf)" style="fill: none; stroke-dasharray: 0.4,0.66; stroke-dashoffset: 0; stroke: #b0b0b0; stroke-opacity: 0.5; stroke-width: 0.4"/>
     </g>
     <g id="line2d_8">
      <g>
       <use xlink:href="#m57045a64c2" x="139.479176" y="207.942147" style="stroke: #000000; stroke-width: 0.8"/>
      </g>
     </g>
     <g id="text_4">
      <!-- 1 -->
      <g transform="translate(136.616051 221.780741) scale(0.09 -0.09)">
       <use xlink:href="#DejaVuSans-31"/>
      </g>
     </g>
    </g>
    <g id="xtick_5">
     <g id="line2d_9">
      <path d="M 165.947923 207.942147 
L 165.947923 8.358147 
" clip-path="url(#p6ec51cebbf)" style="fill: none; stroke-dasharray: 0.4,0.66; stroke-dashoffset: 0; stroke: #b0b0b0; stroke-opacity: 0.5; stroke-width: 0.4"/>
     </g>
     <g id="line2d_10">
      <g>
       <use xlink:href="#m57045a64c2" x="165.947923" y="207.942147" style="stroke: #000000; stroke-width: 0.8"/>
      </g>
     </g>
     <g id="text_5">
      <!-- 2 -->
      <g transform="translate(163.084798 221.780741) scale(0.09 -0.09)">
       <use xlink:href="#DejaVuSans-32"/>
      </g>
     </g>
    </g>
    <g id="xtick_6">
     <g id="line2d_11">
      <path d="M 200.937702 207.942147 
L 200.937702 8.358147 
" clip-path="url(#p6ec51cebbf)" style="fill: none; stroke-dasharray: 0.4,0.66; stroke-dashoffset: 0; stroke: #b0b0b0; stroke-opacity: 0.5; stroke-width: 0.4"/>
     </g>
     <g id="line2d_12">
      <g>
       <use xlink:href="#m57045a64c2" x="200.937702" y="207.942147" style="stroke: #000000; stroke-width: 0.8"/>
      </g>
     </g>
     <g id="text_6">
      <!-- 5 -->
      <g transform="translate(198.074577 221.780741) scale(0.09 -0.09)">
       <use xlink:href="#DejaVuSans-35"/>
      </g>
     </g>
    </g>
    <g id="xtick_7">
     <g id="line2d_13">
      <path d="M 227.406449 207.942147 
L 227.406449 8.358147 
" clip-path="url(#p6ec51cebbf)" style="fill: none; stroke-dasharray: 0.4,0.66; stroke-dashoffset: 0; stroke: #b0b0b0; stroke-opacity: 0.5; stroke-width: 0.4"/>
     </g>
     <g id="line2d_14">
      <g>
       <use xlink:href="#m57045a64c2" x="227.406449" y="207.942147" style="stroke: #000000; stroke-width: 0.8"/>
      </g>
     </g>
     <g id="text_7">
      <!-- 10 -->
      <g transform="translate(221.680199 221.780741) scale(0.09 -0.09)">
       <use xlink:href="#DejaVuSans-31"/>
       <use xlink:href="#DejaVuSans-30" transform="translate(63.623047 0)"/>
      </g>
     </g>
    </g>
    <g id="xtick_8">
     <g id="line2d_15">
      <path d="M 253.875195 207.942147 
L 253.875195 8.358147 
" clip-path="url(#p6ec51cebbf)" style="fill: none; stroke-dasharray: 0.4,0.66; stroke-dashoffset: 0; stroke: #b0b0b0; stroke-opacity: 0.5; stroke-width: 0.4"/>
     </g>
     <g id="line2d_16">
      <g>
       <use xlink:href="#m57045a64c2" x="253.875195" y="207.942147" style="stroke: #000000; stroke-width: 0.8"/>
      </g>
     </g>
     <g id="text_8">
      <!-- 20 -->
      <g transform="translate(248.148945 221.780741) scale(0.09 -0.09)">
       <use xlink:href="#DejaVuSans-32"/>
       <use xlink:href="#DejaVuSans-30" transform="translate(63.623047 0)"/>
      </g>
     </g>
    </g>
    <g id="xtick_9">
     <g id="line2d_17">
      <path d="M 288.864975 207.942147 
L 288.864975 8.358147 
" clip-path="url(#p6ec51cebbf)" style="fill: none; stroke-dasharray: 0.4,0.66; stroke-dashoffset: 0; stroke: #b0b0b0; stroke-opacity: 0.5; stroke-width: 0.4"/>
     </g>
     <g id="line2d_18">
      <g>
       <use xlink:href="#m57045a64c2" x="288.864975" y="207.942147" style="stroke: #000000; stroke-width: 0.8"/>
      </g>
     </g>
     <g id="text_9">
      <!-- 50 -->
      <g transform="translate(283.138725 221.780741) scale(0.09 -0.09)">
       <use xlink:href="#DejaVuSans-35"/>
       <use xlink:href="#DejaVuSans-30" transform="translate(63.623047 0)"/>
      </g>
     </g>
    </g>
    <g id="xtick_10">
     <g id="line2d_19">
      <path d="M 315.333722 207.942147 
L 315.333722 8.358147 
" clip-path="url(#p6ec51cebbf)" style="fill: none; stroke-dasharray: 0.4,0.66; stroke-dashoffset: 0; stroke: #b0b0b0; stroke-opacity: 0.5; stroke-width: 0.4"/>
     </g>
     <g id="line2d_20">
      <g>
       <use xlink:href="#m57045a64c2" x="315.333722" y="207.942147" style="stroke: #000000; stroke-width: 0.8"/>
      </g>
     </g>
     <g id="text_10">
      <!-- 100 -->
      <g transform="translate(306.744347 221.780741) scale(0.09 -0.09)">
       <use xlink:href="#DejaVuSans-31"/>
       <use xlink:href="#DejaVuSans-30" transform="translate(63.623047 0)"/>
       <use xlink:href="#DejaVuSans-30" transform="translate(127.246094 0)"/>
      </g>
     </g>
    </g>
    <g id="xtick_11">
     <g id="line2d_21">
      <path d="M 43.03087 207.942147 
L 43.03087 8.358147 
" clip-path="url(#p6ec51cebbf)" style="fill: none; stroke-dasharray: 0.4,0.66; stroke-dashoffset: 0; stroke: #b0b0b0; stroke-opacity: 0.5; stroke-width: 0.4"/>
     </g>
     <g id="line2d_22">
      <defs>
       <path id="mf04d076095" d="M 0 0 
L 0 2 
" style="stroke: #000000; stroke-width: 0.6"/>
      </defs>
      <g>
       <use xlink:href="#mf04d076095" x="43.03087" y="207.942147" style="stroke: #000000; stroke-width: 0.6"/>
      </g>
     </g>
    </g>
    <g id="xtick_12">
     <g id="line2d_23">
      <path d="M 47.528572 207.942147 
L 47.528572 8.358147 
" clip-path="url(#p6ec51cebbf)" style="fill: none; stroke-dasharray: 0.4,0.66; stroke-dashoffset: 0; stroke: #b0b0b0; stroke-opacity: 0.5; stroke-width: 0.4"/>
     </g>
     <g id="line2d_24">
      <g>
       <use xlink:href="#mf04d076095" x="47.528572" y="207.942147" style="stroke: #000000; stroke-width: 0.6"/>
      </g>
     </g>
    </g>
    <g id="xtick_13">
     <g id="line2d_25">
      <path d="M 93.503874 207.942147 
L 93.503874 8.358147 
" clip-path="url(#p6ec51cebbf)" style="fill: none; stroke-dasharray: 0.4,0.66; stroke-dashoffset: 0; stroke: #b0b0b0; stroke-opacity: 0.5; stroke-width: 0.4"/>
     </g>
     <g id="line2d_26">
      <g>
       <use xlink:href="#mf04d076095" x="93.503874" y="207.942147" style="stroke: #000000; stroke-width: 0.6"/>
      </g>
     </g>
    </g>
    <g id="xtick_14">
     <g id="line2d_27">
      <path d="M 104.489396 207.942147 
L 104.489396 8.358147 
" clip-path="url(#p6ec51cebbf)" style="fill: none; stroke-dasharray: 0.4,0.66; stroke-dashoffset: 0; stroke: #b0b0b0; stroke-opacity: 0.5; stroke-width: 0.4"/>
     </g>
     <g id="line2d_28">
      <g>
       <use xlink:href="#mf04d076095" x="104.489396" y="207.942147" style="stroke: #000000; stroke-width: 0.6"/>
      </g>
     </g>
    </g>
    <g id="xtick_15">
     <g id="line2d_29">
      <path d="M 119.972621 207.942147 
L 119.972621 8.358147 
" clip-path="url(#p6ec51cebbf)" style="fill: none; stroke-dasharray: 0.4,0.66; stroke-dashoffset: 0; stroke: #b0b0b0; stroke-opacity: 0.5; stroke-width: 0.4"/>
     </g>
     <g id="line2d_30">
      <g>
       <use xlink:href="#mf04d076095" x="119.972621" y="207.942147" style="stroke: #000000; stroke-width: 0.6"/>
      </g>
     </g>
    </g>
    <g id="xtick_16">
     <g id="line2d_31">
      <path d="M 125.859069 207.942147 
L 125.859069 8.358147 
" clip-path="url(#p6ec51cebbf)" style="fill: none; stroke-dasharray: 0.4,0.66; stroke-dashoffset: 0; stroke: #b0b0b0; stroke-opacity: 0.5; stroke-width: 0.4"/>
     </g>
     <g id="line2d_32">
      <g>
       <use xlink:href="#mf04d076095" x="125.859069" y="207.942147" style="stroke: #000000; stroke-width: 0.6"/>
      </g>
     </g>
    </g>
    <g id="xtick_17">
     <g id="line2d_33">
      <path d="M 130.958143 207.942147 
L 130.958143 8.358147 
" clip-path="url(#p6ec51cebbf)" style="fill: none; stroke-dasharray: 0.4,0.66; stroke-dashoffset: 0; stroke: #b0b0b0; stroke-opacity: 0.5; stroke-width: 0.4"/>
     </g>
     <g id="line2d_34">
      <g>
       <use xlink:href="#mf04d076095" x="130.958143" y="207.942147" style="stroke: #000000; stroke-width: 0.6"/>
      </g>
     </g>
    </g>
    <g id="xtick_18">
     <g id="line2d_35">
      <path d="M 135.455845 207.942147 
L 135.455845 8.358147 
" clip-path="url(#p6ec51cebbf)" style="fill: none; stroke-dasharray: 0.4,0.66; stroke-dashoffset: 0; stroke: #b0b0b0; stroke-opacity: 0.5; stroke-width: 0.4"/>
     </g>
     <g id="line2d_36">
      <g>
       <use xlink:href="#mf04d076095" x="135.455845" y="207.942147" style="stroke: #000000; stroke-width: 0.6"/>
      </g>
     </g>
    </g>
    <g id="xtick_19">
     <g id="line2d_37">
      <path d="M 181.431147 207.942147 
L 181.431147 8.358147 
" clip-path="url(#p6ec51cebbf)" style="fill: none; stroke-dasharray: 0.4,0.66; stroke-dashoffset: 0; stroke: #b0b0b0; stroke-opacity: 0.5; stroke-width: 0.4"/>
     </g>
     <g id="line2d_38">
      <g>
       <use xlink:href="#mf04d076095" x="181.431147" y="207.942147" style="stroke: #000000; stroke-width: 0.6"/>
      </g>
     </g>
    </g>
    <g id="xtick_20">
     <g id="line2d_39">
      <path d="M 192.416669 207.942147 
L 192.416669 8.358147 
" clip-path="url(#p6ec51cebbf)" style="fill: none; stroke-dasharray: 0.4,0.66; stroke-dashoffset: 0; stroke: #b0b0b0; stroke-opacity: 0.5; stroke-width: 0.4"/>
     </g>
     <g id="line2d_40">
      <g>
       <use xlink:href="#mf04d076095" x="192.416669" y="207.942147" style="stroke: #000000; stroke-width: 0.6"/>
      </g>
     </g>
    </g>
    <g id="xtick_21">
     <g id="line2d_41">
      <path d="M 207.899893 207.942147 
L 207.899893 8.358147 
" clip-path="url(#p6ec51cebbf)" style="fill: none; stroke-dasharray: 0.4,0.66; stroke-dashoffset: 0; stroke: #b0b0b0; stroke-opacity: 0.5; stroke-width: 0.4"/>
     </g>
     <g id="line2d_42">
      <g>
       <use xlink:href="#mf04d076095" x="207.899893" y="207.942147" style="stroke: #000000; stroke-width: 0.6"/>
      </g>
     </g>
    </g>
    <g id="xtick_22">
     <g id="line2d_43">
      <path d="M 213.786342 207.942147 
L 213.786342 8.358147 
" clip-path="url(#p6ec51cebbf)" style="fill: none; stroke-dasharray: 0.4,0.66; stroke-dashoffset: 0; stroke: #b0b0b0; stroke-opacity: 0.5; stroke-width: 0.4"/>
     </g>
     <g id="line2d_44">
      <g>
       <use xlink:href="#mf04d076095" x="213.786342" y="207.942147" style="stroke: #000000; stroke-width: 0.6"/>
      </g>
     </g>
    </g>
    <g id="xtick_23">
     <g id="line2d_45">
      <path d="M 218.885416 207.942147 
L 218.885416 8.358147 
" clip-path="url(#p6ec51cebbf)" style="fill: none; stroke-dasharray: 0.4,0.66; stroke-dashoffset: 0; stroke: #b0b0b0; stroke-opacity: 0.5; stroke-width: 0.4"/>
     </g>
     <g id="line2d_46">
      <g>
       <use xlink:href="#mf04d076095" x="218.885416" y="207.942147" style="stroke: #000000; stroke-width: 0.6"/>
      </g>
     </g>
    </g>
    <g id="xtick_24">
     <g id="line2d_47">
      <path d="M 223.383118 207.942147 
L 223.383118 8.358147 
" clip-path="url(#p6ec51cebbf)" style="fill: none; stroke-dasharray: 0.4,0.66; stroke-dashoffset: 0; stroke: #b0b0b0; stroke-opacity: 0.5; stroke-width: 0.4"/>
     </g>
     <g id="line2d_48">
      <g>
       <use xlink:href="#mf04d076095" x="223.383118" y="207.942147" style="stroke: #000000; stroke-width: 0.6"/>
      </g>
     </g>
    </g>
    <g id="xtick_25">
     <g id="line2d_49">
      <path d="M 269.35842 207.942147 
L 269.35842 8.358147 
" clip-path="url(#p6ec51cebbf)" style="fill: none; stroke-dasharray: 0.4,0.66; stroke-dashoffset: 0; stroke: #b0b0b0; stroke-opacity: 0.5; stroke-width: 0.4"/>
     </g>
     <g id="line2d_50">
      <g>
       <use xlink:href="#mf04d076095" x="269.35842" y="207.942147" style="stroke: #000000; stroke-width: 0.6"/>
      </g>
     </g>
    </g>
    <g id="xtick_26">
     <g id="line2d_51">
      <path d="M 280.343942 207.942147 
L 280.343942 8.358147 
" clip-path="url(#p6ec51cebbf)" style="fill: none; stroke-dasharray: 0.4,0.66; stroke-dashoffset: 0; stroke: #b0b0b0; stroke-opacity: 0.5; stroke-width: 0.4"/>
     </g>
     <g id="line2d_52">
      <g>
       <use xlink:href="#mf04d076095" x="280.343942" y="207.942147" style="stroke: #000000; stroke-width: 0.6"/>
      </g>
     </g>
    </g>
    <g id="xtick_27">
     <g id="line2d_53">
      <path d="M 295.827166 207.942147 
L 295.827166 8.358147 
" clip-path="url(#p6ec51cebbf)" style="fill: none; stroke-dasharray: 0.4,0.66; stroke-dashoffset: 0; stroke: #b0b0b0; stroke-opacity: 0.5; stroke-width: 0.4"/>
     </g>
     <g id="line2d_54">
      <g>
       <use xlink:href="#mf04d076095" x="295.827166" y="207.942147" style="stroke: #000000; stroke-width: 0.6"/>
      </g>
     </g>
    </g>
    <g id="xtick_28">
     <g id="line2d_55">
      <path d="M 301.713615 207.942147 
L 301.713615 8.358147 
" clip-path="url(#p6ec51cebbf)" style="fill: none; stroke-dasharray: 0.4,0.66; stroke-dashoffset: 0; stroke: #b0b0b0; stroke-opacity: 0.5; stroke-width: 0.4"/>
     </g>
     <g id="line2d_56">
      <g>
       <use xlink:href="#mf04d076095" x="301.713615" y="207.942147" style="stroke: #000000; stroke-width: 0.6"/>
      </g>
     </g>
    </g>
    <g id="xtick_29">
     <g id="line2d_57">
      <path d="M 306.812688 207.942147 
L 306.812688 8.358147 
" clip-path="url(#p6ec51cebbf)" style="fill: none; stroke-dasharray: 0.4,0.66; stroke-dashoffset: 0; stroke: #b0b0b0; stroke-opacity: 0.5; stroke-width: 0.4"/>
     </g>
     <g id="line2d_58">
      <g>
       <use xlink:href="#mf04d076095" x="306.812688" y="207.942147" style="stroke: #000000; stroke-width: 0.6"/>
      </g>
     </g>
    </g>
    <g id="xtick_30">
     <g id="line2d_59">
      <path d="M 311.31039 207.942147 
L 311.31039 8.358147 
" clip-path="url(#p6ec51cebbf)" style="fill: none; stroke-dasharray: 0.4,0.66; stroke-dashoffset: 0; stroke: #b0b0b0; stroke-opacity: 0.5; stroke-width: 0.4"/>
     </g>
     <g id="line2d_60">
      <g>
       <use xlink:href="#mf04d076095" x="311.31039" y="207.942147" style="stroke: #000000; stroke-width: 0.6"/>
      </g>
     </g>
    </g>
    <g id="text_11">
     <!-- disturbed parameters (% of 2200 gate entries) -->
     <g transform="translate(78.038047 234.491053) scale(0.09 -0.09)">
      <defs>
       <path id="DejaVuSans-64" d="M 2906 2969 
L 2906 4863 
L 3481 4863 
L 3481 0 
L 2906 0 
L 2906 525 
Q 2725 213 2448 61 
Q 2172 -91 1784 -91 
Q 1150 -91 751 415 
Q 353 922 353 1747 
Q 353 2572 751 3078 
Q 1150 3584 1784 3584 
Q 2172 3584 2448 3432 
Q 2725 3281 2906 2969 
z
M 947 1747 
Q 947 1113 1208 752 
Q 1469 391 1925 391 
Q 2381 391 2643 752 
Q 2906 1113 2906 1747 
Q 2906 2381 2643 2742 
Q 2381 3103 1925 3103 
Q 1469 3103 1208 2742 
Q 947 2381 947 1747 
z
" transform="scale(0.015625)"/>
       <path id="DejaVuSans-69" d="M 603 3500 
L 1178 3500 
L 1178 0 
L 603 0 
L 603 3500 
z
M 603 4863 
L 1178 4863 
L 1178 4134 
L 603 4134 
L 603 4863 
z
" transform="scale(0.015625)"/>
       <path id="DejaVuSans-73" d="M 2834 3397 
L 2834 2853 
Q 2591 2978 2328 3040 
Q 2066 3103 1784 3103 
Q 1356 3103 1142 2972 
Q 928 2841 928 2578 
Q 928 2378 1081 2264 
Q 1234 2150 1697 2047 
L 1894 2003 
Q 2506 1872 2764 1633 
Q 3022 1394 3022 966 
Q 3022 478 2636 193 
Q 2250 -91 1575 -91 
Q 1294 -91 989 -36 
Q 684 19 347 128 
L 347 722 
Q 666 556 975 473 
Q 1284 391 1588 391 
Q 1994 391 2212 530 
Q 2431 669 2431 922 
Q 2431 1156 2273 1281 
Q 2116 1406 1581 1522 
L 1381 1569 
Q 847 1681 609 1914 
Q 372 2147 372 2553 
Q 372 3047 722 3315 
Q 1072 3584 1716 3584 
Q 2034 3584 2315 3537 
Q 2597 3491 2834 3397 
z
" transform="scale(0.015625)"/>
       <path id="DejaVuSans-74" d="M 1172 4494 
L 1172 3500 
L 2356 3500 
L 2356 3053 
L 1172 3053 
L 1172 1153 
Q 1172 725 1289 603 
Q 1406 481 1766 481 
L 2356 481 
L 2356 0 
L 1766 0 
Q 1100 0 847 248 
Q 594 497 594 1153 
L 594 3053 
L 172 3053 
L 172 3500 
L 594 3500 
L 594 4494 
L 1172 4494 
z
" transform="scale(0.015625)"/>
       <path id="DejaVuSans-75" d="M 544 1381 
L 544 3500 
L 1119 3500 
L 1119 1403 
Q 1119 906 1312 657 
Q 1506 409 1894 409 
Q 2359 409 2629 706 
Q 2900 1003 2900 1516 
L 2900 3500 
L 3475 3500 
L 3475 0 
L 2900 0 
L 2900 538 
Q 2691 219 2414 64 
Q 2138 -91 1772 -91 
Q 1169 -91 856 284 
Q 544 659 544 1381 
z
M 1991 3584 
L 1991 3584 
z
" transform="scale(0.015625)"/>
       <path id="DejaVuSans-72" d="M 2631 2963 
Q 2534 3019 2420 3045 
Q 2306 3072 2169 3072 
Q 1681 3072 1420 2755 
Q 1159 2438 1159 1844 
L 1159 0 
L 581 0 
L 581 3500 
L 1159 3500 
L 1159 2956 
Q 1341 3275 1631 3429 
Q 1922 3584 2338 3584 
Q 2397 3584 2469 3576 
Q 2541 3569 2628 3553 
L 2631 2963 
z
" transform="scale(0.015625)"/>
       <path id="DejaVuSans-62" d="M 3116 1747 
Q 3116 2381 2855 2742 
Q 2594 3103 2138 3103 
Q 1681 3103 1420 2742 
Q 1159 2381 1159 1747 
Q 1159 1113 1420 752 
Q 1681 391 2138 391 
Q 2594 391 2855 752 
Q 3116 1113 3116 1747 
z
M 1159 2969 
Q 1341 3281 1617 3432 
Q 1894 3584 2278 3584 
Q 2916 3584 3314 3078 
Q 3713 2572 3713 1747 
Q 3713 922 3314 415 
Q 2916 -91 2278 -91 
Q 1894 -91 1617 61 
Q 1341 213 1159 525 
L 1159 0 
L 581 0 
L 581 4863 
L 1159 4863 
L 1159 2969 
z
" transform="scale(0.015625)"/>
       <path id="DejaVuSans-65" d="M 3597 1894 
L 3597 1613 
L 953 1613 
Q 991 1019 1311 708 
Q 1631 397 2203 397 
Q 2534 397 2845 478 
Q 3156 559 3463 722 
L 3463 178 
Q 3153 47 2828 -22 
Q 2503 -91 2169 -91 
Q 1331 -91 842 396 
Q 353 884 353 1716 
Q 353 2575 817 3079 
Q 1281 3584 2069 3584 
Q 2775 3584 3186 3129 
Q 3597 2675 3597 1894 
z
M 3022 2063 
Q 3016 2534 2758 2815 
Q 2500 3097 2075 3097 
Q 1594 3097 1305 2825 
Q 1016 2553 972 2059 
L 3022 2063 
z
" transform="scale(0.015625)"/>
       <path id="DejaVuSans-20" transform="scale(0.015625)"/>
       <path id="DejaVuSans-70" d="M 1159 525 
L 1159 -1331 
L 581 -1331 
L 581 3500 
L 1159 3500 
L 1159 2969 
Q 1341 3281 1617 3432 
Q 1894 3584 2278 3584 
Q 2916 3584 3314 3078 
Q 3713 2572 3713 1747 
Q 3713 922 3314 415 
Q 2916 -91 2278 -91 
Q 1894 -91 1617 61 
Q 1341 213 1159 525 
z
M 3116 1747 
Q 3116 2381 2855 2742 
Q 2594 3103 2138 3103 
Q 1681 3103 1420 2742 
Q 1159 2381 1159 1747 
Q 1159 1113 1420 752 
Q 1681 391 2138 391 
Q 2594 391 2855 752 
Q 3116 1113 3116 1747 
z
" transform="scale(0.015625)"/>
       <path id="DejaVuSans-61" d="M 2194 1759 
Q 1497 1759 1228 1600 
Q 959 1441 959 1056 
Q 959 750 1161 570 
Q 1363 391 1709 391 
Q 2188 391 2477 730 
Q 2766 1069 2766 1631 
L 2766 1759 
L 2194 1759 
z
M 3341 1997 
L 3341 0 
L 2766 0 
L 2766 531 
Q 2569 213 2275 61 
Q 1981 -91 1556 -91 
Q 1019 -91 701 211 
Q 384 513 384 1019 
Q 384 1609 779 1909 
Q 1175 2209 1959 2209 
L 2766 2209 
L 2766 2266 
Q 2766 2663 2505 2880 
Q 2244 3097 1772 3097 
Q 1472 3097 1187 3025 
Q 903 2953 641 2809 
L 641 3341 
Q 956 3463 1253 3523 
Q 1550 3584 1831 3584 
Q 2591 3584 2966 3190 
Q 3341 2797 3341 1997 
z
" transform="scale(0.015625)"/>
       <path id="DejaVuSans-6d" d="M 3328 2828 
Q 3544 3216 3844 3400 
Q 4144 3584 4550 3584 
Q 5097 3584 5394 3201 
Q 5691 2819 5691 2113 
L 5691 0 
L 5113 0 
L 5113 2094 
Q 5113 2597 4934 2840 
Q 4756 3084 4391 3084 
Q 3944 3084 3684 2787 
Q 3425 2491 3425 1978 
L 3425 0 
L 2847 0 
L 2847 2094 
Q 2847 2600 2669 2842 
Q 2491 3084 2119 3084 
Q 1678 3084 1418 2786 
Q 1159 2488 1159 1978 
L 1159 0 
L 581 0 
L 581 3500 
L 1159 3500 
L 1159 2956 
Q 1356 3278 1631 3431 
Q 1906 3584 2284 3584 
Q 2666 3584 2933 3390 
Q 3200 3197 3328 2828 
z
" transform="scale(0.015625)"/>
       <path id="DejaVuSans-28" d="M 1984 4856 
Q 1566 4138 1362 3434 
Q 1159 2731 1159 2009 
Q 1159 1288 1364 580 
Q 1569 -128 1984 -844 
L 1484 -844 
Q 1016 -109 783 600 
Q 550 1309 550 2009 
Q 550 2706 781 3412 
Q 1013 4119 1484 4856 
L 1984 4856 
z
" transform="scale(0.015625)"/>
       <path id="DejaVuSans-25" d="M 4653 2053 
Q 4381 2053 4226 1822 
Q 4072 1591 4072 1178 
Q 4072 772 4226 539 
Q 4381 306 4653 306 
Q 4919 306 5073 539 
Q 5228 772 5228 1178 
Q 5228 1588 5073 1820 
Q 4919 2053 4653 2053 
z
M 4653 2450 
Q 5147 2450 5437 2106 
Q 5728 1763 5728 1178 
Q 5728 594 5436 251 
Q 5144 -91 4653 -91 
Q 4153 -91 3862 251 
Q 3572 594 3572 1178 
Q 3572 1766 3864 2108 
Q 4156 2450 4653 2450 
z
M 1428 4353 
Q 1159 4353 1004 4120 
Q 850 3888 850 3481 
Q 850 3069 1003 2837 
Q 1156 2606 1428 2606 
Q 1700 2606 1854 2837 
Q 2009 3069 2009 3481 
Q 2009 3884 1853 4118 
Q 1697 4353 1428 4353 
z
M 4250 4750 
L 4750 4750 
L 1831 -91 
L 1331 -91 
L 4250 4750 
z
M 1428 4750 
Q 1922 4750 2215 4408 
Q 2509 4066 2509 3481 
Q 2509 2891 2217 2550 
Q 1925 2209 1428 2209 
Q 931 2209 642 2551 
Q 353 2894 353 3481 
Q 353 4063 643 4406 
Q 934 4750 1428 4750 
z
" transform="scale(0.015625)"/>
       <path id="DejaVuSans-6f" d="M 1959 3097 
Q 1497 3097 1228 2736 
Q 959 2375 959 1747 
Q 959 1119 1226 758 
Q 1494 397 1959 397 
Q 2419 397 2687 759 
Q 2956 1122 2956 1747 
Q 2956 2369 2687 2733 
Q 2419 3097 1959 3097 
z
M 1959 3584 
Q 2709 3584 3137 3096 
Q 3566 2609 3566 1747 
Q 3566 888 3137 398 
Q 2709 -91 1959 -91 
Q 1206 -91 779 398 
Q 353 888 353 1747 
Q 353 2609 779 3096 
Q 1206 3584 1959 3584 
z
" transform="scale(0.015625)"/>
       <path id="DejaVuSans-66" d="M 2375 4863 
L 2375 4384 
L 1825 4384 
Q 1516 4384 1395 4259 
Q 1275 4134 1275 3809 
L 1275 3500 
L 2222 3500 
L 2222 3053 
L 1275 3053 
L 1275 0 
L 697 0 
L 697 3053 
L 147 3053 
L 147 3500 
L 697 3500 
L 697 3744 
Q 697 4328 969 4595 
Q 1241 4863 1831 4863 
L 2375 4863 
z
" transform="scale(0.015625)"/>
       <path id="DejaVuSans-67" d="M 2906 1791 
Q 2906 2416 2648 2759 
Q 2391 3103 1925 3103 
Q 1463 3103 1205 2759 
Q 947 2416 947 1791 
Q 947 1169 1205 825 
Q 1463 481 1925 481 
Q 2391 481 2648 825 
Q 2906 1169 2906 1791 
z
M 3481 434 
Q 3481 -459 3084 -895 
Q 2688 -1331 1869 -1331 
Q 1566 -1331 1297 -1286 
Q 1028 -1241 775 -1147 
L 775 -588 
Q 1028 -725 1275 -790 
Q 1522 -856 1778 -856 
Q 2344 -856 2625 -561 
Q 2906 -266 2906 331 
L 2906 616 
Q 2728 306 2450 153 
Q 2172 0 1784 0 
Q 1141 0 747 490 
Q 353 981 353 1791 
Q 353 2603 747 3093 
Q 1141 3584 1784 3584 
Q 2172 3584 2450 3431 
Q 2728 3278 2906 2969 
L 2906 3500 
L 3481 3500 
L 3481 434 
z
" transform="scale(0.015625)"/>
       <path id="DejaVuSans-6e" d="M 3513 2113 
L 3513 0 
L 2938 0 
L 2938 2094 
Q 2938 2591 2744 2837 
Q 2550 3084 2163 3084 
Q 1697 3084 1428 2787 
Q 1159 2491 1159 1978 
L 1159 0 
L 581 0 
L 581 3500 
L 1159 3500 
L 1159 2956 
Q 1366 3272 1645 3428 
Q 1925 3584 2291 3584 
Q 2894 3584 3203 3211 
Q 3513 2838 3513 2113 
z
" transform="scale(0.015625)"/>
       <path id="DejaVuSans-29" d="M 513 4856 
L 1013 4856 
Q 1481 4119 1714 3412 
Q 1947 2706 1947 2009 
Q 1947 1309 1714 600 
Q 1481 -109 1013 -844 
L 513 -844 
Q 928 -128 1133 580 
Q 1338 1288 1338 2009 
Q 1338 2731 1133 3434 
Q 928 4138 513 4856 
z
" transform="scale(0.015625)"/>
      </defs>
      <use xlink:href="#DejaVuSans-64"/>
      <use xlink:href="#DejaVuSans-69" transform="translate(63.476562 0)"/>
      <use xlink:href="#DejaVuSans-73" transform="translate(91.259766 0)"/>
      <use xlink:href="#DejaVuSans-74" transform="translate(143.359375 0)"/>
      <use xlink:href="#DejaVuSans-75" transform="translate(182.568359 0)"/>
      <use xlink:href="#DejaVuSans-72" transform="translate(245.947266 0)"/>
      <use xlink:href="#DejaVuSans-62" transform="translate(287.060547 0)"/>
      <use xlink:href="#DejaVuSans-65" transform="translate(350.537109 0)"/>
      <use xlink:href="#DejaVuSans-64" transform="translate(412.060547 0)"/>
      <use xlink:href="#DejaVuSans-20" transform="translate(475.537109 0)"/>
      <use xlink:href="#DejaVuSans-70" transform="translate(507.324219 0)"/>
      <use xlink:href="#DejaVuSans-61" transform="translate(570.800781 0)"/>
      <use xlink:href="#DejaVuSans-72" transform="translate(632.080078 0)"/>
      <use xlink:href="#DejaVuSans-61" transform="translate(673.193359 0)"/>
      <use xlink:href="#DejaVuSans-6d" transform="translate(734.472656 0)"/>
      <use xlink:href="#DejaVuSans-65" transform="translate(831.884766 0)"/>
      <use xlink:href="#DejaVuSans-74" transform="translate(893.408203 0)"/>
      <use xlink:href="#DejaVuSans-65" transform="translate(932.617188 0)"/>
      <use xlink:href="#DejaVuSans-72" transform="translate(994.140625 0)"/>
      <use xlink:href="#DejaVuSans-73" transform="translate(1035.253906 0)"/>
      <use xlink:href="#DejaVuSans-20" transform="translate(1087.353516 0)"/>
      <use xlink:href="#DejaVuSans-28" transform="translate(1119.140625 0)"/>
      <use xlink:href="#DejaVuSans-25" transform="translate(1158.154297 0)"/>
      <use xlink:href="#DejaVuSans-20" transform="translate(1253.173828 0)"/>
      <use xlink:href="#DejaVuSans-6f" transform="translate(1284.960938 0)"/>
      <use xlink:href="#DejaVuSans-66" transform="translate(1346.142578 0)"/>
      <use xlink:href="#DejaVuSans-20" transform="translate(1381.347656 0)"/>
      <use xlink:href="#DejaVuSans-32" transform="translate(1413.134766 0)"/>
      <use xlink:href="#DejaVuSans-32" transform="translate(1476.757812 0)"/>
      <use xlink:href="#DejaVuSans-30" transform="translate(1540.380859 0)"/>
      <use xlink:href="#DejaVuSans-30" transform="translate(1604.003906 0)"/>
      <use xlink:href="#DejaVuSans-20" transform="translate(1667.626953 0)"/>
      <use xlink:href="#DejaVuSans-67" transform="translate(1699.414062 0)"/>
      <use xlink:href="#DejaVuSans-61" transform="translate(1762.890625 0)"/>
      <use xlink:href="#DejaVuSans-74" transform="translate(1824.169922 0)"/>
      <use xlink:href="#DejaVuSans-65" transform="translate(1863.378906 0)"/>
      <use xlink:href="#DejaVuSans-20" transform="translate(1924.902344 0)"/>
      <use xlink:href="#DejaVuSans-65" transform="translate(1956.689453 0)"/>
      <use xlink:href="#DejaVuSans-6e" transform="translate(2018.212891 0)"/>
      <use xlink:href="#DejaVuSans-74" transform="translate(2081.591797 0)"/>
      <use xlink:href="#DejaVuSans-72" transform="translate(2120.800781 0)"/>
      <use xlink:href="#DejaVuSans-69" transform="translate(2161.914062 0)"/>
      <use xlink:href="#DejaVuSans-65" transform="translate(2189.697266 0)"/>
      <use xlink:href="#DejaVuSans-73" transform="translate(2251.220703 0)"/>
      <use xlink:href="#DejaVuSans-29" transform="translate(2303.320312 0)"/>
     </g>
    </g>
   </g>
   <g id="matplotlib.axis_2">
    <g id="ytick_1">
     <g id="line2d_61">
      <path d="M 38.362813 198.382031 
L 328.522813 198.382031 
" clip-path="url(#p6ec51cebbf)" style="fill: none; stroke-dasharray: 0.4,0.66; stroke-dashoffset: 0; stroke: #b0b0b0; stroke-opacity: 0.5; stroke-width: 0.4"/>
     </g>
     <g id="line2d_62">
      <defs>
       <path id="m763729ca4f" d="M 0 0 
L -3.5 0 
" style="stroke: #000000; stroke-width: 0.8"/>
      </defs>
      <g>
       <use xlink:href="#m763729ca4f" x="38.362813" y="198.382031" style="stroke: #000000; stroke-width: 0.8"/>
      </g>
     </g>
     <g id="text_12">
      <!-- 22 -->
      <g transform="translate(19.910313 201.801328) scale(0.09 -0.09)">
       <use xlink:href="#DejaVuSans-32"/>
       <use xlink:href="#DejaVuSans-32" transform="translate(63.623047 0)"/>
      </g>
     </g>
    </g>
    <g id="ytick_2">
     <g id="line2d_63">
      <path d="M 38.362813 167.088242 
L 328.522813 167.088242 
" clip-path="url(#p6ec51cebbf)" style="fill: none; stroke-dasharray: 0.4,0.66; stroke-dashoffset: 0; stroke: #b0b0b0; stroke-opacity: 0.5; stroke-width: 0.4"/>
     </g>
     <g id="line2d_64">
      <g>
       <use xlink:href="#m763729ca4f" x="38.362813" y="167.088242" style="stroke: #000000; stroke-width: 0.8"/>
      </g>
     </g>
     <g id="text_13">
      <!-- 24 -->
      <g transform="translate(19.910313 170.507539) scale(0.09 -0.09)">
       <defs>
        <path id="DejaVuSans-34" d="M 2419 4116 
L 825 1625 
L 2419 1625 
L 2419 4116 
z
M 2253 4666 
L 3047 4666 
L 3047 1625 
L 3713 1625 
L 3713 1100 
L 3047 1100 
L 3047 0 
L 2419 0 
L 2419 1100 
L 313 1100 
L 313 1709 
L 2253 4666 
z
" transform="scale(0.015625)"/>
       </defs>
       <use xlink:href="#DejaVuSans-32"/>
       <use xlink:href="#DejaVuSans-34" transform="translate(63.623047 0)"/>
      </g>
     </g>
    </g>
    <g id="ytick_3">
     <g id="line2d_65">
      <path d="M 38.362813 135.794453 
L 328.522813 135.794453 
" clip-path="url(#p6ec51cebbf)" style="fill: none; stroke-dasharray: 0.4,0.66; stroke-dashoffset: 0; stroke: #b0b0b0; stroke-opacity: 0.5; stroke-width: 0.4"/>
     </g>
     <g id="line2d_66">
      <g>
       <use xlink:href="#m763729ca4f" x="38.362813" y="135.794453" style="stroke: #000000; stroke-width: 0.8"/>
      </g>
     </g>
     <g id="text_14">
      <!-- 26 -->
      <g transform="translate(19.910313 139.21375) scale(0.09 -0.09)">
       <defs>
        <path id="DejaVuSans-36" d="M 2113 2584 
Q 1688 2584 1439 2293 
Q 1191 2003 1191 1497 
Q 1191 994 1439 701 
Q 1688 409 2113 409 
Q 2538 409 2786 701 
Q 3034 994 3034 1497 
Q 3034 2003 2786 2293 
Q 2538 2584 2113 2584 
z
M 3366 4563 
L 3366 3988 
Q 3128 4100 2886 4159 
Q 2644 4219 2406 4219 
Q 1781 4219 1451 3797 
Q 1122 3375 1075 2522 
Q 1259 2794 1537 2939 
Q 1816 3084 2150 3084 
Q 2853 3084 3261 2657 
Q 3669 2231 3669 1497 
Q 3669 778 3244 343 
Q 2819 -91 2113 -91 
Q 1303 -91 875 529 
Q 447 1150 447 2328 
Q 447 3434 972 4092 
Q 1497 4750 2381 4750 
Q 2619 4750 2861 4703 
Q 3103 4656 3366 4563 
z
" transform="scale(0.015625)"/>
       </defs>
       <use xlink:href="#DejaVuSans-32"/>
       <use xlink:href="#DejaVuSans-36" transform="translate(63.623047 0)"/>
      </g>
     </g>
    </g>
    <g id="ytick_4">
     <g id="line2d_67">
      <path d="M 38.362813 104.500664 
L 328.522813 104.500664 
" clip-path="url(#p6ec51cebbf)" style="fill: none; stroke-dasharray: 0.4,0.66; stroke-dashoffset: 0; stroke: #b0b0b0; stroke-opacity: 0.5; stroke-width: 0.4"/>
     </g>
     <g id="line2d_68">
      <g>
       <use xlink:href="#m763729ca4f" x="38.362813" y="104.500664" style="stroke: #000000; stroke-width: 0.8"/>
      </g>
     </g>
     <g id="text_15">
      <!-- 28 -->
      <g transform="translate(19.910313 107.919961) scale(0.09 -0.09)">
       <defs>
        <path id="DejaVuSans-38" d="M 2034 2216 
Q 1584 2216 1326 1975 
Q 1069 1734 1069 1313 
Q 1069 891 1326 650 
Q 1584 409 2034 409 
Q 2484 409 2743 651 
Q 3003 894 3003 1313 
Q 3003 1734 2745 1975 
Q 2488 2216 2034 2216 
z
M 1403 2484 
Q 997 2584 770 2862 
Q 544 3141 544 3541 
Q 544 4100 942 4425 
Q 1341 4750 2034 4750 
Q 2731 4750 3128 4425 
Q 3525 4100 3525 3541 
Q 3525 3141 3298 2862 
Q 3072 2584 2669 2484 
Q 3125 2378 3379 2068 
Q 3634 1759 3634 1313 
Q 3634 634 3220 271 
Q 2806 -91 2034 -91 
Q 1263 -91 848 271 
Q 434 634 434 1313 
Q 434 1759 690 2068 
Q 947 2378 1403 2484 
z
M 1172 3481 
Q 1172 3119 1398 2916 
Q 1625 2713 2034 2713 
Q 2441 2713 2670 2916 
Q 2900 3119 2900 3481 
Q 2900 3844 2670 4047 
Q 2441 4250 2034 4250 
Q 1625 4250 1398 4047 
Q 1172 3844 1172 3481 
z
" transform="scale(0.015625)"/>
       </defs>
       <use xlink:href="#DejaVuSans-32"/>
       <use xlink:href="#DejaVuSans-38" transform="translate(63.623047 0)"/>
      </g>
     </g>
    </g>
    <g id="ytick_5">
     <g id="line2d_69">
      <path d="M 38.362813 73.206875 
L 328.522813 73.206875 
" clip-path="url(#p6ec51cebbf)" style="fill: none; stroke-dasharray: 0.4,0.66; stroke-dashoffset: 0; stroke: #b0b0b0; stroke-opacity: 0.5; stroke-width: 0.4"/>
     </g>
     <g id="line2d_70">
      <g>
       <use xlink:href="#m763729ca4f" x="38.362813" y="73.206875" style="stroke: #000000; stroke-width: 0.8"/>
      </g>
     </g>
     <g id="text_16">
      <!-- 30 -->
      <g transform="translate(19.910313 76.626172) scale(0.09 -0.09)">
       <defs>
        <path id="DejaVuSans-33" d="M 2597 2516 
Q 3050 2419 3304 2112 
Q 3559 1806 3559 1356 
Q 3559 666 3084 287 
Q 2609 -91 1734 -91 
Q 1441 -91 1130 -33 
Q 819 25 488 141 
L 488 750 
Q 750 597 1062 519 
Q 1375 441 1716 441 
Q 2309 441 2620 675 
Q 2931 909 2931 1356 
Q 2931 1769 2642 2001 
Q 2353 2234 1838 2234 
L 1294 2234 
L 1294 2753 
L 1863 2753 
Q 2328 2753 2575 2939 
Q 2822 3125 2822 3475 
Q 2822 3834 2567 4026 
Q 2313 4219 1838 4219 
Q 1578 4219 1281 4162 
Q 984 4106 628 3988 
L 628 4550 
Q 988 4650 1302 4700 
Q 1616 4750 1894 4750 
Q 2613 4750 3031 4423 
Q 3450 4097 3450 3541 
Q 3450 3153 3228 2886 
Q 3006 2619 2597 2516 
z
" transform="scale(0.015625)"/>
       </defs>
       <use xlink:href="#DejaVuSans-33"/>
       <use xlink:href="#DejaVuSans-30" transform="translate(63.623047 0)"/>
      </g>
     </g>
    </g>
    <g id="ytick_6">
     <g id="line2d_71">
      <path d="M 38.362813 41.913086 
L 328.522813 41.913086 
" clip-path="url(#p6ec51cebbf)" style="fill: none; stroke-dasharray: 0.4,0.66; stroke-dashoffset: 0; stroke: #b0b0b0; stroke-opacity: 0.5; stroke-width: 0.4"/>
     </g>
     <g id="line2d_72">
      <g>
       <use xlink:href="#m763729ca4f" x="38.362813" y="41.913086" style="stroke: #000000; stroke-width: 0.8"/>
      </g>
     </g>
     <g id="text_17">
      <!-- 32 -->
      <g transform="translate(19.910313 45.332383) scale(0.09 -0.09)">
       <use xlink:href="#DejaVuSans-33"/>
       <use xlink:href="#DejaVuSans-32" transform="translate(63.623047 0)"/>
      </g>
     </g>
    </g>
    <g id="ytick_7">
     <g id="line2d_73">
      <path d="M 38.362813 10.619297 
L 328.522813 10.619297 
" clip-path="url(#p6ec51cebbf)" style="fill: none; stroke-dasharray: 0.4,0.66; stroke-dashoffset: 0; stroke: #b0b0b0; stroke-opacity: 0.5; stroke-width: 0.4"/>
     </g>
     <g id="line2d_74">
      <g>
       <use xlink:href="#m763729ca4f" x="38.362813" y="10.619297" style="stroke: #000000; stroke-width: 0.8"/>
      </g>
     </g>
     <g id="text_18">
      <!-- 34 -->
      <g transform="translate(19.910313 14.038594) scale(0.09 -0.09)">
       <use xlink:href="#DejaVuSans-33"/>
       <use xlink:href="#DejaVuSans-34" transform="translate(63.623047 0)"/>
      </g>
     </g>
    </g>
    <g id="text_19">
     <!-- test PSNR (dB) -->
     <g transform="translate(14.038594 141.171007) rotate(-90) scale(0.09 -0.09)">
      <defs>
       <path id="DejaVuSans-50" d="M 1259 4147 
L 1259 2394 
L 2053 2394 
Q 2494 2394 2734 2622 
Q 2975 2850 2975 3272 
Q 2975 3691 2734 3919 
Q 2494 4147 2053 4147 
L 1259 4147 
z
M 628 4666 
L 2053 4666 
Q 2838 4666 3239 4311 
Q 3641 3956 3641 3272 
Q 3641 2581 3239 2228 
Q 2838 1875 2053 1875 
L 1259 1875 
L 1259 0 
L 628 0 
L 628 4666 
z
" transform="scale(0.015625)"/>
       <path id="DejaVuSans-53" d="M 3425 4513 
L 3425 3897 
Q 3066 4069 2747 4153 
Q 2428 4238 2131 4238 
Q 1616 4238 1336 4038 
Q 1056 3838 1056 3469 
Q 1056 3159 1242 3001 
Q 1428 2844 1947 2747 
L 2328 2669 
Q 3034 2534 3370 2195 
Q 3706 1856 3706 1288 
Q 3706 609 3251 259 
Q 2797 -91 1919 -91 
Q 1588 -91 1214 -16 
Q 841 59 441 206 
L 441 856 
Q 825 641 1194 531 
Q 1563 422 1919 422 
Q 2459 422 2753 634 
Q 3047 847 3047 1241 
Q 3047 1584 2836 1778 
Q 2625 1972 2144 2069 
L 1759 2144 
Q 1053 2284 737 2584 
Q 422 2884 422 3419 
Q 422 4038 858 4394 
Q 1294 4750 2059 4750 
Q 2388 4750 2728 4690 
Q 3069 4631 3425 4513 
z
" transform="scale(0.015625)"/>
       <path id="DejaVuSans-4e" d="M 628 4666 
L 1478 4666 
L 3547 763 
L 3547 4666 
L 4159 4666 
L 4159 0 
L 3309 0 
L 1241 3903 
L 1241 0 
L 628 0 
L 628 4666 
z
" transform="scale(0.015625)"/>
       <path id="DejaVuSans-52" d="M 2841 2188 
Q 3044 2119 3236 1894 
Q 3428 1669 3622 1275 
L 4263 0 
L 3584 0 
L 2988 1197 
Q 2756 1666 2539 1819 
Q 2322 1972 1947 1972 
L 1259 1972 
L 1259 0 
L 628 0 
L 628 4666 
L 2053 4666 
Q 2853 4666 3247 4331 
Q 3641 3997 3641 3322 
Q 3641 2881 3436 2590 
Q 3231 2300 2841 2188 
z
M 1259 4147 
L 1259 2491 
L 2053 2491 
Q 2509 2491 2742 2702 
Q 2975 2913 2975 3322 
Q 2975 3731 2742 3939 
Q 2509 4147 2053 4147 
L 1259 4147 
z
" transform="scale(0.015625)"/>
       <path id="DejaVuSans-42" d="M 1259 2228 
L 1259 519 
L 2272 519 
Q 2781 519 3026 730 
Q 3272 941 3272 1375 
Q 3272 1813 3026 2020 
Q 2781 2228 2272 2228 
L 1259 2228 
z
M 1259 4147 
L 1259 2741 
L 2194 2741 
Q 2656 2741 2882 2914 
Q 3109 3088 3109 3444 
Q 3109 3797 2882 3972 
Q 2656 4147 2194 4147 
L 1259 4147 
z
M 628 4666 
L 2241 4666 
Q 2963 4666 3353 4366 
Q 3744 4066 3744 3513 
Q 3744 3084 3544 2831 
Q 3344 2578 2956 2516 
Q 3422 2416 3680 2098 
Q 3938 1781 3938 1306 
Q 3938 681 3513 340 
Q 3088 0 2303 0 
L 628 0 
L 628 4666 
z
" transform="scale(0.015625)"/>
      </defs>
      <use xlink:href="#DejaVuSans-74"/>
      <use xlink:href="#DejaVuSans-65" transform="translate(39.208984 0)"/>
      <use xlink:href="#DejaVuSans-73" transform="translate(100.732422 0)"/>
      <use xlink:href="#DejaVuSans-74" transform="translate(152.832031 0)"/>
      <use xlink:href="#DejaVuSans-20" transform="translate(192.041016 0)"/>
      <use xlink:href="#DejaVuSans-50" transform="translate(223.828125 0)"/>
      <use xlink:href="#DejaVuSans-53" transform="translate(284.130859 0)"/>
      <use xlink:href="#DejaVuSans-4e" transform="translate(347.607422 0)"/>
      <use xlink:href="#DejaVuSans-52" transform="translate(422.412109 0)"/>
      <use xlink:href="#DejaVuSans-20" transform="translate(491.894531 0)"/>
      <use xlink:href="#DejaVuSans-28" transform="translate(523.681641 0)"/>
      <use xlink:href="#DejaVuSans-64" transform="translate(562.695312 0)"/>
      <use xlink:href="#DejaVuSans-42" transform="translate(626.171875 0)"/>
      <use xlink:href="#DejaVuSans-29" transform="translate(694.775391 0)"/>
     </g>
    </g>
   </g>
   <g id="line2d_75">
    <path d="M 51.551903 193.701783 
L 78.02065 193.680517 
L 113.01043 193.733491 
L 139.479176 193.67459 
L 165.947923 194.985044 
L 200.937702 196.449806 
L 227.406449 193.758529 
L 253.875195 196.501517 
L 288.864975 195.915812 
L 315.333722 196.246352 
" clip-path="url(#p6ec51cebbf)" style="fill: none; stroke: #0072b2; stroke-width: 1.6; stroke-linecap: square"/>
    <defs>
     <path id="m20dee5575e" d="M 0 2 
C 0.530406 2 1.03916 1.789267 1.414214 1.414214 
C 1.789267 1.03916 2 0.530406 2 0 
C 2 -0.530406 1.789267 -1.03916 1.414214 -1.414214 
C 1.03916 -1.789267 0.530406 -2 0 -2 
C -0.530406 -2 -1.03916 -1.789267 -1.414214 -1.414214 
C -1.789267 -1.03916 -2 -0.530406 -2 0 
C -2 0.530406 -1.789267 1.03916 -1.414214 1.414214 
C -1.03916 1.789267 -0.530406 2 0 2 
z
" style="stroke: #0072b2"/>
    </defs>
    <g clip-path="url(#p6ec51cebbf)">
     <use xlink:href="#m20dee5575e" x="51.551903" y="193.701783" style="fill: #0072b2; stroke: #0072b2"/>
     <use xlink:href="#m20dee5575e" x="78.02065" y="193.680517" style="fill: #0072b2; stroke: #0072b2"/>
     <use xlink:href="#m20dee5575e" x="113.01043" y="193.733491" style="fill: #0072b2; stroke: #0072b2"/>
     <use xlink:href="#m20dee5575e" x="139.479176" y="193.67459" style="fill: #0072b2; stroke: #0072b2"/>
     <use xlink:href="#m20dee5575e" x="165.947923" y="194.985044" style="fill: #0072b2; stroke: #0072b2"/>
     <use xlink:href="#m20dee5575e" x="200.937702" y="196.449806" style="fill: #0072b2; stroke: #0072b2"/>
     <use xlink:href="#m20dee5575e" x="227.406449" y="193.758529" style="fill: #0072b2; stroke: #0072b2"/>
     <use xlink:href="#m20dee5575e" x="253.875195" y="196.501517" style="fill: #0072b2; stroke: #0072b2"/>
     <use xlink:href="#m20dee5575e" x="288.864975" y="195.915812" style="fill: #0072b2; stroke: #0072b2"/>
     <use xlink:href="#m20dee5575e" x="315.333722" y="196.246352" style="fill: #0072b2; stroke: #0072b2"/>
    </g>
   </g>
   <g id="line2d_76">
    <path d="M 38.362813 193.689937 
L 328.522813 193.689937 
" clip-path="url(#p6ec51cebbf)" style="fill: none; stroke: #0072b2; stroke-opacity: 0.5; stroke-width: 0.8; stroke-linecap: square"/>
   </g>
   <g id="line2d_77">
    <path d="M 51.551903 127.238567 
L 78.02065 127.291422 
L 113.01043 127.30786 
L 139.479176 127.243252 
L 165.947923 127.189153 
L 200.937702 126.96255 
L 227.406449 127.259235 
L 253.875195 126.676981 
L 288.864975 126.761659 
L 315.333722 126.495166 
" clip-path="url(#p6ec51cebbf)" style="fill: none; stroke-dasharray: 5.92,2.56; stroke-dashoffset: 0; stroke: #e69f00; stroke-width: 1.6"/>
    <defs>
     <path id="m0e0005a65f" d="M -2 2 
L 2 2 
L 2 -2 
L -2 -2 
z
" style="stroke: #e69f00; stroke-linejoin: miter"/>
    </defs>
    <g clip-path="url(#p6ec51cebbf)">
     <use xlink:href="#m0e0005a65f" x="51.551903" y="127.238567" style="fill: #e69f00; stroke: #e69f00; stroke-linejoin: miter"/>
     <use xlink:href="#m0e0005a65f" x="78.02065" y="127.291422" style="fill: #e69f00; stroke: #e69f00; stroke-linejoin: miter"/>
     <use xlink:href="#m0e0005a65f" x="113.01043" y="127.30786" style="fill: #e69f00; stroke: #e69f00; stroke-linejoin: miter"/>
     <use xlink:href="#m0e0005a65f" x="139.479176" y="127.243252" style="fill: #e69f00; stroke: #e69f00; stroke-linejoin: miter"/>
     <use xlink:href="#m0e0005a65f" x="165.947923" y="127.189153" style="fill: #e69f00; stroke: #e69f00; stroke-linejoin: miter"/>
     <use xlink:href="#m0e0005a65f" x="200.937702" y="126.96255" style="fill: #e69f00; stroke: #e69f00; stroke-linejoin: miter"/>
     <use xlink:href="#m0e0005a65f" x="227.406449" y="127.259235" style="fill: #e69f00; stroke: #e69f00; stroke-linejoin: miter"/>
     <use xlink:href="#m0e0005a65f" x="253.875195" y="126.676981" style="fill: #e69f00; stroke: #e69f00; stroke-linejoin: miter"/>
     <use xlink:href="#m0e0005a65f" x="288.864975" y="126.761659" style="fill: #e69f00; stroke: #e69f00; stroke-linejoin: miter"/>
     <use xlink:href="#m0e0005a65f" x="315.333722" y="126.495166" style="fill: #e69f00; stroke: #e69f00; stroke-linejoin: miter"/>
    </g>
   </g>
   <g id="line2d_78">
    <path d="M 38.362813 127.235355 
L 328.522813 127.235355 
" clip-path="url(#p6ec51cebbf)" style="fill: none; stroke-dasharray: 2.96,1.28; stroke-dashoffset: 0; stroke: #e69f00; stroke-opacity: 0.5; stroke-width: 0.8"/>
   </g>
   <g id="line2d_79">
    <path d="M 51.551903 84.603304 
L 78.02065 84.704975 
L 113.01043 84.710353 
L 139.479176 84.620573 
L 165.947923 84.297666 
L 200.937702 83.545339 
L 227.406449 84.619207 
L 253.875195 83.167524 
L 288.864975 83.583578 
L 315.333722 82.928683 
" clip-path="url(#p6ec51cebbf)" style="fill: none; stroke-dasharray: 10.24,2.56,1.6,2.56; stroke-dashoffset: 0; stroke: #009e73; stroke-width: 1.6"/>
    <defs>
     <path id="md0157afa39" d="M 0 -2 
L -2 2 
L 2 2 
z
" style="stroke: #009e73; stroke-linejoin: miter"/>
    </defs>
    <g clip-path="url(#p6ec51cebbf)">
     <use xlink:href="#md0157afa39" x="51.551903" y="84.603304" style="fill: #009e73; stroke: #009e73; stroke-linejoin: miter"/>
     <use xlink:href="#md0157afa39" x="78.02065" y="84.704975" style="fill: #009e73; stroke: #009e73; stroke-linejoin: miter"/>
     <use xlink:href="#md0157afa39" x="113.01043" y="84.710353" style="fill: #009e73; stroke: #009e73; stroke-linejoin: miter"/>
     <use xlink:href="#md0157afa39" x="139.479176" y="84.620573" style="fill: #009e73; stroke: #009e73; stroke-linejoin: miter"/>
     <use xlink:href="#md0157afa39" x="165.947923" y="84.297666" style="fill: #009e73; stroke: #009e73; stroke-linejoin: miter"/>
     <use xlink:href="#md0157afa39" x="200.937702" y="83.545339" style="fill: #009e73; stroke: #009e73; stroke-linejoin: miter"/>
     <use xlink:href="#md0157afa39" x="227.406449" y="84.619207" style="fill: #009e73; stroke: #009e73; stroke-linejoin: miter"/>
     <use xlink:href="#md0157afa39" x="253.875195" y="83.167524" style="fill: #009e73; stroke: #009e73; stroke-linejoin: miter"/>
     <use xlink:href="#md0157afa39" x="288.864975" y="83.583578" style="fill: #009e73; stroke: #009e73; stroke-linejoin: miter"/>
     <use xlink:href="#md0157afa39" x="315.333722" y="82.928683" style="fill: #009e73; stroke: #009e73; stroke-linejoin: miter"/>
    </g>
   </g>
   <g id="line2d_80">
    <path d="M 38.362813 84.602698 
L 328.522813 84.602698 
" clip-path="url(#p6ec51cebbf)" style="fill: none; stroke-dasharray: 5.12,1.28,0.8,1.28; stroke-dashoffset: 0; stroke: #009e73; stroke-opacity: 0.5; stroke-width: 0.8"/>
   </g>
   <g id="line2d_81">
    <path d="M 51.551903 22.419042 
L 78.02065 22.576997 
L 113.01043 22.58137 
L 139.479176 22.43837 
L 165.947923 21.795444 
L 200.937702 20.294811 
L 227.406449 22.369581 
L 253.875195 19.804306 
L 288.864975 20.759902 
L 315.333722 19.453469 
" clip-path="url(#p6ec51cebbf)" style="fill: none; stroke-dasharray: 1.6,2.64; stroke-dashoffset: 0; stroke: #cc79a7; stroke-width: 1.6"/>
    <defs>
     <path id="mb722b83017" d="M -0 2.828427 
L 2.828427 0 
L 0 -2.828427 
L -2.828427 -0 
z
" style="stroke: #cc79a7; stroke-linejoin: miter"/>
    </defs>
    <g clip-path="url(#p6ec51cebbf)">
     <use xlink:href="#mb722b83017" x="51.551903" y="22.419042" style="fill: #cc79a7; stroke: #cc79a7; stroke-linejoin: miter"/>
     <use xlink:href="#mb722b83017" x="78.02065" y="22.576997" style="fill: #cc79a7; stroke: #cc79a7; stroke-linejoin: miter"/>
     <use xlink:href="#mb722b83017" x="113.01043" y="22.58137" style="fill: #cc79a7; stroke: #cc79a7; stroke-linejoin: miter"/>
     <use xlink:href="#mb722b83017" x="139.479176" y="22.43837" style="fill: #cc79a7; stroke: #cc79a7; stroke-linejoin: miter"/>
     <use xlink:href="#mb722b83017" x="165.947923" y="21.795444" style="fill: #cc79a7; stroke: #cc79a7; stroke-linejoin: miter"/>
     <use xlink:href="#mb722b83017" x="200.937702" y="20.294811" style="fill: #cc79a7; stroke: #cc79a7; stroke-linejoin: miter"/>
     <use xlink:href="#mb722b83017" x="227.406449" y="22.369581" style="fill: #cc79a7; stroke: #cc79a7; stroke-linejoin: miter"/>
     <use xlink:href="#mb722b83017" x="253.875195" y="19.804306" style="fill: #cc79a7; stroke: #cc79a7; stroke-linejoin: miter"/>
     <use xlink:href="#mb722b83017" x="288.864975" y="20.759902" style="fill: #cc79a7; stroke: #cc79a7; stroke-linejoin: miter"/>
     <use xlink:href="#mb722b83017" x="315.333722" y="19.453469" style="fill: #cc79a7; stroke: #cc79a7; stroke-linejoin: miter"/>
    </g>
   </g>
   <g id="line2d_82">
    <path d="M 38.362813 22.419971 
L 328.522813 22.419971 
" clip-path="url(#p6ec51cebbf)" style="fill: none; stroke-dasharray: 0.8,1.32; stroke-dashoffset: 0; stroke: #cc79a7; stroke-opacity: 0.5; stroke-width: 0.8"/>
   </g>
   <g id="patch_3">
    <path d="M 38.362813 207.942147 
L 38.362813 8.358147 
" style="fill: none; stroke: #000000; stroke-width: 0.8; stroke-linejoin: miter; stroke-linecap: square"/>
   </g>
   <g id="patch_4">
    <path d="M 328.522813 207.942147 
L 328.522813 8.358147 
" style="fill: none; stroke: #000000; stroke-width: 0.8; stroke-linejoin: miter; stroke-linecap: square"/>
   </g>
   <g id="patch_5">
    <path d="M 38.362812 207.942147 
L 328.522812 207.942147 
" style="fill: none; stroke: #000000; stroke-width: 0.8; stroke-linejoin: miter; stroke-linecap: square"/>
   </g>
   <g id="patch_6">
    <path d="M 38.362812 8.358147 
L 328.522812 8.358147 
" style="fill: none; stroke: #000000; stroke-width: 0.8; stroke-linejoin: miter; stroke-linecap: square"/>
   </g>
   <g id="legend_1">
    <g id="line2d_83">
     <path d="M 202.122813 101.670147 
L 210.122813 101.670147 
L 218.122813 101.670147 
" style="fill: none; stroke: #0072b2; stroke-width: 1.6; stroke-linecap: square"/>
     <g>
      <use xlink:href="#m20dee5575e" x="210.122813" y="101.670147" style="fill: #0072b2; stroke: #0072b2"/>
     </g>
    </g>
    <g id="text_20">
     <!-- $\rho=.01$ -->
     <g transform="translate(224.522813 104.470147) scale(0.08 -0.08)">
      <defs>
       <path id="DejaVuSans-Oblique-3c1" d="M 1203 2875 
Q 1453 3194 1981 3475 
Q 2188 3584 2756 3584 
Q 3394 3584 3694 3078 
Q 3994 2572 3834 1747 
Q 3672 922 3175 415 
Q 2678 -91 2041 -91 
Q 1656 -91 1409 63 
Q 1163 213 1044 525 
L 681 -1331 
L 103 -1331 
L 697 1716 
Q 838 2438 1203 2875 
z
M 3238 1747 
Q 3359 2381 3169 2744 
Q 2978 3103 2522 3103 
Q 2066 3103 1734 2744 
Q 1403 2381 1281 1747 
Q 1156 1113 1347 750 
Q 1538 391 1994 391 
Q 2450 391 2781 750 
Q 3113 1113 3238 1747 
z
" transform="scale(0.015625)"/>
       <path id="DejaVuSans-3d" d="M 678 2906 
L 4684 2906 
L 4684 2381 
L 678 2381 
L 678 2906 
z
M 678 1631 
L 4684 1631 
L 4684 1100 
L 678 1100 
L 678 1631 
z
" transform="scale(0.015625)"/>
      </defs>
      <use xlink:href="#DejaVuSans-Oblique-3c1" transform="translate(0 0.78125)"/>
      <use xlink:href="#DejaVuSans-3d" transform="translate(82.958984 0.78125)"/>
      <use xlink:href="#DejaVuSans-2e" transform="translate(186.230469 0.78125)"/>
      <use xlink:href="#DejaVuSans-30" transform="translate(237.5 0.78125)"/>
      <use xlink:href="#DejaVuSans-31" transform="translate(301.123047 0.78125)"/>
     </g>
    </g>
    <g id="line2d_84">
     <path d="M 202.122813 113.428897 
L 210.122813 113.428897 
L 218.122813 113.428897 
" style="fill: none; stroke-dasharray: 5.92,2.56; stroke-dashoffset: 0; stroke: #e69f00; stroke-width: 1.6"/>
     <g>
      <use xlink:href="#m0e0005a65f" x="210.122813" y="113.428897" style="fill: #e69f00; stroke: #e69f00; stroke-linejoin: miter"/>
     </g>
    </g>
    <g id="text_21">
     <!-- $\rho=.05$ -->
     <g transform="translate(224.522813 116.228897) scale(0.08 -0.08)">
      <use xlink:href="#DejaVuSans-Oblique-3c1" transform="translate(0 0.78125)"/>
      <use xlink:href="#DejaVuSans-3d" transform="translate(82.958984 0.78125)"/>
      <use xlink:href="#DejaVuSans-2e" transform="translate(186.230469 0.78125)"/>
      <use xlink:href="#DejaVuSans-30" transform="translate(237.5 0.78125)"/>
      <use xlink:href="#DejaVuSans-35" transform="translate(301.123047 0.78125)"/>
     </g>
    </g>
    <g id="line2d_85">
     <path d="M 269.722813 101.670147 
L 277.722813 101.670147 
L 285.722813 101.670147 
" style="fill: none; stroke-dasharray: 10.24,2.56,1.6,2.56; stroke-dashoffset: 0; stroke: #009e73; stroke-width: 1.6"/>
     <g>
      <use xlink:href="#md0157afa39" x="277.722813" y="101.670147" style="fill: #009e73; stroke: #009e73; stroke-linejoin: miter"/>
     </g>
    </g>
    <g id="text_22">
     <!-- $\rho=.10$ -->
     <g transform="translate(292.122813 104.470147) scale(0.08 -0.08)">
      <use xlink:href="#DejaVuSans-Oblique-3c1" transform="translate(0 0.78125)"/>
      <use xlink:href="#DejaVuSans-3d" transform="translate(82.958984 0.78125)"/>
      <use xlink:href="#DejaVuSans-2e" transform="translate(186.230469 0.78125)"/>
      <use xlink:href="#DejaVuSans-31" transform="translate(237.5 0.78125)"/>
      <use xlink:href="#DejaVuSans-30" transform="translate(301.123047 0.78125)"/>
     </g>
    </g>
    <g id="line2d_86">
     <path d="M 269.722813 113.428897 
L 277.722813 113.428897 
L 285.722813 113.428897 
" style="fill: none; stroke-dasharray: 1.6,2.64; stroke-dashoffset: 0; stroke: #cc79a7; stroke-width: 1.6"/>
     <g>
      <use xlink:href="#mb722b83017" x="277.722813" y="113.428897" style="fill: #cc79a7; stroke: #cc79a7; stroke-linejoin: miter"/>
     </g>
    </g>
    <g id="text_23">
     <!-- $\rho=.20$ -->
     <g transform="translate(292.122813 116.228897) scale(0.08 -0.08)">
      <use xlink:href="#DejaVuSans-Oblique-3c1" transform="translate(0 0.78125)"/>
      <use xlink:href="#DejaVuSans-3d" transform="translate(82.958984 0.78125)"/>
      <use xlink:href="#DejaVuSans-2e" transform="translate(186.230469 0.78125)"/>
      <use xlink:href="#DejaVuSans-32" transform="translate(237.5 0.78125)"/>
      <use xlink:href="#DejaVuSans-30" transform="translate(301.123047 0.78125)"/>
     </g>
    </g>
   </g>
  </g>
 </g>
 <defs>
  <clipPath id="p6ec51cebbf">
   <rect x="38.362813" y="8.358147" width="290.16" height="199.584"/>
  </clipPath>
 </defs>
</svg>
