<?xml version="1.0" encoding="utf-8" standalone="no"?>
<!DOCTYPE svg PUBLIC "-//W3C//DTD SVG 1.1//EN"
  "http://www.w3.org/Graphics/SVG/1.1/DTD/svg11.dtd">
<svg xmlns:xlink="http://www.w3.org/1999/xlink" width="566.21pt" height="328.061187pt" viewBox="0 0 566.21 328.061187" xmlns="http://www.w3.org/2000/svg" version="1.1">
 <metadata>
  <rdf:RDF xmlns:dc="http://purl.org/dc/elements/1.1/" xmlns:cc="http://creativecommons.org/ns#" xmlns:rdf="http://www.w3.org/1999/02/22-rdf-syntax-ns#">
   <cc:Work>
    <dc:type rdf:resource="http://purl.org/dc/dcmitype/StillImage"/>
    <dc:date>2026-05-12T02:01:44.727494</dc:date>
    <dc:format>image/svg+xml</dc:format>
    <dc:creator>
     <cc:Agent>
      <dc:title>Matplotlib v3.10.9, https://matplotlib.org/</dc:title>
     </cc:Agent>
    </dc:creator>
   </cc:Work>
  </rdf:RDF>
 </metadata>
 <defs>
  <style type="text/css">*{stroke-linejoin: round; stroke-linecap: butt}</style>
 </defs>
 <g id="figure_1">
  <g id="patch_1">
   <path d="M 0 328.061187 
L 566.21 328.061187 
L 566.21 0 
L 0 0 
z
" style="fill: #ffffff"/>
  </g>
  <g id="axes_1">
   <g id="patch_2">
    <path d="M 34.85 295.344 
L 559.01 295.344 
L 559.01 7.2 
L 34.85 7.2 
z
" style="fill: #ffffff"/>
   </g>
   <g id="matplotlib.axis_1">
    <g id="xtick_1">
     <g id="line2d_1">
      <path d="M 54.38258 295.344 
L 54.38258 7.2 
" clip-path="url(#p7a969b7d42)" style="fill: none; stroke: #999999; stroke-opacity: 0.3; stroke-width: 0.5; stroke-linecap: square"/>
     </g>
     <g id="line2d_2">
      <defs>
       <path id="mc6d3a1c861" d="M 0 0 
L 0 3.5 
" style="stroke: #000000; stroke-width: 0.8"/>
      </defs>
      <g>
       <use xlink:href="#mc6d3a1c861" x="54.38258" y="295.344" style="stroke: #000000; stroke-width: 0.8"/>
      </g>
     </g>
     <g id="text_1">
      <!-- 0 -->
      <g transform="translate(52.155705 307.662906) scale(0.07 -0.07)">
       <defs>
        <path id="DejaVuSans-30" d="M 2034 4250 
Q 1547 4250 1301 3770 
Q 1056 3291 1056 2328 
Q 1056 1369 1301 889 
Q 1547 409 2034 409 
Q 2525 409 2770 889 
Q 3016 1369 3016 2328 
Q 3016 3291 2770 3770 
Q 2525 4250 2034 4250 
z
M 2034 4750 
Q 2819 4750 3233 4129 
Q 3647 3509 3647 2328 
Q 3647 1150 3233 529 
Q 2819 -91 2034 -91 
Q 1250 -91 836 529 
Q 422 1150 422 2328 
Q 422 3509 836 4129 
Q 1250 4750 2034 4750 
z
" transform="scale(0.015625)"/>
       </defs>
       <use xlink:href="#DejaVuSans-30"/>
      </g>
     </g>
    </g>
    <g id="xtick_2">
     <g id="line2d_3">
      <path d="M 149.779795 295.344 
L 149.779795 7.2 
" clip-path="url(#p7a969b7d42)" style="fill: none; stroke: #999999; stroke-opacity: 0.3; stroke-width: 0.5; stroke-linecap: square"/>
     </g>
     <g id="line2d_4">
      <g>
       <use xlink:href="#mc6d3a1c861" x="149.779795" y="295.344" style="stroke: #000000; stroke-width: 0.8"/>
      </g>
     </g>
     <g id="text_2">
      <!-- 200 -->
      <g transform="translate(143.09917 307.662906) scale(0.07 -0.07)">
       <defs>
        <path id="DejaVuSans-32" d="M 1228 531 
L 3431 531 
L 3431 0 
L 469 0 
L 469 531 
Q 828 903 1448 1529 
Q 2069 2156 2228 2338 
Q 2531 2678 2651 2914 
Q 2772 3150 2772 3378 
Q 2772 3750 2511 3984 
Q 2250 4219 1831 4219 
Q 1534 4219 1204 4116 
Q 875 4013 500 3803 
L 500 4441 
Q 881 4594 1212 4672 
Q 1544 4750 1819 4750 
Q 2544 4750 2975 4387 
Q 3406 4025 3406 3419 
Q 3406 3131 3298 2873 
Q 3191 2616 2906 2266 
Q 2828 2175 2409 1742 
Q 1991 1309 1228 531 
z
" transform="scale(0.015625)"/>
       </defs>
       <use xlink:href="#DejaVuSans-32"/>
       <use xlink:href="#DejaVuSans-30" transform="translate(63.623047 0)"/>
       <use xlink:href="#DejaVuSans-30" transform="translate(127.246094 0)"/>
      </g>
     </g>
    </g>
    <g id="xtick_3">
     <g id="line2d_5">
      <path d="M 245.177011 295.344 
L 245.177011 7.2 
" clip-path="url(#p7a969b7d42)" style="fill: none; stroke: #999999; stroke-opacity: 0.3; stroke-width: 0.5; stroke-linecap: square"/>
     </g>
     <g id="line2d_6">
      <g>
       <use xlink:href="#mc6d3a1c861" x="245.177011" y="295.344" style="stroke: #000000; stroke-width: 0.8"/>
      </g>
     </g>
     <g id="text_3">
      <!-- 400 -->
      <g transform="translate(238.496386 307.662906) scale(0.07 -0.07)">
       <defs>
        <path id="DejaVuSans-34" d="M 2419 4116 
L 825 1625 
L 2419 1625 
L 2419 4116 
z
M 2253 4666 
L 3047 4666 
L 3047 1625 
L 3713 1625 
L 3713 1100 
L 3047 1100 
L 3047 0 
L 2419 0 
L 2419 1100 
L 313 1100 
L 313 1709 
L 2253 4666 
z
" transform="scale(0.015625)"/>
       </defs>
       <use xlink:href="#DejaVuSans-34"/>
       <use xlink:href="#DejaVuSans-30" transform="translate(63.623047 0)"/>
       <use xlink:href="#DejaVuSans-30" transform="translate(127.246094 0)"/>
      </g>
     </g>
    </g>
    <g id="xtick_4">
     <g id="line2d_7">
      <path d="M 340.574226 295.344 
L 340.574226 7.2 
" clip-path="url(#p7a969b7d42)" style="fill: none; stroke: #999999; stroke-opacity: 0.3; stroke-width: 0.5; stroke-linecap: square"/>
     </g>
     <g id="line2d_8">
      <g>
       <use xlink:href="#mc6d3a1c861" x="340.574226" y="295.344" style="stroke: #000000; stroke-width: 0.8"/>
      </g>
     </g>
     <g id="text_4">
      <!-- 600 -->
      <g transform="translate(333.893601 307.662906) scale(0.07 -0.07)">
       <defs>
        <path id="DejaVuSans-36" d="M 2113 2584 
Q 1688 2584 1439 2293 
Q 1191 2003 1191 1497 
Q 1191 994 1439 701 
Q 1688 409 2113 409 
Q 2538 409 2786 701 
Q 3034 994 3034 1497 
Q 3034 2003 2786 2293 
Q 2538 2584 2113 2584 
z
M 3366 4563 
L 3366 3988 
Q 3128 4100 2886 4159 
Q 2644 4219 2406 4219 
Q 1781 4219 1451 3797 
Q 1122 3375 1075 2522 
Q 1259 2794 1537 2939 
Q 1816 3084 2150 3084 
Q 2853 3084 3261 2657 
Q 3669 2231 3669 1497 
Q 3669 778 3244 343 
Q 2819 -91 2113 -91 
Q 1303 -91 875 529 
Q 447 1150 447 2328 
Q 447 3434 972 4092 
Q 1497 4750 2381 4750 
Q 2619 4750 2861 4703 
Q 3103 4656 3366 4563 
z
" transform="scale(0.015625)"/>
       </defs>
       <use xlink:href="#DejaVuSans-36"/>
       <use xlink:href="#DejaVuSans-30" transform="translate(63.623047 0)"/>
       <use xlink:href="#DejaVuSans-30" transform="translate(127.246094 0)"/>
      </g>
     </g>
    </g>
    <g id="xtick_5">
     <g id="line2d_9">
      <path d="M 435.971441 295.344 
L 435.971441 7.2 
" clip-path="url(#p7a969b7d42)" style="fill: none; stroke: #999999; stroke-opacity: 0.3; stroke-width: 0.5; stroke-linecap: square"/>
     </g>
     <g id="line2d_10">
      <g>
       <use xlink:href="#mc6d3a1c861" x="435.971441" y="295.344" style="stroke: #000000; stroke-width: 0.8"/>
      </g>
     </g>
     <g id="text_5">
      <!-- 800 -->
      <g transform="translate(429.290816 307.662906) scale(0.07 -0.07)">
       <defs>
        <path id="DejaVuSans-38" d="M 2034 2216 
Q 1584 2216 1326 1975 
Q 1069 1734 1069 1313 
Q 1069 891 1326 650 
Q 1584 409 2034 409 
Q 2484 409 2743 651 
Q 3003 894 3003 1313 
Q 3003 1734 2745 1975 
Q 2488 2216 2034 2216 
z
M 1403 2484 
Q 997 2584 770 2862 
Q 544 3141 544 3541 
Q 544 4100 942 4425 
Q 1341 4750 2034 4750 
Q 2731 4750 3128 4425 
Q 3525 4100 3525 3541 
Q 3525 3141 3298 2862 
Q 3072 2584 2669 2484 
Q 3125 2378 3379 2068 
Q 3634 1759 3634 1313 
Q 3634 634 3220 271 
Q 2806 -91 2034 -91 
Q 1263 -91 848 271 
Q 434 634 434 1313 
Q 434 1759 690 2068 
Q 947 2378 1403 2484 
z
M 1172 3481 
Q 1172 3119 1398 2916 
Q 1625 2713 2034 2713 
Q 2441 2713 2670 2916 
Q 2900 3119 2900 3481 
Q 2900 3844 2670 4047 
Q 2441 4250 2034 4250 
Q 1625 4250 1398 4047 
Q 1172 3844 1172 3481 
z
" transform="scale(0.015625)"/>
       </defs>
       <use xlink:href="#DejaVuSans-38"/>
       <use xlink:href="#DejaVuSans-30" transform="translate(63.623047 0)"/>
       <use xlink:href="#DejaVuSans-30" transform="translate(127.246094 0)"/>
      </g>
     </g>
    </g>
    <g id="xtick_6">
     <g id="line2d_11">
      <path d="M 531.368657 295.344 
L 531.368657 7.2 
" clip-path="url(#p7a969b7d42)" style="fill: none; stroke: #999999; stroke-opacity: 0.3; stroke-width: 0.5; stroke-linecap: square"/>
     </g>
     <g id="line2d_12">
      <g>
       <use xlink:href="#mc6d3a1c861" x="531.368657" y="295.344" style="stroke: #000000; stroke-width: 0.8"/>
      </g>
     </g>
     <g id="text_6">
      <!-- 1000 -->
      <g transform="translate(522.461157 307.662906) scale(0.07 -0.07)">
       <defs>
        <path id="DejaVuSans-31" d="M 794 531 
L 1825 531 
L 1825 4091 
L 703 3866 
L 703 4441 
L 1819 4666 
L 2450 4666 
L 2450 531 
L 3481 531 
L 3481 0 
L 794 0 
L 794 531 
z
" transform="scale(0.015625)"/>
       </defs>
       <use xlink:href="#DejaVuSans-31"/>
       <use xlink:href="#DejaVuSans-30" transform="translate(63.623047 0)"/>
       <use xlink:href="#DejaVuSans-30" transform="translate(127.246094 0)"/>
       <use xlink:href="#DejaVuSans-30" transform="translate(190.869141 0)"/>
      </g>
     </g>
    </g>
    <g id="xtick_7">
     <g id="line2d_13">
      <path d="M 78.231884 295.344 
L 78.231884 7.2 
" clip-path="url(#p7a969b7d42)" style="fill: none; stroke: #bbbbbb; stroke-opacity: 0.15; stroke-width: 0.3; stroke-linecap: square"/>
     </g>
     <g id="line2d_14">
      <defs>
       <path id="m823ac36f91" d="M 0 0 
L 0 2 
" style="stroke: #000000; stroke-width: 0.6"/>
      </defs>
      <g>
       <use xlink:href="#m823ac36f91" x="78.231884" y="295.344" style="stroke: #000000; stroke-width: 0.6"/>
      </g>
     </g>
    </g>
    <g id="xtick_8">
     <g id="line2d_15">
      <path d="M 102.081188 295.344 
L 102.081188 7.2 
" clip-path="url(#p7a969b7d42)" style="fill: none; stroke: #bbbbbb; stroke-opacity: 0.15; stroke-width: 0.3; stroke-linecap: square"/>
     </g>
     <g id="line2d_16">
      <g>
       <use xlink:href="#m823ac36f91" x="102.081188" y="295.344" style="stroke: #000000; stroke-width: 0.6"/>
      </g>
     </g>
    </g>
    <g id="xtick_9">
     <g id="line2d_17">
      <path d="M 125.930491 295.344 
L 125.930491 7.2 
" clip-path="url(#p7a969b7d42)" style="fill: none; stroke: #bbbbbb; stroke-opacity: 0.15; stroke-width: 0.3; stroke-linecap: square"/>
     </g>
     <g id="line2d_18">
      <g>
       <use xlink:href="#m823ac36f91" x="125.930491" y="295.344" style="stroke: #000000; stroke-width: 0.6"/>
      </g>
     </g>
    </g>
    <g id="xtick_10">
     <g id="line2d_19">
      <path d="M 173.629099 295.344 
L 173.629099 7.2 
" clip-path="url(#p7a969b7d42)" style="fill: none; stroke: #bbbbbb; stroke-opacity: 0.15; stroke-width: 0.3; stroke-linecap: square"/>
     </g>
     <g id="line2d_20">
      <g>
       <use xlink:href="#m823ac36f91" x="173.629099" y="295.344" style="stroke: #000000; stroke-width: 0.6"/>
      </g>
     </g>
    </g>
    <g id="xtick_11">
     <g id="line2d_21">
      <path d="M 197.478403 295.344 
L 197.478403 7.2 
" clip-path="url(#p7a969b7d42)" style="fill: none; stroke: #bbbbbb; stroke-opacity: 0.15; stroke-width: 0.3; stroke-linecap: square"/>
     </g>
     <g id="line2d_22">
      <g>
       <use xlink:href="#m823ac36f91" x="197.478403" y="295.344" style="stroke: #000000; stroke-width: 0.6"/>
      </g>
     </g>
    </g>
    <g id="xtick_12">
     <g id="line2d_23">
      <path d="M 221.327707 295.344 
L 221.327707 7.2 
" clip-path="url(#p7a969b7d42)" style="fill: none; stroke: #bbbbbb; stroke-opacity: 0.15; stroke-width: 0.3; stroke-linecap: square"/>
     </g>
     <g id="line2d_24">
      <g>
       <use xlink:href="#m823ac36f91" x="221.327707" y="295.344" style="stroke: #000000; stroke-width: 0.6"/>
      </g>
     </g>
    </g>
    <g id="xtick_13">
     <g id="line2d_25">
      <path d="M 269.026314 295.344 
L 269.026314 7.2 
" clip-path="url(#p7a969b7d42)" style="fill: none; stroke: #bbbbbb; stroke-opacity: 0.15; stroke-width: 0.3; stroke-linecap: square"/>
     </g>
     <g id="line2d_26">
      <g>
       <use xlink:href="#m823ac36f91" x="269.026314" y="295.344" style="stroke: #000000; stroke-width: 0.6"/>
      </g>
     </g>
    </g>
    <g id="xtick_14">
     <g id="line2d_27">
      <path d="M 292.875618 295.344 
L 292.875618 7.2 
" clip-path="url(#p7a969b7d42)" style="fill: none; stroke: #bbbbbb; stroke-opacity: 0.15; stroke-width: 0.3; stroke-linecap: square"/>
     </g>
     <g id="line2d_28">
      <g>
       <use xlink:href="#m823ac36f91" x="292.875618" y="295.344" style="stroke: #000000; stroke-width: 0.6"/>
      </g>
     </g>
    </g>
    <g id="xtick_15">
     <g id="line2d_29">
      <path d="M 316.724922 295.344 
L 316.724922 7.2 
" clip-path="url(#p7a969b7d42)" style="fill: none; stroke: #bbbbbb; stroke-opacity: 0.15; stroke-width: 0.3; stroke-linecap: square"/>
     </g>
     <g id="line2d_30">
      <g>
       <use xlink:href="#m823ac36f91" x="316.724922" y="295.344" style="stroke: #000000; stroke-width: 0.6"/>
      </g>
     </g>
    </g>
    <g id="xtick_16">
     <g id="line2d_31">
      <path d="M 364.42353 295.344 
L 364.42353 7.2 
" clip-path="url(#p7a969b7d42)" style="fill: none; stroke: #bbbbbb; stroke-opacity: 0.15; stroke-width: 0.3; stroke-linecap: square"/>
     </g>
     <g id="line2d_32">
      <g>
       <use xlink:href="#m823ac36f91" x="364.42353" y="295.344" style="stroke: #000000; stroke-width: 0.6"/>
      </g>
     </g>
    </g>
    <g id="xtick_17">
     <g id="line2d_33">
      <path d="M 388.272834 295.344 
L 388.272834 7.2 
" clip-path="url(#p7a969b7d42)" style="fill: none; stroke: #bbbbbb; stroke-opacity: 0.15; stroke-width: 0.3; stroke-linecap: square"/>
     </g>
     <g id="line2d_34">
      <g>
       <use xlink:href="#m823ac36f91" x="388.272834" y="295.344" style="stroke: #000000; stroke-width: 0.6"/>
      </g>
     </g>
    </g>
    <g id="xtick_18">
     <g id="line2d_35">
      <path d="M 412.122138 295.344 
L 412.122138 7.2 
" clip-path="url(#p7a969b7d42)" style="fill: none; stroke: #bbbbbb; stroke-opacity: 0.15; stroke-width: 0.3; stroke-linecap: square"/>
     </g>
     <g id="line2d_36">
      <g>
       <use xlink:href="#m823ac36f91" x="412.122138" y="295.344" style="stroke: #000000; stroke-width: 0.6"/>
      </g>
     </g>
    </g>
    <g id="xtick_19">
     <g id="line2d_37">
      <path d="M 459.820745 295.344 
L 459.820745 7.2 
" clip-path="url(#p7a969b7d42)" style="fill: none; stroke: #bbbbbb; stroke-opacity: 0.15; stroke-width: 0.3; stroke-linecap: square"/>
     </g>
     <g id="line2d_38">
      <g>
       <use xlink:href="#m823ac36f91" x="459.820745" y="295.344" style="stroke: #000000; stroke-width: 0.6"/>
      </g>
     </g>
    </g>
    <g id="xtick_20">
     <g id="line2d_39">
      <path d="M 483.670049 295.344 
L 483.670049 7.2 
" clip-path="url(#p7a969b7d42)" style="fill: none; stroke: #bbbbbb; stroke-opacity: 0.15; stroke-width: 0.3; stroke-linecap: square"/>
     </g>
     <g id="line2d_40">
      <g>
       <use xlink:href="#m823ac36f91" x="483.670049" y="295.344" style="stroke: #000000; stroke-width: 0.6"/>
      </g>
     </g>
    </g>
    <g id="xtick_21">
     <g id="line2d_41">
      <path d="M 507.519353 295.344 
L 507.519353 7.2 
" clip-path="url(#p7a969b7d42)" style="fill: none; stroke: #bbbbbb; stroke-opacity: 0.15; stroke-width: 0.3; stroke-linecap: square"/>
     </g>
     <g id="line2d_42">
      <g>
       <use xlink:href="#m823ac36f91" x="507.519353" y="295.344" style="stroke: #000000; stroke-width: 0.6"/>
      </g>
     </g>
    </g>
    <g id="xtick_22">
     <g id="line2d_43">
      <path d="M 555.217961 295.344 
L 555.217961 7.2 
" clip-path="url(#p7a969b7d42)" style="fill: none; stroke: #bbbbbb; stroke-opacity: 0.15; stroke-width: 0.3; stroke-linecap: square"/>
     </g>
     <g id="line2d_44">
      <g>
       <use xlink:href="#m823ac36f91" x="555.217961" y="295.344" style="stroke: #000000; stroke-width: 0.6"/>
      </g>
     </g>
    </g>
    <g id="text_7">
     <!-- training step -->
     <g transform="translate(271.510625 319.197437) scale(0.08 -0.08)">
      <defs>
       <path id="DejaVuSans-74" d="M 1172 4494 
L 1172 3500 
L 2356 3500 
L 2356 3053 
L 1172 3053 
L 1172 1153 
Q 1172 725 1289 603 
Q 1406 481 1766 481 
L 2356 481 
L 2356 0 
L 1766 0 
Q 1100 0 847 248 
Q 594 497 594 1153 
L 594 3053 
L 172 3053 
L 172 3500 
L 594 3500 
L 594 4494 
L 1172 4494 
z
" transform="scale(0.015625)"/>
       <path id="DejaVuSans-72" d="M 2631 2963 
Q 2534 3019 2420 3045 
Q 2306 3072 2169 3072 
Q 1681 3072 1420 2755 
Q 1159 2438 1159 1844 
L 1159 0 
L 581 0 
L 581 3500 
L 1159 3500 
L 1159 2956 
Q 1341 3275 1631 3429 
Q 1922 3584 2338 3584 
Q 2397 3584 2469 3576 
Q 2541 3569 2628 3553 
L 2631 2963 
z
" transform="scale(0.015625)"/>
       <path id="DejaVuSans-61" d="M 2194 1759 
Q 1497 1759 1228 1600 
Q 959 1441 959 1056 
Q 959 750 1161 570 
Q 1363 391 1709 391 
Q 2188 391 2477 730 
Q 2766 1069 2766 1631 
L 2766 1759 
L 2194 1759 
z
M 3341 1997 
L 3341 0 
L 2766 0 
L 2766 531 
Q 2569 213 2275 61 
Q 1981 -91 1556 -91 
Q 1019 -91 701 211 
Q 384 513 384 1019 
Q 384 1609 779 1909 
Q 1175 2209 1959 2209 
L 2766 2209 
L 2766 2266 
Q 2766 2663 2505 2880 
Q 2244 3097 1772 3097 
Q 1472 3097 1187 3025 
Q 903 2953 641 2809 
L 641 3341 
Q 956 3463 1253 3523 
Q 1550 3584 1831 3584 
Q 2591 3584 2966 3190 
Q 3341 2797 3341 1997 
z
" transform="scale(0.015625)"/>
       <path id="DejaVuSans-69" d="M 603 3500 
L 1178 3500 
L 1178 0 
L 603 0 
L 603 3500 
z
M 603 4863 
L 1178 4863 
L 1178 4134 
L 603 4134 
L 603 4863 
z
" transform="scale(0.015625)"/>
       <path id="DejaVuSans-6e" d="M 3513 2113 
L 3513 0 
L 2938 0 
L 2938 2094 
Q 2938 2591 2744 2837 
Q 2550 3084 2163 3084 
Q 1697 3084 1428 2787 
Q 1159 2491 1159 1978 
L 1159 0 
L 581 0 
L 581 3500 
L 1159 3500 
L 1159 2956 
Q 1366 3272 1645 3428 
Q 1925 3584 2291 3584 
Q 2894 3584 3203 3211 
Q 3513 2838 3513 2113 
z
" transform="scale(0.015625)"/>
       <path id="DejaVuSans-67" d="M 2906 1791 
Q 2906 2416 2648 2759 
Q 2391 3103 1925 3103 
Q 1463 3103 1205 2759 
Q 947 2416 947 1791 
Q 947 1169 1205 825 
Q 1463 481 1925 481 
Q 2391 481 2648 825 
Q 2906 1169 2906 1791 
z
M 3481 434 
Q 3481 -459 3084 -895 
Q 2688 -1331 1869 -1331 
Q 1566 -1331 1297 -1286 
Q 1028 -1241 775 -1147 
L 775 -588 
Q 1028 -725 1275 -790 
Q 1522 -856 1778 -856 
Q 2344 -856 2625 -561 
Q 2906 -266 2906 331 
L 2906 616 
Q 2728 306 2450 153 
Q 2172 0 1784 0 
Q 1141 0 747 490 
Q 353 981 353 1791 
Q 353 2603 747 3093 
Q 1141 3584 1784 3584 
Q 2172 3584 2450 3431 
Q 2728 3278 2906 2969 
L 2906 3500 
L 3481 3500 
L 3481 434 
z
" transform="scale(0.015625)"/>
       <path id="DejaVuSans-20" transform="scale(0.015625)"/>
       <path id="DejaVuSans-73" d="M 2834 3397 
L 2834 2853 
Q 2591 2978 2328 3040 
Q 2066 3103 1784 3103 
Q 1356 3103 1142 2972 
Q 928 2841 928 2578 
Q 928 2378 1081 2264 
Q 1234 2150 1697 2047 
L 1894 2003 
Q 2506 1872 2764 1633 
Q 3022 1394 3022 966 
Q 3022 478 2636 193 
Q 2250 -91 1575 -91 
Q 1294 -91 989 -36 
Q 684 19 347 128 
L 347 722 
Q 666 556 975 473 
Q 1284 391 1588 391 
Q 1994 391 2212 530 
Q 2431 669 2431 922 
Q 2431 1156 2273 1281 
Q 2116 1406 1581 1522 
L 1381 1569 
Q 847 1681 609 1914 
Q 372 2147 372 2553 
Q 372 3047 722 3315 
Q 1072 3584 1716 3584 
Q 2034 3584 2315 3537 
Q 2597 3491 2834 3397 
z
" transform="scale(0.015625)"/>
       <path id="DejaVuSans-65" d="M 3597 1894 
L 3597 1613 
L 953 1613 
Q 991 1019 1311 708 
Q 1631 397 2203 397 
Q 2534 397 2845 478 
Q 3156 559 3463 722 
L 3463 178 
Q 3153 47 2828 -22 
Q 2503 -91 2169 -91 
Q 1331 -91 842 396 
Q 353 884 353 1716 
Q 353 2575 817 3079 
Q 1281 3584 2069 3584 
Q 2775 3584 3186 3129 
Q 3597 2675 3597 1894 
z
M 3022 2063 
Q 3016 2534 2758 2815 
Q 2500 3097 2075 3097 
Q 1594 3097 1305 2825 
Q 1016 2553 972 2059 
L 3022 2063 
z
" transform="scale(0.015625)"/>
       <path id="DejaVuSans-70" d="M 1159 525 
L 1159 -1331 
L 581 -1331 
L 581 3500 
L 1159 3500 
L 1159 2969 
Q 1341 3281 1617 3432 
Q 1894 3584 2278 3584 
Q 2916 3584 3314 3078 
Q 3713 2572 3713 1747 
Q 3713 922 3314 415 
Q 2916 -91 2278 -91 
Q 1894 -91 1617 61 
Q 1341 213 1159 525 
z
M 3116 1747 
Q 3116 2381 2855 2742 
Q 2594 3103 2138 3103 
Q 1681 3103 1420 2742 
Q 1159 2381 1159 1747 
Q 1159 1113 1420 752 
Q 1681 391 2138 391 
Q 2594 391 2855 752 
Q 3116 1113 3116 1747 
z
" transform="scale(0.015625)"/>
      </defs>
      <use xlink:href="#DejaVuSans-74"/>
      <use xlink:href="#DejaVuSans-72" transform="translate(39.208984 0)"/>
      <use xlink:href="#DejaVuSans-61" transform="translate(80.322266 0)"/>
      <use xlink:href="#DejaVuSans-69" transform="translate(141.601562 0)"/>
      <use xlink:href="#DejaVuSans-6e" transform="translate(169.384766 0)"/>
      <use xlink:href="#DejaVuSans-69" transform="translate(232.763672 0)"/>
      <use xlink:href="#DejaVuSans-6e" transform="translate(260.546875 0)"/>
      <use xlink:href="#DejaVuSans-67" transform="translate(323.925781 0)"/>
      <use xlink:href="#DejaVuSans-20" transform="translate(387.402344 0)"/>
      <use xlink:href="#DejaVuSans-73" transform="translate(419.189453 0)"/>
      <use xlink:href="#DejaVuSans-74" transform="translate(471.289062 0)"/>
      <use xlink:href="#DejaVuSans-65" transform="translate(510.498047 0)"/>
      <use xlink:href="#DejaVuSans-70" transform="translate(572.021484 0)"/>
     </g>
    </g>
   </g>
   <g id="matplotlib.axis_2">
    <g id="ytick_1">
     <g id="line2d_45">
      <path d="M 34.85 248.185371 
L 559.01 248.185371 
" clip-path="url(#p7a969b7d42)" style="fill: none; stroke: #999999; stroke-opacity: 0.3; stroke-width: 0.5; stroke-linecap: square"/>
     </g>
     <g id="line2d_46">
      <defs>
       <path id="m5c09ed6ea0" d="M 0 0 
L -3.5 0 
" style="stroke: #000000; stroke-width: 0.8"/>
      </defs>
      <g>
       <use xlink:href="#m5c09ed6ea0" x="34.85" y="248.185371" style="stroke: #000000; stroke-width: 0.8"/>
      </g>
     </g>
     <g id="text_8">
      <!-- 10 -->
      <g transform="translate(18.9425 250.844824) scale(0.07 -0.07)">
       <use xlink:href="#DejaVuSans-31"/>
       <use xlink:href="#DejaVuSans-30" transform="translate(63.623047 0)"/>
      </g>
     </g>
    </g>
    <g id="ytick_2">
     <g id="line2d_47">
      <path d="M 34.85 190.185069 
L 559.01 190.185069 
" clip-path="url(#p7a969b7d42)" style="fill: none; stroke: #999999; stroke-opacity: 0.3; stroke-width: 0.5; stroke-linecap: square"/>
     </g>
     <g id="line2d_48">
      <g>
       <use xlink:href="#m5c09ed6ea0" x="34.85" y="190.185069" style="stroke: #000000; stroke-width: 0.8"/>
      </g>
     </g>
     <g id="text_9">
      <!-- 15 -->
      <g transform="translate(18.9425 192.844522) scale(0.07 -0.07)">
       <defs>
        <path id="DejaVuSans-35" d="M 691 4666 
L 3169 4666 
L 3169 4134 
L 1269 4134 
L 1269 2991 
Q 1406 3038 1543 3061 
Q 1681 3084 1819 3084 
Q 2600 3084 3056 2656 
Q 3513 2228 3513 1497 
Q 3513 744 3044 326 
Q 2575 -91 1722 -91 
Q 1428 -91 1123 -41 
Q 819 9 494 109 
L 494 744 
Q 775 591 1075 516 
Q 1375 441 1709 441 
Q 2250 441 2565 725 
Q 2881 1009 2881 1497 
Q 2881 1984 2565 2268 
Q 2250 2553 1709 2553 
Q 1456 2553 1204 2497 
Q 953 2441 691 2322 
L 691 4666 
z
" transform="scale(0.015625)"/>
       </defs>
       <use xlink:href="#DejaVuSans-31"/>
       <use xlink:href="#DejaVuSans-35" transform="translate(63.623047 0)"/>
      </g>
     </g>
    </g>
    <g id="ytick_3">
     <g id="line2d_49">
      <path d="M 34.85 132.184767 
L 559.01 132.184767 
" clip-path="url(#p7a969b7d42)" style="fill: none; stroke: #999999; stroke-opacity: 0.3; stroke-width: 0.5; stroke-linecap: square"/>
     </g>
     <g id="line2d_50">
      <g>
       <use xlink:href="#m5c09ed6ea0" x="34.85" y="132.184767" style="stroke: #000000; stroke-width: 0.8"/>
      </g>
     </g>
     <g id="text_10">
      <!-- 20 -->
      <g transform="translate(18.9425 134.84422) scale(0.07 -0.07)">
       <use xlink:href="#DejaVuSans-32"/>
       <use xlink:href="#DejaVuSans-30" transform="translate(63.623047 0)"/>
      </g>
     </g>
    </g>
    <g id="ytick_4">
     <g id="line2d_51">
      <path d="M 34.85 74.184465 
L 559.01 74.184465 
" clip-path="url(#p7a969b7d42)" style="fill: none; stroke: #999999; stroke-opacity: 0.3; stroke-width: 0.5; stroke-linecap: square"/>
     </g>
     <g id="line2d_52">
      <g>
       <use xlink:href="#m5c09ed6ea0" x="34.85" y="74.184465" style="stroke: #000000; stroke-width: 0.8"/>
      </g>
     </g>
     <g id="text_11">
      <!-- 25 -->
      <g transform="translate(18.9425 76.843918) scale(0.07 -0.07)">
       <use xlink:href="#DejaVuSans-32"/>
       <use xlink:href="#DejaVuSans-35" transform="translate(63.623047 0)"/>
      </g>
     </g>
    </g>
    <g id="ytick_5">
     <g id="line2d_53">
      <path d="M 34.85 16.184163 
L 559.01 16.184163 
" clip-path="url(#p7a969b7d42)" style="fill: none; stroke: #999999; stroke-opacity: 0.3; stroke-width: 0.5; stroke-linecap: square"/>
     </g>
     <g id="line2d_54">
      <g>
       <use xlink:href="#m5c09ed6ea0" x="34.85" y="16.184163" style="stroke: #000000; stroke-width: 0.8"/>
      </g>
     </g>
     <g id="text_12">
      <!-- 30 -->
      <g transform="translate(18.9425 18.843616) scale(0.07 -0.07)">
       <defs>
        <path id="DejaVuSans-33" d="M 2597 2516 
Q 3050 2419 3304 2112 
Q 3559 1806 3559 1356 
Q 3559 666 3084 287 
Q 2609 -91 1734 -91 
Q 1441 -91 1130 -33 
Q 819 25 488 141 
L 488 750 
Q 750 597 1062 519 
Q 1375 441 1716 441 
Q 2309 441 2620 675 
Q 2931 909 2931 1356 
Q 2931 1769 2642 2001 
Q 2353 2234 1838 2234 
L 1294 2234 
L 1294 2753 
L 1863 2753 
Q 2328 2753 2575 2939 
Q 2822 3125 2822 3475 
Q 2822 3834 2567 4026 
Q 2313 4219 1838 4219 
Q 1578 4219 1281 4162 
Q 984 4106 628 3988 
L 628 4550 
Q 988 4650 1302 4700 
Q 1616 4750 1894 4750 
Q 2613 4750 3031 4423 
Q 3450 4097 3450 3541 
Q 3450 3153 3228 2886 
Q 3006 2619 2597 2516 
z
" transform="scale(0.015625)"/>
       </defs>
       <use xlink:href="#DejaVuSans-33"/>
       <use xlink:href="#DejaVuSans-30" transform="translate(63.623047 0)"/>
      </g>
     </g>
    </g>
    <g id="ytick_6">
     <g id="line2d_55">
      <path d="M 34.85 294.585612 
L 559.01 294.585612 
" clip-path="url(#p7a969b7d42)" style="fill: none; stroke: #bbbbbb; stroke-opacity: 0.15; stroke-width: 0.3; stroke-linecap: square"/>
     </g>
     <g id="line2d_56">
      <defs>
       <path id="mf2227d4489" d="M 0 0 
L -2 0 
" style="stroke: #000000; stroke-width: 0.6"/>
      </defs>
      <g>
       <use xlink:href="#mf2227d4489" x="34.85" y="294.585612" style="stroke: #000000; stroke-width: 0.6"/>
      </g>
     </g>
    </g>
    <g id="ytick_7">
     <g id="line2d_57">
      <path d="M 34.85 282.985552 
L 559.01 282.985552 
" clip-path="url(#p7a969b7d42)" style="fill: none; stroke: #bbbbbb; stroke-opacity: 0.15; stroke-width: 0.3; stroke-linecap: square"/>
     </g>
     <g id="line2d_58">
      <g>
       <use xlink:href="#mf2227d4489" x="34.85" y="282.985552" style="stroke: #000000; stroke-width: 0.6"/>
      </g>
     </g>
    </g>
    <g id="ytick_8">
     <g id="line2d_59">
      <path d="M 34.85 271.385491 
L 559.01 271.385491 
" clip-path="url(#p7a969b7d42)" style="fill: none; stroke: #bbbbbb; stroke-opacity: 0.15; stroke-width: 0.3; stroke-linecap: square"/>
     </g>
     <g id="line2d_60">
      <g>
       <use xlink:href="#mf2227d4489" x="34.85" y="271.385491" style="stroke: #000000; stroke-width: 0.6"/>
      </g>
     </g>
    </g>
    <g id="ytick_9">
     <g id="line2d_61">
      <path d="M 34.85 259.785431 
L 559.01 259.785431 
" clip-path="url(#p7a969b7d42)" style="fill: none; stroke: #bbbbbb; stroke-opacity: 0.15; stroke-width: 0.3; stroke-linecap: square"/>
     </g>
     <g id="line2d_62">
      <g>
       <use xlink:href="#mf2227d4489" x="34.85" y="259.785431" style="stroke: #000000; stroke-width: 0.6"/>
      </g>
     </g>
    </g>
    <g id="ytick_10">
     <g id="line2d_63">
      <path d="M 34.85 236.58531 
L 559.01 236.58531 
" clip-path="url(#p7a969b7d42)" style="fill: none; stroke: #bbbbbb; stroke-opacity: 0.15; stroke-width: 0.3; stroke-linecap: square"/>
     </g>
     <g id="line2d_64">
      <g>
       <use xlink:href="#mf2227d4489" x="34.85" y="236.58531" style="stroke: #000000; stroke-width: 0.6"/>
      </g>
     </g>
    </g>
    <g id="ytick_11">
     <g id="line2d_65">
      <path d="M 34.85 224.98525 
L 559.01 224.98525 
" clip-path="url(#p7a969b7d42)" style="fill: none; stroke: #bbbbbb; stroke-opacity: 0.15; stroke-width: 0.3; stroke-linecap: square"/>
     </g>
     <g id="line2d_66">
      <g>
       <use xlink:href="#mf2227d4489" x="34.85" y="224.98525" style="stroke: #000000; stroke-width: 0.6"/>
      </g>
     </g>
    </g>
    <g id="ytick_12">
     <g id="line2d_67">
      <path d="M 34.85 213.385189 
L 559.01 213.385189 
" clip-path="url(#p7a969b7d42)" style="fill: none; stroke: #bbbbbb; stroke-opacity: 0.15; stroke-width: 0.3; stroke-linecap: square"/>
     </g>
     <g id="line2d_68">
      <g>
       <use xlink:href="#mf2227d4489" x="34.85" y="213.385189" style="stroke: #000000; stroke-width: 0.6"/>
      </g>
     </g>
    </g>
    <g id="ytick_13">
     <g id="line2d_69">
      <path d="M 34.85 201.785129 
L 559.01 201.785129 
" clip-path="url(#p7a969b7d42)" style="fill: none; stroke: #bbbbbb; stroke-opacity: 0.15; stroke-width: 0.3; stroke-linecap: square"/>
     </g>
     <g id="line2d_70">
      <g>
       <use xlink:href="#mf2227d4489" x="34.85" y="201.785129" style="stroke: #000000; stroke-width: 0.6"/>
      </g>
     </g>
    </g>
    <g id="ytick_14">
     <g id="line2d_71">
      <path d="M 34.85 178.585008 
L 559.01 178.585008 
" clip-path="url(#p7a969b7d42)" style="fill: none; stroke: #bbbbbb; stroke-opacity: 0.15; stroke-width: 0.3; stroke-linecap: square"/>
     </g>
     <g id="line2d_72">
      <g>
       <use xlink:href="#mf2227d4489" x="34.85" y="178.585008" style="stroke: #000000; stroke-width: 0.6"/>
      </g>
     </g>
    </g>
    <g id="ytick_15">
     <g id="line2d_73">
      <path d="M 34.85 166.984948 
L 559.01 166.984948 
" clip-path="url(#p7a969b7d42)" style="fill: none; stroke: #bbbbbb; stroke-opacity: 0.15; stroke-width: 0.3; stroke-linecap: square"/>
     </g>
     <g id="line2d_74">
      <g>
       <use xlink:href="#mf2227d4489" x="34.85" y="166.984948" style="stroke: #000000; stroke-width: 0.6"/>
      </g>
     </g>
    </g>
    <g id="ytick_16">
     <g id="line2d_75">
      <path d="M 34.85 155.384887 
L 559.01 155.384887 
" clip-path="url(#p7a969b7d42)" style="fill: none; stroke: #bbbbbb; stroke-opacity: 0.15; stroke-width: 0.3; stroke-linecap: square"/>
     </g>
     <g id="line2d_76">
      <g>
       <use xlink:href="#mf2227d4489" x="34.85" y="155.384887" style="stroke: #000000; stroke-width: 0.6"/>
      </g>
     </g>
    </g>
    <g id="ytick_17">
     <g id="line2d_77">
      <path d="M 34.85 143.784827 
L 559.01 143.784827 
" clip-path="url(#p7a969b7d42)" style="fill: none; stroke: #bbbbbb; stroke-opacity: 0.15; stroke-width: 0.3; stroke-linecap: square"/>
     </g>
     <g id="line2d_78">
      <g>
       <use xlink:href="#mf2227d4489" x="34.85" y="143.784827" style="stroke: #000000; stroke-width: 0.6"/>
      </g>
     </g>
    </g>
    <g id="ytick_18">
     <g id="line2d_79">
      <path d="M 34.85 120.584706 
L 559.01 120.584706 
" clip-path="url(#p7a969b7d42)" style="fill: none; stroke: #bbbbbb; stroke-opacity: 0.15; stroke-width: 0.3; stroke-linecap: square"/>
     </g>
     <g id="line2d_80">
      <g>
       <use xlink:href="#mf2227d4489" x="34.85" y="120.584706" style="stroke: #000000; stroke-width: 0.6"/>
      </g>
     </g>
    </g>
    <g id="ytick_19">
     <g id="line2d_81">
      <path d="M 34.85 108.984646 
L 559.01 108.984646 
" clip-path="url(#p7a969b7d42)" style="fill: none; stroke: #bbbbbb; stroke-opacity: 0.15; stroke-width: 0.3; stroke-linecap: square"/>
     </g>
     <g id="line2d_82">
      <g>
       <use xlink:href="#mf2227d4489" x="34.85" y="108.984646" style="stroke: #000000; stroke-width: 0.6"/>
      </g>
     </g>
    </g>
    <g id="ytick_20">
     <g id="line2d_83">
      <path d="M 34.85 97.384586 
L 559.01 97.384586 
" clip-path="url(#p7a969b7d42)" style="fill: none; stroke: #bbbbbb; stroke-opacity: 0.15; stroke-width: 0.3; stroke-linecap: square"/>
     </g>
     <g id="line2d_84">
      <g>
       <use xlink:href="#mf2227d4489" x="34.85" y="97.384586" style="stroke: #000000; stroke-width: 0.6"/>
      </g>
     </g>
    </g>
    <g id="ytick_21">
     <g id="line2d_85">
      <path d="M 34.85 85.784525 
L 559.01 85.784525 
" clip-path="url(#p7a969b7d42)" style="fill: none; stroke: #bbbbbb; stroke-opacity: 0.15; stroke-width: 0.3; stroke-linecap: square"/>
     </g>
     <g id="line2d_86">
      <g>
       <use xlink:href="#mf2227d4489" x="34.85" y="85.784525" style="stroke: #000000; stroke-width: 0.6"/>
      </g>
     </g>
    </g>
    <g id="ytick_22">
     <g id="line2d_87">
      <path d="M 34.85 62.584404 
L 559.01 62.584404 
" clip-path="url(#p7a969b7d42)" style="fill: none; stroke: #bbbbbb; stroke-opacity: 0.15; stroke-width: 0.3; stroke-linecap: square"/>
     </g>
     <g id="line2d_88">
      <g>
       <use xlink:href="#mf2227d4489" x="34.85" y="62.584404" style="stroke: #000000; stroke-width: 0.6"/>
      </g>
     </g>
    </g>
    <g id="ytick_23">
     <g id="line2d_89">
      <path d="M 34.85 50.984344 
L 559.01 50.984344 
" clip-path="url(#p7a969b7d42)" style="fill: none; stroke: #bbbbbb; stroke-opacity: 0.15; stroke-width: 0.3; stroke-linecap: square"/>
     </g>
     <g id="line2d_90">
      <g>
       <use xlink:href="#mf2227d4489" x="34.85" y="50.984344" style="stroke: #000000; stroke-width: 0.6"/>
      </g>
     </g>
    </g>
    <g id="ytick_24">
     <g id="line2d_91">
      <path d="M 34.85 39.384284 
L 559.01 39.384284 
" clip-path="url(#p7a969b7d42)" style="fill: none; stroke: #bbbbbb; stroke-opacity: 0.15; stroke-width: 0.3; stroke-linecap: square"/>
     </g>
     <g id="line2d_92">
      <g>
       <use xlink:href="#mf2227d4489" x="34.85" y="39.384284" style="stroke: #000000; stroke-width: 0.6"/>
      </g>
     </g>
    </g>
    <g id="ytick_25">
     <g id="line2d_93">
      <path d="M 34.85 27.784223 
L 559.01 27.784223 
" clip-path="url(#p7a969b7d42)" style="fill: none; stroke: #bbbbbb; stroke-opacity: 0.15; stroke-width: 0.3; stroke-linecap: square"/>
     </g>
     <g id="line2d_94">
      <g>
       <use xlink:href="#mf2227d4489" x="34.85" y="27.784223" style="stroke: #000000; stroke-width: 0.6"/>
      </g>
     </g>
    </g>
    <g id="text_13">
     <!-- absolute val MSE -->
     <g transform="translate(13.27875 185.460125) rotate(-90) scale(0.08 -0.08)">
      <defs>
       <path id="DejaVuSans-62" d="M 3116 1747 
Q 3116 2381 2855 2742 
Q 2594 3103 2138 3103 
Q 1681 3103 1420 2742 
Q 1159 2381 1159 1747 
Q 1159 1113 1420 752 
Q 1681 391 2138 391 
Q 2594 391 2855 752 
Q 3116 1113 3116 1747 
z
M 1159 2969 
Q 1341 3281 1617 3432 
Q 1894 3584 2278 3584 
Q 2916 3584 3314 3078 
Q 3713 2572 3713 1747 
Q 3713 922 3314 415 
Q 2916 -91 2278 -91 
Q 1894 -91 1617 61 
Q 1341 213 1159 525 
L 1159 0 
L 581 0 
L 581 4863 
L 1159 4863 
L 1159 2969 
z
" transform="scale(0.015625)"/>
       <path id="DejaVuSans-6f" d="M 1959 3097 
Q 1497 3097 1228 2736 
Q 959 2375 959 1747 
Q 959 1119 1226 758 
Q 1494 397 1959 397 
Q 2419 397 2687 759 
Q 2956 1122 2956 1747 
Q 2956 2369 2687 2733 
Q 2419 3097 1959 3097 
z
M 1959 3584 
Q 2709 3584 3137 3096 
Q 3566 2609 3566 1747 
Q 3566 888 3137 398 
Q 2709 -91 1959 -91 
Q 1206 -91 779 398 
Q 353 888 353 1747 
Q 353 2609 779 3096 
Q 1206 3584 1959 3584 
z
" transform="scale(0.015625)"/>
       <path id="DejaVuSans-6c" d="M 603 4863 
L 1178 4863 
L 1178 0 
L 603 0 
L 603 4863 
z
" transform="scale(0.015625)"/>
       <path id="DejaVuSans-75" d="M 544 1381 
L 544 3500 
L 1119 3500 
L 1119 1403 
Q 1119 906 1312 657 
Q 1506 409 1894 409 
Q 2359 409 2629 706 
Q 2900 1003 2900 1516 
L 2900 3500 
L 3475 3500 
L 3475 0 
L 2900 0 
L 2900 538 
Q 2691 219 2414 64 
Q 2138 -91 1772 -91 
Q 1169 -91 856 284 
Q 544 659 544 1381 
z
M 1991 3584 
L 1991 3584 
z
" transform="scale(0.015625)"/>
       <path id="DejaVuSans-76" d="M 191 3500 
L 800 3500 
L 1894 563 
L 2988 3500 
L 3597 3500 
L 2284 0 
L 1503 0 
L 191 3500 
z
" transform="scale(0.015625)"/>
       <path id="DejaVuSans-4d" d="M 628 4666 
L 1569 4666 
L 2759 1491 
L 3956 4666 
L 4897 4666 
L 4897 0 
L 4281 0 
L 4281 4097 
L 3078 897 
L 2444 897 
L 1241 4097 
L 1241 0 
L 628 0 
L 628 4666 
z
" transform="scale(0.015625)"/>
       <path id="DejaVuSans-53" d="M 3425 4513 
L 3425 3897 
Q 3066 4069 2747 4153 
Q 2428 4238 2131 4238 
Q 1616 4238 1336 4038 
Q 1056 3838 1056 3469 
Q 1056 3159 1242 3001 
Q 1428 2844 1947 2747 
L 2328 2669 
Q 3034 2534 3370 2195 
Q 3706 1856 3706 1288 
Q 3706 609 3251 259 
Q 2797 -91 1919 -91 
Q 1588 -91 1214 -16 
Q 841 59 441 206 
L 441 856 
Q 825 641 1194 531 
Q 1563 422 1919 422 
Q 2459 422 2753 634 
Q 3047 847 3047 1241 
Q 3047 1584 2836 1778 
Q 2625 1972 2144 2069 
L 1759 2144 
Q 1053 2284 737 2584 
Q 422 2884 422 3419 
Q 422 4038 858 4394 
Q 1294 4750 2059 4750 
Q 2388 4750 2728 4690 
Q 3069 4631 3425 4513 
z
" transform="scale(0.015625)"/>
       <path id="DejaVuSans-45" d="M 628 4666 
L 3578 4666 
L 3578 4134 
L 1259 4134 
L 1259 2753 
L 3481 2753 
L 3481 2222 
L 1259 2222 
L 1259 531 
L 3634 531 
L 3634 0 
L 628 0 
L 628 4666 
z
" transform="scale(0.015625)"/>
      </defs>
      <use xlink:href="#DejaVuSans-61"/>
      <use xlink:href="#DejaVuSans-62" transform="translate(61.279297 0)"/>
      <use xlink:href="#DejaVuSans-73" transform="translate(124.755859 0)"/>
      <use xlink:href="#DejaVuSans-6f" transform="translate(176.855469 0)"/>
      <use xlink:href="#DejaVuSans-6c" transform="translate(238.037109 0)"/>
      <use xlink:href="#DejaVuSans-75" transform="translate(265.820312 0)"/>
      <use xlink:href="#DejaVuSans-74" transform="translate(329.199219 0)"/>
      <use xlink:href="#DejaVuSans-65" transform="translate(368.408203 0)"/>
      <use xlink:href="#DejaVuSans-20" transform="translate(429.931641 0)"/>
      <use xlink:href="#DejaVuSans-76" transform="translate(461.71875 0)"/>
      <use xlink:href="#DejaVuSans-61" transform="translate(520.898438 0)"/>
      <use xlink:href="#DejaVuSans-6c" transform="translate(582.177734 0)"/>
      <use xlink:href="#DejaVuSans-20" transform="translate(609.960938 0)"/>
      <use xlink:href="#DejaVuSans-4d" transform="translate(641.748047 0)"/>
      <use xlink:href="#DejaVuSans-53" transform="translate(728.027344 0)"/>
      <use xlink:href="#DejaVuSans-45" transform="translate(791.503906 0)"/>
     </g>
    </g>
   </g>
   <g id="line2d_95">
    <path d="M 58.675455 147.824951 
L 62.968329 150.18228 
L 67.261204 153.570765 
L 71.554079 159.292552 
L 75.846953 169.545271 
L 80.139828 186.487525 
L 84.432703 209.78235 
L 88.725577 235.659188 
L 93.018452 257.513826 
L 97.311327 272.837968 
L 101.604201 277.765076 
L 105.897076 280.043932 
L 110.189951 281.121218 
L 114.482826 281.388216 
L 118.7757 281.800162 
L 123.068575 282.07011 
L 127.36145 282.121439 
L 131.654324 282.151258 
L 135.947199 282.215248 
L 140.240074 282.243238 
L 144.532948 282.246545 
L 148.825823 282.135083 
L 153.118698 282.226232 
L 157.411572 282.116249 
L 161.704447 282.139687 
L 165.997322 282.110226 
L 170.290197 282.105443 
L 174.583071 282.003792 
L 178.875946 281.997184 
L 183.168821 281.922645 
L 187.461695 281.970267 
L 191.75457 281.89192 
L 196.047445 281.822385 
L 200.340319 281.755546 
L 204.633194 281.678043 
L 208.926069 281.769829 
L 213.218943 281.627456 
L 217.511818 281.643765 
L 221.804693 281.629316 
L 226.097568 281.578861 
L 230.390442 281.647433 
L 234.683317 281.617452 
L 238.976192 281.603374 
L 243.269066 281.643153 
L 247.561941 281.63521 
L 251.854816 281.597296 
L 256.14769 281.669919 
L 260.440565 281.622959 
L 264.73344 281.64975 
L 269.026314 281.611272 
L 273.319189 281.603375 
L 277.612064 281.549017 
L 281.904939 281.594812 
L 286.197813 281.571005 
L 290.490688 281.632287 
L 294.783563 281.586563 
L 299.076437 281.636835 
L 303.369312 281.649057 
L 307.662187 281.688834 
L 311.955061 281.695778 
L 316.247936 281.726675 
L 320.540811 281.723828 
L 324.833686 281.760158 
L 329.12656 281.768555 
L 333.419435 281.760337 
L 337.71231 281.790282 
L 342.005184 281.792267 
L 346.298059 281.780708 
L 350.590934 281.767712 
L 354.883808 281.813639 
L 359.176683 281.794572 
L 363.469558 281.82426 
L 367.762432 281.830805 
L 372.055307 281.851564 
L 376.348182 281.851293 
L 380.641057 281.829563 
L 384.933931 281.869051 
L 389.226806 281.861274 
L 393.519681 281.877719 
L 397.812555 281.856968 
L 402.10543 281.865836 
L 406.398305 281.90621 
L 410.691179 281.922862 
L 414.984054 281.908939 
L 419.276929 281.900542 
L 423.569803 281.90595 
L 427.862678 281.903142 
L 432.155553 281.914043 
L 436.448428 281.919675 
L 440.741302 281.915425 
L 445.034177 281.901248 
L 449.327052 281.90423 
L 453.619926 281.918606 
L 457.912801 281.892969 
L 462.205676 281.917963 
L 466.49855 281.908114 
L 470.791425 281.913028 
L 475.0843 281.920019 
L 479.377174 281.908575 
L 483.670049 281.921365 
L 487.962924 281.916739 
L 492.255799 281.92283 
L 496.548673 281.914254 
L 500.841548 281.927804 
L 505.134423 281.925535 
L 509.427297 281.925926 
L 513.720172 281.920675 
L 518.013047 281.935343 
L 522.305921 281.948922 
L 526.598796 281.943695 
L 530.891671 281.949549 
L 535.184545 281.937578 
" clip-path="url(#p7a969b7d42)" style="fill: none; stroke: #cb6020; stroke-opacity: 0.85; stroke-width: 1.5; stroke-linecap: square"/>
   </g>
   <g id="line2d_96">
    <path d="M 58.675455 183.616243 
L 62.968329 186.037367 
L 67.261204 189.928014 
L 71.554079 195.355931 
L 75.846953 202.993125 
L 80.139828 214.511437 
L 84.432703 231.164514 
L 88.725577 249.229485 
L 93.018452 265.890657 
L 97.311327 275.502402 
L 101.604201 279.408199 
L 105.897076 280.731923 
L 110.189951 280.914068 
L 114.482826 281.01921 
L 118.7757 281.130486 
L 123.068575 281.226228 
L 127.36145 281.132042 
L 131.654324 281.109204 
L 135.947199 281.029511 
L 140.240074 281.055971 
L 144.532948 281.066804 
L 148.825823 281.036099 
L 153.118698 281.150689 
L 157.411572 281.170614 
L 161.704447 281.232594 
L 165.997322 281.238162 
L 170.290197 281.289784 
L 174.583071 281.276025 
L 178.875946 281.278716 
L 183.168821 281.268185 
L 187.461695 281.227347 
L 191.75457 281.246028 
L 196.047445 281.166694 
L 200.340319 281.267293 
L 204.633194 281.188327 
L 208.926069 281.233587 
L 213.218943 281.243883 
L 217.511818 281.248531 
L 221.804693 281.251739 
L 226.097568 281.211989 
L 230.390442 281.204748 
L 234.683317 281.189217 
L 238.976192 281.213534 
L 243.269066 281.242534 
L 247.561941 281.202495 
L 251.854816 281.177881 
L 256.14769 281.207929 
L 260.440565 281.23105 
L 264.73344 281.20993 
L 269.026314 281.264921 
L 273.319189 281.233222 
L 277.612064 281.20889 
L 281.904939 281.226837 
L 286.197813 281.226283 
L 290.490688 281.209722 
L 294.783563 281.237426 
L 299.076437 281.225222 
L 303.369312 281.216432 
L 307.662187 281.20749 
L 311.955061 281.224141 
L 316.247936 281.202867 
L 320.540811 281.2396 
L 324.833686 281.264049 
L 329.12656 281.237072 
L 333.419435 281.227704 
L 337.71231 281.239409 
L 342.005184 281.208212 
L 346.298059 281.21542 
L 350.590934 281.225143 
L 354.883808 281.241873 
L 359.176683 281.233566 
L 363.469558 281.238585 
L 367.762432 281.211496 
L 372.055307 281.236572 
L 376.348182 281.225428 
L 380.641057 281.238151 
L 384.933931 281.261251 
L 389.226806 281.228103 
L 393.519681 281.224605 
L 397.812555 281.241398 
L 402.10543 281.23873 
L 406.398305 281.226627 
L 410.691179 281.240236 
L 414.984054 281.234283 
L 419.276929 281.216375 
L 423.569803 281.222908 
L 427.862678 281.247168 
L 432.155553 281.247146 
L 436.448428 281.229287 
L 440.741302 281.24352 
L 445.034177 281.231648 
L 449.327052 281.252569 
L 453.619926 281.253278 
L 457.912801 281.24504 
L 462.205676 281.238456 
L 466.49855 281.234445 
L 470.791425 281.235015 
L 475.0843 281.241335 
L 479.377174 281.230462 
L 483.670049 281.245663 
L 487.962924 281.237864 
L 492.255799 281.229625 
L 496.548673 281.229797 
L 500.841548 281.234998 
L 505.134423 281.231548 
L 509.427297 281.229267 
L 513.720172 281.232068 
L 518.013047 281.240108 
L 522.305921 281.237197 
L 526.598796 281.235477 
L 530.891671 281.245537 
L 535.184545 281.241433 
" clip-path="url(#p7a969b7d42)" style="fill: none; stroke: #000000; stroke-opacity: 0.85; stroke-width: 1.5; stroke-linecap: square"/>
   </g>
   <g id="line2d_97">
    <path d="M 58.675455 146.862608 
L 62.968329 146.949191 
L 67.261204 147.186373 
L 71.554079 147.804886 
L 75.846953 149.399094 
L 80.139828 152.671044 
L 84.432703 157.30332 
L 88.725577 162.898603 
L 93.018452 169.147931 
L 97.311327 176.268 
L 101.604201 184.187336 
L 105.897076 192.438972 
L 110.189951 200.844626 
L 114.482826 209.136208 
L 118.7757 217.267535 
L 123.068575 225.595703 
L 127.36145 233.652032 
L 131.654324 241.24469 
L 135.947199 248.150842 
L 140.240074 254.03818 
L 144.532948 258.668504 
L 148.825823 261.771222 
L 153.118698 263.317883 
L 157.411572 263.509238 
L 161.704447 263.491918 
L 165.997322 263.486034 
L 170.290197 263.508632 
L 174.583071 263.516203 
L 178.875946 263.499577 
L 183.168821 263.514281 
L 187.461695 263.524943 
L 191.75457 263.531415 
L 196.047445 263.521468 
L 200.340319 263.529005 
L 204.633194 263.53435 
L 208.926069 263.526466 
L 213.218943 263.536301 
L 217.511818 263.528103 
L 221.804693 263.538999 
L 226.097568 263.525445 
L 230.390442 263.51536 
L 234.683317 263.52749 
L 238.976192 263.525885 
L 243.269066 263.523213 
L 247.561941 263.521731 
L 251.854816 263.529802 
L 256.14769 263.528678 
L 260.440565 263.530291 
L 264.73344 263.539021 
L 269.026314 263.538137 
L 273.319189 263.528715 
L 277.612064 263.514138 
L 281.904939 263.532204 
L 286.197813 263.524289 
L 290.490688 263.518901 
L 294.783563 263.528143 
L 299.076437 263.528272 
L 303.369312 263.521687 
L 307.662187 263.533726 
L 311.955061 263.520799 
L 316.247936 263.515524 
L 320.540811 263.525835 
L 324.833686 263.504555 
L 329.12656 263.519086 
L 333.419435 263.524445 
L 337.71231 263.517525 
L 342.005184 263.510221 
L 346.298059 263.525588 
L 350.590934 263.521965 
L 354.883808 263.533574 
L 359.176683 263.534091 
L 363.469558 263.528765 
L 367.762432 263.52936 
L 372.055307 263.535614 
L 376.348182 263.538412 
L 380.641057 263.530557 
L 384.933931 263.528242 
L 389.226806 263.526825 
L 393.519681 263.530812 
L 397.812555 263.532269 
L 402.10543 263.530977 
L 406.398305 263.533799 
L 410.691179 263.534077 
L 414.984054 263.533058 
L 419.276929 263.528524 
L 423.569803 263.528204 
L 427.862678 263.529097 
L 432.155553 263.532475 
L 436.448428 263.535914 
L 440.741302 263.532399 
L 445.034177 263.528867 
L 449.327052 263.528671 
L 453.619926 263.528924 
L 457.912801 263.52796 
L 462.205676 263.528779 
L 466.49855 263.531444 
L 470.791425 263.531743 
L 475.0843 263.534773 
L 479.377174 263.533309 
L 483.670049 263.53194 
L 487.962924 263.531281 
L 492.255799 263.530596 
L 496.548673 263.529224 
L 500.841548 263.527534 
L 505.134423 263.530997 
L 509.427297 263.531894 
L 513.720172 263.532641 
L 518.013047 263.532776 
L 522.305921 263.533577 
L 526.598796 263.532652 
L 530.891671 263.531596 
L 535.184545 263.52852 
" clip-path="url(#p7a969b7d42)" style="fill: none; stroke: #a50f15; stroke-opacity: 0.85; stroke-width: 1.5; stroke-linecap: square"/>
   </g>
   <g id="line2d_98">
    <path d="M 58.675455 20.297455 
L 62.968329 20.41043 
L 67.261204 20.683382 
L 71.554079 21.219862 
L 75.846953 22.265382 
L 80.139828 23.857023 
L 84.432703 25.514748 
L 88.725577 27.412723 
L 93.018452 29.948488 
L 97.311327 33.346677 
L 101.604201 38.177374 
L 105.897076 43.902397 
L 110.189951 50.621952 
L 114.482826 58.31578 
L 118.7757 65.956028 
L 123.068575 73.383433 
L 127.36145 82.003145 
L 131.654324 93.001365 
L 135.947199 105.408665 
L 140.240074 118.179187 
L 144.532948 130.453074 
L 148.825823 141.804242 
L 153.118698 151.663937 
L 157.411572 159.906179 
L 161.704447 166.510168 
L 165.997322 171.648809 
L 170.290197 176.115041 
L 174.583071 180.270208 
L 178.875946 183.887244 
L 183.168821 186.657101 
L 187.461695 188.529312 
L 191.75457 189.440063 
L 196.047445 189.674318 
L 200.340319 189.639826 
L 204.633194 189.682148 
L 208.926069 189.618768 
L 213.218943 189.68594 
L 217.511818 189.635241 
L 221.804693 189.720281 
L 226.097568 189.742389 
L 230.390442 189.680193 
L 234.683317 189.638463 
L 238.976192 189.683921 
L 243.269066 189.651296 
L 247.561941 189.617984 
L 251.854816 189.683646 
L 256.14769 189.662368 
L 260.440565 189.624336 
L 264.73344 189.706341 
L 269.026314 189.710409 
L 273.319189 189.63869 
L 277.612064 189.629684 
L 281.904939 189.689668 
L 286.197813 189.687893 
L 290.490688 189.656549 
L 294.783563 189.668806 
L 299.076437 189.669167 
L 303.369312 189.65693 
L 307.662187 189.646007 
L 311.955061 189.634204 
L 316.247936 189.606912 
L 320.540811 189.689584 
L 324.833686 189.670165 
L 329.12656 189.62139 
L 333.419435 189.654663 
L 337.71231 189.692955 
L 342.005184 189.698774 
L 346.298059 189.643784 
L 350.590934 189.676062 
L 354.883808 189.691001 
L 359.176683 189.663774 
L 363.469558 189.673984 
L 367.762432 189.662589 
L 372.055307 189.655564 
L 376.348182 189.673162 
L 380.641057 189.677195 
L 384.933931 189.683195 
L 389.226806 189.65879 
L 393.519681 189.650051 
L 397.812555 189.66522 
L 402.10543 189.668544 
L 406.398305 189.687261 
L 410.691179 189.67475 
L 414.984054 189.669975 
L 419.276929 189.651553 
L 423.569803 189.683177 
L 427.862678 189.671998 
L 432.155553 189.656542 
L 436.448428 189.666324 
L 440.741302 189.674063 
L 445.034177 189.658648 
L 449.327052 189.648315 
L 453.619926 189.648285 
L 457.912801 189.66075 
L 462.205676 189.669045 
L 466.49855 189.6735 
L 470.791425 189.677773 
L 475.0843 189.678291 
L 479.377174 189.67485 
L 483.670049 189.676206 
L 487.962924 189.676447 
L 492.255799 189.673236 
L 496.548673 189.664875 
L 500.841548 189.663753 
L 505.134423 189.672858 
L 509.427297 189.675833 
L 513.720172 189.670068 
L 518.013047 189.670101 
L 522.305921 189.669491 
L 526.598796 189.66788 
L 530.891671 189.669007 
L 535.184545 189.671016 
" clip-path="url(#p7a969b7d42)" style="fill: none; stroke: #2171b5; stroke-opacity: 0.85; stroke-width: 1.5; stroke-linecap: square"/>
   </g>
   <g id="line2d_99">
    <path d="M 58.675455 99.833842 
L 62.968329 99.848966 
L 67.261204 99.898899 
L 71.554079 99.932913 
L 75.846953 99.940565 
L 80.139828 99.918582 
L 84.432703 99.982694 
L 88.725577 100.201672 
L 93.018452 100.232049 
L 97.311327 100.291484 
L 101.604201 100.351468 
L 105.897076 100.288978 
L 110.189951 100.224712 
L 114.482826 100.29871 
L 118.7757 100.512144 
L 123.068575 101.088044 
L 127.36145 102.162561 
L 131.654324 104.182168 
L 135.947199 108.005007 
L 140.240074 113.891138 
L 144.532948 121.061614 
L 148.825823 128.722908 
L 153.118698 136.463615 
L 157.411572 143.712662 
L 161.704447 150.196826 
L 165.997322 155.560359 
L 170.290197 159.312355 
L 174.583071 161.291681 
L 178.875946 161.792696 
L 183.168821 162.400415 
L 187.461695 163.74932 
L 191.75457 166.596809 
L 196.047445 170.080174 
L 200.340319 173.711857 
L 204.633194 177.302856 
L 208.926069 180.610337 
L 213.218943 183.613623 
L 217.511818 186.198125 
L 221.804693 188.028324 
L 226.097568 189.121169 
L 230.390442 189.581809 
L 234.683317 189.648162 
L 238.976192 189.659843 
L 243.269066 189.608925 
L 247.561941 189.595238 
L 251.854816 189.633964 
L 256.14769 189.618425 
L 260.440565 189.614591 
L 264.73344 189.644864 
L 269.026314 189.659905 
L 273.319189 189.608989 
L 277.612064 189.612434 
L 281.904939 189.650436 
L 286.197813 189.646259 
L 290.490688 189.623982 
L 294.783563 189.659537 
L 299.076437 189.68213 
L 303.369312 189.656502 
L 307.662187 189.639444 
L 311.955061 189.625889 
L 316.247936 189.59496 
L 320.540811 189.647242 
L 324.833686 189.661128 
L 329.12656 189.621491 
L 333.419435 189.643846 
L 337.71231 189.650165 
L 342.005184 189.657694 
L 346.298059 189.619831 
L 350.590934 189.636736 
L 354.883808 189.653913 
L 359.176683 189.656231 
L 363.469558 189.662768 
L 367.762432 189.652753 
L 372.055307 189.634165 
L 376.348182 189.641864 
L 380.641057 189.636514 
L 384.933931 189.6498 
L 389.226806 189.648972 
L 393.519681 189.639901 
L 397.812555 189.645547 
L 402.10543 189.646706 
L 406.398305 189.652913 
L 410.691179 189.656701 
L 414.984054 189.655725 
L 419.276929 189.641846 
L 423.569803 189.64395 
L 427.862678 189.644689 
L 432.155553 189.635144 
L 436.448428 189.639985 
L 440.741302 189.641598 
L 445.034177 189.63478 
L 449.327052 189.634682 
L 453.619926 189.635005 
L 457.912801 189.643516 
L 462.205676 189.647292 
L 466.49855 189.647107 
L 470.791425 189.652011 
L 475.0843 189.651995 
L 479.377174 189.647131 
L 483.670049 189.649595 
L 487.962924 189.64642 
L 492.255799 189.646089 
L 496.548673 189.644513 
L 500.841548 189.639366 
L 505.134423 189.644307 
L 509.427297 189.64526 
L 513.720172 189.648449 
L 518.013047 189.649675 
L 522.305921 189.647475 
L 526.598796 189.647094 
L 530.891671 189.644803 
L 535.184545 189.646206 
" clip-path="url(#p7a969b7d42)" style="fill: none; stroke: #0e6655; stroke-opacity: 0.85; stroke-width: 1.5; stroke-linecap: square"/>
   </g>
   <g id="line2d_100">
    <path d="M 58.675455 20.306936 
L 62.968329 20.443546 
L 67.261204 20.729834 
L 71.554079 21.351956 
L 75.846953 22.471033 
L 80.139828 24.084805 
L 84.432703 25.792339 
L 88.725577 27.965131 
L 93.018452 30.419743 
L 97.311327 34.146609 
L 101.604201 39.965953 
L 105.897076 47.128907 
L 110.189951 56.272852 
L 114.482826 67.504079 
L 118.7757 80.314351 
L 123.068575 93.554821 
L 127.36145 106.499171 
L 131.654324 118.842965 
L 135.947199 130.038707 
L 140.240074 139.967652 
L 144.532948 148.405648 
L 148.825823 155.604918 
L 153.118698 161.929658 
L 157.411572 167.337052 
L 161.704447 171.665021 
L 165.997322 175.840007 
L 170.290197 179.986515 
L 174.583071 183.426456 
L 178.875946 186.224552 
L 183.168821 188.18301 
L 187.461695 189.267392 
L 191.75457 189.55097 
L 196.047445 189.65346 
L 200.340319 189.641926 
L 204.633194 189.686713 
L 208.926069 189.631482 
L 213.218943 189.621397 
L 217.511818 189.570548 
L 221.804693 189.656632 
L 226.097568 189.637744 
L 230.390442 189.575572 
L 234.683317 189.53264 
L 238.976192 189.591847 
L 243.269066 189.594385 
L 247.561941 189.56678 
L 251.854816 189.610773 
L 256.14769 189.594874 
L 260.440565 189.574255 
L 264.73344 189.612808 
L 269.026314 189.589258 
L 273.319189 189.546502 
L 277.612064 189.559305 
L 281.904939 189.6071 
L 286.197813 189.603512 
L 290.490688 189.611334 
L 294.783563 189.617352 
L 299.076437 189.626043 
L 303.369312 189.56687 
L 307.662187 189.569054 
L 311.955061 189.556791 
L 316.247936 189.533387 
L 320.540811 189.597791 
L 324.833686 189.570105 
L 329.12656 189.522275 
L 333.419435 189.560228 
L 337.71231 189.570101 
L 342.005184 189.588561 
L 346.298059 189.562585 
L 350.590934 189.5991 
L 354.883808 189.609885 
L 359.176683 189.605825 
L 363.469558 189.623421 
L 367.762432 189.603745 
L 372.055307 189.574884 
L 376.348182 189.603556 
L 380.641057 189.613875 
L 384.933931 189.608993 
L 389.226806 189.594564 
L 393.519681 189.588156 
L 397.812555 189.605807 
L 402.10543 189.61089 
L 406.398305 189.611953 
L 410.691179 189.607667 
L 414.984054 189.603842 
L 419.276929 189.583294 
L 423.569803 189.612944 
L 427.862678 189.59986 
L 432.155553 189.593659 
L 436.448428 189.598605 
L 440.741302 189.598879 
L 445.034177 189.585834 
L 449.327052 189.579808 
L 453.619926 189.581859 
L 457.912801 189.592741 
L 462.205676 189.599061 
L 466.49855 189.595417 
L 470.791425 189.602048 
L 475.0843 189.600956 
L 479.377174 189.594269 
L 483.670049 189.597304 
L 487.962924 189.60117 
L 492.255799 189.601967 
L 496.548673 189.597941 
L 500.841548 189.594863 
L 505.134423 189.604101 
L 509.427297 189.60387 
L 513.720172 189.602959 
L 518.013047 189.605648 
L 522.305921 189.607006 
L 526.598796 189.603769 
L 530.891671 189.602714 
L 535.184545 189.604628 
" clip-path="url(#p7a969b7d42)" style="fill: none; stroke: #08306b; stroke-opacity: 0.85; stroke-width: 1.5; stroke-linecap: square"/>
   </g>
   <g id="patch_3">
    <path d="M 34.85 295.344 
L 34.85 7.2 
" style="fill: none; stroke: #000000; stroke-width: 0.8; stroke-linejoin: miter; stroke-linecap: square"/>
   </g>
   <g id="patch_4">
    <path d="M 34.85 295.344 
L 559.01 295.344 
" style="fill: none; stroke: #000000; stroke-width: 0.8; stroke-linejoin: miter; stroke-linecap: square"/>
   </g>
   <g id="line2d_101">
    <path d="M 67.261204 153.570765 
L 97.311327 272.837968 
L 127.36145 282.121439 
L 157.411572 282.116249 
L 187.461695 281.970267 
L 217.511818 281.643765 
L 247.561941 281.63521 
L 277.612064 281.549017 
L 307.662187 281.688834 
L 337.71231 281.790282 
L 367.762432 281.830805 
L 397.812555 281.856968 
L 427.862678 281.903142 
L 457.912801 281.892969 
L 535.184545 281.937578 
" clip-path="url(#p7a969b7d42)" style="fill: none"/>
    <defs>
     <path id="m427687b807" d="M 0 -2.25 
L -1.948557 -1.125 
L -1.948557 1.125 
L -0 2.25 
L 1.948557 1.125 
L 1.948557 -1.125 
z
" style="stroke: #cb6020; stroke-linejoin: miter"/>
    </defs>
    <g clip-path="url(#p7a969b7d42)">
     <use xlink:href="#m427687b807" x="67.261204" y="153.570765" style="fill: #cb6020; stroke: #cb6020; stroke-linejoin: miter"/>
     <use xlink:href="#m427687b807" x="97.311327" y="272.837968" style="fill: #cb6020; stroke: #cb6020; stroke-linejoin: miter"/>
     <use xlink:href="#m427687b807" x="127.36145" y="282.121439" style="fill: #cb6020; stroke: #cb6020; stroke-linejoin: miter"/>
     <use xlink:href="#m427687b807" x="157.411572" y="282.116249" style="fill: #cb6020; stroke: #cb6020; stroke-linejoin: miter"/>
     <use xlink:href="#m427687b807" x="187.461695" y="281.970267" style="fill: #cb6020; stroke: #cb6020; stroke-linejoin: miter"/>
     <use xlink:href="#m427687b807" x="217.511818" y="281.643765" style="fill: #cb6020; stroke: #cb6020; stroke-linejoin: miter"/>
     <use xlink:href="#m427687b807" x="247.561941" y="281.63521" style="fill: #cb6020; stroke: #cb6020; stroke-linejoin: miter"/>
     <use xlink:href="#m427687b807" x="277.612064" y="281.549017" style="fill: #cb6020; stroke: #cb6020; stroke-linejoin: miter"/>
     <use xlink:href="#m427687b807" x="307.662187" y="281.688834" style="fill: #cb6020; stroke: #cb6020; stroke-linejoin: miter"/>
     <use xlink:href="#m427687b807" x="337.71231" y="281.790282" style="fill: #cb6020; stroke: #cb6020; stroke-linejoin: miter"/>
     <use xlink:href="#m427687b807" x="367.762432" y="281.830805" style="fill: #cb6020; stroke: #cb6020; stroke-linejoin: miter"/>
     <use xlink:href="#m427687b807" x="397.812555" y="281.856968" style="fill: #cb6020; stroke: #cb6020; stroke-linejoin: miter"/>
     <use xlink:href="#m427687b807" x="427.862678" y="281.903142" style="fill: #cb6020; stroke: #cb6020; stroke-linejoin: miter"/>
     <use xlink:href="#m427687b807" x="457.912801" y="281.892969" style="fill: #cb6020; stroke: #cb6020; stroke-linejoin: miter"/>
     <use xlink:href="#m427687b807" x="535.184545" y="281.937578" style="fill: #cb6020; stroke: #cb6020; stroke-linejoin: miter"/>
    </g>
   </g>
   <g id="line2d_102">
    <path d="M 75.846953 202.993125 
L 114.482826 281.01921 
L 153.118698 281.150689 
L 191.75457 281.246028 
L 230.390442 281.204748 
L 269.026314 281.264921 
L 307.662187 281.20749 
L 346.298059 281.21542 
L 384.933931 281.261251 
L 423.569803 281.222908 
L 462.205676 281.238456 
L 500.841548 281.234998 
L 535.184545 281.241433 
" clip-path="url(#p7a969b7d42)" style="fill: none"/>
    <defs>
     <path id="mf30f77be84" d="M -0 3.181981 
L 3.181981 0 
L 0 -3.181981 
L -3.181981 -0 
z
" style="stroke: #000000; stroke-linejoin: miter"/>
    </defs>
    <g clip-path="url(#p7a969b7d42)">
     <use xlink:href="#mf30f77be84" x="75.846953" y="202.993125" style="stroke: #000000; stroke-linejoin: miter"/>
     <use xlink:href="#mf30f77be84" x="114.482826" y="281.01921" style="stroke: #000000; stroke-linejoin: miter"/>
     <use xlink:href="#mf30f77be84" x="153.118698" y="281.150689" style="stroke: #000000; stroke-linejoin: miter"/>
     <use xlink:href="#mf30f77be84" x="191.75457" y="281.246028" style="stroke: #000000; stroke-linejoin: miter"/>
     <use xlink:href="#mf30f77be84" x="230.390442" y="281.204748" style="stroke: #000000; stroke-linejoin: miter"/>
     <use xlink:href="#mf30f77be84" x="269.026314" y="281.264921" style="stroke: #000000; stroke-linejoin: miter"/>
     <use xlink:href="#mf30f77be84" x="307.662187" y="281.20749" style="stroke: #000000; stroke-linejoin: miter"/>
     <use xlink:href="#mf30f77be84" x="346.298059" y="281.21542" style="stroke: #000000; stroke-linejoin: miter"/>
     <use xlink:href="#mf30f77be84" x="384.933931" y="281.261251" style="stroke: #000000; stroke-linejoin: miter"/>
     <use xlink:href="#mf30f77be84" x="423.569803" y="281.222908" style="stroke: #000000; stroke-linejoin: miter"/>
     <use xlink:href="#mf30f77be84" x="462.205676" y="281.238456" style="stroke: #000000; stroke-linejoin: miter"/>
     <use xlink:href="#mf30f77be84" x="500.841548" y="281.234998" style="stroke: #000000; stroke-linejoin: miter"/>
     <use xlink:href="#mf30f77be84" x="535.184545" y="281.241433" style="stroke: #000000; stroke-linejoin: miter"/>
    </g>
   </g>
   <g id="line2d_103">
    <path d="M 84.432703 157.30332 
L 131.654324 241.24469 
L 178.875946 263.499577 
L 226.097568 263.525445 
L 273.319189 263.528715 
L 320.540811 263.525835 
L 367.762432 263.52936 
L 414.984054 263.533058 
L 462.205676 263.528779 
L 509.427297 263.531894 
L 535.184545 263.52852 
" clip-path="url(#p7a969b7d42)" style="fill: none"/>
    <defs>
     <path id="mbc028b9935" d="M -2.25 2.25 
L 2.25 2.25 
L 2.25 -2.25 
L -2.25 -2.25 
z
" style="stroke: #a50f15; stroke-linejoin: miter"/>
    </defs>
    <g clip-path="url(#p7a969b7d42)">
     <use xlink:href="#mbc028b9935" x="84.432703" y="157.30332" style="fill: #a50f15; stroke: #a50f15; stroke-linejoin: miter"/>
     <use xlink:href="#mbc028b9935" x="131.654324" y="241.24469" style="fill: #a50f15; stroke: #a50f15; stroke-linejoin: miter"/>
     <use xlink:href="#mbc028b9935" x="178.875946" y="263.499577" style="fill: #a50f15; stroke: #a50f15; stroke-linejoin: miter"/>
     <use xlink:href="#mbc028b9935" x="226.097568" y="263.525445" style="fill: #a50f15; stroke: #a50f15; stroke-linejoin: miter"/>
     <use xlink:href="#mbc028b9935" x="273.319189" y="263.528715" style="fill: #a50f15; stroke: #a50f15; stroke-linejoin: miter"/>
     <use xlink:href="#mbc028b9935" x="320.540811" y="263.525835" style="fill: #a50f15; stroke: #a50f15; stroke-linejoin: miter"/>
     <use xlink:href="#mbc028b9935" x="367.762432" y="263.52936" style="fill: #a50f15; stroke: #a50f15; stroke-linejoin: miter"/>
     <use xlink:href="#mbc028b9935" x="414.984054" y="263.533058" style="fill: #a50f15; stroke: #a50f15; stroke-linejoin: miter"/>
     <use xlink:href="#mbc028b9935" x="462.205676" y="263.528779" style="fill: #a50f15; stroke: #a50f15; stroke-linejoin: miter"/>
     <use xlink:href="#mbc028b9935" x="509.427297" y="263.531894" style="fill: #a50f15; stroke: #a50f15; stroke-linejoin: miter"/>
     <use xlink:href="#mbc028b9935" x="535.184545" y="263.52852" style="fill: #a50f15; stroke: #a50f15; stroke-linejoin: miter"/>
    </g>
   </g>
   <g id="line2d_104">
    <path d="M 93.018452 29.948488 
L 148.825823 141.804242 
L 204.633194 189.682148 
L 260.440565 189.624336 
L 316.247936 189.606912 
L 372.055307 189.655564 
L 427.862678 189.671998 
L 483.670049 189.676206 
L 535.184545 189.671016 
" clip-path="url(#p7a969b7d42)" style="fill: none"/>
    <defs>
     <path id="m20f29f6dcc" d="M -1.25 2.5 
L 0 1.25 
L 1.25 2.5 
L 2.5 1.25 
L 1.25 0 
L 2.5 -1.25 
L 1.25 -2.5 
L 0 -1.25 
L -1.25 -2.5 
L -2.5 -1.25 
L -1.25 0 
L -2.5 1.25 
z
" style="stroke: #2171b5; stroke-linejoin: miter"/>
    </defs>
    <g clip-path="url(#p7a969b7d42)">
     <use xlink:href="#m20f29f6dcc" x="93.018452" y="29.948488" style="fill: #2171b5; stroke: #2171b5; stroke-linejoin: miter"/>
     <use xlink:href="#m20f29f6dcc" x="148.825823" y="141.804242" style="fill: #2171b5; stroke: #2171b5; stroke-linejoin: miter"/>
     <use xlink:href="#m20f29f6dcc" x="204.633194" y="189.682148" style="fill: #2171b5; stroke: #2171b5; stroke-linejoin: miter"/>
     <use xlink:href="#m20f29f6dcc" x="260.440565" y="189.624336" style="fill: #2171b5; stroke: #2171b5; stroke-linejoin: miter"/>
     <use xlink:href="#m20f29f6dcc" x="316.247936" y="189.606912" style="fill: #2171b5; stroke: #2171b5; stroke-linejoin: miter"/>
     <use xlink:href="#m20f29f6dcc" x="372.055307" y="189.655564" style="fill: #2171b5; stroke: #2171b5; stroke-linejoin: miter"/>
     <use xlink:href="#m20f29f6dcc" x="427.862678" y="189.671998" style="fill: #2171b5; stroke: #2171b5; stroke-linejoin: miter"/>
     <use xlink:href="#m20f29f6dcc" x="483.670049" y="189.676206" style="fill: #2171b5; stroke: #2171b5; stroke-linejoin: miter"/>
     <use xlink:href="#m20f29f6dcc" x="535.184545" y="189.671016" style="fill: #2171b5; stroke: #2171b5; stroke-linejoin: miter"/>
    </g>
   </g>
   <g id="line2d_105">
    <path d="M 71.554079 99.932913 
L 105.897076 100.288978 
L 140.240074 113.891138 
L 174.583071 161.291681 
L 208.926069 180.610337 
L 243.269066 189.608925 
L 277.612064 189.612434 
L 311.955061 189.625889 
L 346.298059 189.619831 
L 380.641057 189.636514 
L 414.984054 189.655725 
L 449.327052 189.634682 
L 483.670049 189.649595 
L 518.013047 189.649675 
L 535.184545 189.646206 
" clip-path="url(#p7a969b7d42)" style="fill: none"/>
    <defs>
     <path id="m15757fbe89" d="M 0 -2.25 
L -2.25 2.25 
L 2.25 2.25 
z
" style="stroke: #0e6655; stroke-linejoin: miter"/>
    </defs>
    <g clip-path="url(#p7a969b7d42)">
     <use xlink:href="#m15757fbe89" x="71.554079" y="99.932913" style="fill: #0e6655; stroke: #0e6655; stroke-linejoin: miter"/>
     <use xlink:href="#m15757fbe89" x="105.897076" y="100.288978" style="fill: #0e6655; stroke: #0e6655; stroke-linejoin: miter"/>
     <use xlink:href="#m15757fbe89" x="140.240074" y="113.891138" style="fill: #0e6655; stroke: #0e6655; stroke-linejoin: miter"/>
     <use xlink:href="#m15757fbe89" x="174.583071" y="161.291681" style="fill: #0e6655; stroke: #0e6655; stroke-linejoin: miter"/>
     <use xlink:href="#m15757fbe89" x="208.926069" y="180.610337" style="fill: #0e6655; stroke: #0e6655; stroke-linejoin: miter"/>
     <use xlink:href="#m15757fbe89" x="243.269066" y="189.608925" style="fill: #0e6655; stroke: #0e6655; stroke-linejoin: miter"/>
     <use xlink:href="#m15757fbe89" x="277.612064" y="189.612434" style="fill: #0e6655; stroke: #0e6655; stroke-linejoin: miter"/>
     <use xlink:href="#m15757fbe89" x="311.955061" y="189.625889" style="fill: #0e6655; stroke: #0e6655; stroke-linejoin: miter"/>
     <use xlink:href="#m15757fbe89" x="346.298059" y="189.619831" style="fill: #0e6655; stroke: #0e6655; stroke-linejoin: miter"/>
     <use xlink:href="#m15757fbe89" x="380.641057" y="189.636514" style="fill: #0e6655; stroke: #0e6655; stroke-linejoin: miter"/>
     <use xlink:href="#m15757fbe89" x="414.984054" y="189.655725" style="fill: #0e6655; stroke: #0e6655; stroke-linejoin: miter"/>
     <use xlink:href="#m15757fbe89" x="449.327052" y="189.634682" style="fill: #0e6655; stroke: #0e6655; stroke-linejoin: miter"/>
     <use xlink:href="#m15757fbe89" x="483.670049" y="189.649595" style="fill: #0e6655; stroke: #0e6655; stroke-linejoin: miter"/>
     <use xlink:href="#m15757fbe89" x="518.013047" y="189.649675" style="fill: #0e6655; stroke: #0e6655; stroke-linejoin: miter"/>
     <use xlink:href="#m15757fbe89" x="535.184545" y="189.646206" style="fill: #0e6655; stroke: #0e6655; stroke-linejoin: miter"/>
    </g>
   </g>
   <g id="line2d_106">
    <path d="M 80.139828 24.084805 
L 123.068575 93.554821 
L 165.997322 175.840007 
L 208.926069 189.631482 
L 251.854816 189.610773 
L 294.783563 189.617352 
L 337.71231 189.570101 
L 380.641057 189.613875 
L 423.569803 189.612944 
L 466.49855 189.595417 
L 509.427297 189.60387 
L 535.184545 189.604628 
" clip-path="url(#p7a969b7d42)" style="fill: none"/>
    <defs>
     <path id="m67060fdc0f" d="M 0 2.25 
C 0.596707 2.25 1.169055 2.012926 1.59099 1.59099 
C 2.012926 1.169055 2.25 0.596707 2.25 0 
C 2.25 -0.596707 2.012926 -1.169055 1.59099 -1.59099 
C 1.169055 -2.012926 0.596707 -2.25 0 -2.25 
C -0.596707 -2.25 -1.169055 -2.012926 -1.59099 -1.59099 
C -2.012926 -1.169055 -2.25 -0.596707 -2.25 0 
C -2.25 0.596707 -2.012926 1.169055 -1.59099 1.59099 
C -1.169055 2.012926 -0.596707 2.25 0 2.25 
z
" style="stroke: #08306b"/>
    </defs>
    <g clip-path="url(#p7a969b7d42)">
     <use xlink:href="#m67060fdc0f" x="80.139828" y="24.084805" style="fill: #08306b; stroke: #08306b"/>
     <use xlink:href="#m67060fdc0f" x="123.068575" y="93.554821" style="fill: #08306b; stroke: #08306b"/>
     <use xlink:href="#m67060fdc0f" x="165.997322" y="175.840007" style="fill: #08306b; stroke: #08306b"/>
     <use xlink:href="#m67060fdc0f" x="208.926069" y="189.631482" style="fill: #08306b; stroke: #08306b"/>
     <use xlink:href="#m67060fdc0f" x="251.854816" y="189.610773" style="fill: #08306b; stroke: #08306b"/>
     <use xlink:href="#m67060fdc0f" x="294.783563" y="189.617352" style="fill: #08306b; stroke: #08306b"/>
     <use xlink:href="#m67060fdc0f" x="337.71231" y="189.570101" style="fill: #08306b; stroke: #08306b"/>
     <use xlink:href="#m67060fdc0f" x="380.641057" y="189.613875" style="fill: #08306b; stroke: #08306b"/>
     <use xlink:href="#m67060fdc0f" x="423.569803" y="189.612944" style="fill: #08306b; stroke: #08306b"/>
     <use xlink:href="#m67060fdc0f" x="466.49855" y="189.595417" style="fill: #08306b; stroke: #08306b"/>
     <use xlink:href="#m67060fdc0f" x="509.427297" y="189.60387" style="fill: #08306b; stroke: #08306b"/>
     <use xlink:href="#m67060fdc0f" x="535.184545" y="189.604628" style="fill: #08306b; stroke: #08306b"/>
    </g>
   </g>
   <g id="legend_1">
    <g id="patch_5">
     <path d="M 473.526875 75.6775 
L 554.11 75.6775 
Q 555.51 75.6775 555.51 74.2775 
L 555.51 12.1 
Q 555.51 10.7 554.11 10.7 
L 473.526875 10.7 
Q 472.126875 10.7 472.126875 12.1 
L 472.126875 74.2775 
Q 472.126875 75.6775 473.526875 75.6775 
z
" style="fill: #ffffff; opacity: 0.85; stroke: #cccccc; stroke-linejoin: miter"/>
    </g>
    <g id="line2d_107">
     <path d="M 474.926875 16.368906 
L 483.326875 16.368906 
L 491.726875 16.368906 
" style="fill: none"/>
     <g>
      <use xlink:href="#m427687b807" x="483.326875" y="16.368906" style="fill: #cb6020; stroke: #cb6020; stroke-linejoin: miter"/>
     </g>
    </g>
    <g id="text_14">
     <!-- `rich` -->
     <g transform="translate(497.326875 18.818906) scale(0.07 -0.07)">
      <defs>
       <path id="DejaVuSans-60" d="M 1147 5119 
L 2028 3950 
L 1550 3950 
L 531 5119 
L 1147 5119 
z
" transform="scale(0.015625)"/>
       <path id="DejaVuSans-63" d="M 3122 3366 
L 3122 2828 
Q 2878 2963 2633 3030 
Q 2388 3097 2138 3097 
Q 1578 3097 1268 2742 
Q 959 2388 959 1747 
Q 959 1106 1268 751 
Q 1578 397 2138 397 
Q 2388 397 2633 464 
Q 2878 531 3122 666 
L 3122 134 
Q 2881 22 2623 -34 
Q 2366 -91 2075 -91 
Q 1284 -91 818 406 
Q 353 903 353 1747 
Q 353 2603 823 3093 
Q 1294 3584 2113 3584 
Q 2378 3584 2631 3529 
Q 2884 3475 3122 3366 
z
" transform="scale(0.015625)"/>
       <path id="DejaVuSans-68" d="M 3513 2113 
L 3513 0 
L 2938 0 
L 2938 2094 
Q 2938 2591 2744 2837 
Q 2550 3084 2163 3084 
Q 1697 3084 1428 2787 
Q 1159 2491 1159 1978 
L 1159 0 
L 581 0 
L 581 4863 
L 1159 4863 
L 1159 2956 
Q 1366 3272 1645 3428 
Q 1925 3584 2291 3584 
Q 2894 3584 3203 3211 
Q 3513 2838 3513 2113 
z
" transform="scale(0.015625)"/>
      </defs>
      <use xlink:href="#DejaVuSans-60"/>
      <use xlink:href="#DejaVuSans-72" transform="translate(50 0)"/>
      <use xlink:href="#DejaVuSans-69" transform="translate(91.113281 0)"/>
      <use xlink:href="#DejaVuSans-63" transform="translate(118.896484 0)"/>
      <use xlink:href="#DejaVuSans-68" transform="translate(173.876953 0)"/>
      <use xlink:href="#DejaVuSans-60" transform="translate(237.255859 0)"/>
     </g>
    </g>
    <g id="line2d_108">
     <path d="M 474.926875 26.923594 
L 483.326875 26.923594 
L 491.726875 26.923594 
" style="fill: none"/>
     <g>
      <use xlink:href="#mf30f77be84" x="483.326875" y="26.923594" style="stroke: #000000; stroke-linejoin: miter"/>
     </g>
    </g>
    <g id="text_15">
     <!-- `real_rich` -->
     <g transform="translate(497.326875 29.373594) scale(0.07 -0.07)">
      <defs>
       <path id="DejaVuSans-5f" d="M 3263 -1063 
L 3263 -1509 
L -63 -1509 
L -63 -1063 
L 3263 -1063 
z
" transform="scale(0.015625)"/>
      </defs>
      <use xlink:href="#DejaVuSans-60"/>
      <use xlink:href="#DejaVuSans-72" transform="translate(50 0)"/>
      <use xlink:href="#DejaVuSans-65" transform="translate(88.863281 0)"/>
      <use xlink:href="#DejaVuSans-61" transform="translate(150.386719 0)"/>
      <use xlink:href="#DejaVuSans-6c" transform="translate(211.666016 0)"/>
      <use xlink:href="#DejaVuSans-5f" transform="translate(239.449219 0)"/>
      <use xlink:href="#DejaVuSans-72" transform="translate(289.449219 0)"/>
      <use xlink:href="#DejaVuSans-69" transform="translate(330.5625 0)"/>
      <use xlink:href="#DejaVuSans-63" transform="translate(358.345703 0)"/>
      <use xlink:href="#DejaVuSans-68" transform="translate(413.326172 0)"/>
      <use xlink:href="#DejaVuSans-60" transform="translate(476.705078 0)"/>
     </g>
    </g>
    <g id="line2d_109">
     <path d="M 474.926875 37.392969 
L 483.326875 37.392969 
L 491.726875 37.392969 
" style="fill: none"/>
     <g>
      <use xlink:href="#mbc028b9935" x="483.326875" y="37.392969" style="fill: #a50f15; stroke: #a50f15; stroke-linejoin: miter"/>
     </g>
    </g>
    <g id="text_16">
     <!-- `blocked` -->
     <g transform="translate(497.326875 39.842969) scale(0.07 -0.07)">
      <defs>
       <path id="DejaVuSans-6b" d="M 581 4863 
L 1159 4863 
L 1159 1991 
L 2875 3500 
L 3609 3500 
L 1753 1863 
L 3688 0 
L 2938 0 
L 1159 1709 
L 1159 0 
L 581 0 
L 581 4863 
z
" transform="scale(0.015625)"/>
       <path id="DejaVuSans-64" d="M 2906 2969 
L 2906 4863 
L 3481 4863 
L 3481 0 
L 2906 0 
L 2906 525 
Q 2725 213 2448 61 
Q 2172 -91 1784 -91 
Q 1150 -91 751 415 
Q 353 922 353 1747 
Q 353 2572 751 3078 
Q 1150 3584 1784 3584 
Q 2172 3584 2448 3432 
Q 2725 3281 2906 2969 
z
M 947 1747 
Q 947 1113 1208 752 
Q 1469 391 1925 391 
Q 2381 391 2643 752 
Q 2906 1113 2906 1747 
Q 2906 2381 2643 2742 
Q 2381 3103 1925 3103 
Q 1469 3103 1208 2742 
Q 947 2381 947 1747 
z
" transform="scale(0.015625)"/>
      </defs>
      <use xlink:href="#DejaVuSans-60"/>
      <use xlink:href="#DejaVuSans-62" transform="translate(50 0)"/>
      <use xlink:href="#DejaVuSans-6c" transform="translate(113.476562 0)"/>
      <use xlink:href="#DejaVuSans-6f" transform="translate(141.259766 0)"/>
      <use xlink:href="#DejaVuSans-63" transform="translate(202.441406 0)"/>
      <use xlink:href="#DejaVuSans-6b" transform="translate(257.421875 0)"/>
      <use xlink:href="#DejaVuSans-65" transform="translate(311.707031 0)"/>
      <use xlink:href="#DejaVuSans-64" transform="translate(373.230469 0)"/>
      <use xlink:href="#DejaVuSans-60" transform="translate(436.707031 0)"/>
     </g>
    </g>
    <g id="line2d_110">
     <path d="M 474.926875 47.947656 
L 483.326875 47.947656 
L 491.726875 47.947656 
" style="fill: none"/>
     <g>
      <use xlink:href="#m20f29f6dcc" x="483.326875" y="47.947656" style="fill: #2171b5; stroke: #2171b5; stroke-linejoin: miter"/>
     </g>
    </g>
    <g id="text_17">
     <!-- `entangled_qft` -->
     <g transform="translate(497.326875 50.397656) scale(0.07 -0.07)">
      <defs>
       <path id="DejaVuSans-71" d="M 947 1747 
Q 947 1113 1208 752 
Q 1469 391 1925 391 
Q 2381 391 2643 752 
Q 2906 1113 2906 1747 
Q 2906 2381 2643 2742 
Q 2381 3103 1925 3103 
Q 1469 3103 1208 2742 
Q 947 2381 947 1747 
z
M 2906 525 
Q 2725 213 2448 61 
Q 2172 -91 1784 -91 
Q 1150 -91 751 415 
Q 353 922 353 1747 
Q 353 2572 751 3078 
Q 1150 3584 1784 3584 
Q 2172 3584 2448 3432 
Q 2725 3281 2906 2969 
L 2906 3500 
L 3481 3500 
L 3481 -1331 
L 2906 -1331 
L 2906 525 
z
" transform="scale(0.015625)"/>
       <path id="DejaVuSans-66" d="M 2375 4863 
L 2375 4384 
L 1825 4384 
Q 1516 4384 1395 4259 
Q 1275 4134 1275 3809 
L 1275 3500 
L 2222 3500 
L 2222 3053 
L 1275 3053 
L 1275 0 
L 697 0 
L 697 3053 
L 147 3053 
L 147 3500 
L 697 3500 
L 697 3744 
Q 697 4328 969 4595 
Q 1241 4863 1831 4863 
L 2375 4863 
z
" transform="scale(0.015625)"/>
      </defs>
      <use xlink:href="#DejaVuSans-60"/>
      <use xlink:href="#DejaVuSans-65" transform="translate(50 0)"/>
      <use xlink:href="#DejaVuSans-6e" transform="translate(111.523438 0)"/>
      <use xlink:href="#DejaVuSans-74" transform="translate(174.902344 0)"/>
      <use xlink:href="#DejaVuSans-61" transform="translate(214.111328 0)"/>
      <use xlink:href="#DejaVuSans-6e" transform="translate(275.390625 0)"/>
      <use xlink:href="#DejaVuSans-67" transform="translate(338.769531 0)"/>
      <use xlink:href="#DejaVuSans-6c" transform="translate(402.246094 0)"/>
      <use xlink:href="#DejaVuSans-65" transform="translate(430.029297 0)"/>
      <use xlink:href="#DejaVuSans-64" transform="translate(491.552734 0)"/>
      <use xlink:href="#DejaVuSans-5f" transform="translate(555.029297 0)"/>
      <use xlink:href="#DejaVuSans-71" transform="translate(605.029297 0)"/>
      <use xlink:href="#DejaVuSans-66" transform="translate(668.505859 0)"/>
      <use xlink:href="#DejaVuSans-74" transform="translate(701.960938 0)"/>
      <use xlink:href="#DejaVuSans-60" transform="translate(741.169922 0)"/>
     </g>
    </g>
    <g id="line2d_111">
     <path d="M 474.926875 58.417031 
L 483.326875 58.417031 
L 491.726875 58.417031 
" style="fill: none"/>
     <g>
      <use xlink:href="#m15757fbe89" x="483.326875" y="58.417031" style="fill: #0e6655; stroke: #0e6655; stroke-linejoin: miter"/>
     </g>
    </g>
    <g id="text_18">
     <!-- `tebd` -->
     <g transform="translate(497.326875 60.867031) scale(0.07 -0.07)">
      <use xlink:href="#DejaVuSans-60"/>
      <use xlink:href="#DejaVuSans-74" transform="translate(50 0)"/>
      <use xlink:href="#DejaVuSans-65" transform="translate(89.208984 0)"/>
      <use xlink:href="#DejaVuSans-62" transform="translate(150.732422 0)"/>
      <use xlink:href="#DejaVuSans-64" transform="translate(214.208984 0)"/>
      <use xlink:href="#DejaVuSans-60" transform="translate(277.685547 0)"/>
     </g>
    </g>
    <g id="line2d_112">
     <path d="M 474.926875 68.971719 
L 483.326875 68.971719 
L 491.726875 68.971719 
" style="fill: none"/>
     <g>
      <use xlink:href="#m67060fdc0f" x="483.326875" y="68.971719" style="fill: #08306b; stroke: #08306b"/>
     </g>
    </g>
    <g id="text_19">
     <!-- `qft` -->
     <g transform="translate(497.326875 71.421719) scale(0.07 -0.07)">
      <use xlink:href="#DejaVuSans-60"/>
      <use xlink:href="#DejaVuSans-71" transform="translate(50 0)"/>
      <use xlink:href="#DejaVuSans-66" transform="translate(113.476562 0)"/>
      <use xlink:href="#DejaVuSans-74" transform="translate(146.931641 0)"/>
      <use xlink:href="#DejaVuSans-60" transform="translate(186.140625 0)"/>
     </g>
    </g>
   </g>
  </g>
 </g>
 <defs>
  <clipPath id="p7a969b7d42">
   <rect x="34.85" y="7.2" width="524.16" height="288.144"/>
  </clipPath>
 </defs>
</svg>
