<?xml version="1.0" encoding="utf-8" standalone="no"?>
<!DOCTYPE svg PUBLIC "-//W3C//DTD SVG 1.1//EN"
  "http://www.w3.org/Graphics/SVG/1.1/DTD/svg11.dtd">
<svg xmlns:xlink="http://www.w3.org/1999/xlink" width="570.66375pt" height="328.061187pt" viewBox="0 0 570.66375 328.061187" xmlns="http://www.w3.org/2000/svg" version="1.1">
 <metadata>
  <rdf:RDF xmlns:dc="http://purl.org/dc/elements/1.1/" xmlns:cc="http://creativecommons.org/ns#" xmlns:rdf="http://www.w3.org/1999/02/22-rdf-syntax-ns#">
   <cc:Work>
    <dc:type rdf:resource="http://purl.org/dc/dcmitype/StillImage"/>
    <dc:date>2026-05-12T01:34:26.296308</dc:date>
    <dc:format>image/svg+xml</dc:format>
    <dc:creator>
     <cc:Agent>
      <dc:title>Matplotlib v3.10.9, https://matplotlib.org/</dc:title>
     </cc:Agent>
    </dc:creator>
   </cc:Work>
  </rdf:RDF>
 </metadata>
 <defs>
  <style type="text/css">*{stroke-linejoin: round; stroke-linecap: butt}</style>
 </defs>
 <g id="figure_1">
  <g id="patch_1">
   <path d="M 0 328.061187 
L 570.66375 328.061187 
L 570.66375 0 
L 0 0 
z
" style="fill: #ffffff"/>
  </g>
  <g id="axes_1">
   <g id="patch_2">
    <path d="M 39.30375 295.344 
L 563.46375 295.344 
L 563.46375 7.2 
L 39.30375 7.2 
z
" style="fill: #ffffff"/>
   </g>
   <g id="matplotlib.axis_1">
    <g id="xtick_1">
     <g id="line2d_1">
      <path d="M 58.83633 295.344 
L 58.83633 7.2 
" clip-path="url(#p60c7dddbbb)" style="fill: none; stroke: #999999; stroke-opacity: 0.3; stroke-width: 0.5; stroke-linecap: square"/>
     </g>
     <g id="line2d_2">
      <defs>
       <path id="m1a24ff51a8" d="M 0 0 
L 0 3.5 
" style="stroke: #000000; stroke-width: 0.8"/>
      </defs>
      <g>
       <use xlink:href="#m1a24ff51a8" x="58.83633" y="295.344" style="stroke: #000000; stroke-width: 0.8"/>
      </g>
     </g>
     <g id="text_1">
      <!-- 0 -->
      <g transform="translate(56.609455 307.662906) scale(0.07 -0.07)">
       <defs>
        <path id="DejaVuSans-30" d="M 2034 4250 
Q 1547 4250 1301 3770 
Q 1056 3291 1056 2328 
Q 1056 1369 1301 889 
Q 1547 409 2034 409 
Q 2525 409 2770 889 
Q 3016 1369 3016 2328 
Q 3016 3291 2770 3770 
Q 2525 4250 2034 4250 
z
M 2034 4750 
Q 2819 4750 3233 4129 
Q 3647 3509 3647 2328 
Q 3647 1150 3233 529 
Q 2819 -91 2034 -91 
Q 1250 -91 836 529 
Q 422 1150 422 2328 
Q 422 3509 836 4129 
Q 1250 4750 2034 4750 
z
" transform="scale(0.015625)"/>
       </defs>
       <use xlink:href="#DejaVuSans-30"/>
      </g>
     </g>
    </g>
    <g id="xtick_2">
     <g id="line2d_3">
      <path d="M 154.233545 295.344 
L 154.233545 7.2 
" clip-path="url(#p60c7dddbbb)" style="fill: none; stroke: #999999; stroke-opacity: 0.3; stroke-width: 0.5; stroke-linecap: square"/>
     </g>
     <g id="line2d_4">
      <g>
       <use xlink:href="#m1a24ff51a8" x="154.233545" y="295.344" style="stroke: #000000; stroke-width: 0.8"/>
      </g>
     </g>
     <g id="text_2">
      <!-- 200 -->
      <g transform="translate(147.55292 307.662906) scale(0.07 -0.07)">
       <defs>
        <path id="DejaVuSans-32" d="M 1228 531 
L 3431 531 
L 3431 0 
L 469 0 
L 469 531 
Q 828 903 1448 1529 
Q 2069 2156 2228 2338 
Q 2531 2678 2651 2914 
Q 2772 3150 2772 3378 
Q 2772 3750 2511 3984 
Q 2250 4219 1831 4219 
Q 1534 4219 1204 4116 
Q 875 4013 500 3803 
L 500 4441 
Q 881 4594 1212 4672 
Q 1544 4750 1819 4750 
Q 2544 4750 2975 4387 
Q 3406 4025 3406 3419 
Q 3406 3131 3298 2873 
Q 3191 2616 2906 2266 
Q 2828 2175 2409 1742 
Q 1991 1309 1228 531 
z
" transform="scale(0.015625)"/>
       </defs>
       <use xlink:href="#DejaVuSans-32"/>
       <use xlink:href="#DejaVuSans-30" transform="translate(63.623047 0)"/>
       <use xlink:href="#DejaVuSans-30" transform="translate(127.246094 0)"/>
      </g>
     </g>
    </g>
    <g id="xtick_3">
     <g id="line2d_5">
      <path d="M 249.630761 295.344 
L 249.630761 7.2 
" clip-path="url(#p60c7dddbbb)" style="fill: none; stroke: #999999; stroke-opacity: 0.3; stroke-width: 0.5; stroke-linecap: square"/>
     </g>
     <g id="line2d_6">
      <g>
       <use xlink:href="#m1a24ff51a8" x="249.630761" y="295.344" style="stroke: #000000; stroke-width: 0.8"/>
      </g>
     </g>
     <g id="text_3">
      <!-- 400 -->
      <g transform="translate(242.950136 307.662906) scale(0.07 -0.07)">
       <defs>
        <path id="DejaVuSans-34" d="M 2419 4116 
L 825 1625 
L 2419 1625 
L 2419 4116 
z
M 2253 4666 
L 3047 4666 
L 3047 1625 
L 3713 1625 
L 3713 1100 
L 3047 1100 
L 3047 0 
L 2419 0 
L 2419 1100 
L 313 1100 
L 313 1709 
L 2253 4666 
z
" transform="scale(0.015625)"/>
       </defs>
       <use xlink:href="#DejaVuSans-34"/>
       <use xlink:href="#DejaVuSans-30" transform="translate(63.623047 0)"/>
       <use xlink:href="#DejaVuSans-30" transform="translate(127.246094 0)"/>
      </g>
     </g>
    </g>
    <g id="xtick_4">
     <g id="line2d_7">
      <path d="M 345.027976 295.344 
L 345.027976 7.2 
" clip-path="url(#p60c7dddbbb)" style="fill: none; stroke: #999999; stroke-opacity: 0.3; stroke-width: 0.5; stroke-linecap: square"/>
     </g>
     <g id="line2d_8">
      <g>
       <use xlink:href="#m1a24ff51a8" x="345.027976" y="295.344" style="stroke: #000000; stroke-width: 0.8"/>
      </g>
     </g>
     <g id="text_4">
      <!-- 600 -->
      <g transform="translate(338.347351 307.662906) scale(0.07 -0.07)">
       <defs>
        <path id="DejaVuSans-36" d="M 2113 2584 
Q 1688 2584 1439 2293 
Q 1191 2003 1191 1497 
Q 1191 994 1439 701 
Q 1688 409 2113 409 
Q 2538 409 2786 701 
Q 3034 994 3034 1497 
Q 3034 2003 2786 2293 
Q 2538 2584 2113 2584 
z
M 3366 4563 
L 3366 3988 
Q 3128 4100 2886 4159 
Q 2644 4219 2406 4219 
Q 1781 4219 1451 3797 
Q 1122 3375 1075 2522 
Q 1259 2794 1537 2939 
Q 1816 3084 2150 3084 
Q 2853 3084 3261 2657 
Q 3669 2231 3669 1497 
Q 3669 778 3244 343 
Q 2819 -91 2113 -91 
Q 1303 -91 875 529 
Q 447 1150 447 2328 
Q 447 3434 972 4092 
Q 1497 4750 2381 4750 
Q 2619 4750 2861 4703 
Q 3103 4656 3366 4563 
z
" transform="scale(0.015625)"/>
       </defs>
       <use xlink:href="#DejaVuSans-36"/>
       <use xlink:href="#DejaVuSans-30" transform="translate(63.623047 0)"/>
       <use xlink:href="#DejaVuSans-30" transform="translate(127.246094 0)"/>
      </g>
     </g>
    </g>
    <g id="xtick_5">
     <g id="line2d_9">
      <path d="M 440.425191 295.344 
L 440.425191 7.2 
" clip-path="url(#p60c7dddbbb)" style="fill: none; stroke: #999999; stroke-opacity: 0.3; stroke-width: 0.5; stroke-linecap: square"/>
     </g>
     <g id="line2d_10">
      <g>
       <use xlink:href="#m1a24ff51a8" x="440.425191" y="295.344" style="stroke: #000000; stroke-width: 0.8"/>
      </g>
     </g>
     <g id="text_5">
      <!-- 800 -->
      <g transform="translate(433.744566 307.662906) scale(0.07 -0.07)">
       <defs>
        <path id="DejaVuSans-38" d="M 2034 2216 
Q 1584 2216 1326 1975 
Q 1069 1734 1069 1313 
Q 1069 891 1326 650 
Q 1584 409 2034 409 
Q 2484 409 2743 651 
Q 3003 894 3003 1313 
Q 3003 1734 2745 1975 
Q 2488 2216 2034 2216 
z
M 1403 2484 
Q 997 2584 770 2862 
Q 544 3141 544 3541 
Q 544 4100 942 4425 
Q 1341 4750 2034 4750 
Q 2731 4750 3128 4425 
Q 3525 4100 3525 3541 
Q 3525 3141 3298 2862 
Q 3072 2584 2669 2484 
Q 3125 2378 3379 2068 
Q 3634 1759 3634 1313 
Q 3634 634 3220 271 
Q 2806 -91 2034 -91 
Q 1263 -91 848 271 
Q 434 634 434 1313 
Q 434 1759 690 2068 
Q 947 2378 1403 2484 
z
M 1172 3481 
Q 1172 3119 1398 2916 
Q 1625 2713 2034 2713 
Q 2441 2713 2670 2916 
Q 2900 3119 2900 3481 
Q 2900 3844 2670 4047 
Q 2441 4250 2034 4250 
Q 1625 4250 1398 4047 
Q 1172 3844 1172 3481 
z
" transform="scale(0.015625)"/>
       </defs>
       <use xlink:href="#DejaVuSans-38"/>
       <use xlink:href="#DejaVuSans-30" transform="translate(63.623047 0)"/>
       <use xlink:href="#DejaVuSans-30" transform="translate(127.246094 0)"/>
      </g>
     </g>
    </g>
    <g id="xtick_6">
     <g id="line2d_11">
      <path d="M 535.822407 295.344 
L 535.822407 7.2 
" clip-path="url(#p60c7dddbbb)" style="fill: none; stroke: #999999; stroke-opacity: 0.3; stroke-width: 0.5; stroke-linecap: square"/>
     </g>
     <g id="line2d_12">
      <g>
       <use xlink:href="#m1a24ff51a8" x="535.822407" y="295.344" style="stroke: #000000; stroke-width: 0.8"/>
      </g>
     </g>
     <g id="text_6">
      <!-- 1000 -->
      <g transform="translate(526.914907 307.662906) scale(0.07 -0.07)">
       <defs>
        <path id="DejaVuSans-31" d="M 794 531 
L 1825 531 
L 1825 4091 
L 703 3866 
L 703 4441 
L 1819 4666 
L 2450 4666 
L 2450 531 
L 3481 531 
L 3481 0 
L 794 0 
L 794 531 
z
" transform="scale(0.015625)"/>
       </defs>
       <use xlink:href="#DejaVuSans-31"/>
       <use xlink:href="#DejaVuSans-30" transform="translate(63.623047 0)"/>
       <use xlink:href="#DejaVuSans-30" transform="translate(127.246094 0)"/>
       <use xlink:href="#DejaVuSans-30" transform="translate(190.869141 0)"/>
      </g>
     </g>
    </g>
    <g id="xtick_7">
     <g id="line2d_13">
      <path d="M 82.685634 295.344 
L 82.685634 7.2 
" clip-path="url(#p60c7dddbbb)" style="fill: none; stroke: #bbbbbb; stroke-opacity: 0.15; stroke-width: 0.3; stroke-linecap: square"/>
     </g>
     <g id="line2d_14">
      <defs>
       <path id="mcc61ebd179" d="M 0 0 
L 0 2 
" style="stroke: #000000; stroke-width: 0.6"/>
      </defs>
      <g>
       <use xlink:href="#mcc61ebd179" x="82.685634" y="295.344" style="stroke: #000000; stroke-width: 0.6"/>
      </g>
     </g>
    </g>
    <g id="xtick_8">
     <g id="line2d_15">
      <path d="M 106.534938 295.344 
L 106.534938 7.2 
" clip-path="url(#p60c7dddbbb)" style="fill: none; stroke: #bbbbbb; stroke-opacity: 0.15; stroke-width: 0.3; stroke-linecap: square"/>
     </g>
     <g id="line2d_16">
      <g>
       <use xlink:href="#mcc61ebd179" x="106.534938" y="295.344" style="stroke: #000000; stroke-width: 0.6"/>
      </g>
     </g>
    </g>
    <g id="xtick_9">
     <g id="line2d_17">
      <path d="M 130.384241 295.344 
L 130.384241 7.2 
" clip-path="url(#p60c7dddbbb)" style="fill: none; stroke: #bbbbbb; stroke-opacity: 0.15; stroke-width: 0.3; stroke-linecap: square"/>
     </g>
     <g id="line2d_18">
      <g>
       <use xlink:href="#mcc61ebd179" x="130.384241" y="295.344" style="stroke: #000000; stroke-width: 0.6"/>
      </g>
     </g>
    </g>
    <g id="xtick_10">
     <g id="line2d_19">
      <path d="M 178.082849 295.344 
L 178.082849 7.2 
" clip-path="url(#p60c7dddbbb)" style="fill: none; stroke: #bbbbbb; stroke-opacity: 0.15; stroke-width: 0.3; stroke-linecap: square"/>
     </g>
     <g id="line2d_20">
      <g>
       <use xlink:href="#mcc61ebd179" x="178.082849" y="295.344" style="stroke: #000000; stroke-width: 0.6"/>
      </g>
     </g>
    </g>
    <g id="xtick_11">
     <g id="line2d_21">
      <path d="M 201.932153 295.344 
L 201.932153 7.2 
" clip-path="url(#p60c7dddbbb)" style="fill: none; stroke: #bbbbbb; stroke-opacity: 0.15; stroke-width: 0.3; stroke-linecap: square"/>
     </g>
     <g id="line2d_22">
      <g>
       <use xlink:href="#mcc61ebd179" x="201.932153" y="295.344" style="stroke: #000000; stroke-width: 0.6"/>
      </g>
     </g>
    </g>
    <g id="xtick_12">
     <g id="line2d_23">
      <path d="M 225.781457 295.344 
L 225.781457 7.2 
" clip-path="url(#p60c7dddbbb)" style="fill: none; stroke: #bbbbbb; stroke-opacity: 0.15; stroke-width: 0.3; stroke-linecap: square"/>
     </g>
     <g id="line2d_24">
      <g>
       <use xlink:href="#mcc61ebd179" x="225.781457" y="295.344" style="stroke: #000000; stroke-width: 0.6"/>
      </g>
     </g>
    </g>
    <g id="xtick_13">
     <g id="line2d_25">
      <path d="M 273.480064 295.344 
L 273.480064 7.2 
" clip-path="url(#p60c7dddbbb)" style="fill: none; stroke: #bbbbbb; stroke-opacity: 0.15; stroke-width: 0.3; stroke-linecap: square"/>
     </g>
     <g id="line2d_26">
      <g>
       <use xlink:href="#mcc61ebd179" x="273.480064" y="295.344" style="stroke: #000000; stroke-width: 0.6"/>
      </g>
     </g>
    </g>
    <g id="xtick_14">
     <g id="line2d_27">
      <path d="M 297.329368 295.344 
L 297.329368 7.2 
" clip-path="url(#p60c7dddbbb)" style="fill: none; stroke: #bbbbbb; stroke-opacity: 0.15; stroke-width: 0.3; stroke-linecap: square"/>
     </g>
     <g id="line2d_28">
      <g>
       <use xlink:href="#mcc61ebd179" x="297.329368" y="295.344" style="stroke: #000000; stroke-width: 0.6"/>
      </g>
     </g>
    </g>
    <g id="xtick_15">
     <g id="line2d_29">
      <path d="M 321.178672 295.344 
L 321.178672 7.2 
" clip-path="url(#p60c7dddbbb)" style="fill: none; stroke: #bbbbbb; stroke-opacity: 0.15; stroke-width: 0.3; stroke-linecap: square"/>
     </g>
     <g id="line2d_30">
      <g>
       <use xlink:href="#mcc61ebd179" x="321.178672" y="295.344" style="stroke: #000000; stroke-width: 0.6"/>
      </g>
     </g>
    </g>
    <g id="xtick_16">
     <g id="line2d_31">
      <path d="M 368.87728 295.344 
L 368.87728 7.2 
" clip-path="url(#p60c7dddbbb)" style="fill: none; stroke: #bbbbbb; stroke-opacity: 0.15; stroke-width: 0.3; stroke-linecap: square"/>
     </g>
     <g id="line2d_32">
      <g>
       <use xlink:href="#mcc61ebd179" x="368.87728" y="295.344" style="stroke: #000000; stroke-width: 0.6"/>
      </g>
     </g>
    </g>
    <g id="xtick_17">
     <g id="line2d_33">
      <path d="M 392.726584 295.344 
L 392.726584 7.2 
" clip-path="url(#p60c7dddbbb)" style="fill: none; stroke: #bbbbbb; stroke-opacity: 0.15; stroke-width: 0.3; stroke-linecap: square"/>
     </g>
     <g id="line2d_34">
      <g>
       <use xlink:href="#mcc61ebd179" x="392.726584" y="295.344" style="stroke: #000000; stroke-width: 0.6"/>
      </g>
     </g>
    </g>
    <g id="xtick_18">
     <g id="line2d_35">
      <path d="M 416.575888 295.344 
L 416.575888 7.2 
" clip-path="url(#p60c7dddbbb)" style="fill: none; stroke: #bbbbbb; stroke-opacity: 0.15; stroke-width: 0.3; stroke-linecap: square"/>
     </g>
     <g id="line2d_36">
      <g>
       <use xlink:href="#mcc61ebd179" x="416.575888" y="295.344" style="stroke: #000000; stroke-width: 0.6"/>
      </g>
     </g>
    </g>
    <g id="xtick_19">
     <g id="line2d_37">
      <path d="M 464.274495 295.344 
L 464.274495 7.2 
" clip-path="url(#p60c7dddbbb)" style="fill: none; stroke: #bbbbbb; stroke-opacity: 0.15; stroke-width: 0.3; stroke-linecap: square"/>
     </g>
     <g id="line2d_38">
      <g>
       <use xlink:href="#mcc61ebd179" x="464.274495" y="295.344" style="stroke: #000000; stroke-width: 0.6"/>
      </g>
     </g>
    </g>
    <g id="xtick_20">
     <g id="line2d_39">
      <path d="M 488.123799 295.344 
L 488.123799 7.2 
" clip-path="url(#p60c7dddbbb)" style="fill: none; stroke: #bbbbbb; stroke-opacity: 0.15; stroke-width: 0.3; stroke-linecap: square"/>
     </g>
     <g id="line2d_40">
      <g>
       <use xlink:href="#mcc61ebd179" x="488.123799" y="295.344" style="stroke: #000000; stroke-width: 0.6"/>
      </g>
     </g>
    </g>
    <g id="xtick_21">
     <g id="line2d_41">
      <path d="M 511.973103 295.344 
L 511.973103 7.2 
" clip-path="url(#p60c7dddbbb)" style="fill: none; stroke: #bbbbbb; stroke-opacity: 0.15; stroke-width: 0.3; stroke-linecap: square"/>
     </g>
     <g id="line2d_42">
      <g>
       <use xlink:href="#mcc61ebd179" x="511.973103" y="295.344" style="stroke: #000000; stroke-width: 0.6"/>
      </g>
     </g>
    </g>
    <g id="xtick_22">
     <g id="line2d_43">
      <path d="M 559.671711 295.344 
L 559.671711 7.2 
" clip-path="url(#p60c7dddbbb)" style="fill: none; stroke: #bbbbbb; stroke-opacity: 0.15; stroke-width: 0.3; stroke-linecap: square"/>
     </g>
     <g id="line2d_44">
      <g>
       <use xlink:href="#mcc61ebd179" x="559.671711" y="295.344" style="stroke: #000000; stroke-width: 0.6"/>
      </g>
     </g>
    </g>
    <g id="text_7">
     <!-- training step -->
     <g transform="translate(275.964375 319.197437) scale(0.08 -0.08)">
      <defs>
       <path id="DejaVuSans-74" d="M 1172 4494 
L 1172 3500 
L 2356 3500 
L 2356 3053 
L 1172 3053 
L 1172 1153 
Q 1172 725 1289 603 
Q 1406 481 1766 481 
L 2356 481 
L 2356 0 
L 1766 0 
Q 1100 0 847 248 
Q 594 497 594 1153 
L 594 3053 
L 172 3053 
L 172 3500 
L 594 3500 
L 594 4494 
L 1172 4494 
z
" transform="scale(0.015625)"/>
       <path id="DejaVuSans-72" d="M 2631 2963 
Q 2534 3019 2420 3045 
Q 2306 3072 2169 3072 
Q 1681 3072 1420 2755 
Q 1159 2438 1159 1844 
L 1159 0 
L 581 0 
L 581 3500 
L 1159 3500 
L 1159 2956 
Q 1341 3275 1631 3429 
Q 1922 3584 2338 3584 
Q 2397 3584 2469 3576 
Q 2541 3569 2628 3553 
L 2631 2963 
z
" transform="scale(0.015625)"/>
       <path id="DejaVuSans-61" d="M 2194 1759 
Q 1497 1759 1228 1600 
Q 959 1441 959 1056 
Q 959 750 1161 570 
Q 1363 391 1709 391 
Q 2188 391 2477 730 
Q 2766 1069 2766 1631 
L 2766 1759 
L 2194 1759 
z
M 3341 1997 
L 3341 0 
L 2766 0 
L 2766 531 
Q 2569 213 2275 61 
Q 1981 -91 1556 -91 
Q 1019 -91 701 211 
Q 384 513 384 1019 
Q 384 1609 779 1909 
Q 1175 2209 1959 2209 
L 2766 2209 
L 2766 2266 
Q 2766 2663 2505 2880 
Q 2244 3097 1772 3097 
Q 1472 3097 1187 3025 
Q 903 2953 641 2809 
L 641 3341 
Q 956 3463 1253 3523 
Q 1550 3584 1831 3584 
Q 2591 3584 2966 3190 
Q 3341 2797 3341 1997 
z
" transform="scale(0.015625)"/>
       <path id="DejaVuSans-69" d="M 603 3500 
L 1178 3500 
L 1178 0 
L 603 0 
L 603 3500 
z
M 603 4863 
L 1178 4863 
L 1178 4134 
L 603 4134 
L 603 4863 
z
" transform="scale(0.015625)"/>
       <path id="DejaVuSans-6e" d="M 3513 2113 
L 3513 0 
L 2938 0 
L 2938 2094 
Q 2938 2591 2744 2837 
Q 2550 3084 2163 3084 
Q 1697 3084 1428 2787 
Q 1159 2491 1159 1978 
L 1159 0 
L 581 0 
L 581 3500 
L 1159 3500 
L 1159 2956 
Q 1366 3272 1645 3428 
Q 1925 3584 2291 3584 
Q 2894 3584 3203 3211 
Q 3513 2838 3513 2113 
z
" transform="scale(0.015625)"/>
       <path id="DejaVuSans-67" d="M 2906 1791 
Q 2906 2416 2648 2759 
Q 2391 3103 1925 3103 
Q 1463 3103 1205 2759 
Q 947 2416 947 1791 
Q 947 1169 1205 825 
Q 1463 481 1925 481 
Q 2391 481 2648 825 
Q 2906 1169 2906 1791 
z
M 3481 434 
Q 3481 -459 3084 -895 
Q 2688 -1331 1869 -1331 
Q 1566 -1331 1297 -1286 
Q 1028 -1241 775 -1147 
L 775 -588 
Q 1028 -725 1275 -790 
Q 1522 -856 1778 -856 
Q 2344 -856 2625 -561 
Q 2906 -266 2906 331 
L 2906 616 
Q 2728 306 2450 153 
Q 2172 0 1784 0 
Q 1141 0 747 490 
Q 353 981 353 1791 
Q 353 2603 747 3093 
Q 1141 3584 1784 3584 
Q 2172 3584 2450 3431 
Q 2728 3278 2906 2969 
L 2906 3500 
L 3481 3500 
L 3481 434 
z
" transform="scale(0.015625)"/>
       <path id="DejaVuSans-20" transform="scale(0.015625)"/>
       <path id="DejaVuSans-73" d="M 2834 3397 
L 2834 2853 
Q 2591 2978 2328 3040 
Q 2066 3103 1784 3103 
Q 1356 3103 1142 2972 
Q 928 2841 928 2578 
Q 928 2378 1081 2264 
Q 1234 2150 1697 2047 
L 1894 2003 
Q 2506 1872 2764 1633 
Q 3022 1394 3022 966 
Q 3022 478 2636 193 
Q 2250 -91 1575 -91 
Q 1294 -91 989 -36 
Q 684 19 347 128 
L 347 722 
Q 666 556 975 473 
Q 1284 391 1588 391 
Q 1994 391 2212 530 
Q 2431 669 2431 922 
Q 2431 1156 2273 1281 
Q 2116 1406 1581 1522 
L 1381 1569 
Q 847 1681 609 1914 
Q 372 2147 372 2553 
Q 372 3047 722 3315 
Q 1072 3584 1716 3584 
Q 2034 3584 2315 3537 
Q 2597 3491 2834 3397 
z
" transform="scale(0.015625)"/>
       <path id="DejaVuSans-65" d="M 3597 1894 
L 3597 1613 
L 953 1613 
Q 991 1019 1311 708 
Q 1631 397 2203 397 
Q 2534 397 2845 478 
Q 3156 559 3463 722 
L 3463 178 
Q 3153 47 2828 -22 
Q 2503 -91 2169 -91 
Q 1331 -91 842 396 
Q 353 884 353 1716 
Q 353 2575 817 3079 
Q 1281 3584 2069 3584 
Q 2775 3584 3186 3129 
Q 3597 2675 3597 1894 
z
M 3022 2063 
Q 3016 2534 2758 2815 
Q 2500 3097 2075 3097 
Q 1594 3097 1305 2825 
Q 1016 2553 972 2059 
L 3022 2063 
z
" transform="scale(0.015625)"/>
       <path id="DejaVuSans-70" d="M 1159 525 
L 1159 -1331 
L 581 -1331 
L 581 3500 
L 1159 3500 
L 1159 2969 
Q 1341 3281 1617 3432 
Q 1894 3584 2278 3584 
Q 2916 3584 3314 3078 
Q 3713 2572 3713 1747 
Q 3713 922 3314 415 
Q 2916 -91 2278 -91 
Q 1894 -91 1617 61 
Q 1341 213 1159 525 
z
M 3116 1747 
Q 3116 2381 2855 2742 
Q 2594 3103 2138 3103 
Q 1681 3103 1420 2742 
Q 1159 2381 1159 1747 
Q 1159 1113 1420 752 
Q 1681 391 2138 391 
Q 2594 391 2855 752 
Q 3116 1113 3116 1747 
z
" transform="scale(0.015625)"/>
      </defs>
      <use xlink:href="#DejaVuSans-74"/>
      <use xlink:href="#DejaVuSans-72" transform="translate(39.208984 0)"/>
      <use xlink:href="#DejaVuSans-61" transform="translate(80.322266 0)"/>
      <use xlink:href="#DejaVuSans-69" transform="translate(141.601562 0)"/>
      <use xlink:href="#DejaVuSans-6e" transform="translate(169.384766 0)"/>
      <use xlink:href="#DejaVuSans-69" transform="translate(232.763672 0)"/>
      <use xlink:href="#DejaVuSans-6e" transform="translate(260.546875 0)"/>
      <use xlink:href="#DejaVuSans-67" transform="translate(323.925781 0)"/>
      <use xlink:href="#DejaVuSans-20" transform="translate(387.402344 0)"/>
      <use xlink:href="#DejaVuSans-73" transform="translate(419.189453 0)"/>
      <use xlink:href="#DejaVuSans-74" transform="translate(471.289062 0)"/>
      <use xlink:href="#DejaVuSans-65" transform="translate(510.498047 0)"/>
      <use xlink:href="#DejaVuSans-70" transform="translate(572.021484 0)"/>
     </g>
    </g>
   </g>
   <g id="matplotlib.axis_2">
    <g id="ytick_1">
     <g id="line2d_45">
      <path d="M 39.30375 285.008489 
L 563.46375 285.008489 
" clip-path="url(#p60c7dddbbb)" style="fill: none; stroke: #999999; stroke-opacity: 0.3; stroke-width: 0.5; stroke-linecap: square"/>
     </g>
     <g id="line2d_46">
      <defs>
       <path id="mb5b5c4535d" d="M 0 0 
L -3.5 0 
" style="stroke: #000000; stroke-width: 0.8"/>
      </defs>
      <g>
       <use xlink:href="#mb5b5c4535d" x="39.30375" y="285.008489" style="stroke: #000000; stroke-width: 0.8"/>
      </g>
     </g>
     <g id="text_8">
      <!-- 100 -->
      <g transform="translate(18.9425 287.667943) scale(0.07 -0.07)">
       <use xlink:href="#DejaVuSans-31"/>
       <use xlink:href="#DejaVuSans-30" transform="translate(63.623047 0)"/>
       <use xlink:href="#DejaVuSans-30" transform="translate(127.246094 0)"/>
      </g>
     </g>
    </g>
    <g id="ytick_2">
     <g id="line2d_47">
      <path d="M 39.30375 245.888033 
L 563.46375 245.888033 
" clip-path="url(#p60c7dddbbb)" style="fill: none; stroke: #999999; stroke-opacity: 0.3; stroke-width: 0.5; stroke-linecap: square"/>
     </g>
     <g id="line2d_48">
      <g>
       <use xlink:href="#mb5b5c4535d" x="39.30375" y="245.888033" style="stroke: #000000; stroke-width: 0.8"/>
      </g>
     </g>
     <g id="text_9">
      <!-- 125 -->
      <g transform="translate(18.9425 248.547486) scale(0.07 -0.07)">
       <defs>
        <path id="DejaVuSans-35" d="M 691 4666 
L 3169 4666 
L 3169 4134 
L 1269 4134 
L 1269 2991 
Q 1406 3038 1543 3061 
Q 1681 3084 1819 3084 
Q 2600 3084 3056 2656 
Q 3513 2228 3513 1497 
Q 3513 744 3044 326 
Q 2575 -91 1722 -91 
Q 1428 -91 1123 -41 
Q 819 9 494 109 
L 494 744 
Q 775 591 1075 516 
Q 1375 441 1709 441 
Q 2250 441 2565 725 
Q 2881 1009 2881 1497 
Q 2881 1984 2565 2268 
Q 2250 2553 1709 2553 
Q 1456 2553 1204 2497 
Q 953 2441 691 2322 
L 691 4666 
z
" transform="scale(0.015625)"/>
       </defs>
       <use xlink:href="#DejaVuSans-31"/>
       <use xlink:href="#DejaVuSans-32" transform="translate(63.623047 0)"/>
       <use xlink:href="#DejaVuSans-35" transform="translate(127.246094 0)"/>
      </g>
     </g>
    </g>
    <g id="ytick_3">
     <g id="line2d_49">
      <path d="M 39.30375 206.767576 
L 563.46375 206.767576 
" clip-path="url(#p60c7dddbbb)" style="fill: none; stroke: #999999; stroke-opacity: 0.3; stroke-width: 0.5; stroke-linecap: square"/>
     </g>
     <g id="line2d_50">
      <g>
       <use xlink:href="#mb5b5c4535d" x="39.30375" y="206.767576" style="stroke: #000000; stroke-width: 0.8"/>
      </g>
     </g>
     <g id="text_10">
      <!-- 150 -->
      <g transform="translate(18.9425 209.427029) scale(0.07 -0.07)">
       <use xlink:href="#DejaVuSans-31"/>
       <use xlink:href="#DejaVuSans-35" transform="translate(63.623047 0)"/>
       <use xlink:href="#DejaVuSans-30" transform="translate(127.246094 0)"/>
      </g>
     </g>
    </g>
    <g id="ytick_4">
     <g id="line2d_51">
      <path d="M 39.30375 167.647119 
L 563.46375 167.647119 
" clip-path="url(#p60c7dddbbb)" style="fill: none; stroke: #999999; stroke-opacity: 0.3; stroke-width: 0.5; stroke-linecap: square"/>
     </g>
     <g id="line2d_52">
      <g>
       <use xlink:href="#mb5b5c4535d" x="39.30375" y="167.647119" style="stroke: #000000; stroke-width: 0.8"/>
      </g>
     </g>
     <g id="text_11">
      <!-- 175 -->
      <g transform="translate(18.9425 170.306573) scale(0.07 -0.07)">
       <defs>
        <path id="DejaVuSans-37" d="M 525 4666 
L 3525 4666 
L 3525 4397 
L 1831 0 
L 1172 0 
L 2766 4134 
L 525 4134 
L 525 4666 
z
" transform="scale(0.015625)"/>
       </defs>
       <use xlink:href="#DejaVuSans-31"/>
       <use xlink:href="#DejaVuSans-37" transform="translate(63.623047 0)"/>
       <use xlink:href="#DejaVuSans-35" transform="translate(127.246094 0)"/>
      </g>
     </g>
    </g>
    <g id="ytick_5">
     <g id="line2d_53">
      <path d="M 39.30375 128.526663 
L 563.46375 128.526663 
" clip-path="url(#p60c7dddbbb)" style="fill: none; stroke: #999999; stroke-opacity: 0.3; stroke-width: 0.5; stroke-linecap: square"/>
     </g>
     <g id="line2d_54">
      <g>
       <use xlink:href="#mb5b5c4535d" x="39.30375" y="128.526663" style="stroke: #000000; stroke-width: 0.8"/>
      </g>
     </g>
     <g id="text_12">
      <!-- 200 -->
      <g transform="translate(18.9425 131.186116) scale(0.07 -0.07)">
       <use xlink:href="#DejaVuSans-32"/>
       <use xlink:href="#DejaVuSans-30" transform="translate(63.623047 0)"/>
       <use xlink:href="#DejaVuSans-30" transform="translate(127.246094 0)"/>
      </g>
     </g>
    </g>
    <g id="ytick_6">
     <g id="line2d_55">
      <path d="M 39.30375 89.406206 
L 563.46375 89.406206 
" clip-path="url(#p60c7dddbbb)" style="fill: none; stroke: #999999; stroke-opacity: 0.3; stroke-width: 0.5; stroke-linecap: square"/>
     </g>
     <g id="line2d_56">
      <g>
       <use xlink:href="#mb5b5c4535d" x="39.30375" y="89.406206" style="stroke: #000000; stroke-width: 0.8"/>
      </g>
     </g>
     <g id="text_13">
      <!-- 225 -->
      <g transform="translate(18.9425 92.065659) scale(0.07 -0.07)">
       <use xlink:href="#DejaVuSans-32"/>
       <use xlink:href="#DejaVuSans-32" transform="translate(63.623047 0)"/>
       <use xlink:href="#DejaVuSans-35" transform="translate(127.246094 0)"/>
      </g>
     </g>
    </g>
    <g id="ytick_7">
     <g id="line2d_57">
      <path d="M 39.30375 50.285749 
L 563.46375 50.285749 
" clip-path="url(#p60c7dddbbb)" style="fill: none; stroke: #999999; stroke-opacity: 0.3; stroke-width: 0.5; stroke-linecap: square"/>
     </g>
     <g id="line2d_58">
      <g>
       <use xlink:href="#mb5b5c4535d" x="39.30375" y="50.285749" style="stroke: #000000; stroke-width: 0.8"/>
      </g>
     </g>
     <g id="text_14">
      <!-- 250 -->
      <g transform="translate(18.9425 52.945203) scale(0.07 -0.07)">
       <use xlink:href="#DejaVuSans-32"/>
       <use xlink:href="#DejaVuSans-35" transform="translate(63.623047 0)"/>
       <use xlink:href="#DejaVuSans-30" transform="translate(127.246094 0)"/>
      </g>
     </g>
    </g>
    <g id="ytick_8">
     <g id="line2d_59">
      <path d="M 39.30375 11.165293 
L 563.46375 11.165293 
" clip-path="url(#p60c7dddbbb)" style="fill: none; stroke: #999999; stroke-opacity: 0.3; stroke-width: 0.5; stroke-linecap: square"/>
     </g>
     <g id="line2d_60">
      <g>
       <use xlink:href="#mb5b5c4535d" x="39.30375" y="11.165293" style="stroke: #000000; stroke-width: 0.8"/>
      </g>
     </g>
     <g id="text_15">
      <!-- 275 -->
      <g transform="translate(18.9425 13.824746) scale(0.07 -0.07)">
       <use xlink:href="#DejaVuSans-32"/>
       <use xlink:href="#DejaVuSans-37" transform="translate(63.623047 0)"/>
       <use xlink:href="#DejaVuSans-35" transform="translate(127.246094 0)"/>
      </g>
     </g>
    </g>
    <g id="ytick_9">
     <g id="line2d_61">
      <path d="M 39.30375 292.832581 
L 563.46375 292.832581 
" clip-path="url(#p60c7dddbbb)" style="fill: none; stroke: #bbbbbb; stroke-opacity: 0.15; stroke-width: 0.3; stroke-linecap: square"/>
     </g>
     <g id="line2d_62">
      <defs>
       <path id="me3e7d63150" d="M 0 0 
L -2 0 
" style="stroke: #000000; stroke-width: 0.6"/>
      </defs>
      <g>
       <use xlink:href="#me3e7d63150" x="39.30375" y="292.832581" style="stroke: #000000; stroke-width: 0.6"/>
      </g>
     </g>
    </g>
    <g id="ytick_10">
     <g id="line2d_63">
      <path d="M 39.30375 277.184398 
L 563.46375 277.184398 
" clip-path="url(#p60c7dddbbb)" style="fill: none; stroke: #bbbbbb; stroke-opacity: 0.15; stroke-width: 0.3; stroke-linecap: square"/>
     </g>
     <g id="line2d_64">
      <g>
       <use xlink:href="#me3e7d63150" x="39.30375" y="277.184398" style="stroke: #000000; stroke-width: 0.6"/>
      </g>
     </g>
    </g>
    <g id="ytick_11">
     <g id="line2d_65">
      <path d="M 39.30375 269.360307 
L 563.46375 269.360307 
" clip-path="url(#p60c7dddbbb)" style="fill: none; stroke: #bbbbbb; stroke-opacity: 0.15; stroke-width: 0.3; stroke-linecap: square"/>
     </g>
     <g id="line2d_66">
      <g>
       <use xlink:href="#me3e7d63150" x="39.30375" y="269.360307" style="stroke: #000000; stroke-width: 0.6"/>
      </g>
     </g>
    </g>
    <g id="ytick_12">
     <g id="line2d_67">
      <path d="M 39.30375 261.536215 
L 563.46375 261.536215 
" clip-path="url(#p60c7dddbbb)" style="fill: none; stroke: #bbbbbb; stroke-opacity: 0.15; stroke-width: 0.3; stroke-linecap: square"/>
     </g>
     <g id="line2d_68">
      <g>
       <use xlink:href="#me3e7d63150" x="39.30375" y="261.536215" style="stroke: #000000; stroke-width: 0.6"/>
      </g>
     </g>
    </g>
    <g id="ytick_13">
     <g id="line2d_69">
      <path d="M 39.30375 253.712124 
L 563.46375 253.712124 
" clip-path="url(#p60c7dddbbb)" style="fill: none; stroke: #bbbbbb; stroke-opacity: 0.15; stroke-width: 0.3; stroke-linecap: square"/>
     </g>
     <g id="line2d_70">
      <g>
       <use xlink:href="#me3e7d63150" x="39.30375" y="253.712124" style="stroke: #000000; stroke-width: 0.6"/>
      </g>
     </g>
    </g>
    <g id="ytick_14">
     <g id="line2d_71">
      <path d="M 39.30375 238.063941 
L 563.46375 238.063941 
" clip-path="url(#p60c7dddbbb)" style="fill: none; stroke: #bbbbbb; stroke-opacity: 0.15; stroke-width: 0.3; stroke-linecap: square"/>
     </g>
     <g id="line2d_72">
      <g>
       <use xlink:href="#me3e7d63150" x="39.30375" y="238.063941" style="stroke: #000000; stroke-width: 0.6"/>
      </g>
     </g>
    </g>
    <g id="ytick_15">
     <g id="line2d_73">
      <path d="M 39.30375 230.23985 
L 563.46375 230.23985 
" clip-path="url(#p60c7dddbbb)" style="fill: none; stroke: #bbbbbb; stroke-opacity: 0.15; stroke-width: 0.3; stroke-linecap: square"/>
     </g>
     <g id="line2d_74">
      <g>
       <use xlink:href="#me3e7d63150" x="39.30375" y="230.23985" style="stroke: #000000; stroke-width: 0.6"/>
      </g>
     </g>
    </g>
    <g id="ytick_16">
     <g id="line2d_75">
      <path d="M 39.30375 222.415759 
L 563.46375 222.415759 
" clip-path="url(#p60c7dddbbb)" style="fill: none; stroke: #bbbbbb; stroke-opacity: 0.15; stroke-width: 0.3; stroke-linecap: square"/>
     </g>
     <g id="line2d_76">
      <g>
       <use xlink:href="#me3e7d63150" x="39.30375" y="222.415759" style="stroke: #000000; stroke-width: 0.6"/>
      </g>
     </g>
    </g>
    <g id="ytick_17">
     <g id="line2d_77">
      <path d="M 39.30375 214.591667 
L 563.46375 214.591667 
" clip-path="url(#p60c7dddbbb)" style="fill: none; stroke: #bbbbbb; stroke-opacity: 0.15; stroke-width: 0.3; stroke-linecap: square"/>
     </g>
     <g id="line2d_78">
      <g>
       <use xlink:href="#me3e7d63150" x="39.30375" y="214.591667" style="stroke: #000000; stroke-width: 0.6"/>
      </g>
     </g>
    </g>
    <g id="ytick_18">
     <g id="line2d_79">
      <path d="M 39.30375 198.943485 
L 563.46375 198.943485 
" clip-path="url(#p60c7dddbbb)" style="fill: none; stroke: #bbbbbb; stroke-opacity: 0.15; stroke-width: 0.3; stroke-linecap: square"/>
     </g>
     <g id="line2d_80">
      <g>
       <use xlink:href="#me3e7d63150" x="39.30375" y="198.943485" style="stroke: #000000; stroke-width: 0.6"/>
      </g>
     </g>
    </g>
    <g id="ytick_19">
     <g id="line2d_81">
      <path d="M 39.30375 191.119393 
L 563.46375 191.119393 
" clip-path="url(#p60c7dddbbb)" style="fill: none; stroke: #bbbbbb; stroke-opacity: 0.15; stroke-width: 0.3; stroke-linecap: square"/>
     </g>
     <g id="line2d_82">
      <g>
       <use xlink:href="#me3e7d63150" x="39.30375" y="191.119393" style="stroke: #000000; stroke-width: 0.6"/>
      </g>
     </g>
    </g>
    <g id="ytick_20">
     <g id="line2d_83">
      <path d="M 39.30375 183.295302 
L 563.46375 183.295302 
" clip-path="url(#p60c7dddbbb)" style="fill: none; stroke: #bbbbbb; stroke-opacity: 0.15; stroke-width: 0.3; stroke-linecap: square"/>
     </g>
     <g id="line2d_84">
      <g>
       <use xlink:href="#me3e7d63150" x="39.30375" y="183.295302" style="stroke: #000000; stroke-width: 0.6"/>
      </g>
     </g>
    </g>
    <g id="ytick_21">
     <g id="line2d_85">
      <path d="M 39.30375 175.471211 
L 563.46375 175.471211 
" clip-path="url(#p60c7dddbbb)" style="fill: none; stroke: #bbbbbb; stroke-opacity: 0.15; stroke-width: 0.3; stroke-linecap: square"/>
     </g>
     <g id="line2d_86">
      <g>
       <use xlink:href="#me3e7d63150" x="39.30375" y="175.471211" style="stroke: #000000; stroke-width: 0.6"/>
      </g>
     </g>
    </g>
    <g id="ytick_22">
     <g id="line2d_87">
      <path d="M 39.30375 159.823028 
L 563.46375 159.823028 
" clip-path="url(#p60c7dddbbb)" style="fill: none; stroke: #bbbbbb; stroke-opacity: 0.15; stroke-width: 0.3; stroke-linecap: square"/>
     </g>
     <g id="line2d_88">
      <g>
       <use xlink:href="#me3e7d63150" x="39.30375" y="159.823028" style="stroke: #000000; stroke-width: 0.6"/>
      </g>
     </g>
    </g>
    <g id="ytick_23">
     <g id="line2d_89">
      <path d="M 39.30375 151.998937 
L 563.46375 151.998937 
" clip-path="url(#p60c7dddbbb)" style="fill: none; stroke: #bbbbbb; stroke-opacity: 0.15; stroke-width: 0.3; stroke-linecap: square"/>
     </g>
     <g id="line2d_90">
      <g>
       <use xlink:href="#me3e7d63150" x="39.30375" y="151.998937" style="stroke: #000000; stroke-width: 0.6"/>
      </g>
     </g>
    </g>
    <g id="ytick_24">
     <g id="line2d_91">
      <path d="M 39.30375 144.174845 
L 563.46375 144.174845 
" clip-path="url(#p60c7dddbbb)" style="fill: none; stroke: #bbbbbb; stroke-opacity: 0.15; stroke-width: 0.3; stroke-linecap: square"/>
     </g>
     <g id="line2d_92">
      <g>
       <use xlink:href="#me3e7d63150" x="39.30375" y="144.174845" style="stroke: #000000; stroke-width: 0.6"/>
      </g>
     </g>
    </g>
    <g id="ytick_25">
     <g id="line2d_93">
      <path d="M 39.30375 136.350754 
L 563.46375 136.350754 
" clip-path="url(#p60c7dddbbb)" style="fill: none; stroke: #bbbbbb; stroke-opacity: 0.15; stroke-width: 0.3; stroke-linecap: square"/>
     </g>
     <g id="line2d_94">
      <g>
       <use xlink:href="#me3e7d63150" x="39.30375" y="136.350754" style="stroke: #000000; stroke-width: 0.6"/>
      </g>
     </g>
    </g>
    <g id="ytick_26">
     <g id="line2d_95">
      <path d="M 39.30375 120.702571 
L 563.46375 120.702571 
" clip-path="url(#p60c7dddbbb)" style="fill: none; stroke: #bbbbbb; stroke-opacity: 0.15; stroke-width: 0.3; stroke-linecap: square"/>
     </g>
     <g id="line2d_96">
      <g>
       <use xlink:href="#me3e7d63150" x="39.30375" y="120.702571" style="stroke: #000000; stroke-width: 0.6"/>
      </g>
     </g>
    </g>
    <g id="ytick_27">
     <g id="line2d_97">
      <path d="M 39.30375 112.87848 
L 563.46375 112.87848 
" clip-path="url(#p60c7dddbbb)" style="fill: none; stroke: #bbbbbb; stroke-opacity: 0.15; stroke-width: 0.3; stroke-linecap: square"/>
     </g>
     <g id="line2d_98">
      <g>
       <use xlink:href="#me3e7d63150" x="39.30375" y="112.87848" style="stroke: #000000; stroke-width: 0.6"/>
      </g>
     </g>
    </g>
    <g id="ytick_28">
     <g id="line2d_99">
      <path d="M 39.30375 105.054389 
L 563.46375 105.054389 
" clip-path="url(#p60c7dddbbb)" style="fill: none; stroke: #bbbbbb; stroke-opacity: 0.15; stroke-width: 0.3; stroke-linecap: square"/>
     </g>
     <g id="line2d_100">
      <g>
       <use xlink:href="#me3e7d63150" x="39.30375" y="105.054389" style="stroke: #000000; stroke-width: 0.6"/>
      </g>
     </g>
    </g>
    <g id="ytick_29">
     <g id="line2d_101">
      <path d="M 39.30375 97.230297 
L 563.46375 97.230297 
" clip-path="url(#p60c7dddbbb)" style="fill: none; stroke: #bbbbbb; stroke-opacity: 0.15; stroke-width: 0.3; stroke-linecap: square"/>
     </g>
     <g id="line2d_102">
      <g>
       <use xlink:href="#me3e7d63150" x="39.30375" y="97.230297" style="stroke: #000000; stroke-width: 0.6"/>
      </g>
     </g>
    </g>
    <g id="ytick_30">
     <g id="line2d_103">
      <path d="M 39.30375 81.582115 
L 563.46375 81.582115 
" clip-path="url(#p60c7dddbbb)" style="fill: none; stroke: #bbbbbb; stroke-opacity: 0.15; stroke-width: 0.3; stroke-linecap: square"/>
     </g>
     <g id="line2d_104">
      <g>
       <use xlink:href="#me3e7d63150" x="39.30375" y="81.582115" style="stroke: #000000; stroke-width: 0.6"/>
      </g>
     </g>
    </g>
    <g id="ytick_31">
     <g id="line2d_105">
      <path d="M 39.30375 73.758023 
L 563.46375 73.758023 
" clip-path="url(#p60c7dddbbb)" style="fill: none; stroke: #bbbbbb; stroke-opacity: 0.15; stroke-width: 0.3; stroke-linecap: square"/>
     </g>
     <g id="line2d_106">
      <g>
       <use xlink:href="#me3e7d63150" x="39.30375" y="73.758023" style="stroke: #000000; stroke-width: 0.6"/>
      </g>
     </g>
    </g>
    <g id="ytick_32">
     <g id="line2d_107">
      <path d="M 39.30375 65.933932 
L 563.46375 65.933932 
" clip-path="url(#p60c7dddbbb)" style="fill: none; stroke: #bbbbbb; stroke-opacity: 0.15; stroke-width: 0.3; stroke-linecap: square"/>
     </g>
     <g id="line2d_108">
      <g>
       <use xlink:href="#me3e7d63150" x="39.30375" y="65.933932" style="stroke: #000000; stroke-width: 0.6"/>
      </g>
     </g>
    </g>
    <g id="ytick_33">
     <g id="line2d_109">
      <path d="M 39.30375 58.109841 
L 563.46375 58.109841 
" clip-path="url(#p60c7dddbbb)" style="fill: none; stroke: #bbbbbb; stroke-opacity: 0.15; stroke-width: 0.3; stroke-linecap: square"/>
     </g>
     <g id="line2d_110">
      <g>
       <use xlink:href="#me3e7d63150" x="39.30375" y="58.109841" style="stroke: #000000; stroke-width: 0.6"/>
      </g>
     </g>
    </g>
    <g id="ytick_34">
     <g id="line2d_111">
      <path d="M 39.30375 42.461658 
L 563.46375 42.461658 
" clip-path="url(#p60c7dddbbb)" style="fill: none; stroke: #bbbbbb; stroke-opacity: 0.15; stroke-width: 0.3; stroke-linecap: square"/>
     </g>
     <g id="line2d_112">
      <g>
       <use xlink:href="#me3e7d63150" x="39.30375" y="42.461658" style="stroke: #000000; stroke-width: 0.6"/>
      </g>
     </g>
    </g>
    <g id="ytick_35">
     <g id="line2d_113">
      <path d="M 39.30375 34.637567 
L 563.46375 34.637567 
" clip-path="url(#p60c7dddbbb)" style="fill: none; stroke: #bbbbbb; stroke-opacity: 0.15; stroke-width: 0.3; stroke-linecap: square"/>
     </g>
     <g id="line2d_114">
      <g>
       <use xlink:href="#me3e7d63150" x="39.30375" y="34.637567" style="stroke: #000000; stroke-width: 0.6"/>
      </g>
     </g>
    </g>
    <g id="ytick_36">
     <g id="line2d_115">
      <path d="M 39.30375 26.813475 
L 563.46375 26.813475 
" clip-path="url(#p60c7dddbbb)" style="fill: none; stroke: #bbbbbb; stroke-opacity: 0.15; stroke-width: 0.3; stroke-linecap: square"/>
     </g>
     <g id="line2d_116">
      <g>
       <use xlink:href="#me3e7d63150" x="39.30375" y="26.813475" style="stroke: #000000; stroke-width: 0.6"/>
      </g>
     </g>
    </g>
    <g id="ytick_37">
     <g id="line2d_117">
      <path d="M 39.30375 18.989384 
L 563.46375 18.989384 
" clip-path="url(#p60c7dddbbb)" style="fill: none; stroke: #bbbbbb; stroke-opacity: 0.15; stroke-width: 0.3; stroke-linecap: square"/>
     </g>
     <g id="line2d_118">
      <g>
       <use xlink:href="#me3e7d63150" x="39.30375" y="18.989384" style="stroke: #000000; stroke-width: 0.6"/>
      </g>
     </g>
    </g>
    <g id="text_16">
     <!-- absolute val MSE -->
     <g transform="translate(13.27875 185.460125) rotate(-90) scale(0.08 -0.08)">
      <defs>
       <path id="DejaVuSans-62" d="M 3116 1747 
Q 3116 2381 2855 2742 
Q 2594 3103 2138 3103 
Q 1681 3103 1420 2742 
Q 1159 2381 1159 1747 
Q 1159 1113 1420 752 
Q 1681 391 2138 391 
Q 2594 391 2855 752 
Q 3116 1113 3116 1747 
z
M 1159 2969 
Q 1341 3281 1617 3432 
Q 1894 3584 2278 3584 
Q 2916 3584 3314 3078 
Q 3713 2572 3713 1747 
Q 3713 922 3314 415 
Q 2916 -91 2278 -91 
Q 1894 -91 1617 61 
Q 1341 213 1159 525 
L 1159 0 
L 581 0 
L 581 4863 
L 1159 4863 
L 1159 2969 
z
" transform="scale(0.015625)"/>
       <path id="DejaVuSans-6f" d="M 1959 3097 
Q 1497 3097 1228 2736 
Q 959 2375 959 1747 
Q 959 1119 1226 758 
Q 1494 397 1959 397 
Q 2419 397 2687 759 
Q 2956 1122 2956 1747 
Q 2956 2369 2687 2733 
Q 2419 3097 1959 3097 
z
M 1959 3584 
Q 2709 3584 3137 3096 
Q 3566 2609 3566 1747 
Q 3566 888 3137 398 
Q 2709 -91 1959 -91 
Q 1206 -91 779 398 
Q 353 888 353 1747 
Q 353 2609 779 3096 
Q 1206 3584 1959 3584 
z
" transform="scale(0.015625)"/>
       <path id="DejaVuSans-6c" d="M 603 4863 
L 1178 4863 
L 1178 0 
L 603 0 
L 603 4863 
z
" transform="scale(0.015625)"/>
       <path id="DejaVuSans-75" d="M 544 1381 
L 544 3500 
L 1119 3500 
L 1119 1403 
Q 1119 906 1312 657 
Q 1506 409 1894 409 
Q 2359 409 2629 706 
Q 2900 1003 2900 1516 
L 2900 3500 
L 3475 3500 
L 3475 0 
L 2900 0 
L 2900 538 
Q 2691 219 2414 64 
Q 2138 -91 1772 -91 
Q 1169 -91 856 284 
Q 544 659 544 1381 
z
M 1991 3584 
L 1991 3584 
z
" transform="scale(0.015625)"/>
       <path id="DejaVuSans-76" d="M 191 3500 
L 800 3500 
L 1894 563 
L 2988 3500 
L 3597 3500 
L 2284 0 
L 1503 0 
L 191 3500 
z
" transform="scale(0.015625)"/>
       <path id="DejaVuSans-4d" d="M 628 4666 
L 1569 4666 
L 2759 1491 
L 3956 4666 
L 4897 4666 
L 4897 0 
L 4281 0 
L 4281 4097 
L 3078 897 
L 2444 897 
L 1241 4097 
L 1241 0 
L 628 0 
L 628 4666 
z
" transform="scale(0.015625)"/>
       <path id="DejaVuSans-53" d="M 3425 4513 
L 3425 3897 
Q 3066 4069 2747 4153 
Q 2428 4238 2131 4238 
Q 1616 4238 1336 4038 
Q 1056 3838 1056 3469 
Q 1056 3159 1242 3001 
Q 1428 2844 1947 2747 
L 2328 2669 
Q 3034 2534 3370 2195 
Q 3706 1856 3706 1288 
Q 3706 609 3251 259 
Q 2797 -91 1919 -91 
Q 1588 -91 1214 -16 
Q 841 59 441 206 
L 441 856 
Q 825 641 1194 531 
Q 1563 422 1919 422 
Q 2459 422 2753 634 
Q 3047 847 3047 1241 
Q 3047 1584 2836 1778 
Q 2625 1972 2144 2069 
L 1759 2144 
Q 1053 2284 737 2584 
Q 422 2884 422 3419 
Q 422 4038 858 4394 
Q 1294 4750 2059 4750 
Q 2388 4750 2728 4690 
Q 3069 4631 3425 4513 
z
" transform="scale(0.015625)"/>
       <path id="DejaVuSans-45" d="M 628 4666 
L 3578 4666 
L 3578 4134 
L 1259 4134 
L 1259 2753 
L 3481 2753 
L 3481 2222 
L 1259 2222 
L 1259 531 
L 3634 531 
L 3634 0 
L 628 0 
L 628 4666 
z
" transform="scale(0.015625)"/>
      </defs>
      <use xlink:href="#DejaVuSans-61"/>
      <use xlink:href="#DejaVuSans-62" transform="translate(61.279297 0)"/>
      <use xlink:href="#DejaVuSans-73" transform="translate(124.755859 0)"/>
      <use xlink:href="#DejaVuSans-6f" transform="translate(176.855469 0)"/>
      <use xlink:href="#DejaVuSans-6c" transform="translate(238.037109 0)"/>
      <use xlink:href="#DejaVuSans-75" transform="translate(265.820312 0)"/>
      <use xlink:href="#DejaVuSans-74" transform="translate(329.199219 0)"/>
      <use xlink:href="#DejaVuSans-65" transform="translate(368.408203 0)"/>
      <use xlink:href="#DejaVuSans-20" transform="translate(429.931641 0)"/>
      <use xlink:href="#DejaVuSans-76" transform="translate(461.71875 0)"/>
      <use xlink:href="#DejaVuSans-61" transform="translate(520.898438 0)"/>
      <use xlink:href="#DejaVuSans-6c" transform="translate(582.177734 0)"/>
      <use xlink:href="#DejaVuSans-20" transform="translate(609.960938 0)"/>
      <use xlink:href="#DejaVuSans-4d" transform="translate(641.748047 0)"/>
      <use xlink:href="#DejaVuSans-53" transform="translate(728.027344 0)"/>
      <use xlink:href="#DejaVuSans-45" transform="translate(791.503906 0)"/>
     </g>
    </g>
   </g>
   <g id="line2d_119">
    <path d="M 63.129205 240.124515 
L 67.422079 243.281827 
L 71.714954 248.345213 
L 76.007829 254.748496 
L 80.300703 261.044596 
L 84.593578 265.960376 
L 88.886453 269.966281 
L 93.179327 273.035635 
L 97.472202 274.872975 
L 101.765077 276.141536 
L 106.057951 277.185015 
L 110.350826 278.148597 
L 114.643701 279.116265 
L 118.936576 279.755384 
L 123.22945 280.504947 
L 127.522325 280.921466 
L 131.8152 280.995658 
L 136.108074 281.071889 
L 140.400949 281.04728 
L 144.693824 281.112335 
L 148.986698 281.019731 
L 153.279573 281.084636 
L 157.572448 281.145658 
L 161.865322 281.261654 
L 166.158197 281.193609 
L 170.451072 281.220161 
L 174.743947 281.19379 
L 179.036821 281.312299 
L 183.329696 281.229976 
L 187.622571 281.291617 
L 191.915445 281.395646 
L 196.20832 281.385756 
L 200.501195 281.328178 
L 204.794069 281.388836 
L 209.086944 281.422808 
L 213.379819 281.396953 
L 217.672693 281.410198 
L 221.965568 281.432874 
L 226.258443 281.502968 
L 230.551318 281.50634 
L 234.844192 281.405739 
L 239.137067 281.498764 
L 243.429942 281.405333 
L 247.722816 281.469031 
L 252.015691 281.378608 
L 256.308566 281.547668 
L 260.60144 281.565634 
L 264.894315 281.544816 
L 269.18719 281.566345 
L 273.480064 281.597631 
L 277.772939 281.633389 
L 282.065814 281.665211 
L 286.358689 281.690425 
L 290.651563 281.697721 
L 294.944438 281.683896 
L 299.237313 281.716232 
L 303.530187 281.718537 
L 307.823062 281.770303 
L 312.115937 281.794975 
L 316.408811 281.789814 
L 320.701686 281.817463 
L 324.994561 281.794654 
L 329.287436 281.837643 
L 333.58031 281.850215 
L 337.873185 281.858481 
L 342.16606 281.879664 
L 346.458934 281.922496 
L 350.751809 281.918568 
L 355.044684 281.940191 
L 359.337558 281.950037 
L 363.630433 281.95143 
L 367.923308 281.962318 
L 372.216182 281.99132 
L 376.509057 282.024761 
L 380.801932 282.018696 
L 385.094807 282.000466 
L 389.387681 282.056228 
L 393.680556 282.072013 
L 397.973431 282.079104 
L 402.266305 282.093229 
L 406.55918 282.061298 
L 410.852055 282.082967 
L 415.144929 282.119464 
L 419.437804 282.128125 
L 423.730679 282.116451 
L 428.023553 282.120417 
L 432.316428 282.146412 
L 436.609303 282.101947 
L 440.902178 282.156077 
L 445.195052 282.158202 
L 449.487927 282.165043 
L 453.780802 282.176601 
L 458.073676 282.185917 
L 462.366551 282.18035 
L 466.659426 282.176638 
L 470.9523 282.199961 
L 475.245175 282.208001 
L 479.53805 282.185902 
L 483.830924 282.212029 
L 488.123799 282.20411 
L 492.416674 282.222272 
L 496.709549 282.216331 
L 501.002423 282.2183 
L 505.295298 282.235216 
L 509.588173 282.229105 
L 513.881047 282.223877 
L 518.173922 282.228482 
L 522.466797 282.230122 
L 526.759671 282.23811 
L 531.052546 282.242281 
L 535.345421 282.238438 
L 539.638295 282.246545 
" clip-path="url(#p60c7dddbbb)" style="fill: none; stroke: #000000; stroke-opacity: 0.85; stroke-width: 1.5; stroke-linecap: square"/>
   </g>
   <g id="line2d_120">
    <path d="M 63.129205 194.346414 
L 67.422079 197.214449 
L 71.714954 201.810603 
L 76.007829 207.584946 
L 80.300703 213.833891 
L 84.593578 220.657274 
L 88.886453 229.014598 
L 93.179327 239.219319 
L 97.472202 250.573253 
L 101.765077 261.590359 
L 106.057951 268.941757 
L 110.350826 272.651491 
L 114.643701 274.80054 
L 118.936576 276.464649 
L 123.22945 277.616614 
L 127.522325 278.513421 
L 131.8152 278.985232 
L 136.108074 279.375923 
L 140.400949 279.57169 
L 144.693824 279.638861 
L 148.986698 279.727757 
L 153.279573 279.979534 
L 157.572448 280.009539 
L 161.865322 280.09078 
L 166.158197 280.199434 
L 170.451072 280.274585 
L 174.743947 280.292568 
L 179.036821 280.321288 
L 183.329696 280.324505 
L 187.622571 280.38292 
L 191.915445 280.417514 
L 196.20832 280.510687 
L 200.501195 280.546464 
L 204.794069 280.559723 
L 209.086944 280.624067 
L 213.379819 280.599693 
L 217.672693 280.628071 
L 221.965568 280.641532 
L 226.258443 280.722127 
L 230.551318 280.746486 
L 234.844192 280.773668 
L 239.137067 280.788567 
L 243.429942 280.770038 
L 247.722816 280.777 
L 252.015691 280.82916 
L 256.308566 280.826719 
L 260.60144 280.779126 
L 264.894315 280.838428 
L 269.18719 280.871341 
L 273.480064 280.909549 
L 277.772939 280.913289 
L 282.065814 280.946467 
L 286.358689 280.934071 
L 290.651563 280.982571 
L 294.944438 280.98949 
L 299.237313 280.997721 
L 303.530187 281.005017 
L 307.823062 281.022479 
L 312.115937 281.025516 
L 316.408811 281.016755 
L 320.701686 281.033958 
L 324.994561 280.941834 
L 329.287436 281.033325 
L 333.58031 281.050616 
L 337.873185 281.070794 
L 342.16606 281.074685 
L 346.458934 281.105912 
L 350.751809 281.113313 
L 355.044684 281.115208 
L 359.337558 281.116661 
L 363.630433 281.118966 
L 367.923308 281.148477 
L 372.216182 281.156448 
L 376.509057 281.177455 
L 380.801932 281.182918 
L 385.094807 281.165741 
L 389.387681 281.213426 
L 393.680556 281.219684 
L 397.973431 281.233099 
L 402.266305 281.244037 
L 406.55918 281.213029 
L 410.852055 281.206465 
L 415.144929 281.261835 
L 419.437804 281.261144 
L 423.730679 281.262114 
L 428.023553 281.266604 
L 432.316428 281.294991 
L 436.609303 281.266241 
L 440.902178 281.294913 
L 445.195052 281.299142 
L 449.487927 281.312302 
L 453.780802 281.318111 
L 458.073676 281.327676 
L 462.366551 281.336268 
L 466.659426 281.324229 
L 470.9523 281.346524 
L 475.245175 281.354459 
L 479.53805 281.338277 
L 483.830924 281.362972 
L 488.123799 281.355047 
L 492.416674 281.378996 
L 496.709549 281.381815 
L 501.002423 281.375293 
L 505.295298 281.39771 
L 509.588173 281.388762 
L 513.881047 281.3908 
L 518.173922 281.391211 
L 522.466797 281.396003 
L 526.759671 281.40571 
L 531.052546 281.416977 
L 535.345421 281.416868 
L 539.638295 281.427629 
" clip-path="url(#p60c7dddbbb)" style="fill: none; stroke: #cb6020; stroke-opacity: 0.85; stroke-width: 1.5; stroke-linecap: square"/>
   </g>
   <g id="line2d_121">
    <path d="M 63.129205 193.389678 
L 67.422079 193.415947 
L 71.714954 193.462272 
L 76.007829 193.650778 
L 80.300703 194.10317 
L 84.593578 194.981429 
L 88.886453 196.358516 
L 93.179327 198.122757 
L 97.472202 200.568041 
L 101.765077 203.860861 
L 106.057951 208.17058 
L 110.350826 213.52717 
L 114.643701 219.257331 
L 118.936576 224.79622 
L 123.22945 229.246078 
L 127.522325 232.585681 
L 131.8152 235.284174 
L 136.108074 237.31119 
L 140.400949 238.443817 
L 144.693824 238.872153 
L 148.986698 239.001887 
L 153.279573 239.082606 
L 157.572448 239.084083 
L 161.865322 239.095814 
L 166.158197 239.092592 
L 170.451072 239.010565 
L 174.743947 239.012595 
L 179.036821 239.114699 
L 183.329696 239.087689 
L 187.622571 239.107005 
L 191.915445 239.097246 
L 196.20832 239.106275 
L 200.501195 239.110659 
L 204.794069 239.074613 
L 209.086944 239.09763 
L 213.379819 239.101519 
L 217.672693 239.102215 
L 221.965568 239.099601 
L 226.258443 239.106447 
L 230.551318 239.107166 
L 234.844192 239.112912 
L 239.137067 239.105914 
L 243.429942 239.095384 
L 247.722816 239.11438 
L 252.015691 239.113229 
L 256.308566 239.104453 
L 260.60144 239.106651 
L 264.894315 239.112577 
L 269.18719 239.095605 
L 273.480064 239.109159 
L 277.772939 239.106996 
L 282.065814 239.103316 
L 286.358689 239.106043 
L 290.651563 239.118126 
L 294.944438 239.108005 
L 299.237313 239.087044 
L 303.530187 239.115451 
L 307.823062 239.109512 
L 312.115937 239.111967 
L 316.408811 239.112961 
L 320.701686 239.120134 
L 324.994561 239.087532 
L 329.287436 239.111829 
L 333.58031 239.115109 
L 337.873185 239.113692 
L 342.16606 239.124254 
L 346.458934 239.120889 
L 350.751809 239.123074 
L 355.044684 239.084032 
L 359.337558 239.111242 
L 363.630433 239.092742 
L 367.923308 239.114666 
L 372.216182 239.112264 
L 376.509057 239.094563 
L 380.801932 239.120433 
L 385.094807 239.11186 
L 389.387681 239.117253 
L 393.680556 239.118828 
L 397.973431 239.116934 
L 402.266305 239.120113 
L 406.55918 239.120422 
L 410.852055 239.120481 
L 415.144929 239.112763 
L 419.437804 239.126817 
L 423.730679 239.119181 
L 428.023553 239.125344 
L 432.316428 239.121219 
L 436.609303 239.117436 
L 440.902178 239.125622 
L 445.195052 239.121349 
L 449.487927 239.119489 
L 453.780802 239.123464 
L 458.073676 239.11983 
L 462.366551 239.126208 
L 466.659426 239.109877 
L 470.9523 239.118932 
L 475.245175 239.123842 
L 479.53805 239.119734 
L 483.830924 239.12371 
L 488.123799 239.125006 
L 492.416674 239.123886 
L 496.709549 239.118685 
L 501.002423 239.124924 
L 505.295298 239.124015 
L 509.588173 239.124736 
L 513.881047 239.119028 
L 518.173922 239.123641 
L 522.466797 239.12194 
L 526.759671 239.122841 
L 531.052546 239.124246 
L 535.345421 239.118385 
L 539.638295 239.125098 
" clip-path="url(#p60c7dddbbb)" style="fill: none; stroke: #a50f15; stroke-opacity: 0.85; stroke-width: 1.5; stroke-linecap: square"/>
   </g>
   <g id="line2d_122">
    <path d="M 63.129205 20.297455 
L 67.422079 20.315185 
L 71.714954 20.335182 
L 76.007829 20.472571 
L 80.300703 20.974457 
L 84.593578 22.271849 
L 88.886453 24.473188 
L 93.179327 27.42446 
L 97.472202 31.25126 
L 101.765077 36.103503 
L 106.057951 41.944779 
L 110.350826 48.952984 
L 114.643701 57.193016 
L 118.936576 66.387827 
L 123.22945 76.096455 
L 127.522325 86.211061 
L 131.8152 96.699986 
L 136.108074 107.8942 
L 140.400949 120.584032 
L 144.693824 136.12551 
L 148.986698 154.966052 
L 153.279573 173.965204 
L 157.572448 188.07063 
L 161.865322 194.213354 
L 166.158197 196.708969 
L 170.451072 198.885612 
L 174.743947 201.052907 
L 179.036821 203.185209 
L 183.329696 205.057396 
L 187.622571 206.588791 
L 191.915445 207.698986 
L 196.20832 208.439153 
L 200.501195 208.915196 
L 204.794069 209.123928 
L 209.086944 209.217312 
L 213.379819 209.219271 
L 217.672693 209.21445 
L 221.965568 209.266248 
L 226.258443 209.243671 
L 230.551318 209.139043 
L 234.844192 209.237255 
L 239.137067 209.217555 
L 243.429942 209.241872 
L 247.722816 209.256903 
L 252.015691 209.228309 
L 256.308566 209.262217 
L 260.60144 209.258574 
L 264.894315 209.228598 
L 269.18719 209.250741 
L 273.480064 209.256717 
L 277.772939 209.2578 
L 282.065814 209.239549 
L 286.358689 209.242826 
L 290.651563 209.258395 
L 294.944438 209.270785 
L 299.237313 209.252899 
L 303.530187 209.267421 
L 307.823062 209.254437 
L 312.115937 209.253043 
L 316.408811 209.267426 
L 320.701686 209.248742 
L 324.994561 209.252272 
L 329.287436 209.269858 
L 333.58031 209.264427 
L 337.873185 209.257231 
L 342.16606 209.263028 
L 346.458934 209.259377 
L 350.751809 209.259566 
L 355.044684 209.255057 
L 359.337558 209.25928 
L 363.630433 209.266807 
L 367.923308 209.267623 
L 372.216182 209.265369 
L 376.509057 209.260862 
L 380.801932 209.268576 
L 385.094807 209.258675 
L 389.387681 209.273304 
L 393.680556 209.271909 
L 397.973431 209.276867 
L 402.266305 209.273739 
L 406.55918 209.281577 
L 410.852055 209.272452 
L 415.144929 209.276786 
L 419.437804 209.269148 
L 423.730679 209.273652 
L 428.023553 209.263125 
L 432.316428 209.266484 
L 436.609303 209.276285 
L 440.902178 209.278456 
L 445.195052 209.274513 
L 449.487927 209.280549 
L 453.780802 209.272914 
L 458.073676 209.280528 
L 462.366551 209.279929 
L 466.659426 209.279623 
L 470.9523 209.279223 
L 475.245175 209.280175 
L 479.53805 209.279081 
L 483.830924 209.280249 
L 488.123799 209.279892 
L 492.416674 209.279646 
L 496.709549 209.282353 
L 501.002423 209.283365 
L 505.295298 209.283828 
L 509.588173 209.280797 
L 513.881047 209.279652 
L 518.173922 209.28194 
L 522.466797 209.281321 
L 526.759671 209.28175 
L 531.052546 209.278842 
L 535.345421 209.282786 
L 539.638295 209.280399 
" clip-path="url(#p60c7dddbbb)" style="fill: none; stroke: #2171b5; stroke-opacity: 0.85; stroke-width: 1.5; stroke-linecap: square"/>
   </g>
   <g id="line2d_123">
    <path d="M 63.129205 20.297455 
L 67.422079 20.315185 
L 71.714954 20.335182 
L 76.007829 20.472571 
L 80.300703 20.974457 
L 84.593578 22.271849 
L 88.886453 24.473188 
L 93.179327 27.42446 
L 97.472202 31.25126 
L 101.765077 36.103503 
L 106.057951 41.944778 
L 110.350826 48.952983 
L 114.643701 57.193016 
L 118.936576 66.387827 
L 123.22945 76.096454 
L 127.522325 86.21106 
L 131.8152 96.699985 
L 136.108074 107.8942 
L 140.400949 120.584032 
L 144.693824 136.125509 
L 148.986698 154.966051 
L 153.279573 173.965202 
L 157.572448 188.070629 
L 161.865322 194.213348 
L 166.158197 196.708978 
L 170.451072 198.885565 
L 174.743947 201.052924 
L 179.036821 203.184995 
L 183.329696 205.104904 
L 187.622571 206.648472 
L 191.915445 207.830028 
L 196.20832 208.566181 
L 200.501195 208.980906 
L 204.794069 209.151976 
L 209.086944 209.194077 
L 213.379819 209.249809 
L 217.672693 209.229289 
L 221.965568 209.2433 
L 226.258443 209.232408 
L 230.551318 209.243764 
L 234.844192 209.200339 
L 239.137067 209.242136 
L 243.429942 209.251626 
L 247.722816 209.261679 
L 252.015691 209.248282 
L 256.308566 209.251273 
L 260.60144 209.254711 
L 264.894315 209.258691 
L 269.18719 209.237042 
L 273.480064 209.266797 
L 277.772939 209.266778 
L 282.065814 209.220023 
L 286.358689 209.270243 
L 290.651563 209.243298 
L 294.944438 209.262787 
L 299.237313 209.257054 
L 303.530187 209.25502 
L 307.823062 209.252844 
L 312.115937 209.243265 
L 316.408811 209.270574 
L 320.701686 209.252821 
L 324.994561 209.253918 
L 329.287436 209.271599 
L 333.58031 209.267094 
L 337.873185 209.267388 
L 342.16606 209.266251 
L 346.458934 209.255741 
L 350.751809 209.257164 
L 355.044684 209.252639 
L 359.337558 209.268643 
L 363.630433 209.275726 
L 367.923308 209.270286 
L 372.216182 209.256467 
L 376.509057 209.263319 
L 380.801932 209.273047 
L 385.094807 209.254994 
L 389.387681 209.271889 
L 393.680556 209.274144 
L 397.973431 209.280741 
L 402.266305 209.270994 
L 406.55918 209.283196 
L 410.852055 209.271494 
L 415.144929 209.274562 
L 419.437804 209.271777 
L 423.730679 209.274491 
L 428.023553 209.267343 
L 432.316428 209.268323 
L 436.609303 209.277373 
L 440.902178 209.279406 
L 445.195052 209.274506 
L 449.487927 209.28156 
L 453.780802 209.273472 
L 458.073676 209.280225 
L 462.366551 209.280049 
L 466.659426 209.279502 
L 470.9523 209.278783 
L 475.245175 209.280315 
L 479.53805 209.279183 
L 483.830924 209.280224 
L 488.123799 209.279947 
L 492.416674 209.27936 
L 496.709549 209.28228 
L 501.002423 209.283027 
L 505.295298 209.283605 
L 509.588173 209.280854 
L 513.881047 209.279509 
L 518.173922 209.282167 
L 522.466797 209.281323 
L 526.759671 209.281667 
L 531.052546 209.278771 
L 535.345421 209.282503 
L 539.638295 209.28008 
" clip-path="url(#p60c7dddbbb)" style="fill: none; stroke: #08306b; stroke-opacity: 0.85; stroke-width: 1.5; stroke-linecap: square"/>
   </g>
   <g id="line2d_124">
    <path d="M 63.129205 107.794515 
L 67.422079 107.799549 
L 71.714954 107.828283 
L 76.007829 107.921558 
L 80.300703 108.243629 
L 84.593578 108.887867 
L 88.886453 109.906327 
L 93.179327 111.381098 
L 97.472202 113.310242 
L 101.765077 115.664768 
L 106.057951 118.558106 
L 110.350826 121.890208 
L 114.643701 125.513958 
L 118.936576 129.370409 
L 123.22945 133.300625 
L 127.522325 137.07701 
L 131.8152 140.698357 
L 136.108074 144.160701 
L 140.400949 147.609676 
L 144.693824 151.399858 
L 148.986698 155.190918 
L 153.279573 158.964851 
L 157.572448 163.078538 
L 161.865322 167.775378 
L 166.158197 172.670838 
L 170.451072 177.771203 
L 174.743947 182.698008 
L 179.036821 187.180372 
L 183.329696 190.848133 
L 187.622571 193.514733 
L 191.915445 195.118285 
L 196.20832 195.891884 
L 200.501195 196.123653 
L 204.794069 196.222344 
L 209.086944 196.23789 
L 213.379819 196.224411 
L 217.672693 196.210079 
L 221.965568 196.24114 
L 226.258443 196.219821 
L 230.551318 196.235935 
L 234.844192 196.209656 
L 239.137067 196.215963 
L 243.429942 196.250559 
L 247.722816 196.245918 
L 252.015691 196.224313 
L 256.308566 196.240419 
L 260.60144 196.228057 
L 264.894315 196.245544 
L 269.18719 196.225611 
L 273.480064 196.236326 
L 277.772939 196.251104 
L 282.065814 196.230829 
L 286.358689 196.251747 
L 290.651563 196.2247 
L 294.944438 196.255081 
L 299.237313 196.244651 
L 303.530187 196.247248 
L 307.823062 196.235826 
L 312.115937 196.219501 
L 316.408811 196.23996 
L 320.701686 196.247153 
L 324.994561 196.236885 
L 329.287436 196.229532 
L 333.58031 196.250307 
L 337.873185 196.237419 
L 342.16606 196.246762 
L 346.458934 196.244507 
L 350.751809 196.245712 
L 355.044684 196.242185 
L 359.337558 196.243469 
L 363.630433 196.246819 
L 367.923308 196.245444 
L 372.216182 196.247007 
L 376.509057 196.246947 
L 380.801932 196.251391 
L 385.094807 196.244989 
L 389.387681 196.249855 
L 393.680556 196.252521 
L 397.973431 196.255065 
L 402.266305 196.253641 
L 406.55918 196.25796 
L 410.852055 196.256773 
L 415.144929 196.254806 
L 419.437804 196.261643 
L 423.730679 196.246375 
L 428.023553 196.258808 
L 432.316428 196.255547 
L 436.609303 196.252727 
L 440.902178 196.260989 
L 445.195052 196.25539 
L 449.487927 196.255251 
L 453.780802 196.259401 
L 458.073676 196.253092 
L 462.366551 196.260414 
L 466.659426 196.255504 
L 470.9523 196.256511 
L 475.245175 196.257985 
L 479.53805 196.25469 
L 483.830924 196.260341 
L 488.123799 196.256971 
L 492.416674 196.258188 
L 496.709549 196.26176 
L 501.002423 196.259268 
L 505.295298 196.257453 
L 509.588173 196.255871 
L 513.881047 196.258542 
L 518.173922 196.25606 
L 522.466797 196.259028 
L 526.759671 196.257318 
L 531.052546 196.258732 
L 535.345421 196.261024 
L 539.638295 196.258639 
" clip-path="url(#p60c7dddbbb)" style="fill: none; stroke: #26c6da; stroke-opacity: 0.85; stroke-width: 1.5; stroke-linecap: square"/>
   </g>
   <g id="line2d_125">
    <path d="M 63.129205 107.794515 
L 67.422079 107.799549 
L 71.714954 107.828283 
L 76.007829 107.921558 
L 80.300703 108.243629 
L 84.593578 108.887867 
L 88.886453 109.906327 
L 93.179327 111.381098 
L 97.472202 113.310242 
L 101.765077 115.664768 
L 106.057951 118.558106 
L 110.350826 121.890208 
L 114.643701 125.513958 
L 118.936576 129.370409 
L 123.22945 133.300625 
L 127.522325 137.07701 
L 131.8152 140.698357 
L 136.108074 144.160701 
L 140.400949 147.609676 
L 144.693824 151.399858 
L 148.986698 155.190918 
L 153.279573 158.964851 
L 157.572448 163.078538 
L 161.865322 167.775378 
L 166.158197 172.670838 
L 170.451072 177.771203 
L 174.743947 182.698008 
L 179.036821 187.180372 
L 183.329696 190.848133 
L 187.622571 193.514733 
L 191.915445 195.118285 
L 196.20832 195.891884 
L 200.501195 196.123653 
L 204.794069 196.222344 
L 209.086944 196.237888 
L 213.379819 196.224415 
L 217.672693 196.210735 
L 221.965568 196.240975 
L 226.258443 196.218364 
L 230.551318 196.233775 
L 234.844192 196.210937 
L 239.137067 196.215891 
L 243.429942 196.253573 
L 247.722816 196.244635 
L 252.015691 196.223272 
L 256.308566 196.25073 
L 260.60144 196.236246 
L 264.894315 196.241341 
L 269.18719 196.237779 
L 273.480064 196.238297 
L 277.772939 196.238431 
L 282.065814 196.24244 
L 286.358689 196.2496 
L 290.651563 196.244786 
L 294.944438 196.232258 
L 299.237313 196.247674 
L 303.530187 196.244598 
L 307.823062 196.245893 
L 312.115937 196.222462 
L 316.408811 196.240264 
L 320.701686 196.251084 
L 324.994561 196.243206 
L 329.287436 196.229958 
L 333.58031 196.24391 
L 337.873185 196.239639 
L 342.16606 196.243996 
L 346.458934 196.247858 
L 350.751809 196.247796 
L 355.044684 196.244631 
L 359.337558 196.234942 
L 363.630433 196.2454 
L 367.923308 196.24785 
L 372.216182 196.244711 
L 376.509057 196.25031 
L 380.801932 196.251756 
L 385.094807 196.247377 
L 389.387681 196.250163 
L 393.680556 196.251887 
L 397.973431 196.251893 
L 402.266305 196.254053 
L 406.55918 196.256685 
L 410.852055 196.256343 
L 415.144929 196.254695 
L 419.437804 196.26132 
L 423.730679 196.247176 
L 428.023553 196.260498 
L 432.316428 196.255336 
L 436.609303 196.253411 
L 440.902178 196.260317 
L 445.195052 196.255776 
L 449.487927 196.253462 
L 453.780802 196.259589 
L 458.073676 196.253099 
L 462.366551 196.260247 
L 466.659426 196.256198 
L 470.9523 196.256068 
L 475.245175 196.257968 
L 479.53805 196.25457 
L 483.830924 196.259409 
L 488.123799 196.257074 
L 492.416674 196.258721 
L 496.709549 196.261634 
L 501.002423 196.259134 
L 505.295298 196.257426 
L 509.588173 196.25548 
L 513.881047 196.258872 
L 518.173922 196.256575 
L 522.466797 196.25903 
L 526.759671 196.257063 
L 531.052546 196.258836 
L 535.345421 196.260765 
L 539.638295 196.258565 
" clip-path="url(#p60c7dddbbb)" style="fill: none; stroke: #0e6655; stroke-opacity: 0.85; stroke-width: 1.5; stroke-linecap: square"/>
   </g>
   <g id="patch_3">
    <path d="M 39.30375 295.344 
L 39.30375 7.2 
" style="fill: none; stroke: #000000; stroke-width: 0.8; stroke-linejoin: miter; stroke-linecap: square"/>
   </g>
   <g id="patch_4">
    <path d="M 39.30375 295.344 
L 563.46375 295.344 
" style="fill: none; stroke: #000000; stroke-width: 0.8; stroke-linejoin: miter; stroke-linecap: square"/>
   </g>
   <g id="line2d_126">
    <path d="M 71.714954 248.345213 
L 101.765077 276.141536 
L 131.8152 280.995658 
L 161.865322 281.261654 
L 191.915445 281.395646 
L 221.965568 281.432874 
L 252.015691 281.378608 
L 282.065814 281.665211 
L 312.115937 281.794975 
L 342.16606 281.879664 
L 372.216182 281.99132 
L 402.266305 282.093229 
L 432.316428 282.146412 
L 462.366551 282.18035 
L 539.638295 282.246545 
" clip-path="url(#p60c7dddbbb)" style="fill: none"/>
    <defs>
     <path id="m5a133c5bbe" d="M -0 3.181981 
L 3.181981 0 
L 0 -3.181981 
L -3.181981 -0 
z
" style="stroke: #000000; stroke-linejoin: miter"/>
    </defs>
    <g clip-path="url(#p60c7dddbbb)">
     <use xlink:href="#m5a133c5bbe" x="71.714954" y="248.345213" style="stroke: #000000; stroke-linejoin: miter"/>
     <use xlink:href="#m5a133c5bbe" x="101.765077" y="276.141536" style="stroke: #000000; stroke-linejoin: miter"/>
     <use xlink:href="#m5a133c5bbe" x="131.8152" y="280.995658" style="stroke: #000000; stroke-linejoin: miter"/>
     <use xlink:href="#m5a133c5bbe" x="161.865322" y="281.261654" style="stroke: #000000; stroke-linejoin: miter"/>
     <use xlink:href="#m5a133c5bbe" x="191.915445" y="281.395646" style="stroke: #000000; stroke-linejoin: miter"/>
     <use xlink:href="#m5a133c5bbe" x="221.965568" y="281.432874" style="stroke: #000000; stroke-linejoin: miter"/>
     <use xlink:href="#m5a133c5bbe" x="252.015691" y="281.378608" style="stroke: #000000; stroke-linejoin: miter"/>
     <use xlink:href="#m5a133c5bbe" x="282.065814" y="281.665211" style="stroke: #000000; stroke-linejoin: miter"/>
     <use xlink:href="#m5a133c5bbe" x="312.115937" y="281.794975" style="stroke: #000000; stroke-linejoin: miter"/>
     <use xlink:href="#m5a133c5bbe" x="342.16606" y="281.879664" style="stroke: #000000; stroke-linejoin: miter"/>
     <use xlink:href="#m5a133c5bbe" x="372.216182" y="281.99132" style="stroke: #000000; stroke-linejoin: miter"/>
     <use xlink:href="#m5a133c5bbe" x="402.266305" y="282.093229" style="stroke: #000000; stroke-linejoin: miter"/>
     <use xlink:href="#m5a133c5bbe" x="432.316428" y="282.146412" style="stroke: #000000; stroke-linejoin: miter"/>
     <use xlink:href="#m5a133c5bbe" x="462.366551" y="282.18035" style="stroke: #000000; stroke-linejoin: miter"/>
     <use xlink:href="#m5a133c5bbe" x="539.638295" y="282.246545" style="stroke: #000000; stroke-linejoin: miter"/>
    </g>
   </g>
   <g id="line2d_127">
    <path d="M 80.300703 213.833891 
L 118.936576 276.464649 
L 157.572448 280.009539 
L 196.20832 280.510687 
L 234.844192 280.773668 
L 273.480064 280.909549 
L 312.115937 281.025516 
L 350.751809 281.113313 
L 389.387681 281.213426 
L 428.023553 281.266604 
L 466.659426 281.324229 
L 505.295298 281.39771 
L 539.638295 281.427629 
" clip-path="url(#p60c7dddbbb)" style="fill: none"/>
    <defs>
     <path id="m585266b560" d="M 0 -2.25 
L -1.948557 -1.125 
L -1.948557 1.125 
L -0 2.25 
L 1.948557 1.125 
L 1.948557 -1.125 
z
" style="stroke: #cb6020; stroke-linejoin: miter"/>
    </defs>
    <g clip-path="url(#p60c7dddbbb)">
     <use xlink:href="#m585266b560" x="80.300703" y="213.833891" style="fill: #cb6020; stroke: #cb6020; stroke-linejoin: miter"/>
     <use xlink:href="#m585266b560" x="118.936576" y="276.464649" style="fill: #cb6020; stroke: #cb6020; stroke-linejoin: miter"/>
     <use xlink:href="#m585266b560" x="157.572448" y="280.009539" style="fill: #cb6020; stroke: #cb6020; stroke-linejoin: miter"/>
     <use xlink:href="#m585266b560" x="196.20832" y="280.510687" style="fill: #cb6020; stroke: #cb6020; stroke-linejoin: miter"/>
     <use xlink:href="#m585266b560" x="234.844192" y="280.773668" style="fill: #cb6020; stroke: #cb6020; stroke-linejoin: miter"/>
     <use xlink:href="#m585266b560" x="273.480064" y="280.909549" style="fill: #cb6020; stroke: #cb6020; stroke-linejoin: miter"/>
     <use xlink:href="#m585266b560" x="312.115937" y="281.025516" style="fill: #cb6020; stroke: #cb6020; stroke-linejoin: miter"/>
     <use xlink:href="#m585266b560" x="350.751809" y="281.113313" style="fill: #cb6020; stroke: #cb6020; stroke-linejoin: miter"/>
     <use xlink:href="#m585266b560" x="389.387681" y="281.213426" style="fill: #cb6020; stroke: #cb6020; stroke-linejoin: miter"/>
     <use xlink:href="#m585266b560" x="428.023553" y="281.266604" style="fill: #cb6020; stroke: #cb6020; stroke-linejoin: miter"/>
     <use xlink:href="#m585266b560" x="466.659426" y="281.324229" style="fill: #cb6020; stroke: #cb6020; stroke-linejoin: miter"/>
     <use xlink:href="#m585266b560" x="505.295298" y="281.39771" style="fill: #cb6020; stroke: #cb6020; stroke-linejoin: miter"/>
     <use xlink:href="#m585266b560" x="539.638295" y="281.427629" style="fill: #cb6020; stroke: #cb6020; stroke-linejoin: miter"/>
    </g>
   </g>
   <g id="line2d_128">
    <path d="M 88.886453 196.358516 
L 136.108074 237.31119 
L 183.329696 239.087689 
L 230.551318 239.107166 
L 277.772939 239.106996 
L 324.994561 239.087532 
L 372.216182 239.112264 
L 419.437804 239.126817 
L 466.659426 239.109877 
L 513.881047 239.119028 
L 539.638295 239.125098 
" clip-path="url(#p60c7dddbbb)" style="fill: none"/>
    <defs>
     <path id="m7d6deeb069" d="M -2.25 2.25 
L 2.25 2.25 
L 2.25 -2.25 
L -2.25 -2.25 
z
" style="stroke: #a50f15; stroke-linejoin: miter"/>
    </defs>
    <g clip-path="url(#p60c7dddbbb)">
     <use xlink:href="#m7d6deeb069" x="88.886453" y="196.358516" style="fill: #a50f15; stroke: #a50f15; stroke-linejoin: miter"/>
     <use xlink:href="#m7d6deeb069" x="136.108074" y="237.31119" style="fill: #a50f15; stroke: #a50f15; stroke-linejoin: miter"/>
     <use xlink:href="#m7d6deeb069" x="183.329696" y="239.087689" style="fill: #a50f15; stroke: #a50f15; stroke-linejoin: miter"/>
     <use xlink:href="#m7d6deeb069" x="230.551318" y="239.107166" style="fill: #a50f15; stroke: #a50f15; stroke-linejoin: miter"/>
     <use xlink:href="#m7d6deeb069" x="277.772939" y="239.106996" style="fill: #a50f15; stroke: #a50f15; stroke-linejoin: miter"/>
     <use xlink:href="#m7d6deeb069" x="324.994561" y="239.087532" style="fill: #a50f15; stroke: #a50f15; stroke-linejoin: miter"/>
     <use xlink:href="#m7d6deeb069" x="372.216182" y="239.112264" style="fill: #a50f15; stroke: #a50f15; stroke-linejoin: miter"/>
     <use xlink:href="#m7d6deeb069" x="419.437804" y="239.126817" style="fill: #a50f15; stroke: #a50f15; stroke-linejoin: miter"/>
     <use xlink:href="#m7d6deeb069" x="466.659426" y="239.109877" style="fill: #a50f15; stroke: #a50f15; stroke-linejoin: miter"/>
     <use xlink:href="#m7d6deeb069" x="513.881047" y="239.119028" style="fill: #a50f15; stroke: #a50f15; stroke-linejoin: miter"/>
     <use xlink:href="#m7d6deeb069" x="539.638295" y="239.125098" style="fill: #a50f15; stroke: #a50f15; stroke-linejoin: miter"/>
    </g>
   </g>
   <g id="line2d_129">
    <path d="M 97.472202 31.25126 
L 153.279573 173.965204 
L 209.086944 209.217312 
L 264.894315 209.228598 
L 320.701686 209.248742 
L 376.509057 209.260862 
L 432.316428 209.266484 
L 488.123799 209.279892 
L 539.638295 209.280399 
" clip-path="url(#p60c7dddbbb)" style="fill: none"/>
    <defs>
     <path id="m10b95dec10" d="M -1.25 2.5 
L 0 1.25 
L 1.25 2.5 
L 2.5 1.25 
L 1.25 0 
L 2.5 -1.25 
L 1.25 -2.5 
L 0 -1.25 
L -1.25 -2.5 
L -2.5 -1.25 
L -1.25 0 
L -2.5 1.25 
z
" style="stroke: #2171b5; stroke-linejoin: miter"/>
    </defs>
    <g clip-path="url(#p60c7dddbbb)">
     <use xlink:href="#m10b95dec10" x="97.472202" y="31.25126" style="fill: #2171b5; stroke: #2171b5; stroke-linejoin: miter"/>
     <use xlink:href="#m10b95dec10" x="153.279573" y="173.965204" style="fill: #2171b5; stroke: #2171b5; stroke-linejoin: miter"/>
     <use xlink:href="#m10b95dec10" x="209.086944" y="209.217312" style="fill: #2171b5; stroke: #2171b5; stroke-linejoin: miter"/>
     <use xlink:href="#m10b95dec10" x="264.894315" y="209.228598" style="fill: #2171b5; stroke: #2171b5; stroke-linejoin: miter"/>
     <use xlink:href="#m10b95dec10" x="320.701686" y="209.248742" style="fill: #2171b5; stroke: #2171b5; stroke-linejoin: miter"/>
     <use xlink:href="#m10b95dec10" x="376.509057" y="209.260862" style="fill: #2171b5; stroke: #2171b5; stroke-linejoin: miter"/>
     <use xlink:href="#m10b95dec10" x="432.316428" y="209.266484" style="fill: #2171b5; stroke: #2171b5; stroke-linejoin: miter"/>
     <use xlink:href="#m10b95dec10" x="488.123799" y="209.279892" style="fill: #2171b5; stroke: #2171b5; stroke-linejoin: miter"/>
     <use xlink:href="#m10b95dec10" x="539.638295" y="209.280399" style="fill: #2171b5; stroke: #2171b5; stroke-linejoin: miter"/>
    </g>
   </g>
   <g id="line2d_130">
    <path d="M 76.007829 20.472571 
L 110.350826 48.952983 
L 144.693824 136.125509 
L 179.036821 203.184995 
L 213.379819 209.249809 
L 247.722816 209.261679 
L 282.065814 209.220023 
L 316.408811 209.270574 
L 350.751809 209.257164 
L 385.094807 209.254994 
L 419.437804 209.271777 
L 453.780802 209.273472 
L 488.123799 209.279947 
L 522.466797 209.281323 
L 539.638295 209.28008 
" clip-path="url(#p60c7dddbbb)" style="fill: none"/>
    <defs>
     <path id="me9bd7813fe" d="M 0 2.25 
C 0.596707 2.25 1.169055 2.012926 1.59099 1.59099 
C 2.012926 1.169055 2.25 0.596707 2.25 0 
C 2.25 -0.596707 2.012926 -1.169055 1.59099 -1.59099 
C 1.169055 -2.012926 0.596707 -2.25 0 -2.25 
C -0.596707 -2.25 -1.169055 -2.012926 -1.59099 -1.59099 
C -2.012926 -1.169055 -2.25 -0.596707 -2.25 0 
C -2.25 0.596707 -2.012926 1.169055 -1.59099 1.59099 
C -1.169055 2.012926 -0.596707 2.25 0 2.25 
z
" style="stroke: #08306b"/>
    </defs>
    <g clip-path="url(#p60c7dddbbb)">
     <use xlink:href="#me9bd7813fe" x="76.007829" y="20.472571" style="fill: #08306b; stroke: #08306b"/>
     <use xlink:href="#me9bd7813fe" x="110.350826" y="48.952983" style="fill: #08306b; stroke: #08306b"/>
     <use xlink:href="#me9bd7813fe" x="144.693824" y="136.125509" style="fill: #08306b; stroke: #08306b"/>
     <use xlink:href="#me9bd7813fe" x="179.036821" y="203.184995" style="fill: #08306b; stroke: #08306b"/>
     <use xlink:href="#me9bd7813fe" x="213.379819" y="209.249809" style="fill: #08306b; stroke: #08306b"/>
     <use xlink:href="#me9bd7813fe" x="247.722816" y="209.261679" style="fill: #08306b; stroke: #08306b"/>
     <use xlink:href="#me9bd7813fe" x="282.065814" y="209.220023" style="fill: #08306b; stroke: #08306b"/>
     <use xlink:href="#me9bd7813fe" x="316.408811" y="209.270574" style="fill: #08306b; stroke: #08306b"/>
     <use xlink:href="#me9bd7813fe" x="350.751809" y="209.257164" style="fill: #08306b; stroke: #08306b"/>
     <use xlink:href="#me9bd7813fe" x="385.094807" y="209.254994" style="fill: #08306b; stroke: #08306b"/>
     <use xlink:href="#me9bd7813fe" x="419.437804" y="209.271777" style="fill: #08306b; stroke: #08306b"/>
     <use xlink:href="#me9bd7813fe" x="453.780802" y="209.273472" style="fill: #08306b; stroke: #08306b"/>
     <use xlink:href="#me9bd7813fe" x="488.123799" y="209.279947" style="fill: #08306b; stroke: #08306b"/>
     <use xlink:href="#me9bd7813fe" x="522.466797" y="209.281323" style="fill: #08306b; stroke: #08306b"/>
     <use xlink:href="#me9bd7813fe" x="539.638295" y="209.28008" style="fill: #08306b; stroke: #08306b"/>
    </g>
   </g>
   <g id="line2d_131">
    <path d="M 84.593578 108.887867 
L 127.522325 137.07701 
L 170.451072 177.771203 
L 213.379819 196.224411 
L 256.308566 196.240419 
L 299.237313 196.244651 
L 342.16606 196.246762 
L 385.094807 196.244989 
L 428.023553 196.258808 
L 470.9523 196.256511 
L 513.881047 196.258542 
L 539.638295 196.258639 
" clip-path="url(#p60c7dddbbb)" style="fill: none"/>
    <defs>
     <path id="m270c7bceaf" d="M -0.833333 2.5 
L 0.833333 2.5 
L 0.833333 0.833333 
L 2.5 0.833333 
L 2.5 -0.833333 
L 0.833333 -0.833333 
L 0.833333 -2.5 
L -0.833333 -2.5 
L -0.833333 -0.833333 
L -2.5 -0.833333 
L -2.5 0.833333 
L -0.833333 0.833333 
z
" style="stroke: #26c6da; stroke-linejoin: miter"/>
    </defs>
    <g clip-path="url(#p60c7dddbbb)">
     <use xlink:href="#m270c7bceaf" x="84.593578" y="108.887867" style="fill: #26c6da; stroke: #26c6da; stroke-linejoin: miter"/>
     <use xlink:href="#m270c7bceaf" x="127.522325" y="137.07701" style="fill: #26c6da; stroke: #26c6da; stroke-linejoin: miter"/>
     <use xlink:href="#m270c7bceaf" x="170.451072" y="177.771203" style="fill: #26c6da; stroke: #26c6da; stroke-linejoin: miter"/>
     <use xlink:href="#m270c7bceaf" x="213.379819" y="196.224411" style="fill: #26c6da; stroke: #26c6da; stroke-linejoin: miter"/>
     <use xlink:href="#m270c7bceaf" x="256.308566" y="196.240419" style="fill: #26c6da; stroke: #26c6da; stroke-linejoin: miter"/>
     <use xlink:href="#m270c7bceaf" x="299.237313" y="196.244651" style="fill: #26c6da; stroke: #26c6da; stroke-linejoin: miter"/>
     <use xlink:href="#m270c7bceaf" x="342.16606" y="196.246762" style="fill: #26c6da; stroke: #26c6da; stroke-linejoin: miter"/>
     <use xlink:href="#m270c7bceaf" x="385.094807" y="196.244989" style="fill: #26c6da; stroke: #26c6da; stroke-linejoin: miter"/>
     <use xlink:href="#m270c7bceaf" x="428.023553" y="196.258808" style="fill: #26c6da; stroke: #26c6da; stroke-linejoin: miter"/>
     <use xlink:href="#m270c7bceaf" x="470.9523" y="196.256511" style="fill: #26c6da; stroke: #26c6da; stroke-linejoin: miter"/>
     <use xlink:href="#m270c7bceaf" x="513.881047" y="196.258542" style="fill: #26c6da; stroke: #26c6da; stroke-linejoin: miter"/>
     <use xlink:href="#m270c7bceaf" x="539.638295" y="196.258639" style="fill: #26c6da; stroke: #26c6da; stroke-linejoin: miter"/>
    </g>
   </g>
   <g id="line2d_132">
    <path d="M 93.179327 111.381098 
L 144.693824 151.399858 
L 196.20832 195.891884 
L 247.722816 196.244635 
L 299.237313 196.247674 
L 350.751809 196.247796 
L 402.266305 196.254053 
L 453.780802 196.259589 
L 505.295298 196.257426 
L 539.638295 196.258565 
" clip-path="url(#p60c7dddbbb)" style="fill: none"/>
    <defs>
     <path id="m097cae8d41" d="M 0 -2.25 
L -2.25 2.25 
L 2.25 2.25 
z
" style="stroke: #0e6655; stroke-linejoin: miter"/>
    </defs>
    <g clip-path="url(#p60c7dddbbb)">
     <use xlink:href="#m097cae8d41" x="93.179327" y="111.381098" style="fill: #0e6655; stroke: #0e6655; stroke-linejoin: miter"/>
     <use xlink:href="#m097cae8d41" x="144.693824" y="151.399858" style="fill: #0e6655; stroke: #0e6655; stroke-linejoin: miter"/>
     <use xlink:href="#m097cae8d41" x="196.20832" y="195.891884" style="fill: #0e6655; stroke: #0e6655; stroke-linejoin: miter"/>
     <use xlink:href="#m097cae8d41" x="247.722816" y="196.244635" style="fill: #0e6655; stroke: #0e6655; stroke-linejoin: miter"/>
     <use xlink:href="#m097cae8d41" x="299.237313" y="196.247674" style="fill: #0e6655; stroke: #0e6655; stroke-linejoin: miter"/>
     <use xlink:href="#m097cae8d41" x="350.751809" y="196.247796" style="fill: #0e6655; stroke: #0e6655; stroke-linejoin: miter"/>
     <use xlink:href="#m097cae8d41" x="402.266305" y="196.254053" style="fill: #0e6655; stroke: #0e6655; stroke-linejoin: miter"/>
     <use xlink:href="#m097cae8d41" x="453.780802" y="196.259589" style="fill: #0e6655; stroke: #0e6655; stroke-linejoin: miter"/>
     <use xlink:href="#m097cae8d41" x="505.295298" y="196.257426" style="fill: #0e6655; stroke: #0e6655; stroke-linejoin: miter"/>
     <use xlink:href="#m097cae8d41" x="539.638295" y="196.258565" style="fill: #0e6655; stroke: #0e6655; stroke-linejoin: miter"/>
    </g>
   </g>
   <g id="legend_1">
    <g id="patch_5">
     <path d="M 477.980625 86.901562 
L 558.56375 86.901562 
Q 559.96375 86.901562 559.96375 85.501562 
L 559.96375 12.1 
Q 559.96375 10.7 558.56375 10.7 
L 477.980625 10.7 
Q 476.580625 10.7 476.580625 12.1 
L 476.580625 85.501562 
Q 476.580625 86.901562 477.980625 86.901562 
z
" style="fill: #ffffff; opacity: 0.85; stroke: #cccccc; stroke-linejoin: miter"/>
    </g>
    <g id="line2d_133">
     <path d="M 479.380625 16.648906 
L 487.780625 16.648906 
L 496.180625 16.648906 
" style="fill: none"/>
     <g>
      <use xlink:href="#m5a133c5bbe" x="487.780625" y="16.648906" style="stroke: #000000; stroke-linejoin: miter"/>
     </g>
    </g>
    <g id="text_17">
     <!-- `real_rich_8` -->
     <g transform="translate(501.780625 19.098906) scale(0.07 -0.07)">
      <defs>
       <path id="DejaVuSans-60" d="M 1147 5119 
L 2028 3950 
L 1550 3950 
L 531 5119 
L 1147 5119 
z
" transform="scale(0.015625)"/>
       <path id="DejaVuSans-5f" d="M 3263 -1063 
L 3263 -1509 
L -63 -1509 
L -63 -1063 
L 3263 -1063 
z
" transform="scale(0.015625)"/>
       <path id="DejaVuSans-63" d="M 3122 3366 
L 3122 2828 
Q 2878 2963 2633 3030 
Q 2388 3097 2138 3097 
Q 1578 3097 1268 2742 
Q 959 2388 959 1747 
Q 959 1106 1268 751 
Q 1578 397 2138 397 
Q 2388 397 2633 464 
Q 2878 531 3122 666 
L 3122 134 
Q 2881 22 2623 -34 
Q 2366 -91 2075 -91 
Q 1284 -91 818 406 
Q 353 903 353 1747 
Q 353 2603 823 3093 
Q 1294 3584 2113 3584 
Q 2378 3584 2631 3529 
Q 2884 3475 3122 3366 
z
" transform="scale(0.015625)"/>
       <path id="DejaVuSans-68" d="M 3513 2113 
L 3513 0 
L 2938 0 
L 2938 2094 
Q 2938 2591 2744 2837 
Q 2550 3084 2163 3084 
Q 1697 3084 1428 2787 
Q 1159 2491 1159 1978 
L 1159 0 
L 581 0 
L 581 4863 
L 1159 4863 
L 1159 2956 
Q 1366 3272 1645 3428 
Q 1925 3584 2291 3584 
Q 2894 3584 3203 3211 
Q 3513 2838 3513 2113 
z
" transform="scale(0.015625)"/>
      </defs>
      <use xlink:href="#DejaVuSans-60"/>
      <use xlink:href="#DejaVuSans-72" transform="translate(50 0)"/>
      <use xlink:href="#DejaVuSans-65" transform="translate(88.863281 0)"/>
      <use xlink:href="#DejaVuSans-61" transform="translate(150.386719 0)"/>
      <use xlink:href="#DejaVuSans-6c" transform="translate(211.666016 0)"/>
      <use xlink:href="#DejaVuSans-5f" transform="translate(239.449219 0)"/>
      <use xlink:href="#DejaVuSans-72" transform="translate(289.449219 0)"/>
      <use xlink:href="#DejaVuSans-69" transform="translate(330.5625 0)"/>
      <use xlink:href="#DejaVuSans-63" transform="translate(358.345703 0)"/>
      <use xlink:href="#DejaVuSans-68" transform="translate(413.326172 0)"/>
      <use xlink:href="#DejaVuSans-5f" transform="translate(476.705078 0)"/>
      <use xlink:href="#DejaVuSans-38" transform="translate(526.705078 0)"/>
      <use xlink:href="#DejaVuSans-60" transform="translate(590.328125 0)"/>
     </g>
    </g>
    <g id="line2d_134">
     <path d="M 479.380625 27.398281 
L 487.780625 27.398281 
L 496.180625 27.398281 
" style="fill: none"/>
     <g>
      <use xlink:href="#m585266b560" x="487.780625" y="27.398281" style="fill: #cb6020; stroke: #cb6020; stroke-linejoin: miter"/>
     </g>
    </g>
    <g id="text_18">
     <!-- `rich_8` -->
     <g transform="translate(501.780625 29.848281) scale(0.07 -0.07)">
      <use xlink:href="#DejaVuSans-60"/>
      <use xlink:href="#DejaVuSans-72" transform="translate(50 0)"/>
      <use xlink:href="#DejaVuSans-69" transform="translate(91.113281 0)"/>
      <use xlink:href="#DejaVuSans-63" transform="translate(118.896484 0)"/>
      <use xlink:href="#DejaVuSans-68" transform="translate(173.876953 0)"/>
      <use xlink:href="#DejaVuSans-5f" transform="translate(237.255859 0)"/>
      <use xlink:href="#DejaVuSans-38" transform="translate(287.255859 0)"/>
      <use xlink:href="#DejaVuSans-60" transform="translate(350.878906 0)"/>
     </g>
    </g>
    <g id="line2d_135">
     <path d="M 479.380625 38.147656 
L 487.780625 38.147656 
L 496.180625 38.147656 
" style="fill: none"/>
     <g>
      <use xlink:href="#m7d6deeb069" x="487.780625" y="38.147656" style="fill: #a50f15; stroke: #a50f15; stroke-linejoin: miter"/>
     </g>
    </g>
    <g id="text_19">
     <!-- `blocked_8` -->
     <g transform="translate(501.780625 40.597656) scale(0.07 -0.07)">
      <defs>
       <path id="DejaVuSans-6b" d="M 581 4863 
L 1159 4863 
L 1159 1991 
L 2875 3500 
L 3609 3500 
L 1753 1863 
L 3688 0 
L 2938 0 
L 1159 1709 
L 1159 0 
L 581 0 
L 581 4863 
z
" transform="scale(0.015625)"/>
       <path id="DejaVuSans-64" d="M 2906 2969 
L 2906 4863 
L 3481 4863 
L 3481 0 
L 2906 0 
L 2906 525 
Q 2725 213 2448 61 
Q 2172 -91 1784 -91 
Q 1150 -91 751 415 
Q 353 922 353 1747 
Q 353 2572 751 3078 
Q 1150 3584 1784 3584 
Q 2172 3584 2448 3432 
Q 2725 3281 2906 2969 
z
M 947 1747 
Q 947 1113 1208 752 
Q 1469 391 1925 391 
Q 2381 391 2643 752 
Q 2906 1113 2906 1747 
Q 2906 2381 2643 2742 
Q 2381 3103 1925 3103 
Q 1469 3103 1208 2742 
Q 947 2381 947 1747 
z
" transform="scale(0.015625)"/>
      </defs>
      <use xlink:href="#DejaVuSans-60"/>
      <use xlink:href="#DejaVuSans-62" transform="translate(50 0)"/>
      <use xlink:href="#DejaVuSans-6c" transform="translate(113.476562 0)"/>
      <use xlink:href="#DejaVuSans-6f" transform="translate(141.259766 0)"/>
      <use xlink:href="#DejaVuSans-63" transform="translate(202.441406 0)"/>
      <use xlink:href="#DejaVuSans-6b" transform="translate(257.421875 0)"/>
      <use xlink:href="#DejaVuSans-65" transform="translate(311.707031 0)"/>
      <use xlink:href="#DejaVuSans-64" transform="translate(373.230469 0)"/>
      <use xlink:href="#DejaVuSans-5f" transform="translate(436.707031 0)"/>
      <use xlink:href="#DejaVuSans-38" transform="translate(486.707031 0)"/>
      <use xlink:href="#DejaVuSans-60" transform="translate(550.330078 0)"/>
     </g>
    </g>
    <g id="line2d_136">
     <path d="M 479.380625 48.897031 
L 487.780625 48.897031 
L 496.180625 48.897031 
" style="fill: none"/>
     <g>
      <use xlink:href="#m10b95dec10" x="487.780625" y="48.897031" style="fill: #2171b5; stroke: #2171b5; stroke-linejoin: miter"/>
     </g>
    </g>
    <g id="text_20">
     <!-- `entangled_qft` -->
     <g transform="translate(501.780625 51.347031) scale(0.07 -0.07)">
      <defs>
       <path id="DejaVuSans-71" d="M 947 1747 
Q 947 1113 1208 752 
Q 1469 391 1925 391 
Q 2381 391 2643 752 
Q 2906 1113 2906 1747 
Q 2906 2381 2643 2742 
Q 2381 3103 1925 3103 
Q 1469 3103 1208 2742 
Q 947 2381 947 1747 
z
M 2906 525 
Q 2725 213 2448 61 
Q 2172 -91 1784 -91 
Q 1150 -91 751 415 
Q 353 922 353 1747 
Q 353 2572 751 3078 
Q 1150 3584 1784 3584 
Q 2172 3584 2448 3432 
Q 2725 3281 2906 2969 
L 2906 3500 
L 3481 3500 
L 3481 -1331 
L 2906 -1331 
L 2906 525 
z
" transform="scale(0.015625)"/>
       <path id="DejaVuSans-66" d="M 2375 4863 
L 2375 4384 
L 1825 4384 
Q 1516 4384 1395 4259 
Q 1275 4134 1275 3809 
L 1275 3500 
L 2222 3500 
L 2222 3053 
L 1275 3053 
L 1275 0 
L 697 0 
L 697 3053 
L 147 3053 
L 147 3500 
L 697 3500 
L 697 3744 
Q 697 4328 969 4595 
Q 1241 4863 1831 4863 
L 2375 4863 
z
" transform="scale(0.015625)"/>
      </defs>
      <use xlink:href="#DejaVuSans-60"/>
      <use xlink:href="#DejaVuSans-65" transform="translate(50 0)"/>
      <use xlink:href="#DejaVuSans-6e" transform="translate(111.523438 0)"/>
      <use xlink:href="#DejaVuSans-74" transform="translate(174.902344 0)"/>
      <use xlink:href="#DejaVuSans-61" transform="translate(214.111328 0)"/>
      <use xlink:href="#DejaVuSans-6e" transform="translate(275.390625 0)"/>
      <use xlink:href="#DejaVuSans-67" transform="translate(338.769531 0)"/>
      <use xlink:href="#DejaVuSans-6c" transform="translate(402.246094 0)"/>
      <use xlink:href="#DejaVuSans-65" transform="translate(430.029297 0)"/>
      <use xlink:href="#DejaVuSans-64" transform="translate(491.552734 0)"/>
      <use xlink:href="#DejaVuSans-5f" transform="translate(555.029297 0)"/>
      <use xlink:href="#DejaVuSans-71" transform="translate(605.029297 0)"/>
      <use xlink:href="#DejaVuSans-66" transform="translate(668.505859 0)"/>
      <use xlink:href="#DejaVuSans-74" transform="translate(701.960938 0)"/>
      <use xlink:href="#DejaVuSans-60" transform="translate(741.169922 0)"/>
     </g>
    </g>
    <g id="line2d_137">
     <path d="M 479.380625 59.646406 
L 487.780625 59.646406 
L 496.180625 59.646406 
" style="fill: none"/>
     <g>
      <use xlink:href="#me9bd7813fe" x="487.780625" y="59.646406" style="fill: #08306b; stroke: #08306b"/>
     </g>
    </g>
    <g id="text_21">
     <!-- `qft` -->
     <g transform="translate(501.780625 62.096406) scale(0.07 -0.07)">
      <use xlink:href="#DejaVuSans-60"/>
      <use xlink:href="#DejaVuSans-71" transform="translate(50 0)"/>
      <use xlink:href="#DejaVuSans-66" transform="translate(113.476562 0)"/>
      <use xlink:href="#DejaVuSans-74" transform="translate(146.931641 0)"/>
      <use xlink:href="#DejaVuSans-60" transform="translate(186.140625 0)"/>
     </g>
    </g>
    <g id="line2d_138">
     <path d="M 479.380625 69.921094 
L 487.780625 69.921094 
L 496.180625 69.921094 
" style="fill: none"/>
     <g>
      <use xlink:href="#m270c7bceaf" x="487.780625" y="69.921094" style="fill: #26c6da; stroke: #26c6da; stroke-linejoin: miter"/>
     </g>
    </g>
    <g id="text_22">
     <!-- `mera` -->
     <g transform="translate(501.780625 72.371094) scale(0.07 -0.07)">
      <defs>
       <path id="DejaVuSans-6d" d="M 3328 2828 
Q 3544 3216 3844 3400 
Q 4144 3584 4550 3584 
Q 5097 3584 5394 3201 
Q 5691 2819 5691 2113 
L 5691 0 
L 5113 0 
L 5113 2094 
Q 5113 2597 4934 2840 
Q 4756 3084 4391 3084 
Q 3944 3084 3684 2787 
Q 3425 2491 3425 1978 
L 3425 0 
L 2847 0 
L 2847 2094 
Q 2847 2600 2669 2842 
Q 2491 3084 2119 3084 
Q 1678 3084 1418 2786 
Q 1159 2488 1159 1978 
L 1159 0 
L 581 0 
L 581 3500 
L 1159 3500 
L 1159 2956 
Q 1356 3278 1631 3431 
Q 1906 3584 2284 3584 
Q 2666 3584 2933 3390 
Q 3200 3197 3328 2828 
z
" transform="scale(0.015625)"/>
      </defs>
      <use xlink:href="#DejaVuSans-60"/>
      <use xlink:href="#DejaVuSans-6d" transform="translate(50 0)"/>
      <use xlink:href="#DejaVuSans-65" transform="translate(147.412109 0)"/>
      <use xlink:href="#DejaVuSans-72" transform="translate(208.935547 0)"/>
      <use xlink:href="#DejaVuSans-61" transform="translate(250.048828 0)"/>
      <use xlink:href="#DejaVuSans-60" transform="translate(311.328125 0)"/>
     </g>
    </g>
    <g id="line2d_139">
     <path d="M 479.380625 80.195781 
L 487.780625 80.195781 
L 496.180625 80.195781 
" style="fill: none"/>
     <g>
      <use xlink:href="#m097cae8d41" x="487.780625" y="80.195781" style="fill: #0e6655; stroke: #0e6655; stroke-linejoin: miter"/>
     </g>
    </g>
    <g id="text_23">
     <!-- `tebd` -->
     <g transform="translate(501.780625 82.645781) scale(0.07 -0.07)">
      <use xlink:href="#DejaVuSans-60"/>
      <use xlink:href="#DejaVuSans-74" transform="translate(50 0)"/>
      <use xlink:href="#DejaVuSans-65" transform="translate(89.208984 0)"/>
      <use xlink:href="#DejaVuSans-62" transform="translate(150.732422 0)"/>
      <use xlink:href="#DejaVuSans-64" transform="translate(214.208984 0)"/>
      <use xlink:href="#DejaVuSans-60" transform="translate(277.685547 0)"/>
     </g>
    </g>
   </g>
  </g>
 </g>
 <defs>
  <clipPath id="p60c7dddbbb">
   <rect x="39.30375" y="7.2" width="524.16" height="288.144"/>
  </clipPath>
 </defs>
</svg>
