<?xml version="1.0" encoding="utf-8" standalone="no"?>
<!DOCTYPE svg PUBLIC "-//W3C//DTD SVG 1.1//EN"
  "http://www.w3.org/Graphics/SVG/1.1/DTD/svg11.dtd">
<svg xmlns:xlink="http://www.w3.org/1999/xlink" width="232.314028pt" height="352.555781pt" viewBox="0 0 232.314028 352.555781" xmlns="http://www.w3.org/2000/svg" version="1.1">
 <metadata>
  <rdf:RDF xmlns:dc="http://purl.org/dc/elements/1.1/" xmlns:cc="http://creativecommons.org/ns#" xmlns:rdf="http://www.w3.org/1999/02/22-rdf-syntax-ns#">
   <cc:Work>
    <dc:type rdf:resource="http://purl.org/dc/dcmitype/StillImage"/>
    <dc:date>2026-05-27T12:50:56.771217</dc:date>
    <dc:format>image/svg+xml</dc:format>
    <dc:creator>
     <cc:Agent>
      <dc:title>Matplotlib v3.10.9, https://matplotlib.org/</dc:title>
     </cc:Agent>
    </dc:creator>
   </cc:Work>
  </rdf:RDF>
 </metadata>
 <defs>
  <style type="text/css">*{stroke-linejoin: round; stroke-linecap: butt}</style>
 </defs>
 <g id="figure_1">
  <g id="patch_1">
   <path d="M 0 352.555781 
L 232.314028 352.555781 
L 232.314028 0 
L 0 0 
z
" style="fill: #ffffff"/>
  </g>
  <g id="axes_1">
   <g id="patch_2">
    <path d="M 44.870906 161.835554 
L 221.078864 161.835554 
L 221.078864 20.038594 
L 44.870906 20.038594 
z
" style="fill: #ffffff"/>
   </g>
   <g id="matplotlib.axis_1">
    <g id="xtick_1">
     <g id="line2d_1">
      <path d="M 52.815002 161.835554 
L 52.815002 20.038594 
" clip-path="url(#p4c1e4ace29)" style="fill: none; stroke: #b0b0b0; stroke-opacity: 0.25; stroke-width: 0.5; stroke-linecap: square"/>
     </g>
     <g id="line2d_2">
      <defs>
       <path id="me74df7a845" d="M 0 0 
L 0 3.5 
" style="stroke: #000000; stroke-width: 0.8"/>
      </defs>
      <g>
       <use xlink:href="#me74df7a845" x="52.815002" y="161.835554" style="stroke: #000000; stroke-width: 0.8"/>
      </g>
     </g>
    </g>
    <g id="xtick_2">
     <g id="line2d_3">
      <path d="M 85.493307 161.835554 
L 85.493307 20.038594 
" clip-path="url(#p4c1e4ace29)" style="fill: none; stroke: #b0b0b0; stroke-opacity: 0.25; stroke-width: 0.5; stroke-linecap: square"/>
     </g>
     <g id="line2d_4">
      <g>
       <use xlink:href="#me74df7a845" x="85.493307" y="161.835554" style="stroke: #000000; stroke-width: 0.8"/>
      </g>
     </g>
    </g>
    <g id="xtick_3">
     <g id="line2d_5">
      <path d="M 118.171613 161.835554 
L 118.171613 20.038594 
" clip-path="url(#p4c1e4ace29)" style="fill: none; stroke: #b0b0b0; stroke-opacity: 0.25; stroke-width: 0.5; stroke-linecap: square"/>
     </g>
     <g id="line2d_6">
      <g>
       <use xlink:href="#me74df7a845" x="118.171613" y="161.835554" style="stroke: #000000; stroke-width: 0.8"/>
      </g>
     </g>
    </g>
    <g id="xtick_4">
     <g id="line2d_7">
      <path d="M 150.849918 161.835554 
L 150.849918 20.038594 
" clip-path="url(#p4c1e4ace29)" style="fill: none; stroke: #b0b0b0; stroke-opacity: 0.25; stroke-width: 0.5; stroke-linecap: square"/>
     </g>
     <g id="line2d_8">
      <g>
       <use xlink:href="#me74df7a845" x="150.849918" y="161.835554" style="stroke: #000000; stroke-width: 0.8"/>
      </g>
     </g>
    </g>
    <g id="xtick_5">
     <g id="line2d_9">
      <path d="M 183.528223 161.835554 
L 183.528223 20.038594 
" clip-path="url(#p4c1e4ace29)" style="fill: none; stroke: #b0b0b0; stroke-opacity: 0.25; stroke-width: 0.5; stroke-linecap: square"/>
     </g>
     <g id="line2d_10">
      <g>
       <use xlink:href="#me74df7a845" x="183.528223" y="161.835554" style="stroke: #000000; stroke-width: 0.8"/>
      </g>
     </g>
    </g>
    <g id="xtick_6">
     <g id="line2d_11">
      <path d="M 216.206528 161.835554 
L 216.206528 20.038594 
" clip-path="url(#p4c1e4ace29)" style="fill: none; stroke: #b0b0b0; stroke-opacity: 0.25; stroke-width: 0.5; stroke-linecap: square"/>
     </g>
     <g id="line2d_12">
      <g>
       <use xlink:href="#me74df7a845" x="216.206528" y="161.835554" style="stroke: #000000; stroke-width: 0.8"/>
      </g>
     </g>
    </g>
   </g>
   <g id="matplotlib.axis_2">
    <g id="ytick_1">
     <g id="line2d_13">
      <path d="M 44.870906 160.342862 
L 221.078864 160.342862 
" clip-path="url(#p4c1e4ace29)" style="fill: none; stroke: #b0b0b0; stroke-opacity: 0.25; stroke-width: 0.5; stroke-linecap: square"/>
     </g>
     <g id="line2d_14">
      <defs>
       <path id="m43f2f73b7d" d="M 0 0 
L -3.5 0 
" style="stroke: #000000; stroke-width: 0.8"/>
      </defs>
      <g>
       <use xlink:href="#m43f2f73b7d" x="44.870906" y="160.342862" style="stroke: #000000; stroke-width: 0.8"/>
      </g>
     </g>
     <g id="text_1">
      <!-- 6 -->
      <g transform="translate(33.417156 163.002315) scale(0.07 -0.07)">
       <defs>
        <path id="DejaVuSans-36" d="M 2113 2584 
Q 1688 2584 1439 2293 
Q 1191 2003 1191 1497 
Q 1191 994 1439 701 
Q 1688 409 2113 409 
Q 2538 409 2786 701 
Q 3034 994 3034 1497 
Q 3034 2003 2786 2293 
Q 2538 2584 2113 2584 
z
M 3366 4563 
L 3366 3988 
Q 3128 4100 2886 4159 
Q 2644 4219 2406 4219 
Q 1781 4219 1451 3797 
Q 1122 3375 1075 2522 
Q 1259 2794 1537 2939 
Q 1816 3084 2150 3084 
Q 2853 3084 3261 2657 
Q 3669 2231 3669 1497 
Q 3669 778 3244 343 
Q 2819 -91 2113 -91 
Q 1303 -91 875 529 
Q 447 1150 447 2328 
Q 447 3434 972 4092 
Q 1497 4750 2381 4750 
Q 2619 4750 2861 4703 
Q 3103 4656 3366 4563 
z
" transform="scale(0.015625)"/>
       </defs>
       <use xlink:href="#DejaVuSans-36"/>
      </g>
     </g>
    </g>
    <g id="ytick_2">
     <g id="line2d_15">
      <path d="M 44.870906 137.889562 
L 221.078864 137.889562 
" clip-path="url(#p4c1e4ace29)" style="fill: none; stroke: #b0b0b0; stroke-opacity: 0.25; stroke-width: 0.5; stroke-linecap: square"/>
     </g>
     <g id="line2d_16">
      <g>
       <use xlink:href="#m43f2f73b7d" x="44.870906" y="137.889562" style="stroke: #000000; stroke-width: 0.8"/>
      </g>
     </g>
     <g id="text_2">
      <!-- 8 -->
      <g transform="translate(33.417156 140.549015) scale(0.07 -0.07)">
       <defs>
        <path id="DejaVuSans-38" d="M 2034 2216 
Q 1584 2216 1326 1975 
Q 1069 1734 1069 1313 
Q 1069 891 1326 650 
Q 1584 409 2034 409 
Q 2484 409 2743 651 
Q 3003 894 3003 1313 
Q 3003 1734 2745 1975 
Q 2488 2216 2034 2216 
z
M 1403 2484 
Q 997 2584 770 2862 
Q 544 3141 544 3541 
Q 544 4100 942 4425 
Q 1341 4750 2034 4750 
Q 2731 4750 3128 4425 
Q 3525 4100 3525 3541 
Q 3525 3141 3298 2862 
Q 3072 2584 2669 2484 
Q 3125 2378 3379 2068 
Q 3634 1759 3634 1313 
Q 3634 634 3220 271 
Q 2806 -91 2034 -91 
Q 1263 -91 848 271 
Q 434 634 434 1313 
Q 434 1759 690 2068 
Q 947 2378 1403 2484 
z
M 1172 3481 
Q 1172 3119 1398 2916 
Q 1625 2713 2034 2713 
Q 2441 2713 2670 2916 
Q 2900 3119 2900 3481 
Q 2900 3844 2670 4047 
Q 2441 4250 2034 4250 
Q 1625 4250 1398 4047 
Q 1172 3844 1172 3481 
z
" transform="scale(0.015625)"/>
       </defs>
       <use xlink:href="#DejaVuSans-38"/>
      </g>
     </g>
    </g>
    <g id="ytick_3">
     <g id="line2d_17">
      <path d="M 44.870906 115.436262 
L 221.078864 115.436262 
" clip-path="url(#p4c1e4ace29)" style="fill: none; stroke: #b0b0b0; stroke-opacity: 0.25; stroke-width: 0.5; stroke-linecap: square"/>
     </g>
     <g id="line2d_18">
      <g>
       <use xlink:href="#m43f2f73b7d" x="44.870906" y="115.436262" style="stroke: #000000; stroke-width: 0.8"/>
      </g>
     </g>
     <g id="text_3">
      <!-- 10 -->
      <g transform="translate(28.963406 118.095715) scale(0.07 -0.07)">
       <defs>
        <path id="DejaVuSans-31" d="M 794 531 
L 1825 531 
L 1825 4091 
L 703 3866 
L 703 4441 
L 1819 4666 
L 2450 4666 
L 2450 531 
L 3481 531 
L 3481 0 
L 794 0 
L 794 531 
z
" transform="scale(0.015625)"/>
        <path id="DejaVuSans-30" d="M 2034 4250 
Q 1547 4250 1301 3770 
Q 1056 3291 1056 2328 
Q 1056 1369 1301 889 
Q 1547 409 2034 409 
Q 2525 409 2770 889 
Q 3016 1369 3016 2328 
Q 3016 3291 2770 3770 
Q 2525 4250 2034 4250 
z
M 2034 4750 
Q 2819 4750 3233 4129 
Q 3647 3509 3647 2328 
Q 3647 1150 3233 529 
Q 2819 -91 2034 -91 
Q 1250 -91 836 529 
Q 422 1150 422 2328 
Q 422 3509 836 4129 
Q 1250 4750 2034 4750 
z
" transform="scale(0.015625)"/>
       </defs>
       <use xlink:href="#DejaVuSans-31"/>
       <use xlink:href="#DejaVuSans-30" transform="translate(63.623047 0)"/>
      </g>
     </g>
    </g>
    <g id="ytick_4">
     <g id="line2d_19">
      <path d="M 44.870906 92.982962 
L 221.078864 92.982962 
" clip-path="url(#p4c1e4ace29)" style="fill: none; stroke: #b0b0b0; stroke-opacity: 0.25; stroke-width: 0.5; stroke-linecap: square"/>
     </g>
     <g id="line2d_20">
      <g>
       <use xlink:href="#m43f2f73b7d" x="44.870906" y="92.982962" style="stroke: #000000; stroke-width: 0.8"/>
      </g>
     </g>
     <g id="text_4">
      <!-- 12 -->
      <g transform="translate(28.963406 95.642415) scale(0.07 -0.07)">
       <defs>
        <path id="DejaVuSans-32" d="M 1228 531 
L 3431 531 
L 3431 0 
L 469 0 
L 469 531 
Q 828 903 1448 1529 
Q 2069 2156 2228 2338 
Q 2531 2678 2651 2914 
Q 2772 3150 2772 3378 
Q 2772 3750 2511 3984 
Q 2250 4219 1831 4219 
Q 1534 4219 1204 4116 
Q 875 4013 500 3803 
L 500 4441 
Q 881 4594 1212 4672 
Q 1544 4750 1819 4750 
Q 2544 4750 2975 4387 
Q 3406 4025 3406 3419 
Q 3406 3131 3298 2873 
Q 3191 2616 2906 2266 
Q 2828 2175 2409 1742 
Q 1991 1309 1228 531 
z
" transform="scale(0.015625)"/>
       </defs>
       <use xlink:href="#DejaVuSans-31"/>
       <use xlink:href="#DejaVuSans-32" transform="translate(63.623047 0)"/>
      </g>
     </g>
    </g>
    <g id="ytick_5">
     <g id="line2d_21">
      <path d="M 44.870906 70.529662 
L 221.078864 70.529662 
" clip-path="url(#p4c1e4ace29)" style="fill: none; stroke: #b0b0b0; stroke-opacity: 0.25; stroke-width: 0.5; stroke-linecap: square"/>
     </g>
     <g id="line2d_22">
      <g>
       <use xlink:href="#m43f2f73b7d" x="44.870906" y="70.529662" style="stroke: #000000; stroke-width: 0.8"/>
      </g>
     </g>
     <g id="text_5">
      <!-- 14 -->
      <g transform="translate(28.963406 73.189115) scale(0.07 -0.07)">
       <defs>
        <path id="DejaVuSans-34" d="M 2419 4116 
L 825 1625 
L 2419 1625 
L 2419 4116 
z
M 2253 4666 
L 3047 4666 
L 3047 1625 
L 3713 1625 
L 3713 1100 
L 3047 1100 
L 3047 0 
L 2419 0 
L 2419 1100 
L 313 1100 
L 313 1709 
L 2253 4666 
z
" transform="scale(0.015625)"/>
       </defs>
       <use xlink:href="#DejaVuSans-31"/>
       <use xlink:href="#DejaVuSans-34" transform="translate(63.623047 0)"/>
      </g>
     </g>
    </g>
    <g id="ytick_6">
     <g id="line2d_23">
      <path d="M 44.870906 48.076362 
L 221.078864 48.076362 
" clip-path="url(#p4c1e4ace29)" style="fill: none; stroke: #b0b0b0; stroke-opacity: 0.25; stroke-width: 0.5; stroke-linecap: square"/>
     </g>
     <g id="line2d_24">
      <g>
       <use xlink:href="#m43f2f73b7d" x="44.870906" y="48.076362" style="stroke: #000000; stroke-width: 0.8"/>
      </g>
     </g>
     <g id="text_6">
      <!-- 16 -->
      <g transform="translate(28.963406 50.735815) scale(0.07 -0.07)">
       <use xlink:href="#DejaVuSans-31"/>
       <use xlink:href="#DejaVuSans-36" transform="translate(63.623047 0)"/>
      </g>
     </g>
    </g>
    <g id="ytick_7">
     <g id="line2d_25">
      <path d="M 44.870906 25.623062 
L 221.078864 25.623062 
" clip-path="url(#p4c1e4ace29)" style="fill: none; stroke: #b0b0b0; stroke-opacity: 0.25; stroke-width: 0.5; stroke-linecap: square"/>
     </g>
     <g id="line2d_26">
      <g>
       <use xlink:href="#m43f2f73b7d" x="44.870906" y="25.623062" style="stroke: #000000; stroke-width: 0.8"/>
      </g>
     </g>
     <g id="text_7">
      <!-- 18 -->
      <g transform="translate(28.963406 28.282515) scale(0.07 -0.07)">
       <use xlink:href="#DejaVuSans-31"/>
       <use xlink:href="#DejaVuSans-38" transform="translate(63.623047 0)"/>
      </g>
     </g>
    </g>
    <g id="text_8">
     <!-- identity init -->
     <g transform="translate(13.658672 115.224496) rotate(-90) scale(0.085 -0.085)">
      <defs>
       <path id="DejaVuSans-69" d="M 603 3500 
L 1178 3500 
L 1178 0 
L 603 0 
L 603 3500 
z
M 603 4863 
L 1178 4863 
L 1178 4134 
L 603 4134 
L 603 4863 
z
" transform="scale(0.015625)"/>
       <path id="DejaVuSans-64" d="M 2906 2969 
L 2906 4863 
L 3481 4863 
L 3481 0 
L 2906 0 
L 2906 525 
Q 2725 213 2448 61 
Q 2172 -91 1784 -91 
Q 1150 -91 751 415 
Q 353 922 353 1747 
Q 353 2572 751 3078 
Q 1150 3584 1784 3584 
Q 2172 3584 2448 3432 
Q 2725 3281 2906 2969 
z
M 947 1747 
Q 947 1113 1208 752 
Q 1469 391 1925 391 
Q 2381 391 2643 752 
Q 2906 1113 2906 1747 
Q 2906 2381 2643 2742 
Q 2381 3103 1925 3103 
Q 1469 3103 1208 2742 
Q 947 2381 947 1747 
z
" transform="scale(0.015625)"/>
       <path id="DejaVuSans-65" d="M 3597 1894 
L 3597 1613 
L 953 1613 
Q 991 1019 1311 708 
Q 1631 397 2203 397 
Q 2534 397 2845 478 
Q 3156 559 3463 722 
L 3463 178 
Q 3153 47 2828 -22 
Q 2503 -91 2169 -91 
Q 1331 -91 842 396 
Q 353 884 353 1716 
Q 353 2575 817 3079 
Q 1281 3584 2069 3584 
Q 2775 3584 3186 3129 
Q 3597 2675 3597 1894 
z
M 3022 2063 
Q 3016 2534 2758 2815 
Q 2500 3097 2075 3097 
Q 1594 3097 1305 2825 
Q 1016 2553 972 2059 
L 3022 2063 
z
" transform="scale(0.015625)"/>
       <path id="DejaVuSans-6e" d="M 3513 2113 
L 3513 0 
L 2938 0 
L 2938 2094 
Q 2938 2591 2744 2837 
Q 2550 3084 2163 3084 
Q 1697 3084 1428 2787 
Q 1159 2491 1159 1978 
L 1159 0 
L 581 0 
L 581 3500 
L 1159 3500 
L 1159 2956 
Q 1366 3272 1645 3428 
Q 1925 3584 2291 3584 
Q 2894 3584 3203 3211 
Q 3513 2838 3513 2113 
z
" transform="scale(0.015625)"/>
       <path id="DejaVuSans-74" d="M 1172 4494 
L 1172 3500 
L 2356 3500 
L 2356 3053 
L 1172 3053 
L 1172 1153 
Q 1172 725 1289 603 
Q 1406 481 1766 481 
L 2356 481 
L 2356 0 
L 1766 0 
Q 1100 0 847 248 
Q 594 497 594 1153 
L 594 3053 
L 172 3053 
L 172 3500 
L 594 3500 
L 594 4494 
L 1172 4494 
z
" transform="scale(0.015625)"/>
       <path id="DejaVuSans-79" d="M 2059 -325 
Q 1816 -950 1584 -1140 
Q 1353 -1331 966 -1331 
L 506 -1331 
L 506 -850 
L 844 -850 
Q 1081 -850 1212 -737 
Q 1344 -625 1503 -206 
L 1606 56 
L 191 3500 
L 800 3500 
L 1894 763 
L 2988 3500 
L 3597 3500 
L 2059 -325 
z
" transform="scale(0.015625)"/>
       <path id="DejaVuSans-20" transform="scale(0.015625)"/>
      </defs>
      <use xlink:href="#DejaVuSans-69"/>
      <use xlink:href="#DejaVuSans-64" transform="translate(27.783203 0)"/>
      <use xlink:href="#DejaVuSans-65" transform="translate(91.259766 0)"/>
      <use xlink:href="#DejaVuSans-6e" transform="translate(152.783203 0)"/>
      <use xlink:href="#DejaVuSans-74" transform="translate(216.162109 0)"/>
      <use xlink:href="#DejaVuSans-69" transform="translate(255.371094 0)"/>
      <use xlink:href="#DejaVuSans-74" transform="translate(283.154297 0)"/>
      <use xlink:href="#DejaVuSans-79" transform="translate(322.363281 0)"/>
      <use xlink:href="#DejaVuSans-20" transform="translate(381.542969 0)"/>
      <use xlink:href="#DejaVuSans-69" transform="translate(413.330078 0)"/>
      <use xlink:href="#DejaVuSans-6e" transform="translate(441.113281 0)"/>
      <use xlink:href="#DejaVuSans-69" transform="translate(504.492188 0)"/>
      <use xlink:href="#DejaVuSans-74" transform="translate(532.275391 0)"/>
     </g>
     <!-- top-$k$ MSE loss -->
     <g transform="translate(23.178406 121.877074) rotate(-90) scale(0.085 -0.085)">
      <defs>
       <path id="DejaVuSans-6f" d="M 1959 3097 
Q 1497 3097 1228 2736 
Q 959 2375 959 1747 
Q 959 1119 1226 758 
Q 1494 397 1959 397 
Q 2419 397 2687 759 
Q 2956 1122 2956 1747 
Q 2956 2369 2687 2733 
Q 2419 3097 1959 3097 
z
M 1959 3584 
Q 2709 3584 3137 3096 
Q 3566 2609 3566 1747 
Q 3566 888 3137 398 
Q 2709 -91 1959 -91 
Q 1206 -91 779 398 
Q 353 888 353 1747 
Q 353 2609 779 3096 
Q 1206 3584 1959 3584 
z
" transform="scale(0.015625)"/>
       <path id="DejaVuSans-70" d="M 1159 525 
L 1159 -1331 
L 581 -1331 
L 581 3500 
L 1159 3500 
L 1159 2969 
Q 1341 3281 1617 3432 
Q 1894 3584 2278 3584 
Q 2916 3584 3314 3078 
Q 3713 2572 3713 1747 
Q 3713 922 3314 415 
Q 2916 -91 2278 -91 
Q 1894 -91 1617 61 
Q 1341 213 1159 525 
z
M 3116 1747 
Q 3116 2381 2855 2742 
Q 2594 3103 2138 3103 
Q 1681 3103 1420 2742 
Q 1159 2381 1159 1747 
Q 1159 1113 1420 752 
Q 1681 391 2138 391 
Q 2594 391 2855 752 
Q 3116 1113 3116 1747 
z
" transform="scale(0.015625)"/>
       <path id="DejaVuSans-2d" d="M 313 2009 
L 1997 2009 
L 1997 1497 
L 313 1497 
L 313 2009 
z
" transform="scale(0.015625)"/>
       <path id="DejaVuSans-Oblique-6b" d="M 1172 4863 
L 1747 4863 
L 1197 2028 
L 3169 3500 
L 3916 3500 
L 1716 1825 
L 3322 0 
L 2625 0 
L 1131 1709 
L 800 0 
L 225 0 
L 1172 4863 
z
" transform="scale(0.015625)"/>
       <path id="DejaVuSans-4d" d="M 628 4666 
L 1569 4666 
L 2759 1491 
L 3956 4666 
L 4897 4666 
L 4897 0 
L 4281 0 
L 4281 4097 
L 3078 897 
L 2444 897 
L 1241 4097 
L 1241 0 
L 628 0 
L 628 4666 
z
" transform="scale(0.015625)"/>
       <path id="DejaVuSans-53" d="M 3425 4513 
L 3425 3897 
Q 3066 4069 2747 4153 
Q 2428 4238 2131 4238 
Q 1616 4238 1336 4038 
Q 1056 3838 1056 3469 
Q 1056 3159 1242 3001 
Q 1428 2844 1947 2747 
L 2328 2669 
Q 3034 2534 3370 2195 
Q 3706 1856 3706 1288 
Q 3706 609 3251 259 
Q 2797 -91 1919 -91 
Q 1588 -91 1214 -16 
Q 841 59 441 206 
L 441 856 
Q 825 641 1194 531 
Q 1563 422 1919 422 
Q 2459 422 2753 634 
Q 3047 847 3047 1241 
Q 3047 1584 2836 1778 
Q 2625 1972 2144 2069 
L 1759 2144 
Q 1053 2284 737 2584 
Q 422 2884 422 3419 
Q 422 4038 858 4394 
Q 1294 4750 2059 4750 
Q 2388 4750 2728 4690 
Q 3069 4631 3425 4513 
z
" transform="scale(0.015625)"/>
       <path id="DejaVuSans-45" d="M 628 4666 
L 3578 4666 
L 3578 4134 
L 1259 4134 
L 1259 2753 
L 3481 2753 
L 3481 2222 
L 1259 2222 
L 1259 531 
L 3634 531 
L 3634 0 
L 628 0 
L 628 4666 
z
" transform="scale(0.015625)"/>
       <path id="DejaVuSans-6c" d="M 603 4863 
L 1178 4863 
L 1178 0 
L 603 0 
L 603 4863 
z
" transform="scale(0.015625)"/>
       <path id="DejaVuSans-73" d="M 2834 3397 
L 2834 2853 
Q 2591 2978 2328 3040 
Q 2066 3103 1784 3103 
Q 1356 3103 1142 2972 
Q 928 2841 928 2578 
Q 928 2378 1081 2264 
Q 1234 2150 1697 2047 
L 1894 2003 
Q 2506 1872 2764 1633 
Q 3022 1394 3022 966 
Q 3022 478 2636 193 
Q 2250 -91 1575 -91 
Q 1294 -91 989 -36 
Q 684 19 347 128 
L 347 722 
Q 666 556 975 473 
Q 1284 391 1588 391 
Q 1994 391 2212 530 
Q 2431 669 2431 922 
Q 2431 1156 2273 1281 
Q 2116 1406 1581 1522 
L 1381 1569 
Q 847 1681 609 1914 
Q 372 2147 372 2553 
Q 372 3047 722 3315 
Q 1072 3584 1716 3584 
Q 2034 3584 2315 3537 
Q 2597 3491 2834 3397 
z
" transform="scale(0.015625)"/>
      </defs>
      <use xlink:href="#DejaVuSans-74" transform="translate(0 0.015625)"/>
      <use xlink:href="#DejaVuSans-6f" transform="translate(39.208984 0.015625)"/>
      <use xlink:href="#DejaVuSans-70" transform="translate(100.390625 0.015625)"/>
      <use xlink:href="#DejaVuSans-2d" transform="translate(163.867188 0.015625)"/>
      <use xlink:href="#DejaVuSans-Oblique-6b" transform="translate(199.951172 0.015625)"/>
      <use xlink:href="#DejaVuSans-20" transform="translate(257.861328 0.015625)"/>
      <use xlink:href="#DejaVuSans-4d" transform="translate(289.648438 0.015625)"/>
      <use xlink:href="#DejaVuSans-53" transform="translate(375.927734 0.015625)"/>
      <use xlink:href="#DejaVuSans-45" transform="translate(439.404297 0.015625)"/>
      <use xlink:href="#DejaVuSans-20" transform="translate(502.587891 0.015625)"/>
      <use xlink:href="#DejaVuSans-6c" transform="translate(534.375 0.015625)"/>
      <use xlink:href="#DejaVuSans-6f" transform="translate(562.158203 0.015625)"/>
      <use xlink:href="#DejaVuSans-73" transform="translate(623.339844 0.015625)"/>
      <use xlink:href="#DejaVuSans-73" transform="translate(675.439453 0.015625)"/>
     </g>
    </g>
   </g>
   <g id="line2d_27">
    <path d="M 52.880359 26.520919 
L 53.337855 26.661762 
L 53.795351 27.06253 
L 54.252848 27.793323 
L 54.710344 28.963482 
L 55.16784 30.755122 
L 55.690693 33.766977 
L 56.278903 38.549393 
L 56.997825 46.506983 
L 57.978174 60.289276 
L 59.742803 86.008202 
L 60.461726 93.483101 
L 61.049935 97.690335 
L 61.638145 100.413661 
L 62.160998 101.913036 
L 62.68385 102.802069 
L 63.206703 103.288588 
L 63.860269 103.572735 
L 64.775262 103.704052 
L 66.866674 103.930365 
L 67.193457 104.678168 
L 67.52024 106.214248 
L 67.912379 109.289376 
L 68.435232 115.425872 
L 69.023442 125.234697 
L 70.592 154.04931 
L 70.853427 155.159944 
L 71.049497 155.36642 
L 71.310923 155.262415 
L 71.833776 154.989029 
L 72.225916 155.08911 
L 73.075551 155.353861 
L 74.44804 155.378515 
L 74.970893 155.382774 
L 84.970455 155.385844 
L 103.074236 155.388951 
L 103.139592 155.175531 
L 103.204949 155.389501 
L 103.270306 155.228078 
L 103.335662 155.238849 
L 103.466375 155.358411 
L 103.597089 155.312111 
L 103.727802 155.366854 
L 103.858515 155.334182 
L 104.054585 155.353882 
L 105.29636 155.3854 
L 105.88457 155.388486 
L 105.949927 155.138612 
L 106.015283 155.390209 
L 106.08064 155.176104 
L 106.145996 155.240185 
L 106.211353 155.385387 
L 106.27671 155.31739 
L 106.342066 155.248674 
L 106.407423 155.329964 
L 106.538136 155.333421 
L 106.668849 155.351292 
L 106.799563 155.357658 
L 106.995632 155.385895 
L 107.779912 155.382929 
L 109.1524 155.38911 
L 109.413827 155.38951 
L 109.479184 155.101005 
L 109.54454 155.39012 
L 109.609897 155.145704 
L 109.675253 155.204309 
L 109.74061 155.380494 
L 109.805967 155.31894 
L 109.871323 155.22256 
L 109.93668 155.305929 
L 110.067393 155.339158 
L 110.198106 155.331105 
L 110.328819 155.367124 
L 110.459533 155.342131 
L 110.655603 155.357084 
L 111.832022 155.38525 
L 111.962735 155.388486 
L 112.028091 155.130927 
L 112.093448 155.390141 
L 112.158805 155.173574 
L 112.224161 155.228527 
L 112.289518 155.384293 
L 112.354874 155.320069 
L 112.420231 155.242296 
L 112.485588 155.323553 
L 112.616301 155.335156 
L 112.747014 155.345418 
L 112.877727 155.359906 
L 113.073797 155.383828 
L 114.250216 155.38856 
L 115.491992 155.389575 
L 115.557348 155.122226 
L 115.622705 155.390228 
L 115.688062 155.162137 
L 115.753418 155.222987 
L 115.818775 155.382221 
L 115.884131 155.32224 
L 115.949488 155.235634 
L 116.014845 155.312066 
L 116.145558 155.343679 
L 116.276271 155.333984 
L 116.406984 155.368921 
L 116.603054 155.380776 
L 118.0409 155.388435 
L 118.106256 155.132574 
L 118.171613 155.390042 
L 118.236969 155.175585 
L 118.302326 155.237792 
L 118.367683 155.385981 
L 118.433039 155.316097 
L 118.498396 155.24506 
L 118.563752 155.329498 
L 118.694466 155.333749 
L 118.825179 155.353029 
L 118.955892 155.358518 
L 119.217318 155.376875 
L 119.609458 155.141141 
L 119.674815 155.388232 
L 119.740171 155.212258 
L 119.870885 155.386306 
L 119.936241 155.292645 
L 120.263024 155.34344 
L 120.459094 155.339292 
L 120.785877 155.377513 
L 122.158366 155.389828 
L 123.465498 155.390118 
L 123.530855 155.058609 
L 123.596211 155.390238 
L 123.661568 155.119736 
L 123.726925 155.164377 
L 123.792281 155.370482 
L 123.857638 155.326648 
L 123.922994 155.19762 
L 123.988351 155.274069 
L 124.119064 155.349449 
L 124.249777 155.30327 
L 124.380491 155.377283 
L 124.576561 155.364733 
L 124.9687 155.381893 
L 125.426196 155.380668 
L 126.341189 155.389017 
L 126.406546 155.062127 
L 126.471902 155.390177 
L 126.537259 155.129407 
L 126.602615 155.181306 
L 126.667972 155.376125 
L 126.733329 155.314867 
L 126.798685 155.204819 
L 126.864042 155.296087 
L 126.929399 155.38849 
L 126.994755 155.333849 
L 127.125468 155.321515 
L 127.256182 155.365994 
L 127.386895 155.334767 
L 127.582965 155.353479 
L 128.563314 155.384232 
L 130.197229 155.389609 
L 130.262586 155.053098 
L 130.327942 155.390117 
L 130.393299 155.116736 
L 130.458655 155.16566 
L 130.524012 155.371889 
L 130.589369 155.319924 
L 130.654725 155.195299 
L 130.720082 155.279794 
L 130.785439 155.384335 
L 130.850795 155.341375 
L 130.981508 155.311142 
L 131.112222 155.368565 
L 131.308291 155.36974 
L 131.961858 155.384749 
L 132.157927 155.38428 
L 132.223284 155.105217 
L 132.288641 155.39006 
L 132.353997 155.162028 
L 132.419354 155.223221 
L 132.48471 155.383497 
L 132.550067 155.301881 
L 132.615424 155.23324 
L 132.746137 155.379698 
L 132.87685 155.298704 
L 133.07292 155.341681 
L 134.053269 155.385904 
L 134.249339 155.382571 
L 134.249339 155.382571 
" clip-path="url(#p4c1e4ace29)" style="fill: none; stroke: #0072b2; stroke-width: 1.3; stroke-linecap: square"/>
   </g>
   <g id="line2d_28">
    <path d="M 134.249339 155.382571 
" clip-path="url(#p4c1e4ace29)" style="fill: none; stroke: #0072b2; stroke-width: 1.5; stroke-linecap: square"/>
    <defs>
     <path id="mc2819d6e76" d="M 0 1.75 
C 0.464105 1.75 0.909265 1.565609 1.237437 1.237437 
C 1.565609 0.909265 1.75 0.464105 1.75 0 
C 1.75 -0.464105 1.565609 -0.909265 1.237437 -1.237437 
C 0.909265 -1.565609 0.464105 -1.75 0 -1.75 
C -0.464105 -1.75 -0.909265 -1.565609 -1.237437 -1.237437 
C -1.565609 -0.909265 -1.75 -0.464105 -1.75 0 
C -1.75 0.464105 -1.565609 0.909265 -1.237437 1.237437 
C -0.909265 1.565609 -0.464105 1.75 0 1.75 
z
" style="stroke: #0072b2"/>
    </defs>
    <g clip-path="url(#p4c1e4ace29)">
     <use xlink:href="#mc2819d6e76" x="134.249339" y="155.382571" style="fill: #0072b2; stroke: #0072b2"/>
    </g>
   </g>
   <g id="line2d_29">
    <path d="M 52.880359 26.520919 
L 53.337855 26.661762 
L 53.795351 27.06253 
L 54.252848 27.793323 
L 54.710344 28.963482 
L 55.16784 30.755122 
L 55.690693 33.766977 
L 56.278903 38.549393 
L 56.997825 46.506983 
L 57.978174 60.289276 
L 59.742803 86.008202 
L 60.461726 93.483101 
L 61.049935 97.690335 
L 61.638145 100.413661 
L 62.160998 101.913036 
L 62.68385 102.802069 
L 63.206703 103.288588 
L 63.860269 103.572735 
L 64.775262 103.704052 
L 67.258813 103.738701 
L 69.088798 103.744063 
L 74.186614 103.758555 
L 77.323731 103.759797 
L 77.650514 103.759805 
L 79.415143 103.751404 
L 80.460848 103.758968 
L 85.297238 103.760621 
L 85.493307 103.70776 
L 87.257936 103.759104 
L 91.113976 103.761967 
L 91.179333 103.689322 
L 91.571472 104.374149 
L 91.832899 105.95175 
L 92.159682 109.590773 
L 92.617178 118.118063 
L 93.140031 133.032876 
L 93.858954 153.832521 
L 94.055023 155.304006 
L 94.12038 155.383209 
L 94.185737 155.329219 
L 94.447163 154.466728 
L 94.70859 153.891515 
L 94.839303 153.914352 
L 95.100729 154.377687 
L 95.558226 155.232426 
L 95.885009 155.386125 
L 97.78035 155.387687 
L 97.845707 155.231935 
L 97.911063 155.388031 
L 97.97642 155.257956 
L 98.36856 155.386473 
L 98.629986 155.385638 
L 99.348909 155.376054 
L 100.786754 155.387672 
L 100.852111 155.227895 
L 100.917468 155.388053 
L 100.982824 155.258333 
L 101.44032 155.3563 
L 101.701747 155.370562 
L 102.093887 155.36817 
L 102.616739 155.379291 
L 104.838864 155.387896 
L 104.904221 155.21452 
L 104.969577 155.38807 
L 105.034934 155.246383 
L 105.49243 155.357574 
L 105.6885 155.383686 
L 106.407423 155.371879 
L 106.668849 155.379397 
L 106.734206 155.261778 
L 106.799563 155.385709 
L 106.864919 155.295736 
L 107.257059 155.372468 
L 107.583842 155.367871 
L 108.498834 155.385931 
L 109.54454 155.38738 
L 109.609897 155.183086 
L 109.675253 155.388427 
L 109.74061 155.230548 
L 110.394176 155.380162 
L 112.028091 155.385943 
L 113.40058 155.389733 
L 113.465937 155.16035 
L 113.531293 155.390035 
L 113.59665 155.201661 
L 113.662007 155.241583 
L 113.727363 155.380772 
L 113.79272 155.338422 
L 113.858076 155.2596 
L 113.923433 155.318387 
L 114.054146 155.356969 
L 114.184859 155.338653 
L 114.380929 155.34303 
L 115.818775 155.386247 
L 115.884131 155.196695 
L 115.949488 155.389958 
L 116.014845 155.230487 
L 116.080201 155.285392 
L 116.145558 155.388671 
L 116.210914 155.323096 
L 116.341628 155.357026 
L 116.668411 155.385013 
L 116.864481 155.377969 
L 117.714116 155.388408 
L 119.478745 155.389585 
L 119.544102 155.159432 
L 119.609458 155.389963 
L 119.674815 155.19681 
L 119.740171 155.243465 
L 119.805528 155.382642 
L 119.870885 155.332866 
L 119.936241 155.256457 
L 120.001598 155.321511 
L 120.132311 155.351112 
L 120.263024 155.341231 
L 120.393737 155.372333 
L 120.589807 155.382303 
L 123.073359 155.389487 
L 123.138715 155.135237 
L 123.204072 155.389954 
L 123.269428 155.166452 
L 123.334785 155.233799 
L 123.400142 155.381476 
L 123.465498 155.318867 
L 123.530855 155.2448 
L 123.596211 155.321411 
L 123.726925 155.342129 
L 123.857638 155.344133 
L 123.988351 155.366111 
L 124.184421 155.384995 
L 125.883693 155.38887 
L 125.949049 155.117939 
L 126.014406 155.39 
L 126.079763 155.161996 
L 126.145119 155.222708 
L 126.210476 155.383303 
L 126.275832 155.316783 
L 126.341189 155.234778 
L 126.406546 155.318479 
L 126.537259 155.336509 
L 126.667972 155.341832 
L 126.798685 155.363192 
L 126.994755 155.38488 
L 128.432601 155.387952 
L 128.497957 155.154334 
L 128.563314 155.389513 
L 128.62867 155.202724 
L 128.694027 155.243407 
L 128.759384 155.376717 
L 128.82474 155.335773 
L 128.890097 155.259367 
L 128.955453 155.321853 
L 129.086167 155.348194 
L 129.21688 155.340609 
L 129.41295 155.341887 
L 130.393299 155.384445 
L 131.308291 155.388069 
L 131.373648 155.161111 
L 131.439005 155.389641 
L 131.504361 155.197941 
L 131.569718 155.253188 
L 131.635074 155.383311 
L 131.700431 155.327406 
L 131.765788 155.262702 
L 131.831144 155.329929 
L 131.961858 155.346102 
L 132.092571 155.352258 
L 132.353997 155.361644 
L 132.746137 155.384033 
L 133.595773 155.388492 
L 134.249339 155.388463 
L 134.314696 155.113829 
L 134.380052 155.389935 
L 134.445409 155.155138 
L 134.510765 155.218336 
L 134.576122 155.383425 
L 134.641479 155.315295 
L 134.706835 155.230349 
L 134.772192 155.31374 
L 134.902905 155.340635 
L 135.033618 155.341175 
L 135.164331 155.364956 
L 135.360401 155.382884 
L 138.105379 155.389744 
L 138.170736 154.932362 
L 138.236092 155.389727 
L 138.301449 155.005432 
L 138.366805 155.088599 
L 138.432162 155.368507 
L 138.497519 155.28671 
L 138.562875 155.12231 
L 138.628232 155.233197 
L 138.693588 155.381405 
L 138.758945 155.331602 
L 138.824302 155.228105 
L 138.889658 155.274814 
L 139.020371 155.365758 
L 139.151085 155.307089 
L 139.347155 155.352326 
L 139.804651 155.38314 
L 140.000721 155.370404 
L 140.000721 155.370404 
" clip-path="url(#p4c1e4ace29)" style="fill: none; stroke-dasharray: 4.81,2.08; stroke-dashoffset: 0; stroke: #e69f00; stroke-width: 1.3"/>
   </g>
   <g id="line2d_30">
    <path d="M 140.000721 155.370404 
" clip-path="url(#p4c1e4ace29)" style="fill: none; stroke: #e69f00; stroke-width: 1.5; stroke-linecap: square"/>
    <defs>
     <path id="me15e0c00d6" d="M 0 1.75 
C 0.464105 1.75 0.909265 1.565609 1.237437 1.237437 
C 1.565609 0.909265 1.75 0.464105 1.75 0 
C 1.75 -0.464105 1.565609 -0.909265 1.237437 -1.237437 
C 0.909265 -1.565609 0.464105 -1.75 0 -1.75 
C -0.464105 -1.75 -0.909265 -1.565609 -1.237437 -1.237437 
C -1.565609 -0.909265 -1.75 -0.464105 -1.75 0 
C -1.75 0.464105 -1.565609 0.909265 -1.237437 1.237437 
C -0.909265 1.565609 -0.464105 1.75 0 1.75 
z
" style="stroke: #e69f00"/>
    </defs>
    <g clip-path="url(#p4c1e4ace29)">
     <use xlink:href="#me15e0c00d6" x="140.000721" y="155.370404" style="fill: #e69f00; stroke: #e69f00"/>
    </g>
   </g>
   <g id="line2d_31">
    <path d="M 52.880359 26.520919 
L 69.154155 26.549378 
L 69.284868 26.672018 
L 69.480938 27.250542 
L 69.742364 29.031575 
L 70.069147 33.466768 
L 70.461287 42.391249 
L 70.98414 59.934027 
L 72.487342 115.047485 
L 72.879482 121.118456 
L 73.206265 123.325311 
L 73.467691 123.919063 
L 73.729118 124.003978 
L 74.970893 123.821024 
L 76.670165 124.004115 
L 77.258375 124.008687 
L 77.323731 123.882299 
L 77.389088 124.00916 
L 77.454444 123.905603 
L 78.108011 124.006232 
L 79.480499 124.006529 
L 80.264779 124.008447 
L 80.330135 123.874006 
L 80.395492 124.009401 
L 80.460848 123.901894 
L 80.918345 123.982073 
L 81.245128 123.978979 
L 81.964051 124.008736 
L 82.617617 124.006733 
L 82.682973 123.837785 
L 82.74833 124.009369 
L 82.813686 123.872618 
L 83.205826 124.006676 
L 83.401896 123.989853 
L 83.794036 123.995711 
L 84.643672 124.005583 
L 84.905098 124.006936 
L 84.970455 123.825166 
L 85.035811 124.009376 
L 85.101168 123.864424 
L 85.558664 123.970777 
L 85.820091 123.987459 
L 86.21223 123.993192 
L 86.4083 123.998404 
L 86.473657 123.872247 
L 86.539013 124.007815 
L 86.60437 123.911101 
L 86.99651 123.990681 
L 87.257936 123.986891 
L 88.434355 124.006597 
L 89.283991 124.009139 
L 89.349348 123.793291 
L 89.414704 124.009702 
L 89.480061 123.837372 
L 89.545417 123.870231 
L 89.610774 123.999654 
L 89.676131 123.961984 
L 89.806844 123.944397 
L 89.937557 123.975234 
L 90.06827 123.96445 
L 90.26434 123.964087 
L 91.113976 123.998769 
L 91.963612 124.007424 
L 92.028969 123.810328 
L 92.094325 124.009682 
L 92.159682 123.845748 
L 92.225038 123.892818 
L 92.290395 124.006438 
L 92.355752 123.948532 
L 92.486465 123.969004 
L 92.617178 123.959376 
L 92.943961 123.966238 
L 93.336101 124.007651 
L 94.51252 123.982804 
L 94.839303 123.999708 
L 95.100729 124.000405 
L 95.558226 124.004567 
L 97.78035 124.009344 
L 97.845707 123.818231 
L 97.911063 124.009698 
L 97.97642 123.859435 
L 98.695343 124.001035 
L 98.891413 123.999358 
L 99.675692 123.999442 
L 101.374964 124.009148 
L 101.44032 123.824133 
L 101.505677 124.011942 
L 101.571034 123.866016 
L 102.02853 123.978858 
L 102.289956 123.995855 
L 102.682096 123.992775 
L 103.662445 124.010495 
L 104.577438 124.012178 
L 104.642794 123.80055 
L 104.708151 124.012672 
L 104.773508 123.855405 
L 106.799563 124.008003 
L 107.322415 124.010834 
L 107.387772 123.759968 
L 107.453129 123.983168 
L 107.518485 123.800621 
L 107.583842 123.878178 
L 107.649198 123.995347 
L 107.714555 123.92595 
L 107.845268 123.957597 
L 107.975981 123.958348 
L 108.172051 123.997698 
L 108.629548 123.987841 
L 109.283114 124.009179 
L 110.13275 124.011684 
L 110.198106 123.747484 
L 110.263463 124.01217 
L 110.328819 123.798669 
L 110.394176 123.850887 
L 110.459533 124.003458 
L 110.524889 123.944093 
L 110.590246 123.86224 
L 110.655603 123.942396 
L 110.786316 123.96178 
L 110.917029 123.9656 
L 111.047742 123.98697 
L 111.243812 124.008778 
L 112.616301 124.008576 
L 113.98879 124.012213 
L 114.054146 123.696876 
L 114.119503 124.012686 
L 114.184859 123.753993 
L 114.250216 123.809204 
L 114.315573 123.99974 
L 114.380929 123.944626 
L 114.446286 123.833504 
L 114.511643 123.912453 
L 114.642356 123.967445 
L 114.773069 123.938838 
L 114.903782 123.995937 
L 115.034495 123.953075 
L 115.230565 123.984553 
L 115.622705 123.990064 
L 116.145558 124.003291 
L 116.733767 124.009499 
L 116.799124 123.739599 
L 116.864481 124.025086 
L 116.929837 123.824858 
L 117.25662 124.556018 
L 117.64876 126.484742 
L 117.975543 129.434783 
L 118.302326 134.530009 
L 118.694466 144.624126 
L 119.086605 154.201686 
L 119.282675 155.376955 
L 119.413388 155.044357 
L 119.805528 153.606761 
L 119.936241 153.752428 
L 120.655164 155.385261 
L 120.981947 155.301803 
L 121.374087 155.238797 
L 122.811932 155.376631 
L 123.661568 155.390198 
L 123.661568 155.390198 
" clip-path="url(#p4c1e4ace29)" style="fill: none; stroke-dasharray: 8.32,2.08,1.3,2.08; stroke-dashoffset: 0; stroke: #009e73; stroke-width: 1.3"/>
   </g>
   <g id="line2d_32">
    <path d="M 123.661568 155.390198 
" clip-path="url(#p4c1e4ace29)" style="fill: none; stroke: #009e73; stroke-width: 1.5; stroke-linecap: square"/>
    <defs>
     <path id="mc201604b37" d="M 0 1.75 
C 0.464105 1.75 0.909265 1.565609 1.237437 1.237437 
C 1.565609 0.909265 1.75 0.464105 1.75 0 
C 1.75 -0.464105 1.565609 -0.909265 1.237437 -1.237437 
C 0.909265 -1.565609 0.464105 -1.75 0 -1.75 
C -0.464105 -1.75 -0.909265 -1.565609 -1.237437 -1.237437 
C -1.565609 -0.909265 -1.75 -0.464105 -1.75 0 
C -1.75 0.464105 -1.565609 0.909265 -1.237437 1.237437 
C -0.909265 1.565609 -0.464105 1.75 0 1.75 
z
" style="stroke: #009e73"/>
    </defs>
    <g clip-path="url(#p4c1e4ace29)">
     <use xlink:href="#mc201604b37" x="123.661568" y="155.390198" style="fill: #009e73; stroke: #009e73"/>
    </g>
   </g>
   <g id="patch_3">
    <path d="M 44.870906 161.835554 
L 44.870906 20.038594 
" style="fill: none; stroke: #000000; stroke-width: 0.8; stroke-linejoin: miter; stroke-linecap: square"/>
   </g>
   <g id="patch_4">
    <path d="M 221.078864 161.835554 
L 221.078864 20.038594 
" style="fill: none; stroke: #000000; stroke-width: 0.8; stroke-linejoin: miter; stroke-linecap: square"/>
   </g>
   <g id="patch_5">
    <path d="M 44.870906 161.835554 
L 221.078864 161.835554 
" style="fill: none; stroke: #000000; stroke-width: 0.8; stroke-linejoin: miter; stroke-linecap: square"/>
   </g>
   <g id="patch_6">
    <path d="M 44.870906 20.038594 
L 221.078864 20.038594 
" style="fill: none; stroke: #000000; stroke-width: 0.8; stroke-linejoin: miter; stroke-linecap: square"/>
   </g>
   <g id="text_9">
    <!-- MSE 6.442 · 37.6 dB -->
    <g style="fill: #0072b2" transform="translate(149.954734 30.649457) scale(0.065 -0.065)">
     <defs>
      <path id="DejaVuSans-2e" d="M 684 794 
L 1344 794 
L 1344 0 
L 684 0 
L 684 794 
z
" transform="scale(0.015625)"/>
      <path id="DejaVuSans-b7" d="M 684 2619 
L 1344 2619 
L 1344 1825 
L 684 1825 
L 684 2619 
z
" transform="scale(0.015625)"/>
      <path id="DejaVuSans-33" d="M 2597 2516 
Q 3050 2419 3304 2112 
Q 3559 1806 3559 1356 
Q 3559 666 3084 287 
Q 2609 -91 1734 -91 
Q 1441 -91 1130 -33 
Q 819 25 488 141 
L 488 750 
Q 750 597 1062 519 
Q 1375 441 1716 441 
Q 2309 441 2620 675 
Q 2931 909 2931 1356 
Q 2931 1769 2642 2001 
Q 2353 2234 1838 2234 
L 1294 2234 
L 1294 2753 
L 1863 2753 
Q 2328 2753 2575 2939 
Q 2822 3125 2822 3475 
Q 2822 3834 2567 4026 
Q 2313 4219 1838 4219 
Q 1578 4219 1281 4162 
Q 984 4106 628 3988 
L 628 4550 
Q 988 4650 1302 4700 
Q 1616 4750 1894 4750 
Q 2613 4750 3031 4423 
Q 3450 4097 3450 3541 
Q 3450 3153 3228 2886 
Q 3006 2619 2597 2516 
z
" transform="scale(0.015625)"/>
      <path id="DejaVuSans-37" d="M 525 4666 
L 3525 4666 
L 3525 4397 
L 1831 0 
L 1172 0 
L 2766 4134 
L 525 4134 
L 525 4666 
z
" transform="scale(0.015625)"/>
      <path id="DejaVuSans-42" d="M 1259 2228 
L 1259 519 
L 2272 519 
Q 2781 519 3026 730 
Q 3272 941 3272 1375 
Q 3272 1813 3026 2020 
Q 2781 2228 2272 2228 
L 1259 2228 
z
M 1259 4147 
L 1259 2741 
L 2194 2741 
Q 2656 2741 2882 2914 
Q 3109 3088 3109 3444 
Q 3109 3797 2882 3972 
Q 2656 4147 2194 4147 
L 1259 4147 
z
M 628 4666 
L 2241 4666 
Q 2963 4666 3353 4366 
Q 3744 4066 3744 3513 
Q 3744 3084 3544 2831 
Q 3344 2578 2956 2516 
Q 3422 2416 3680 2098 
Q 3938 1781 3938 1306 
Q 3938 681 3513 340 
Q 3088 0 2303 0 
L 628 0 
L 628 4666 
z
" transform="scale(0.015625)"/>
     </defs>
     <use xlink:href="#DejaVuSans-4d"/>
     <use xlink:href="#DejaVuSans-53" transform="translate(86.279297 0)"/>
     <use xlink:href="#DejaVuSans-45" transform="translate(149.755859 0)"/>
     <use xlink:href="#DejaVuSans-20" transform="translate(212.939453 0)"/>
     <use xlink:href="#DejaVuSans-36" transform="translate(244.726562 0)"/>
     <use xlink:href="#DejaVuSans-2e" transform="translate(308.349609 0)"/>
     <use xlink:href="#DejaVuSans-34" transform="translate(340.136719 0)"/>
     <use xlink:href="#DejaVuSans-34" transform="translate(403.759766 0)"/>
     <use xlink:href="#DejaVuSans-32" transform="translate(467.382812 0)"/>
     <use xlink:href="#DejaVuSans-20" transform="translate(531.005859 0)"/>
     <use xlink:href="#DejaVuSans-b7" transform="translate(562.792969 0)"/>
     <use xlink:href="#DejaVuSans-20" transform="translate(594.580078 0)"/>
     <use xlink:href="#DejaVuSans-33" transform="translate(626.367188 0)"/>
     <use xlink:href="#DejaVuSans-37" transform="translate(689.990234 0)"/>
     <use xlink:href="#DejaVuSans-2e" transform="translate(753.613281 0)"/>
     <use xlink:href="#DejaVuSans-36" transform="translate(785.400391 0)"/>
     <use xlink:href="#DejaVuSans-20" transform="translate(849.023438 0)"/>
     <use xlink:href="#DejaVuSans-64" transform="translate(880.810547 0)"/>
     <use xlink:href="#DejaVuSans-42" transform="translate(944.287109 0)"/>
    </g>
   </g>
   <g id="text_10">
    <!-- MSE 6.443 · 37.5 dB -->
    <g style="fill: #e69f00" transform="translate(149.954734 42.702198) scale(0.065 -0.065)">
     <defs>
      <path id="DejaVuSans-35" d="M 691 4666 
L 3169 4666 
L 3169 4134 
L 1269 4134 
L 1269 2991 
Q 1406 3038 1543 3061 
Q 1681 3084 1819 3084 
Q 2600 3084 3056 2656 
Q 3513 2228 3513 1497 
Q 3513 744 3044 326 
Q 2575 -91 1722 -91 
Q 1428 -91 1123 -41 
Q 819 9 494 109 
L 494 744 
Q 775 591 1075 516 
Q 1375 441 1709 441 
Q 2250 441 2565 725 
Q 2881 1009 2881 1497 
Q 2881 1984 2565 2268 
Q 2250 2553 1709 2553 
Q 1456 2553 1204 2497 
Q 953 2441 691 2322 
L 691 4666 
z
" transform="scale(0.015625)"/>
     </defs>
     <use xlink:href="#DejaVuSans-4d"/>
     <use xlink:href="#DejaVuSans-53" transform="translate(86.279297 0)"/>
     <use xlink:href="#DejaVuSans-45" transform="translate(149.755859 0)"/>
     <use xlink:href="#DejaVuSans-20" transform="translate(212.939453 0)"/>
     <use xlink:href="#DejaVuSans-36" transform="translate(244.726562 0)"/>
     <use xlink:href="#DejaVuSans-2e" transform="translate(308.349609 0)"/>
     <use xlink:href="#DejaVuSans-34" transform="translate(340.136719 0)"/>
     <use xlink:href="#DejaVuSans-34" transform="translate(403.759766 0)"/>
     <use xlink:href="#DejaVuSans-33" transform="translate(467.382812 0)"/>
     <use xlink:href="#DejaVuSans-20" transform="translate(531.005859 0)"/>
     <use xlink:href="#DejaVuSans-b7" transform="translate(562.792969 0)"/>
     <use xlink:href="#DejaVuSans-20" transform="translate(594.580078 0)"/>
     <use xlink:href="#DejaVuSans-33" transform="translate(626.367188 0)"/>
     <use xlink:href="#DejaVuSans-37" transform="translate(689.990234 0)"/>
     <use xlink:href="#DejaVuSans-2e" transform="translate(753.613281 0)"/>
     <use xlink:href="#DejaVuSans-35" transform="translate(785.400391 0)"/>
     <use xlink:href="#DejaVuSans-20" transform="translate(849.023438 0)"/>
     <use xlink:href="#DejaVuSans-64" transform="translate(880.810547 0)"/>
     <use xlink:href="#DejaVuSans-42" transform="translate(944.287109 0)"/>
    </g>
   </g>
   <g id="text_11">
    <!-- MSE 6.441 · 37.6 dB -->
    <g style="fill: #009e73" transform="translate(149.954734 54.75494) scale(0.065 -0.065)">
     <use xlink:href="#DejaVuSans-4d"/>
     <use xlink:href="#DejaVuSans-53" transform="translate(86.279297 0)"/>
     <use xlink:href="#DejaVuSans-45" transform="translate(149.755859 0)"/>
     <use xlink:href="#DejaVuSans-20" transform="translate(212.939453 0)"/>
     <use xlink:href="#DejaVuSans-36" transform="translate(244.726562 0)"/>
     <use xlink:href="#DejaVuSans-2e" transform="translate(308.349609 0)"/>
     <use xlink:href="#DejaVuSans-34" transform="translate(340.136719 0)"/>
     <use xlink:href="#DejaVuSans-34" transform="translate(403.759766 0)"/>
     <use xlink:href="#DejaVuSans-31" transform="translate(467.382812 0)"/>
     <use xlink:href="#DejaVuSans-20" transform="translate(531.005859 0)"/>
     <use xlink:href="#DejaVuSans-b7" transform="translate(562.792969 0)"/>
     <use xlink:href="#DejaVuSans-20" transform="translate(594.580078 0)"/>
     <use xlink:href="#DejaVuSans-33" transform="translate(626.367188 0)"/>
     <use xlink:href="#DejaVuSans-37" transform="translate(689.990234 0)"/>
     <use xlink:href="#DejaVuSans-2e" transform="translate(753.613281 0)"/>
     <use xlink:href="#DejaVuSans-36" transform="translate(785.400391 0)"/>
     <use xlink:href="#DejaVuSans-20" transform="translate(849.023438 0)"/>
     <use xlink:href="#DejaVuSans-64" transform="translate(880.810547 0)"/>
     <use xlink:href="#DejaVuSans-42" transform="translate(944.287109 0)"/>
    </g>
   </g>
   <g id="text_12">
    <!-- QuickDraw  (m=n=5) -->
    <g transform="translate(84.485979 14.038594) scale(0.09 -0.09)">
     <defs>
      <path id="DejaVuSans-51" d="M 2522 4238 
Q 1834 4238 1429 3725 
Q 1025 3213 1025 2328 
Q 1025 1447 1429 934 
Q 1834 422 2522 422 
Q 3209 422 3611 934 
Q 4013 1447 4013 2328 
Q 4013 3213 3611 3725 
Q 3209 4238 2522 4238 
z
M 3406 84 
L 4238 -825 
L 3475 -825 
L 2784 -78 
Q 2681 -84 2626 -87 
Q 2572 -91 2522 -91 
Q 1538 -91 948 567 
Q 359 1225 359 2328 
Q 359 3434 948 4092 
Q 1538 4750 2522 4750 
Q 3503 4750 4090 4092 
Q 4678 3434 4678 2328 
Q 4678 1516 4351 937 
Q 4025 359 3406 84 
z
" transform="scale(0.015625)"/>
      <path id="DejaVuSans-75" d="M 544 1381 
L 544 3500 
L 1119 3500 
L 1119 1403 
Q 1119 906 1312 657 
Q 1506 409 1894 409 
Q 2359 409 2629 706 
Q 2900 1003 2900 1516 
L 2900 3500 
L 3475 3500 
L 3475 0 
L 2900 0 
L 2900 538 
Q 2691 219 2414 64 
Q 2138 -91 1772 -91 
Q 1169 -91 856 284 
Q 544 659 544 1381 
z
M 1991 3584 
L 1991 3584 
z
" transform="scale(0.015625)"/>
      <path id="DejaVuSans-63" d="M 3122 3366 
L 3122 2828 
Q 2878 2963 2633 3030 
Q 2388 3097 2138 3097 
Q 1578 3097 1268 2742 
Q 959 2388 959 1747 
Q 959 1106 1268 751 
Q 1578 397 2138 397 
Q 2388 397 2633 464 
Q 2878 531 3122 666 
L 3122 134 
Q 2881 22 2623 -34 
Q 2366 -91 2075 -91 
Q 1284 -91 818 406 
Q 353 903 353 1747 
Q 353 2603 823 3093 
Q 1294 3584 2113 3584 
Q 2378 3584 2631 3529 
Q 2884 3475 3122 3366 
z
" transform="scale(0.015625)"/>
      <path id="DejaVuSans-6b" d="M 581 4863 
L 1159 4863 
L 1159 1991 
L 2875 3500 
L 3609 3500 
L 1753 1863 
L 3688 0 
L 2938 0 
L 1159 1709 
L 1159 0 
L 581 0 
L 581 4863 
z
" transform="scale(0.015625)"/>
      <path id="DejaVuSans-44" d="M 1259 4147 
L 1259 519 
L 2022 519 
Q 2988 519 3436 956 
Q 3884 1394 3884 2338 
Q 3884 3275 3436 3711 
Q 2988 4147 2022 4147 
L 1259 4147 
z
M 628 4666 
L 1925 4666 
Q 3281 4666 3915 4102 
Q 4550 3538 4550 2338 
Q 4550 1131 3912 565 
Q 3275 0 1925 0 
L 628 0 
L 628 4666 
z
" transform="scale(0.015625)"/>
      <path id="DejaVuSans-72" d="M 2631 2963 
Q 2534 3019 2420 3045 
Q 2306 3072 2169 3072 
Q 1681 3072 1420 2755 
Q 1159 2438 1159 1844 
L 1159 0 
L 581 0 
L 581 3500 
L 1159 3500 
L 1159 2956 
Q 1341 3275 1631 3429 
Q 1922 3584 2338 3584 
Q 2397 3584 2469 3576 
Q 2541 3569 2628 3553 
L 2631 2963 
z
" transform="scale(0.015625)"/>
      <path id="DejaVuSans-61" d="M 2194 1759 
Q 1497 1759 1228 1600 
Q 959 1441 959 1056 
Q 959 750 1161 570 
Q 1363 391 1709 391 
Q 2188 391 2477 730 
Q 2766 1069 2766 1631 
L 2766 1759 
L 2194 1759 
z
M 3341 1997 
L 3341 0 
L 2766 0 
L 2766 531 
Q 2569 213 2275 61 
Q 1981 -91 1556 -91 
Q 1019 -91 701 211 
Q 384 513 384 1019 
Q 384 1609 779 1909 
Q 1175 2209 1959 2209 
L 2766 2209 
L 2766 2266 
Q 2766 2663 2505 2880 
Q 2244 3097 1772 3097 
Q 1472 3097 1187 3025 
Q 903 2953 641 2809 
L 641 3341 
Q 956 3463 1253 3523 
Q 1550 3584 1831 3584 
Q 2591 3584 2966 3190 
Q 3341 2797 3341 1997 
z
" transform="scale(0.015625)"/>
      <path id="DejaVuSans-77" d="M 269 3500 
L 844 3500 
L 1563 769 
L 2278 3500 
L 2956 3500 
L 3675 769 
L 4391 3500 
L 4966 3500 
L 4050 0 
L 3372 0 
L 2619 2869 
L 1863 0 
L 1184 0 
L 269 3500 
z
" transform="scale(0.015625)"/>
      <path id="DejaVuSans-28" d="M 1984 4856 
Q 1566 4138 1362 3434 
Q 1159 2731 1159 2009 
Q 1159 1288 1364 580 
Q 1569 -128 1984 -844 
L 1484 -844 
Q 1016 -109 783 600 
Q 550 1309 550 2009 
Q 550 2706 781 3412 
Q 1013 4119 1484 4856 
L 1984 4856 
z
" transform="scale(0.015625)"/>
      <path id="DejaVuSans-6d" d="M 3328 2828 
Q 3544 3216 3844 3400 
Q 4144 3584 4550 3584 
Q 5097 3584 5394 3201 
Q 5691 2819 5691 2113 
L 5691 0 
L 5113 0 
L 5113 2094 
Q 5113 2597 4934 2840 
Q 4756 3084 4391 3084 
Q 3944 3084 3684 2787 
Q 3425 2491 3425 1978 
L 3425 0 
L 2847 0 
L 2847 2094 
Q 2847 2600 2669 2842 
Q 2491 3084 2119 3084 
Q 1678 3084 1418 2786 
Q 1159 2488 1159 1978 
L 1159 0 
L 581 0 
L 581 3500 
L 1159 3500 
L 1159 2956 
Q 1356 3278 1631 3431 
Q 1906 3584 2284 3584 
Q 2666 3584 2933 3390 
Q 3200 3197 3328 2828 
z
" transform="scale(0.015625)"/>
      <path id="DejaVuSans-3d" d="M 678 2906 
L 4684 2906 
L 4684 2381 
L 678 2381 
L 678 2906 
z
M 678 1631 
L 4684 1631 
L 4684 1100 
L 678 1100 
L 678 1631 
z
" transform="scale(0.015625)"/>
      <path id="DejaVuSans-29" d="M 513 4856 
L 1013 4856 
Q 1481 4119 1714 3412 
Q 1947 2706 1947 2009 
Q 1947 1309 1714 600 
Q 1481 -109 1013 -844 
L 513 -844 
Q 928 -128 1133 580 
Q 1338 1288 1338 2009 
Q 1338 2731 1133 3434 
Q 928 4138 513 4856 
z
" transform="scale(0.015625)"/>
     </defs>
     <use xlink:href="#DejaVuSans-51"/>
     <use xlink:href="#DejaVuSans-75" transform="translate(78.710938 0)"/>
     <use xlink:href="#DejaVuSans-69" transform="translate(142.089844 0)"/>
     <use xlink:href="#DejaVuSans-63" transform="translate(169.873047 0)"/>
     <use xlink:href="#DejaVuSans-6b" transform="translate(224.853516 0)"/>
     <use xlink:href="#DejaVuSans-44" transform="translate(282.763672 0)"/>
     <use xlink:href="#DejaVuSans-72" transform="translate(359.765625 0)"/>
     <use xlink:href="#DejaVuSans-61" transform="translate(400.878906 0)"/>
     <use xlink:href="#DejaVuSans-77" transform="translate(462.158203 0)"/>
     <use xlink:href="#DejaVuSans-20" transform="translate(543.945312 0)"/>
     <use xlink:href="#DejaVuSans-20" transform="translate(575.732422 0)"/>
     <use xlink:href="#DejaVuSans-28" transform="translate(607.519531 0)"/>
     <use xlink:href="#DejaVuSans-6d" transform="translate(646.533203 0)"/>
     <use xlink:href="#DejaVuSans-3d" transform="translate(743.945312 0)"/>
     <use xlink:href="#DejaVuSans-6e" transform="translate(827.734375 0)"/>
     <use xlink:href="#DejaVuSans-3d" transform="translate(891.113281 0)"/>
     <use xlink:href="#DejaVuSans-35" transform="translate(974.902344 0)"/>
     <use xlink:href="#DejaVuSans-29" transform="translate(1038.525391 0)"/>
    </g>
   </g>
   <g id="legend_1">
    <g id="line2d_33">
     <path d="M 144.630426 128.883601 
L 152.130426 128.883601 
L 159.630426 128.883601 
" style="fill: none; stroke: #0072b2; stroke-width: 1.3; stroke-linecap: square"/>
    </g>
    <g id="text_13">
     <!-- block-growth -->
     <g transform="translate(165.630426 131.508601) scale(0.075 -0.075)">
      <defs>
       <path id="DejaVuSans-62" d="M 3116 1747 
Q 3116 2381 2855 2742 
Q 2594 3103 2138 3103 
Q 1681 3103 1420 2742 
Q 1159 2381 1159 1747 
Q 1159 1113 1420 752 
Q 1681 391 2138 391 
Q 2594 391 2855 752 
Q 3116 1113 3116 1747 
z
M 1159 2969 
Q 1341 3281 1617 3432 
Q 1894 3584 2278 3584 
Q 2916 3584 3314 3078 
Q 3713 2572 3713 1747 
Q 3713 922 3314 415 
Q 2916 -91 2278 -91 
Q 1894 -91 1617 61 
Q 1341 213 1159 525 
L 1159 0 
L 581 0 
L 581 4863 
L 1159 4863 
L 1159 2969 
z
" transform="scale(0.015625)"/>
       <path id="DejaVuSans-67" d="M 2906 1791 
Q 2906 2416 2648 2759 
Q 2391 3103 1925 3103 
Q 1463 3103 1205 2759 
Q 947 2416 947 1791 
Q 947 1169 1205 825 
Q 1463 481 1925 481 
Q 2391 481 2648 825 
Q 2906 1169 2906 1791 
z
M 3481 434 
Q 3481 -459 3084 -895 
Q 2688 -1331 1869 -1331 
Q 1566 -1331 1297 -1286 
Q 1028 -1241 775 -1147 
L 775 -588 
Q 1028 -725 1275 -790 
Q 1522 -856 1778 -856 
Q 2344 -856 2625 -561 
Q 2906 -266 2906 331 
L 2906 616 
Q 2728 306 2450 153 
Q 2172 0 1784 0 
Q 1141 0 747 490 
Q 353 981 353 1791 
Q 353 2603 747 3093 
Q 1141 3584 1784 3584 
Q 2172 3584 2450 3431 
Q 2728 3278 2906 2969 
L 2906 3500 
L 3481 3500 
L 3481 434 
z
" transform="scale(0.015625)"/>
       <path id="DejaVuSans-68" d="M 3513 2113 
L 3513 0 
L 2938 0 
L 2938 2094 
Q 2938 2591 2744 2837 
Q 2550 3084 2163 3084 
Q 1697 3084 1428 2787 
Q 1159 2491 1159 1978 
L 1159 0 
L 581 0 
L 581 4863 
L 1159 4863 
L 1159 2956 
Q 1366 3272 1645 3428 
Q 1925 3584 2291 3584 
Q 2894 3584 3203 3211 
Q 3513 2838 3513 2113 
z
" transform="scale(0.015625)"/>
      </defs>
      <use xlink:href="#DejaVuSans-62"/>
      <use xlink:href="#DejaVuSans-6c" transform="translate(63.476562 0)"/>
      <use xlink:href="#DejaVuSans-6f" transform="translate(91.259766 0)"/>
      <use xlink:href="#DejaVuSans-63" transform="translate(152.441406 0)"/>
      <use xlink:href="#DejaVuSans-6b" transform="translate(207.421875 0)"/>
      <use xlink:href="#DejaVuSans-2d" transform="translate(265.332031 0)"/>
      <use xlink:href="#DejaVuSans-67" transform="translate(301.416016 0)"/>
      <use xlink:href="#DejaVuSans-72" transform="translate(364.892578 0)"/>
      <use xlink:href="#DejaVuSans-6f" transform="translate(403.755859 0)"/>
      <use xlink:href="#DejaVuSans-77" transform="translate(464.9375 0)"/>
      <use xlink:href="#DejaVuSans-74" transform="translate(546.724609 0)"/>
      <use xlink:href="#DejaVuSans-68" transform="translate(585.933594 0)"/>
     </g>
    </g>
    <g id="line2d_34">
     <path d="M 144.630426 139.892195 
L 152.130426 139.892195 
L 159.630426 139.892195 
" style="fill: none; stroke-dasharray: 4.81,2.08; stroke-dashoffset: 0; stroke: #e69f00; stroke-width: 1.3"/>
    </g>
    <g id="text_14">
     <!-- left→right -->
     <g transform="translate(165.630426 142.517195) scale(0.075 -0.075)">
      <defs>
       <path id="DejaVuSans-66" d="M 2375 4863 
L 2375 4384 
L 1825 4384 
Q 1516 4384 1395 4259 
Q 1275 4134 1275 3809 
L 1275 3500 
L 2222 3500 
L 2222 3053 
L 1275 3053 
L 1275 0 
L 697 0 
L 697 3053 
L 147 3053 
L 147 3500 
L 697 3500 
L 697 3744 
Q 697 4328 969 4595 
Q 1241 4863 1831 4863 
L 2375 4863 
z
" transform="scale(0.015625)"/>
       <path id="DejaVuSans-2192" d="M 5050 2147 
L 5050 1866 
L 3822 638 
L 3447 1013 
L 4175 1741 
L 366 1741 
L 366 2272 
L 4175 2272 
L 3447 3000 
L 3822 3375 
L 5050 2147 
z
" transform="scale(0.015625)"/>
      </defs>
      <use xlink:href="#DejaVuSans-6c"/>
      <use xlink:href="#DejaVuSans-65" transform="translate(27.783203 0)"/>
      <use xlink:href="#DejaVuSans-66" transform="translate(89.306641 0)"/>
      <use xlink:href="#DejaVuSans-74" transform="translate(122.761719 0)"/>
      <use xlink:href="#DejaVuSans-2192" transform="translate(161.970703 0)"/>
      <use xlink:href="#DejaVuSans-72" transform="translate(245.759766 0)"/>
      <use xlink:href="#DejaVuSans-69" transform="translate(286.873047 0)"/>
      <use xlink:href="#DejaVuSans-67" transform="translate(314.65625 0)"/>
      <use xlink:href="#DejaVuSans-68" transform="translate(378.132812 0)"/>
      <use xlink:href="#DejaVuSans-74" transform="translate(441.511719 0)"/>
     </g>
    </g>
    <g id="line2d_35">
     <path d="M 144.630426 150.900789 
L 152.130426 150.900789 
L 159.630426 150.900789 
" style="fill: none; stroke-dasharray: 8.32,2.08,1.3,2.08; stroke-dashoffset: 0; stroke: #009e73; stroke-width: 1.3"/>
    </g>
    <g id="text_15">
     <!-- right→left -->
     <g transform="translate(165.630426 153.525789) scale(0.075 -0.075)">
      <use xlink:href="#DejaVuSans-72"/>
      <use xlink:href="#DejaVuSans-69" transform="translate(41.113281 0)"/>
      <use xlink:href="#DejaVuSans-67" transform="translate(68.896484 0)"/>
      <use xlink:href="#DejaVuSans-68" transform="translate(132.373047 0)"/>
      <use xlink:href="#DejaVuSans-74" transform="translate(195.751953 0)"/>
      <use xlink:href="#DejaVuSans-2192" transform="translate(234.960938 0)"/>
      <use xlink:href="#DejaVuSans-6c" transform="translate(318.75 0)"/>
      <use xlink:href="#DejaVuSans-65" transform="translate(346.533203 0)"/>
      <use xlink:href="#DejaVuSans-66" transform="translate(408.056641 0)"/>
      <use xlink:href="#DejaVuSans-74" transform="translate(441.511719 0)"/>
     </g>
    </g>
   </g>
  </g>
  <g id="axes_2">
   <g id="patch_7">
    <path d="M 44.870906 319.838594 
L 221.078864 319.838594 
L 221.078864 178.041633 
L 44.870906 178.041633 
z
" style="fill: #ffffff"/>
   </g>
   <g id="matplotlib.axis_3">
    <g id="xtick_7">
     <g id="line2d_36">
      <path d="M 52.815002 319.838594 
L 52.815002 178.041633 
" clip-path="url(#pd8e1a95df1)" style="fill: none; stroke: #b0b0b0; stroke-opacity: 0.25; stroke-width: 0.5; stroke-linecap: square"/>
     </g>
     <g id="line2d_37">
      <g>
       <use xlink:href="#me74df7a845" x="52.815002" y="319.838594" style="stroke: #000000; stroke-width: 0.8"/>
      </g>
     </g>
     <g id="text_16">
      <!-- 0 -->
      <g transform="translate(50.588127 332.1575) scale(0.07 -0.07)">
       <use xlink:href="#DejaVuSans-30"/>
      </g>
     </g>
    </g>
    <g id="xtick_8">
     <g id="line2d_38">
      <path d="M 85.493307 319.838594 
L 85.493307 178.041633 
" clip-path="url(#pd8e1a95df1)" style="fill: none; stroke: #b0b0b0; stroke-opacity: 0.25; stroke-width: 0.5; stroke-linecap: square"/>
     </g>
     <g id="line2d_39">
      <g>
       <use xlink:href="#me74df7a845" x="85.493307" y="319.838594" style="stroke: #000000; stroke-width: 0.8"/>
      </g>
     </g>
     <g id="text_17">
      <!-- 500 -->
      <g transform="translate(78.812682 332.1575) scale(0.07 -0.07)">
       <use xlink:href="#DejaVuSans-35"/>
       <use xlink:href="#DejaVuSans-30" transform="translate(63.623047 0)"/>
       <use xlink:href="#DejaVuSans-30" transform="translate(127.246094 0)"/>
      </g>
     </g>
    </g>
    <g id="xtick_9">
     <g id="line2d_40">
      <path d="M 118.171613 319.838594 
L 118.171613 178.041633 
" clip-path="url(#pd8e1a95df1)" style="fill: none; stroke: #b0b0b0; stroke-opacity: 0.25; stroke-width: 0.5; stroke-linecap: square"/>
     </g>
     <g id="line2d_41">
      <g>
       <use xlink:href="#me74df7a845" x="118.171613" y="319.838594" style="stroke: #000000; stroke-width: 0.8"/>
      </g>
     </g>
     <g id="text_18">
      <!-- 1000 -->
      <g transform="translate(109.264113 332.1575) scale(0.07 -0.07)">
       <use xlink:href="#DejaVuSans-31"/>
       <use xlink:href="#DejaVuSans-30" transform="translate(63.623047 0)"/>
       <use xlink:href="#DejaVuSans-30" transform="translate(127.246094 0)"/>
       <use xlink:href="#DejaVuSans-30" transform="translate(190.869141 0)"/>
      </g>
     </g>
    </g>
    <g id="xtick_10">
     <g id="line2d_42">
      <path d="M 150.849918 319.838594 
L 150.849918 178.041633 
" clip-path="url(#pd8e1a95df1)" style="fill: none; stroke: #b0b0b0; stroke-opacity: 0.25; stroke-width: 0.5; stroke-linecap: square"/>
     </g>
     <g id="line2d_43">
      <g>
       <use xlink:href="#me74df7a845" x="150.849918" y="319.838594" style="stroke: #000000; stroke-width: 0.8"/>
      </g>
     </g>
     <g id="text_19">
      <!-- 1500 -->
      <g transform="translate(141.942418 332.1575) scale(0.07 -0.07)">
       <use xlink:href="#DejaVuSans-31"/>
       <use xlink:href="#DejaVuSans-35" transform="translate(63.623047 0)"/>
       <use xlink:href="#DejaVuSans-30" transform="translate(127.246094 0)"/>
       <use xlink:href="#DejaVuSans-30" transform="translate(190.869141 0)"/>
      </g>
     </g>
    </g>
    <g id="xtick_11">
     <g id="line2d_44">
      <path d="M 183.528223 319.838594 
L 183.528223 178.041633 
" clip-path="url(#pd8e1a95df1)" style="fill: none; stroke: #b0b0b0; stroke-opacity: 0.25; stroke-width: 0.5; stroke-linecap: square"/>
     </g>
     <g id="line2d_45">
      <g>
       <use xlink:href="#me74df7a845" x="183.528223" y="319.838594" style="stroke: #000000; stroke-width: 0.8"/>
      </g>
     </g>
     <g id="text_20">
      <!-- 2000 -->
      <g transform="translate(174.620723 332.1575) scale(0.07 -0.07)">
       <use xlink:href="#DejaVuSans-32"/>
       <use xlink:href="#DejaVuSans-30" transform="translate(63.623047 0)"/>
       <use xlink:href="#DejaVuSans-30" transform="translate(127.246094 0)"/>
       <use xlink:href="#DejaVuSans-30" transform="translate(190.869141 0)"/>
      </g>
     </g>
    </g>
    <g id="xtick_12">
     <g id="line2d_46">
      <path d="M 216.206528 319.838594 
L 216.206528 178.041633 
" clip-path="url(#pd8e1a95df1)" style="fill: none; stroke: #b0b0b0; stroke-opacity: 0.25; stroke-width: 0.5; stroke-linecap: square"/>
     </g>
     <g id="line2d_47">
      <g>
       <use xlink:href="#me74df7a845" x="216.206528" y="319.838594" style="stroke: #000000; stroke-width: 0.8"/>
      </g>
     </g>
     <g id="text_21">
      <!-- 2500 -->
      <g transform="translate(207.299028 332.1575) scale(0.07 -0.07)">
       <use xlink:href="#DejaVuSans-32"/>
       <use xlink:href="#DejaVuSans-35" transform="translate(63.623047 0)"/>
       <use xlink:href="#DejaVuSans-30" transform="translate(127.246094 0)"/>
       <use xlink:href="#DejaVuSans-30" transform="translate(190.869141 0)"/>
      </g>
     </g>
    </g>
    <g id="text_22">
     <!-- cumulative training step -->
     <g transform="translate(84.04801 343.692031) scale(0.08 -0.08)">
      <defs>
       <path id="DejaVuSans-76" d="M 191 3500 
L 800 3500 
L 1894 563 
L 2988 3500 
L 3597 3500 
L 2284 0 
L 1503 0 
L 191 3500 
z
" transform="scale(0.015625)"/>
      </defs>
      <use xlink:href="#DejaVuSans-63"/>
      <use xlink:href="#DejaVuSans-75" transform="translate(54.980469 0)"/>
      <use xlink:href="#DejaVuSans-6d" transform="translate(118.359375 0)"/>
      <use xlink:href="#DejaVuSans-75" transform="translate(215.771484 0)"/>
      <use xlink:href="#DejaVuSans-6c" transform="translate(279.150391 0)"/>
      <use xlink:href="#DejaVuSans-61" transform="translate(306.933594 0)"/>
      <use xlink:href="#DejaVuSans-74" transform="translate(368.212891 0)"/>
      <use xlink:href="#DejaVuSans-69" transform="translate(407.421875 0)"/>
      <use xlink:href="#DejaVuSans-76" transform="translate(435.205078 0)"/>
      <use xlink:href="#DejaVuSans-65" transform="translate(494.384766 0)"/>
      <use xlink:href="#DejaVuSans-20" transform="translate(555.908203 0)"/>
      <use xlink:href="#DejaVuSans-74" transform="translate(587.695312 0)"/>
      <use xlink:href="#DejaVuSans-72" transform="translate(626.904297 0)"/>
      <use xlink:href="#DejaVuSans-61" transform="translate(668.017578 0)"/>
      <use xlink:href="#DejaVuSans-69" transform="translate(729.296875 0)"/>
      <use xlink:href="#DejaVuSans-6e" transform="translate(757.080078 0)"/>
      <use xlink:href="#DejaVuSans-69" transform="translate(820.458984 0)"/>
      <use xlink:href="#DejaVuSans-6e" transform="translate(848.242188 0)"/>
      <use xlink:href="#DejaVuSans-67" transform="translate(911.621094 0)"/>
      <use xlink:href="#DejaVuSans-20" transform="translate(975.097656 0)"/>
      <use xlink:href="#DejaVuSans-73" transform="translate(1006.884766 0)"/>
      <use xlink:href="#DejaVuSans-74" transform="translate(1058.984375 0)"/>
      <use xlink:href="#DejaVuSans-65" transform="translate(1098.193359 0)"/>
      <use xlink:href="#DejaVuSans-70" transform="translate(1159.716797 0)"/>
     </g>
    </g>
   </g>
   <g id="matplotlib.axis_4">
    <g id="ytick_8">
     <g id="line2d_48">
      <path d="M 44.870906 304.563592 
L 221.078864 304.563592 
" clip-path="url(#pd8e1a95df1)" style="fill: none; stroke: #b0b0b0; stroke-opacity: 0.25; stroke-width: 0.5; stroke-linecap: square"/>
     </g>
     <g id="line2d_49">
      <g>
       <use xlink:href="#m43f2f73b7d" x="44.870906" y="304.563592" style="stroke: #000000; stroke-width: 0.8"/>
      </g>
     </g>
     <g id="text_23">
      <!-- 10 -->
      <g transform="translate(28.963406 307.223045) scale(0.07 -0.07)">
       <use xlink:href="#DejaVuSans-31"/>
       <use xlink:href="#DejaVuSans-30" transform="translate(63.623047 0)"/>
      </g>
     </g>
    </g>
    <g id="ytick_9">
     <g id="line2d_50">
      <path d="M 44.870906 286.645602 
L 221.078864 286.645602 
" clip-path="url(#pd8e1a95df1)" style="fill: none; stroke: #b0b0b0; stroke-opacity: 0.25; stroke-width: 0.5; stroke-linecap: square"/>
     </g>
     <g id="line2d_51">
      <g>
       <use xlink:href="#m43f2f73b7d" x="44.870906" y="286.645602" style="stroke: #000000; stroke-width: 0.8"/>
      </g>
     </g>
     <g id="text_24">
      <!-- 15 -->
      <g transform="translate(28.963406 289.305055) scale(0.07 -0.07)">
       <use xlink:href="#DejaVuSans-31"/>
       <use xlink:href="#DejaVuSans-35" transform="translate(63.623047 0)"/>
      </g>
     </g>
    </g>
    <g id="ytick_10">
     <g id="line2d_52">
      <path d="M 44.870906 268.727611 
L 221.078864 268.727611 
" clip-path="url(#pd8e1a95df1)" style="fill: none; stroke: #b0b0b0; stroke-opacity: 0.25; stroke-width: 0.5; stroke-linecap: square"/>
     </g>
     <g id="line2d_53">
      <g>
       <use xlink:href="#m43f2f73b7d" x="44.870906" y="268.727611" style="stroke: #000000; stroke-width: 0.8"/>
      </g>
     </g>
     <g id="text_25">
      <!-- 20 -->
      <g transform="translate(28.963406 271.387064) scale(0.07 -0.07)">
       <use xlink:href="#DejaVuSans-32"/>
       <use xlink:href="#DejaVuSans-30" transform="translate(63.623047 0)"/>
      </g>
     </g>
    </g>
    <g id="ytick_11">
     <g id="line2d_54">
      <path d="M 44.870906 250.80962 
L 221.078864 250.80962 
" clip-path="url(#pd8e1a95df1)" style="fill: none; stroke: #b0b0b0; stroke-opacity: 0.25; stroke-width: 0.5; stroke-linecap: square"/>
     </g>
     <g id="line2d_55">
      <g>
       <use xlink:href="#m43f2f73b7d" x="44.870906" y="250.80962" style="stroke: #000000; stroke-width: 0.8"/>
      </g>
     </g>
     <g id="text_26">
      <!-- 25 -->
      <g transform="translate(28.963406 253.469073) scale(0.07 -0.07)">
       <use xlink:href="#DejaVuSans-32"/>
       <use xlink:href="#DejaVuSans-35" transform="translate(63.623047 0)"/>
      </g>
     </g>
    </g>
    <g id="ytick_12">
     <g id="line2d_56">
      <path d="M 44.870906 232.89163 
L 221.078864 232.89163 
" clip-path="url(#pd8e1a95df1)" style="fill: none; stroke: #b0b0b0; stroke-opacity: 0.25; stroke-width: 0.5; stroke-linecap: square"/>
     </g>
     <g id="line2d_57">
      <g>
       <use xlink:href="#m43f2f73b7d" x="44.870906" y="232.89163" style="stroke: #000000; stroke-width: 0.8"/>
      </g>
     </g>
     <g id="text_27">
      <!-- 30 -->
      <g transform="translate(28.963406 235.551083) scale(0.07 -0.07)">
       <use xlink:href="#DejaVuSans-33"/>
       <use xlink:href="#DejaVuSans-30" transform="translate(63.623047 0)"/>
      </g>
     </g>
    </g>
    <g id="ytick_13">
     <g id="line2d_58">
      <path d="M 44.870906 214.973639 
L 221.078864 214.973639 
" clip-path="url(#pd8e1a95df1)" style="fill: none; stroke: #b0b0b0; stroke-opacity: 0.25; stroke-width: 0.5; stroke-linecap: square"/>
     </g>
     <g id="line2d_59">
      <g>
       <use xlink:href="#m43f2f73b7d" x="44.870906" y="214.973639" style="stroke: #000000; stroke-width: 0.8"/>
      </g>
     </g>
     <g id="text_28">
      <!-- 35 -->
      <g transform="translate(28.963406 217.633092) scale(0.07 -0.07)">
       <use xlink:href="#DejaVuSans-33"/>
       <use xlink:href="#DejaVuSans-35" transform="translate(63.623047 0)"/>
      </g>
     </g>
    </g>
    <g id="ytick_14">
     <g id="line2d_60">
      <path d="M 44.870906 197.055648 
L 221.078864 197.055648 
" clip-path="url(#pd8e1a95df1)" style="fill: none; stroke: #b0b0b0; stroke-opacity: 0.25; stroke-width: 0.5; stroke-linecap: square"/>
     </g>
     <g id="line2d_61">
      <g>
       <use xlink:href="#m43f2f73b7d" x="44.870906" y="197.055648" style="stroke: #000000; stroke-width: 0.8"/>
      </g>
     </g>
     <g id="text_29">
      <!-- 40 -->
      <g transform="translate(28.963406 199.715101) scale(0.07 -0.07)">
       <use xlink:href="#DejaVuSans-34"/>
       <use xlink:href="#DejaVuSans-30" transform="translate(63.623047 0)"/>
      </g>
     </g>
    </g>
    <g id="ytick_15">
     <g id="line2d_62">
      <path d="M 44.870906 179.137657 
L 221.078864 179.137657 
" clip-path="url(#pd8e1a95df1)" style="fill: none; stroke: #b0b0b0; stroke-opacity: 0.25; stroke-width: 0.5; stroke-linecap: square"/>
     </g>
     <g id="line2d_63">
      <g>
       <use xlink:href="#m43f2f73b7d" x="44.870906" y="179.137657" style="stroke: #000000; stroke-width: 0.8"/>
      </g>
     </g>
     <g id="text_30">
      <!-- 45 -->
      <g transform="translate(28.963406 181.797111) scale(0.07 -0.07)">
       <use xlink:href="#DejaVuSans-34"/>
       <use xlink:href="#DejaVuSans-35" transform="translate(63.623047 0)"/>
      </g>
     </g>
    </g>
    <g id="text_31">
     <!-- random init -->
     <g transform="translate(13.658672 273.495153) rotate(-90) scale(0.085 -0.085)">
      <use xlink:href="#DejaVuSans-72"/>
      <use xlink:href="#DejaVuSans-61" transform="translate(41.113281 0)"/>
      <use xlink:href="#DejaVuSans-6e" transform="translate(102.392578 0)"/>
      <use xlink:href="#DejaVuSans-64" transform="translate(165.771484 0)"/>
      <use xlink:href="#DejaVuSans-6f" transform="translate(229.248047 0)"/>
      <use xlink:href="#DejaVuSans-6d" transform="translate(290.429688 0)"/>
      <use xlink:href="#DejaVuSans-20" transform="translate(387.841797 0)"/>
      <use xlink:href="#DejaVuSans-69" transform="translate(419.628906 0)"/>
      <use xlink:href="#DejaVuSans-6e" transform="translate(447.412109 0)"/>
      <use xlink:href="#DejaVuSans-69" transform="translate(510.791016 0)"/>
      <use xlink:href="#DejaVuSans-74" transform="translate(538.574219 0)"/>
     </g>
     <!-- top-$k$ MSE loss -->
     <g transform="translate(23.178406 279.880113) rotate(-90) scale(0.085 -0.085)">
      <use xlink:href="#DejaVuSans-74" transform="translate(0 0.015625)"/>
      <use xlink:href="#DejaVuSans-6f" transform="translate(39.208984 0.015625)"/>
      <use xlink:href="#DejaVuSans-70" transform="translate(100.390625 0.015625)"/>
      <use xlink:href="#DejaVuSans-2d" transform="translate(163.867188 0.015625)"/>
      <use xlink:href="#DejaVuSans-Oblique-6b" transform="translate(199.951172 0.015625)"/>
      <use xlink:href="#DejaVuSans-20" transform="translate(257.861328 0.015625)"/>
      <use xlink:href="#DejaVuSans-4d" transform="translate(289.648438 0.015625)"/>
      <use xlink:href="#DejaVuSans-53" transform="translate(375.927734 0.015625)"/>
      <use xlink:href="#DejaVuSans-45" transform="translate(439.404297 0.015625)"/>
      <use xlink:href="#DejaVuSans-20" transform="translate(502.587891 0.015625)"/>
      <use xlink:href="#DejaVuSans-6c" transform="translate(534.375 0.015625)"/>
      <use xlink:href="#DejaVuSans-6f" transform="translate(562.158203 0.015625)"/>
      <use xlink:href="#DejaVuSans-73" transform="translate(623.339844 0.015625)"/>
      <use xlink:href="#DejaVuSans-73" transform="translate(675.439453 0.015625)"/>
     </g>
    </g>
   </g>
   <g id="line2d_64">
    <path d="M 52.880359 184.48695 
L 56.344259 197.795606 
L 57.193895 199.944533 
L 57.912818 201.216915 
L 58.631741 202.053294 
L 59.350663 202.56264 
L 60.200299 202.875422 
L 61.311362 203.027848 
L 63.794913 203.070701 
L 64.187052 203.07096 
L 64.448479 205.65924 
L 65.559541 218.810464 
L 65.951681 220.850233 
L 66.278464 221.565661 
L 66.605247 221.77039 
L 67.1281 221.738597 
L 68.043092 221.731045 
L 70.069147 221.964689 
L 70.39593 222.368381 
L 70.78807 223.275199 
L 71.310923 225.169694 
L 73.010195 232.087087 
L 73.402335 232.626342 
L 73.794474 232.756874 
L 76.931592 232.879445 
L 78.042654 233.804306 
L 78.565507 233.943223 
L 80.003352 233.945131 
L 81.245128 233.953932 
L 81.375841 234.370958 
L 81.702624 236.179518 
L 83.009756 244.642341 
L 83.271183 244.884756 
L 83.597966 244.739047 
L 83.990105 244.629004 
L 84.578315 244.797723 
L 85.231881 244.885957 
L 87.584719 244.982088 
L 88.891851 245.005403 
L 89.153278 245.062219 
L 89.8722 246.624434 
L 90.329697 247.099157 
L 90.787193 247.235885 
L 92.159682 247.24985 
L 96.669288 247.283379 
L 96.865358 247.228147 
L 97.322854 247.288762 
L 98.36856 247.452546 
L 98.826056 247.857399 
L 99.152839 247.950942 
L 100.525328 247.970512 
L 101.701747 248.066788 
L 101.963173 248.138666 
L 102.289956 248.180139 
L 104.512081 248.185245 
L 104.577438 248.138515 
L 104.838864 248.495168 
L 105.623144 249.06803 
L 106.734206 249.182749 
L 107.322415 251.732225 
L 107.649198 252.510707 
L 107.910625 252.743336 
L 108.237408 252.762093 
L 109.021687 252.701927 
L 111.113099 252.778848 
L 111.178455 252.641121 
L 111.243812 252.778658 
L 111.309169 252.667159 
L 111.766665 252.754702 
L 112.093448 252.751722 
L 113.00844 252.777438 
L 114.380929 252.781378 
L 114.446286 252.647328 
L 114.511643 252.780502 
L 114.576999 252.668914 
L 114.969139 252.780405 
L 115.230565 252.78154 
L 115.688062 252.770491 
L 116.406984 252.78214 
L 118.825179 252.783947 
L 121.374087 252.852043 
L 121.439443 252.818443 
L 122.289079 255.993594 
L 122.811932 257.612926 
L 123.922994 260.147197 
L 125.16477 265.101145 
L 125.491553 265.32818 
L 125.949049 265.342026 
L 126.864042 265.334502 
L 128.955453 265.389588 
L 130.524012 265.392958 
L 130.589369 265.237321 
L 130.654725 265.383076 
L 130.720082 265.256669 
L 130.785439 265.315184 
L 130.916152 265.331966 
L 131.242935 265.355316 
L 131.635074 265.388638 
L 132.353997 265.393425 
L 134.314696 265.398799 
L 134.380052 265.204998 
L 134.445409 265.397496 
L 134.510765 265.237652 
L 134.576122 265.27509 
L 134.641479 265.390122 
L 134.706835 265.350333 
L 134.837548 265.340659 
L 134.968262 265.365708 
L 135.098975 265.358323 
L 135.295045 265.35762 
L 136.406107 265.397229 
L 137.3211 265.403151 
L 137.386456 265.222603 
L 137.451813 265.406433 
L 137.517169 265.264792 
L 137.909309 265.433218 
L 138.105379 265.431614 
L 138.497519 265.486761 
L 139.085728 265.551162 
L 140.850357 265.619692 
L 140.98107 266.996436 
L 141.242496 271.458572 
L 142.288202 289.71599 
L 142.549628 290.557317 
L 142.680342 290.544743 
L 143.399264 290.059885 
L 143.922117 290.410593 
L 144.379614 290.577346 
L 145.752102 290.577358 
L 146.601738 290.588038 
L 146.667095 290.40519 
L 146.732452 290.574104 
L 146.797808 290.435932 
L 147.189948 290.581002 
L 147.451374 290.580804 
L 148.170297 290.576854 
L 149.608142 290.58874 
L 150.065639 290.589199 
L 150.130995 290.41175 
L 150.196352 290.580302 
L 150.261708 290.435882 
L 150.327065 290.47578 
L 150.457778 290.544073 
L 150.588492 290.528414 
L 150.719205 290.563521 
L 150.849918 290.549654 
L 151.045988 290.553163 
L 152.287763 290.586802 
L 153.333469 290.589821 
L 153.398826 290.360138 
L 153.464182 290.589029 
L 153.529539 290.402196 
L 153.594896 290.446913 
L 153.660252 290.580095 
L 153.725609 290.530623 
L 153.856322 290.528299 
L 153.987035 290.54718 
L 154.117748 290.54887 
L 154.313818 290.544706 
L 155.032741 290.589549 
L 156.928083 290.591701 
L 157.124153 290.591887 
L 157.189509 290.340839 
L 157.254866 290.591608 
L 157.320222 290.386392 
L 157.385579 290.429777 
L 157.450936 290.581439 
L 157.516292 290.533201 
L 157.581649 290.44935 
L 157.647005 290.516449 
L 157.777719 290.550769 
L 157.908432 290.53862 
L 158.039145 290.573853 
L 158.235215 290.58304 
L 159.738417 290.662347 
L 160.326626 297.433583 
L 161.372332 311.88964 
L 161.568402 312.17676 
L 161.764472 311.976998 
L 162.091255 311.605977 
L 162.352681 311.660569 
L 163.136961 312.185213 
L 164.11731 312.165618 
L 165.163016 312.196079 
L 165.228372 311.93106 
L 165.293729 312.183873 
L 165.359085 311.992673 
L 165.424442 312.041188 
L 165.555155 312.132086 
L 165.685869 312.115986 
L 165.816582 312.160163 
L 166.012652 312.178132 
L 167.58121 312.199217 
L 167.646567 311.973135 
L 167.711923 312.199707 
L 167.77728 312.022334 
L 167.842637 312.076052 
L 167.907993 312.193308 
L 167.97335 312.131801 
L 168.104063 312.158248 
L 168.36549 312.176653 
L 168.757629 312.18608 
L 169.868692 312.202614 
L 170.391544 312.204898 
L 170.456901 312.000543 
L 170.522258 312.198213 
L 170.587614 312.022211 
L 170.652971 312.086856 
L 170.718328 312.189201 
L 170.783684 312.135788 
L 170.914397 312.158463 
L 171.045111 312.151713 
L 171.371894 312.163079 
L 171.764033 312.203231 
L 173.136522 312.206871 
L 173.201879 311.931521 
L 173.267235 312.203418 
L 173.332592 311.979825 
L 173.397949 312.043732 
L 173.463305 312.20089 
L 173.528662 312.127688 
L 173.594018 312.053983 
L 173.659375 312.142081 
L 173.790088 312.14775 
L 173.920801 312.16662 
L 174.051515 312.175332 
L 174.247585 312.203611 
L 175.031864 312.200879 
L 176.338996 312.209138 
L 176.338996 312.209138 
" clip-path="url(#pd8e1a95df1)" style="fill: none; stroke: #0072b2; stroke-width: 1.3; stroke-linecap: square"/>
   </g>
   <g id="line2d_65">
    <path d="M 176.338996 312.209138 
" clip-path="url(#pd8e1a95df1)" style="fill: none; stroke: #0072b2; stroke-width: 1.5; stroke-linecap: square"/>
    <g clip-path="url(#pd8e1a95df1)">
     <use xlink:href="#mc2819d6e76" x="176.338996" y="312.209138" style="fill: #0072b2; stroke: #0072b2"/>
    </g>
   </g>
   <g id="line2d_66">
    <path d="M 52.880359 184.48695 
L 56.344259 197.795606 
L 57.193895 199.944533 
L 57.912818 201.216915 
L 58.631741 202.053294 
L 59.350663 202.56264 
L 60.200299 202.875422 
L 61.311362 203.027848 
L 63.794913 203.070701 
L 74.44804 203.191245 
L 82.35619 203.372266 
L 84.382245 204.013237 
L 87.388649 205.189056 
L 88.695781 205.34936 
L 91.636829 205.399848 
L 95.623582 205.517899 
L 96.865358 206.0998 
L 97.714994 206.17016 
L 100.721398 206.25022 
L 100.982824 206.948359 
L 101.309607 208.577389 
L 101.767103 212.309625 
L 102.682096 220.341449 
L 102.943522 221.187778 
L 103.139592 221.342812 
L 103.401019 221.209189 
L 103.793158 221.044532 
L 104.185298 221.191892 
L 105.034934 221.573978 
L 106.734206 221.896658 
L 114.707712 222.484629 
L 116.276271 222.627244 
L 116.929837 222.70533 
L 117.25662 222.781815 
L 124.315134 223.010827 
L 125.687623 223.088701 
L 126.014406 223.222224 
L 126.537259 223.313084 
L 128.040461 223.536126 
L 130.131872 223.658284 
L 130.654725 223.701584 
L 131.112222 224.618663 
L 132.027214 225.67243 
L 132.419354 225.838226 
L 135.098975 226.270195 
L 139.347155 226.287616 
L 140.523574 226.368789 
L 141.046426 226.537199 
L 142.157489 226.861118 
L 143.268551 226.992794 
L 144.2489 226.990226 
L 144.44497 229.209747 
L 145.556033 245.668637 
L 145.817459 246.779971 
L 146.013529 247.029461 
L 146.274955 246.976928 
L 146.797808 246.76058 
L 147.255304 246.865359 
L 148.039584 247.042187 
L 149.150646 247.042269 
L 149.346716 250.134885 
L 150.000282 262.479859 
L 150.196352 263.231971 
L 150.327065 263.0297 
L 150.653848 262.259095 
L 150.784561 262.260948 
L 150.980631 262.539771 
L 151.438127 263.260508 
L 151.699554 263.315859 
L 152.483833 263.296162 
L 153.398826 263.346058 
L 154.836671 263.442247 
L 154.967384 263.523482 
L 155.163454 263.577112 
L 155.555594 263.945939 
L 155.882377 264.181298 
L 156.535943 264.253559 
L 157.712362 264.28059 
L 158.561998 264.232903 
L 158.888781 264.936878 
L 159.215564 265.761212 
L 159.86913 267.352796 
L 160.26127 267.844562 
L 160.65341 268.005012 
L 161.503045 268.003541 
L 166.535504 268.042503 
L 167.058357 268.094568 
L 168.300133 275.370905 
L 168.822986 275.162998 
L 169.672622 275.839416 
L 170.587614 275.849587 
L 171.894747 275.871733 
L 174.509011 275.877068 
L 174.574368 275.794324 
L 174.901151 276.731957 
L 175.358647 277.853706 
L 175.68543 278.090984 
L 179.476113 278.109019 
L 179.54147 277.976841 
L 179.73754 278.369058 
L 179.93361 278.597594 
L 180.129679 278.719301 
L 180.783246 278.686878 
L 181.502168 278.757259 
L 182.613231 278.765308 
L 182.678587 278.594157 
L 182.743944 278.807323 
L 182.8093 278.701704 
L 183.070727 278.821403 
L 183.266797 278.866174 
L 183.59358 278.857139 
L 184.900712 278.91273 
L 186.599984 278.915431 
L 186.665341 278.769533 
L 186.86141 279.171829 
L 187.122837 279.621406 
L 187.318907 279.754248 
L 187.580333 279.724419 
L 188.037829 279.724067 
L 188.952822 279.799841 
L 189.998528 279.813697 
L 190.063884 279.564049 
L 190.129241 279.786027 
L 190.194597 279.614519 
L 190.259954 279.68512 
L 190.390667 279.743321 
L 190.521381 279.750306 
L 190.652094 279.771131 
L 190.782807 279.779778 
L 191.10959 279.804475 
L 192.874218 279.822642 
L 192.939575 279.579404 
L 193.004932 279.892618 
L 193.070288 279.715951 
L 193.397071 280.096067 
L 193.527785 280.121061 
L 193.723854 280.138013 
L 193.985281 280.131418 
L 196.860972 280.186661 
L 196.926328 279.862362 
L 196.991685 280.300114 
L 197.057042 280.067137 
L 197.514538 280.925502 
L 197.645251 281.11935 
L 198.102747 282.850602 
L 198.42953 285.621103 
L 199.083096 291.730161 
L 199.344523 292.329309 
L 199.605949 292.429097 
L 200.520942 292.425334 
L 201.109151 292.582483 
L 203.26592 292.598193 
L 203.331276 292.393988 
L 203.396633 292.562556 
L 203.461989 292.438339 
L 203.658059 292.545468 
L 203.919486 292.593258 
L 205.814827 292.869108 
L 206.53375 292.846733 
L 207.252673 301.148543 
L 207.971596 311.396702 
L 208.167665 312.157014 
L 208.298379 312.162922 
L 208.886588 311.533216 
L 209.213371 311.856838 
L 209.605511 312.173411 
L 209.99765 312.188611 
L 210.912643 312.186394 
L 212.677271 312.204992 
L 213.069411 312.205683 
L 213.069411 312.205683 
" clip-path="url(#pd8e1a95df1)" style="fill: none; stroke-dasharray: 4.81,2.08; stroke-dashoffset: 0; stroke: #e69f00; stroke-width: 1.3"/>
   </g>
   <g id="line2d_67">
    <path d="M 213.069411 312.205683 
" clip-path="url(#pd8e1a95df1)" style="fill: none; stroke: #e69f00; stroke-width: 1.5; stroke-linecap: square"/>
    <g clip-path="url(#pd8e1a95df1)">
     <use xlink:href="#me15e0c00d6" x="213.069411" y="312.205683" style="fill: #e69f00; stroke: #e69f00"/>
    </g>
   </g>
   <g id="line2d_68">
    <path d="M 52.880359 184.48695 
L 54.579631 185.371865 
L 56.867112 186.202296 
L 58.958524 187.107484 
L 61.180648 188.046041 
L 62.87992 188.517723 
L 64.775262 188.789723 
L 67.52024 188.931082 
L 73.729118 188.971367 
L 74.317327 189.066573 
L 75.951242 189.512964 
L 77.323731 189.521382 
L 77.519801 190.356031 
L 77.846584 192.865038 
L 78.434794 199.522192 
L 79.415143 210.717615 
L 79.937996 214.201336 
L 80.395492 215.832521 
L 80.852988 216.626479 
L 81.310484 216.978866 
L 81.964051 217.158088 
L 83.401896 217.245639 
L 88.761138 217.265573 
L 88.957208 218.63005 
L 90.26434 230.237262 
L 90.65648 231.412388 
L 91.048619 231.908424 
L 91.440759 232.061468 
L 92.355752 232.074965 
L 102.093887 232.130435 
L 105.623144 232.204223 
L 106.015283 233.099243 
L 106.407423 234.873832 
L 106.864919 236.930107 
L 107.060989 237.203223 
L 107.257059 237.149401 
L 107.649198 236.932252 
L 107.975981 237.024695 
L 108.564191 237.220839 
L 112.420231 237.22975 
L 120.197668 237.260848 
L 120.655164 237.387459 
L 121.766226 237.399952 
L 122.419792 237.398916 
L 122.615862 241.077542 
L 123.269428 255.927227 
L 123.530855 257.448329 
L 123.661568 257.434746 
L 124.249777 256.749303 
L 124.511204 257.027292 
L 125.034057 257.60552 
L 125.426196 257.664269 
L 126.471902 257.672731 
L 127.582965 257.688461 
L 127.779034 259.847541 
L 128.301887 269.461641 
L 128.82474 278.05809 
L 129.151523 280.532533 
L 129.41295 281.036255 
L 129.60902 280.97522 
L 130.131872 280.652755 
L 130.524012 280.758822 
L 131.308291 281.036732 
L 132.550067 281.038175 
L 133.726486 281.049022 
L 133.791843 280.944996 
L 133.857199 281.040706 
L 133.987912 280.998822 
L 134.183982 281.011734 
L 135.033618 281.066099 
L 136.275394 281.082318 
L 136.471464 283.786135 
L 137.059673 292.90117 
L 137.3211 293.972942 
L 137.451813 293.990806 
L 138.170736 293.495015 
L 139.151085 294.021073 
L 139.870007 293.990928 
L 139.935364 293.892657 
L 140.000721 294.013086 
L 140.066077 293.889416 
L 140.131434 293.927935 
L 140.262147 293.986066 
L 140.39286 293.975062 
L 140.58893 293.976762 
L 141.111783 294.005772 
L 143.268551 294.02874 
L 143.333908 293.882872 
L 143.399264 294.028701 
L 143.464621 293.907162 
L 143.856761 294.030276 
L 144.2489 294.007386 
L 145.490676 294.050895 
L 147.124591 294.057179 
L 147.255304 295.218349 
L 147.647444 300.169664 
L 147.974227 302.711158 
L 148.170297 303.111429 
L 148.30101 303.124506 
L 148.823863 302.735737 
L 149.085289 302.822926 
L 149.738856 303.148811 
L 150.784561 303.14154 
L 151.699554 303.163363 
L 151.764911 302.989099 
L 151.830267 303.16182 
L 151.895624 303.020787 
L 152.35312 303.137386 
L 152.54919 303.153957 
L 154.967384 303.164774 
L 155.620951 303.164752 
L 155.686307 302.981498 
L 155.751664 303.164531 
L 155.882377 303.045546 
L 156.01309 303.125135 
L 156.143803 303.107286 
L 156.274517 303.138559 
L 156.470586 303.157904 
L 158.104502 303.162169 
L 159.346277 303.16472 
L 159.411634 302.982767 
L 159.476991 303.164775 
L 159.542347 303.018454 
L 159.999843 303.139188 
L 160.130557 303.125196 
L 160.326626 303.130256 
L 162.679464 303.166025 
L 163.333031 303.088241 
L 163.5291 303.474222 
L 163.659814 303.663536 
L 163.790527 303.666563 
L 163.92124 303.642309 
L 164.11731 303.613761 
L 167.123714 303.729703 
L 167.189071 303.555565 
L 167.254427 303.727332 
L 167.319784 303.593914 
L 167.842637 303.676517 
L 168.430846 303.713328 
L 169.607265 303.728453 
L 171.045111 303.731216 
L 171.110467 303.538964 
L 171.175824 303.727443 
L 171.24118 303.577861 
L 171.63332 303.715174 
L 172.090816 303.704462 
L 172.679026 303.722889 
L 173.724732 303.729889 
L 173.790088 303.544589 
L 173.855445 303.730897 
L 173.920801 303.582223 
L 174.312941 303.727184 
L 174.509011 303.705616 
L 174.901151 303.720261 
L 175.48936 303.724935 
L 177.188632 303.731506 
L 177.253989 303.534339 
L 177.319345 303.736559 
L 177.384702 303.579958 
L 177.842198 303.743054 
L 177.972911 303.748011 
L 178.168981 303.75764 
L 179.018617 303.789517 
L 180.913959 303.914256 
L 181.959665 313.332384 
L 182.090378 313.340175 
L 182.613231 312.714203 
L 182.8093 312.843205 
L 183.39751 313.367628 
L 183.78965 313.367746 
L 184.508572 313.365293 
L 185.096782 313.393277 
L 185.096782 313.393277 
" clip-path="url(#pd8e1a95df1)" style="fill: none; stroke-dasharray: 8.32,2.08,1.3,2.08; stroke-dashoffset: 0; stroke: #009e73; stroke-width: 1.3"/>
   </g>
   <g id="line2d_69">
    <path d="M 185.096782 313.393277 
" clip-path="url(#pd8e1a95df1)" style="fill: none; stroke: #009e73; stroke-width: 1.5; stroke-linecap: square"/>
    <g clip-path="url(#pd8e1a95df1)">
     <use xlink:href="#mc201604b37" x="185.096782" y="313.393277" style="fill: #009e73; stroke: #009e73"/>
    </g>
   </g>
   <g id="patch_8">
    <path d="M 44.870906 319.838594 
L 44.870906 178.041633 
" style="fill: none; stroke: #000000; stroke-width: 0.8; stroke-linejoin: miter; stroke-linecap: square"/>
   </g>
   <g id="patch_9">
    <path d="M 221.078864 319.838594 
L 221.078864 178.041633 
" style="fill: none; stroke: #000000; stroke-width: 0.8; stroke-linejoin: miter; stroke-linecap: square"/>
   </g>
   <g id="patch_10">
    <path d="M 44.870906 319.838594 
L 221.078864 319.838594 
" style="fill: none; stroke: #000000; stroke-width: 0.8; stroke-linejoin: miter; stroke-linecap: square"/>
   </g>
   <g id="patch_11">
    <path d="M 44.870906 178.041633 
L 221.078864 178.041633 
" style="fill: none; stroke: #000000; stroke-width: 0.8; stroke-linejoin: miter; stroke-linecap: square"/>
   </g>
   <g id="text_32">
    <!-- MSE 7.867 · 28.9 dB -->
    <g style="fill: #0072b2" transform="translate(149.954734 188.652496) scale(0.065 -0.065)">
     <defs>
      <path id="DejaVuSans-39" d="M 703 97 
L 703 672 
Q 941 559 1184 500 
Q 1428 441 1663 441 
Q 2288 441 2617 861 
Q 2947 1281 2994 2138 
Q 2813 1869 2534 1725 
Q 2256 1581 1919 1581 
Q 1219 1581 811 2004 
Q 403 2428 403 3163 
Q 403 3881 828 4315 
Q 1253 4750 1959 4750 
Q 2769 4750 3195 4129 
Q 3622 3509 3622 2328 
Q 3622 1225 3098 567 
Q 2575 -91 1691 -91 
Q 1453 -91 1209 -44 
Q 966 3 703 97 
z
M 1959 2075 
Q 2384 2075 2632 2365 
Q 2881 2656 2881 3163 
Q 2881 3666 2632 3958 
Q 2384 4250 1959 4250 
Q 1534 4250 1286 3958 
Q 1038 3666 1038 3163 
Q 1038 2656 1286 2365 
Q 1534 2075 1959 2075 
z
" transform="scale(0.015625)"/>
     </defs>
     <use xlink:href="#DejaVuSans-4d"/>
     <use xlink:href="#DejaVuSans-53" transform="translate(86.279297 0)"/>
     <use xlink:href="#DejaVuSans-45" transform="translate(149.755859 0)"/>
     <use xlink:href="#DejaVuSans-20" transform="translate(212.939453 0)"/>
     <use xlink:href="#DejaVuSans-37" transform="translate(244.726562 0)"/>
     <use xlink:href="#DejaVuSans-2e" transform="translate(308.349609 0)"/>
     <use xlink:href="#DejaVuSans-38" transform="translate(340.136719 0)"/>
     <use xlink:href="#DejaVuSans-36" transform="translate(403.759766 0)"/>
     <use xlink:href="#DejaVuSans-37" transform="translate(467.382812 0)"/>
     <use xlink:href="#DejaVuSans-20" transform="translate(531.005859 0)"/>
     <use xlink:href="#DejaVuSans-b7" transform="translate(562.792969 0)"/>
     <use xlink:href="#DejaVuSans-20" transform="translate(594.580078 0)"/>
     <use xlink:href="#DejaVuSans-32" transform="translate(626.367188 0)"/>
     <use xlink:href="#DejaVuSans-38" transform="translate(689.990234 0)"/>
     <use xlink:href="#DejaVuSans-2e" transform="translate(753.613281 0)"/>
     <use xlink:href="#DejaVuSans-39" transform="translate(785.400391 0)"/>
     <use xlink:href="#DejaVuSans-20" transform="translate(849.023438 0)"/>
     <use xlink:href="#DejaVuSans-64" transform="translate(880.810547 0)"/>
     <use xlink:href="#DejaVuSans-42" transform="translate(944.287109 0)"/>
    </g>
   </g>
   <g id="text_33">
    <!-- MSE 7.867 · 28.9 dB -->
    <g style="fill: #e69f00" transform="translate(149.954734 200.705238) scale(0.065 -0.065)">
     <use xlink:href="#DejaVuSans-4d"/>
     <use xlink:href="#DejaVuSans-53" transform="translate(86.279297 0)"/>
     <use xlink:href="#DejaVuSans-45" transform="translate(149.755859 0)"/>
     <use xlink:href="#DejaVuSans-20" transform="translate(212.939453 0)"/>
     <use xlink:href="#DejaVuSans-37" transform="translate(244.726562 0)"/>
     <use xlink:href="#DejaVuSans-2e" transform="translate(308.349609 0)"/>
     <use xlink:href="#DejaVuSans-38" transform="translate(340.136719 0)"/>
     <use xlink:href="#DejaVuSans-36" transform="translate(403.759766 0)"/>
     <use xlink:href="#DejaVuSans-37" transform="translate(467.382812 0)"/>
     <use xlink:href="#DejaVuSans-20" transform="translate(531.005859 0)"/>
     <use xlink:href="#DejaVuSans-b7" transform="translate(562.792969 0)"/>
     <use xlink:href="#DejaVuSans-20" transform="translate(594.580078 0)"/>
     <use xlink:href="#DejaVuSans-32" transform="translate(626.367188 0)"/>
     <use xlink:href="#DejaVuSans-38" transform="translate(689.990234 0)"/>
     <use xlink:href="#DejaVuSans-2e" transform="translate(753.613281 0)"/>
     <use xlink:href="#DejaVuSans-39" transform="translate(785.400391 0)"/>
     <use xlink:href="#DejaVuSans-20" transform="translate(849.023438 0)"/>
     <use xlink:href="#DejaVuSans-64" transform="translate(880.810547 0)"/>
     <use xlink:href="#DejaVuSans-42" transform="translate(944.287109 0)"/>
    </g>
   </g>
   <g id="text_34">
    <!-- MSE 7.536 · 31.5 dB -->
    <g style="fill: #009e73" transform="translate(149.954734 212.757979) scale(0.065 -0.065)">
     <use xlink:href="#DejaVuSans-4d"/>
     <use xlink:href="#DejaVuSans-53" transform="translate(86.279297 0)"/>
     <use xlink:href="#DejaVuSans-45" transform="translate(149.755859 0)"/>
     <use xlink:href="#DejaVuSans-20" transform="translate(212.939453 0)"/>
     <use xlink:href="#DejaVuSans-37" transform="translate(244.726562 0)"/>
     <use xlink:href="#DejaVuSans-2e" transform="translate(308.349609 0)"/>
     <use xlink:href="#DejaVuSans-35" transform="translate(340.136719 0)"/>
     <use xlink:href="#DejaVuSans-33" transform="translate(403.759766 0)"/>
     <use xlink:href="#DejaVuSans-36" transform="translate(467.382812 0)"/>
     <use xlink:href="#DejaVuSans-20" transform="translate(531.005859 0)"/>
     <use xlink:href="#DejaVuSans-b7" transform="translate(562.792969 0)"/>
     <use xlink:href="#DejaVuSans-20" transform="translate(594.580078 0)"/>
     <use xlink:href="#DejaVuSans-33" transform="translate(626.367188 0)"/>
     <use xlink:href="#DejaVuSans-31" transform="translate(689.990234 0)"/>
     <use xlink:href="#DejaVuSans-2e" transform="translate(753.613281 0)"/>
     <use xlink:href="#DejaVuSans-35" transform="translate(785.400391 0)"/>
     <use xlink:href="#DejaVuSans-20" transform="translate(849.023438 0)"/>
     <use xlink:href="#DejaVuSans-64" transform="translate(880.810547 0)"/>
     <use xlink:href="#DejaVuSans-42" transform="translate(944.287109 0)"/>
    </g>
   </g>
  </g>
 </g>
 <defs>
  <clipPath id="p4c1e4ace29">
   <rect x="44.870906" y="20.038594" width="176.207957" height="141.796961"/>
  </clipPath>
  <clipPath id="pd8e1a95df1">
   <rect x="44.870906" y="178.041633" width="176.207957" height="141.796961"/>
  </clipPath>
 </defs>
</svg>
