<?xml version="1.0" encoding="utf-8" standalone="no"?>
<!DOCTYPE svg PUBLIC "-//W3C//DTD SVG 1.1//EN"
  "http://www.w3.org/Graphics/SVG/1.1/DTD/svg11.dtd">
<svg xmlns:xlink="http://www.w3.org/1999/xlink" width="553.38375pt" height="324.096641pt" viewBox="0 0 553.38375 324.096641" xmlns="http://www.w3.org/2000/svg" version="1.1">
 <metadata>
  <rdf:RDF xmlns:dc="http://purl.org/dc/elements/1.1/" xmlns:cc="http://creativecommons.org/ns#" xmlns:rdf="http://www.w3.org/1999/02/22-rdf-syntax-ns#">
   <cc:Work>
    <dc:type rdf:resource="http://purl.org/dc/dcmitype/StillImage"/>
    <dc:date>2026-05-24T09:27:22.953164</dc:date>
    <dc:format>image/svg+xml</dc:format>
    <dc:creator>
     <cc:Agent>
      <dc:title>Matplotlib v3.10.9, https://matplotlib.org/</dc:title>
     </cc:Agent>
    </dc:creator>
   </cc:Work>
  </rdf:RDF>
 </metadata>
 <defs>
  <style type="text/css">*{stroke-linejoin: round; stroke-linecap: butt}</style>
 </defs>
 <g id="figure_1">
  <g id="patch_1">
   <path d="M 0 324.096641 
L 553.38375 324.096641 
L 553.38375 0 
L 0 0 
z
" style="fill: #ffffff"/>
  </g>
  <g id="axes_1">
   <g id="patch_2">
    <path d="M 39.30375 291.379453 
L 546.18375 291.379453 
L 546.18375 9.859453 
L 39.30375 9.859453 
z
" style="fill: #ffffff"/>
   </g>
   <g id="matplotlib.axis_1">
    <g id="xtick_1">
     <g id="line2d_1">
      <path d="M 58.192399 291.379453 
L 58.192399 9.859453 
" clip-path="url(#p00f3770dc3)" style="fill: none; stroke: #999999; stroke-opacity: 0.3; stroke-width: 0.5; stroke-linecap: square"/>
     </g>
     <g id="line2d_2">
      <defs>
       <path id="m7a36169aba" d="M 0 0 
L 0 3.5 
" style="stroke: #000000; stroke-width: 0.8"/>
      </defs>
      <g>
       <use xlink:href="#m7a36169aba" x="58.192399" y="291.379453" style="stroke: #000000; stroke-width: 0.8"/>
      </g>
     </g>
     <g id="text_1">
      <!-- 0 -->
      <g transform="translate(55.965524 303.698359) scale(0.07 -0.07)">
       <defs>
        <path id="DejaVuSans-30" d="M 2034 4250 
Q 1547 4250 1301 3770 
Q 1056 3291 1056 2328 
Q 1056 1369 1301 889 
Q 1547 409 2034 409 
Q 2525 409 2770 889 
Q 3016 1369 3016 2328 
Q 3016 3291 2770 3770 
Q 2525 4250 2034 4250 
z
M 2034 4750 
Q 2819 4750 3233 4129 
Q 3647 3509 3647 2328 
Q 3647 1150 3233 529 
Q 2819 -91 2034 -91 
Q 1250 -91 836 529 
Q 422 1150 422 2328 
Q 422 3509 836 4129 
Q 1250 4750 2034 4750 
z
" transform="scale(0.015625)"/>
       </defs>
       <use xlink:href="#DejaVuSans-30"/>
      </g>
     </g>
    </g>
    <g id="xtick_2">
     <g id="line2d_3">
      <path d="M 150.444651 291.379453 
L 150.444651 9.859453 
" clip-path="url(#p00f3770dc3)" style="fill: none; stroke: #999999; stroke-opacity: 0.3; stroke-width: 0.5; stroke-linecap: square"/>
     </g>
     <g id="line2d_4">
      <g>
       <use xlink:href="#m7a36169aba" x="150.444651" y="291.379453" style="stroke: #000000; stroke-width: 0.8"/>
      </g>
     </g>
     <g id="text_2">
      <!-- 200 -->
      <g transform="translate(143.764026 303.698359) scale(0.07 -0.07)">
       <defs>
        <path id="DejaVuSans-32" d="M 1228 531 
L 3431 531 
L 3431 0 
L 469 0 
L 469 531 
Q 828 903 1448 1529 
Q 2069 2156 2228 2338 
Q 2531 2678 2651 2914 
Q 2772 3150 2772 3378 
Q 2772 3750 2511 3984 
Q 2250 4219 1831 4219 
Q 1534 4219 1204 4116 
Q 875 4013 500 3803 
L 500 4441 
Q 881 4594 1212 4672 
Q 1544 4750 1819 4750 
Q 2544 4750 2975 4387 
Q 3406 4025 3406 3419 
Q 3406 3131 3298 2873 
Q 3191 2616 2906 2266 
Q 2828 2175 2409 1742 
Q 1991 1309 1228 531 
z
" transform="scale(0.015625)"/>
       </defs>
       <use xlink:href="#DejaVuSans-32"/>
       <use xlink:href="#DejaVuSans-30" transform="translate(63.623047 0)"/>
       <use xlink:href="#DejaVuSans-30" transform="translate(127.246094 0)"/>
      </g>
     </g>
    </g>
    <g id="xtick_3">
     <g id="line2d_5">
      <path d="M 242.696903 291.379453 
L 242.696903 9.859453 
" clip-path="url(#p00f3770dc3)" style="fill: none; stroke: #999999; stroke-opacity: 0.3; stroke-width: 0.5; stroke-linecap: square"/>
     </g>
     <g id="line2d_6">
      <g>
       <use xlink:href="#m7a36169aba" x="242.696903" y="291.379453" style="stroke: #000000; stroke-width: 0.8"/>
      </g>
     </g>
     <g id="text_3">
      <!-- 400 -->
      <g transform="translate(236.016278 303.698359) scale(0.07 -0.07)">
       <defs>
        <path id="DejaVuSans-34" d="M 2419 4116 
L 825 1625 
L 2419 1625 
L 2419 4116 
z
M 2253 4666 
L 3047 4666 
L 3047 1625 
L 3713 1625 
L 3713 1100 
L 3047 1100 
L 3047 0 
L 2419 0 
L 2419 1100 
L 313 1100 
L 313 1709 
L 2253 4666 
z
" transform="scale(0.015625)"/>
       </defs>
       <use xlink:href="#DejaVuSans-34"/>
       <use xlink:href="#DejaVuSans-30" transform="translate(63.623047 0)"/>
       <use xlink:href="#DejaVuSans-30" transform="translate(127.246094 0)"/>
      </g>
     </g>
    </g>
    <g id="xtick_4">
     <g id="line2d_7">
      <path d="M 334.949155 291.379453 
L 334.949155 9.859453 
" clip-path="url(#p00f3770dc3)" style="fill: none; stroke: #999999; stroke-opacity: 0.3; stroke-width: 0.5; stroke-linecap: square"/>
     </g>
     <g id="line2d_8">
      <g>
       <use xlink:href="#m7a36169aba" x="334.949155" y="291.379453" style="stroke: #000000; stroke-width: 0.8"/>
      </g>
     </g>
     <g id="text_4">
      <!-- 600 -->
      <g transform="translate(328.26853 303.698359) scale(0.07 -0.07)">
       <defs>
        <path id="DejaVuSans-36" d="M 2113 2584 
Q 1688 2584 1439 2293 
Q 1191 2003 1191 1497 
Q 1191 994 1439 701 
Q 1688 409 2113 409 
Q 2538 409 2786 701 
Q 3034 994 3034 1497 
Q 3034 2003 2786 2293 
Q 2538 2584 2113 2584 
z
M 3366 4563 
L 3366 3988 
Q 3128 4100 2886 4159 
Q 2644 4219 2406 4219 
Q 1781 4219 1451 3797 
Q 1122 3375 1075 2522 
Q 1259 2794 1537 2939 
Q 1816 3084 2150 3084 
Q 2853 3084 3261 2657 
Q 3669 2231 3669 1497 
Q 3669 778 3244 343 
Q 2819 -91 2113 -91 
Q 1303 -91 875 529 
Q 447 1150 447 2328 
Q 447 3434 972 4092 
Q 1497 4750 2381 4750 
Q 2619 4750 2861 4703 
Q 3103 4656 3366 4563 
z
" transform="scale(0.015625)"/>
       </defs>
       <use xlink:href="#DejaVuSans-36"/>
       <use xlink:href="#DejaVuSans-30" transform="translate(63.623047 0)"/>
       <use xlink:href="#DejaVuSans-30" transform="translate(127.246094 0)"/>
      </g>
     </g>
    </g>
    <g id="xtick_5">
     <g id="line2d_9">
      <path d="M 427.201408 291.379453 
L 427.201408 9.859453 
" clip-path="url(#p00f3770dc3)" style="fill: none; stroke: #999999; stroke-opacity: 0.3; stroke-width: 0.5; stroke-linecap: square"/>
     </g>
     <g id="line2d_10">
      <g>
       <use xlink:href="#m7a36169aba" x="427.201408" y="291.379453" style="stroke: #000000; stroke-width: 0.8"/>
      </g>
     </g>
     <g id="text_5">
      <!-- 800 -->
      <g transform="translate(420.520783 303.698359) scale(0.07 -0.07)">
       <defs>
        <path id="DejaVuSans-38" d="M 2034 2216 
Q 1584 2216 1326 1975 
Q 1069 1734 1069 1313 
Q 1069 891 1326 650 
Q 1584 409 2034 409 
Q 2484 409 2743 651 
Q 3003 894 3003 1313 
Q 3003 1734 2745 1975 
Q 2488 2216 2034 2216 
z
M 1403 2484 
Q 997 2584 770 2862 
Q 544 3141 544 3541 
Q 544 4100 942 4425 
Q 1341 4750 2034 4750 
Q 2731 4750 3128 4425 
Q 3525 4100 3525 3541 
Q 3525 3141 3298 2862 
Q 3072 2584 2669 2484 
Q 3125 2378 3379 2068 
Q 3634 1759 3634 1313 
Q 3634 634 3220 271 
Q 2806 -91 2034 -91 
Q 1263 -91 848 271 
Q 434 634 434 1313 
Q 434 1759 690 2068 
Q 947 2378 1403 2484 
z
M 1172 3481 
Q 1172 3119 1398 2916 
Q 1625 2713 2034 2713 
Q 2441 2713 2670 2916 
Q 2900 3119 2900 3481 
Q 2900 3844 2670 4047 
Q 2441 4250 2034 4250 
Q 1625 4250 1398 4047 
Q 1172 3844 1172 3481 
z
" transform="scale(0.015625)"/>
       </defs>
       <use xlink:href="#DejaVuSans-38"/>
       <use xlink:href="#DejaVuSans-30" transform="translate(63.623047 0)"/>
       <use xlink:href="#DejaVuSans-30" transform="translate(127.246094 0)"/>
      </g>
     </g>
    </g>
    <g id="xtick_6">
     <g id="line2d_11">
      <path d="M 519.45366 291.379453 
L 519.45366 9.859453 
" clip-path="url(#p00f3770dc3)" style="fill: none; stroke: #999999; stroke-opacity: 0.3; stroke-width: 0.5; stroke-linecap: square"/>
     </g>
     <g id="line2d_12">
      <g>
       <use xlink:href="#m7a36169aba" x="519.45366" y="291.379453" style="stroke: #000000; stroke-width: 0.8"/>
      </g>
     </g>
     <g id="text_6">
      <!-- 1000 -->
      <g transform="translate(510.54616 303.698359) scale(0.07 -0.07)">
       <defs>
        <path id="DejaVuSans-31" d="M 794 531 
L 1825 531 
L 1825 4091 
L 703 3866 
L 703 4441 
L 1819 4666 
L 2450 4666 
L 2450 531 
L 3481 531 
L 3481 0 
L 794 0 
L 794 531 
z
" transform="scale(0.015625)"/>
       </defs>
       <use xlink:href="#DejaVuSans-31"/>
       <use xlink:href="#DejaVuSans-30" transform="translate(63.623047 0)"/>
       <use xlink:href="#DejaVuSans-30" transform="translate(127.246094 0)"/>
       <use xlink:href="#DejaVuSans-30" transform="translate(190.869141 0)"/>
      </g>
     </g>
    </g>
    <g id="xtick_7">
     <g id="line2d_13">
      <path d="M 81.255462 291.379453 
L 81.255462 9.859453 
" clip-path="url(#p00f3770dc3)" style="fill: none; stroke: #bbbbbb; stroke-opacity: 0.15; stroke-width: 0.3; stroke-linecap: square"/>
     </g>
     <g id="line2d_14">
      <defs>
       <path id="m8190a12c40" d="M 0 0 
L 0 2 
" style="stroke: #000000; stroke-width: 0.6"/>
      </defs>
      <g>
       <use xlink:href="#m8190a12c40" x="81.255462" y="291.379453" style="stroke: #000000; stroke-width: 0.6"/>
      </g>
     </g>
    </g>
    <g id="xtick_8">
     <g id="line2d_15">
      <path d="M 104.318525 291.379453 
L 104.318525 9.859453 
" clip-path="url(#p00f3770dc3)" style="fill: none; stroke: #bbbbbb; stroke-opacity: 0.15; stroke-width: 0.3; stroke-linecap: square"/>
     </g>
     <g id="line2d_16">
      <g>
       <use xlink:href="#m8190a12c40" x="104.318525" y="291.379453" style="stroke: #000000; stroke-width: 0.6"/>
      </g>
     </g>
    </g>
    <g id="xtick_9">
     <g id="line2d_17">
      <path d="M 127.381588 291.379453 
L 127.381588 9.859453 
" clip-path="url(#p00f3770dc3)" style="fill: none; stroke: #bbbbbb; stroke-opacity: 0.15; stroke-width: 0.3; stroke-linecap: square"/>
     </g>
     <g id="line2d_18">
      <g>
       <use xlink:href="#m8190a12c40" x="127.381588" y="291.379453" style="stroke: #000000; stroke-width: 0.6"/>
      </g>
     </g>
    </g>
    <g id="xtick_10">
     <g id="line2d_19">
      <path d="M 173.507714 291.379453 
L 173.507714 9.859453 
" clip-path="url(#p00f3770dc3)" style="fill: none; stroke: #bbbbbb; stroke-opacity: 0.15; stroke-width: 0.3; stroke-linecap: square"/>
     </g>
     <g id="line2d_20">
      <g>
       <use xlink:href="#m8190a12c40" x="173.507714" y="291.379453" style="stroke: #000000; stroke-width: 0.6"/>
      </g>
     </g>
    </g>
    <g id="xtick_11">
     <g id="line2d_21">
      <path d="M 196.570777 291.379453 
L 196.570777 9.859453 
" clip-path="url(#p00f3770dc3)" style="fill: none; stroke: #bbbbbb; stroke-opacity: 0.15; stroke-width: 0.3; stroke-linecap: square"/>
     </g>
     <g id="line2d_22">
      <g>
       <use xlink:href="#m8190a12c40" x="196.570777" y="291.379453" style="stroke: #000000; stroke-width: 0.6"/>
      </g>
     </g>
    </g>
    <g id="xtick_12">
     <g id="line2d_23">
      <path d="M 219.63384 291.379453 
L 219.63384 9.859453 
" clip-path="url(#p00f3770dc3)" style="fill: none; stroke: #bbbbbb; stroke-opacity: 0.15; stroke-width: 0.3; stroke-linecap: square"/>
     </g>
     <g id="line2d_24">
      <g>
       <use xlink:href="#m8190a12c40" x="219.63384" y="291.379453" style="stroke: #000000; stroke-width: 0.6"/>
      </g>
     </g>
    </g>
    <g id="xtick_13">
     <g id="line2d_25">
      <path d="M 265.759966 291.379453 
L 265.759966 9.859453 
" clip-path="url(#p00f3770dc3)" style="fill: none; stroke: #bbbbbb; stroke-opacity: 0.15; stroke-width: 0.3; stroke-linecap: square"/>
     </g>
     <g id="line2d_26">
      <g>
       <use xlink:href="#m8190a12c40" x="265.759966" y="291.379453" style="stroke: #000000; stroke-width: 0.6"/>
      </g>
     </g>
    </g>
    <g id="xtick_14">
     <g id="line2d_27">
      <path d="M 288.823029 291.379453 
L 288.823029 9.859453 
" clip-path="url(#p00f3770dc3)" style="fill: none; stroke: #bbbbbb; stroke-opacity: 0.15; stroke-width: 0.3; stroke-linecap: square"/>
     </g>
     <g id="line2d_28">
      <g>
       <use xlink:href="#m8190a12c40" x="288.823029" y="291.379453" style="stroke: #000000; stroke-width: 0.6"/>
      </g>
     </g>
    </g>
    <g id="xtick_15">
     <g id="line2d_29">
      <path d="M 311.886092 291.379453 
L 311.886092 9.859453 
" clip-path="url(#p00f3770dc3)" style="fill: none; stroke: #bbbbbb; stroke-opacity: 0.15; stroke-width: 0.3; stroke-linecap: square"/>
     </g>
     <g id="line2d_30">
      <g>
       <use xlink:href="#m8190a12c40" x="311.886092" y="291.379453" style="stroke: #000000; stroke-width: 0.6"/>
      </g>
     </g>
    </g>
    <g id="xtick_16">
     <g id="line2d_31">
      <path d="M 358.012218 291.379453 
L 358.012218 9.859453 
" clip-path="url(#p00f3770dc3)" style="fill: none; stroke: #bbbbbb; stroke-opacity: 0.15; stroke-width: 0.3; stroke-linecap: square"/>
     </g>
     <g id="line2d_32">
      <g>
       <use xlink:href="#m8190a12c40" x="358.012218" y="291.379453" style="stroke: #000000; stroke-width: 0.6"/>
      </g>
     </g>
    </g>
    <g id="xtick_17">
     <g id="line2d_33">
      <path d="M 381.075282 291.379453 
L 381.075282 9.859453 
" clip-path="url(#p00f3770dc3)" style="fill: none; stroke: #bbbbbb; stroke-opacity: 0.15; stroke-width: 0.3; stroke-linecap: square"/>
     </g>
     <g id="line2d_34">
      <g>
       <use xlink:href="#m8190a12c40" x="381.075282" y="291.379453" style="stroke: #000000; stroke-width: 0.6"/>
      </g>
     </g>
    </g>
    <g id="xtick_18">
     <g id="line2d_35">
      <path d="M 404.138345 291.379453 
L 404.138345 9.859453 
" clip-path="url(#p00f3770dc3)" style="fill: none; stroke: #bbbbbb; stroke-opacity: 0.15; stroke-width: 0.3; stroke-linecap: square"/>
     </g>
     <g id="line2d_36">
      <g>
       <use xlink:href="#m8190a12c40" x="404.138345" y="291.379453" style="stroke: #000000; stroke-width: 0.6"/>
      </g>
     </g>
    </g>
    <g id="xtick_19">
     <g id="line2d_37">
      <path d="M 450.264471 291.379453 
L 450.264471 9.859453 
" clip-path="url(#p00f3770dc3)" style="fill: none; stroke: #bbbbbb; stroke-opacity: 0.15; stroke-width: 0.3; stroke-linecap: square"/>
     </g>
     <g id="line2d_38">
      <g>
       <use xlink:href="#m8190a12c40" x="450.264471" y="291.379453" style="stroke: #000000; stroke-width: 0.6"/>
      </g>
     </g>
    </g>
    <g id="xtick_20">
     <g id="line2d_39">
      <path d="M 473.327534 291.379453 
L 473.327534 9.859453 
" clip-path="url(#p00f3770dc3)" style="fill: none; stroke: #bbbbbb; stroke-opacity: 0.15; stroke-width: 0.3; stroke-linecap: square"/>
     </g>
     <g id="line2d_40">
      <g>
       <use xlink:href="#m8190a12c40" x="473.327534" y="291.379453" style="stroke: #000000; stroke-width: 0.6"/>
      </g>
     </g>
    </g>
    <g id="xtick_21">
     <g id="line2d_41">
      <path d="M 496.390597 291.379453 
L 496.390597 9.859453 
" clip-path="url(#p00f3770dc3)" style="fill: none; stroke: #bbbbbb; stroke-opacity: 0.15; stroke-width: 0.3; stroke-linecap: square"/>
     </g>
     <g id="line2d_42">
      <g>
       <use xlink:href="#m8190a12c40" x="496.390597" y="291.379453" style="stroke: #000000; stroke-width: 0.6"/>
      </g>
     </g>
    </g>
    <g id="xtick_22">
     <g id="line2d_43">
      <path d="M 542.516723 291.379453 
L 542.516723 9.859453 
" clip-path="url(#p00f3770dc3)" style="fill: none; stroke: #bbbbbb; stroke-opacity: 0.15; stroke-width: 0.3; stroke-linecap: square"/>
     </g>
     <g id="line2d_44">
      <g>
       <use xlink:href="#m8190a12c40" x="542.516723" y="291.379453" style="stroke: #000000; stroke-width: 0.6"/>
      </g>
     </g>
    </g>
    <g id="text_7">
     <!-- training step (within stage) -->
     <g transform="translate(238.425 315.232891) scale(0.08 -0.08)">
      <defs>
       <path id="DejaVuSans-74" d="M 1172 4494 
L 1172 3500 
L 2356 3500 
L 2356 3053 
L 1172 3053 
L 1172 1153 
Q 1172 725 1289 603 
Q 1406 481 1766 481 
L 2356 481 
L 2356 0 
L 1766 0 
Q 1100 0 847 248 
Q 594 497 594 1153 
L 594 3053 
L 172 3053 
L 172 3500 
L 594 3500 
L 594 4494 
L 1172 4494 
z
" transform="scale(0.015625)"/>
       <path id="DejaVuSans-72" d="M 2631 2963 
Q 2534 3019 2420 3045 
Q 2306 3072 2169 3072 
Q 1681 3072 1420 2755 
Q 1159 2438 1159 1844 
L 1159 0 
L 581 0 
L 581 3500 
L 1159 3500 
L 1159 2956 
Q 1341 3275 1631 3429 
Q 1922 3584 2338 3584 
Q 2397 3584 2469 3576 
Q 2541 3569 2628 3553 
L 2631 2963 
z
" transform="scale(0.015625)"/>
       <path id="DejaVuSans-61" d="M 2194 1759 
Q 1497 1759 1228 1600 
Q 959 1441 959 1056 
Q 959 750 1161 570 
Q 1363 391 1709 391 
Q 2188 391 2477 730 
Q 2766 1069 2766 1631 
L 2766 1759 
L 2194 1759 
z
M 3341 1997 
L 3341 0 
L 2766 0 
L 2766 531 
Q 2569 213 2275 61 
Q 1981 -91 1556 -91 
Q 1019 -91 701 211 
Q 384 513 384 1019 
Q 384 1609 779 1909 
Q 1175 2209 1959 2209 
L 2766 2209 
L 2766 2266 
Q 2766 2663 2505 2880 
Q 2244 3097 1772 3097 
Q 1472 3097 1187 3025 
Q 903 2953 641 2809 
L 641 3341 
Q 956 3463 1253 3523 
Q 1550 3584 1831 3584 
Q 2591 3584 2966 3190 
Q 3341 2797 3341 1997 
z
" transform="scale(0.015625)"/>
       <path id="DejaVuSans-69" d="M 603 3500 
L 1178 3500 
L 1178 0 
L 603 0 
L 603 3500 
z
M 603 4863 
L 1178 4863 
L 1178 4134 
L 603 4134 
L 603 4863 
z
" transform="scale(0.015625)"/>
       <path id="DejaVuSans-6e" d="M 3513 2113 
L 3513 0 
L 2938 0 
L 2938 2094 
Q 2938 2591 2744 2837 
Q 2550 3084 2163 3084 
Q 1697 3084 1428 2787 
Q 1159 2491 1159 1978 
L 1159 0 
L 581 0 
L 581 3500 
L 1159 3500 
L 1159 2956 
Q 1366 3272 1645 3428 
Q 1925 3584 2291 3584 
Q 2894 3584 3203 3211 
Q 3513 2838 3513 2113 
z
" transform="scale(0.015625)"/>
       <path id="DejaVuSans-67" d="M 2906 1791 
Q 2906 2416 2648 2759 
Q 2391 3103 1925 3103 
Q 1463 3103 1205 2759 
Q 947 2416 947 1791 
Q 947 1169 1205 825 
Q 1463 481 1925 481 
Q 2391 481 2648 825 
Q 2906 1169 2906 1791 
z
M 3481 434 
Q 3481 -459 3084 -895 
Q 2688 -1331 1869 -1331 
Q 1566 -1331 1297 -1286 
Q 1028 -1241 775 -1147 
L 775 -588 
Q 1028 -725 1275 -790 
Q 1522 -856 1778 -856 
Q 2344 -856 2625 -561 
Q 2906 -266 2906 331 
L 2906 616 
Q 2728 306 2450 153 
Q 2172 0 1784 0 
Q 1141 0 747 490 
Q 353 981 353 1791 
Q 353 2603 747 3093 
Q 1141 3584 1784 3584 
Q 2172 3584 2450 3431 
Q 2728 3278 2906 2969 
L 2906 3500 
L 3481 3500 
L 3481 434 
z
" transform="scale(0.015625)"/>
       <path id="DejaVuSans-20" transform="scale(0.015625)"/>
       <path id="DejaVuSans-73" d="M 2834 3397 
L 2834 2853 
Q 2591 2978 2328 3040 
Q 2066 3103 1784 3103 
Q 1356 3103 1142 2972 
Q 928 2841 928 2578 
Q 928 2378 1081 2264 
Q 1234 2150 1697 2047 
L 1894 2003 
Q 2506 1872 2764 1633 
Q 3022 1394 3022 966 
Q 3022 478 2636 193 
Q 2250 -91 1575 -91 
Q 1294 -91 989 -36 
Q 684 19 347 128 
L 347 722 
Q 666 556 975 473 
Q 1284 391 1588 391 
Q 1994 391 2212 530 
Q 2431 669 2431 922 
Q 2431 1156 2273 1281 
Q 2116 1406 1581 1522 
L 1381 1569 
Q 847 1681 609 1914 
Q 372 2147 372 2553 
Q 372 3047 722 3315 
Q 1072 3584 1716 3584 
Q 2034 3584 2315 3537 
Q 2597 3491 2834 3397 
z
" transform="scale(0.015625)"/>
       <path id="DejaVuSans-65" d="M 3597 1894 
L 3597 1613 
L 953 1613 
Q 991 1019 1311 708 
Q 1631 397 2203 397 
Q 2534 397 2845 478 
Q 3156 559 3463 722 
L 3463 178 
Q 3153 47 2828 -22 
Q 2503 -91 2169 -91 
Q 1331 -91 842 396 
Q 353 884 353 1716 
Q 353 2575 817 3079 
Q 1281 3584 2069 3584 
Q 2775 3584 3186 3129 
Q 3597 2675 3597 1894 
z
M 3022 2063 
Q 3016 2534 2758 2815 
Q 2500 3097 2075 3097 
Q 1594 3097 1305 2825 
Q 1016 2553 972 2059 
L 3022 2063 
z
" transform="scale(0.015625)"/>
       <path id="DejaVuSans-70" d="M 1159 525 
L 1159 -1331 
L 581 -1331 
L 581 3500 
L 1159 3500 
L 1159 2969 
Q 1341 3281 1617 3432 
Q 1894 3584 2278 3584 
Q 2916 3584 3314 3078 
Q 3713 2572 3713 1747 
Q 3713 922 3314 415 
Q 2916 -91 2278 -91 
Q 1894 -91 1617 61 
Q 1341 213 1159 525 
z
M 3116 1747 
Q 3116 2381 2855 2742 
Q 2594 3103 2138 3103 
Q 1681 3103 1420 2742 
Q 1159 2381 1159 1747 
Q 1159 1113 1420 752 
Q 1681 391 2138 391 
Q 2594 391 2855 752 
Q 3116 1113 3116 1747 
z
" transform="scale(0.015625)"/>
       <path id="DejaVuSans-28" d="M 1984 4856 
Q 1566 4138 1362 3434 
Q 1159 2731 1159 2009 
Q 1159 1288 1364 580 
Q 1569 -128 1984 -844 
L 1484 -844 
Q 1016 -109 783 600 
Q 550 1309 550 2009 
Q 550 2706 781 3412 
Q 1013 4119 1484 4856 
L 1984 4856 
z
" transform="scale(0.015625)"/>
       <path id="DejaVuSans-77" d="M 269 3500 
L 844 3500 
L 1563 769 
L 2278 3500 
L 2956 3500 
L 3675 769 
L 4391 3500 
L 4966 3500 
L 4050 0 
L 3372 0 
L 2619 2869 
L 1863 0 
L 1184 0 
L 269 3500 
z
" transform="scale(0.015625)"/>
       <path id="DejaVuSans-68" d="M 3513 2113 
L 3513 0 
L 2938 0 
L 2938 2094 
Q 2938 2591 2744 2837 
Q 2550 3084 2163 3084 
Q 1697 3084 1428 2787 
Q 1159 2491 1159 1978 
L 1159 0 
L 581 0 
L 581 4863 
L 1159 4863 
L 1159 2956 
Q 1366 3272 1645 3428 
Q 1925 3584 2291 3584 
Q 2894 3584 3203 3211 
Q 3513 2838 3513 2113 
z
" transform="scale(0.015625)"/>
       <path id="DejaVuSans-29" d="M 513 4856 
L 1013 4856 
Q 1481 4119 1714 3412 
Q 1947 2706 1947 2009 
Q 1947 1309 1714 600 
Q 1481 -109 1013 -844 
L 513 -844 
Q 928 -128 1133 580 
Q 1338 1288 1338 2009 
Q 1338 2731 1133 3434 
Q 928 4138 513 4856 
z
" transform="scale(0.015625)"/>
      </defs>
      <use xlink:href="#DejaVuSans-74"/>
      <use xlink:href="#DejaVuSans-72" transform="translate(39.208984 0)"/>
      <use xlink:href="#DejaVuSans-61" transform="translate(80.322266 0)"/>
      <use xlink:href="#DejaVuSans-69" transform="translate(141.601562 0)"/>
      <use xlink:href="#DejaVuSans-6e" transform="translate(169.384766 0)"/>
      <use xlink:href="#DejaVuSans-69" transform="translate(232.763672 0)"/>
      <use xlink:href="#DejaVuSans-6e" transform="translate(260.546875 0)"/>
      <use xlink:href="#DejaVuSans-67" transform="translate(323.925781 0)"/>
      <use xlink:href="#DejaVuSans-20" transform="translate(387.402344 0)"/>
      <use xlink:href="#DejaVuSans-73" transform="translate(419.189453 0)"/>
      <use xlink:href="#DejaVuSans-74" transform="translate(471.289062 0)"/>
      <use xlink:href="#DejaVuSans-65" transform="translate(510.498047 0)"/>
      <use xlink:href="#DejaVuSans-70" transform="translate(572.021484 0)"/>
      <use xlink:href="#DejaVuSans-20" transform="translate(635.498047 0)"/>
      <use xlink:href="#DejaVuSans-28" transform="translate(667.285156 0)"/>
      <use xlink:href="#DejaVuSans-77" transform="translate(706.298828 0)"/>
      <use xlink:href="#DejaVuSans-69" transform="translate(788.085938 0)"/>
      <use xlink:href="#DejaVuSans-74" transform="translate(815.869141 0)"/>
      <use xlink:href="#DejaVuSans-68" transform="translate(855.078125 0)"/>
      <use xlink:href="#DejaVuSans-69" transform="translate(918.457031 0)"/>
      <use xlink:href="#DejaVuSans-6e" transform="translate(946.240234 0)"/>
      <use xlink:href="#DejaVuSans-20" transform="translate(1009.619141 0)"/>
      <use xlink:href="#DejaVuSans-73" transform="translate(1041.40625 0)"/>
      <use xlink:href="#DejaVuSans-74" transform="translate(1093.505859 0)"/>
      <use xlink:href="#DejaVuSans-61" transform="translate(1132.714844 0)"/>
      <use xlink:href="#DejaVuSans-67" transform="translate(1193.994141 0)"/>
      <use xlink:href="#DejaVuSans-65" transform="translate(1257.470703 0)"/>
      <use xlink:href="#DejaVuSans-29" transform="translate(1318.994141 0)"/>
     </g>
    </g>
   </g>
   <g id="matplotlib.axis_2">
    <g id="ytick_1">
     <g id="line2d_45">
      <path d="M 39.30375 277.973739 
L 546.18375 277.973739 
" clip-path="url(#p00f3770dc3)" style="fill: none; stroke: #999999; stroke-opacity: 0.3; stroke-width: 0.5; stroke-linecap: square"/>
     </g>
     <g id="line2d_46">
      <defs>
       <path id="m4bef5af0b3" d="M 0 0 
L -3.5 0 
" style="stroke: #000000; stroke-width: 0.8"/>
      </defs>
      <g>
       <use xlink:href="#m4bef5af0b3" x="39.30375" y="277.973739" style="stroke: #000000; stroke-width: 0.8"/>
      </g>
     </g>
     <g id="text_8">
      <!-- 100 -->
      <g transform="translate(18.9425 280.633192) scale(0.07 -0.07)">
       <use xlink:href="#DejaVuSans-31"/>
       <use xlink:href="#DejaVuSans-30" transform="translate(63.623047 0)"/>
       <use xlink:href="#DejaVuSans-30" transform="translate(127.246094 0)"/>
      </g>
     </g>
    </g>
    <g id="ytick_2">
     <g id="line2d_47">
      <path d="M 39.30375 244.459453 
L 546.18375 244.459453 
" clip-path="url(#p00f3770dc3)" style="fill: none; stroke: #999999; stroke-opacity: 0.3; stroke-width: 0.5; stroke-linecap: square"/>
     </g>
     <g id="line2d_48">
      <g>
       <use xlink:href="#m4bef5af0b3" x="39.30375" y="244.459453" style="stroke: #000000; stroke-width: 0.8"/>
      </g>
     </g>
     <g id="text_9">
      <!-- 125 -->
      <g transform="translate(18.9425 247.118906) scale(0.07 -0.07)">
       <defs>
        <path id="DejaVuSans-35" d="M 691 4666 
L 3169 4666 
L 3169 4134 
L 1269 4134 
L 1269 2991 
Q 1406 3038 1543 3061 
Q 1681 3084 1819 3084 
Q 2600 3084 3056 2656 
Q 3513 2228 3513 1497 
Q 3513 744 3044 326 
Q 2575 -91 1722 -91 
Q 1428 -91 1123 -41 
Q 819 9 494 109 
L 494 744 
Q 775 591 1075 516 
Q 1375 441 1709 441 
Q 2250 441 2565 725 
Q 2881 1009 2881 1497 
Q 2881 1984 2565 2268 
Q 2250 2553 1709 2553 
Q 1456 2553 1204 2497 
Q 953 2441 691 2322 
L 691 4666 
z
" transform="scale(0.015625)"/>
       </defs>
       <use xlink:href="#DejaVuSans-31"/>
       <use xlink:href="#DejaVuSans-32" transform="translate(63.623047 0)"/>
       <use xlink:href="#DejaVuSans-35" transform="translate(127.246094 0)"/>
      </g>
     </g>
    </g>
    <g id="ytick_3">
     <g id="line2d_49">
      <path d="M 39.30375 210.945167 
L 546.18375 210.945167 
" clip-path="url(#p00f3770dc3)" style="fill: none; stroke: #999999; stroke-opacity: 0.3; stroke-width: 0.5; stroke-linecap: square"/>
     </g>
     <g id="line2d_50">
      <g>
       <use xlink:href="#m4bef5af0b3" x="39.30375" y="210.945167" style="stroke: #000000; stroke-width: 0.8"/>
      </g>
     </g>
     <g id="text_10">
      <!-- 150 -->
      <g transform="translate(18.9425 213.604621) scale(0.07 -0.07)">
       <use xlink:href="#DejaVuSans-31"/>
       <use xlink:href="#DejaVuSans-35" transform="translate(63.623047 0)"/>
       <use xlink:href="#DejaVuSans-30" transform="translate(127.246094 0)"/>
      </g>
     </g>
    </g>
    <g id="ytick_4">
     <g id="line2d_51">
      <path d="M 39.30375 177.430882 
L 546.18375 177.430882 
" clip-path="url(#p00f3770dc3)" style="fill: none; stroke: #999999; stroke-opacity: 0.3; stroke-width: 0.5; stroke-linecap: square"/>
     </g>
     <g id="line2d_52">
      <g>
       <use xlink:href="#m4bef5af0b3" x="39.30375" y="177.430882" style="stroke: #000000; stroke-width: 0.8"/>
      </g>
     </g>
     <g id="text_11">
      <!-- 175 -->
      <g transform="translate(18.9425 180.090335) scale(0.07 -0.07)">
       <defs>
        <path id="DejaVuSans-37" d="M 525 4666 
L 3525 4666 
L 3525 4397 
L 1831 0 
L 1172 0 
L 2766 4134 
L 525 4134 
L 525 4666 
z
" transform="scale(0.015625)"/>
       </defs>
       <use xlink:href="#DejaVuSans-31"/>
       <use xlink:href="#DejaVuSans-37" transform="translate(63.623047 0)"/>
       <use xlink:href="#DejaVuSans-35" transform="translate(127.246094 0)"/>
      </g>
     </g>
    </g>
    <g id="ytick_5">
     <g id="line2d_53">
      <path d="M 39.30375 143.916596 
L 546.18375 143.916596 
" clip-path="url(#p00f3770dc3)" style="fill: none; stroke: #999999; stroke-opacity: 0.3; stroke-width: 0.5; stroke-linecap: square"/>
     </g>
     <g id="line2d_54">
      <g>
       <use xlink:href="#m4bef5af0b3" x="39.30375" y="143.916596" style="stroke: #000000; stroke-width: 0.8"/>
      </g>
     </g>
     <g id="text_12">
      <!-- 200 -->
      <g transform="translate(18.9425 146.576049) scale(0.07 -0.07)">
       <use xlink:href="#DejaVuSans-32"/>
       <use xlink:href="#DejaVuSans-30" transform="translate(63.623047 0)"/>
       <use xlink:href="#DejaVuSans-30" transform="translate(127.246094 0)"/>
      </g>
     </g>
    </g>
    <g id="ytick_6">
     <g id="line2d_55">
      <path d="M 39.30375 110.40231 
L 546.18375 110.40231 
" clip-path="url(#p00f3770dc3)" style="fill: none; stroke: #999999; stroke-opacity: 0.3; stroke-width: 0.5; stroke-linecap: square"/>
     </g>
     <g id="line2d_56">
      <g>
       <use xlink:href="#m4bef5af0b3" x="39.30375" y="110.40231" style="stroke: #000000; stroke-width: 0.8"/>
      </g>
     </g>
     <g id="text_13">
      <!-- 225 -->
      <g transform="translate(18.9425 113.061763) scale(0.07 -0.07)">
       <use xlink:href="#DejaVuSans-32"/>
       <use xlink:href="#DejaVuSans-32" transform="translate(63.623047 0)"/>
       <use xlink:href="#DejaVuSans-35" transform="translate(127.246094 0)"/>
      </g>
     </g>
    </g>
    <g id="ytick_7">
     <g id="line2d_57">
      <path d="M 39.30375 76.888025 
L 546.18375 76.888025 
" clip-path="url(#p00f3770dc3)" style="fill: none; stroke: #999999; stroke-opacity: 0.3; stroke-width: 0.5; stroke-linecap: square"/>
     </g>
     <g id="line2d_58">
      <g>
       <use xlink:href="#m4bef5af0b3" x="39.30375" y="76.888025" style="stroke: #000000; stroke-width: 0.8"/>
      </g>
     </g>
     <g id="text_14">
      <!-- 250 -->
      <g transform="translate(18.9425 79.547478) scale(0.07 -0.07)">
       <use xlink:href="#DejaVuSans-32"/>
       <use xlink:href="#DejaVuSans-35" transform="translate(63.623047 0)"/>
       <use xlink:href="#DejaVuSans-30" transform="translate(127.246094 0)"/>
      </g>
     </g>
    </g>
    <g id="ytick_8">
     <g id="line2d_59">
      <path d="M 39.30375 43.373739 
L 546.18375 43.373739 
" clip-path="url(#p00f3770dc3)" style="fill: none; stroke: #999999; stroke-opacity: 0.3; stroke-width: 0.5; stroke-linecap: square"/>
     </g>
     <g id="line2d_60">
      <g>
       <use xlink:href="#m4bef5af0b3" x="39.30375" y="43.373739" style="stroke: #000000; stroke-width: 0.8"/>
      </g>
     </g>
     <g id="text_15">
      <!-- 275 -->
      <g transform="translate(18.9425 46.033192) scale(0.07 -0.07)">
       <use xlink:href="#DejaVuSans-32"/>
       <use xlink:href="#DejaVuSans-37" transform="translate(63.623047 0)"/>
       <use xlink:href="#DejaVuSans-35" transform="translate(127.246094 0)"/>
      </g>
     </g>
    </g>
    <g id="ytick_9">
     <g id="line2d_61">
      <path d="M 39.30375 9.859453 
L 546.18375 9.859453 
" clip-path="url(#p00f3770dc3)" style="fill: none; stroke: #999999; stroke-opacity: 0.3; stroke-width: 0.5; stroke-linecap: square"/>
     </g>
     <g id="line2d_62">
      <g>
       <use xlink:href="#m4bef5af0b3" x="39.30375" y="9.859453" style="stroke: #000000; stroke-width: 0.8"/>
      </g>
     </g>
     <g id="text_16">
      <!-- 300 -->
      <g transform="translate(18.9425 12.518906) scale(0.07 -0.07)">
       <defs>
        <path id="DejaVuSans-33" d="M 2597 2516 
Q 3050 2419 3304 2112 
Q 3559 1806 3559 1356 
Q 3559 666 3084 287 
Q 2609 -91 1734 -91 
Q 1441 -91 1130 -33 
Q 819 25 488 141 
L 488 750 
Q 750 597 1062 519 
Q 1375 441 1716 441 
Q 2309 441 2620 675 
Q 2931 909 2931 1356 
Q 2931 1769 2642 2001 
Q 2353 2234 1838 2234 
L 1294 2234 
L 1294 2753 
L 1863 2753 
Q 2328 2753 2575 2939 
Q 2822 3125 2822 3475 
Q 2822 3834 2567 4026 
Q 2313 4219 1838 4219 
Q 1578 4219 1281 4162 
Q 984 4106 628 3988 
L 628 4550 
Q 988 4650 1302 4700 
Q 1616 4750 1894 4750 
Q 2613 4750 3031 4423 
Q 3450 4097 3450 3541 
Q 3450 3153 3228 2886 
Q 3006 2619 2597 2516 
z
" transform="scale(0.015625)"/>
       </defs>
       <use xlink:href="#DejaVuSans-33"/>
       <use xlink:href="#DejaVuSans-30" transform="translate(63.623047 0)"/>
       <use xlink:href="#DejaVuSans-30" transform="translate(127.246094 0)"/>
      </g>
     </g>
    </g>
    <g id="ytick_10">
     <g id="line2d_63">
      <path d="M 39.30375 291.379453 
L 546.18375 291.379453 
" clip-path="url(#p00f3770dc3)" style="fill: none; stroke: #bbbbbb; stroke-opacity: 0.15; stroke-width: 0.3; stroke-linecap: square"/>
     </g>
     <g id="line2d_64">
      <defs>
       <path id="m7e238611f7" d="M 0 0 
L -2 0 
" style="stroke: #000000; stroke-width: 0.6"/>
      </defs>
      <g>
       <use xlink:href="#m7e238611f7" x="39.30375" y="291.379453" style="stroke: #000000; stroke-width: 0.6"/>
      </g>
     </g>
    </g>
    <g id="ytick_11">
     <g id="line2d_65">
      <path d="M 39.30375 284.676596 
L 546.18375 284.676596 
" clip-path="url(#p00f3770dc3)" style="fill: none; stroke: #bbbbbb; stroke-opacity: 0.15; stroke-width: 0.3; stroke-linecap: square"/>
     </g>
     <g id="line2d_66">
      <g>
       <use xlink:href="#m7e238611f7" x="39.30375" y="284.676596" style="stroke: #000000; stroke-width: 0.6"/>
      </g>
     </g>
    </g>
    <g id="ytick_12">
     <g id="line2d_67">
      <path d="M 39.30375 271.270882 
L 546.18375 271.270882 
" clip-path="url(#p00f3770dc3)" style="fill: none; stroke: #bbbbbb; stroke-opacity: 0.15; stroke-width: 0.3; stroke-linecap: square"/>
     </g>
     <g id="line2d_68">
      <g>
       <use xlink:href="#m7e238611f7" x="39.30375" y="271.270882" style="stroke: #000000; stroke-width: 0.6"/>
      </g>
     </g>
    </g>
    <g id="ytick_13">
     <g id="line2d_69">
      <path d="M 39.30375 264.568025 
L 546.18375 264.568025 
" clip-path="url(#p00f3770dc3)" style="fill: none; stroke: #bbbbbb; stroke-opacity: 0.15; stroke-width: 0.3; stroke-linecap: square"/>
     </g>
     <g id="line2d_70">
      <g>
       <use xlink:href="#m7e238611f7" x="39.30375" y="264.568025" style="stroke: #000000; stroke-width: 0.6"/>
      </g>
     </g>
    </g>
    <g id="ytick_14">
     <g id="line2d_71">
      <path d="M 39.30375 257.865167 
L 546.18375 257.865167 
" clip-path="url(#p00f3770dc3)" style="fill: none; stroke: #bbbbbb; stroke-opacity: 0.15; stroke-width: 0.3; stroke-linecap: square"/>
     </g>
     <g id="line2d_72">
      <g>
       <use xlink:href="#m7e238611f7" x="39.30375" y="257.865167" style="stroke: #000000; stroke-width: 0.6"/>
      </g>
     </g>
    </g>
    <g id="ytick_15">
     <g id="line2d_73">
      <path d="M 39.30375 251.16231 
L 546.18375 251.16231 
" clip-path="url(#p00f3770dc3)" style="fill: none; stroke: #bbbbbb; stroke-opacity: 0.15; stroke-width: 0.3; stroke-linecap: square"/>
     </g>
     <g id="line2d_74">
      <g>
       <use xlink:href="#m7e238611f7" x="39.30375" y="251.16231" style="stroke: #000000; stroke-width: 0.6"/>
      </g>
     </g>
    </g>
    <g id="ytick_16">
     <g id="line2d_75">
      <path d="M 39.30375 237.756596 
L 546.18375 237.756596 
" clip-path="url(#p00f3770dc3)" style="fill: none; stroke: #bbbbbb; stroke-opacity: 0.15; stroke-width: 0.3; stroke-linecap: square"/>
     </g>
     <g id="line2d_76">
      <g>
       <use xlink:href="#m7e238611f7" x="39.30375" y="237.756596" style="stroke: #000000; stroke-width: 0.6"/>
      </g>
     </g>
    </g>
    <g id="ytick_17">
     <g id="line2d_77">
      <path d="M 39.30375 231.053739 
L 546.18375 231.053739 
" clip-path="url(#p00f3770dc3)" style="fill: none; stroke: #bbbbbb; stroke-opacity: 0.15; stroke-width: 0.3; stroke-linecap: square"/>
     </g>
     <g id="line2d_78">
      <g>
       <use xlink:href="#m7e238611f7" x="39.30375" y="231.053739" style="stroke: #000000; stroke-width: 0.6"/>
      </g>
     </g>
    </g>
    <g id="ytick_18">
     <g id="line2d_79">
      <path d="M 39.30375 224.350882 
L 546.18375 224.350882 
" clip-path="url(#p00f3770dc3)" style="fill: none; stroke: #bbbbbb; stroke-opacity: 0.15; stroke-width: 0.3; stroke-linecap: square"/>
     </g>
     <g id="line2d_80">
      <g>
       <use xlink:href="#m7e238611f7" x="39.30375" y="224.350882" style="stroke: #000000; stroke-width: 0.6"/>
      </g>
     </g>
    </g>
    <g id="ytick_19">
     <g id="line2d_81">
      <path d="M 39.30375 217.648025 
L 546.18375 217.648025 
" clip-path="url(#p00f3770dc3)" style="fill: none; stroke: #bbbbbb; stroke-opacity: 0.15; stroke-width: 0.3; stroke-linecap: square"/>
     </g>
     <g id="line2d_82">
      <g>
       <use xlink:href="#m7e238611f7" x="39.30375" y="217.648025" style="stroke: #000000; stroke-width: 0.6"/>
      </g>
     </g>
    </g>
    <g id="ytick_20">
     <g id="line2d_83">
      <path d="M 39.30375 204.24231 
L 546.18375 204.24231 
" clip-path="url(#p00f3770dc3)" style="fill: none; stroke: #bbbbbb; stroke-opacity: 0.15; stroke-width: 0.3; stroke-linecap: square"/>
     </g>
     <g id="line2d_84">
      <g>
       <use xlink:href="#m7e238611f7" x="39.30375" y="204.24231" style="stroke: #000000; stroke-width: 0.6"/>
      </g>
     </g>
    </g>
    <g id="ytick_21">
     <g id="line2d_85">
      <path d="M 39.30375 197.539453 
L 546.18375 197.539453 
" clip-path="url(#p00f3770dc3)" style="fill: none; stroke: #bbbbbb; stroke-opacity: 0.15; stroke-width: 0.3; stroke-linecap: square"/>
     </g>
     <g id="line2d_86">
      <g>
       <use xlink:href="#m7e238611f7" x="39.30375" y="197.539453" style="stroke: #000000; stroke-width: 0.6"/>
      </g>
     </g>
    </g>
    <g id="ytick_22">
     <g id="line2d_87">
      <path d="M 39.30375 190.836596 
L 546.18375 190.836596 
" clip-path="url(#p00f3770dc3)" style="fill: none; stroke: #bbbbbb; stroke-opacity: 0.15; stroke-width: 0.3; stroke-linecap: square"/>
     </g>
     <g id="line2d_88">
      <g>
       <use xlink:href="#m7e238611f7" x="39.30375" y="190.836596" style="stroke: #000000; stroke-width: 0.6"/>
      </g>
     </g>
    </g>
    <g id="ytick_23">
     <g id="line2d_89">
      <path d="M 39.30375 184.133739 
L 546.18375 184.133739 
" clip-path="url(#p00f3770dc3)" style="fill: none; stroke: #bbbbbb; stroke-opacity: 0.15; stroke-width: 0.3; stroke-linecap: square"/>
     </g>
     <g id="line2d_90">
      <g>
       <use xlink:href="#m7e238611f7" x="39.30375" y="184.133739" style="stroke: #000000; stroke-width: 0.6"/>
      </g>
     </g>
    </g>
    <g id="ytick_24">
     <g id="line2d_91">
      <path d="M 39.30375 170.728025 
L 546.18375 170.728025 
" clip-path="url(#p00f3770dc3)" style="fill: none; stroke: #bbbbbb; stroke-opacity: 0.15; stroke-width: 0.3; stroke-linecap: square"/>
     </g>
     <g id="line2d_92">
      <g>
       <use xlink:href="#m7e238611f7" x="39.30375" y="170.728025" style="stroke: #000000; stroke-width: 0.6"/>
      </g>
     </g>
    </g>
    <g id="ytick_25">
     <g id="line2d_93">
      <path d="M 39.30375 164.025167 
L 546.18375 164.025167 
" clip-path="url(#p00f3770dc3)" style="fill: none; stroke: #bbbbbb; stroke-opacity: 0.15; stroke-width: 0.3; stroke-linecap: square"/>
     </g>
     <g id="line2d_94">
      <g>
       <use xlink:href="#m7e238611f7" x="39.30375" y="164.025167" style="stroke: #000000; stroke-width: 0.6"/>
      </g>
     </g>
    </g>
    <g id="ytick_26">
     <g id="line2d_95">
      <path d="M 39.30375 157.32231 
L 546.18375 157.32231 
" clip-path="url(#p00f3770dc3)" style="fill: none; stroke: #bbbbbb; stroke-opacity: 0.15; stroke-width: 0.3; stroke-linecap: square"/>
     </g>
     <g id="line2d_96">
      <g>
       <use xlink:href="#m7e238611f7" x="39.30375" y="157.32231" style="stroke: #000000; stroke-width: 0.6"/>
      </g>
     </g>
    </g>
    <g id="ytick_27">
     <g id="line2d_97">
      <path d="M 39.30375 150.619453 
L 546.18375 150.619453 
" clip-path="url(#p00f3770dc3)" style="fill: none; stroke: #bbbbbb; stroke-opacity: 0.15; stroke-width: 0.3; stroke-linecap: square"/>
     </g>
     <g id="line2d_98">
      <g>
       <use xlink:href="#m7e238611f7" x="39.30375" y="150.619453" style="stroke: #000000; stroke-width: 0.6"/>
      </g>
     </g>
    </g>
    <g id="ytick_28">
     <g id="line2d_99">
      <path d="M 39.30375 137.213739 
L 546.18375 137.213739 
" clip-path="url(#p00f3770dc3)" style="fill: none; stroke: #bbbbbb; stroke-opacity: 0.15; stroke-width: 0.3; stroke-linecap: square"/>
     </g>
     <g id="line2d_100">
      <g>
       <use xlink:href="#m7e238611f7" x="39.30375" y="137.213739" style="stroke: #000000; stroke-width: 0.6"/>
      </g>
     </g>
    </g>
    <g id="ytick_29">
     <g id="line2d_101">
      <path d="M 39.30375 130.510882 
L 546.18375 130.510882 
" clip-path="url(#p00f3770dc3)" style="fill: none; stroke: #bbbbbb; stroke-opacity: 0.15; stroke-width: 0.3; stroke-linecap: square"/>
     </g>
     <g id="line2d_102">
      <g>
       <use xlink:href="#m7e238611f7" x="39.30375" y="130.510882" style="stroke: #000000; stroke-width: 0.6"/>
      </g>
     </g>
    </g>
    <g id="ytick_30">
     <g id="line2d_103">
      <path d="M 39.30375 123.808025 
L 546.18375 123.808025 
" clip-path="url(#p00f3770dc3)" style="fill: none; stroke: #bbbbbb; stroke-opacity: 0.15; stroke-width: 0.3; stroke-linecap: square"/>
     </g>
     <g id="line2d_104">
      <g>
       <use xlink:href="#m7e238611f7" x="39.30375" y="123.808025" style="stroke: #000000; stroke-width: 0.6"/>
      </g>
     </g>
    </g>
    <g id="ytick_31">
     <g id="line2d_105">
      <path d="M 39.30375 117.105167 
L 546.18375 117.105167 
" clip-path="url(#p00f3770dc3)" style="fill: none; stroke: #bbbbbb; stroke-opacity: 0.15; stroke-width: 0.3; stroke-linecap: square"/>
     </g>
     <g id="line2d_106">
      <g>
       <use xlink:href="#m7e238611f7" x="39.30375" y="117.105167" style="stroke: #000000; stroke-width: 0.6"/>
      </g>
     </g>
    </g>
    <g id="ytick_32">
     <g id="line2d_107">
      <path d="M 39.30375 103.699453 
L 546.18375 103.699453 
" clip-path="url(#p00f3770dc3)" style="fill: none; stroke: #bbbbbb; stroke-opacity: 0.15; stroke-width: 0.3; stroke-linecap: square"/>
     </g>
     <g id="line2d_108">
      <g>
       <use xlink:href="#m7e238611f7" x="39.30375" y="103.699453" style="stroke: #000000; stroke-width: 0.6"/>
      </g>
     </g>
    </g>
    <g id="ytick_33">
     <g id="line2d_109">
      <path d="M 39.30375 96.996596 
L 546.18375 96.996596 
" clip-path="url(#p00f3770dc3)" style="fill: none; stroke: #bbbbbb; stroke-opacity: 0.15; stroke-width: 0.3; stroke-linecap: square"/>
     </g>
     <g id="line2d_110">
      <g>
       <use xlink:href="#m7e238611f7" x="39.30375" y="96.996596" style="stroke: #000000; stroke-width: 0.6"/>
      </g>
     </g>
    </g>
    <g id="ytick_34">
     <g id="line2d_111">
      <path d="M 39.30375 90.293739 
L 546.18375 90.293739 
" clip-path="url(#p00f3770dc3)" style="fill: none; stroke: #bbbbbb; stroke-opacity: 0.15; stroke-width: 0.3; stroke-linecap: square"/>
     </g>
     <g id="line2d_112">
      <g>
       <use xlink:href="#m7e238611f7" x="39.30375" y="90.293739" style="stroke: #000000; stroke-width: 0.6"/>
      </g>
     </g>
    </g>
    <g id="ytick_35">
     <g id="line2d_113">
      <path d="M 39.30375 83.590882 
L 546.18375 83.590882 
" clip-path="url(#p00f3770dc3)" style="fill: none; stroke: #bbbbbb; stroke-opacity: 0.15; stroke-width: 0.3; stroke-linecap: square"/>
     </g>
     <g id="line2d_114">
      <g>
       <use xlink:href="#m7e238611f7" x="39.30375" y="83.590882" style="stroke: #000000; stroke-width: 0.6"/>
      </g>
     </g>
    </g>
    <g id="ytick_36">
     <g id="line2d_115">
      <path d="M 39.30375 70.185167 
L 546.18375 70.185167 
" clip-path="url(#p00f3770dc3)" style="fill: none; stroke: #bbbbbb; stroke-opacity: 0.15; stroke-width: 0.3; stroke-linecap: square"/>
     </g>
     <g id="line2d_116">
      <g>
       <use xlink:href="#m7e238611f7" x="39.30375" y="70.185167" style="stroke: #000000; stroke-width: 0.6"/>
      </g>
     </g>
    </g>
    <g id="ytick_37">
     <g id="line2d_117">
      <path d="M 39.30375 63.48231 
L 546.18375 63.48231 
" clip-path="url(#p00f3770dc3)" style="fill: none; stroke: #bbbbbb; stroke-opacity: 0.15; stroke-width: 0.3; stroke-linecap: square"/>
     </g>
     <g id="line2d_118">
      <g>
       <use xlink:href="#m7e238611f7" x="39.30375" y="63.48231" style="stroke: #000000; stroke-width: 0.6"/>
      </g>
     </g>
    </g>
    <g id="ytick_38">
     <g id="line2d_119">
      <path d="M 39.30375 56.779453 
L 546.18375 56.779453 
" clip-path="url(#p00f3770dc3)" style="fill: none; stroke: #bbbbbb; stroke-opacity: 0.15; stroke-width: 0.3; stroke-linecap: square"/>
     </g>
     <g id="line2d_120">
      <g>
       <use xlink:href="#m7e238611f7" x="39.30375" y="56.779453" style="stroke: #000000; stroke-width: 0.6"/>
      </g>
     </g>
    </g>
    <g id="ytick_39">
     <g id="line2d_121">
      <path d="M 39.30375 50.076596 
L 546.18375 50.076596 
" clip-path="url(#p00f3770dc3)" style="fill: none; stroke: #bbbbbb; stroke-opacity: 0.15; stroke-width: 0.3; stroke-linecap: square"/>
     </g>
     <g id="line2d_122">
      <g>
       <use xlink:href="#m7e238611f7" x="39.30375" y="50.076596" style="stroke: #000000; stroke-width: 0.6"/>
      </g>
     </g>
    </g>
    <g id="ytick_40">
     <g id="line2d_123">
      <path d="M 39.30375 36.670882 
L 546.18375 36.670882 
" clip-path="url(#p00f3770dc3)" style="fill: none; stroke: #bbbbbb; stroke-opacity: 0.15; stroke-width: 0.3; stroke-linecap: square"/>
     </g>
     <g id="line2d_124">
      <g>
       <use xlink:href="#m7e238611f7" x="39.30375" y="36.670882" style="stroke: #000000; stroke-width: 0.6"/>
      </g>
     </g>
    </g>
    <g id="ytick_41">
     <g id="line2d_125">
      <path d="M 39.30375 29.968025 
L 546.18375 29.968025 
" clip-path="url(#p00f3770dc3)" style="fill: none; stroke: #bbbbbb; stroke-opacity: 0.15; stroke-width: 0.3; stroke-linecap: square"/>
     </g>
     <g id="line2d_126">
      <g>
       <use xlink:href="#m7e238611f7" x="39.30375" y="29.968025" style="stroke: #000000; stroke-width: 0.6"/>
      </g>
     </g>
    </g>
    <g id="ytick_42">
     <g id="line2d_127">
      <path d="M 39.30375 23.265167 
L 546.18375 23.265167 
" clip-path="url(#p00f3770dc3)" style="fill: none; stroke: #bbbbbb; stroke-opacity: 0.15; stroke-width: 0.3; stroke-linecap: square"/>
     </g>
     <g id="line2d_128">
      <g>
       <use xlink:href="#m7e238611f7" x="39.30375" y="23.265167" style="stroke: #000000; stroke-width: 0.6"/>
      </g>
     </g>
    </g>
    <g id="ytick_43">
     <g id="line2d_129">
      <path d="M 39.30375 16.56231 
L 546.18375 16.56231 
" clip-path="url(#p00f3770dc3)" style="fill: none; stroke: #bbbbbb; stroke-opacity: 0.15; stroke-width: 0.3; stroke-linecap: square"/>
     </g>
     <g id="line2d_130">
      <g>
       <use xlink:href="#m7e238611f7" x="39.30375" y="16.56231" style="stroke: #000000; stroke-width: 0.6"/>
      </g>
     </g>
    </g>
    <g id="text_17">
     <!-- absolute val MSE -->
     <g transform="translate(13.27875 184.807578) rotate(-90) scale(0.08 -0.08)">
      <defs>
       <path id="DejaVuSans-62" d="M 3116 1747 
Q 3116 2381 2855 2742 
Q 2594 3103 2138 3103 
Q 1681 3103 1420 2742 
Q 1159 2381 1159 1747 
Q 1159 1113 1420 752 
Q 1681 391 2138 391 
Q 2594 391 2855 752 
Q 3116 1113 3116 1747 
z
M 1159 2969 
Q 1341 3281 1617 3432 
Q 1894 3584 2278 3584 
Q 2916 3584 3314 3078 
Q 3713 2572 3713 1747 
Q 3713 922 3314 415 
Q 2916 -91 2278 -91 
Q 1894 -91 1617 61 
Q 1341 213 1159 525 
L 1159 0 
L 581 0 
L 581 4863 
L 1159 4863 
L 1159 2969 
z
" transform="scale(0.015625)"/>
       <path id="DejaVuSans-6f" d="M 1959 3097 
Q 1497 3097 1228 2736 
Q 959 2375 959 1747 
Q 959 1119 1226 758 
Q 1494 397 1959 397 
Q 2419 397 2687 759 
Q 2956 1122 2956 1747 
Q 2956 2369 2687 2733 
Q 2419 3097 1959 3097 
z
M 1959 3584 
Q 2709 3584 3137 3096 
Q 3566 2609 3566 1747 
Q 3566 888 3137 398 
Q 2709 -91 1959 -91 
Q 1206 -91 779 398 
Q 353 888 353 1747 
Q 353 2609 779 3096 
Q 1206 3584 1959 3584 
z
" transform="scale(0.015625)"/>
       <path id="DejaVuSans-6c" d="M 603 4863 
L 1178 4863 
L 1178 0 
L 603 0 
L 603 4863 
z
" transform="scale(0.015625)"/>
       <path id="DejaVuSans-75" d="M 544 1381 
L 544 3500 
L 1119 3500 
L 1119 1403 
Q 1119 906 1312 657 
Q 1506 409 1894 409 
Q 2359 409 2629 706 
Q 2900 1003 2900 1516 
L 2900 3500 
L 3475 3500 
L 3475 0 
L 2900 0 
L 2900 538 
Q 2691 219 2414 64 
Q 2138 -91 1772 -91 
Q 1169 -91 856 284 
Q 544 659 544 1381 
z
M 1991 3584 
L 1991 3584 
z
" transform="scale(0.015625)"/>
       <path id="DejaVuSans-76" d="M 191 3500 
L 800 3500 
L 1894 563 
L 2988 3500 
L 3597 3500 
L 2284 0 
L 1503 0 
L 191 3500 
z
" transform="scale(0.015625)"/>
       <path id="DejaVuSans-4d" d="M 628 4666 
L 1569 4666 
L 2759 1491 
L 3956 4666 
L 4897 4666 
L 4897 0 
L 4281 0 
L 4281 4097 
L 3078 897 
L 2444 897 
L 1241 4097 
L 1241 0 
L 628 0 
L 628 4666 
z
" transform="scale(0.015625)"/>
       <path id="DejaVuSans-53" d="M 3425 4513 
L 3425 3897 
Q 3066 4069 2747 4153 
Q 2428 4238 2131 4238 
Q 1616 4238 1336 4038 
Q 1056 3838 1056 3469 
Q 1056 3159 1242 3001 
Q 1428 2844 1947 2747 
L 2328 2669 
Q 3034 2534 3370 2195 
Q 3706 1856 3706 1288 
Q 3706 609 3251 259 
Q 2797 -91 1919 -91 
Q 1588 -91 1214 -16 
Q 841 59 441 206 
L 441 856 
Q 825 641 1194 531 
Q 1563 422 1919 422 
Q 2459 422 2753 634 
Q 3047 847 3047 1241 
Q 3047 1584 2836 1778 
Q 2625 1972 2144 2069 
L 1759 2144 
Q 1053 2284 737 2584 
Q 422 2884 422 3419 
Q 422 4038 858 4394 
Q 1294 4750 2059 4750 
Q 2388 4750 2728 4690 
Q 3069 4631 3425 4513 
z
" transform="scale(0.015625)"/>
       <path id="DejaVuSans-45" d="M 628 4666 
L 3578 4666 
L 3578 4134 
L 1259 4134 
L 1259 2753 
L 3481 2753 
L 3481 2222 
L 1259 2222 
L 1259 531 
L 3634 531 
L 3634 0 
L 628 0 
L 628 4666 
z
" transform="scale(0.015625)"/>
      </defs>
      <use xlink:href="#DejaVuSans-61"/>
      <use xlink:href="#DejaVuSans-62" transform="translate(61.279297 0)"/>
      <use xlink:href="#DejaVuSans-73" transform="translate(124.755859 0)"/>
      <use xlink:href="#DejaVuSans-6f" transform="translate(176.855469 0)"/>
      <use xlink:href="#DejaVuSans-6c" transform="translate(238.037109 0)"/>
      <use xlink:href="#DejaVuSans-75" transform="translate(265.820312 0)"/>
      <use xlink:href="#DejaVuSans-74" transform="translate(329.199219 0)"/>
      <use xlink:href="#DejaVuSans-65" transform="translate(368.408203 0)"/>
      <use xlink:href="#DejaVuSans-20" transform="translate(429.931641 0)"/>
      <use xlink:href="#DejaVuSans-76" transform="translate(461.71875 0)"/>
      <use xlink:href="#DejaVuSans-61" transform="translate(520.898438 0)"/>
      <use xlink:href="#DejaVuSans-6c" transform="translate(582.177734 0)"/>
      <use xlink:href="#DejaVuSans-20" transform="translate(609.960938 0)"/>
      <use xlink:href="#DejaVuSans-4d" transform="translate(641.748047 0)"/>
      <use xlink:href="#DejaVuSans-53" transform="translate(728.027344 0)"/>
      <use xlink:href="#DejaVuSans-45" transform="translate(791.503906 0)"/>
     </g>
    </g>
   </g>
   <g id="line2d_131">
    <path d="M 110.642675 -1 
L 112.159966 143.608161 
L 116.311318 148.431436 
L 120.462669 184.007935 
L 124.61402 187.956865 
L 128.765372 190.993608 
L 132.916723 192.509424 
L 137.068074 195.190113 
L 141.219426 198.523162 
L 145.370777 201.808743 
L 149.522128 204.886973 
L 153.67348 207.20916 
L 157.824831 208.620021 
L 161.976182 209.534011 
L 166.127534 210.23645 
L 170.278885 210.675937 
L 174.430236 211.028539 
L 178.581588 211.234013 
L 182.732939 211.418981 
L 186.884291 211.670611 
L 191.035642 211.830182 
L 195.186993 211.79306 
L 199.338345 212.052405 
L 203.489696 212.163229 
L 207.641047 212.208727 
L 211.792399 212.324805 
L 215.94375 212.400257 
L 220.095101 212.442923 
L 224.246453 212.487141 
L 228.397804 212.549179 
L 232.549155 212.622639 
L 236.700507 212.689724 
L 240.851858 212.646834 
L 245.003209 212.738055 
L 249.154561 212.801938 
L 253.305912 212.855868 
L 257.457264 212.82664 
L 261.608615 212.865645 
L 265.759966 212.893847 
L 269.911318 212.918091 
L 274.062669 212.953205 
L 278.21402 212.982179 
L 282.365372 212.970901 
L 286.516723 213.010828 
L 290.668074 213.045177 
L 294.819426 213.036646 
L 298.970777 213.055289 
L 303.122128 213.045568 
L 307.27348 213.066967 
L 311.424831 213.05395 
L 315.576182 213.081549 
L 319.727534 213.091841 
L 323.878885 213.081142 
L 328.030236 213.107546 
L 332.181588 213.116432 
L 336.332939 213.079256 
L 340.484291 213.113617 
L 344.635642 213.094177 
L 348.786993 213.08043 
L 352.938345 213.125466 
L 357.089696 213.126171 
L 361.241047 213.12774 
L 365.392399 213.076382 
L 369.54375 213.111489 
L 373.695101 213.122961 
L 377.846453 213.127808 
L 381.997804 213.114165 
L 386.149155 213.111227 
L 390.300507 213.12741 
L 394.451858 213.133811 
L 398.603209 213.136398 
L 402.754561 213.134652 
L 406.905912 213.137412 
L 411.057264 213.101503 
L 415.208615 213.129259 
L 419.359966 213.134591 
L 423.511318 213.109998 
L 427.662669 213.138245 
L 431.81402 213.128274 
L 435.965372 213.132503 
L 440.116723 213.142819 
L 444.268074 213.150036 
L 448.419426 213.147902 
L 452.570777 213.137213 
L 456.722128 213.137647 
L 460.87348 213.145797 
L 465.024831 213.137008 
L 469.176182 213.146041 
L 473.327534 213.12511 
L 477.478885 213.151365 
L 481.630236 213.144988 
L 485.781588 213.147296 
L 489.932939 213.151875 
L 494.084291 213.14941 
L 498.235642 213.148238 
L 502.386993 213.156522 
L 506.538345 213.144224 
L 510.689696 213.156618 
L 514.841047 213.147257 
L 518.992399 213.151272 
L 523.14375 213.153312 
" clip-path="url(#p00f3770dc3)" style="fill: none; stroke: #e69f00; stroke-opacity: 0.85; stroke-width: 1.5; stroke-linecap: square"/>
   </g>
   <g id="line2d_132">
    <path d="M 95.915335 -1 
L 99.705912 161.402582 
L 103.857264 186.404082 
L 108.008615 214.96664 
L 112.159966 220.512944 
L 116.311318 228.274243 
L 120.462669 233.994031 
L 124.61402 241.798757 
L 128.765372 251.076734 
L 132.916723 259.704027 
L 137.068074 265.102271 
L 141.219426 267.8102 
L 145.370777 269.811542 
L 149.522128 271.221374 
L 153.67348 272.14218 
L 157.824831 272.766957 
L 161.976182 273.119912 
L 166.127534 273.353698 
L 170.278885 273.5109 
L 174.430236 273.674654 
L 178.581588 273.785604 
L 182.732939 273.886888 
L 186.884291 273.983778 
L 191.035642 274.06436 
L 195.186993 274.061447 
L 199.338345 274.147539 
L 203.489696 274.231171 
L 207.641047 274.299393 
L 211.792399 274.282749 
L 215.94375 274.269812 
L 220.095101 274.38109 
L 224.246453 274.338472 
L 228.397804 274.406313 
L 232.549155 274.345299 
L 236.700507 274.396043 
L 240.851858 274.390438 
L 245.003209 274.364966 
L 249.154561 274.437129 
L 253.305912 274.402523 
L 257.457264 274.463007 
L 261.608615 274.452484 
L 265.759966 274.450793 
L 269.911318 274.462673 
L 274.062669 274.489982 
L 278.21402 274.494197 
L 282.365372 274.496417 
L 286.516723 274.519153 
L 290.668074 274.511507 
L 294.819426 274.525554 
L 298.970777 274.528832 
L 303.122128 274.531209 
L 307.27348 274.500573 
L 311.424831 274.532875 
L 315.576182 274.502452 
L 319.727534 274.539305 
L 323.878885 274.528203 
L 328.030236 274.528083 
L 332.181588 274.508142 
L 336.332939 274.569873 
L 340.484291 274.546751 
L 344.635642 274.54458 
L 348.786993 274.526068 
L 352.938345 274.56719 
L 357.089696 274.565565 
L 361.241047 274.571782 
L 365.392399 274.547576 
L 369.54375 274.566382 
L 373.695101 274.571404 
L 377.846453 274.588194 
L 381.997804 274.595698 
L 386.149155 274.573567 
L 390.300507 274.609893 
L 394.451858 274.562743 
L 398.603209 274.564158 
L 402.754561 274.605505 
L 406.905912 274.599147 
L 411.057264 274.605209 
L 415.208615 274.609007 
L 419.359966 274.616394 
L 423.511318 274.575364 
L 427.662669 274.618239 
L 431.81402 274.622151 
L 435.965372 274.610329 
L 440.116723 274.622273 
L 444.268074 274.624346 
L 448.419426 274.635716 
L 452.570777 274.621596 
L 456.722128 274.63541 
L 460.87348 274.638061 
L 465.024831 274.631066 
L 469.176182 274.638343 
L 473.327534 274.634917 
L 477.478885 274.655572 
L 481.630236 274.653118 
L 485.781588 274.651023 
L 489.932939 274.663391 
L 494.084291 274.649888 
L 498.235642 274.653281 
L 502.386993 274.642342 
L 506.538345 274.648234 
L 510.689696 274.663691 
L 514.841047 274.664653 
L 518.992399 274.661018 
L 523.14375 274.671227 
" clip-path="url(#p00f3770dc3)" style="fill: none; stroke: #009e73; stroke-opacity: 0.85; stroke-width: 1.5; stroke-linecap: square"/>
   </g>
   <g id="line2d_133">
    <path d="M 87.332195 -1 
L 91.403209 125.335523 
L 95.554561 157.971148 
L 99.705912 192.132001 
L 103.857264 206.750382 
L 108.008615 220.684889 
L 112.159966 232.006477 
L 116.311318 243.329536 
L 120.462669 253.09851 
L 124.61402 260.678547 
L 128.765372 265.558898 
L 132.916723 267.796243 
L 137.068074 269.183085 
L 141.219426 270.290203 
L 145.370777 270.979688 
L 149.522128 271.664761 
L 153.67348 272.245993 
L 157.824831 272.761939 
L 161.976182 273.02896 
L 166.127534 273.635498 
L 170.278885 274.028144 
L 174.430236 274.434282 
L 178.581588 274.650187 
L 182.732939 274.913364 
L 186.884291 275.087961 
L 191.035642 275.221746 
L 195.186993 275.298306 
L 199.338345 275.390673 
L 203.489696 275.47901 
L 207.641047 275.499505 
L 211.792399 275.568179 
L 215.94375 275.646894 
L 220.095101 275.683344 
L 224.246453 275.72847 
L 228.397804 275.796572 
L 232.549155 275.784311 
L 236.700507 275.837782 
L 240.851858 275.831791 
L 245.003209 275.906895 
L 249.154561 275.930631 
L 253.305912 275.936825 
L 257.457264 276.000476 
L 261.608615 276.027076 
L 265.759966 276.03684 
L 269.911318 276.074068 
L 274.062669 276.119915 
L 278.21402 276.133833 
L 282.365372 276.160823 
L 286.516723 276.224263 
L 290.668074 276.185527 
L 294.819426 276.203767 
L 298.970777 276.287469 
L 303.122128 276.313318 
L 307.27348 276.329326 
L 311.424831 276.370081 
L 315.576182 276.410665 
L 319.727534 276.459549 
L 323.878885 276.46729 
L 328.030236 276.500353 
L 332.181588 276.506651 
L 336.332939 276.533404 
L 340.484291 276.551514 
L 344.635642 276.573375 
L 348.786993 276.55275 
L 352.938345 276.606063 
L 357.089696 276.616727 
L 361.241047 276.649846 
L 365.392399 276.671015 
L 369.54375 276.687099 
L 373.695101 276.648684 
L 377.846453 276.692408 
L 381.997804 276.726693 
L 386.149155 276.71669 
L 390.300507 276.746631 
L 394.451858 276.744237 
L 398.603209 276.756649 
L 402.754561 276.755625 
L 406.905912 276.768764 
L 411.057264 276.753905 
L 415.208615 276.771396 
L 419.359966 276.785903 
L 423.511318 276.752772 
L 427.662669 276.751951 
L 431.81402 276.780357 
L 435.965372 276.777777 
L 440.116723 276.796211 
L 444.268074 276.780822 
L 448.419426 276.794176 
L 452.570777 276.772583 
L 456.722128 276.805568 
L 460.87348 276.791391 
L 465.024831 276.806081 
L 469.176182 276.79176 
L 473.327534 276.785403 
L 477.478885 276.807183 
L 481.630236 276.798424 
L 485.781588 276.802067 
L 489.932939 276.814527 
L 494.084291 276.81049 
L 498.235642 276.806119 
L 502.386993 276.826041 
L 506.538345 276.811876 
L 510.689696 276.823353 
L 514.841047 276.825774 
L 518.992399 276.814416 
L 523.14375 276.825273 
" clip-path="url(#p00f3770dc3)" style="fill: none; stroke: #cc79a7; stroke-opacity: 0.85; stroke-width: 1.5; stroke-linecap: square"/>
   </g>
   <g id="line2d_134">
    <path d="M 82.945362 -1 
L 83.100507 28.993976 
L 87.251858 118.516134 
L 91.403209 165.20348 
L 95.554561 189.523044 
L 99.705912 210.647056 
L 103.857264 225.447196 
L 108.008615 235.875429 
L 112.159966 245.427304 
L 116.311318 253.149205 
L 120.462669 258.460903 
L 124.61402 261.922682 
L 128.765372 264.563151 
L 132.916723 266.569015 
L 137.068074 268.302821 
L 141.219426 269.31429 
L 145.370777 269.949728 
L 149.522128 270.591299 
L 153.67348 270.839966 
L 157.824831 271.198609 
L 161.976182 271.097888 
L 166.127534 271.299025 
L 170.278885 271.572347 
L 174.430236 271.792601 
L 178.581588 271.924866 
L 182.732939 271.870456 
L 186.884291 272.000614 
L 191.035642 272.217089 
L 195.186993 272.243507 
L 199.338345 272.336787 
L 203.489696 272.390746 
L 207.641047 272.456626 
L 211.792399 272.526131 
L 215.94375 272.654587 
L 220.095101 272.689392 
L 224.246453 272.710095 
L 228.397804 272.789654 
L 232.549155 272.796971 
L 236.700507 272.858835 
L 240.851858 272.899267 
L 245.003209 272.887494 
L 249.154561 273.002497 
L 253.305912 273.144663 
L 257.457264 273.209685 
L 261.608615 273.264517 
L 265.759966 273.306338 
L 269.911318 273.339797 
L 274.062669 273.387974 
L 278.21402 273.416587 
L 282.365372 273.397884 
L 286.516723 273.438844 
L 290.668074 273.52353 
L 294.819426 273.549278 
L 298.970777 273.548003 
L 303.122128 273.592529 
L 307.27348 273.627759 
L 311.424831 273.689358 
L 315.576182 273.658201 
L 319.727534 273.683245 
L 323.878885 273.705479 
L 328.030236 273.732628 
L 332.181588 273.834465 
L 336.332939 273.874596 
L 340.484291 273.871426 
L 344.635642 273.864697 
L 348.786993 273.924296 
L 352.938345 273.928989 
L 357.089696 273.963366 
L 361.241047 273.992743 
L 365.392399 274.000942 
L 369.54375 274.019472 
L 373.695101 273.966928 
L 377.846453 274.024584 
L 381.997804 274.069913 
L 386.149155 274.074236 
L 390.300507 274.091796 
L 394.451858 274.074526 
L 398.603209 274.084614 
L 402.754561 274.109021 
L 406.905912 274.10812 
L 411.057264 274.135777 
L 415.208615 274.153821 
L 419.359966 274.153746 
L 423.511318 274.135846 
L 427.662669 274.135838 
L 431.81402 274.173118 
L 435.965372 274.180869 
L 440.116723 274.183218 
L 444.268074 274.164552 
L 448.419426 274.201944 
L 452.570777 274.184016 
L 456.722128 274.211753 
L 460.87348 274.212679 
L 465.024831 274.202349 
L 469.176182 274.218336 
L 473.327534 274.221632 
L 477.478885 274.232647 
L 481.630236 274.238421 
L 485.781588 274.243336 
L 489.932939 274.238944 
L 494.084291 274.241269 
L 498.235642 274.241744 
L 502.386993 274.248876 
L 506.538345 274.251383 
L 510.689696 274.256402 
L 514.841047 274.272915 
L 518.992399 274.253303 
L 523.14375 274.271025 
" clip-path="url(#p00f3770dc3)" style="fill: none; stroke: #d55e00; stroke-opacity: 0.85; stroke-width: 1.5; stroke-linecap: square"/>
   </g>
   <g id="line2d_135">
    <path d="M 80.887157 -1 
L 83.100507 93.567708 
L 87.251858 137.297083 
L 91.403209 178.832908 
L 95.554561 205.53084 
L 99.705912 222.672145 
L 103.857264 234.846508 
L 108.008615 243.815411 
L 112.159966 249.723179 
L 116.311318 254.488942 
L 120.462669 257.472127 
L 124.61402 259.475461 
L 128.765372 262.482869 
L 132.916723 264.316416 
L 137.068074 265.920364 
L 141.219426 267.387453 
L 145.370777 268.43898 
L 149.522128 269.012617 
L 153.67348 270.002451 
L 157.824831 269.805596 
L 161.976182 270.541847 
L 166.127534 270.814513 
L 170.278885 271.084256 
L 174.430236 271.180536 
L 178.581588 271.330574 
L 182.732939 271.115615 
L 186.884291 271.585568 
L 191.035642 271.569921 
L 195.186993 271.921088 
L 199.338345 271.965247 
L 203.489696 272.047983 
L 207.641047 272.187843 
L 211.792399 272.046034 
L 215.94375 272.230363 
L 220.095101 272.354205 
L 224.246453 272.379271 
L 228.397804 272.469456 
L 232.549155 272.528998 
L 236.700507 272.630639 
L 240.851858 272.642921 
L 245.003209 272.699042 
L 249.154561 272.677983 
L 253.305912 272.752431 
L 257.457264 272.832638 
L 261.608615 272.8512 
L 265.759966 272.958077 
L 269.911318 272.892772 
L 274.062669 272.902226 
L 278.21402 272.927133 
L 282.365372 272.938414 
L 286.516723 273.064948 
L 290.668074 272.993988 
L 294.819426 273.091775 
L 298.970777 273.16476 
L 303.122128 273.14773 
L 307.27348 273.155919 
L 311.424831 273.137476 
L 315.576182 273.250409 
L 319.727534 273.217007 
L 323.878885 273.262712 
L 328.030236 273.309165 
L 332.181588 273.298413 
L 336.332939 273.303213 
L 340.484291 273.339407 
L 344.635642 273.353991 
L 348.786993 273.350622 
L 352.938345 273.404991 
L 357.089696 273.417441 
L 361.241047 273.4231 
L 365.392399 273.491767 
L 369.54375 273.474625 
L 373.695101 273.414184 
L 377.846453 273.482826 
L 381.997804 273.523276 
L 386.149155 273.509249 
L 390.300507 273.556348 
L 394.451858 273.528814 
L 398.603209 273.573752 
L 402.754561 273.560493 
L 406.905912 273.586159 
L 411.057264 273.580457 
L 415.208615 273.59664 
L 419.359966 273.631016 
L 423.511318 273.624546 
L 427.662669 273.640756 
L 431.81402 273.658492 
L 435.965372 273.651743 
L 440.116723 273.666633 
L 444.268074 273.653505 
L 448.419426 273.692574 
L 452.570777 273.695562 
L 456.722128 273.698154 
L 460.87348 273.696835 
L 465.024831 273.71655 
L 469.176182 273.701608 
L 473.327534 273.712876 
L 477.478885 273.736572 
L 481.630236 273.73971 
L 485.781588 273.74315 
L 489.932939 273.743179 
L 494.084291 273.748892 
L 498.235642 273.748703 
L 502.386993 273.749278 
L 506.538345 273.753882 
L 510.689696 273.755926 
L 514.841047 273.766533 
L 518.992399 273.76173 
L 523.14375 273.766538 
" clip-path="url(#p00f3770dc3)" style="fill: none; stroke: #56b4e9; stroke-opacity: 0.85; stroke-width: 1.5; stroke-linecap: square"/>
   </g>
   <g id="line2d_136">
    <path d="M 78.904442 -1 
L 78.949155 8.345756 
L 83.100507 94.040637 
L 87.251858 153.071902 
L 91.403209 187.380498 
L 95.554561 210.178168 
L 99.705912 227.240367 
L 103.857264 239.634323 
L 108.008615 248.414271 
L 112.159966 254.284123 
L 116.311318 257.673056 
L 120.462669 261.085212 
L 124.61402 263.608557 
L 128.765372 265.531643 
L 132.916723 266.520273 
L 137.068074 267.877524 
L 141.219426 267.255351 
L 145.370777 268.000906 
L 149.522128 268.398681 
L 153.67348 269.028899 
L 157.824831 270.078259 
L 161.976182 270.181145 
L 166.127534 270.408715 
L 170.278885 270.309907 
L 174.430236 270.860822 
L 178.581588 270.994503 
L 182.732939 271.151486 
L 186.884291 271.145405 
L 191.035642 271.344138 
L 195.186993 271.397778 
L 199.338345 271.643305 
L 203.489696 271.653636 
L 207.641047 271.762052 
L 211.792399 271.809231 
L 215.94375 272.003073 
L 220.095101 271.848565 
L 224.246453 272.145172 
L 228.397804 272.03701 
L 232.549155 272.195142 
L 236.700507 272.375582 
L 240.851858 272.631145 
L 245.003209 272.765294 
L 249.154561 272.97289 
L 253.305912 273.253067 
L 257.457264 273.516822 
L 261.608615 273.824216 
L 265.759966 274.074101 
L 269.911318 274.430108 
L 274.062669 274.688328 
L 278.21402 275.009421 
L 282.365372 275.056634 
L 286.516723 275.421478 
L 290.668074 275.484191 
L 294.819426 275.59214 
L 298.970777 275.801001 
L 303.122128 275.831214 
L 307.27348 275.822823 
L 311.424831 275.861047 
L 315.576182 275.885821 
L 319.727534 275.995183 
L 323.878885 276.075519 
L 328.030236 275.944728 
L 332.181588 276.050894 
L 336.332939 276.087364 
L 340.484291 276.140152 
L 344.635642 276.019847 
L 348.786993 276.135222 
L 352.938345 276.180258 
L 357.089696 276.169402 
L 361.241047 276.232907 
L 365.392399 276.19312 
L 369.54375 276.219054 
L 373.695101 276.190003 
L 377.846453 276.274542 
L 381.997804 276.295079 
L 386.149155 276.303413 
L 390.300507 276.338718 
L 394.451858 276.343266 
L 398.603209 276.327085 
L 402.754561 276.376098 
L 406.905912 276.34698 
L 411.057264 276.415144 
L 415.208615 276.391617 
L 419.359966 276.409168 
L 423.511318 276.407599 
L 427.662669 276.414177 
L 431.81402 276.428787 
L 435.965372 276.432116 
L 440.116723 276.445162 
L 444.268074 276.47641 
L 448.419426 276.483823 
L 452.570777 276.480892 
L 456.722128 276.479925 
L 460.87348 276.502901 
L 465.024831 276.512332 
L 469.176182 276.52082 
L 473.327534 276.527733 
L 477.478885 276.550444 
L 481.630236 276.5616 
L 485.781588 276.551622 
L 489.932939 276.555241 
L 494.084291 276.553105 
L 498.235642 276.578834 
L 502.386993 276.589094 
L 506.538345 276.577148 
L 510.689696 276.604207 
L 514.841047 276.606974 
L 518.992399 276.59474 
L 523.14375 276.619337 
" clip-path="url(#p00f3770dc3)" style="fill: none; stroke: #000000; stroke-opacity: 0.85; stroke-width: 1.5; stroke-linecap: square"/>
   </g>
   <g id="patch_3">
    <path d="M 39.30375 291.379453 
L 39.30375 9.859453 
" style="fill: none; stroke: #000000; stroke-width: 0.8; stroke-linejoin: miter; stroke-linecap: square"/>
   </g>
   <g id="patch_4">
    <path d="M 39.30375 291.379453 
L 546.18375 291.379453 
" style="fill: none; stroke: #000000; stroke-width: 0.8; stroke-linejoin: miter; stroke-linecap: square"/>
   </g>
   <g id="line2d_137">
    <path d="M 126.853037 -1 
L 128.765372 190.993608 
L 157.824831 208.620021 
L 186.884291 211.670611 
L 215.94375 212.400257 
L 245.003209 212.738055 
L 274.062669 212.953205 
L 303.122128 213.045568 
L 332.181588 213.116432 
L 361.241047 213.12774 
L 390.300507 213.12741 
L 419.359966 213.134591 
L 448.419426 213.147902 
L 523.14375 213.153312 
" clip-path="url(#p00f3770dc3)" style="fill: none"/>
    <defs>
     <path id="m070883d6cb" d="M -1.125 2.25 
L 0 1.125 
L 1.125 2.25 
L 2.25 1.125 
L 1.125 0 
L 2.25 -1.125 
L 1.125 -2.25 
L 0 -1.125 
L -1.125 -2.25 
L -2.25 -1.125 
L -1.125 0 
L -2.25 1.125 
z
" style="stroke: #e69f00; stroke-linejoin: miter"/>
    </defs>
    <g clip-path="url(#p00f3770dc3)">
     <use xlink:href="#m070883d6cb" x="126.853037" y="-1" style="fill: #e69f00; stroke: #e69f00; stroke-linejoin: miter"/>
     <use xlink:href="#m070883d6cb" x="128.765372" y="190.993608" style="fill: #e69f00; stroke: #e69f00; stroke-linejoin: miter"/>
     <use xlink:href="#m070883d6cb" x="157.824831" y="208.620021" style="fill: #e69f00; stroke: #e69f00; stroke-linejoin: miter"/>
     <use xlink:href="#m070883d6cb" x="186.884291" y="211.670611" style="fill: #e69f00; stroke: #e69f00; stroke-linejoin: miter"/>
     <use xlink:href="#m070883d6cb" x="215.94375" y="212.400257" style="fill: #e69f00; stroke: #e69f00; stroke-linejoin: miter"/>
     <use xlink:href="#m070883d6cb" x="245.003209" y="212.738055" style="fill: #e69f00; stroke: #e69f00; stroke-linejoin: miter"/>
     <use xlink:href="#m070883d6cb" x="274.062669" y="212.953205" style="fill: #e69f00; stroke: #e69f00; stroke-linejoin: miter"/>
     <use xlink:href="#m070883d6cb" x="303.122128" y="213.045568" style="fill: #e69f00; stroke: #e69f00; stroke-linejoin: miter"/>
     <use xlink:href="#m070883d6cb" x="332.181588" y="213.116432" style="fill: #e69f00; stroke: #e69f00; stroke-linejoin: miter"/>
     <use xlink:href="#m070883d6cb" x="361.241047" y="213.12774" style="fill: #e69f00; stroke: #e69f00; stroke-linejoin: miter"/>
     <use xlink:href="#m070883d6cb" x="390.300507" y="213.12741" style="fill: #e69f00; stroke: #e69f00; stroke-linejoin: miter"/>
     <use xlink:href="#m070883d6cb" x="419.359966" y="213.134591" style="fill: #e69f00; stroke: #e69f00; stroke-linejoin: miter"/>
     <use xlink:href="#m070883d6cb" x="448.419426" y="213.147902" style="fill: #e69f00; stroke: #e69f00; stroke-linejoin: miter"/>
     <use xlink:href="#m070883d6cb" x="523.14375" y="213.153312" style="fill: #e69f00; stroke: #e69f00; stroke-linejoin: miter"/>
    </g>
   </g>
   <g id="line2d_138">
    <path d="M 115.441142 -1 
L 116.311318 228.274243 
L 153.67348 272.14218 
L 191.035642 274.06436 
L 228.397804 274.406313 
L 265.759966 274.450793 
L 303.122128 274.531209 
L 340.484291 274.546751 
L 377.846453 274.588194 
L 415.208615 274.609007 
L 452.570777 274.621596 
L 489.932939 274.663391 
L 523.14375 274.671227 
" clip-path="url(#p00f3770dc3)" style="fill: none"/>
    <defs>
     <path id="m8057c9095c" d="M 0 -2.25 
L -2.25 2.25 
L 2.25 2.25 
z
" style="stroke: #009e73; stroke-linejoin: miter"/>
    </defs>
    <g clip-path="url(#p00f3770dc3)">
     <use xlink:href="#m8057c9095c" x="115.441142" y="-1" style="fill: #009e73; stroke: #009e73; stroke-linejoin: miter"/>
     <use xlink:href="#m8057c9095c" x="116.311318" y="228.274243" style="fill: #009e73; stroke: #009e73; stroke-linejoin: miter"/>
     <use xlink:href="#m8057c9095c" x="153.67348" y="272.14218" style="fill: #009e73; stroke: #009e73; stroke-linejoin: miter"/>
     <use xlink:href="#m8057c9095c" x="191.035642" y="274.06436" style="fill: #009e73; stroke: #009e73; stroke-linejoin: miter"/>
     <use xlink:href="#m8057c9095c" x="228.397804" y="274.406313" style="fill: #009e73; stroke: #009e73; stroke-linejoin: miter"/>
     <use xlink:href="#m8057c9095c" x="265.759966" y="274.450793" style="fill: #009e73; stroke: #009e73; stroke-linejoin: miter"/>
     <use xlink:href="#m8057c9095c" x="303.122128" y="274.531209" style="fill: #009e73; stroke: #009e73; stroke-linejoin: miter"/>
     <use xlink:href="#m8057c9095c" x="340.484291" y="274.546751" style="fill: #009e73; stroke: #009e73; stroke-linejoin: miter"/>
     <use xlink:href="#m8057c9095c" x="377.846453" y="274.588194" style="fill: #009e73; stroke: #009e73; stroke-linejoin: miter"/>
     <use xlink:href="#m8057c9095c" x="415.208615" y="274.609007" style="fill: #009e73; stroke: #009e73; stroke-linejoin: miter"/>
     <use xlink:href="#m8057c9095c" x="452.570777" y="274.621596" style="fill: #009e73; stroke: #009e73; stroke-linejoin: miter"/>
     <use xlink:href="#m8057c9095c" x="489.932939" y="274.663391" style="fill: #009e73; stroke: #009e73; stroke-linejoin: miter"/>
     <use xlink:href="#m8057c9095c" x="523.14375" y="274.671227" style="fill: #009e73; stroke: #009e73; stroke-linejoin: miter"/>
    </g>
   </g>
   <g id="line2d_139">
    <path d="M 87.671506 -1 
L 132.916723 267.796243 
L 178.581588 274.650187 
L 224.246453 275.72847 
L 269.911318 276.074068 
L 315.576182 276.410665 
L 361.241047 276.649846 
L 406.905912 276.768764 
L 452.570777 276.772583 
L 498.235642 276.806119 
L 523.14375 276.825273 
" clip-path="url(#p00f3770dc3)" style="fill: none"/>
    <defs>
     <path id="mceefe7d3c0" d="M -0.75 2.25 
L 0.75 2.25 
L 0.75 0.75 
L 2.25 0.75 
L 2.25 -0.75 
L 0.75 -0.75 
L 0.75 -2.25 
L -0.75 -2.25 
L -0.75 -0.75 
L -2.25 -0.75 
L -2.25 0.75 
L -0.75 0.75 
z
" style="stroke: #cc79a7; stroke-linejoin: miter"/>
    </defs>
    <g clip-path="url(#p00f3770dc3)">
     <use xlink:href="#mceefe7d3c0" x="87.671506" y="-1" style="fill: #cc79a7; stroke: #cc79a7; stroke-linejoin: miter"/>
     <use xlink:href="#mceefe7d3c0" x="132.916723" y="267.796243" style="fill: #cc79a7; stroke: #cc79a7; stroke-linejoin: miter"/>
     <use xlink:href="#mceefe7d3c0" x="178.581588" y="274.650187" style="fill: #cc79a7; stroke: #cc79a7; stroke-linejoin: miter"/>
     <use xlink:href="#mceefe7d3c0" x="224.246453" y="275.72847" style="fill: #cc79a7; stroke: #cc79a7; stroke-linejoin: miter"/>
     <use xlink:href="#mceefe7d3c0" x="269.911318" y="276.074068" style="fill: #cc79a7; stroke: #cc79a7; stroke-linejoin: miter"/>
     <use xlink:href="#mceefe7d3c0" x="315.576182" y="276.410665" style="fill: #cc79a7; stroke: #cc79a7; stroke-linejoin: miter"/>
     <use xlink:href="#mceefe7d3c0" x="361.241047" y="276.649846" style="fill: #cc79a7; stroke: #cc79a7; stroke-linejoin: miter"/>
     <use xlink:href="#mceefe7d3c0" x="406.905912" y="276.768764" style="fill: #cc79a7; stroke: #cc79a7; stroke-linejoin: miter"/>
     <use xlink:href="#mceefe7d3c0" x="452.570777" y="276.772583" style="fill: #cc79a7; stroke: #cc79a7; stroke-linejoin: miter"/>
     <use xlink:href="#mceefe7d3c0" x="498.235642" y="276.806119" style="fill: #cc79a7; stroke: #cc79a7; stroke-linejoin: miter"/>
     <use xlink:href="#mceefe7d3c0" x="523.14375" y="276.825273" style="fill: #cc79a7; stroke: #cc79a7; stroke-linejoin: miter"/>
    </g>
   </g>
   <g id="line2d_140">
    <path d="M 95.554561 189.523044 
L 149.522128 270.591299 
L 203.489696 272.390746 
L 257.457264 273.209685 
L 311.424831 273.689358 
L 365.392399 274.000942 
L 419.359966 274.153746 
L 473.327534 274.221632 
L 523.14375 274.271025 
" clip-path="url(#p00f3770dc3)" style="fill: none"/>
    <defs>
     <path id="m5481ede8f5" d="M -2.25 2.25 
L 2.25 2.25 
L 2.25 -2.25 
L -2.25 -2.25 
z
" style="stroke: #d55e00; stroke-linejoin: miter"/>
    </defs>
    <g clip-path="url(#p00f3770dc3)">
     <use xlink:href="#m5481ede8f5" x="95.554561" y="189.523044" style="fill: #d55e00; stroke: #d55e00; stroke-linejoin: miter"/>
     <use xlink:href="#m5481ede8f5" x="149.522128" y="270.591299" style="fill: #d55e00; stroke: #d55e00; stroke-linejoin: miter"/>
     <use xlink:href="#m5481ede8f5" x="203.489696" y="272.390746" style="fill: #d55e00; stroke: #d55e00; stroke-linejoin: miter"/>
     <use xlink:href="#m5481ede8f5" x="257.457264" y="273.209685" style="fill: #d55e00; stroke: #d55e00; stroke-linejoin: miter"/>
     <use xlink:href="#m5481ede8f5" x="311.424831" y="273.689358" style="fill: #d55e00; stroke: #d55e00; stroke-linejoin: miter"/>
     <use xlink:href="#m5481ede8f5" x="365.392399" y="274.000942" style="fill: #d55e00; stroke: #d55e00; stroke-linejoin: miter"/>
     <use xlink:href="#m5481ede8f5" x="419.359966" y="274.153746" style="fill: #d55e00; stroke: #d55e00; stroke-linejoin: miter"/>
     <use xlink:href="#m5481ede8f5" x="473.327534" y="274.221632" style="fill: #d55e00; stroke: #d55e00; stroke-linejoin: miter"/>
     <use xlink:href="#m5481ede8f5" x="523.14375" y="274.271025" style="fill: #d55e00; stroke: #d55e00; stroke-linejoin: miter"/>
    </g>
   </g>
   <g id="line2d_141">
    <path d="M 104.951816 -1 
L 108.008615 243.815411 
L 141.219426 267.387453 
L 174.430236 271.180536 
L 207.641047 272.187843 
L 240.851858 272.642921 
L 274.062669 272.902226 
L 307.27348 273.155919 
L 340.484291 273.339407 
L 373.695101 273.414184 
L 406.905912 273.586159 
L 440.116723 273.666633 
L 473.327534 273.712876 
L 506.538345 273.753882 
L 523.14375 273.766538 
" clip-path="url(#p00f3770dc3)" style="fill: none"/>
    <defs>
     <path id="m384e8ce11d" d="M 0 -2.25 
L -1.948557 -1.125 
L -1.948557 1.125 
L -0 2.25 
L 1.948557 1.125 
L 1.948557 -1.125 
z
" style="stroke: #56b4e9; stroke-linejoin: miter"/>
    </defs>
    <g clip-path="url(#p00f3770dc3)">
     <use xlink:href="#m384e8ce11d" x="104.951816" y="-1" style="fill: #56b4e9; stroke: #56b4e9; stroke-linejoin: miter"/>
     <use xlink:href="#m384e8ce11d" x="108.008615" y="243.815411" style="fill: #56b4e9; stroke: #56b4e9; stroke-linejoin: miter"/>
     <use xlink:href="#m384e8ce11d" x="141.219426" y="267.387453" style="fill: #56b4e9; stroke: #56b4e9; stroke-linejoin: miter"/>
     <use xlink:href="#m384e8ce11d" x="174.430236" y="271.180536" style="fill: #56b4e9; stroke: #56b4e9; stroke-linejoin: miter"/>
     <use xlink:href="#m384e8ce11d" x="207.641047" y="272.187843" style="fill: #56b4e9; stroke: #56b4e9; stroke-linejoin: miter"/>
     <use xlink:href="#m384e8ce11d" x="240.851858" y="272.642921" style="fill: #56b4e9; stroke: #56b4e9; stroke-linejoin: miter"/>
     <use xlink:href="#m384e8ce11d" x="274.062669" y="272.902226" style="fill: #56b4e9; stroke: #56b4e9; stroke-linejoin: miter"/>
     <use xlink:href="#m384e8ce11d" x="307.27348" y="273.155919" style="fill: #56b4e9; stroke: #56b4e9; stroke-linejoin: miter"/>
     <use xlink:href="#m384e8ce11d" x="340.484291" y="273.339407" style="fill: #56b4e9; stroke: #56b4e9; stroke-linejoin: miter"/>
     <use xlink:href="#m384e8ce11d" x="373.695101" y="273.414184" style="fill: #56b4e9; stroke: #56b4e9; stroke-linejoin: miter"/>
     <use xlink:href="#m384e8ce11d" x="406.905912" y="273.586159" style="fill: #56b4e9; stroke: #56b4e9; stroke-linejoin: miter"/>
     <use xlink:href="#m384e8ce11d" x="440.116723" y="273.666633" style="fill: #56b4e9; stroke: #56b4e9; stroke-linejoin: miter"/>
     <use xlink:href="#m384e8ce11d" x="473.327534" y="273.712876" style="fill: #56b4e9; stroke: #56b4e9; stroke-linejoin: miter"/>
     <use xlink:href="#m384e8ce11d" x="506.538345" y="273.753882" style="fill: #56b4e9; stroke: #56b4e9; stroke-linejoin: miter"/>
     <use xlink:href="#m384e8ce11d" x="523.14375" y="273.766538" style="fill: #56b4e9; stroke: #56b4e9; stroke-linejoin: miter"/>
    </g>
   </g>
   <g id="line2d_142">
    <path d="M 83.100507 94.040637 
L 124.61402 263.608557 
L 166.127534 270.408715 
L 207.641047 271.762052 
L 249.154561 272.97289 
L 290.668074 275.484191 
L 332.181588 276.050894 
L 373.695101 276.190003 
L 415.208615 276.391617 
L 456.722128 276.479925 
L 498.235642 276.578834 
L 523.14375 276.619337 
" clip-path="url(#p00f3770dc3)" style="fill: none"/>
    <defs>
     <path id="m38d04a96b8" d="M -0 3.181981 
L 3.181981 0 
L 0 -3.181981 
L -3.181981 -0 
z
" style="stroke: #000000; stroke-linejoin: miter"/>
    </defs>
    <g clip-path="url(#p00f3770dc3)">
     <use xlink:href="#m38d04a96b8" x="83.100507" y="94.040637" style="stroke: #000000; stroke-linejoin: miter"/>
     <use xlink:href="#m38d04a96b8" x="124.61402" y="263.608557" style="stroke: #000000; stroke-linejoin: miter"/>
     <use xlink:href="#m38d04a96b8" x="166.127534" y="270.408715" style="stroke: #000000; stroke-linejoin: miter"/>
     <use xlink:href="#m38d04a96b8" x="207.641047" y="271.762052" style="stroke: #000000; stroke-linejoin: miter"/>
     <use xlink:href="#m38d04a96b8" x="249.154561" y="272.97289" style="stroke: #000000; stroke-linejoin: miter"/>
     <use xlink:href="#m38d04a96b8" x="290.668074" y="275.484191" style="stroke: #000000; stroke-linejoin: miter"/>
     <use xlink:href="#m38d04a96b8" x="332.181588" y="276.050894" style="stroke: #000000; stroke-linejoin: miter"/>
     <use xlink:href="#m38d04a96b8" x="373.695101" y="276.190003" style="stroke: #000000; stroke-linejoin: miter"/>
     <use xlink:href="#m38d04a96b8" x="415.208615" y="276.391617" style="stroke: #000000; stroke-linejoin: miter"/>
     <use xlink:href="#m38d04a96b8" x="456.722128" y="276.479925" style="stroke: #000000; stroke-linejoin: miter"/>
     <use xlink:href="#m38d04a96b8" x="498.235642" y="276.578834" style="stroke: #000000; stroke-linejoin: miter"/>
     <use xlink:href="#m38d04a96b8" x="523.14375" y="276.619337" style="stroke: #000000; stroke-linejoin: miter"/>
    </g>
   </g>
   <g id="legend_1">
    <g id="patch_5">
     <path d="M 501.710781 77.107578 
L 541.28375 77.107578 
Q 542.68375 77.107578 542.68375 75.707578 
L 542.68375 14.759453 
Q 542.68375 13.359453 541.28375 13.359453 
L 501.710781 13.359453 
Q 500.310781 13.359453 500.310781 14.759453 
L 500.310781 75.707578 
Q 500.310781 77.107578 501.710781 77.107578 
z
" style="fill: #ffffff; opacity: 0.85; stroke: #cccccc; stroke-linejoin: miter"/>
    </g>
    <g id="line2d_143">
     <path d="M 503.110781 19.028359 
L 511.510781 19.028359 
L 519.910781 19.028359 
" style="fill: none"/>
     <g>
      <use xlink:href="#m070883d6cb" x="511.510781" y="19.028359" style="fill: #e69f00; stroke: #e69f00; stroke-linejoin: miter"/>
     </g>
    </g>
    <g id="text_18">
     <!-- k=2 -->
     <g transform="translate(525.510781 21.478359) scale(0.07 -0.07)">
      <defs>
       <path id="DejaVuSans-6b" d="M 581 4863 
L 1159 4863 
L 1159 1991 
L 2875 3500 
L 3609 3500 
L 1753 1863 
L 3688 0 
L 2938 0 
L 1159 1709 
L 1159 0 
L 581 0 
L 581 4863 
z
" transform="scale(0.015625)"/>
       <path id="DejaVuSans-3d" d="M 678 2906 
L 4684 2906 
L 4684 2381 
L 678 2381 
L 678 2906 
z
M 678 1631 
L 4684 1631 
L 4684 1100 
L 678 1100 
L 678 1631 
z
" transform="scale(0.015625)"/>
      </defs>
      <use xlink:href="#DejaVuSans-6b"/>
      <use xlink:href="#DejaVuSans-3d" transform="translate(57.910156 0)"/>
      <use xlink:href="#DejaVuSans-32" transform="translate(141.699219 0)"/>
     </g>
    </g>
    <g id="line2d_144">
     <path d="M 503.110781 29.303047 
L 511.510781 29.303047 
L 519.910781 29.303047 
" style="fill: none"/>
     <g>
      <use xlink:href="#m8057c9095c" x="511.510781" y="29.303047" style="fill: #009e73; stroke: #009e73; stroke-linejoin: miter"/>
     </g>
    </g>
    <g id="text_19">
     <!-- k=3 -->
     <g transform="translate(525.510781 31.753047) scale(0.07 -0.07)">
      <use xlink:href="#DejaVuSans-6b"/>
      <use xlink:href="#DejaVuSans-3d" transform="translate(57.910156 0)"/>
      <use xlink:href="#DejaVuSans-33" transform="translate(141.699219 0)"/>
     </g>
    </g>
    <g id="line2d_145">
     <path d="M 503.110781 39.577734 
L 511.510781 39.577734 
L 519.910781 39.577734 
" style="fill: none"/>
     <g>
      <use xlink:href="#mceefe7d3c0" x="511.510781" y="39.577734" style="fill: #cc79a7; stroke: #cc79a7; stroke-linejoin: miter"/>
     </g>
    </g>
    <g id="text_20">
     <!-- k=4 -->
     <g transform="translate(525.510781 42.027734) scale(0.07 -0.07)">
      <use xlink:href="#DejaVuSans-6b"/>
      <use xlink:href="#DejaVuSans-3d" transform="translate(57.910156 0)"/>
      <use xlink:href="#DejaVuSans-34" transform="translate(141.699219 0)"/>
     </g>
    </g>
    <g id="line2d_146">
     <path d="M 503.110781 49.852422 
L 511.510781 49.852422 
L 519.910781 49.852422 
" style="fill: none"/>
     <g>
      <use xlink:href="#m5481ede8f5" x="511.510781" y="49.852422" style="fill: #d55e00; stroke: #d55e00; stroke-linejoin: miter"/>
     </g>
    </g>
    <g id="text_21">
     <!-- k=5 -->
     <g transform="translate(525.510781 52.302422) scale(0.07 -0.07)">
      <use xlink:href="#DejaVuSans-6b"/>
      <use xlink:href="#DejaVuSans-3d" transform="translate(57.910156 0)"/>
      <use xlink:href="#DejaVuSans-35" transform="translate(141.699219 0)"/>
     </g>
    </g>
    <g id="line2d_147">
     <path d="M 503.110781 60.127109 
L 511.510781 60.127109 
L 519.910781 60.127109 
" style="fill: none"/>
     <g>
      <use xlink:href="#m384e8ce11d" x="511.510781" y="60.127109" style="fill: #56b4e9; stroke: #56b4e9; stroke-linejoin: miter"/>
     </g>
    </g>
    <g id="text_22">
     <!-- k=6 -->
     <g transform="translate(525.510781 62.577109) scale(0.07 -0.07)">
      <use xlink:href="#DejaVuSans-6b"/>
      <use xlink:href="#DejaVuSans-3d" transform="translate(57.910156 0)"/>
      <use xlink:href="#DejaVuSans-36" transform="translate(141.699219 0)"/>
     </g>
    </g>
    <g id="line2d_148">
     <path d="M 503.110781 70.401797 
L 511.510781 70.401797 
L 519.910781 70.401797 
" style="fill: none"/>
     <g>
      <use xlink:href="#m38d04a96b8" x="511.510781" y="70.401797" style="stroke: #000000; stroke-linejoin: miter"/>
     </g>
    </g>
    <g id="text_23">
     <!-- k=7 -->
     <g transform="translate(525.510781 72.851797) scale(0.07 -0.07)">
      <use xlink:href="#DejaVuSans-6b"/>
      <use xlink:href="#DejaVuSans-3d" transform="translate(57.910156 0)"/>
      <use xlink:href="#DejaVuSans-37" transform="translate(141.699219 0)"/>
     </g>
    </g>
   </g>
  </g>
 </g>
 <defs>
  <clipPath id="p00f3770dc3">
   <rect x="39.30375" y="9.859453" width="506.88" height="281.52"/>
  </clipPath>
 </defs>
</svg>
