<?xml version="1.0" encoding="utf-8" standalone="no"?>
<!DOCTYPE svg PUBLIC "-//W3C//DTD SVG 1.1//EN"
  "http://www.w3.org/Graphics/SVG/1.1/DTD/svg11.dtd">
<svg xmlns:xlink="http://www.w3.org/1999/xlink" width="570.66375pt" height="328.061187pt" viewBox="0 0 570.66375 328.061187" xmlns="http://www.w3.org/2000/svg" version="1.1">
 <metadata>
  <rdf:RDF xmlns:dc="http://purl.org/dc/elements/1.1/" xmlns:cc="http://creativecommons.org/ns#" xmlns:rdf="http://www.w3.org/1999/02/22-rdf-syntax-ns#">
   <cc:Work>
    <dc:type rdf:resource="http://purl.org/dc/dcmitype/StillImage"/>
    <dc:date>2026-07-21T06:00:34.691692</dc:date>
    <dc:format>image/svg+xml</dc:format>
    <dc:creator>
     <cc:Agent>
      <dc:title>Matplotlib v3.10.9, https://matplotlib.org/</dc:title>
     </cc:Agent>
    </dc:creator>
   </cc:Work>
  </rdf:RDF>
 </metadata>
 <defs>
  <style type="text/css">*{stroke-linejoin: round; stroke-linecap: butt}</style>
 </defs>
 <g id="figure_1">
  <g id="patch_1">
   <path d="M 0 328.061187 
L 570.66375 328.061187 
L 570.66375 0 
L 0 0 
z
" style="fill: #ffffff"/>
  </g>
  <g id="axes_1">
   <g id="patch_2">
    <path d="M 39.30375 295.344 
L 563.46375 295.344 
L 563.46375 7.2 
L 39.30375 7.2 
z
" style="fill: #ffffff"/>
   </g>
   <g id="matplotlib.axis_1">
    <g id="xtick_1">
     <g id="line2d_1">
      <path d="M 58.83633 295.344 
L 58.83633 7.2 
" clip-path="url(#p0f3fdee555)" style="fill: none; stroke: #999999; stroke-opacity: 0.3; stroke-width: 0.5; stroke-linecap: square"/>
     </g>
     <g id="line2d_2">
      <defs>
       <path id="mff9ea191bf" d="M 0 0 
L 0 3.5 
" style="stroke: #000000; stroke-width: 0.8"/>
      </defs>
      <g>
       <use xlink:href="#mff9ea191bf" x="58.83633" y="295.344" style="stroke: #000000; stroke-width: 0.8"/>
      </g>
     </g>
     <g id="text_1">
      <!-- 0 -->
      <g transform="translate(56.609455 307.662906) scale(0.07 -0.07)">
       <defs>
        <path id="DejaVuSans-30" d="M 2034 4250 
Q 1547 4250 1301 3770 
Q 1056 3291 1056 2328 
Q 1056 1369 1301 889 
Q 1547 409 2034 409 
Q 2525 409 2770 889 
Q 3016 1369 3016 2328 
Q 3016 3291 2770 3770 
Q 2525 4250 2034 4250 
z
M 2034 4750 
Q 2819 4750 3233 4129 
Q 3647 3509 3647 2328 
Q 3647 1150 3233 529 
Q 2819 -91 2034 -91 
Q 1250 -91 836 529 
Q 422 1150 422 2328 
Q 422 3509 836 4129 
Q 1250 4750 2034 4750 
z
" transform="scale(0.015625)"/>
       </defs>
       <use xlink:href="#DejaVuSans-30"/>
      </g>
     </g>
    </g>
    <g id="xtick_2">
     <g id="line2d_3">
      <path d="M 154.233545 295.344 
L 154.233545 7.2 
" clip-path="url(#p0f3fdee555)" style="fill: none; stroke: #999999; stroke-opacity: 0.3; stroke-width: 0.5; stroke-linecap: square"/>
     </g>
     <g id="line2d_4">
      <g>
       <use xlink:href="#mff9ea191bf" x="154.233545" y="295.344" style="stroke: #000000; stroke-width: 0.8"/>
      </g>
     </g>
     <g id="text_2">
      <!-- 200 -->
      <g transform="translate(147.55292 307.662906) scale(0.07 -0.07)">
       <defs>
        <path id="DejaVuSans-32" d="M 1228 531 
L 3431 531 
L 3431 0 
L 469 0 
L 469 531 
Q 828 903 1448 1529 
Q 2069 2156 2228 2338 
Q 2531 2678 2651 2914 
Q 2772 3150 2772 3378 
Q 2772 3750 2511 3984 
Q 2250 4219 1831 4219 
Q 1534 4219 1204 4116 
Q 875 4013 500 3803 
L 500 4441 
Q 881 4594 1212 4672 
Q 1544 4750 1819 4750 
Q 2544 4750 2975 4387 
Q 3406 4025 3406 3419 
Q 3406 3131 3298 2873 
Q 3191 2616 2906 2266 
Q 2828 2175 2409 1742 
Q 1991 1309 1228 531 
z
" transform="scale(0.015625)"/>
       </defs>
       <use xlink:href="#DejaVuSans-32"/>
       <use xlink:href="#DejaVuSans-30" transform="translate(63.623047 0)"/>
       <use xlink:href="#DejaVuSans-30" transform="translate(127.246094 0)"/>
      </g>
     </g>
    </g>
    <g id="xtick_3">
     <g id="line2d_5">
      <path d="M 249.630761 295.344 
L 249.630761 7.2 
" clip-path="url(#p0f3fdee555)" style="fill: none; stroke: #999999; stroke-opacity: 0.3; stroke-width: 0.5; stroke-linecap: square"/>
     </g>
     <g id="line2d_6">
      <g>
       <use xlink:href="#mff9ea191bf" x="249.630761" y="295.344" style="stroke: #000000; stroke-width: 0.8"/>
      </g>
     </g>
     <g id="text_3">
      <!-- 400 -->
      <g transform="translate(242.950136 307.662906) scale(0.07 -0.07)">
       <defs>
        <path id="DejaVuSans-34" d="M 2419 4116 
L 825 1625 
L 2419 1625 
L 2419 4116 
z
M 2253 4666 
L 3047 4666 
L 3047 1625 
L 3713 1625 
L 3713 1100 
L 3047 1100 
L 3047 0 
L 2419 0 
L 2419 1100 
L 313 1100 
L 313 1709 
L 2253 4666 
z
" transform="scale(0.015625)"/>
       </defs>
       <use xlink:href="#DejaVuSans-34"/>
       <use xlink:href="#DejaVuSans-30" transform="translate(63.623047 0)"/>
       <use xlink:href="#DejaVuSans-30" transform="translate(127.246094 0)"/>
      </g>
     </g>
    </g>
    <g id="xtick_4">
     <g id="line2d_7">
      <path d="M 345.027976 295.344 
L 345.027976 7.2 
" clip-path="url(#p0f3fdee555)" style="fill: none; stroke: #999999; stroke-opacity: 0.3; stroke-width: 0.5; stroke-linecap: square"/>
     </g>
     <g id="line2d_8">
      <g>
       <use xlink:href="#mff9ea191bf" x="345.027976" y="295.344" style="stroke: #000000; stroke-width: 0.8"/>
      </g>
     </g>
     <g id="text_4">
      <!-- 600 -->
      <g transform="translate(338.347351 307.662906) scale(0.07 -0.07)">
       <defs>
        <path id="DejaVuSans-36" d="M 2113 2584 
Q 1688 2584 1439 2293 
Q 1191 2003 1191 1497 
Q 1191 994 1439 701 
Q 1688 409 2113 409 
Q 2538 409 2786 701 
Q 3034 994 3034 1497 
Q 3034 2003 2786 2293 
Q 2538 2584 2113 2584 
z
M 3366 4563 
L 3366 3988 
Q 3128 4100 2886 4159 
Q 2644 4219 2406 4219 
Q 1781 4219 1451 3797 
Q 1122 3375 1075 2522 
Q 1259 2794 1537 2939 
Q 1816 3084 2150 3084 
Q 2853 3084 3261 2657 
Q 3669 2231 3669 1497 
Q 3669 778 3244 343 
Q 2819 -91 2113 -91 
Q 1303 -91 875 529 
Q 447 1150 447 2328 
Q 447 3434 972 4092 
Q 1497 4750 2381 4750 
Q 2619 4750 2861 4703 
Q 3103 4656 3366 4563 
z
" transform="scale(0.015625)"/>
       </defs>
       <use xlink:href="#DejaVuSans-36"/>
       <use xlink:href="#DejaVuSans-30" transform="translate(63.623047 0)"/>
       <use xlink:href="#DejaVuSans-30" transform="translate(127.246094 0)"/>
      </g>
     </g>
    </g>
    <g id="xtick_5">
     <g id="line2d_9">
      <path d="M 440.425191 295.344 
L 440.425191 7.2 
" clip-path="url(#p0f3fdee555)" style="fill: none; stroke: #999999; stroke-opacity: 0.3; stroke-width: 0.5; stroke-linecap: square"/>
     </g>
     <g id="line2d_10">
      <g>
       <use xlink:href="#mff9ea191bf" x="440.425191" y="295.344" style="stroke: #000000; stroke-width: 0.8"/>
      </g>
     </g>
     <g id="text_5">
      <!-- 800 -->
      <g transform="translate(433.744566 307.662906) scale(0.07 -0.07)">
       <defs>
        <path id="DejaVuSans-38" d="M 2034 2216 
Q 1584 2216 1326 1975 
Q 1069 1734 1069 1313 
Q 1069 891 1326 650 
Q 1584 409 2034 409 
Q 2484 409 2743 651 
Q 3003 894 3003 1313 
Q 3003 1734 2745 1975 
Q 2488 2216 2034 2216 
z
M 1403 2484 
Q 997 2584 770 2862 
Q 544 3141 544 3541 
Q 544 4100 942 4425 
Q 1341 4750 2034 4750 
Q 2731 4750 3128 4425 
Q 3525 4100 3525 3541 
Q 3525 3141 3298 2862 
Q 3072 2584 2669 2484 
Q 3125 2378 3379 2068 
Q 3634 1759 3634 1313 
Q 3634 634 3220 271 
Q 2806 -91 2034 -91 
Q 1263 -91 848 271 
Q 434 634 434 1313 
Q 434 1759 690 2068 
Q 947 2378 1403 2484 
z
M 1172 3481 
Q 1172 3119 1398 2916 
Q 1625 2713 2034 2713 
Q 2441 2713 2670 2916 
Q 2900 3119 2900 3481 
Q 2900 3844 2670 4047 
Q 2441 4250 2034 4250 
Q 1625 4250 1398 4047 
Q 1172 3844 1172 3481 
z
" transform="scale(0.015625)"/>
       </defs>
       <use xlink:href="#DejaVuSans-38"/>
       <use xlink:href="#DejaVuSans-30" transform="translate(63.623047 0)"/>
       <use xlink:href="#DejaVuSans-30" transform="translate(127.246094 0)"/>
      </g>
     </g>
    </g>
    <g id="xtick_6">
     <g id="line2d_11">
      <path d="M 535.822407 295.344 
L 535.822407 7.2 
" clip-path="url(#p0f3fdee555)" style="fill: none; stroke: #999999; stroke-opacity: 0.3; stroke-width: 0.5; stroke-linecap: square"/>
     </g>
     <g id="line2d_12">
      <g>
       <use xlink:href="#mff9ea191bf" x="535.822407" y="295.344" style="stroke: #000000; stroke-width: 0.8"/>
      </g>
     </g>
     <g id="text_6">
      <!-- 1000 -->
      <g transform="translate(526.914907 307.662906) scale(0.07 -0.07)">
       <defs>
        <path id="DejaVuSans-31" d="M 794 531 
L 1825 531 
L 1825 4091 
L 703 3866 
L 703 4441 
L 1819 4666 
L 2450 4666 
L 2450 531 
L 3481 531 
L 3481 0 
L 794 0 
L 794 531 
z
" transform="scale(0.015625)"/>
       </defs>
       <use xlink:href="#DejaVuSans-31"/>
       <use xlink:href="#DejaVuSans-30" transform="translate(63.623047 0)"/>
       <use xlink:href="#DejaVuSans-30" transform="translate(127.246094 0)"/>
       <use xlink:href="#DejaVuSans-30" transform="translate(190.869141 0)"/>
      </g>
     </g>
    </g>
    <g id="xtick_7">
     <g id="line2d_13">
      <path d="M 82.685634 295.344 
L 82.685634 7.2 
" clip-path="url(#p0f3fdee555)" style="fill: none; stroke: #bbbbbb; stroke-opacity: 0.15; stroke-width: 0.3; stroke-linecap: square"/>
     </g>
     <g id="line2d_14">
      <defs>
       <path id="mbd700ec99e" d="M 0 0 
L 0 2 
" style="stroke: #000000; stroke-width: 0.6"/>
      </defs>
      <g>
       <use xlink:href="#mbd700ec99e" x="82.685634" y="295.344" style="stroke: #000000; stroke-width: 0.6"/>
      </g>
     </g>
    </g>
    <g id="xtick_8">
     <g id="line2d_15">
      <path d="M 106.534938 295.344 
L 106.534938 7.2 
" clip-path="url(#p0f3fdee555)" style="fill: none; stroke: #bbbbbb; stroke-opacity: 0.15; stroke-width: 0.3; stroke-linecap: square"/>
     </g>
     <g id="line2d_16">
      <g>
       <use xlink:href="#mbd700ec99e" x="106.534938" y="295.344" style="stroke: #000000; stroke-width: 0.6"/>
      </g>
     </g>
    </g>
    <g id="xtick_9">
     <g id="line2d_17">
      <path d="M 130.384241 295.344 
L 130.384241 7.2 
" clip-path="url(#p0f3fdee555)" style="fill: none; stroke: #bbbbbb; stroke-opacity: 0.15; stroke-width: 0.3; stroke-linecap: square"/>
     </g>
     <g id="line2d_18">
      <g>
       <use xlink:href="#mbd700ec99e" x="130.384241" y="295.344" style="stroke: #000000; stroke-width: 0.6"/>
      </g>
     </g>
    </g>
    <g id="xtick_10">
     <g id="line2d_19">
      <path d="M 178.082849 295.344 
L 178.082849 7.2 
" clip-path="url(#p0f3fdee555)" style="fill: none; stroke: #bbbbbb; stroke-opacity: 0.15; stroke-width: 0.3; stroke-linecap: square"/>
     </g>
     <g id="line2d_20">
      <g>
       <use xlink:href="#mbd700ec99e" x="178.082849" y="295.344" style="stroke: #000000; stroke-width: 0.6"/>
      </g>
     </g>
    </g>
    <g id="xtick_11">
     <g id="line2d_21">
      <path d="M 201.932153 295.344 
L 201.932153 7.2 
" clip-path="url(#p0f3fdee555)" style="fill: none; stroke: #bbbbbb; stroke-opacity: 0.15; stroke-width: 0.3; stroke-linecap: square"/>
     </g>
     <g id="line2d_22">
      <g>
       <use xlink:href="#mbd700ec99e" x="201.932153" y="295.344" style="stroke: #000000; stroke-width: 0.6"/>
      </g>
     </g>
    </g>
    <g id="xtick_12">
     <g id="line2d_23">
      <path d="M 225.781457 295.344 
L 225.781457 7.2 
" clip-path="url(#p0f3fdee555)" style="fill: none; stroke: #bbbbbb; stroke-opacity: 0.15; stroke-width: 0.3; stroke-linecap: square"/>
     </g>
     <g id="line2d_24">
      <g>
       <use xlink:href="#mbd700ec99e" x="225.781457" y="295.344" style="stroke: #000000; stroke-width: 0.6"/>
      </g>
     </g>
    </g>
    <g id="xtick_13">
     <g id="line2d_25">
      <path d="M 273.480064 295.344 
L 273.480064 7.2 
" clip-path="url(#p0f3fdee555)" style="fill: none; stroke: #bbbbbb; stroke-opacity: 0.15; stroke-width: 0.3; stroke-linecap: square"/>
     </g>
     <g id="line2d_26">
      <g>
       <use xlink:href="#mbd700ec99e" x="273.480064" y="295.344" style="stroke: #000000; stroke-width: 0.6"/>
      </g>
     </g>
    </g>
    <g id="xtick_14">
     <g id="line2d_27">
      <path d="M 297.329368 295.344 
L 297.329368 7.2 
" clip-path="url(#p0f3fdee555)" style="fill: none; stroke: #bbbbbb; stroke-opacity: 0.15; stroke-width: 0.3; stroke-linecap: square"/>
     </g>
     <g id="line2d_28">
      <g>
       <use xlink:href="#mbd700ec99e" x="297.329368" y="295.344" style="stroke: #000000; stroke-width: 0.6"/>
      </g>
     </g>
    </g>
    <g id="xtick_15">
     <g id="line2d_29">
      <path d="M 321.178672 295.344 
L 321.178672 7.2 
" clip-path="url(#p0f3fdee555)" style="fill: none; stroke: #bbbbbb; stroke-opacity: 0.15; stroke-width: 0.3; stroke-linecap: square"/>
     </g>
     <g id="line2d_30">
      <g>
       <use xlink:href="#mbd700ec99e" x="321.178672" y="295.344" style="stroke: #000000; stroke-width: 0.6"/>
      </g>
     </g>
    </g>
    <g id="xtick_16">
     <g id="line2d_31">
      <path d="M 368.87728 295.344 
L 368.87728 7.2 
" clip-path="url(#p0f3fdee555)" style="fill: none; stroke: #bbbbbb; stroke-opacity: 0.15; stroke-width: 0.3; stroke-linecap: square"/>
     </g>
     <g id="line2d_32">
      <g>
       <use xlink:href="#mbd700ec99e" x="368.87728" y="295.344" style="stroke: #000000; stroke-width: 0.6"/>
      </g>
     </g>
    </g>
    <g id="xtick_17">
     <g id="line2d_33">
      <path d="M 392.726584 295.344 
L 392.726584 7.2 
" clip-path="url(#p0f3fdee555)" style="fill: none; stroke: #bbbbbb; stroke-opacity: 0.15; stroke-width: 0.3; stroke-linecap: square"/>
     </g>
     <g id="line2d_34">
      <g>
       <use xlink:href="#mbd700ec99e" x="392.726584" y="295.344" style="stroke: #000000; stroke-width: 0.6"/>
      </g>
     </g>
    </g>
    <g id="xtick_18">
     <g id="line2d_35">
      <path d="M 416.575888 295.344 
L 416.575888 7.2 
" clip-path="url(#p0f3fdee555)" style="fill: none; stroke: #bbbbbb; stroke-opacity: 0.15; stroke-width: 0.3; stroke-linecap: square"/>
     </g>
     <g id="line2d_36">
      <g>
       <use xlink:href="#mbd700ec99e" x="416.575888" y="295.344" style="stroke: #000000; stroke-width: 0.6"/>
      </g>
     </g>
    </g>
    <g id="xtick_19">
     <g id="line2d_37">
      <path d="M 464.274495 295.344 
L 464.274495 7.2 
" clip-path="url(#p0f3fdee555)" style="fill: none; stroke: #bbbbbb; stroke-opacity: 0.15; stroke-width: 0.3; stroke-linecap: square"/>
     </g>
     <g id="line2d_38">
      <g>
       <use xlink:href="#mbd700ec99e" x="464.274495" y="295.344" style="stroke: #000000; stroke-width: 0.6"/>
      </g>
     </g>
    </g>
    <g id="xtick_20">
     <g id="line2d_39">
      <path d="M 488.123799 295.344 
L 488.123799 7.2 
" clip-path="url(#p0f3fdee555)" style="fill: none; stroke: #bbbbbb; stroke-opacity: 0.15; stroke-width: 0.3; stroke-linecap: square"/>
     </g>
     <g id="line2d_40">
      <g>
       <use xlink:href="#mbd700ec99e" x="488.123799" y="295.344" style="stroke: #000000; stroke-width: 0.6"/>
      </g>
     </g>
    </g>
    <g id="xtick_21">
     <g id="line2d_41">
      <path d="M 511.973103 295.344 
L 511.973103 7.2 
" clip-path="url(#p0f3fdee555)" style="fill: none; stroke: #bbbbbb; stroke-opacity: 0.15; stroke-width: 0.3; stroke-linecap: square"/>
     </g>
     <g id="line2d_42">
      <g>
       <use xlink:href="#mbd700ec99e" x="511.973103" y="295.344" style="stroke: #000000; stroke-width: 0.6"/>
      </g>
     </g>
    </g>
    <g id="xtick_22">
     <g id="line2d_43">
      <path d="M 559.671711 295.344 
L 559.671711 7.2 
" clip-path="url(#p0f3fdee555)" style="fill: none; stroke: #bbbbbb; stroke-opacity: 0.15; stroke-width: 0.3; stroke-linecap: square"/>
     </g>
     <g id="line2d_44">
      <g>
       <use xlink:href="#mbd700ec99e" x="559.671711" y="295.344" style="stroke: #000000; stroke-width: 0.6"/>
      </g>
     </g>
    </g>
    <g id="text_7">
     <!-- training step -->
     <g transform="translate(275.964375 319.197437) scale(0.08 -0.08)">
      <defs>
       <path id="DejaVuSans-74" d="M 1172 4494 
L 1172 3500 
L 2356 3500 
L 2356 3053 
L 1172 3053 
L 1172 1153 
Q 1172 725 1289 603 
Q 1406 481 1766 481 
L 2356 481 
L 2356 0 
L 1766 0 
Q 1100 0 847 248 
Q 594 497 594 1153 
L 594 3053 
L 172 3053 
L 172 3500 
L 594 3500 
L 594 4494 
L 1172 4494 
z
" transform="scale(0.015625)"/>
       <path id="DejaVuSans-72" d="M 2631 2963 
Q 2534 3019 2420 3045 
Q 2306 3072 2169 3072 
Q 1681 3072 1420 2755 
Q 1159 2438 1159 1844 
L 1159 0 
L 581 0 
L 581 3500 
L 1159 3500 
L 1159 2956 
Q 1341 3275 1631 3429 
Q 1922 3584 2338 3584 
Q 2397 3584 2469 3576 
Q 2541 3569 2628 3553 
L 2631 2963 
z
" transform="scale(0.015625)"/>
       <path id="DejaVuSans-61" d="M 2194 1759 
Q 1497 1759 1228 1600 
Q 959 1441 959 1056 
Q 959 750 1161 570 
Q 1363 391 1709 391 
Q 2188 391 2477 730 
Q 2766 1069 2766 1631 
L 2766 1759 
L 2194 1759 
z
M 3341 1997 
L 3341 0 
L 2766 0 
L 2766 531 
Q 2569 213 2275 61 
Q 1981 -91 1556 -91 
Q 1019 -91 701 211 
Q 384 513 384 1019 
Q 384 1609 779 1909 
Q 1175 2209 1959 2209 
L 2766 2209 
L 2766 2266 
Q 2766 2663 2505 2880 
Q 2244 3097 1772 3097 
Q 1472 3097 1187 3025 
Q 903 2953 641 2809 
L 641 3341 
Q 956 3463 1253 3523 
Q 1550 3584 1831 3584 
Q 2591 3584 2966 3190 
Q 3341 2797 3341 1997 
z
" transform="scale(0.015625)"/>
       <path id="DejaVuSans-69" d="M 603 3500 
L 1178 3500 
L 1178 0 
L 603 0 
L 603 3500 
z
M 603 4863 
L 1178 4863 
L 1178 4134 
L 603 4134 
L 603 4863 
z
" transform="scale(0.015625)"/>
       <path id="DejaVuSans-6e" d="M 3513 2113 
L 3513 0 
L 2938 0 
L 2938 2094 
Q 2938 2591 2744 2837 
Q 2550 3084 2163 3084 
Q 1697 3084 1428 2787 
Q 1159 2491 1159 1978 
L 1159 0 
L 581 0 
L 581 3500 
L 1159 3500 
L 1159 2956 
Q 1366 3272 1645 3428 
Q 1925 3584 2291 3584 
Q 2894 3584 3203 3211 
Q 3513 2838 3513 2113 
z
" transform="scale(0.015625)"/>
       <path id="DejaVuSans-67" d="M 2906 1791 
Q 2906 2416 2648 2759 
Q 2391 3103 1925 3103 
Q 1463 3103 1205 2759 
Q 947 2416 947 1791 
Q 947 1169 1205 825 
Q 1463 481 1925 481 
Q 2391 481 2648 825 
Q 2906 1169 2906 1791 
z
M 3481 434 
Q 3481 -459 3084 -895 
Q 2688 -1331 1869 -1331 
Q 1566 -1331 1297 -1286 
Q 1028 -1241 775 -1147 
L 775 -588 
Q 1028 -725 1275 -790 
Q 1522 -856 1778 -856 
Q 2344 -856 2625 -561 
Q 2906 -266 2906 331 
L 2906 616 
Q 2728 306 2450 153 
Q 2172 0 1784 0 
Q 1141 0 747 490 
Q 353 981 353 1791 
Q 353 2603 747 3093 
Q 1141 3584 1784 3584 
Q 2172 3584 2450 3431 
Q 2728 3278 2906 2969 
L 2906 3500 
L 3481 3500 
L 3481 434 
z
" transform="scale(0.015625)"/>
       <path id="DejaVuSans-20" transform="scale(0.015625)"/>
       <path id="DejaVuSans-73" d="M 2834 3397 
L 2834 2853 
Q 2591 2978 2328 3040 
Q 2066 3103 1784 3103 
Q 1356 3103 1142 2972 
Q 928 2841 928 2578 
Q 928 2378 1081 2264 
Q 1234 2150 1697 2047 
L 1894 2003 
Q 2506 1872 2764 1633 
Q 3022 1394 3022 966 
Q 3022 478 2636 193 
Q 2250 -91 1575 -91 
Q 1294 -91 989 -36 
Q 684 19 347 128 
L 347 722 
Q 666 556 975 473 
Q 1284 391 1588 391 
Q 1994 391 2212 530 
Q 2431 669 2431 922 
Q 2431 1156 2273 1281 
Q 2116 1406 1581 1522 
L 1381 1569 
Q 847 1681 609 1914 
Q 372 2147 372 2553 
Q 372 3047 722 3315 
Q 1072 3584 1716 3584 
Q 2034 3584 2315 3537 
Q 2597 3491 2834 3397 
z
" transform="scale(0.015625)"/>
       <path id="DejaVuSans-65" d="M 3597 1894 
L 3597 1613 
L 953 1613 
Q 991 1019 1311 708 
Q 1631 397 2203 397 
Q 2534 397 2845 478 
Q 3156 559 3463 722 
L 3463 178 
Q 3153 47 2828 -22 
Q 2503 -91 2169 -91 
Q 1331 -91 842 396 
Q 353 884 353 1716 
Q 353 2575 817 3079 
Q 1281 3584 2069 3584 
Q 2775 3584 3186 3129 
Q 3597 2675 3597 1894 
z
M 3022 2063 
Q 3016 2534 2758 2815 
Q 2500 3097 2075 3097 
Q 1594 3097 1305 2825 
Q 1016 2553 972 2059 
L 3022 2063 
z
" transform="scale(0.015625)"/>
       <path id="DejaVuSans-70" d="M 1159 525 
L 1159 -1331 
L 581 -1331 
L 581 3500 
L 1159 3500 
L 1159 2969 
Q 1341 3281 1617 3432 
Q 1894 3584 2278 3584 
Q 2916 3584 3314 3078 
Q 3713 2572 3713 1747 
Q 3713 922 3314 415 
Q 2916 -91 2278 -91 
Q 1894 -91 1617 61 
Q 1341 213 1159 525 
z
M 3116 1747 
Q 3116 2381 2855 2742 
Q 2594 3103 2138 3103 
Q 1681 3103 1420 2742 
Q 1159 2381 1159 1747 
Q 1159 1113 1420 752 
Q 1681 391 2138 391 
Q 2594 391 2855 752 
Q 3116 1113 3116 1747 
z
" transform="scale(0.015625)"/>
      </defs>
      <use xlink:href="#DejaVuSans-74"/>
      <use xlink:href="#DejaVuSans-72" transform="translate(39.208984 0)"/>
      <use xlink:href="#DejaVuSans-61" transform="translate(80.322266 0)"/>
      <use xlink:href="#DejaVuSans-69" transform="translate(141.601562 0)"/>
      <use xlink:href="#DejaVuSans-6e" transform="translate(169.384766 0)"/>
      <use xlink:href="#DejaVuSans-69" transform="translate(232.763672 0)"/>
      <use xlink:href="#DejaVuSans-6e" transform="translate(260.546875 0)"/>
      <use xlink:href="#DejaVuSans-67" transform="translate(323.925781 0)"/>
      <use xlink:href="#DejaVuSans-20" transform="translate(387.402344 0)"/>
      <use xlink:href="#DejaVuSans-73" transform="translate(419.189453 0)"/>
      <use xlink:href="#DejaVuSans-74" transform="translate(471.289062 0)"/>
      <use xlink:href="#DejaVuSans-65" transform="translate(510.498047 0)"/>
      <use xlink:href="#DejaVuSans-70" transform="translate(572.021484 0)"/>
     </g>
    </g>
   </g>
   <g id="matplotlib.axis_2">
    <g id="ytick_1">
     <g id="line2d_45">
      <path d="M 39.30375 287.801112 
L 563.46375 287.801112 
" clip-path="url(#p0f3fdee555)" style="fill: none; stroke: #999999; stroke-opacity: 0.3; stroke-width: 0.5; stroke-linecap: square"/>
     </g>
     <g id="line2d_46">
      <defs>
       <path id="m0b94de7dfb" d="M 0 0 
L -3.5 0 
" style="stroke: #000000; stroke-width: 0.8"/>
      </defs>
      <g>
       <use xlink:href="#m0b94de7dfb" x="39.30375" y="287.801112" style="stroke: #000000; stroke-width: 0.8"/>
      </g>
     </g>
     <g id="text_8">
      <!-- 100 -->
      <g transform="translate(18.9425 290.460565) scale(0.07 -0.07)">
       <use xlink:href="#DejaVuSans-31"/>
       <use xlink:href="#DejaVuSans-30" transform="translate(63.623047 0)"/>
       <use xlink:href="#DejaVuSans-30" transform="translate(127.246094 0)"/>
      </g>
     </g>
    </g>
    <g id="ytick_2">
     <g id="line2d_47">
      <path d="M 39.30375 248.267946 
L 563.46375 248.267946 
" clip-path="url(#p0f3fdee555)" style="fill: none; stroke: #999999; stroke-opacity: 0.3; stroke-width: 0.5; stroke-linecap: square"/>
     </g>
     <g id="line2d_48">
      <g>
       <use xlink:href="#m0b94de7dfb" x="39.30375" y="248.267946" style="stroke: #000000; stroke-width: 0.8"/>
      </g>
     </g>
     <g id="text_9">
      <!-- 125 -->
      <g transform="translate(18.9425 250.927399) scale(0.07 -0.07)">
       <defs>
        <path id="DejaVuSans-35" d="M 691 4666 
L 3169 4666 
L 3169 4134 
L 1269 4134 
L 1269 2991 
Q 1406 3038 1543 3061 
Q 1681 3084 1819 3084 
Q 2600 3084 3056 2656 
Q 3513 2228 3513 1497 
Q 3513 744 3044 326 
Q 2575 -91 1722 -91 
Q 1428 -91 1123 -41 
Q 819 9 494 109 
L 494 744 
Q 775 591 1075 516 
Q 1375 441 1709 441 
Q 2250 441 2565 725 
Q 2881 1009 2881 1497 
Q 2881 1984 2565 2268 
Q 2250 2553 1709 2553 
Q 1456 2553 1204 2497 
Q 953 2441 691 2322 
L 691 4666 
z
" transform="scale(0.015625)"/>
       </defs>
       <use xlink:href="#DejaVuSans-31"/>
       <use xlink:href="#DejaVuSans-32" transform="translate(63.623047 0)"/>
       <use xlink:href="#DejaVuSans-35" transform="translate(127.246094 0)"/>
      </g>
     </g>
    </g>
    <g id="ytick_3">
     <g id="line2d_49">
      <path d="M 39.30375 208.73478 
L 563.46375 208.73478 
" clip-path="url(#p0f3fdee555)" style="fill: none; stroke: #999999; stroke-opacity: 0.3; stroke-width: 0.5; stroke-linecap: square"/>
     </g>
     <g id="line2d_50">
      <g>
       <use xlink:href="#m0b94de7dfb" x="39.30375" y="208.73478" style="stroke: #000000; stroke-width: 0.8"/>
      </g>
     </g>
     <g id="text_10">
      <!-- 150 -->
      <g transform="translate(18.9425 211.394233) scale(0.07 -0.07)">
       <use xlink:href="#DejaVuSans-31"/>
       <use xlink:href="#DejaVuSans-35" transform="translate(63.623047 0)"/>
       <use xlink:href="#DejaVuSans-30" transform="translate(127.246094 0)"/>
      </g>
     </g>
    </g>
    <g id="ytick_4">
     <g id="line2d_51">
      <path d="M 39.30375 169.201614 
L 563.46375 169.201614 
" clip-path="url(#p0f3fdee555)" style="fill: none; stroke: #999999; stroke-opacity: 0.3; stroke-width: 0.5; stroke-linecap: square"/>
     </g>
     <g id="line2d_52">
      <g>
       <use xlink:href="#m0b94de7dfb" x="39.30375" y="169.201614" style="stroke: #000000; stroke-width: 0.8"/>
      </g>
     </g>
     <g id="text_11">
      <!-- 175 -->
      <g transform="translate(18.9425 171.861068) scale(0.07 -0.07)">
       <defs>
        <path id="DejaVuSans-37" d="M 525 4666 
L 3525 4666 
L 3525 4397 
L 1831 0 
L 1172 0 
L 2766 4134 
L 525 4134 
L 525 4666 
z
" transform="scale(0.015625)"/>
       </defs>
       <use xlink:href="#DejaVuSans-31"/>
       <use xlink:href="#DejaVuSans-37" transform="translate(63.623047 0)"/>
       <use xlink:href="#DejaVuSans-35" transform="translate(127.246094 0)"/>
      </g>
     </g>
    </g>
    <g id="ytick_5">
     <g id="line2d_53">
      <path d="M 39.30375 129.668449 
L 563.46375 129.668449 
" clip-path="url(#p0f3fdee555)" style="fill: none; stroke: #999999; stroke-opacity: 0.3; stroke-width: 0.5; stroke-linecap: square"/>
     </g>
     <g id="line2d_54">
      <g>
       <use xlink:href="#m0b94de7dfb" x="39.30375" y="129.668449" style="stroke: #000000; stroke-width: 0.8"/>
      </g>
     </g>
     <g id="text_12">
      <!-- 200 -->
      <g transform="translate(18.9425 132.327902) scale(0.07 -0.07)">
       <use xlink:href="#DejaVuSans-32"/>
       <use xlink:href="#DejaVuSans-30" transform="translate(63.623047 0)"/>
       <use xlink:href="#DejaVuSans-30" transform="translate(127.246094 0)"/>
      </g>
     </g>
    </g>
    <g id="ytick_6">
     <g id="line2d_55">
      <path d="M 39.30375 90.135283 
L 563.46375 90.135283 
" clip-path="url(#p0f3fdee555)" style="fill: none; stroke: #999999; stroke-opacity: 0.3; stroke-width: 0.5; stroke-linecap: square"/>
     </g>
     <g id="line2d_56">
      <g>
       <use xlink:href="#m0b94de7dfb" x="39.30375" y="90.135283" style="stroke: #000000; stroke-width: 0.8"/>
      </g>
     </g>
     <g id="text_13">
      <!-- 225 -->
      <g transform="translate(18.9425 92.794736) scale(0.07 -0.07)">
       <use xlink:href="#DejaVuSans-32"/>
       <use xlink:href="#DejaVuSans-32" transform="translate(63.623047 0)"/>
       <use xlink:href="#DejaVuSans-35" transform="translate(127.246094 0)"/>
      </g>
     </g>
    </g>
    <g id="ytick_7">
     <g id="line2d_57">
      <path d="M 39.30375 50.602117 
L 563.46375 50.602117 
" clip-path="url(#p0f3fdee555)" style="fill: none; stroke: #999999; stroke-opacity: 0.3; stroke-width: 0.5; stroke-linecap: square"/>
     </g>
     <g id="line2d_58">
      <g>
       <use xlink:href="#m0b94de7dfb" x="39.30375" y="50.602117" style="stroke: #000000; stroke-width: 0.8"/>
      </g>
     </g>
     <g id="text_14">
      <!-- 250 -->
      <g transform="translate(18.9425 53.26157) scale(0.07 -0.07)">
       <use xlink:href="#DejaVuSans-32"/>
       <use xlink:href="#DejaVuSans-35" transform="translate(63.623047 0)"/>
       <use xlink:href="#DejaVuSans-30" transform="translate(127.246094 0)"/>
      </g>
     </g>
    </g>
    <g id="ytick_8">
     <g id="line2d_59">
      <path d="M 39.30375 11.068951 
L 563.46375 11.068951 
" clip-path="url(#p0f3fdee555)" style="fill: none; stroke: #999999; stroke-opacity: 0.3; stroke-width: 0.5; stroke-linecap: square"/>
     </g>
     <g id="line2d_60">
      <g>
       <use xlink:href="#m0b94de7dfb" x="39.30375" y="11.068951" style="stroke: #000000; stroke-width: 0.8"/>
      </g>
     </g>
     <g id="text_15">
      <!-- 275 -->
      <g transform="translate(18.9425 13.728404) scale(0.07 -0.07)">
       <use xlink:href="#DejaVuSans-32"/>
       <use xlink:href="#DejaVuSans-37" transform="translate(63.623047 0)"/>
       <use xlink:href="#DejaVuSans-35" transform="translate(127.246094 0)"/>
      </g>
     </g>
    </g>
    <g id="ytick_9">
     <g id="line2d_61">
      <path d="M 39.30375 279.894479 
L 563.46375 279.894479 
" clip-path="url(#p0f3fdee555)" style="fill: none; stroke: #bbbbbb; stroke-opacity: 0.15; stroke-width: 0.3; stroke-linecap: square"/>
     </g>
     <g id="line2d_62">
      <defs>
       <path id="m9e59f86fe3" d="M 0 0 
L -2 0 
" style="stroke: #000000; stroke-width: 0.6"/>
      </defs>
      <g>
       <use xlink:href="#m9e59f86fe3" x="39.30375" y="279.894479" style="stroke: #000000; stroke-width: 0.6"/>
      </g>
     </g>
    </g>
    <g id="ytick_10">
     <g id="line2d_63">
      <path d="M 39.30375 271.987846 
L 563.46375 271.987846 
" clip-path="url(#p0f3fdee555)" style="fill: none; stroke: #bbbbbb; stroke-opacity: 0.15; stroke-width: 0.3; stroke-linecap: square"/>
     </g>
     <g id="line2d_64">
      <g>
       <use xlink:href="#m9e59f86fe3" x="39.30375" y="271.987846" style="stroke: #000000; stroke-width: 0.6"/>
      </g>
     </g>
    </g>
    <g id="ytick_11">
     <g id="line2d_65">
      <path d="M 39.30375 264.081212 
L 563.46375 264.081212 
" clip-path="url(#p0f3fdee555)" style="fill: none; stroke: #bbbbbb; stroke-opacity: 0.15; stroke-width: 0.3; stroke-linecap: square"/>
     </g>
     <g id="line2d_66">
      <g>
       <use xlink:href="#m9e59f86fe3" x="39.30375" y="264.081212" style="stroke: #000000; stroke-width: 0.6"/>
      </g>
     </g>
    </g>
    <g id="ytick_12">
     <g id="line2d_67">
      <path d="M 39.30375 256.174579 
L 563.46375 256.174579 
" clip-path="url(#p0f3fdee555)" style="fill: none; stroke: #bbbbbb; stroke-opacity: 0.15; stroke-width: 0.3; stroke-linecap: square"/>
     </g>
     <g id="line2d_68">
      <g>
       <use xlink:href="#m9e59f86fe3" x="39.30375" y="256.174579" style="stroke: #000000; stroke-width: 0.6"/>
      </g>
     </g>
    </g>
    <g id="ytick_13">
     <g id="line2d_69">
      <path d="M 39.30375 240.361313 
L 563.46375 240.361313 
" clip-path="url(#p0f3fdee555)" style="fill: none; stroke: #bbbbbb; stroke-opacity: 0.15; stroke-width: 0.3; stroke-linecap: square"/>
     </g>
     <g id="line2d_70">
      <g>
       <use xlink:href="#m9e59f86fe3" x="39.30375" y="240.361313" style="stroke: #000000; stroke-width: 0.6"/>
      </g>
     </g>
    </g>
    <g id="ytick_14">
     <g id="line2d_71">
      <path d="M 39.30375 232.45468 
L 563.46375 232.45468 
" clip-path="url(#p0f3fdee555)" style="fill: none; stroke: #bbbbbb; stroke-opacity: 0.15; stroke-width: 0.3; stroke-linecap: square"/>
     </g>
     <g id="line2d_72">
      <g>
       <use xlink:href="#m9e59f86fe3" x="39.30375" y="232.45468" style="stroke: #000000; stroke-width: 0.6"/>
      </g>
     </g>
    </g>
    <g id="ytick_15">
     <g id="line2d_73">
      <path d="M 39.30375 224.548047 
L 563.46375 224.548047 
" clip-path="url(#p0f3fdee555)" style="fill: none; stroke: #bbbbbb; stroke-opacity: 0.15; stroke-width: 0.3; stroke-linecap: square"/>
     </g>
     <g id="line2d_74">
      <g>
       <use xlink:href="#m9e59f86fe3" x="39.30375" y="224.548047" style="stroke: #000000; stroke-width: 0.6"/>
      </g>
     </g>
    </g>
    <g id="ytick_16">
     <g id="line2d_75">
      <path d="M 39.30375 216.641413 
L 563.46375 216.641413 
" clip-path="url(#p0f3fdee555)" style="fill: none; stroke: #bbbbbb; stroke-opacity: 0.15; stroke-width: 0.3; stroke-linecap: square"/>
     </g>
     <g id="line2d_76">
      <g>
       <use xlink:href="#m9e59f86fe3" x="39.30375" y="216.641413" style="stroke: #000000; stroke-width: 0.6"/>
      </g>
     </g>
    </g>
    <g id="ytick_17">
     <g id="line2d_77">
      <path d="M 39.30375 200.828147 
L 563.46375 200.828147 
" clip-path="url(#p0f3fdee555)" style="fill: none; stroke: #bbbbbb; stroke-opacity: 0.15; stroke-width: 0.3; stroke-linecap: square"/>
     </g>
     <g id="line2d_78">
      <g>
       <use xlink:href="#m9e59f86fe3" x="39.30375" y="200.828147" style="stroke: #000000; stroke-width: 0.6"/>
      </g>
     </g>
    </g>
    <g id="ytick_18">
     <g id="line2d_79">
      <path d="M 39.30375 192.921514 
L 563.46375 192.921514 
" clip-path="url(#p0f3fdee555)" style="fill: none; stroke: #bbbbbb; stroke-opacity: 0.15; stroke-width: 0.3; stroke-linecap: square"/>
     </g>
     <g id="line2d_80">
      <g>
       <use xlink:href="#m9e59f86fe3" x="39.30375" y="192.921514" style="stroke: #000000; stroke-width: 0.6"/>
      </g>
     </g>
    </g>
    <g id="ytick_19">
     <g id="line2d_81">
      <path d="M 39.30375 185.014881 
L 563.46375 185.014881 
" clip-path="url(#p0f3fdee555)" style="fill: none; stroke: #bbbbbb; stroke-opacity: 0.15; stroke-width: 0.3; stroke-linecap: square"/>
     </g>
     <g id="line2d_82">
      <g>
       <use xlink:href="#m9e59f86fe3" x="39.30375" y="185.014881" style="stroke: #000000; stroke-width: 0.6"/>
      </g>
     </g>
    </g>
    <g id="ytick_20">
     <g id="line2d_83">
      <path d="M 39.30375 177.108248 
L 563.46375 177.108248 
" clip-path="url(#p0f3fdee555)" style="fill: none; stroke: #bbbbbb; stroke-opacity: 0.15; stroke-width: 0.3; stroke-linecap: square"/>
     </g>
     <g id="line2d_84">
      <g>
       <use xlink:href="#m9e59f86fe3" x="39.30375" y="177.108248" style="stroke: #000000; stroke-width: 0.6"/>
      </g>
     </g>
    </g>
    <g id="ytick_21">
     <g id="line2d_85">
      <path d="M 39.30375 161.294981 
L 563.46375 161.294981 
" clip-path="url(#p0f3fdee555)" style="fill: none; stroke: #bbbbbb; stroke-opacity: 0.15; stroke-width: 0.3; stroke-linecap: square"/>
     </g>
     <g id="line2d_86">
      <g>
       <use xlink:href="#m9e59f86fe3" x="39.30375" y="161.294981" style="stroke: #000000; stroke-width: 0.6"/>
      </g>
     </g>
    </g>
    <g id="ytick_22">
     <g id="line2d_87">
      <path d="M 39.30375 153.388348 
L 563.46375 153.388348 
" clip-path="url(#p0f3fdee555)" style="fill: none; stroke: #bbbbbb; stroke-opacity: 0.15; stroke-width: 0.3; stroke-linecap: square"/>
     </g>
     <g id="line2d_88">
      <g>
       <use xlink:href="#m9e59f86fe3" x="39.30375" y="153.388348" style="stroke: #000000; stroke-width: 0.6"/>
      </g>
     </g>
    </g>
    <g id="ytick_23">
     <g id="line2d_89">
      <path d="M 39.30375 145.481715 
L 563.46375 145.481715 
" clip-path="url(#p0f3fdee555)" style="fill: none; stroke: #bbbbbb; stroke-opacity: 0.15; stroke-width: 0.3; stroke-linecap: square"/>
     </g>
     <g id="line2d_90">
      <g>
       <use xlink:href="#m9e59f86fe3" x="39.30375" y="145.481715" style="stroke: #000000; stroke-width: 0.6"/>
      </g>
     </g>
    </g>
    <g id="ytick_24">
     <g id="line2d_91">
      <path d="M 39.30375 137.575082 
L 563.46375 137.575082 
" clip-path="url(#p0f3fdee555)" style="fill: none; stroke: #bbbbbb; stroke-opacity: 0.15; stroke-width: 0.3; stroke-linecap: square"/>
     </g>
     <g id="line2d_92">
      <g>
       <use xlink:href="#m9e59f86fe3" x="39.30375" y="137.575082" style="stroke: #000000; stroke-width: 0.6"/>
      </g>
     </g>
    </g>
    <g id="ytick_25">
     <g id="line2d_93">
      <path d="M 39.30375 121.761815 
L 563.46375 121.761815 
" clip-path="url(#p0f3fdee555)" style="fill: none; stroke: #bbbbbb; stroke-opacity: 0.15; stroke-width: 0.3; stroke-linecap: square"/>
     </g>
     <g id="line2d_94">
      <g>
       <use xlink:href="#m9e59f86fe3" x="39.30375" y="121.761815" style="stroke: #000000; stroke-width: 0.6"/>
      </g>
     </g>
    </g>
    <g id="ytick_26">
     <g id="line2d_95">
      <path d="M 39.30375 113.855182 
L 563.46375 113.855182 
" clip-path="url(#p0f3fdee555)" style="fill: none; stroke: #bbbbbb; stroke-opacity: 0.15; stroke-width: 0.3; stroke-linecap: square"/>
     </g>
     <g id="line2d_96">
      <g>
       <use xlink:href="#m9e59f86fe3" x="39.30375" y="113.855182" style="stroke: #000000; stroke-width: 0.6"/>
      </g>
     </g>
    </g>
    <g id="ytick_27">
     <g id="line2d_97">
      <path d="M 39.30375 105.948549 
L 563.46375 105.948549 
" clip-path="url(#p0f3fdee555)" style="fill: none; stroke: #bbbbbb; stroke-opacity: 0.15; stroke-width: 0.3; stroke-linecap: square"/>
     </g>
     <g id="line2d_98">
      <g>
       <use xlink:href="#m9e59f86fe3" x="39.30375" y="105.948549" style="stroke: #000000; stroke-width: 0.6"/>
      </g>
     </g>
    </g>
    <g id="ytick_28">
     <g id="line2d_99">
      <path d="M 39.30375 98.041916 
L 563.46375 98.041916 
" clip-path="url(#p0f3fdee555)" style="fill: none; stroke: #bbbbbb; stroke-opacity: 0.15; stroke-width: 0.3; stroke-linecap: square"/>
     </g>
     <g id="line2d_100">
      <g>
       <use xlink:href="#m9e59f86fe3" x="39.30375" y="98.041916" style="stroke: #000000; stroke-width: 0.6"/>
      </g>
     </g>
    </g>
    <g id="ytick_29">
     <g id="line2d_101">
      <path d="M 39.30375 82.22865 
L 563.46375 82.22865 
" clip-path="url(#p0f3fdee555)" style="fill: none; stroke: #bbbbbb; stroke-opacity: 0.15; stroke-width: 0.3; stroke-linecap: square"/>
     </g>
     <g id="line2d_102">
      <g>
       <use xlink:href="#m9e59f86fe3" x="39.30375" y="82.22865" style="stroke: #000000; stroke-width: 0.6"/>
      </g>
     </g>
    </g>
    <g id="ytick_30">
     <g id="line2d_103">
      <path d="M 39.30375 74.322017 
L 563.46375 74.322017 
" clip-path="url(#p0f3fdee555)" style="fill: none; stroke: #bbbbbb; stroke-opacity: 0.15; stroke-width: 0.3; stroke-linecap: square"/>
     </g>
     <g id="line2d_104">
      <g>
       <use xlink:href="#m9e59f86fe3" x="39.30375" y="74.322017" style="stroke: #000000; stroke-width: 0.6"/>
      </g>
     </g>
    </g>
    <g id="ytick_31">
     <g id="line2d_105">
      <path d="M 39.30375 66.415383 
L 563.46375 66.415383 
" clip-path="url(#p0f3fdee555)" style="fill: none; stroke: #bbbbbb; stroke-opacity: 0.15; stroke-width: 0.3; stroke-linecap: square"/>
     </g>
     <g id="line2d_106">
      <g>
       <use xlink:href="#m9e59f86fe3" x="39.30375" y="66.415383" style="stroke: #000000; stroke-width: 0.6"/>
      </g>
     </g>
    </g>
    <g id="ytick_32">
     <g id="line2d_107">
      <path d="M 39.30375 58.50875 
L 563.46375 58.50875 
" clip-path="url(#p0f3fdee555)" style="fill: none; stroke: #bbbbbb; stroke-opacity: 0.15; stroke-width: 0.3; stroke-linecap: square"/>
     </g>
     <g id="line2d_108">
      <g>
       <use xlink:href="#m9e59f86fe3" x="39.30375" y="58.50875" style="stroke: #000000; stroke-width: 0.6"/>
      </g>
     </g>
    </g>
    <g id="ytick_33">
     <g id="line2d_109">
      <path d="M 39.30375 42.695484 
L 563.46375 42.695484 
" clip-path="url(#p0f3fdee555)" style="fill: none; stroke: #bbbbbb; stroke-opacity: 0.15; stroke-width: 0.3; stroke-linecap: square"/>
     </g>
     <g id="line2d_110">
      <g>
       <use xlink:href="#m9e59f86fe3" x="39.30375" y="42.695484" style="stroke: #000000; stroke-width: 0.6"/>
      </g>
     </g>
    </g>
    <g id="ytick_34">
     <g id="line2d_111">
      <path d="M 39.30375 34.788851 
L 563.46375 34.788851 
" clip-path="url(#p0f3fdee555)" style="fill: none; stroke: #bbbbbb; stroke-opacity: 0.15; stroke-width: 0.3; stroke-linecap: square"/>
     </g>
     <g id="line2d_112">
      <g>
       <use xlink:href="#m9e59f86fe3" x="39.30375" y="34.788851" style="stroke: #000000; stroke-width: 0.6"/>
      </g>
     </g>
    </g>
    <g id="ytick_35">
     <g id="line2d_113">
      <path d="M 39.30375 26.882218 
L 563.46375 26.882218 
" clip-path="url(#p0f3fdee555)" style="fill: none; stroke: #bbbbbb; stroke-opacity: 0.15; stroke-width: 0.3; stroke-linecap: square"/>
     </g>
     <g id="line2d_114">
      <g>
       <use xlink:href="#m9e59f86fe3" x="39.30375" y="26.882218" style="stroke: #000000; stroke-width: 0.6"/>
      </g>
     </g>
    </g>
    <g id="ytick_36">
     <g id="line2d_115">
      <path d="M 39.30375 18.975584 
L 563.46375 18.975584 
" clip-path="url(#p0f3fdee555)" style="fill: none; stroke: #bbbbbb; stroke-opacity: 0.15; stroke-width: 0.3; stroke-linecap: square"/>
     </g>
     <g id="line2d_116">
      <g>
       <use xlink:href="#m9e59f86fe3" x="39.30375" y="18.975584" style="stroke: #000000; stroke-width: 0.6"/>
      </g>
     </g>
    </g>
    <g id="text_16">
     <!-- absolute val MSE -->
     <g transform="translate(13.27875 185.460125) rotate(-90) scale(0.08 -0.08)">
      <defs>
       <path id="DejaVuSans-62" d="M 3116 1747 
Q 3116 2381 2855 2742 
Q 2594 3103 2138 3103 
Q 1681 3103 1420 2742 
Q 1159 2381 1159 1747 
Q 1159 1113 1420 752 
Q 1681 391 2138 391 
Q 2594 391 2855 752 
Q 3116 1113 3116 1747 
z
M 1159 2969 
Q 1341 3281 1617 3432 
Q 1894 3584 2278 3584 
Q 2916 3584 3314 3078 
Q 3713 2572 3713 1747 
Q 3713 922 3314 415 
Q 2916 -91 2278 -91 
Q 1894 -91 1617 61 
Q 1341 213 1159 525 
L 1159 0 
L 581 0 
L 581 4863 
L 1159 4863 
L 1159 2969 
z
" transform="scale(0.015625)"/>
       <path id="DejaVuSans-6f" d="M 1959 3097 
Q 1497 3097 1228 2736 
Q 959 2375 959 1747 
Q 959 1119 1226 758 
Q 1494 397 1959 397 
Q 2419 397 2687 759 
Q 2956 1122 2956 1747 
Q 2956 2369 2687 2733 
Q 2419 3097 1959 3097 
z
M 1959 3584 
Q 2709 3584 3137 3096 
Q 3566 2609 3566 1747 
Q 3566 888 3137 398 
Q 2709 -91 1959 -91 
Q 1206 -91 779 398 
Q 353 888 353 1747 
Q 353 2609 779 3096 
Q 1206 3584 1959 3584 
z
" transform="scale(0.015625)"/>
       <path id="DejaVuSans-6c" d="M 603 4863 
L 1178 4863 
L 1178 0 
L 603 0 
L 603 4863 
z
" transform="scale(0.015625)"/>
       <path id="DejaVuSans-75" d="M 544 1381 
L 544 3500 
L 1119 3500 
L 1119 1403 
Q 1119 906 1312 657 
Q 1506 409 1894 409 
Q 2359 409 2629 706 
Q 2900 1003 2900 1516 
L 2900 3500 
L 3475 3500 
L 3475 0 
L 2900 0 
L 2900 538 
Q 2691 219 2414 64 
Q 2138 -91 1772 -91 
Q 1169 -91 856 284 
Q 544 659 544 1381 
z
M 1991 3584 
L 1991 3584 
z
" transform="scale(0.015625)"/>
       <path id="DejaVuSans-76" d="M 191 3500 
L 800 3500 
L 1894 563 
L 2988 3500 
L 3597 3500 
L 2284 0 
L 1503 0 
L 191 3500 
z
" transform="scale(0.015625)"/>
       <path id="DejaVuSans-4d" d="M 628 4666 
L 1569 4666 
L 2759 1491 
L 3956 4666 
L 4897 4666 
L 4897 0 
L 4281 0 
L 4281 4097 
L 3078 897 
L 2444 897 
L 1241 4097 
L 1241 0 
L 628 0 
L 628 4666 
z
" transform="scale(0.015625)"/>
       <path id="DejaVuSans-53" d="M 3425 4513 
L 3425 3897 
Q 3066 4069 2747 4153 
Q 2428 4238 2131 4238 
Q 1616 4238 1336 4038 
Q 1056 3838 1056 3469 
Q 1056 3159 1242 3001 
Q 1428 2844 1947 2747 
L 2328 2669 
Q 3034 2534 3370 2195 
Q 3706 1856 3706 1288 
Q 3706 609 3251 259 
Q 2797 -91 1919 -91 
Q 1588 -91 1214 -16 
Q 841 59 441 206 
L 441 856 
Q 825 641 1194 531 
Q 1563 422 1919 422 
Q 2459 422 2753 634 
Q 3047 847 3047 1241 
Q 3047 1584 2836 1778 
Q 2625 1972 2144 2069 
L 1759 2144 
Q 1053 2284 737 2584 
Q 422 2884 422 3419 
Q 422 4038 858 4394 
Q 1294 4750 2059 4750 
Q 2388 4750 2728 4690 
Q 3069 4631 3425 4513 
z
" transform="scale(0.015625)"/>
       <path id="DejaVuSans-45" d="M 628 4666 
L 3578 4666 
L 3578 4134 
L 1259 4134 
L 1259 2753 
L 3481 2753 
L 3481 2222 
L 1259 2222 
L 1259 531 
L 3634 531 
L 3634 0 
L 628 0 
L 628 4666 
z
" transform="scale(0.015625)"/>
      </defs>
      <use xlink:href="#DejaVuSans-61"/>
      <use xlink:href="#DejaVuSans-62" transform="translate(61.279297 0)"/>
      <use xlink:href="#DejaVuSans-73" transform="translate(124.755859 0)"/>
      <use xlink:href="#DejaVuSans-6f" transform="translate(176.855469 0)"/>
      <use xlink:href="#DejaVuSans-6c" transform="translate(238.037109 0)"/>
      <use xlink:href="#DejaVuSans-75" transform="translate(265.820312 0)"/>
      <use xlink:href="#DejaVuSans-74" transform="translate(329.199219 0)"/>
      <use xlink:href="#DejaVuSans-65" transform="translate(368.408203 0)"/>
      <use xlink:href="#DejaVuSans-20" transform="translate(429.931641 0)"/>
      <use xlink:href="#DejaVuSans-76" transform="translate(461.71875 0)"/>
      <use xlink:href="#DejaVuSans-61" transform="translate(520.898438 0)"/>
      <use xlink:href="#DejaVuSans-6c" transform="translate(582.177734 0)"/>
      <use xlink:href="#DejaVuSans-20" transform="translate(609.960938 0)"/>
      <use xlink:href="#DejaVuSans-4d" transform="translate(641.748047 0)"/>
      <use xlink:href="#DejaVuSans-53" transform="translate(728.027344 0)"/>
      <use xlink:href="#DejaVuSans-45" transform="translate(791.503906 0)"/>
     </g>
    </g>
   </g>
   <g id="line2d_117">
    <path d="M 63.129205 163.207237 
L 67.422079 167.410126 
L 71.714954 173.234272 
L 76.007829 179.80247 
L 80.300703 187.025426 
L 84.593578 195.035802 
L 88.886453 204.223302 
L 93.179327 214.351203 
L 97.472202 226.102947 
L 101.765077 238.554747 
L 106.057951 249.685402 
L 110.350826 258.790406 
L 114.643701 265.086668 
L 118.936576 268.761606 
L 123.22945 270.634042 
L 127.522325 271.956986 
L 131.8152 272.836654 
L 136.108074 273.469973 
L 140.400949 273.967175 
L 144.693824 274.392751 
L 148.986698 274.546836 
L 153.279573 275.090579 
L 157.572448 275.449504 
L 161.865322 275.729858 
L 166.158197 275.936719 
L 170.451072 276.376618 
L 174.743947 276.752177 
L 179.036821 276.803339 
L 183.329696 277.038228 
L 187.622571 277.377629 
L 191.915445 277.675466 
L 196.20832 277.896816 
L 200.501195 278.243548 
L 204.794069 278.43104 
L 209.086944 278.642714 
L 213.379819 278.829673 
L 217.672693 279.034875 
L 221.965568 279.105412 
L 226.258443 279.34194 
L 230.551318 279.488084 
L 234.844192 279.594917 
L 239.137067 279.723183 
L 243.429942 279.878409 
L 247.722816 279.956453 
L 252.015691 280.049098 
L 256.308566 280.198113 
L 260.60144 280.256849 
L 264.894315 280.379753 
L 269.18719 280.37605 
L 273.480064 280.502411 
L 277.772939 280.533811 
L 282.065814 280.661792 
L 286.358689 280.716806 
L 290.651563 280.722414 
L 294.944438 280.805623 
L 299.237313 280.809212 
L 303.530187 280.884457 
L 307.823062 280.948743 
L 312.115937 281.02008 
L 316.408811 281.033925 
L 320.701686 281.092634 
L 324.994561 281.160138 
L 329.287436 281.193162 
L 333.58031 281.21778 
L 337.873185 281.287786 
L 342.16606 281.272139 
L 346.458934 281.388007 
L 350.751809 281.397748 
L 355.044684 281.441303 
L 359.337558 281.471488 
L 363.630433 281.516289 
L 367.923308 281.570854 
L 372.216182 281.601469 
L 376.509057 281.628182 
L 380.801932 281.663235 
L 385.094807 281.663823 
L 389.387681 281.703216 
L 393.680556 281.783665 
L 397.973431 281.778269 
L 402.266305 281.825143 
L 406.55918 281.847461 
L 410.852055 281.857643 
L 415.144929 281.881848 
L 419.437804 281.921187 
L 423.730679 281.934542 
L 428.023553 281.941523 
L 432.316428 281.969755 
L 436.609303 281.960151 
L 440.902178 281.987479 
L 445.195052 282.025149 
L 449.487927 282.041445 
L 453.780802 282.054116 
L 458.073676 282.056626 
L 462.366551 282.063417 
L 466.659426 282.074938 
L 470.9523 282.099781 
L 475.245175 282.108432 
L 479.53805 282.118169 
L 483.830924 282.136513 
L 488.123799 282.142006 
L 492.416674 282.155187 
L 496.709549 282.147585 
L 501.002423 282.167772 
L 505.295298 282.18803 
L 509.588173 282.189852 
L 513.881047 282.195314 
L 518.173922 282.209817 
L 522.466797 282.19966 
L 526.759671 282.218782 
L 531.052546 282.231084 
L 535.345421 282.228008 
L 539.638295 282.246545 
" clip-path="url(#p0f3fdee555)" style="fill: none; stroke: #cb6020; stroke-opacity: 0.85; stroke-width: 1.5; stroke-linecap: square"/>
   </g>
   <g id="line2d_118">
    <path d="M 63.129205 20.297455 
L 67.422079 20.315372 
L 71.714954 20.33558 
L 76.007829 20.474419 
L 80.300703 20.981599 
L 84.593578 22.292678 
L 88.886453 24.517241 
L 93.179327 27.499647 
L 97.472202 31.36682 
L 101.765077 36.270252 
L 106.057951 42.173151 
L 110.350826 49.255291 
L 114.643701 57.582253 
L 118.936576 66.874066 
L 123.22945 76.685117 
L 127.522325 86.906429 
L 131.8152 97.506009 
L 136.108074 108.818319 
L 140.400949 121.642025 
L 144.693824 137.34746 
L 148.986698 156.386765 
L 153.279573 175.586352 
L 157.572448 189.840586 
L 161.865322 196.048111 
L 166.158197 198.570063 
L 170.451072 200.769621 
L 174.743947 202.959768 
L 179.036821 205.114943 
L 183.329696 207.014377 
L 187.622571 208.512998 
L 191.915445 209.670978 
L 196.20832 210.436913 
L 200.501195 210.957023 
L 204.794069 211.172356 
L 209.086944 211.248753 
L 213.379819 211.228558 
L 217.672693 211.256576 
L 221.965568 211.25189 
L 226.258443 211.238416 
L 230.551318 211.242759 
L 234.844192 211.244388 
L 239.137067 211.237016 
L 243.429942 211.228505 
L 247.722816 211.246403 
L 252.015691 211.215927 
L 256.308566 211.252038 
L 260.60144 211.247748 
L 264.894315 211.257932 
L 269.18719 211.246342 
L 273.480064 211.260993 
L 277.772939 211.257687 
L 282.065814 211.231608 
L 286.358689 211.240699 
L 290.651563 211.260996 
L 294.944438 211.261962 
L 299.237313 211.250177 
L 303.530187 211.237833 
L 307.823062 211.251883 
L 312.115937 211.239378 
L 316.408811 211.238698 
L 320.701686 211.261591 
L 324.994561 211.249695 
L 329.287436 211.256065 
L 333.58031 211.267407 
L 337.873185 211.258475 
L 342.16606 211.253836 
L 346.458934 211.253914 
L 350.751809 211.249467 
L 355.044684 211.244696 
L 359.337558 211.259876 
L 363.630433 211.264905 
L 367.923308 211.271528 
L 372.216182 211.268273 
L 376.509057 211.25613 
L 380.801932 211.267146 
L 385.094807 211.253636 
L 389.387681 211.262849 
L 393.680556 211.267504 
L 397.973431 211.274358 
L 402.266305 211.257467 
L 406.55918 211.275424 
L 410.852055 211.267179 
L 415.144929 211.267039 
L 419.437804 211.266278 
L 423.730679 211.269527 
L 428.023553 211.2594 
L 432.316428 211.263827 
L 436.609303 211.266657 
L 440.902178 211.272738 
L 445.195052 211.268156 
L 449.487927 211.274728 
L 453.780802 211.268507 
L 458.073676 211.27235 
L 462.366551 211.272811 
L 466.659426 211.274256 
L 470.9523 211.271581 
L 475.245175 211.272706 
L 479.53805 211.27314 
L 483.830924 211.273328 
L 488.123799 211.273847 
L 492.416674 211.272597 
L 496.709549 211.276329 
L 501.002423 211.276675 
L 505.295298 211.277346 
L 509.588173 211.274704 
L 513.881047 211.272941 
L 518.173922 211.275788 
L 522.466797 211.274576 
L 526.759671 211.275274 
L 531.052546 211.272401 
L 535.345421 211.27634 
L 539.638295 211.273966 
" clip-path="url(#p0f3fdee555)" style="fill: none; stroke: #2171b5; stroke-opacity: 0.85; stroke-width: 1.5; stroke-linecap: square"/>
   </g>
   <g id="line2d_119">
    <path d="M 63.129205 20.297455 
L 67.422079 20.315372 
L 71.714954 20.33558 
L 76.007829 20.474419 
L 80.300703 20.981599 
L 84.593578 22.292678 
L 88.886453 24.517241 
L 93.179327 27.499647 
L 97.472202 31.36682 
L 101.765077 36.270252 
L 106.057951 42.173151 
L 110.350826 49.255291 
L 114.643701 57.582253 
L 118.936576 66.874066 
L 123.22945 76.685117 
L 127.522325 86.906429 
L 131.8152 97.506009 
L 136.108074 108.818319 
L 140.400949 121.642025 
L 144.693824 137.347461 
L 148.986698 156.386765 
L 153.279573 175.586351 
L 157.572448 189.840586 
L 161.865322 196.04811 
L 166.158197 198.570065 
L 170.451072 200.769617 
L 174.743947 202.959781 
L 179.036821 205.114872 
L 183.329696 207.016677 
L 187.622571 208.530175 
L 191.915445 209.715422 
L 196.20832 210.455163 
L 200.501195 210.818774 
L 204.794069 211.055402 
L 209.086944 211.169083 
L 213.379819 211.235553 
L 217.672693 211.239736 
L 221.965568 211.246202 
L 226.258443 211.236329 
L 230.551318 211.197546 
L 234.844192 211.217456 
L 239.137067 211.255563 
L 243.429942 211.243583 
L 247.722816 211.259423 
L 252.015691 211.242323 
L 256.308566 211.258838 
L 260.60144 211.255332 
L 264.894315 211.246252 
L 269.18719 211.253622 
L 273.480064 211.260676 
L 277.772939 211.262062 
L 282.065814 211.232511 
L 286.358689 211.244231 
L 290.651563 211.236267 
L 294.944438 211.25943 
L 299.237313 211.23124 
L 303.530187 211.24371 
L 307.823062 211.240622 
L 312.115937 211.24632 
L 316.408811 211.267305 
L 320.701686 211.251193 
L 324.994561 211.25768 
L 329.287436 211.259675 
L 333.58031 211.261947 
L 337.873185 211.248183 
L 342.16606 211.258308 
L 346.458934 211.248304 
L 350.751809 211.260342 
L 355.044684 211.25241 
L 359.337558 211.263446 
L 363.630433 211.267863 
L 367.923308 211.264986 
L 372.216182 211.265664 
L 376.509057 211.261729 
L 380.801932 211.265489 
L 385.094807 211.247957 
L 389.387681 211.2577 
L 393.680556 211.263661 
L 397.973431 211.272305 
L 402.266305 211.259073 
L 406.55918 211.274717 
L 410.852055 211.262438 
L 415.144929 211.27193 
L 419.437804 211.267237 
L 423.730679 211.270903 
L 428.023553 211.26413 
L 432.316428 211.25924 
L 436.609303 211.271767 
L 440.902178 211.271751 
L 445.195052 211.267019 
L 449.487927 211.274291 
L 453.780802 211.268201 
L 458.073676 211.273188 
L 462.366551 211.272243 
L 466.659426 211.273099 
L 470.9523 211.27305 
L 475.245175 211.272634 
L 479.53805 211.272868 
L 483.830924 211.273696 
L 488.123799 211.27462 
L 492.416674 211.272946 
L 496.709549 211.276626 
L 501.002423 211.276566 
L 505.295298 211.277691 
L 509.588173 211.274547 
L 513.881047 211.273074 
L 518.173922 211.27577 
L 522.466797 211.275032 
L 526.759671 211.275134 
L 531.052546 211.272573 
L 535.345421 211.276479 
L 539.638295 211.273856 
" clip-path="url(#p0f3fdee555)" style="fill: none; stroke: #08306b; stroke-opacity: 0.85; stroke-width: 1.5; stroke-linecap: square"/>
   </g>
   <g id="line2d_120">
    <path d="M 63.129205 108.717582 
L 67.422079 108.72267 
L 71.714954 108.751707 
L 76.007829 108.845966 
L 80.300703 109.171435 
L 84.593578 109.82247 
L 88.886453 110.851674 
L 93.179327 112.342003 
L 97.472202 114.291499 
L 101.765077 116.670864 
L 106.057951 119.594726 
L 110.350826 122.961981 
L 114.643701 126.623961 
L 118.936576 130.521096 
L 123.22945 134.492774 
L 127.522325 138.309 
L 131.8152 141.968551 
L 136.108074 145.467421 
L 140.400949 148.952782 
L 144.693824 152.782949 
L 148.986698 156.614003 
L 153.279573 160.42775 
L 157.572448 164.584836 
L 161.865322 169.331226 
L 166.158197 174.278332 
L 170.451072 179.432504 
L 174.743947 184.411286 
L 179.036821 188.940937 
L 183.329696 192.647391 
L 187.622571 195.342124 
L 191.915445 196.962593 
L 196.20832 197.744353 
L 200.501195 197.978567 
L 204.794069 198.078299 
L 209.086944 198.094087 
L 213.379819 198.080919 
L 217.672693 198.067717 
L 221.965568 198.101091 
L 226.258443 198.075501 
L 230.551318 198.088802 
L 234.844192 198.066395 
L 239.137067 198.076333 
L 243.429942 198.109516 
L 247.722816 198.100752 
L 252.015691 198.083981 
L 256.308566 198.098397 
L 260.60144 198.086668 
L 264.894315 198.100415 
L 269.18719 198.096995 
L 273.480064 198.093674 
L 277.772939 198.113738 
L 282.065814 198.106115 
L 286.358689 198.091173 
L 290.651563 198.090682 
L 294.944438 198.107099 
L 299.237313 198.092519 
L 303.530187 198.09007 
L 307.823062 198.088607 
L 312.115937 198.086724 
L 316.408811 198.100881 
L 320.701686 198.101458 
L 324.994561 198.090809 
L 329.287436 198.081716 
L 333.58031 198.104477 
L 337.873185 198.087903 
L 342.16606 198.099345 
L 346.458934 198.101322 
L 350.751809 198.108837 
L 355.044684 198.102351 
L 359.337558 198.087713 
L 363.630433 198.102575 
L 367.923308 198.103288 
L 372.216182 198.102811 
L 376.509057 198.106688 
L 380.801932 198.107809 
L 385.094807 198.106109 
L 389.387681 198.105645 
L 393.680556 198.108255 
L 397.973431 198.109539 
L 402.266305 198.111105 
L 406.55918 198.115498 
L 410.852055 198.113385 
L 415.144929 198.109387 
L 419.437804 198.117119 
L 423.730679 198.101091 
L 428.023553 198.116896 
L 432.316428 198.112094 
L 436.609303 198.109006 
L 440.902178 198.117399 
L 445.195052 198.112509 
L 449.487927 198.111623 
L 453.780802 198.114947 
L 458.073676 198.108582 
L 462.366551 198.116543 
L 466.659426 198.112157 
L 470.9523 198.113369 
L 475.245175 198.114086 
L 479.53805 198.110916 
L 483.830924 198.116486 
L 488.123799 198.113825 
L 492.416674 198.115193 
L 496.709549 198.117921 
L 501.002423 198.116384 
L 505.295298 198.114889 
L 509.588173 198.112458 
L 513.881047 198.115571 
L 518.173922 198.11247 
L 522.466797 198.115602 
L 526.759671 198.113362 
L 531.052546 198.114978 
L 535.345421 198.117217 
L 539.638295 198.115306 
" clip-path="url(#p0f3fdee555)" style="fill: none; stroke: #26c6da; stroke-opacity: 0.85; stroke-width: 1.5; stroke-linecap: square"/>
   </g>
   <g id="line2d_121">
    <path d="M 63.129205 108.717582 
L 67.422079 108.72267 
L 71.714954 108.751707 
L 76.007829 108.845966 
L 80.300703 109.171435 
L 84.593578 109.82247 
L 88.886453 110.851674 
L 93.179327 112.342003 
L 97.472202 114.291499 
L 101.765077 116.670864 
L 106.057951 119.594726 
L 110.350826 122.961981 
L 114.643701 126.623961 
L 118.936576 130.521096 
L 123.22945 134.492774 
L 127.522325 138.309 
L 131.8152 141.968551 
L 136.108074 145.467421 
L 140.400949 148.952782 
L 144.693824 152.782949 
L 148.986698 156.614003 
L 153.279573 160.42775 
L 157.572448 164.584836 
L 161.865322 169.331226 
L 166.158197 174.278332 
L 170.451072 179.432504 
L 174.743947 184.411286 
L 179.036821 188.940937 
L 183.329696 192.647391 
L 187.622571 195.342124 
L 191.915445 196.962593 
L 196.20832 197.744353 
L 200.501195 197.978567 
L 204.794069 198.078299 
L 209.086944 198.094088 
L 213.379819 198.08092 
L 217.672693 198.067712 
L 221.965568 198.100201 
L 226.258443 198.078432 
L 230.551318 198.089413 
L 234.844192 198.068889 
L 239.137067 198.077275 
L 243.429942 198.11042 
L 247.722816 198.104252 
L 252.015691 198.078064 
L 256.308566 198.096166 
L 260.60144 198.090703 
L 264.894315 198.102904 
L 269.18719 198.094609 
L 273.480064 198.105769 
L 277.772939 198.112896 
L 282.065814 198.107676 
L 286.358689 198.101598 
L 290.651563 198.088222 
L 294.944438 198.107028 
L 299.237313 198.088639 
L 303.530187 198.100722 
L 307.823062 198.095382 
L 312.115937 198.098965 
L 316.408811 198.106405 
L 320.701686 198.100748 
L 324.994561 198.097648 
L 329.287436 198.083518 
L 333.58031 198.103259 
L 337.873185 198.090648 
L 342.16606 198.105112 
L 346.458934 198.101881 
L 350.751809 198.107979 
L 355.044684 198.1015 
L 359.337558 198.086825 
L 363.630433 198.103967 
L 367.923308 198.103085 
L 372.216182 198.101608 
L 376.509057 198.105123 
L 380.801932 198.108576 
L 385.094807 198.107938 
L 389.387681 198.107471 
L 393.680556 198.108192 
L 397.973431 198.111169 
L 402.266305 198.109647 
L 406.55918 198.115573 
L 410.852055 198.113155 
L 415.144929 198.109601 
L 419.437804 198.117696 
L 423.730679 198.102536 
L 428.023553 198.116228 
L 432.316428 198.111794 
L 436.609303 198.109724 
L 440.902178 198.117241 
L 445.195052 198.112102 
L 449.487927 198.110611 
L 453.780802 198.114999 
L 458.073676 198.110285 
L 462.366551 198.116701 
L 466.659426 198.112186 
L 470.9523 198.112632 
L 475.245175 198.114387 
L 479.53805 198.111267 
L 483.830924 198.116018 
L 488.123799 198.113703 
L 492.416674 198.114702 
L 496.709549 198.117939 
L 501.002423 198.11555 
L 505.295298 198.11334 
L 509.588173 198.111417 
L 513.881047 198.114866 
L 518.173922 198.112616 
L 522.466797 198.115231 
L 526.759671 198.11302 
L 531.052546 198.114638 
L 535.345421 198.116918 
L 539.638295 198.11505 
" clip-path="url(#p0f3fdee555)" style="fill: none; stroke: #0e6655; stroke-opacity: 0.85; stroke-width: 1.5; stroke-linecap: square"/>
   </g>
   <g id="patch_3">
    <path d="M 39.30375 295.344 
L 39.30375 7.2 
" style="fill: none; stroke: #000000; stroke-width: 0.8; stroke-linejoin: miter; stroke-linecap: square"/>
   </g>
   <g id="patch_4">
    <path d="M 39.30375 295.344 
L 563.46375 295.344 
" style="fill: none; stroke: #000000; stroke-width: 0.8; stroke-linejoin: miter; stroke-linecap: square"/>
   </g>
   <g id="line2d_122">
    <path d="M 71.714954 173.234272 
L 101.765077 238.554747 
L 131.8152 272.836654 
L 161.865322 275.729858 
L 191.915445 277.675466 
L 221.965568 279.105412 
L 252.015691 280.049098 
L 282.065814 280.661792 
L 312.115937 281.02008 
L 342.16606 281.272139 
L 372.216182 281.601469 
L 402.266305 281.825143 
L 432.316428 281.969755 
L 462.366551 282.063417 
L 539.638295 282.246545 
" clip-path="url(#p0f3fdee555)" style="fill: none"/>
    <defs>
     <path id="m8d2fd9b079" d="M 0 -2.25 
L -1.948557 -1.125 
L -1.948557 1.125 
L -0 2.25 
L 1.948557 1.125 
L 1.948557 -1.125 
z
" style="stroke: #cb6020; stroke-linejoin: miter"/>
    </defs>
    <g clip-path="url(#p0f3fdee555)">
     <use xlink:href="#m8d2fd9b079" x="71.714954" y="173.234272" style="fill: #cb6020; stroke: #cb6020; stroke-linejoin: miter"/>
     <use xlink:href="#m8d2fd9b079" x="101.765077" y="238.554747" style="fill: #cb6020; stroke: #cb6020; stroke-linejoin: miter"/>
     <use xlink:href="#m8d2fd9b079" x="131.8152" y="272.836654" style="fill: #cb6020; stroke: #cb6020; stroke-linejoin: miter"/>
     <use xlink:href="#m8d2fd9b079" x="161.865322" y="275.729858" style="fill: #cb6020; stroke: #cb6020; stroke-linejoin: miter"/>
     <use xlink:href="#m8d2fd9b079" x="191.915445" y="277.675466" style="fill: #cb6020; stroke: #cb6020; stroke-linejoin: miter"/>
     <use xlink:href="#m8d2fd9b079" x="221.965568" y="279.105412" style="fill: #cb6020; stroke: #cb6020; stroke-linejoin: miter"/>
     <use xlink:href="#m8d2fd9b079" x="252.015691" y="280.049098" style="fill: #cb6020; stroke: #cb6020; stroke-linejoin: miter"/>
     <use xlink:href="#m8d2fd9b079" x="282.065814" y="280.661792" style="fill: #cb6020; stroke: #cb6020; stroke-linejoin: miter"/>
     <use xlink:href="#m8d2fd9b079" x="312.115937" y="281.02008" style="fill: #cb6020; stroke: #cb6020; stroke-linejoin: miter"/>
     <use xlink:href="#m8d2fd9b079" x="342.16606" y="281.272139" style="fill: #cb6020; stroke: #cb6020; stroke-linejoin: miter"/>
     <use xlink:href="#m8d2fd9b079" x="372.216182" y="281.601469" style="fill: #cb6020; stroke: #cb6020; stroke-linejoin: miter"/>
     <use xlink:href="#m8d2fd9b079" x="402.266305" y="281.825143" style="fill: #cb6020; stroke: #cb6020; stroke-linejoin: miter"/>
     <use xlink:href="#m8d2fd9b079" x="432.316428" y="281.969755" style="fill: #cb6020; stroke: #cb6020; stroke-linejoin: miter"/>
     <use xlink:href="#m8d2fd9b079" x="462.366551" y="282.063417" style="fill: #cb6020; stroke: #cb6020; stroke-linejoin: miter"/>
     <use xlink:href="#m8d2fd9b079" x="539.638295" y="282.246545" style="fill: #cb6020; stroke: #cb6020; stroke-linejoin: miter"/>
    </g>
   </g>
   <g id="line2d_123">
    <path d="M 80.300703 20.981599 
L 118.936576 66.874066 
L 157.572448 189.840586 
L 196.20832 210.436913 
L 234.844192 211.244388 
L 273.480064 211.260993 
L 312.115937 211.239378 
L 350.751809 211.249467 
L 389.387681 211.262849 
L 428.023553 211.2594 
L 466.659426 211.274256 
L 505.295298 211.277346 
L 539.638295 211.273966 
" clip-path="url(#p0f3fdee555)" style="fill: none"/>
    <defs>
     <path id="m876ff4e1cf" d="M -1.25 2.5 
L 0 1.25 
L 1.25 2.5 
L 2.5 1.25 
L 1.25 0 
L 2.5 -1.25 
L 1.25 -2.5 
L 0 -1.25 
L -1.25 -2.5 
L -2.5 -1.25 
L -1.25 0 
L -2.5 1.25 
z
" style="stroke: #2171b5; stroke-linejoin: miter"/>
    </defs>
    <g clip-path="url(#p0f3fdee555)">
     <use xlink:href="#m876ff4e1cf" x="80.300703" y="20.981599" style="fill: #2171b5; stroke: #2171b5; stroke-linejoin: miter"/>
     <use xlink:href="#m876ff4e1cf" x="118.936576" y="66.874066" style="fill: #2171b5; stroke: #2171b5; stroke-linejoin: miter"/>
     <use xlink:href="#m876ff4e1cf" x="157.572448" y="189.840586" style="fill: #2171b5; stroke: #2171b5; stroke-linejoin: miter"/>
     <use xlink:href="#m876ff4e1cf" x="196.20832" y="210.436913" style="fill: #2171b5; stroke: #2171b5; stroke-linejoin: miter"/>
     <use xlink:href="#m876ff4e1cf" x="234.844192" y="211.244388" style="fill: #2171b5; stroke: #2171b5; stroke-linejoin: miter"/>
     <use xlink:href="#m876ff4e1cf" x="273.480064" y="211.260993" style="fill: #2171b5; stroke: #2171b5; stroke-linejoin: miter"/>
     <use xlink:href="#m876ff4e1cf" x="312.115937" y="211.239378" style="fill: #2171b5; stroke: #2171b5; stroke-linejoin: miter"/>
     <use xlink:href="#m876ff4e1cf" x="350.751809" y="211.249467" style="fill: #2171b5; stroke: #2171b5; stroke-linejoin: miter"/>
     <use xlink:href="#m876ff4e1cf" x="389.387681" y="211.262849" style="fill: #2171b5; stroke: #2171b5; stroke-linejoin: miter"/>
     <use xlink:href="#m876ff4e1cf" x="428.023553" y="211.2594" style="fill: #2171b5; stroke: #2171b5; stroke-linejoin: miter"/>
     <use xlink:href="#m876ff4e1cf" x="466.659426" y="211.274256" style="fill: #2171b5; stroke: #2171b5; stroke-linejoin: miter"/>
     <use xlink:href="#m876ff4e1cf" x="505.295298" y="211.277346" style="fill: #2171b5; stroke: #2171b5; stroke-linejoin: miter"/>
     <use xlink:href="#m876ff4e1cf" x="539.638295" y="211.273966" style="fill: #2171b5; stroke: #2171b5; stroke-linejoin: miter"/>
    </g>
   </g>
   <g id="line2d_124">
    <path d="M 88.886453 24.517241 
L 136.108074 108.818319 
L 183.329696 207.016677 
L 230.551318 211.197546 
L 277.772939 211.262062 
L 324.994561 211.25768 
L 372.216182 211.265664 
L 419.437804 211.267237 
L 466.659426 211.273099 
L 513.881047 211.273074 
L 539.638295 211.273856 
" clip-path="url(#p0f3fdee555)" style="fill: none"/>
    <defs>
     <path id="mf06581feea" d="M 0 2.25 
C 0.596707 2.25 1.169055 2.012926 1.59099 1.59099 
C 2.012926 1.169055 2.25 0.596707 2.25 0 
C 2.25 -0.596707 2.012926 -1.169055 1.59099 -1.59099 
C 1.169055 -2.012926 0.596707 -2.25 0 -2.25 
C -0.596707 -2.25 -1.169055 -2.012926 -1.59099 -1.59099 
C -2.012926 -1.169055 -2.25 -0.596707 -2.25 0 
C -2.25 0.596707 -2.012926 1.169055 -1.59099 1.59099 
C -1.169055 2.012926 -0.596707 2.25 0 2.25 
z
" style="stroke: #08306b"/>
    </defs>
    <g clip-path="url(#p0f3fdee555)">
     <use xlink:href="#mf06581feea" x="88.886453" y="24.517241" style="fill: #08306b; stroke: #08306b"/>
     <use xlink:href="#mf06581feea" x="136.108074" y="108.818319" style="fill: #08306b; stroke: #08306b"/>
     <use xlink:href="#mf06581feea" x="183.329696" y="207.016677" style="fill: #08306b; stroke: #08306b"/>
     <use xlink:href="#mf06581feea" x="230.551318" y="211.197546" style="fill: #08306b; stroke: #08306b"/>
     <use xlink:href="#mf06581feea" x="277.772939" y="211.262062" style="fill: #08306b; stroke: #08306b"/>
     <use xlink:href="#mf06581feea" x="324.994561" y="211.25768" style="fill: #08306b; stroke: #08306b"/>
     <use xlink:href="#mf06581feea" x="372.216182" y="211.265664" style="fill: #08306b; stroke: #08306b"/>
     <use xlink:href="#mf06581feea" x="419.437804" y="211.267237" style="fill: #08306b; stroke: #08306b"/>
     <use xlink:href="#mf06581feea" x="466.659426" y="211.273099" style="fill: #08306b; stroke: #08306b"/>
     <use xlink:href="#mf06581feea" x="513.881047" y="211.273074" style="fill: #08306b; stroke: #08306b"/>
     <use xlink:href="#mf06581feea" x="539.638295" y="211.273856" style="fill: #08306b; stroke: #08306b"/>
    </g>
   </g>
   <g id="line2d_125">
    <path d="M 97.472202 114.291499 
L 153.279573 160.42775 
L 209.086944 198.094087 
L 264.894315 198.100415 
L 320.701686 198.101458 
L 376.509057 198.106688 
L 432.316428 198.112094 
L 488.123799 198.113825 
L 539.638295 198.115306 
" clip-path="url(#p0f3fdee555)" style="fill: none"/>
    <defs>
     <path id="mf300c50e8b" d="M -0.833333 2.5 
L 0.833333 2.5 
L 0.833333 0.833333 
L 2.5 0.833333 
L 2.5 -0.833333 
L 0.833333 -0.833333 
L 0.833333 -2.5 
L -0.833333 -2.5 
L -0.833333 -0.833333 
L -2.5 -0.833333 
L -2.5 0.833333 
L -0.833333 0.833333 
z
" style="stroke: #26c6da; stroke-linejoin: miter"/>
    </defs>
    <g clip-path="url(#p0f3fdee555)">
     <use xlink:href="#mf300c50e8b" x="97.472202" y="114.291499" style="fill: #26c6da; stroke: #26c6da; stroke-linejoin: miter"/>
     <use xlink:href="#mf300c50e8b" x="153.279573" y="160.42775" style="fill: #26c6da; stroke: #26c6da; stroke-linejoin: miter"/>
     <use xlink:href="#mf300c50e8b" x="209.086944" y="198.094087" style="fill: #26c6da; stroke: #26c6da; stroke-linejoin: miter"/>
     <use xlink:href="#mf300c50e8b" x="264.894315" y="198.100415" style="fill: #26c6da; stroke: #26c6da; stroke-linejoin: miter"/>
     <use xlink:href="#mf300c50e8b" x="320.701686" y="198.101458" style="fill: #26c6da; stroke: #26c6da; stroke-linejoin: miter"/>
     <use xlink:href="#mf300c50e8b" x="376.509057" y="198.106688" style="fill: #26c6da; stroke: #26c6da; stroke-linejoin: miter"/>
     <use xlink:href="#mf300c50e8b" x="432.316428" y="198.112094" style="fill: #26c6da; stroke: #26c6da; stroke-linejoin: miter"/>
     <use xlink:href="#mf300c50e8b" x="488.123799" y="198.113825" style="fill: #26c6da; stroke: #26c6da; stroke-linejoin: miter"/>
     <use xlink:href="#mf300c50e8b" x="539.638295" y="198.115306" style="fill: #26c6da; stroke: #26c6da; stroke-linejoin: miter"/>
    </g>
   </g>
   <g id="line2d_126">
    <path d="M 76.007829 108.845966 
L 110.350826 122.961981 
L 144.693824 152.782949 
L 179.036821 188.940937 
L 213.379819 198.08092 
L 247.722816 198.104252 
L 282.065814 198.107676 
L 316.408811 198.106405 
L 350.751809 198.107979 
L 385.094807 198.107938 
L 419.437804 198.117696 
L 453.780802 198.114999 
L 488.123799 198.113703 
L 522.466797 198.115231 
L 539.638295 198.11505 
" clip-path="url(#p0f3fdee555)" style="fill: none"/>
    <defs>
     <path id="mdee41edd5d" d="M 0 -2.25 
L -2.25 2.25 
L 2.25 2.25 
z
" style="stroke: #0e6655; stroke-linejoin: miter"/>
    </defs>
    <g clip-path="url(#p0f3fdee555)">
     <use xlink:href="#mdee41edd5d" x="76.007829" y="108.845966" style="fill: #0e6655; stroke: #0e6655; stroke-linejoin: miter"/>
     <use xlink:href="#mdee41edd5d" x="110.350826" y="122.961981" style="fill: #0e6655; stroke: #0e6655; stroke-linejoin: miter"/>
     <use xlink:href="#mdee41edd5d" x="144.693824" y="152.782949" style="fill: #0e6655; stroke: #0e6655; stroke-linejoin: miter"/>
     <use xlink:href="#mdee41edd5d" x="179.036821" y="188.940937" style="fill: #0e6655; stroke: #0e6655; stroke-linejoin: miter"/>
     <use xlink:href="#mdee41edd5d" x="213.379819" y="198.08092" style="fill: #0e6655; stroke: #0e6655; stroke-linejoin: miter"/>
     <use xlink:href="#mdee41edd5d" x="247.722816" y="198.104252" style="fill: #0e6655; stroke: #0e6655; stroke-linejoin: miter"/>
     <use xlink:href="#mdee41edd5d" x="282.065814" y="198.107676" style="fill: #0e6655; stroke: #0e6655; stroke-linejoin: miter"/>
     <use xlink:href="#mdee41edd5d" x="316.408811" y="198.106405" style="fill: #0e6655; stroke: #0e6655; stroke-linejoin: miter"/>
     <use xlink:href="#mdee41edd5d" x="350.751809" y="198.107979" style="fill: #0e6655; stroke: #0e6655; stroke-linejoin: miter"/>
     <use xlink:href="#mdee41edd5d" x="385.094807" y="198.107938" style="fill: #0e6655; stroke: #0e6655; stroke-linejoin: miter"/>
     <use xlink:href="#mdee41edd5d" x="419.437804" y="198.117696" style="fill: #0e6655; stroke: #0e6655; stroke-linejoin: miter"/>
     <use xlink:href="#mdee41edd5d" x="453.780802" y="198.114999" style="fill: #0e6655; stroke: #0e6655; stroke-linejoin: miter"/>
     <use xlink:href="#mdee41edd5d" x="488.123799" y="198.113703" style="fill: #0e6655; stroke: #0e6655; stroke-linejoin: miter"/>
     <use xlink:href="#mdee41edd5d" x="522.466797" y="198.115231" style="fill: #0e6655; stroke: #0e6655; stroke-linejoin: miter"/>
     <use xlink:href="#mdee41edd5d" x="539.638295" y="198.11505" style="fill: #0e6655; stroke: #0e6655; stroke-linejoin: miter"/>
    </g>
   </g>
   <g id="legend_1">
    <g id="patch_5">
     <path d="M 477.980625 64.928125 
L 558.56375 64.928125 
Q 559.96375 64.928125 559.96375 63.528125 
L 559.96375 12.1 
Q 559.96375 10.7 558.56375 10.7 
L 477.980625 10.7 
Q 476.580625 10.7 476.580625 12.1 
L 476.580625 63.528125 
Q 476.580625 64.928125 477.980625 64.928125 
z
" style="fill: #ffffff; opacity: 0.85; stroke: #cccccc; stroke-linejoin: miter"/>
    </g>
    <g id="line2d_127">
     <path d="M 479.380625 16.368906 
L 487.780625 16.368906 
L 496.180625 16.368906 
" style="fill: none"/>
     <g>
      <use xlink:href="#m8d2fd9b079" x="487.780625" y="16.368906" style="fill: #cb6020; stroke: #cb6020; stroke-linejoin: miter"/>
     </g>
    </g>
    <g id="text_17">
     <!-- `rich` -->
     <g transform="translate(501.780625 18.818906) scale(0.07 -0.07)">
      <defs>
       <path id="DejaVuSans-60" d="M 1147 5119 
L 2028 3950 
L 1550 3950 
L 531 5119 
L 1147 5119 
z
" transform="scale(0.015625)"/>
       <path id="DejaVuSans-63" d="M 3122 3366 
L 3122 2828 
Q 2878 2963 2633 3030 
Q 2388 3097 2138 3097 
Q 1578 3097 1268 2742 
Q 959 2388 959 1747 
Q 959 1106 1268 751 
Q 1578 397 2138 397 
Q 2388 397 2633 464 
Q 2878 531 3122 666 
L 3122 134 
Q 2881 22 2623 -34 
Q 2366 -91 2075 -91 
Q 1284 -91 818 406 
Q 353 903 353 1747 
Q 353 2603 823 3093 
Q 1294 3584 2113 3584 
Q 2378 3584 2631 3529 
Q 2884 3475 3122 3366 
z
" transform="scale(0.015625)"/>
       <path id="DejaVuSans-68" d="M 3513 2113 
L 3513 0 
L 2938 0 
L 2938 2094 
Q 2938 2591 2744 2837 
Q 2550 3084 2163 3084 
Q 1697 3084 1428 2787 
Q 1159 2491 1159 1978 
L 1159 0 
L 581 0 
L 581 4863 
L 1159 4863 
L 1159 2956 
Q 1366 3272 1645 3428 
Q 1925 3584 2291 3584 
Q 2894 3584 3203 3211 
Q 3513 2838 3513 2113 
z
" transform="scale(0.015625)"/>
      </defs>
      <use xlink:href="#DejaVuSans-60"/>
      <use xlink:href="#DejaVuSans-72" transform="translate(50 0)"/>
      <use xlink:href="#DejaVuSans-69" transform="translate(91.113281 0)"/>
      <use xlink:href="#DejaVuSans-63" transform="translate(118.896484 0)"/>
      <use xlink:href="#DejaVuSans-68" transform="translate(173.876953 0)"/>
      <use xlink:href="#DejaVuSans-60" transform="translate(237.255859 0)"/>
     </g>
    </g>
    <g id="line2d_128">
     <path d="M 479.380625 26.923594 
L 487.780625 26.923594 
L 496.180625 26.923594 
" style="fill: none"/>
     <g>
      <use xlink:href="#m876ff4e1cf" x="487.780625" y="26.923594" style="fill: #2171b5; stroke: #2171b5; stroke-linejoin: miter"/>
     </g>
    </g>
    <g id="text_18">
     <!-- `entangled_qft` -->
     <g transform="translate(501.780625 29.373594) scale(0.07 -0.07)">
      <defs>
       <path id="DejaVuSans-64" d="M 2906 2969 
L 2906 4863 
L 3481 4863 
L 3481 0 
L 2906 0 
L 2906 525 
Q 2725 213 2448 61 
Q 2172 -91 1784 -91 
Q 1150 -91 751 415 
Q 353 922 353 1747 
Q 353 2572 751 3078 
Q 1150 3584 1784 3584 
Q 2172 3584 2448 3432 
Q 2725 3281 2906 2969 
z
M 947 1747 
Q 947 1113 1208 752 
Q 1469 391 1925 391 
Q 2381 391 2643 752 
Q 2906 1113 2906 1747 
Q 2906 2381 2643 2742 
Q 2381 3103 1925 3103 
Q 1469 3103 1208 2742 
Q 947 2381 947 1747 
z
" transform="scale(0.015625)"/>
       <path id="DejaVuSans-5f" d="M 3263 -1063 
L 3263 -1509 
L -63 -1509 
L -63 -1063 
L 3263 -1063 
z
" transform="scale(0.015625)"/>
       <path id="DejaVuSans-71" d="M 947 1747 
Q 947 1113 1208 752 
Q 1469 391 1925 391 
Q 2381 391 2643 752 
Q 2906 1113 2906 1747 
Q 2906 2381 2643 2742 
Q 2381 3103 1925 3103 
Q 1469 3103 1208 2742 
Q 947 2381 947 1747 
z
M 2906 525 
Q 2725 213 2448 61 
Q 2172 -91 1784 -91 
Q 1150 -91 751 415 
Q 353 922 353 1747 
Q 353 2572 751 3078 
Q 1150 3584 1784 3584 
Q 2172 3584 2448 3432 
Q 2725 3281 2906 2969 
L 2906 3500 
L 3481 3500 
L 3481 -1331 
L 2906 -1331 
L 2906 525 
z
" transform="scale(0.015625)"/>
       <path id="DejaVuSans-66" d="M 2375 4863 
L 2375 4384 
L 1825 4384 
Q 1516 4384 1395 4259 
Q 1275 4134 1275 3809 
L 1275 3500 
L 2222 3500 
L 2222 3053 
L 1275 3053 
L 1275 0 
L 697 0 
L 697 3053 
L 147 3053 
L 147 3500 
L 697 3500 
L 697 3744 
Q 697 4328 969 4595 
Q 1241 4863 1831 4863 
L 2375 4863 
z
" transform="scale(0.015625)"/>
      </defs>
      <use xlink:href="#DejaVuSans-60"/>
      <use xlink:href="#DejaVuSans-65" transform="translate(50 0)"/>
      <use xlink:href="#DejaVuSans-6e" transform="translate(111.523438 0)"/>
      <use xlink:href="#DejaVuSans-74" transform="translate(174.902344 0)"/>
      <use xlink:href="#DejaVuSans-61" transform="translate(214.111328 0)"/>
      <use xlink:href="#DejaVuSans-6e" transform="translate(275.390625 0)"/>
      <use xlink:href="#DejaVuSans-67" transform="translate(338.769531 0)"/>
      <use xlink:href="#DejaVuSans-6c" transform="translate(402.246094 0)"/>
      <use xlink:href="#DejaVuSans-65" transform="translate(430.029297 0)"/>
      <use xlink:href="#DejaVuSans-64" transform="translate(491.552734 0)"/>
      <use xlink:href="#DejaVuSans-5f" transform="translate(555.029297 0)"/>
      <use xlink:href="#DejaVuSans-71" transform="translate(605.029297 0)"/>
      <use xlink:href="#DejaVuSans-66" transform="translate(668.505859 0)"/>
      <use xlink:href="#DejaVuSans-74" transform="translate(701.960938 0)"/>
      <use xlink:href="#DejaVuSans-60" transform="translate(741.169922 0)"/>
     </g>
    </g>
    <g id="line2d_129">
     <path d="M 479.380625 37.672969 
L 487.780625 37.672969 
L 496.180625 37.672969 
" style="fill: none"/>
     <g>
      <use xlink:href="#mf06581feea" x="487.780625" y="37.672969" style="fill: #08306b; stroke: #08306b"/>
     </g>
    </g>
    <g id="text_19">
     <!-- `qft` -->
     <g transform="translate(501.780625 40.122969) scale(0.07 -0.07)">
      <use xlink:href="#DejaVuSans-60"/>
      <use xlink:href="#DejaVuSans-71" transform="translate(50 0)"/>
      <use xlink:href="#DejaVuSans-66" transform="translate(113.476562 0)"/>
      <use xlink:href="#DejaVuSans-74" transform="translate(146.931641 0)"/>
      <use xlink:href="#DejaVuSans-60" transform="translate(186.140625 0)"/>
     </g>
    </g>
    <g id="line2d_130">
     <path d="M 479.380625 47.947656 
L 487.780625 47.947656 
L 496.180625 47.947656 
" style="fill: none"/>
     <g>
      <use xlink:href="#mf300c50e8b" x="487.780625" y="47.947656" style="fill: #26c6da; stroke: #26c6da; stroke-linejoin: miter"/>
     </g>
    </g>
    <g id="text_20">
     <!-- `mera` -->
     <g transform="translate(501.780625 50.397656) scale(0.07 -0.07)">
      <defs>
       <path id="DejaVuSans-6d" d="M 3328 2828 
Q 3544 3216 3844 3400 
Q 4144 3584 4550 3584 
Q 5097 3584 5394 3201 
Q 5691 2819 5691 2113 
L 5691 0 
L 5113 0 
L 5113 2094 
Q 5113 2597 4934 2840 
Q 4756 3084 4391 3084 
Q 3944 3084 3684 2787 
Q 3425 2491 3425 1978 
L 3425 0 
L 2847 0 
L 2847 2094 
Q 2847 2600 2669 2842 
Q 2491 3084 2119 3084 
Q 1678 3084 1418 2786 
Q 1159 2488 1159 1978 
L 1159 0 
L 581 0 
L 581 3500 
L 1159 3500 
L 1159 2956 
Q 1356 3278 1631 3431 
Q 1906 3584 2284 3584 
Q 2666 3584 2933 3390 
Q 3200 3197 3328 2828 
z
" transform="scale(0.015625)"/>
      </defs>
      <use xlink:href="#DejaVuSans-60"/>
      <use xlink:href="#DejaVuSans-6d" transform="translate(50 0)"/>
      <use xlink:href="#DejaVuSans-65" transform="translate(147.412109 0)"/>
      <use xlink:href="#DejaVuSans-72" transform="translate(208.935547 0)"/>
      <use xlink:href="#DejaVuSans-61" transform="translate(250.048828 0)"/>
      <use xlink:href="#DejaVuSans-60" transform="translate(311.328125 0)"/>
     </g>
    </g>
    <g id="line2d_131">
     <path d="M 479.380625 58.222344 
L 487.780625 58.222344 
L 496.180625 58.222344 
" style="fill: none"/>
     <g>
      <use xlink:href="#mdee41edd5d" x="487.780625" y="58.222344" style="fill: #0e6655; stroke: #0e6655; stroke-linejoin: miter"/>
     </g>
    </g>
    <g id="text_21">
     <!-- `tebd` -->
     <g transform="translate(501.780625 60.672344) scale(0.07 -0.07)">
      <use xlink:href="#DejaVuSans-60"/>
      <use xlink:href="#DejaVuSans-74" transform="translate(50 0)"/>
      <use xlink:href="#DejaVuSans-65" transform="translate(89.208984 0)"/>
      <use xlink:href="#DejaVuSans-62" transform="translate(150.732422 0)"/>
      <use xlink:href="#DejaVuSans-64" transform="translate(214.208984 0)"/>
      <use xlink:href="#DejaVuSans-60" transform="translate(277.685547 0)"/>
     </g>
    </g>
   </g>
  </g>
 </g>
 <defs>
  <clipPath id="p0f3fdee555">
   <rect x="39.30375" y="7.2" width="524.16" height="288.144"/>
  </clipPath>
 </defs>
</svg>
