<?xml version="1.0" encoding="utf-8" standalone="no"?>
<!DOCTYPE svg PUBLIC "-//W3C//DTD SVG 1.1//EN"
  "http://www.w3.org/Graphics/SVG/1.1/DTD/svg11.dtd">
<svg xmlns:xlink="http://www.w3.org/1999/xlink" width="570.66375pt" height="328.061187pt" viewBox="0 0 570.66375 328.061187" xmlns="http://www.w3.org/2000/svg" version="1.1">
 <metadata>
  <rdf:RDF xmlns:dc="http://purl.org/dc/elements/1.1/" xmlns:cc="http://creativecommons.org/ns#" xmlns:rdf="http://www.w3.org/1999/02/22-rdf-syntax-ns#">
   <cc:Work>
    <dc:type rdf:resource="http://purl.org/dc/dcmitype/StillImage"/>
    <dc:date>2026-05-12T10:57:31.016537</dc:date>
    <dc:format>image/svg+xml</dc:format>
    <dc:creator>
     <cc:Agent>
      <dc:title>Matplotlib v3.10.9, https://matplotlib.org/</dc:title>
     </cc:Agent>
    </dc:creator>
   </cc:Work>
  </rdf:RDF>
 </metadata>
 <defs>
  <style type="text/css">*{stroke-linejoin: round; stroke-linecap: butt}</style>
 </defs>
 <g id="figure_1">
  <g id="patch_1">
   <path d="M 0 328.061187 
L 570.66375 328.061187 
L 570.66375 0 
L 0 0 
z
" style="fill: #ffffff"/>
  </g>
  <g id="axes_1">
   <g id="patch_2">
    <path d="M 39.30375 295.344 
L 563.46375 295.344 
L 563.46375 7.2 
L 39.30375 7.2 
z
" style="fill: #ffffff"/>
   </g>
   <g id="matplotlib.axis_1">
    <g id="xtick_1">
     <g id="line2d_1">
      <path d="M 58.83633 295.344 
L 58.83633 7.2 
" clip-path="url(#pe25885e0d7)" style="fill: none; stroke: #999999; stroke-opacity: 0.3; stroke-width: 0.5; stroke-linecap: square"/>
     </g>
     <g id="line2d_2">
      <defs>
       <path id="m40d5b28000" d="M 0 0 
L 0 3.5 
" style="stroke: #000000; stroke-width: 0.8"/>
      </defs>
      <g>
       <use xlink:href="#m40d5b28000" x="58.83633" y="295.344" style="stroke: #000000; stroke-width: 0.8"/>
      </g>
     </g>
     <g id="text_1">
      <!-- 0 -->
      <g transform="translate(56.609455 307.662906) scale(0.07 -0.07)">
       <defs>
        <path id="DejaVuSans-30" d="M 2034 4250 
Q 1547 4250 1301 3770 
Q 1056 3291 1056 2328 
Q 1056 1369 1301 889 
Q 1547 409 2034 409 
Q 2525 409 2770 889 
Q 3016 1369 3016 2328 
Q 3016 3291 2770 3770 
Q 2525 4250 2034 4250 
z
M 2034 4750 
Q 2819 4750 3233 4129 
Q 3647 3509 3647 2328 
Q 3647 1150 3233 529 
Q 2819 -91 2034 -91 
Q 1250 -91 836 529 
Q 422 1150 422 2328 
Q 422 3509 836 4129 
Q 1250 4750 2034 4750 
z
" transform="scale(0.015625)"/>
       </defs>
       <use xlink:href="#DejaVuSans-30"/>
      </g>
     </g>
    </g>
    <g id="xtick_2">
     <g id="line2d_3">
      <path d="M 154.233545 295.344 
L 154.233545 7.2 
" clip-path="url(#pe25885e0d7)" style="fill: none; stroke: #999999; stroke-opacity: 0.3; stroke-width: 0.5; stroke-linecap: square"/>
     </g>
     <g id="line2d_4">
      <g>
       <use xlink:href="#m40d5b28000" x="154.233545" y="295.344" style="stroke: #000000; stroke-width: 0.8"/>
      </g>
     </g>
     <g id="text_2">
      <!-- 200 -->
      <g transform="translate(147.55292 307.662906) scale(0.07 -0.07)">
       <defs>
        <path id="DejaVuSans-32" d="M 1228 531 
L 3431 531 
L 3431 0 
L 469 0 
L 469 531 
Q 828 903 1448 1529 
Q 2069 2156 2228 2338 
Q 2531 2678 2651 2914 
Q 2772 3150 2772 3378 
Q 2772 3750 2511 3984 
Q 2250 4219 1831 4219 
Q 1534 4219 1204 4116 
Q 875 4013 500 3803 
L 500 4441 
Q 881 4594 1212 4672 
Q 1544 4750 1819 4750 
Q 2544 4750 2975 4387 
Q 3406 4025 3406 3419 
Q 3406 3131 3298 2873 
Q 3191 2616 2906 2266 
Q 2828 2175 2409 1742 
Q 1991 1309 1228 531 
z
" transform="scale(0.015625)"/>
       </defs>
       <use xlink:href="#DejaVuSans-32"/>
       <use xlink:href="#DejaVuSans-30" transform="translate(63.623047 0)"/>
       <use xlink:href="#DejaVuSans-30" transform="translate(127.246094 0)"/>
      </g>
     </g>
    </g>
    <g id="xtick_3">
     <g id="line2d_5">
      <path d="M 249.630761 295.344 
L 249.630761 7.2 
" clip-path="url(#pe25885e0d7)" style="fill: none; stroke: #999999; stroke-opacity: 0.3; stroke-width: 0.5; stroke-linecap: square"/>
     </g>
     <g id="line2d_6">
      <g>
       <use xlink:href="#m40d5b28000" x="249.630761" y="295.344" style="stroke: #000000; stroke-width: 0.8"/>
      </g>
     </g>
     <g id="text_3">
      <!-- 400 -->
      <g transform="translate(242.950136 307.662906) scale(0.07 -0.07)">
       <defs>
        <path id="DejaVuSans-34" d="M 2419 4116 
L 825 1625 
L 2419 1625 
L 2419 4116 
z
M 2253 4666 
L 3047 4666 
L 3047 1625 
L 3713 1625 
L 3713 1100 
L 3047 1100 
L 3047 0 
L 2419 0 
L 2419 1100 
L 313 1100 
L 313 1709 
L 2253 4666 
z
" transform="scale(0.015625)"/>
       </defs>
       <use xlink:href="#DejaVuSans-34"/>
       <use xlink:href="#DejaVuSans-30" transform="translate(63.623047 0)"/>
       <use xlink:href="#DejaVuSans-30" transform="translate(127.246094 0)"/>
      </g>
     </g>
    </g>
    <g id="xtick_4">
     <g id="line2d_7">
      <path d="M 345.027976 295.344 
L 345.027976 7.2 
" clip-path="url(#pe25885e0d7)" style="fill: none; stroke: #999999; stroke-opacity: 0.3; stroke-width: 0.5; stroke-linecap: square"/>
     </g>
     <g id="line2d_8">
      <g>
       <use xlink:href="#m40d5b28000" x="345.027976" y="295.344" style="stroke: #000000; stroke-width: 0.8"/>
      </g>
     </g>
     <g id="text_4">
      <!-- 600 -->
      <g transform="translate(338.347351 307.662906) scale(0.07 -0.07)">
       <defs>
        <path id="DejaVuSans-36" d="M 2113 2584 
Q 1688 2584 1439 2293 
Q 1191 2003 1191 1497 
Q 1191 994 1439 701 
Q 1688 409 2113 409 
Q 2538 409 2786 701 
Q 3034 994 3034 1497 
Q 3034 2003 2786 2293 
Q 2538 2584 2113 2584 
z
M 3366 4563 
L 3366 3988 
Q 3128 4100 2886 4159 
Q 2644 4219 2406 4219 
Q 1781 4219 1451 3797 
Q 1122 3375 1075 2522 
Q 1259 2794 1537 2939 
Q 1816 3084 2150 3084 
Q 2853 3084 3261 2657 
Q 3669 2231 3669 1497 
Q 3669 778 3244 343 
Q 2819 -91 2113 -91 
Q 1303 -91 875 529 
Q 447 1150 447 2328 
Q 447 3434 972 4092 
Q 1497 4750 2381 4750 
Q 2619 4750 2861 4703 
Q 3103 4656 3366 4563 
z
" transform="scale(0.015625)"/>
       </defs>
       <use xlink:href="#DejaVuSans-36"/>
       <use xlink:href="#DejaVuSans-30" transform="translate(63.623047 0)"/>
       <use xlink:href="#DejaVuSans-30" transform="translate(127.246094 0)"/>
      </g>
     </g>
    </g>
    <g id="xtick_5">
     <g id="line2d_9">
      <path d="M 440.425191 295.344 
L 440.425191 7.2 
" clip-path="url(#pe25885e0d7)" style="fill: none; stroke: #999999; stroke-opacity: 0.3; stroke-width: 0.5; stroke-linecap: square"/>
     </g>
     <g id="line2d_10">
      <g>
       <use xlink:href="#m40d5b28000" x="440.425191" y="295.344" style="stroke: #000000; stroke-width: 0.8"/>
      </g>
     </g>
     <g id="text_5">
      <!-- 800 -->
      <g transform="translate(433.744566 307.662906) scale(0.07 -0.07)">
       <defs>
        <path id="DejaVuSans-38" d="M 2034 2216 
Q 1584 2216 1326 1975 
Q 1069 1734 1069 1313 
Q 1069 891 1326 650 
Q 1584 409 2034 409 
Q 2484 409 2743 651 
Q 3003 894 3003 1313 
Q 3003 1734 2745 1975 
Q 2488 2216 2034 2216 
z
M 1403 2484 
Q 997 2584 770 2862 
Q 544 3141 544 3541 
Q 544 4100 942 4425 
Q 1341 4750 2034 4750 
Q 2731 4750 3128 4425 
Q 3525 4100 3525 3541 
Q 3525 3141 3298 2862 
Q 3072 2584 2669 2484 
Q 3125 2378 3379 2068 
Q 3634 1759 3634 1313 
Q 3634 634 3220 271 
Q 2806 -91 2034 -91 
Q 1263 -91 848 271 
Q 434 634 434 1313 
Q 434 1759 690 2068 
Q 947 2378 1403 2484 
z
M 1172 3481 
Q 1172 3119 1398 2916 
Q 1625 2713 2034 2713 
Q 2441 2713 2670 2916 
Q 2900 3119 2900 3481 
Q 2900 3844 2670 4047 
Q 2441 4250 2034 4250 
Q 1625 4250 1398 4047 
Q 1172 3844 1172 3481 
z
" transform="scale(0.015625)"/>
       </defs>
       <use xlink:href="#DejaVuSans-38"/>
       <use xlink:href="#DejaVuSans-30" transform="translate(63.623047 0)"/>
       <use xlink:href="#DejaVuSans-30" transform="translate(127.246094 0)"/>
      </g>
     </g>
    </g>
    <g id="xtick_6">
     <g id="line2d_11">
      <path d="M 535.822407 295.344 
L 535.822407 7.2 
" clip-path="url(#pe25885e0d7)" style="fill: none; stroke: #999999; stroke-opacity: 0.3; stroke-width: 0.5; stroke-linecap: square"/>
     </g>
     <g id="line2d_12">
      <g>
       <use xlink:href="#m40d5b28000" x="535.822407" y="295.344" style="stroke: #000000; stroke-width: 0.8"/>
      </g>
     </g>
     <g id="text_6">
      <!-- 1000 -->
      <g transform="translate(526.914907 307.662906) scale(0.07 -0.07)">
       <defs>
        <path id="DejaVuSans-31" d="M 794 531 
L 1825 531 
L 1825 4091 
L 703 3866 
L 703 4441 
L 1819 4666 
L 2450 4666 
L 2450 531 
L 3481 531 
L 3481 0 
L 794 0 
L 794 531 
z
" transform="scale(0.015625)"/>
       </defs>
       <use xlink:href="#DejaVuSans-31"/>
       <use xlink:href="#DejaVuSans-30" transform="translate(63.623047 0)"/>
       <use xlink:href="#DejaVuSans-30" transform="translate(127.246094 0)"/>
       <use xlink:href="#DejaVuSans-30" transform="translate(190.869141 0)"/>
      </g>
     </g>
    </g>
    <g id="xtick_7">
     <g id="line2d_13">
      <path d="M 82.685634 295.344 
L 82.685634 7.2 
" clip-path="url(#pe25885e0d7)" style="fill: none; stroke: #bbbbbb; stroke-opacity: 0.15; stroke-width: 0.3; stroke-linecap: square"/>
     </g>
     <g id="line2d_14">
      <defs>
       <path id="mda06273b34" d="M 0 0 
L 0 2 
" style="stroke: #000000; stroke-width: 0.6"/>
      </defs>
      <g>
       <use xlink:href="#mda06273b34" x="82.685634" y="295.344" style="stroke: #000000; stroke-width: 0.6"/>
      </g>
     </g>
    </g>
    <g id="xtick_8">
     <g id="line2d_15">
      <path d="M 106.534938 295.344 
L 106.534938 7.2 
" clip-path="url(#pe25885e0d7)" style="fill: none; stroke: #bbbbbb; stroke-opacity: 0.15; stroke-width: 0.3; stroke-linecap: square"/>
     </g>
     <g id="line2d_16">
      <g>
       <use xlink:href="#mda06273b34" x="106.534938" y="295.344" style="stroke: #000000; stroke-width: 0.6"/>
      </g>
     </g>
    </g>
    <g id="xtick_9">
     <g id="line2d_17">
      <path d="M 130.384241 295.344 
L 130.384241 7.2 
" clip-path="url(#pe25885e0d7)" style="fill: none; stroke: #bbbbbb; stroke-opacity: 0.15; stroke-width: 0.3; stroke-linecap: square"/>
     </g>
     <g id="line2d_18">
      <g>
       <use xlink:href="#mda06273b34" x="130.384241" y="295.344" style="stroke: #000000; stroke-width: 0.6"/>
      </g>
     </g>
    </g>
    <g id="xtick_10">
     <g id="line2d_19">
      <path d="M 178.082849 295.344 
L 178.082849 7.2 
" clip-path="url(#pe25885e0d7)" style="fill: none; stroke: #bbbbbb; stroke-opacity: 0.15; stroke-width: 0.3; stroke-linecap: square"/>
     </g>
     <g id="line2d_20">
      <g>
       <use xlink:href="#mda06273b34" x="178.082849" y="295.344" style="stroke: #000000; stroke-width: 0.6"/>
      </g>
     </g>
    </g>
    <g id="xtick_11">
     <g id="line2d_21">
      <path d="M 201.932153 295.344 
L 201.932153 7.2 
" clip-path="url(#pe25885e0d7)" style="fill: none; stroke: #bbbbbb; stroke-opacity: 0.15; stroke-width: 0.3; stroke-linecap: square"/>
     </g>
     <g id="line2d_22">
      <g>
       <use xlink:href="#mda06273b34" x="201.932153" y="295.344" style="stroke: #000000; stroke-width: 0.6"/>
      </g>
     </g>
    </g>
    <g id="xtick_12">
     <g id="line2d_23">
      <path d="M 225.781457 295.344 
L 225.781457 7.2 
" clip-path="url(#pe25885e0d7)" style="fill: none; stroke: #bbbbbb; stroke-opacity: 0.15; stroke-width: 0.3; stroke-linecap: square"/>
     </g>
     <g id="line2d_24">
      <g>
       <use xlink:href="#mda06273b34" x="225.781457" y="295.344" style="stroke: #000000; stroke-width: 0.6"/>
      </g>
     </g>
    </g>
    <g id="xtick_13">
     <g id="line2d_25">
      <path d="M 273.480064 295.344 
L 273.480064 7.2 
" clip-path="url(#pe25885e0d7)" style="fill: none; stroke: #bbbbbb; stroke-opacity: 0.15; stroke-width: 0.3; stroke-linecap: square"/>
     </g>
     <g id="line2d_26">
      <g>
       <use xlink:href="#mda06273b34" x="273.480064" y="295.344" style="stroke: #000000; stroke-width: 0.6"/>
      </g>
     </g>
    </g>
    <g id="xtick_14">
     <g id="line2d_27">
      <path d="M 297.329368 295.344 
L 297.329368 7.2 
" clip-path="url(#pe25885e0d7)" style="fill: none; stroke: #bbbbbb; stroke-opacity: 0.15; stroke-width: 0.3; stroke-linecap: square"/>
     </g>
     <g id="line2d_28">
      <g>
       <use xlink:href="#mda06273b34" x="297.329368" y="295.344" style="stroke: #000000; stroke-width: 0.6"/>
      </g>
     </g>
    </g>
    <g id="xtick_15">
     <g id="line2d_29">
      <path d="M 321.178672 295.344 
L 321.178672 7.2 
" clip-path="url(#pe25885e0d7)" style="fill: none; stroke: #bbbbbb; stroke-opacity: 0.15; stroke-width: 0.3; stroke-linecap: square"/>
     </g>
     <g id="line2d_30">
      <g>
       <use xlink:href="#mda06273b34" x="321.178672" y="295.344" style="stroke: #000000; stroke-width: 0.6"/>
      </g>
     </g>
    </g>
    <g id="xtick_16">
     <g id="line2d_31">
      <path d="M 368.87728 295.344 
L 368.87728 7.2 
" clip-path="url(#pe25885e0d7)" style="fill: none; stroke: #bbbbbb; stroke-opacity: 0.15; stroke-width: 0.3; stroke-linecap: square"/>
     </g>
     <g id="line2d_32">
      <g>
       <use xlink:href="#mda06273b34" x="368.87728" y="295.344" style="stroke: #000000; stroke-width: 0.6"/>
      </g>
     </g>
    </g>
    <g id="xtick_17">
     <g id="line2d_33">
      <path d="M 392.726584 295.344 
L 392.726584 7.2 
" clip-path="url(#pe25885e0d7)" style="fill: none; stroke: #bbbbbb; stroke-opacity: 0.15; stroke-width: 0.3; stroke-linecap: square"/>
     </g>
     <g id="line2d_34">
      <g>
       <use xlink:href="#mda06273b34" x="392.726584" y="295.344" style="stroke: #000000; stroke-width: 0.6"/>
      </g>
     </g>
    </g>
    <g id="xtick_18">
     <g id="line2d_35">
      <path d="M 416.575888 295.344 
L 416.575888 7.2 
" clip-path="url(#pe25885e0d7)" style="fill: none; stroke: #bbbbbb; stroke-opacity: 0.15; stroke-width: 0.3; stroke-linecap: square"/>
     </g>
     <g id="line2d_36">
      <g>
       <use xlink:href="#mda06273b34" x="416.575888" y="295.344" style="stroke: #000000; stroke-width: 0.6"/>
      </g>
     </g>
    </g>
    <g id="xtick_19">
     <g id="line2d_37">
      <path d="M 464.274495 295.344 
L 464.274495 7.2 
" clip-path="url(#pe25885e0d7)" style="fill: none; stroke: #bbbbbb; stroke-opacity: 0.15; stroke-width: 0.3; stroke-linecap: square"/>
     </g>
     <g id="line2d_38">
      <g>
       <use xlink:href="#mda06273b34" x="464.274495" y="295.344" style="stroke: #000000; stroke-width: 0.6"/>
      </g>
     </g>
    </g>
    <g id="xtick_20">
     <g id="line2d_39">
      <path d="M 488.123799 295.344 
L 488.123799 7.2 
" clip-path="url(#pe25885e0d7)" style="fill: none; stroke: #bbbbbb; stroke-opacity: 0.15; stroke-width: 0.3; stroke-linecap: square"/>
     </g>
     <g id="line2d_40">
      <g>
       <use xlink:href="#mda06273b34" x="488.123799" y="295.344" style="stroke: #000000; stroke-width: 0.6"/>
      </g>
     </g>
    </g>
    <g id="xtick_21">
     <g id="line2d_41">
      <path d="M 511.973103 295.344 
L 511.973103 7.2 
" clip-path="url(#pe25885e0d7)" style="fill: none; stroke: #bbbbbb; stroke-opacity: 0.15; stroke-width: 0.3; stroke-linecap: square"/>
     </g>
     <g id="line2d_42">
      <g>
       <use xlink:href="#mda06273b34" x="511.973103" y="295.344" style="stroke: #000000; stroke-width: 0.6"/>
      </g>
     </g>
    </g>
    <g id="xtick_22">
     <g id="line2d_43">
      <path d="M 559.671711 295.344 
L 559.671711 7.2 
" clip-path="url(#pe25885e0d7)" style="fill: none; stroke: #bbbbbb; stroke-opacity: 0.15; stroke-width: 0.3; stroke-linecap: square"/>
     </g>
     <g id="line2d_44">
      <g>
       <use xlink:href="#mda06273b34" x="559.671711" y="295.344" style="stroke: #000000; stroke-width: 0.6"/>
      </g>
     </g>
    </g>
    <g id="text_7">
     <!-- training step -->
     <g transform="translate(275.964375 319.197437) scale(0.08 -0.08)">
      <defs>
       <path id="DejaVuSans-74" d="M 1172 4494 
L 1172 3500 
L 2356 3500 
L 2356 3053 
L 1172 3053 
L 1172 1153 
Q 1172 725 1289 603 
Q 1406 481 1766 481 
L 2356 481 
L 2356 0 
L 1766 0 
Q 1100 0 847 248 
Q 594 497 594 1153 
L 594 3053 
L 172 3053 
L 172 3500 
L 594 3500 
L 594 4494 
L 1172 4494 
z
" transform="scale(0.015625)"/>
       <path id="DejaVuSans-72" d="M 2631 2963 
Q 2534 3019 2420 3045 
Q 2306 3072 2169 3072 
Q 1681 3072 1420 2755 
Q 1159 2438 1159 1844 
L 1159 0 
L 581 0 
L 581 3500 
L 1159 3500 
L 1159 2956 
Q 1341 3275 1631 3429 
Q 1922 3584 2338 3584 
Q 2397 3584 2469 3576 
Q 2541 3569 2628 3553 
L 2631 2963 
z
" transform="scale(0.015625)"/>
       <path id="DejaVuSans-61" d="M 2194 1759 
Q 1497 1759 1228 1600 
Q 959 1441 959 1056 
Q 959 750 1161 570 
Q 1363 391 1709 391 
Q 2188 391 2477 730 
Q 2766 1069 2766 1631 
L 2766 1759 
L 2194 1759 
z
M 3341 1997 
L 3341 0 
L 2766 0 
L 2766 531 
Q 2569 213 2275 61 
Q 1981 -91 1556 -91 
Q 1019 -91 701 211 
Q 384 513 384 1019 
Q 384 1609 779 1909 
Q 1175 2209 1959 2209 
L 2766 2209 
L 2766 2266 
Q 2766 2663 2505 2880 
Q 2244 3097 1772 3097 
Q 1472 3097 1187 3025 
Q 903 2953 641 2809 
L 641 3341 
Q 956 3463 1253 3523 
Q 1550 3584 1831 3584 
Q 2591 3584 2966 3190 
Q 3341 2797 3341 1997 
z
" transform="scale(0.015625)"/>
       <path id="DejaVuSans-69" d="M 603 3500 
L 1178 3500 
L 1178 0 
L 603 0 
L 603 3500 
z
M 603 4863 
L 1178 4863 
L 1178 4134 
L 603 4134 
L 603 4863 
z
" transform="scale(0.015625)"/>
       <path id="DejaVuSans-6e" d="M 3513 2113 
L 3513 0 
L 2938 0 
L 2938 2094 
Q 2938 2591 2744 2837 
Q 2550 3084 2163 3084 
Q 1697 3084 1428 2787 
Q 1159 2491 1159 1978 
L 1159 0 
L 581 0 
L 581 3500 
L 1159 3500 
L 1159 2956 
Q 1366 3272 1645 3428 
Q 1925 3584 2291 3584 
Q 2894 3584 3203 3211 
Q 3513 2838 3513 2113 
z
" transform="scale(0.015625)"/>
       <path id="DejaVuSans-67" d="M 2906 1791 
Q 2906 2416 2648 2759 
Q 2391 3103 1925 3103 
Q 1463 3103 1205 2759 
Q 947 2416 947 1791 
Q 947 1169 1205 825 
Q 1463 481 1925 481 
Q 2391 481 2648 825 
Q 2906 1169 2906 1791 
z
M 3481 434 
Q 3481 -459 3084 -895 
Q 2688 -1331 1869 -1331 
Q 1566 -1331 1297 -1286 
Q 1028 -1241 775 -1147 
L 775 -588 
Q 1028 -725 1275 -790 
Q 1522 -856 1778 -856 
Q 2344 -856 2625 -561 
Q 2906 -266 2906 331 
L 2906 616 
Q 2728 306 2450 153 
Q 2172 0 1784 0 
Q 1141 0 747 490 
Q 353 981 353 1791 
Q 353 2603 747 3093 
Q 1141 3584 1784 3584 
Q 2172 3584 2450 3431 
Q 2728 3278 2906 2969 
L 2906 3500 
L 3481 3500 
L 3481 434 
z
" transform="scale(0.015625)"/>
       <path id="DejaVuSans-20" transform="scale(0.015625)"/>
       <path id="DejaVuSans-73" d="M 2834 3397 
L 2834 2853 
Q 2591 2978 2328 3040 
Q 2066 3103 1784 3103 
Q 1356 3103 1142 2972 
Q 928 2841 928 2578 
Q 928 2378 1081 2264 
Q 1234 2150 1697 2047 
L 1894 2003 
Q 2506 1872 2764 1633 
Q 3022 1394 3022 966 
Q 3022 478 2636 193 
Q 2250 -91 1575 -91 
Q 1294 -91 989 -36 
Q 684 19 347 128 
L 347 722 
Q 666 556 975 473 
Q 1284 391 1588 391 
Q 1994 391 2212 530 
Q 2431 669 2431 922 
Q 2431 1156 2273 1281 
Q 2116 1406 1581 1522 
L 1381 1569 
Q 847 1681 609 1914 
Q 372 2147 372 2553 
Q 372 3047 722 3315 
Q 1072 3584 1716 3584 
Q 2034 3584 2315 3537 
Q 2597 3491 2834 3397 
z
" transform="scale(0.015625)"/>
       <path id="DejaVuSans-65" d="M 3597 1894 
L 3597 1613 
L 953 1613 
Q 991 1019 1311 708 
Q 1631 397 2203 397 
Q 2534 397 2845 478 
Q 3156 559 3463 722 
L 3463 178 
Q 3153 47 2828 -22 
Q 2503 -91 2169 -91 
Q 1331 -91 842 396 
Q 353 884 353 1716 
Q 353 2575 817 3079 
Q 1281 3584 2069 3584 
Q 2775 3584 3186 3129 
Q 3597 2675 3597 1894 
z
M 3022 2063 
Q 3016 2534 2758 2815 
Q 2500 3097 2075 3097 
Q 1594 3097 1305 2825 
Q 1016 2553 972 2059 
L 3022 2063 
z
" transform="scale(0.015625)"/>
       <path id="DejaVuSans-70" d="M 1159 525 
L 1159 -1331 
L 581 -1331 
L 581 3500 
L 1159 3500 
L 1159 2969 
Q 1341 3281 1617 3432 
Q 1894 3584 2278 3584 
Q 2916 3584 3314 3078 
Q 3713 2572 3713 1747 
Q 3713 922 3314 415 
Q 2916 -91 2278 -91 
Q 1894 -91 1617 61 
Q 1341 213 1159 525 
z
M 3116 1747 
Q 3116 2381 2855 2742 
Q 2594 3103 2138 3103 
Q 1681 3103 1420 2742 
Q 1159 2381 1159 1747 
Q 1159 1113 1420 752 
Q 1681 391 2138 391 
Q 2594 391 2855 752 
Q 3116 1113 3116 1747 
z
" transform="scale(0.015625)"/>
      </defs>
      <use xlink:href="#DejaVuSans-74"/>
      <use xlink:href="#DejaVuSans-72" transform="translate(39.208984 0)"/>
      <use xlink:href="#DejaVuSans-61" transform="translate(80.322266 0)"/>
      <use xlink:href="#DejaVuSans-69" transform="translate(141.601562 0)"/>
      <use xlink:href="#DejaVuSans-6e" transform="translate(169.384766 0)"/>
      <use xlink:href="#DejaVuSans-69" transform="translate(232.763672 0)"/>
      <use xlink:href="#DejaVuSans-6e" transform="translate(260.546875 0)"/>
      <use xlink:href="#DejaVuSans-67" transform="translate(323.925781 0)"/>
      <use xlink:href="#DejaVuSans-20" transform="translate(387.402344 0)"/>
      <use xlink:href="#DejaVuSans-73" transform="translate(419.189453 0)"/>
      <use xlink:href="#DejaVuSans-74" transform="translate(471.289062 0)"/>
      <use xlink:href="#DejaVuSans-65" transform="translate(510.498047 0)"/>
      <use xlink:href="#DejaVuSans-70" transform="translate(572.021484 0)"/>
     </g>
    </g>
   </g>
   <g id="matplotlib.axis_2">
    <g id="ytick_1">
     <g id="line2d_45">
      <path d="M 39.30375 284.984185 
L 563.46375 284.984185 
" clip-path="url(#pe25885e0d7)" style="fill: none; stroke: #999999; stroke-opacity: 0.3; stroke-width: 0.5; stroke-linecap: square"/>
     </g>
     <g id="line2d_46">
      <defs>
       <path id="m34ab849646" d="M 0 0 
L -3.5 0 
" style="stroke: #000000; stroke-width: 0.8"/>
      </defs>
      <g>
       <use xlink:href="#m34ab849646" x="39.30375" y="284.984185" style="stroke: #000000; stroke-width: 0.8"/>
      </g>
     </g>
     <g id="text_8">
      <!-- 100 -->
      <g transform="translate(18.9425 287.643639) scale(0.07 -0.07)">
       <use xlink:href="#DejaVuSans-31"/>
       <use xlink:href="#DejaVuSans-30" transform="translate(63.623047 0)"/>
       <use xlink:href="#DejaVuSans-30" transform="translate(127.246094 0)"/>
      </g>
     </g>
    </g>
    <g id="ytick_2">
     <g id="line2d_47">
      <path d="M 39.30375 245.867321 
L 563.46375 245.867321 
" clip-path="url(#pe25885e0d7)" style="fill: none; stroke: #999999; stroke-opacity: 0.3; stroke-width: 0.5; stroke-linecap: square"/>
     </g>
     <g id="line2d_48">
      <g>
       <use xlink:href="#m34ab849646" x="39.30375" y="245.867321" style="stroke: #000000; stroke-width: 0.8"/>
      </g>
     </g>
     <g id="text_9">
      <!-- 125 -->
      <g transform="translate(18.9425 248.526774) scale(0.07 -0.07)">
       <defs>
        <path id="DejaVuSans-35" d="M 691 4666 
L 3169 4666 
L 3169 4134 
L 1269 4134 
L 1269 2991 
Q 1406 3038 1543 3061 
Q 1681 3084 1819 3084 
Q 2600 3084 3056 2656 
Q 3513 2228 3513 1497 
Q 3513 744 3044 326 
Q 2575 -91 1722 -91 
Q 1428 -91 1123 -41 
Q 819 9 494 109 
L 494 744 
Q 775 591 1075 516 
Q 1375 441 1709 441 
Q 2250 441 2565 725 
Q 2881 1009 2881 1497 
Q 2881 1984 2565 2268 
Q 2250 2553 1709 2553 
Q 1456 2553 1204 2497 
Q 953 2441 691 2322 
L 691 4666 
z
" transform="scale(0.015625)"/>
       </defs>
       <use xlink:href="#DejaVuSans-31"/>
       <use xlink:href="#DejaVuSans-32" transform="translate(63.623047 0)"/>
       <use xlink:href="#DejaVuSans-35" transform="translate(127.246094 0)"/>
      </g>
     </g>
    </g>
    <g id="ytick_3">
     <g id="line2d_49">
      <path d="M 39.30375 206.750456 
L 563.46375 206.750456 
" clip-path="url(#pe25885e0d7)" style="fill: none; stroke: #999999; stroke-opacity: 0.3; stroke-width: 0.5; stroke-linecap: square"/>
     </g>
     <g id="line2d_50">
      <g>
       <use xlink:href="#m34ab849646" x="39.30375" y="206.750456" style="stroke: #000000; stroke-width: 0.8"/>
      </g>
     </g>
     <g id="text_10">
      <!-- 150 -->
      <g transform="translate(18.9425 209.409909) scale(0.07 -0.07)">
       <use xlink:href="#DejaVuSans-31"/>
       <use xlink:href="#DejaVuSans-35" transform="translate(63.623047 0)"/>
       <use xlink:href="#DejaVuSans-30" transform="translate(127.246094 0)"/>
      </g>
     </g>
    </g>
    <g id="ytick_4">
     <g id="line2d_51">
      <path d="M 39.30375 167.633591 
L 563.46375 167.633591 
" clip-path="url(#pe25885e0d7)" style="fill: none; stroke: #999999; stroke-opacity: 0.3; stroke-width: 0.5; stroke-linecap: square"/>
     </g>
     <g id="line2d_52">
      <g>
       <use xlink:href="#m34ab849646" x="39.30375" y="167.633591" style="stroke: #000000; stroke-width: 0.8"/>
      </g>
     </g>
     <g id="text_11">
      <!-- 175 -->
      <g transform="translate(18.9425 170.293044) scale(0.07 -0.07)">
       <defs>
        <path id="DejaVuSans-37" d="M 525 4666 
L 3525 4666 
L 3525 4397 
L 1831 0 
L 1172 0 
L 2766 4134 
L 525 4134 
L 525 4666 
z
" transform="scale(0.015625)"/>
       </defs>
       <use xlink:href="#DejaVuSans-31"/>
       <use xlink:href="#DejaVuSans-37" transform="translate(63.623047 0)"/>
       <use xlink:href="#DejaVuSans-35" transform="translate(127.246094 0)"/>
      </g>
     </g>
    </g>
    <g id="ytick_5">
     <g id="line2d_53">
      <path d="M 39.30375 128.516726 
L 563.46375 128.516726 
" clip-path="url(#pe25885e0d7)" style="fill: none; stroke: #999999; stroke-opacity: 0.3; stroke-width: 0.5; stroke-linecap: square"/>
     </g>
     <g id="line2d_54">
      <g>
       <use xlink:href="#m34ab849646" x="39.30375" y="128.516726" style="stroke: #000000; stroke-width: 0.8"/>
      </g>
     </g>
     <g id="text_12">
      <!-- 200 -->
      <g transform="translate(18.9425 131.176179) scale(0.07 -0.07)">
       <use xlink:href="#DejaVuSans-32"/>
       <use xlink:href="#DejaVuSans-30" transform="translate(63.623047 0)"/>
       <use xlink:href="#DejaVuSans-30" transform="translate(127.246094 0)"/>
      </g>
     </g>
    </g>
    <g id="ytick_6">
     <g id="line2d_55">
      <path d="M 39.30375 89.399861 
L 563.46375 89.399861 
" clip-path="url(#pe25885e0d7)" style="fill: none; stroke: #999999; stroke-opacity: 0.3; stroke-width: 0.5; stroke-linecap: square"/>
     </g>
     <g id="line2d_56">
      <g>
       <use xlink:href="#m34ab849646" x="39.30375" y="89.399861" style="stroke: #000000; stroke-width: 0.8"/>
      </g>
     </g>
     <g id="text_13">
      <!-- 225 -->
      <g transform="translate(18.9425 92.059314) scale(0.07 -0.07)">
       <use xlink:href="#DejaVuSans-32"/>
       <use xlink:href="#DejaVuSans-32" transform="translate(63.623047 0)"/>
       <use xlink:href="#DejaVuSans-35" transform="translate(127.246094 0)"/>
      </g>
     </g>
    </g>
    <g id="ytick_7">
     <g id="line2d_57">
      <path d="M 39.30375 50.282996 
L 563.46375 50.282996 
" clip-path="url(#pe25885e0d7)" style="fill: none; stroke: #999999; stroke-opacity: 0.3; stroke-width: 0.5; stroke-linecap: square"/>
     </g>
     <g id="line2d_58">
      <g>
       <use xlink:href="#m34ab849646" x="39.30375" y="50.282996" style="stroke: #000000; stroke-width: 0.8"/>
      </g>
     </g>
     <g id="text_14">
      <!-- 250 -->
      <g transform="translate(18.9425 52.942449) scale(0.07 -0.07)">
       <use xlink:href="#DejaVuSans-32"/>
       <use xlink:href="#DejaVuSans-35" transform="translate(63.623047 0)"/>
       <use xlink:href="#DejaVuSans-30" transform="translate(127.246094 0)"/>
      </g>
     </g>
    </g>
    <g id="ytick_8">
     <g id="line2d_59">
      <path d="M 39.30375 11.166131 
L 563.46375 11.166131 
" clip-path="url(#pe25885e0d7)" style="fill: none; stroke: #999999; stroke-opacity: 0.3; stroke-width: 0.5; stroke-linecap: square"/>
     </g>
     <g id="line2d_60">
      <g>
       <use xlink:href="#m34ab849646" x="39.30375" y="11.166131" style="stroke: #000000; stroke-width: 0.8"/>
      </g>
     </g>
     <g id="text_15">
      <!-- 275 -->
      <g transform="translate(18.9425 13.825584) scale(0.07 -0.07)">
       <use xlink:href="#DejaVuSans-32"/>
       <use xlink:href="#DejaVuSans-37" transform="translate(63.623047 0)"/>
       <use xlink:href="#DejaVuSans-35" transform="translate(127.246094 0)"/>
      </g>
     </g>
    </g>
    <g id="ytick_9">
     <g id="line2d_61">
      <path d="M 39.30375 292.807558 
L 563.46375 292.807558 
" clip-path="url(#pe25885e0d7)" style="fill: none; stroke: #bbbbbb; stroke-opacity: 0.15; stroke-width: 0.3; stroke-linecap: square"/>
     </g>
     <g id="line2d_62">
      <defs>
       <path id="m6b33aa73b1" d="M 0 0 
L -2 0 
" style="stroke: #000000; stroke-width: 0.6"/>
      </defs>
      <g>
       <use xlink:href="#m6b33aa73b1" x="39.30375" y="292.807558" style="stroke: #000000; stroke-width: 0.6"/>
      </g>
     </g>
    </g>
    <g id="ytick_10">
     <g id="line2d_63">
      <path d="M 39.30375 277.160812 
L 563.46375 277.160812 
" clip-path="url(#pe25885e0d7)" style="fill: none; stroke: #bbbbbb; stroke-opacity: 0.15; stroke-width: 0.3; stroke-linecap: square"/>
     </g>
     <g id="line2d_64">
      <g>
       <use xlink:href="#m6b33aa73b1" x="39.30375" y="277.160812" style="stroke: #000000; stroke-width: 0.6"/>
      </g>
     </g>
    </g>
    <g id="ytick_11">
     <g id="line2d_65">
      <path d="M 39.30375 269.33744 
L 563.46375 269.33744 
" clip-path="url(#pe25885e0d7)" style="fill: none; stroke: #bbbbbb; stroke-opacity: 0.15; stroke-width: 0.3; stroke-linecap: square"/>
     </g>
     <g id="line2d_66">
      <g>
       <use xlink:href="#m6b33aa73b1" x="39.30375" y="269.33744" style="stroke: #000000; stroke-width: 0.6"/>
      </g>
     </g>
    </g>
    <g id="ytick_12">
     <g id="line2d_67">
      <path d="M 39.30375 261.514067 
L 563.46375 261.514067 
" clip-path="url(#pe25885e0d7)" style="fill: none; stroke: #bbbbbb; stroke-opacity: 0.15; stroke-width: 0.3; stroke-linecap: square"/>
     </g>
     <g id="line2d_68">
      <g>
       <use xlink:href="#m6b33aa73b1" x="39.30375" y="261.514067" style="stroke: #000000; stroke-width: 0.6"/>
      </g>
     </g>
    </g>
    <g id="ytick_13">
     <g id="line2d_69">
      <path d="M 39.30375 253.690694 
L 563.46375 253.690694 
" clip-path="url(#pe25885e0d7)" style="fill: none; stroke: #bbbbbb; stroke-opacity: 0.15; stroke-width: 0.3; stroke-linecap: square"/>
     </g>
     <g id="line2d_70">
      <g>
       <use xlink:href="#m6b33aa73b1" x="39.30375" y="253.690694" style="stroke: #000000; stroke-width: 0.6"/>
      </g>
     </g>
    </g>
    <g id="ytick_14">
     <g id="line2d_71">
      <path d="M 39.30375 238.043948 
L 563.46375 238.043948 
" clip-path="url(#pe25885e0d7)" style="fill: none; stroke: #bbbbbb; stroke-opacity: 0.15; stroke-width: 0.3; stroke-linecap: square"/>
     </g>
     <g id="line2d_72">
      <g>
       <use xlink:href="#m6b33aa73b1" x="39.30375" y="238.043948" style="stroke: #000000; stroke-width: 0.6"/>
      </g>
     </g>
    </g>
    <g id="ytick_15">
     <g id="line2d_73">
      <path d="M 39.30375 230.220575 
L 563.46375 230.220575 
" clip-path="url(#pe25885e0d7)" style="fill: none; stroke: #bbbbbb; stroke-opacity: 0.15; stroke-width: 0.3; stroke-linecap: square"/>
     </g>
     <g id="line2d_74">
      <g>
       <use xlink:href="#m6b33aa73b1" x="39.30375" y="230.220575" style="stroke: #000000; stroke-width: 0.6"/>
      </g>
     </g>
    </g>
    <g id="ytick_16">
     <g id="line2d_75">
      <path d="M 39.30375 222.397202 
L 563.46375 222.397202 
" clip-path="url(#pe25885e0d7)" style="fill: none; stroke: #bbbbbb; stroke-opacity: 0.15; stroke-width: 0.3; stroke-linecap: square"/>
     </g>
     <g id="line2d_76">
      <g>
       <use xlink:href="#m6b33aa73b1" x="39.30375" y="222.397202" style="stroke: #000000; stroke-width: 0.6"/>
      </g>
     </g>
    </g>
    <g id="ytick_17">
     <g id="line2d_77">
      <path d="M 39.30375 214.573829 
L 563.46375 214.573829 
" clip-path="url(#pe25885e0d7)" style="fill: none; stroke: #bbbbbb; stroke-opacity: 0.15; stroke-width: 0.3; stroke-linecap: square"/>
     </g>
     <g id="line2d_78">
      <g>
       <use xlink:href="#m6b33aa73b1" x="39.30375" y="214.573829" style="stroke: #000000; stroke-width: 0.6"/>
      </g>
     </g>
    </g>
    <g id="ytick_18">
     <g id="line2d_79">
      <path d="M 39.30375 198.927083 
L 563.46375 198.927083 
" clip-path="url(#pe25885e0d7)" style="fill: none; stroke: #bbbbbb; stroke-opacity: 0.15; stroke-width: 0.3; stroke-linecap: square"/>
     </g>
     <g id="line2d_80">
      <g>
       <use xlink:href="#m6b33aa73b1" x="39.30375" y="198.927083" style="stroke: #000000; stroke-width: 0.6"/>
      </g>
     </g>
    </g>
    <g id="ytick_19">
     <g id="line2d_81">
      <path d="M 39.30375 191.10371 
L 563.46375 191.10371 
" clip-path="url(#pe25885e0d7)" style="fill: none; stroke: #bbbbbb; stroke-opacity: 0.15; stroke-width: 0.3; stroke-linecap: square"/>
     </g>
     <g id="line2d_82">
      <g>
       <use xlink:href="#m6b33aa73b1" x="39.30375" y="191.10371" style="stroke: #000000; stroke-width: 0.6"/>
      </g>
     </g>
    </g>
    <g id="ytick_20">
     <g id="line2d_83">
      <path d="M 39.30375 183.280337 
L 563.46375 183.280337 
" clip-path="url(#pe25885e0d7)" style="fill: none; stroke: #bbbbbb; stroke-opacity: 0.15; stroke-width: 0.3; stroke-linecap: square"/>
     </g>
     <g id="line2d_84">
      <g>
       <use xlink:href="#m6b33aa73b1" x="39.30375" y="183.280337" style="stroke: #000000; stroke-width: 0.6"/>
      </g>
     </g>
    </g>
    <g id="ytick_21">
     <g id="line2d_85">
      <path d="M 39.30375 175.456964 
L 563.46375 175.456964 
" clip-path="url(#pe25885e0d7)" style="fill: none; stroke: #bbbbbb; stroke-opacity: 0.15; stroke-width: 0.3; stroke-linecap: square"/>
     </g>
     <g id="line2d_86">
      <g>
       <use xlink:href="#m6b33aa73b1" x="39.30375" y="175.456964" style="stroke: #000000; stroke-width: 0.6"/>
      </g>
     </g>
    </g>
    <g id="ytick_22">
     <g id="line2d_87">
      <path d="M 39.30375 159.810218 
L 563.46375 159.810218 
" clip-path="url(#pe25885e0d7)" style="fill: none; stroke: #bbbbbb; stroke-opacity: 0.15; stroke-width: 0.3; stroke-linecap: square"/>
     </g>
     <g id="line2d_88">
      <g>
       <use xlink:href="#m6b33aa73b1" x="39.30375" y="159.810218" style="stroke: #000000; stroke-width: 0.6"/>
      </g>
     </g>
    </g>
    <g id="ytick_23">
     <g id="line2d_89">
      <path d="M 39.30375 151.986845 
L 563.46375 151.986845 
" clip-path="url(#pe25885e0d7)" style="fill: none; stroke: #bbbbbb; stroke-opacity: 0.15; stroke-width: 0.3; stroke-linecap: square"/>
     </g>
     <g id="line2d_90">
      <g>
       <use xlink:href="#m6b33aa73b1" x="39.30375" y="151.986845" style="stroke: #000000; stroke-width: 0.6"/>
      </g>
     </g>
    </g>
    <g id="ytick_24">
     <g id="line2d_91">
      <path d="M 39.30375 144.163472 
L 563.46375 144.163472 
" clip-path="url(#pe25885e0d7)" style="fill: none; stroke: #bbbbbb; stroke-opacity: 0.15; stroke-width: 0.3; stroke-linecap: square"/>
     </g>
     <g id="line2d_92">
      <g>
       <use xlink:href="#m6b33aa73b1" x="39.30375" y="144.163472" style="stroke: #000000; stroke-width: 0.6"/>
      </g>
     </g>
    </g>
    <g id="ytick_25">
     <g id="line2d_93">
      <path d="M 39.30375 136.340099 
L 563.46375 136.340099 
" clip-path="url(#pe25885e0d7)" style="fill: none; stroke: #bbbbbb; stroke-opacity: 0.15; stroke-width: 0.3; stroke-linecap: square"/>
     </g>
     <g id="line2d_94">
      <g>
       <use xlink:href="#m6b33aa73b1" x="39.30375" y="136.340099" style="stroke: #000000; stroke-width: 0.6"/>
      </g>
     </g>
    </g>
    <g id="ytick_26">
     <g id="line2d_95">
      <path d="M 39.30375 120.693353 
L 563.46375 120.693353 
" clip-path="url(#pe25885e0d7)" style="fill: none; stroke: #bbbbbb; stroke-opacity: 0.15; stroke-width: 0.3; stroke-linecap: square"/>
     </g>
     <g id="line2d_96">
      <g>
       <use xlink:href="#m6b33aa73b1" x="39.30375" y="120.693353" style="stroke: #000000; stroke-width: 0.6"/>
      </g>
     </g>
    </g>
    <g id="ytick_27">
     <g id="line2d_97">
      <path d="M 39.30375 112.86998 
L 563.46375 112.86998 
" clip-path="url(#pe25885e0d7)" style="fill: none; stroke: #bbbbbb; stroke-opacity: 0.15; stroke-width: 0.3; stroke-linecap: square"/>
     </g>
     <g id="line2d_98">
      <g>
       <use xlink:href="#m6b33aa73b1" x="39.30375" y="112.86998" style="stroke: #000000; stroke-width: 0.6"/>
      </g>
     </g>
    </g>
    <g id="ytick_28">
     <g id="line2d_99">
      <path d="M 39.30375 105.046607 
L 563.46375 105.046607 
" clip-path="url(#pe25885e0d7)" style="fill: none; stroke: #bbbbbb; stroke-opacity: 0.15; stroke-width: 0.3; stroke-linecap: square"/>
     </g>
     <g id="line2d_100">
      <g>
       <use xlink:href="#m6b33aa73b1" x="39.30375" y="105.046607" style="stroke: #000000; stroke-width: 0.6"/>
      </g>
     </g>
    </g>
    <g id="ytick_29">
     <g id="line2d_101">
      <path d="M 39.30375 97.223234 
L 563.46375 97.223234 
" clip-path="url(#pe25885e0d7)" style="fill: none; stroke: #bbbbbb; stroke-opacity: 0.15; stroke-width: 0.3; stroke-linecap: square"/>
     </g>
     <g id="line2d_102">
      <g>
       <use xlink:href="#m6b33aa73b1" x="39.30375" y="97.223234" style="stroke: #000000; stroke-width: 0.6"/>
      </g>
     </g>
    </g>
    <g id="ytick_30">
     <g id="line2d_103">
      <path d="M 39.30375 81.576488 
L 563.46375 81.576488 
" clip-path="url(#pe25885e0d7)" style="fill: none; stroke: #bbbbbb; stroke-opacity: 0.15; stroke-width: 0.3; stroke-linecap: square"/>
     </g>
     <g id="line2d_104">
      <g>
       <use xlink:href="#m6b33aa73b1" x="39.30375" y="81.576488" style="stroke: #000000; stroke-width: 0.6"/>
      </g>
     </g>
    </g>
    <g id="ytick_31">
     <g id="line2d_105">
      <path d="M 39.30375 73.753115 
L 563.46375 73.753115 
" clip-path="url(#pe25885e0d7)" style="fill: none; stroke: #bbbbbb; stroke-opacity: 0.15; stroke-width: 0.3; stroke-linecap: square"/>
     </g>
     <g id="line2d_106">
      <g>
       <use xlink:href="#m6b33aa73b1" x="39.30375" y="73.753115" style="stroke: #000000; stroke-width: 0.6"/>
      </g>
     </g>
    </g>
    <g id="ytick_32">
     <g id="line2d_107">
      <path d="M 39.30375 65.929742 
L 563.46375 65.929742 
" clip-path="url(#pe25885e0d7)" style="fill: none; stroke: #bbbbbb; stroke-opacity: 0.15; stroke-width: 0.3; stroke-linecap: square"/>
     </g>
     <g id="line2d_108">
      <g>
       <use xlink:href="#m6b33aa73b1" x="39.30375" y="65.929742" style="stroke: #000000; stroke-width: 0.6"/>
      </g>
     </g>
    </g>
    <g id="ytick_33">
     <g id="line2d_109">
      <path d="M 39.30375 58.106369 
L 563.46375 58.106369 
" clip-path="url(#pe25885e0d7)" style="fill: none; stroke: #bbbbbb; stroke-opacity: 0.15; stroke-width: 0.3; stroke-linecap: square"/>
     </g>
     <g id="line2d_110">
      <g>
       <use xlink:href="#m6b33aa73b1" x="39.30375" y="58.106369" style="stroke: #000000; stroke-width: 0.6"/>
      </g>
     </g>
    </g>
    <g id="ytick_34">
     <g id="line2d_111">
      <path d="M 39.30375 42.459623 
L 563.46375 42.459623 
" clip-path="url(#pe25885e0d7)" style="fill: none; stroke: #bbbbbb; stroke-opacity: 0.15; stroke-width: 0.3; stroke-linecap: square"/>
     </g>
     <g id="line2d_112">
      <g>
       <use xlink:href="#m6b33aa73b1" x="39.30375" y="42.459623" style="stroke: #000000; stroke-width: 0.6"/>
      </g>
     </g>
    </g>
    <g id="ytick_35">
     <g id="line2d_113">
      <path d="M 39.30375 34.63625 
L 563.46375 34.63625 
" clip-path="url(#pe25885e0d7)" style="fill: none; stroke: #bbbbbb; stroke-opacity: 0.15; stroke-width: 0.3; stroke-linecap: square"/>
     </g>
     <g id="line2d_114">
      <g>
       <use xlink:href="#m6b33aa73b1" x="39.30375" y="34.63625" style="stroke: #000000; stroke-width: 0.6"/>
      </g>
     </g>
    </g>
    <g id="ytick_36">
     <g id="line2d_115">
      <path d="M 39.30375 26.812877 
L 563.46375 26.812877 
" clip-path="url(#pe25885e0d7)" style="fill: none; stroke: #bbbbbb; stroke-opacity: 0.15; stroke-width: 0.3; stroke-linecap: square"/>
     </g>
     <g id="line2d_116">
      <g>
       <use xlink:href="#m6b33aa73b1" x="39.30375" y="26.812877" style="stroke: #000000; stroke-width: 0.6"/>
      </g>
     </g>
    </g>
    <g id="ytick_37">
     <g id="line2d_117">
      <path d="M 39.30375 18.989504 
L 563.46375 18.989504 
" clip-path="url(#pe25885e0d7)" style="fill: none; stroke: #bbbbbb; stroke-opacity: 0.15; stroke-width: 0.3; stroke-linecap: square"/>
     </g>
     <g id="line2d_118">
      <g>
       <use xlink:href="#m6b33aa73b1" x="39.30375" y="18.989504" style="stroke: #000000; stroke-width: 0.6"/>
      </g>
     </g>
    </g>
    <g id="text_16">
     <!-- absolute val MSE -->
     <g transform="translate(13.27875 185.460125) rotate(-90) scale(0.08 -0.08)">
      <defs>
       <path id="DejaVuSans-62" d="M 3116 1747 
Q 3116 2381 2855 2742 
Q 2594 3103 2138 3103 
Q 1681 3103 1420 2742 
Q 1159 2381 1159 1747 
Q 1159 1113 1420 752 
Q 1681 391 2138 391 
Q 2594 391 2855 752 
Q 3116 1113 3116 1747 
z
M 1159 2969 
Q 1341 3281 1617 3432 
Q 1894 3584 2278 3584 
Q 2916 3584 3314 3078 
Q 3713 2572 3713 1747 
Q 3713 922 3314 415 
Q 2916 -91 2278 -91 
Q 1894 -91 1617 61 
Q 1341 213 1159 525 
L 1159 0 
L 581 0 
L 581 4863 
L 1159 4863 
L 1159 2969 
z
" transform="scale(0.015625)"/>
       <path id="DejaVuSans-6f" d="M 1959 3097 
Q 1497 3097 1228 2736 
Q 959 2375 959 1747 
Q 959 1119 1226 758 
Q 1494 397 1959 397 
Q 2419 397 2687 759 
Q 2956 1122 2956 1747 
Q 2956 2369 2687 2733 
Q 2419 3097 1959 3097 
z
M 1959 3584 
Q 2709 3584 3137 3096 
Q 3566 2609 3566 1747 
Q 3566 888 3137 398 
Q 2709 -91 1959 -91 
Q 1206 -91 779 398 
Q 353 888 353 1747 
Q 353 2609 779 3096 
Q 1206 3584 1959 3584 
z
" transform="scale(0.015625)"/>
       <path id="DejaVuSans-6c" d="M 603 4863 
L 1178 4863 
L 1178 0 
L 603 0 
L 603 4863 
z
" transform="scale(0.015625)"/>
       <path id="DejaVuSans-75" d="M 544 1381 
L 544 3500 
L 1119 3500 
L 1119 1403 
Q 1119 906 1312 657 
Q 1506 409 1894 409 
Q 2359 409 2629 706 
Q 2900 1003 2900 1516 
L 2900 3500 
L 3475 3500 
L 3475 0 
L 2900 0 
L 2900 538 
Q 2691 219 2414 64 
Q 2138 -91 1772 -91 
Q 1169 -91 856 284 
Q 544 659 544 1381 
z
M 1991 3584 
L 1991 3584 
z
" transform="scale(0.015625)"/>
       <path id="DejaVuSans-76" d="M 191 3500 
L 800 3500 
L 1894 563 
L 2988 3500 
L 3597 3500 
L 2284 0 
L 1503 0 
L 191 3500 
z
" transform="scale(0.015625)"/>
       <path id="DejaVuSans-4d" d="M 628 4666 
L 1569 4666 
L 2759 1491 
L 3956 4666 
L 4897 4666 
L 4897 0 
L 4281 0 
L 4281 4097 
L 3078 897 
L 2444 897 
L 1241 4097 
L 1241 0 
L 628 0 
L 628 4666 
z
" transform="scale(0.015625)"/>
       <path id="DejaVuSans-53" d="M 3425 4513 
L 3425 3897 
Q 3066 4069 2747 4153 
Q 2428 4238 2131 4238 
Q 1616 4238 1336 4038 
Q 1056 3838 1056 3469 
Q 1056 3159 1242 3001 
Q 1428 2844 1947 2747 
L 2328 2669 
Q 3034 2534 3370 2195 
Q 3706 1856 3706 1288 
Q 3706 609 3251 259 
Q 2797 -91 1919 -91 
Q 1588 -91 1214 -16 
Q 841 59 441 206 
L 441 856 
Q 825 641 1194 531 
Q 1563 422 1919 422 
Q 2459 422 2753 634 
Q 3047 847 3047 1241 
Q 3047 1584 2836 1778 
Q 2625 1972 2144 2069 
L 1759 2144 
Q 1053 2284 737 2584 
Q 422 2884 422 3419 
Q 422 4038 858 4394 
Q 1294 4750 2059 4750 
Q 2388 4750 2728 4690 
Q 3069 4631 3425 4513 
z
" transform="scale(0.015625)"/>
       <path id="DejaVuSans-45" d="M 628 4666 
L 3578 4666 
L 3578 4134 
L 1259 4134 
L 1259 2753 
L 3481 2753 
L 3481 2222 
L 1259 2222 
L 1259 531 
L 3634 531 
L 3634 0 
L 628 0 
L 628 4666 
z
" transform="scale(0.015625)"/>
      </defs>
      <use xlink:href="#DejaVuSans-61"/>
      <use xlink:href="#DejaVuSans-62" transform="translate(61.279297 0)"/>
      <use xlink:href="#DejaVuSans-73" transform="translate(124.755859 0)"/>
      <use xlink:href="#DejaVuSans-6f" transform="translate(176.855469 0)"/>
      <use xlink:href="#DejaVuSans-6c" transform="translate(238.037109 0)"/>
      <use xlink:href="#DejaVuSans-75" transform="translate(265.820312 0)"/>
      <use xlink:href="#DejaVuSans-74" transform="translate(329.199219 0)"/>
      <use xlink:href="#DejaVuSans-65" transform="translate(368.408203 0)"/>
      <use xlink:href="#DejaVuSans-20" transform="translate(429.931641 0)"/>
      <use xlink:href="#DejaVuSans-76" transform="translate(461.71875 0)"/>
      <use xlink:href="#DejaVuSans-61" transform="translate(520.898438 0)"/>
      <use xlink:href="#DejaVuSans-6c" transform="translate(582.177734 0)"/>
      <use xlink:href="#DejaVuSans-20" transform="translate(609.960938 0)"/>
      <use xlink:href="#DejaVuSans-4d" transform="translate(641.748047 0)"/>
      <use xlink:href="#DejaVuSans-53" transform="translate(728.027344 0)"/>
      <use xlink:href="#DejaVuSans-45" transform="translate(791.503906 0)"/>
     </g>
    </g>
   </g>
   <g id="line2d_119">
    <path d="M 63.129205 240.104358 
L 67.422079 243.261237 
L 71.714954 248.32344 
L 76.007829 254.730299 
L 80.300703 261.025805 
L 84.593578 265.937311 
L 88.886453 269.933947 
L 93.179327 273.003505 
L 97.472202 274.850871 
L 101.765077 276.092307 
L 106.057951 276.958961 
L 110.350826 277.871073 
L 114.643701 278.828155 
L 118.936576 279.74736 
L 123.22945 280.298685 
L 127.522325 280.748747 
L 131.8152 280.94917 
L 136.108074 281.029186 
L 140.400949 281.096598 
L 144.693824 281.072012 
L 148.986698 280.940981 
L 153.279573 281.103338 
L 157.572448 281.151739 
L 161.865322 281.22786 
L 166.158197 281.254675 
L 170.451072 281.211892 
L 174.743947 281.098949 
L 179.036821 281.270464 
L 183.329696 281.304935 
L 187.622571 281.352115 
L 191.915445 281.287194 
L 196.20832 281.358635 
L 200.501195 281.315275 
L 204.794069 281.373711 
L 209.086944 281.412817 
L 213.379819 281.416138 
L 217.672693 281.41525 
L 221.965568 281.452938 
L 226.258443 281.453635 
L 230.551318 281.514511 
L 234.844192 281.499667 
L 239.137067 281.519931 
L 243.429942 281.466622 
L 247.722816 281.512294 
L 252.015691 281.55909 
L 256.308566 281.525866 
L 260.60144 281.540297 
L 264.894315 281.576911 
L 269.18719 281.610109 
L 273.480064 281.589504 
L 277.772939 281.655308 
L 282.065814 281.684549 
L 286.358689 281.708978 
L 290.651563 281.715966 
L 294.944438 281.730674 
L 299.237313 281.758842 
L 303.530187 281.756832 
L 307.823062 281.793976 
L 312.115937 281.815123 
L 316.408811 281.820074 
L 320.701686 281.850902 
L 324.994561 281.833796 
L 329.287436 281.848374 
L 333.58031 281.873539 
L 337.873185 281.913248 
L 342.16606 281.905238 
L 346.458934 281.952132 
L 350.751809 281.947685 
L 355.044684 281.977077 
L 359.337558 281.998413 
L 363.630433 282.005603 
L 367.923308 282.040416 
L 372.216182 282.034237 
L 376.509057 282.056567 
L 380.801932 282.068669 
L 385.094807 282.053369 
L 389.387681 282.098083 
L 393.680556 282.102517 
L 397.973431 282.099822 
L 402.266305 282.125512 
L 406.55918 282.084594 
L 410.852055 282.125525 
L 415.144929 282.140505 
L 419.437804 282.156407 
L 423.730679 282.13529 
L 428.023553 282.144538 
L 432.316428 282.166428 
L 436.609303 282.123235 
L 440.902178 282.167106 
L 445.195052 282.176746 
L 449.487927 282.181896 
L 453.780802 282.18696 
L 458.073676 282.199835 
L 462.366551 282.193108 
L 466.659426 282.194273 
L 470.9523 282.203744 
L 475.245175 282.217189 
L 479.53805 282.192511 
L 483.830924 282.219178 
L 488.123799 282.211671 
L 492.416674 282.227292 
L 496.709549 282.220627 
L 501.002423 282.220621 
L 505.295298 282.238267 
L 509.588173 282.230946 
L 513.881047 282.225198 
L 518.173922 282.228218 
L 522.466797 282.229563 
L 526.759671 282.238732 
L 531.052546 282.242445 
L 535.345421 282.237681 
L 539.638295 282.246545 
" clip-path="url(#pe25885e0d7)" style="fill: none; stroke: #000000; stroke-opacity: 0.85; stroke-width: 1.5; stroke-linecap: square"/>
   </g>
   <g id="line2d_120">
    <path d="M 63.129205 194.329865 
L 67.422079 197.197696 
L 71.714954 201.794495 
L 76.007829 207.555057 
L 80.300703 213.781238 
L 84.593578 220.626119 
L 88.886453 228.925006 
L 93.179327 239.066777 
L 97.472202 250.303757 
L 101.765077 261.209155 
L 106.057951 268.607903 
L 110.350826 272.338659 
L 114.643701 274.508857 
L 118.936576 276.314382 
L 123.22945 277.551411 
L 127.522325 278.446644 
L 131.8152 278.972394 
L 136.108074 279.286739 
L 140.400949 279.53609 
L 144.693824 279.704968 
L 148.986698 279.689395 
L 153.279573 279.922346 
L 157.572448 280.011365 
L 161.865322 280.116566 
L 166.158197 280.204283 
L 170.451072 280.244789 
L 174.743947 280.20417 
L 179.036821 280.339881 
L 183.329696 280.294089 
L 187.622571 280.375233 
L 191.915445 280.436911 
L 196.20832 280.516168 
L 200.501195 280.479766 
L 204.794069 280.488803 
L 209.086944 280.581602 
L 213.379819 280.609359 
L 217.672693 280.616661 
L 221.965568 280.627853 
L 226.258443 280.688675 
L 230.551318 280.720014 
L 234.844192 280.675792 
L 239.137067 280.673291 
L 243.429942 280.688738 
L 247.722816 280.746192 
L 252.015691 280.677095 
L 256.308566 280.820693 
L 260.60144 280.812907 
L 264.894315 280.824525 
L 269.18719 280.820426 
L 273.480064 280.888418 
L 277.772939 280.883205 
L 282.065814 280.924843 
L 286.358689 280.938808 
L 290.651563 280.931864 
L 294.944438 280.947455 
L 299.237313 280.958304 
L 303.530187 280.946066 
L 307.823062 280.988629 
L 312.115937 281.023007 
L 316.408811 281.010542 
L 320.701686 281.021188 
L 324.994561 280.927888 
L 329.287436 281.010046 
L 333.58031 281.009786 
L 337.873185 281.048931 
L 342.16606 281.064487 
L 346.458934 281.097792 
L 350.751809 281.105371 
L 355.044684 281.116434 
L 359.337558 281.113024 
L 363.630433 281.112947 
L 367.923308 281.148172 
L 372.216182 281.15261 
L 376.509057 281.149557 
L 380.801932 281.173347 
L 385.094807 281.155616 
L 389.387681 281.206253 
L 393.680556 281.208558 
L 397.973431 281.225291 
L 402.266305 281.238527 
L 406.55918 281.193576 
L 410.852055 281.212658 
L 415.144929 281.257523 
L 419.437804 281.261477 
L 423.730679 281.246178 
L 428.023553 281.260941 
L 432.316428 281.285191 
L 436.609303 281.256179 
L 440.902178 281.291272 
L 445.195052 281.29317 
L 449.487927 281.303539 
L 453.780802 281.311067 
L 458.073676 281.318822 
L 462.366551 281.328302 
L 466.659426 281.315026 
L 470.9523 281.340442 
L 475.245175 281.347934 
L 479.53805 281.332435 
L 483.830924 281.356332 
L 488.123799 281.349652 
L 492.416674 281.372787 
L 496.709549 281.375121 
L 501.002423 281.369353 
L 505.295298 281.392392 
L 509.588173 281.383151 
L 513.881047 281.385542 
L 518.173922 281.385633 
L 522.466797 281.391795 
L 526.759671 281.401485 
L 531.052546 281.412489 
L 535.345421 281.411039 
L 539.638295 281.422844 
" clip-path="url(#pe25885e0d7)" style="fill: none; stroke: #cb6020; stroke-opacity: 0.85; stroke-width: 1.5; stroke-linecap: square"/>
   </g>
   <g id="line2d_121">
    <path d="M 63.129205 193.370824 
L 67.422079 193.400098 
L 71.714954 193.443226 
L 76.007829 193.639748 
L 80.300703 194.08253 
L 84.593578 194.944573 
L 88.886453 196.305932 
L 93.179327 198.311769 
L 97.472202 201.118513 
L 101.765077 205.089625 
L 106.057951 210.458829 
L 110.350826 217.188808 
L 114.643701 224.559033 
L 118.936576 231.302858 
L 123.22945 235.992999 
L 127.522325 238.224812 
L 131.8152 238.889079 
L 136.108074 239.025989 
L 140.400949 239.049428 
L 144.693824 239.053518 
L 148.986698 239.078267 
L 153.279573 239.066604 
L 157.572448 239.041608 
L 161.865322 239.076059 
L 166.158197 239.055404 
L 170.451072 239.021812 
L 174.743947 239.004198 
L 179.036821 239.094197 
L 183.329696 239.092263 
L 187.622571 239.084637 
L 191.915445 239.066211 
L 196.20832 239.063789 
L 200.501195 239.063627 
L 204.794069 239.015091 
L 209.086944 239.089621 
L 213.379819 239.087158 
L 217.672693 239.07295 
L 221.965568 239.072934 
L 226.258443 239.087589 
L 230.551318 239.057617 
L 234.844192 239.081816 
L 239.137067 239.050653 
L 243.429942 239.084806 
L 247.722816 239.091032 
L 252.015691 239.086189 
L 256.308566 239.066784 
L 260.60144 239.082291 
L 264.894315 239.094304 
L 269.18719 239.080133 
L 273.480064 239.088605 
L 277.772939 239.088024 
L 282.065814 239.083484 
L 286.358689 239.078715 
L 290.651563 239.089855 
L 294.944438 239.089184 
L 299.237313 239.060071 
L 303.530187 239.089875 
L 307.823062 239.091855 
L 312.115937 239.094162 
L 316.408811 239.085978 
L 320.701686 239.092545 
L 324.994561 239.051261 
L 329.287436 239.096545 
L 333.58031 239.10378 
L 337.873185 239.102351 
L 342.16606 239.103455 
L 346.458934 239.097823 
L 350.751809 239.10129 
L 355.044684 239.089274 
L 359.337558 239.092012 
L 363.630433 239.063048 
L 367.923308 239.095428 
L 372.216182 239.093754 
L 376.509057 239.063136 
L 380.801932 239.099259 
L 385.094807 239.096766 
L 389.387681 239.093116 
L 393.680556 239.101038 
L 397.973431 239.092797 
L 402.266305 239.09984 
L 406.55918 239.103789 
L 410.852055 239.098494 
L 415.144929 239.099672 
L 419.437804 239.105934 
L 423.730679 239.098118 
L 428.023553 239.104913 
L 432.316428 239.100322 
L 436.609303 239.097346 
L 440.902178 239.105486 
L 445.195052 239.10195 
L 449.487927 239.099631 
L 453.780802 239.103068 
L 458.073676 239.100431 
L 462.366551 239.106122 
L 466.659426 239.09 
L 470.9523 239.096972 
L 475.245175 239.104178 
L 479.53805 239.098907 
L 483.830924 239.104139 
L 488.123799 239.104666 
L 492.416674 239.103419 
L 496.709549 239.098792 
L 501.002423 239.104841 
L 505.295298 239.103815 
L 509.588173 239.104958 
L 513.881047 239.09865 
L 518.173922 239.103639 
L 522.466797 239.102053 
L 526.759671 239.10202 
L 531.052546 239.103913 
L 535.345421 239.097197 
L 539.638295 239.104748 
" clip-path="url(#pe25885e0d7)" style="fill: none; stroke: #a50f15; stroke-opacity: 0.85; stroke-width: 1.5; stroke-linecap: square"/>
   </g>
   <g id="line2d_122">
    <path d="M 63.129205 20.297455 
L 67.422079 20.315184 
L 71.714954 20.335178 
L 76.007829 20.472555 
L 80.300703 20.974395 
L 84.593578 22.271667 
L 88.886453 24.472805 
L 93.179327 27.423805 
L 97.472202 31.250255 
L 101.765077 36.102052 
L 106.057951 41.942791 
L 110.350826 48.950352 
L 114.643701 57.189628 
L 118.936576 66.383595 
L 123.22945 76.091331 
L 127.522325 86.205009 
L 131.8152 96.69297 
L 136.108074 107.886157 
L 140.400949 120.574824 
L 144.693824 136.114875 
L 148.986698 154.953687 
L 153.279573 173.951094 
L 157.572448 188.055226 
L 161.865322 194.197382 
L 166.158197 196.692778 
L 170.451072 198.869173 
L 174.743947 201.036257 
L 179.036821 203.168737 
L 183.329696 205.048169 
L 187.622571 206.531009 
L 191.915445 207.676795 
L 196.20832 208.434664 
L 200.501195 208.949297 
L 204.794069 209.162363 
L 209.086944 209.237955 
L 213.379819 209.217973 
L 217.672693 209.245696 
L 221.965568 209.241059 
L 226.258443 209.227727 
L 230.551318 209.232024 
L 234.844192 209.233636 
L 239.137067 209.226342 
L 243.429942 209.21792 
L 247.722816 209.23563 
L 252.015691 209.205475 
L 256.308566 209.241206 
L 260.60144 209.236961 
L 264.894315 209.247038 
L 269.18719 209.235569 
L 273.480064 209.250066 
L 277.772939 209.246796 
L 282.065814 209.220991 
L 286.358689 209.229986 
L 290.651563 209.250069 
L 294.944438 209.251025 
L 299.237313 209.239365 
L 303.530187 209.227151 
L 307.823062 209.241052 
L 312.115937 209.228679 
L 316.408811 209.228007 
L 320.701686 209.250658 
L 324.994561 209.238887 
L 329.287436 209.245191 
L 333.58031 209.256413 
L 337.873185 209.247575 
L 342.16606 209.242985 
L 346.458934 209.243062 
L 350.751809 209.238661 
L 355.044684 209.233941 
L 359.337558 209.248961 
L 363.630433 209.253937 
L 367.923308 209.26049 
L 372.216182 209.257269 
L 376.509057 209.245255 
L 380.801932 209.256155 
L 385.094807 209.242787 
L 389.387681 209.251902 
L 393.680556 209.256508 
L 397.973431 209.263291 
L 402.266305 209.246577 
L 406.55918 209.264346 
L 410.852055 209.256188 
L 415.144929 209.256048 
L 419.437804 209.255296 
L 423.730679 209.25851 
L 428.023553 209.24849 
L 432.316428 209.252871 
L 436.609303 209.255671 
L 440.902178 209.261688 
L 445.195052 209.257154 
L 449.487927 209.263657 
L 453.780802 209.257502 
L 458.073676 209.261304 
L 462.366551 209.26176 
L 466.659426 209.26319 
L 470.9523 209.260543 
L 475.245175 209.261656 
L 479.53805 209.262085 
L 483.830924 209.262271 
L 488.123799 209.262785 
L 492.416674 209.261548 
L 496.709549 209.265241 
L 501.002423 209.265583 
L 505.295298 209.266247 
L 509.588173 209.263633 
L 513.881047 209.261888 
L 518.173922 209.264705 
L 522.466797 209.263506 
L 526.759671 209.264197 
L 531.052546 209.261354 
L 535.345421 209.265252 
L 539.638295 209.262903 
" clip-path="url(#pe25885e0d7)" style="fill: none; stroke: #2171b5; stroke-opacity: 0.85; stroke-width: 1.5; stroke-linecap: square"/>
   </g>
   <g id="line2d_123">
    <path d="M 63.129205 20.297455 
L 67.422079 20.315184 
L 71.714954 20.335178 
L 76.007829 20.472555 
L 80.300703 20.974395 
L 84.593578 22.271667 
L 88.886453 24.472805 
L 93.179327 27.423805 
L 97.472202 31.250254 
L 101.765077 36.102052 
L 106.057951 41.942791 
L 110.350826 48.950352 
L 114.643701 57.189628 
L 118.936576 66.383595 
L 123.22945 76.091331 
L 127.522325 86.205009 
L 131.8152 96.692971 
L 136.108074 107.886157 
L 140.400949 120.574824 
L 144.693824 136.114875 
L 148.986698 154.953687 
L 153.279573 173.951094 
L 157.572448 188.055225 
L 161.865322 194.197381 
L 166.158197 196.692779 
L 170.451072 198.869169 
L 174.743947 201.03627 
L 179.036821 203.168666 
L 183.329696 205.050445 
L 187.622571 206.548005 
L 191.915445 207.720771 
L 196.20832 208.452722 
L 200.501195 208.812504 
L 204.794069 209.04664 
L 209.086944 209.159125 
L 213.379819 209.224894 
L 217.672693 209.229033 
L 221.965568 209.235431 
L 226.258443 209.225662 
L 230.551318 209.187287 
L 234.844192 209.206988 
L 239.137067 209.244693 
L 243.429942 209.23284 
L 247.722816 209.248512 
L 252.015691 209.231593 
L 256.308566 209.247934 
L 260.60144 209.244465 
L 264.894315 209.23548 
L 269.18719 209.242773 
L 273.480064 209.249752 
L 277.772939 209.251124 
L 282.065814 209.221884 
L 286.358689 209.233481 
L 290.651563 209.225601 
L 294.944438 209.24852 
L 299.237313 209.220627 
L 303.530187 209.232966 
L 307.823062 209.22991 
L 312.115937 209.235548 
L 316.408811 209.256312 
L 320.701686 209.240369 
L 324.994561 209.246789 
L 329.287436 209.248762 
L 333.58031 209.25101 
L 337.873185 209.237391 
L 342.16606 209.24741 
L 346.458934 209.237511 
L 350.751809 209.249423 
L 355.044684 209.241574 
L 359.337558 209.252493 
L 363.630433 209.256864 
L 367.923308 209.254017 
L 372.216182 209.254688 
L 376.509057 209.250794 
L 380.801932 209.254515 
L 385.094807 209.237168 
L 389.387681 209.246809 
L 393.680556 209.252706 
L 397.973431 209.261259 
L 402.266305 209.248166 
L 406.55918 209.263646 
L 410.852055 209.251496 
L 415.144929 209.260888 
L 419.437804 209.256245 
L 423.730679 209.259872 
L 428.023553 209.253171 
L 432.316428 209.248332 
L 436.609303 209.260727 
L 440.902178 209.260711 
L 445.195052 209.256028 
L 449.487927 209.263224 
L 453.780802 209.257198 
L 458.073676 209.262133 
L 462.366551 209.261198 
L 466.659426 209.262045 
L 470.9523 209.261996 
L 475.245175 209.261584 
L 479.53805 209.261817 
L 483.830924 209.262635 
L 488.123799 209.26355 
L 492.416674 209.261893 
L 496.709549 209.265535 
L 501.002423 209.265476 
L 505.295298 209.266588 
L 509.588173 209.263478 
L 513.881047 209.26202 
L 518.173922 209.264688 
L 522.466797 209.263957 
L 526.759671 209.264058 
L 531.052546 209.261525 
L 535.345421 209.265389 
L 539.638295 209.262794 
" clip-path="url(#pe25885e0d7)" style="fill: none; stroke: #08306b; stroke-opacity: 0.85; stroke-width: 1.5; stroke-linecap: square"/>
   </g>
   <g id="line2d_124">
    <path d="M 63.129205 107.786481 
L 67.422079 107.791515 
L 71.714954 107.820247 
L 76.007829 107.913513 
L 80.300703 108.235554 
L 84.593578 108.879734 
L 88.886453 109.8981 
L 93.179327 111.372735 
L 97.472202 113.301702 
L 101.765077 115.656012 
L 106.057951 118.549084 
L 110.350826 121.880881 
L 114.643701 125.504298 
L 118.936576 129.360395 
L 123.22945 133.290249 
L 127.522325 137.066288 
L 131.8152 140.687303 
L 136.108074 144.149329 
L 140.400949 147.597987 
L 144.693824 151.387821 
L 148.986698 155.178533 
L 153.279573 158.952119 
L 157.572448 163.065429 
L 161.865322 167.761837 
L 166.158197 172.656848 
L 170.451072 177.756745 
L 174.743947 182.683098 
L 179.036821 187.16505 
L 183.329696 190.832474 
L 187.622571 193.498829 
L 191.915445 195.102234 
L 196.20832 195.875762 
L 200.501195 196.10751 
L 204.794069 196.206191 
L 209.086944 196.221814 
L 213.379819 196.208784 
L 217.672693 196.195721 
L 221.965568 196.22874 
L 226.258443 196.20346 
L 230.551318 196.216717 
L 234.844192 196.195979 
L 239.137067 196.20278 
L 243.429942 196.229886 
L 247.722816 196.224864 
L 252.015691 196.196299 
L 256.308566 196.228467 
L 260.60144 196.214295 
L 264.894315 196.230302 
L 269.18719 196.222543 
L 273.480064 196.221907 
L 277.772939 196.23187 
L 282.065814 196.237876 
L 286.358689 196.228381 
L 290.651563 196.212001 
L 294.944438 196.239904 
L 299.237313 196.221275 
L 303.530187 196.231574 
L 307.823062 196.219656 
L 312.115937 196.201005 
L 316.408811 196.23342 
L 320.701686 196.232618 
L 324.994561 196.217375 
L 329.287436 196.215731 
L 333.58031 196.230813 
L 337.873185 196.226621 
L 342.16606 196.230041 
L 346.458934 196.228814 
L 350.751809 196.234635 
L 355.044684 196.226928 
L 359.337558 196.215294 
L 363.630433 196.230316 
L 367.923308 196.230645 
L 372.216182 196.229564 
L 376.509057 196.235045 
L 380.801932 196.236051 
L 385.094807 196.236095 
L 389.387681 196.233891 
L 393.680556 196.237428 
L 397.973431 196.237004 
L 402.266305 196.238895 
L 406.55918 196.241931 
L 410.852055 196.241453 
L 415.144929 196.23773 
L 419.437804 196.24421 
L 423.730679 196.230011 
L 428.023553 196.243628 
L 432.316428 196.238386 
L 436.609303 196.236692 
L 440.902178 196.245031 
L 445.195052 196.238931 
L 449.487927 196.238129 
L 453.780802 196.24325 
L 458.073676 196.23673 
L 462.366551 196.244067 
L 466.659426 196.239814 
L 470.9523 196.240437 
L 475.245175 196.241583 
L 479.53805 196.239187 
L 483.830924 196.243683 
L 488.123799 196.240918 
L 492.416674 196.242515 
L 496.709549 196.245554 
L 501.002423 196.243742 
L 505.295298 196.242138 
L 509.588173 196.239302 
L 513.881047 196.242972 
L 518.173922 196.241546 
L 522.466797 196.244017 
L 526.759671 196.242521 
L 531.052546 196.243229 
L 535.345421 196.244474 
L 539.638295 196.242804 
" clip-path="url(#pe25885e0d7)" style="fill: none; stroke: #26c6da; stroke-opacity: 0.85; stroke-width: 1.5; stroke-linecap: square"/>
   </g>
   <g id="line2d_125">
    <path d="M 63.129205 107.786481 
L 67.422079 107.791515 
L 71.714954 107.820247 
L 76.007829 107.913513 
L 80.300703 108.235554 
L 84.593578 108.879734 
L 88.886453 109.8981 
L 93.179327 111.372735 
L 97.472202 113.301702 
L 101.765077 115.656012 
L 106.057951 118.549084 
L 110.350826 121.880881 
L 114.643701 125.504298 
L 118.936576 129.360395 
L 123.22945 133.290249 
L 127.522325 137.066288 
L 131.8152 140.687303 
L 136.108074 144.149329 
L 140.400949 147.597987 
L 144.693824 151.387821 
L 148.986698 155.178533 
L 153.279573 158.952119 
L 157.572448 163.065429 
L 161.865322 167.761837 
L 166.158197 172.656848 
L 170.451072 177.756745 
L 174.743947 182.683098 
L 179.036821 187.16505 
L 183.329696 190.832474 
L 187.622571 193.498829 
L 191.915445 195.102234 
L 196.20832 195.875762 
L 200.501195 196.10751 
L 204.794069 196.206191 
L 209.086944 196.221814 
L 213.379819 196.208785 
L 217.672693 196.195725 
L 221.965568 196.228185 
L 226.258443 196.20505 
L 230.551318 196.215662 
L 234.844192 196.199094 
L 239.137067 196.202394 
L 243.429942 196.233466 
L 247.722816 196.235674 
L 252.015691 196.19956 
L 256.308566 196.232599 
L 260.60144 196.22119 
L 264.894315 196.220974 
L 269.18719 196.220553 
L 273.480064 196.220656 
L 277.772939 196.221356 
L 282.065814 196.22253 
L 286.358689 196.231791 
L 290.651563 196.226674 
L 294.944438 196.213429 
L 299.237313 196.227978 
L 303.530187 196.229051 
L 307.823062 196.229283 
L 312.115937 196.208347 
L 316.408811 196.223532 
L 320.701686 196.233754 
L 324.994561 196.222251 
L 329.287436 196.215671 
L 333.58031 196.229772 
L 337.873185 196.219799 
L 342.16606 196.223841 
L 346.458934 196.234145 
L 350.751809 196.234459 
L 355.044684 196.222348 
L 359.337558 196.218632 
L 363.630433 196.231778 
L 367.923308 196.229753 
L 372.216182 196.229331 
L 376.509057 196.235181 
L 380.801932 196.236063 
L 385.094807 196.234262 
L 389.387681 196.234126 
L 393.680556 196.238444 
L 397.973431 196.23554 
L 402.266305 196.239353 
L 406.55918 196.242534 
L 410.852055 196.240587 
L 415.144929 196.237588 
L 419.437804 196.245434 
L 423.730679 196.232255 
L 428.023553 196.244211 
L 432.316428 196.239113 
L 436.609303 196.23574 
L 440.902178 196.244312 
L 445.195052 196.239317 
L 449.487927 196.238328 
L 453.780802 196.242873 
L 458.073676 196.236763 
L 462.366551 196.244169 
L 466.659426 196.240145 
L 470.9523 196.241149 
L 475.245175 196.242935 
L 479.53805 196.239704 
L 483.830924 196.244638 
L 488.123799 196.241455 
L 492.416674 196.243398 
L 496.709549 196.245354 
L 501.002423 196.243979 
L 505.295298 196.242771 
L 509.588173 196.238691 
L 513.881047 196.242695 
L 518.173922 196.24045 
L 522.466797 196.243127 
L 526.759671 196.241277 
L 531.052546 196.242856 
L 535.345421 196.24449 
L 539.638295 196.242613 
" clip-path="url(#pe25885e0d7)" style="fill: none; stroke: #0e6655; stroke-opacity: 0.85; stroke-width: 1.5; stroke-linecap: square"/>
   </g>
   <g id="patch_3">
    <path d="M 39.30375 295.344 
L 39.30375 7.2 
" style="fill: none; stroke: #000000; stroke-width: 0.8; stroke-linejoin: miter; stroke-linecap: square"/>
   </g>
   <g id="patch_4">
    <path d="M 39.30375 295.344 
L 563.46375 295.344 
" style="fill: none; stroke: #000000; stroke-width: 0.8; stroke-linejoin: miter; stroke-linecap: square"/>
   </g>
   <g id="line2d_126">
    <path d="M 71.714954 248.32344 
L 101.765077 276.092307 
L 131.8152 280.94917 
L 161.865322 281.22786 
L 191.915445 281.287194 
L 221.965568 281.452938 
L 252.015691 281.55909 
L 282.065814 281.684549 
L 312.115937 281.815123 
L 342.16606 281.905238 
L 372.216182 282.034237 
L 402.266305 282.125512 
L 432.316428 282.166428 
L 462.366551 282.193108 
L 539.638295 282.246545 
" clip-path="url(#pe25885e0d7)" style="fill: none"/>
    <defs>
     <path id="me1a03383bb" d="M -0 3.181981 
L 3.181981 0 
L 0 -3.181981 
L -3.181981 -0 
z
" style="stroke: #000000; stroke-linejoin: miter"/>
    </defs>
    <g clip-path="url(#pe25885e0d7)">
     <use xlink:href="#me1a03383bb" x="71.714954" y="248.32344" style="stroke: #000000; stroke-linejoin: miter"/>
     <use xlink:href="#me1a03383bb" x="101.765077" y="276.092307" style="stroke: #000000; stroke-linejoin: miter"/>
     <use xlink:href="#me1a03383bb" x="131.8152" y="280.94917" style="stroke: #000000; stroke-linejoin: miter"/>
     <use xlink:href="#me1a03383bb" x="161.865322" y="281.22786" style="stroke: #000000; stroke-linejoin: miter"/>
     <use xlink:href="#me1a03383bb" x="191.915445" y="281.287194" style="stroke: #000000; stroke-linejoin: miter"/>
     <use xlink:href="#me1a03383bb" x="221.965568" y="281.452938" style="stroke: #000000; stroke-linejoin: miter"/>
     <use xlink:href="#me1a03383bb" x="252.015691" y="281.55909" style="stroke: #000000; stroke-linejoin: miter"/>
     <use xlink:href="#me1a03383bb" x="282.065814" y="281.684549" style="stroke: #000000; stroke-linejoin: miter"/>
     <use xlink:href="#me1a03383bb" x="312.115937" y="281.815123" style="stroke: #000000; stroke-linejoin: miter"/>
     <use xlink:href="#me1a03383bb" x="342.16606" y="281.905238" style="stroke: #000000; stroke-linejoin: miter"/>
     <use xlink:href="#me1a03383bb" x="372.216182" y="282.034237" style="stroke: #000000; stroke-linejoin: miter"/>
     <use xlink:href="#me1a03383bb" x="402.266305" y="282.125512" style="stroke: #000000; stroke-linejoin: miter"/>
     <use xlink:href="#me1a03383bb" x="432.316428" y="282.166428" style="stroke: #000000; stroke-linejoin: miter"/>
     <use xlink:href="#me1a03383bb" x="462.366551" y="282.193108" style="stroke: #000000; stroke-linejoin: miter"/>
     <use xlink:href="#me1a03383bb" x="539.638295" y="282.246545" style="stroke: #000000; stroke-linejoin: miter"/>
    </g>
   </g>
   <g id="line2d_127">
    <path d="M 80.300703 213.781238 
L 118.936576 276.314382 
L 157.572448 280.011365 
L 196.20832 280.516168 
L 234.844192 280.675792 
L 273.480064 280.888418 
L 312.115937 281.023007 
L 350.751809 281.105371 
L 389.387681 281.206253 
L 428.023553 281.260941 
L 466.659426 281.315026 
L 505.295298 281.392392 
L 539.638295 281.422844 
" clip-path="url(#pe25885e0d7)" style="fill: none"/>
    <defs>
     <path id="mcff807b78a" d="M 0 -2.25 
L -1.948557 -1.125 
L -1.948557 1.125 
L -0 2.25 
L 1.948557 1.125 
L 1.948557 -1.125 
z
" style="stroke: #cb6020; stroke-linejoin: miter"/>
    </defs>
    <g clip-path="url(#pe25885e0d7)">
     <use xlink:href="#mcff807b78a" x="80.300703" y="213.781238" style="fill: #cb6020; stroke: #cb6020; stroke-linejoin: miter"/>
     <use xlink:href="#mcff807b78a" x="118.936576" y="276.314382" style="fill: #cb6020; stroke: #cb6020; stroke-linejoin: miter"/>
     <use xlink:href="#mcff807b78a" x="157.572448" y="280.011365" style="fill: #cb6020; stroke: #cb6020; stroke-linejoin: miter"/>
     <use xlink:href="#mcff807b78a" x="196.20832" y="280.516168" style="fill: #cb6020; stroke: #cb6020; stroke-linejoin: miter"/>
     <use xlink:href="#mcff807b78a" x="234.844192" y="280.675792" style="fill: #cb6020; stroke: #cb6020; stroke-linejoin: miter"/>
     <use xlink:href="#mcff807b78a" x="273.480064" y="280.888418" style="fill: #cb6020; stroke: #cb6020; stroke-linejoin: miter"/>
     <use xlink:href="#mcff807b78a" x="312.115937" y="281.023007" style="fill: #cb6020; stroke: #cb6020; stroke-linejoin: miter"/>
     <use xlink:href="#mcff807b78a" x="350.751809" y="281.105371" style="fill: #cb6020; stroke: #cb6020; stroke-linejoin: miter"/>
     <use xlink:href="#mcff807b78a" x="389.387681" y="281.206253" style="fill: #cb6020; stroke: #cb6020; stroke-linejoin: miter"/>
     <use xlink:href="#mcff807b78a" x="428.023553" y="281.260941" style="fill: #cb6020; stroke: #cb6020; stroke-linejoin: miter"/>
     <use xlink:href="#mcff807b78a" x="466.659426" y="281.315026" style="fill: #cb6020; stroke: #cb6020; stroke-linejoin: miter"/>
     <use xlink:href="#mcff807b78a" x="505.295298" y="281.392392" style="fill: #cb6020; stroke: #cb6020; stroke-linejoin: miter"/>
     <use xlink:href="#mcff807b78a" x="539.638295" y="281.422844" style="fill: #cb6020; stroke: #cb6020; stroke-linejoin: miter"/>
    </g>
   </g>
   <g id="line2d_128">
    <path d="M 88.886453 196.305932 
L 136.108074 239.025989 
L 183.329696 239.092263 
L 230.551318 239.057617 
L 277.772939 239.088024 
L 324.994561 239.051261 
L 372.216182 239.093754 
L 419.437804 239.105934 
L 466.659426 239.09 
L 513.881047 239.09865 
L 539.638295 239.104748 
" clip-path="url(#pe25885e0d7)" style="fill: none"/>
    <defs>
     <path id="mf2b3a1b90b" d="M -2.25 2.25 
L 2.25 2.25 
L 2.25 -2.25 
L -2.25 -2.25 
z
" style="stroke: #a50f15; stroke-linejoin: miter"/>
    </defs>
    <g clip-path="url(#pe25885e0d7)">
     <use xlink:href="#mf2b3a1b90b" x="88.886453" y="196.305932" style="fill: #a50f15; stroke: #a50f15; stroke-linejoin: miter"/>
     <use xlink:href="#mf2b3a1b90b" x="136.108074" y="239.025989" style="fill: #a50f15; stroke: #a50f15; stroke-linejoin: miter"/>
     <use xlink:href="#mf2b3a1b90b" x="183.329696" y="239.092263" style="fill: #a50f15; stroke: #a50f15; stroke-linejoin: miter"/>
     <use xlink:href="#mf2b3a1b90b" x="230.551318" y="239.057617" style="fill: #a50f15; stroke: #a50f15; stroke-linejoin: miter"/>
     <use xlink:href="#mf2b3a1b90b" x="277.772939" y="239.088024" style="fill: #a50f15; stroke: #a50f15; stroke-linejoin: miter"/>
     <use xlink:href="#mf2b3a1b90b" x="324.994561" y="239.051261" style="fill: #a50f15; stroke: #a50f15; stroke-linejoin: miter"/>
     <use xlink:href="#mf2b3a1b90b" x="372.216182" y="239.093754" style="fill: #a50f15; stroke: #a50f15; stroke-linejoin: miter"/>
     <use xlink:href="#mf2b3a1b90b" x="419.437804" y="239.105934" style="fill: #a50f15; stroke: #a50f15; stroke-linejoin: miter"/>
     <use xlink:href="#mf2b3a1b90b" x="466.659426" y="239.09" style="fill: #a50f15; stroke: #a50f15; stroke-linejoin: miter"/>
     <use xlink:href="#mf2b3a1b90b" x="513.881047" y="239.09865" style="fill: #a50f15; stroke: #a50f15; stroke-linejoin: miter"/>
     <use xlink:href="#mf2b3a1b90b" x="539.638295" y="239.104748" style="fill: #a50f15; stroke: #a50f15; stroke-linejoin: miter"/>
    </g>
   </g>
   <g id="line2d_129">
    <path d="M 97.472202 31.250255 
L 153.279573 173.951094 
L 209.086944 209.237955 
L 264.894315 209.247038 
L 320.701686 209.250658 
L 376.509057 209.245255 
L 432.316428 209.252871 
L 488.123799 209.262785 
L 539.638295 209.262903 
" clip-path="url(#pe25885e0d7)" style="fill: none"/>
    <defs>
     <path id="m0ef62f4e7f" d="M -1.25 2.5 
L 0 1.25 
L 1.25 2.5 
L 2.5 1.25 
L 1.25 0 
L 2.5 -1.25 
L 1.25 -2.5 
L 0 -1.25 
L -1.25 -2.5 
L -2.5 -1.25 
L -1.25 0 
L -2.5 1.25 
z
" style="stroke: #2171b5; stroke-linejoin: miter"/>
    </defs>
    <g clip-path="url(#pe25885e0d7)">
     <use xlink:href="#m0ef62f4e7f" x="97.472202" y="31.250255" style="fill: #2171b5; stroke: #2171b5; stroke-linejoin: miter"/>
     <use xlink:href="#m0ef62f4e7f" x="153.279573" y="173.951094" style="fill: #2171b5; stroke: #2171b5; stroke-linejoin: miter"/>
     <use xlink:href="#m0ef62f4e7f" x="209.086944" y="209.237955" style="fill: #2171b5; stroke: #2171b5; stroke-linejoin: miter"/>
     <use xlink:href="#m0ef62f4e7f" x="264.894315" y="209.247038" style="fill: #2171b5; stroke: #2171b5; stroke-linejoin: miter"/>
     <use xlink:href="#m0ef62f4e7f" x="320.701686" y="209.250658" style="fill: #2171b5; stroke: #2171b5; stroke-linejoin: miter"/>
     <use xlink:href="#m0ef62f4e7f" x="376.509057" y="209.245255" style="fill: #2171b5; stroke: #2171b5; stroke-linejoin: miter"/>
     <use xlink:href="#m0ef62f4e7f" x="432.316428" y="209.252871" style="fill: #2171b5; stroke: #2171b5; stroke-linejoin: miter"/>
     <use xlink:href="#m0ef62f4e7f" x="488.123799" y="209.262785" style="fill: #2171b5; stroke: #2171b5; stroke-linejoin: miter"/>
     <use xlink:href="#m0ef62f4e7f" x="539.638295" y="209.262903" style="fill: #2171b5; stroke: #2171b5; stroke-linejoin: miter"/>
    </g>
   </g>
   <g id="line2d_130">
    <path d="M 76.007829 20.472555 
L 110.350826 48.950352 
L 144.693824 136.114875 
L 179.036821 203.168666 
L 213.379819 209.224894 
L 247.722816 209.248512 
L 282.065814 209.221884 
L 316.408811 209.256312 
L 350.751809 209.249423 
L 385.094807 209.237168 
L 419.437804 209.256245 
L 453.780802 209.257198 
L 488.123799 209.26355 
L 522.466797 209.263957 
L 539.638295 209.262794 
" clip-path="url(#pe25885e0d7)" style="fill: none"/>
    <defs>
     <path id="mb7423a5cfa" d="M 0 2.25 
C 0.596707 2.25 1.169055 2.012926 1.59099 1.59099 
C 2.012926 1.169055 2.25 0.596707 2.25 0 
C 2.25 -0.596707 2.012926 -1.169055 1.59099 -1.59099 
C 1.169055 -2.012926 0.596707 -2.25 0 -2.25 
C -0.596707 -2.25 -1.169055 -2.012926 -1.59099 -1.59099 
C -2.012926 -1.169055 -2.25 -0.596707 -2.25 0 
C -2.25 0.596707 -2.012926 1.169055 -1.59099 1.59099 
C -1.169055 2.012926 -0.596707 2.25 0 2.25 
z
" style="stroke: #08306b"/>
    </defs>
    <g clip-path="url(#pe25885e0d7)">
     <use xlink:href="#mb7423a5cfa" x="76.007829" y="20.472555" style="fill: #08306b; stroke: #08306b"/>
     <use xlink:href="#mb7423a5cfa" x="110.350826" y="48.950352" style="fill: #08306b; stroke: #08306b"/>
     <use xlink:href="#mb7423a5cfa" x="144.693824" y="136.114875" style="fill: #08306b; stroke: #08306b"/>
     <use xlink:href="#mb7423a5cfa" x="179.036821" y="203.168666" style="fill: #08306b; stroke: #08306b"/>
     <use xlink:href="#mb7423a5cfa" x="213.379819" y="209.224894" style="fill: #08306b; stroke: #08306b"/>
     <use xlink:href="#mb7423a5cfa" x="247.722816" y="209.248512" style="fill: #08306b; stroke: #08306b"/>
     <use xlink:href="#mb7423a5cfa" x="282.065814" y="209.221884" style="fill: #08306b; stroke: #08306b"/>
     <use xlink:href="#mb7423a5cfa" x="316.408811" y="209.256312" style="fill: #08306b; stroke: #08306b"/>
     <use xlink:href="#mb7423a5cfa" x="350.751809" y="209.249423" style="fill: #08306b; stroke: #08306b"/>
     <use xlink:href="#mb7423a5cfa" x="385.094807" y="209.237168" style="fill: #08306b; stroke: #08306b"/>
     <use xlink:href="#mb7423a5cfa" x="419.437804" y="209.256245" style="fill: #08306b; stroke: #08306b"/>
     <use xlink:href="#mb7423a5cfa" x="453.780802" y="209.257198" style="fill: #08306b; stroke: #08306b"/>
     <use xlink:href="#mb7423a5cfa" x="488.123799" y="209.26355" style="fill: #08306b; stroke: #08306b"/>
     <use xlink:href="#mb7423a5cfa" x="522.466797" y="209.263957" style="fill: #08306b; stroke: #08306b"/>
     <use xlink:href="#mb7423a5cfa" x="539.638295" y="209.262794" style="fill: #08306b; stroke: #08306b"/>
    </g>
   </g>
   <g id="line2d_131">
    <path d="M 84.593578 108.879734 
L 127.522325 137.066288 
L 170.451072 177.756745 
L 213.379819 196.208784 
L 256.308566 196.228467 
L 299.237313 196.221275 
L 342.16606 196.230041 
L 385.094807 196.236095 
L 428.023553 196.243628 
L 470.9523 196.240437 
L 513.881047 196.242972 
L 539.638295 196.242804 
" clip-path="url(#pe25885e0d7)" style="fill: none"/>
    <defs>
     <path id="m85cd6d3547" d="M -0.833333 2.5 
L 0.833333 2.5 
L 0.833333 0.833333 
L 2.5 0.833333 
L 2.5 -0.833333 
L 0.833333 -0.833333 
L 0.833333 -2.5 
L -0.833333 -2.5 
L -0.833333 -0.833333 
L -2.5 -0.833333 
L -2.5 0.833333 
L -0.833333 0.833333 
z
" style="stroke: #26c6da; stroke-linejoin: miter"/>
    </defs>
    <g clip-path="url(#pe25885e0d7)">
     <use xlink:href="#m85cd6d3547" x="84.593578" y="108.879734" style="fill: #26c6da; stroke: #26c6da; stroke-linejoin: miter"/>
     <use xlink:href="#m85cd6d3547" x="127.522325" y="137.066288" style="fill: #26c6da; stroke: #26c6da; stroke-linejoin: miter"/>
     <use xlink:href="#m85cd6d3547" x="170.451072" y="177.756745" style="fill: #26c6da; stroke: #26c6da; stroke-linejoin: miter"/>
     <use xlink:href="#m85cd6d3547" x="213.379819" y="196.208784" style="fill: #26c6da; stroke: #26c6da; stroke-linejoin: miter"/>
     <use xlink:href="#m85cd6d3547" x="256.308566" y="196.228467" style="fill: #26c6da; stroke: #26c6da; stroke-linejoin: miter"/>
     <use xlink:href="#m85cd6d3547" x="299.237313" y="196.221275" style="fill: #26c6da; stroke: #26c6da; stroke-linejoin: miter"/>
     <use xlink:href="#m85cd6d3547" x="342.16606" y="196.230041" style="fill: #26c6da; stroke: #26c6da; stroke-linejoin: miter"/>
     <use xlink:href="#m85cd6d3547" x="385.094807" y="196.236095" style="fill: #26c6da; stroke: #26c6da; stroke-linejoin: miter"/>
     <use xlink:href="#m85cd6d3547" x="428.023553" y="196.243628" style="fill: #26c6da; stroke: #26c6da; stroke-linejoin: miter"/>
     <use xlink:href="#m85cd6d3547" x="470.9523" y="196.240437" style="fill: #26c6da; stroke: #26c6da; stroke-linejoin: miter"/>
     <use xlink:href="#m85cd6d3547" x="513.881047" y="196.242972" style="fill: #26c6da; stroke: #26c6da; stroke-linejoin: miter"/>
     <use xlink:href="#m85cd6d3547" x="539.638295" y="196.242804" style="fill: #26c6da; stroke: #26c6da; stroke-linejoin: miter"/>
    </g>
   </g>
   <g id="line2d_132">
    <path d="M 93.179327 111.372735 
L 144.693824 151.387821 
L 196.20832 195.875762 
L 247.722816 196.235674 
L 299.237313 196.227978 
L 350.751809 196.234459 
L 402.266305 196.239353 
L 453.780802 196.242873 
L 505.295298 196.242771 
L 539.638295 196.242613 
" clip-path="url(#pe25885e0d7)" style="fill: none"/>
    <defs>
     <path id="m6e6d09c288" d="M 0 -2.25 
L -2.25 2.25 
L 2.25 2.25 
z
" style="stroke: #0e6655; stroke-linejoin: miter"/>
    </defs>
    <g clip-path="url(#pe25885e0d7)">
     <use xlink:href="#m6e6d09c288" x="93.179327" y="111.372735" style="fill: #0e6655; stroke: #0e6655; stroke-linejoin: miter"/>
     <use xlink:href="#m6e6d09c288" x="144.693824" y="151.387821" style="fill: #0e6655; stroke: #0e6655; stroke-linejoin: miter"/>
     <use xlink:href="#m6e6d09c288" x="196.20832" y="195.875762" style="fill: #0e6655; stroke: #0e6655; stroke-linejoin: miter"/>
     <use xlink:href="#m6e6d09c288" x="247.722816" y="196.235674" style="fill: #0e6655; stroke: #0e6655; stroke-linejoin: miter"/>
     <use xlink:href="#m6e6d09c288" x="299.237313" y="196.227978" style="fill: #0e6655; stroke: #0e6655; stroke-linejoin: miter"/>
     <use xlink:href="#m6e6d09c288" x="350.751809" y="196.234459" style="fill: #0e6655; stroke: #0e6655; stroke-linejoin: miter"/>
     <use xlink:href="#m6e6d09c288" x="402.266305" y="196.239353" style="fill: #0e6655; stroke: #0e6655; stroke-linejoin: miter"/>
     <use xlink:href="#m6e6d09c288" x="453.780802" y="196.242873" style="fill: #0e6655; stroke: #0e6655; stroke-linejoin: miter"/>
     <use xlink:href="#m6e6d09c288" x="505.295298" y="196.242771" style="fill: #0e6655; stroke: #0e6655; stroke-linejoin: miter"/>
     <use xlink:href="#m6e6d09c288" x="539.638295" y="196.242613" style="fill: #0e6655; stroke: #0e6655; stroke-linejoin: miter"/>
    </g>
   </g>
   <g id="legend_1">
    <g id="patch_5">
     <path d="M 477.980625 86.901562 
L 558.56375 86.901562 
Q 559.96375 86.901562 559.96375 85.501562 
L 559.96375 12.1 
Q 559.96375 10.7 558.56375 10.7 
L 477.980625 10.7 
Q 476.580625 10.7 476.580625 12.1 
L 476.580625 85.501562 
Q 476.580625 86.901562 477.980625 86.901562 
z
" style="fill: #ffffff; opacity: 0.85; stroke: #cccccc; stroke-linejoin: miter"/>
    </g>
    <g id="line2d_133">
     <path d="M 479.380625 16.648906 
L 487.780625 16.648906 
L 496.180625 16.648906 
" style="fill: none"/>
     <g>
      <use xlink:href="#me1a03383bb" x="487.780625" y="16.648906" style="stroke: #000000; stroke-linejoin: miter"/>
     </g>
    </g>
    <g id="text_17">
     <!-- `real_rich_8` -->
     <g transform="translate(501.780625 19.098906) scale(0.07 -0.07)">
      <defs>
       <path id="DejaVuSans-60" d="M 1147 5119 
L 2028 3950 
L 1550 3950 
L 531 5119 
L 1147 5119 
z
" transform="scale(0.015625)"/>
       <path id="DejaVuSans-5f" d="M 3263 -1063 
L 3263 -1509 
L -63 -1509 
L -63 -1063 
L 3263 -1063 
z
" transform="scale(0.015625)"/>
       <path id="DejaVuSans-63" d="M 3122 3366 
L 3122 2828 
Q 2878 2963 2633 3030 
Q 2388 3097 2138 3097 
Q 1578 3097 1268 2742 
Q 959 2388 959 1747 
Q 959 1106 1268 751 
Q 1578 397 2138 397 
Q 2388 397 2633 464 
Q 2878 531 3122 666 
L 3122 134 
Q 2881 22 2623 -34 
Q 2366 -91 2075 -91 
Q 1284 -91 818 406 
Q 353 903 353 1747 
Q 353 2603 823 3093 
Q 1294 3584 2113 3584 
Q 2378 3584 2631 3529 
Q 2884 3475 3122 3366 
z
" transform="scale(0.015625)"/>
       <path id="DejaVuSans-68" d="M 3513 2113 
L 3513 0 
L 2938 0 
L 2938 2094 
Q 2938 2591 2744 2837 
Q 2550 3084 2163 3084 
Q 1697 3084 1428 2787 
Q 1159 2491 1159 1978 
L 1159 0 
L 581 0 
L 581 4863 
L 1159 4863 
L 1159 2956 
Q 1366 3272 1645 3428 
Q 1925 3584 2291 3584 
Q 2894 3584 3203 3211 
Q 3513 2838 3513 2113 
z
" transform="scale(0.015625)"/>
      </defs>
      <use xlink:href="#DejaVuSans-60"/>
      <use xlink:href="#DejaVuSans-72" transform="translate(50 0)"/>
      <use xlink:href="#DejaVuSans-65" transform="translate(88.863281 0)"/>
      <use xlink:href="#DejaVuSans-61" transform="translate(150.386719 0)"/>
      <use xlink:href="#DejaVuSans-6c" transform="translate(211.666016 0)"/>
      <use xlink:href="#DejaVuSans-5f" transform="translate(239.449219 0)"/>
      <use xlink:href="#DejaVuSans-72" transform="translate(289.449219 0)"/>
      <use xlink:href="#DejaVuSans-69" transform="translate(330.5625 0)"/>
      <use xlink:href="#DejaVuSans-63" transform="translate(358.345703 0)"/>
      <use xlink:href="#DejaVuSans-68" transform="translate(413.326172 0)"/>
      <use xlink:href="#DejaVuSans-5f" transform="translate(476.705078 0)"/>
      <use xlink:href="#DejaVuSans-38" transform="translate(526.705078 0)"/>
      <use xlink:href="#DejaVuSans-60" transform="translate(590.328125 0)"/>
     </g>
    </g>
    <g id="line2d_134">
     <path d="M 479.380625 27.398281 
L 487.780625 27.398281 
L 496.180625 27.398281 
" style="fill: none"/>
     <g>
      <use xlink:href="#mcff807b78a" x="487.780625" y="27.398281" style="fill: #cb6020; stroke: #cb6020; stroke-linejoin: miter"/>
     </g>
    </g>
    <g id="text_18">
     <!-- `rich_8` -->
     <g transform="translate(501.780625 29.848281) scale(0.07 -0.07)">
      <use xlink:href="#DejaVuSans-60"/>
      <use xlink:href="#DejaVuSans-72" transform="translate(50 0)"/>
      <use xlink:href="#DejaVuSans-69" transform="translate(91.113281 0)"/>
      <use xlink:href="#DejaVuSans-63" transform="translate(118.896484 0)"/>
      <use xlink:href="#DejaVuSans-68" transform="translate(173.876953 0)"/>
      <use xlink:href="#DejaVuSans-5f" transform="translate(237.255859 0)"/>
      <use xlink:href="#DejaVuSans-38" transform="translate(287.255859 0)"/>
      <use xlink:href="#DejaVuSans-60" transform="translate(350.878906 0)"/>
     </g>
    </g>
    <g id="line2d_135">
     <path d="M 479.380625 38.147656 
L 487.780625 38.147656 
L 496.180625 38.147656 
" style="fill: none"/>
     <g>
      <use xlink:href="#mf2b3a1b90b" x="487.780625" y="38.147656" style="fill: #a50f15; stroke: #a50f15; stroke-linejoin: miter"/>
     </g>
    </g>
    <g id="text_19">
     <!-- `blocked_8` -->
     <g transform="translate(501.780625 40.597656) scale(0.07 -0.07)">
      <defs>
       <path id="DejaVuSans-6b" d="M 581 4863 
L 1159 4863 
L 1159 1991 
L 2875 3500 
L 3609 3500 
L 1753 1863 
L 3688 0 
L 2938 0 
L 1159 1709 
L 1159 0 
L 581 0 
L 581 4863 
z
" transform="scale(0.015625)"/>
       <path id="DejaVuSans-64" d="M 2906 2969 
L 2906 4863 
L 3481 4863 
L 3481 0 
L 2906 0 
L 2906 525 
Q 2725 213 2448 61 
Q 2172 -91 1784 -91 
Q 1150 -91 751 415 
Q 353 922 353 1747 
Q 353 2572 751 3078 
Q 1150 3584 1784 3584 
Q 2172 3584 2448 3432 
Q 2725 3281 2906 2969 
z
M 947 1747 
Q 947 1113 1208 752 
Q 1469 391 1925 391 
Q 2381 391 2643 752 
Q 2906 1113 2906 1747 
Q 2906 2381 2643 2742 
Q 2381 3103 1925 3103 
Q 1469 3103 1208 2742 
Q 947 2381 947 1747 
z
" transform="scale(0.015625)"/>
      </defs>
      <use xlink:href="#DejaVuSans-60"/>
      <use xlink:href="#DejaVuSans-62" transform="translate(50 0)"/>
      <use xlink:href="#DejaVuSans-6c" transform="translate(113.476562 0)"/>
      <use xlink:href="#DejaVuSans-6f" transform="translate(141.259766 0)"/>
      <use xlink:href="#DejaVuSans-63" transform="translate(202.441406 0)"/>
      <use xlink:href="#DejaVuSans-6b" transform="translate(257.421875 0)"/>
      <use xlink:href="#DejaVuSans-65" transform="translate(311.707031 0)"/>
      <use xlink:href="#DejaVuSans-64" transform="translate(373.230469 0)"/>
      <use xlink:href="#DejaVuSans-5f" transform="translate(436.707031 0)"/>
      <use xlink:href="#DejaVuSans-38" transform="translate(486.707031 0)"/>
      <use xlink:href="#DejaVuSans-60" transform="translate(550.330078 0)"/>
     </g>
    </g>
    <g id="line2d_136">
     <path d="M 479.380625 48.897031 
L 487.780625 48.897031 
L 496.180625 48.897031 
" style="fill: none"/>
     <g>
      <use xlink:href="#m0ef62f4e7f" x="487.780625" y="48.897031" style="fill: #2171b5; stroke: #2171b5; stroke-linejoin: miter"/>
     </g>
    </g>
    <g id="text_20">
     <!-- `entangled_qft` -->
     <g transform="translate(501.780625 51.347031) scale(0.07 -0.07)">
      <defs>
       <path id="DejaVuSans-71" d="M 947 1747 
Q 947 1113 1208 752 
Q 1469 391 1925 391 
Q 2381 391 2643 752 
Q 2906 1113 2906 1747 
Q 2906 2381 2643 2742 
Q 2381 3103 1925 3103 
Q 1469 3103 1208 2742 
Q 947 2381 947 1747 
z
M 2906 525 
Q 2725 213 2448 61 
Q 2172 -91 1784 -91 
Q 1150 -91 751 415 
Q 353 922 353 1747 
Q 353 2572 751 3078 
Q 1150 3584 1784 3584 
Q 2172 3584 2448 3432 
Q 2725 3281 2906 2969 
L 2906 3500 
L 3481 3500 
L 3481 -1331 
L 2906 -1331 
L 2906 525 
z
" transform="scale(0.015625)"/>
       <path id="DejaVuSans-66" d="M 2375 4863 
L 2375 4384 
L 1825 4384 
Q 1516 4384 1395 4259 
Q 1275 4134 1275 3809 
L 1275 3500 
L 2222 3500 
L 2222 3053 
L 1275 3053 
L 1275 0 
L 697 0 
L 697 3053 
L 147 3053 
L 147 3500 
L 697 3500 
L 697 3744 
Q 697 4328 969 4595 
Q 1241 4863 1831 4863 
L 2375 4863 
z
" transform="scale(0.015625)"/>
      </defs>
      <use xlink:href="#DejaVuSans-60"/>
      <use xlink:href="#DejaVuSans-65" transform="translate(50 0)"/>
      <use xlink:href="#DejaVuSans-6e" transform="translate(111.523438 0)"/>
      <use xlink:href="#DejaVuSans-74" transform="translate(174.902344 0)"/>
      <use xlink:href="#DejaVuSans-61" transform="translate(214.111328 0)"/>
      <use xlink:href="#DejaVuSans-6e" transform="translate(275.390625 0)"/>
      <use xlink:href="#DejaVuSans-67" transform="translate(338.769531 0)"/>
      <use xlink:href="#DejaVuSans-6c" transform="translate(402.246094 0)"/>
      <use xlink:href="#DejaVuSans-65" transform="translate(430.029297 0)"/>
      <use xlink:href="#DejaVuSans-64" transform="translate(491.552734 0)"/>
      <use xlink:href="#DejaVuSans-5f" transform="translate(555.029297 0)"/>
      <use xlink:href="#DejaVuSans-71" transform="translate(605.029297 0)"/>
      <use xlink:href="#DejaVuSans-66" transform="translate(668.505859 0)"/>
      <use xlink:href="#DejaVuSans-74" transform="translate(701.960938 0)"/>
      <use xlink:href="#DejaVuSans-60" transform="translate(741.169922 0)"/>
     </g>
    </g>
    <g id="line2d_137">
     <path d="M 479.380625 59.646406 
L 487.780625 59.646406 
L 496.180625 59.646406 
" style="fill: none"/>
     <g>
      <use xlink:href="#mb7423a5cfa" x="487.780625" y="59.646406" style="fill: #08306b; stroke: #08306b"/>
     </g>
    </g>
    <g id="text_21">
     <!-- `qft` -->
     <g transform="translate(501.780625 62.096406) scale(0.07 -0.07)">
      <use xlink:href="#DejaVuSans-60"/>
      <use xlink:href="#DejaVuSans-71" transform="translate(50 0)"/>
      <use xlink:href="#DejaVuSans-66" transform="translate(113.476562 0)"/>
      <use xlink:href="#DejaVuSans-74" transform="translate(146.931641 0)"/>
      <use xlink:href="#DejaVuSans-60" transform="translate(186.140625 0)"/>
     </g>
    </g>
    <g id="line2d_138">
     <path d="M 479.380625 69.921094 
L 487.780625 69.921094 
L 496.180625 69.921094 
" style="fill: none"/>
     <g>
      <use xlink:href="#m85cd6d3547" x="487.780625" y="69.921094" style="fill: #26c6da; stroke: #26c6da; stroke-linejoin: miter"/>
     </g>
    </g>
    <g id="text_22">
     <!-- `mera` -->
     <g transform="translate(501.780625 72.371094) scale(0.07 -0.07)">
      <defs>
       <path id="DejaVuSans-6d" d="M 3328 2828 
Q 3544 3216 3844 3400 
Q 4144 3584 4550 3584 
Q 5097 3584 5394 3201 
Q 5691 2819 5691 2113 
L 5691 0 
L 5113 0 
L 5113 2094 
Q 5113 2597 4934 2840 
Q 4756 3084 4391 3084 
Q 3944 3084 3684 2787 
Q 3425 2491 3425 1978 
L 3425 0 
L 2847 0 
L 2847 2094 
Q 2847 2600 2669 2842 
Q 2491 3084 2119 3084 
Q 1678 3084 1418 2786 
Q 1159 2488 1159 1978 
L 1159 0 
L 581 0 
L 581 3500 
L 1159 3500 
L 1159 2956 
Q 1356 3278 1631 3431 
Q 1906 3584 2284 3584 
Q 2666 3584 2933 3390 
Q 3200 3197 3328 2828 
z
" transform="scale(0.015625)"/>
      </defs>
      <use xlink:href="#DejaVuSans-60"/>
      <use xlink:href="#DejaVuSans-6d" transform="translate(50 0)"/>
      <use xlink:href="#DejaVuSans-65" transform="translate(147.412109 0)"/>
      <use xlink:href="#DejaVuSans-72" transform="translate(208.935547 0)"/>
      <use xlink:href="#DejaVuSans-61" transform="translate(250.048828 0)"/>
      <use xlink:href="#DejaVuSans-60" transform="translate(311.328125 0)"/>
     </g>
    </g>
    <g id="line2d_139">
     <path d="M 479.380625 80.195781 
L 487.780625 80.195781 
L 496.180625 80.195781 
" style="fill: none"/>
     <g>
      <use xlink:href="#m6e6d09c288" x="487.780625" y="80.195781" style="fill: #0e6655; stroke: #0e6655; stroke-linejoin: miter"/>
     </g>
    </g>
    <g id="text_23">
     <!-- `tebd` -->
     <g transform="translate(501.780625 82.645781) scale(0.07 -0.07)">
      <use xlink:href="#DejaVuSans-60"/>
      <use xlink:href="#DejaVuSans-74" transform="translate(50 0)"/>
      <use xlink:href="#DejaVuSans-65" transform="translate(89.208984 0)"/>
      <use xlink:href="#DejaVuSans-62" transform="translate(150.732422 0)"/>
      <use xlink:href="#DejaVuSans-64" transform="translate(214.208984 0)"/>
      <use xlink:href="#DejaVuSans-60" transform="translate(277.685547 0)"/>
     </g>
    </g>
   </g>
  </g>
 </g>
 <defs>
  <clipPath id="pe25885e0d7">
   <rect x="39.30375" y="7.2" width="524.16" height="288.144"/>
  </clipPath>
 </defs>
</svg>
