<?xml version="1.0" encoding="utf-8" standalone="no"?>
<!DOCTYPE svg PUBLIC "-//W3C//DTD SVG 1.1//EN"
  "http://www.w3.org/Graphics/SVG/1.1/DTD/svg11.dtd">
<svg xmlns:xlink="http://www.w3.org/1999/xlink" width="257.77186pt" height="236.61635pt" viewBox="0 0 257.77186 236.61635" xmlns="http://www.w3.org/2000/svg" version="1.1">
 <metadata>
  <rdf:RDF xmlns:dc="http://purl.org/dc/elements/1.1/" xmlns:cc="http://creativecommons.org/ns#" xmlns:rdf="http://www.w3.org/1999/02/22-rdf-syntax-ns#">
   <cc:Work>
    <dc:type rdf:resource="http://purl.org/dc/dcmitype/StillImage"/>
    <dc:date>2026-07-23T05:36:50.303706</dc:date>
    <dc:format>image/svg+xml</dc:format>
    <dc:creator>
     <cc:Agent>
      <dc:title>Matplotlib v3.10.9, https://matplotlib.org/</dc:title>
     </cc:Agent>
    </dc:creator>
   </cc:Work>
  </rdf:RDF>
 </metadata>
 <defs>
  <style type="text/css">*{stroke-linejoin: round; stroke-linecap: butt}</style>
 </defs>
 <g id="figure_1">
  <g id="patch_1">
   <path d="M 0 236.61635 
L 257.77186 236.61635 
L 257.77186 -0 
L 0 -0 
z
" style="fill: #ffffff"/>
  </g>
  <g id="axes_1">
   <g id="patch_2">
    <path d="M 42.180312 201.963537 
L 242.373976 201.963537 
L 242.373976 7.544053 
L 42.180312 7.544053 
z
" style="fill: #ffffff"/>
   </g>
   <g id="matplotlib.axis_1">
    <g id="xtick_1">
     <g id="line2d_1">
      <path d="M 42.180312 201.963537 
L 42.180312 7.544053 
" clip-path="url(#p4c0b64f323)" style="fill: none; stroke: #b0b0b0; stroke-opacity: 0.25; stroke-width: 0.5; stroke-linecap: square"/>
     </g>
     <g id="line2d_2">
      <defs>
       <path id="m81fbdc0861" d="M 0 0 
L 0 3.5 
" style="stroke: #000000; stroke-width: 0.8"/>
      </defs>
      <g>
       <use xlink:href="#m81fbdc0861" x="42.180312" y="201.963537" style="stroke: #000000; stroke-width: 0.8"/>
      </g>
     </g>
     <g id="text_1">
      <!-- 0 -->
      <g transform="translate(39.635312 215.042287) scale(0.08 -0.08)">
       <defs>
        <path id="DejaVuSans-30" d="M 2034 4250 
Q 1547 4250 1301 3770 
Q 1056 3291 1056 2328 
Q 1056 1369 1301 889 
Q 1547 409 2034 409 
Q 2525 409 2770 889 
Q 3016 1369 3016 2328 
Q 3016 3291 2770 3770 
Q 2525 4250 2034 4250 
z
M 2034 4750 
Q 2819 4750 3233 4129 
Q 3647 3509 3647 2328 
Q 3647 1150 3233 529 
Q 2819 -91 2034 -91 
Q 1250 -91 836 529 
Q 422 1150 422 2328 
Q 422 3509 836 4129 
Q 1250 4750 2034 4750 
z
" transform="scale(0.015625)"/>
       </defs>
       <use xlink:href="#DejaVuSans-30"/>
      </g>
     </g>
    </g>
    <g id="xtick_2">
     <g id="line2d_3">
      <path d="M 81.822622 201.963537 
L 81.822622 7.544053 
" clip-path="url(#p4c0b64f323)" style="fill: none; stroke: #b0b0b0; stroke-opacity: 0.25; stroke-width: 0.5; stroke-linecap: square"/>
     </g>
     <g id="line2d_4">
      <g>
       <use xlink:href="#m81fbdc0861" x="81.822622" y="201.963537" style="stroke: #000000; stroke-width: 0.8"/>
      </g>
     </g>
     <g id="text_2">
      <!-- 200 -->
      <g transform="translate(74.187622 215.042287) scale(0.08 -0.08)">
       <defs>
        <path id="DejaVuSans-32" d="M 1228 531 
L 3431 531 
L 3431 0 
L 469 0 
L 469 531 
Q 828 903 1448 1529 
Q 2069 2156 2228 2338 
Q 2531 2678 2651 2914 
Q 2772 3150 2772 3378 
Q 2772 3750 2511 3984 
Q 2250 4219 1831 4219 
Q 1534 4219 1204 4116 
Q 875 4013 500 3803 
L 500 4441 
Q 881 4594 1212 4672 
Q 1544 4750 1819 4750 
Q 2544 4750 2975 4387 
Q 3406 4025 3406 3419 
Q 3406 3131 3298 2873 
Q 3191 2616 2906 2266 
Q 2828 2175 2409 1742 
Q 1991 1309 1228 531 
z
" transform="scale(0.015625)"/>
       </defs>
       <use xlink:href="#DejaVuSans-32"/>
       <use xlink:href="#DejaVuSans-30" transform="translate(63.623047 0)"/>
       <use xlink:href="#DejaVuSans-30" transform="translate(127.246094 0)"/>
      </g>
     </g>
    </g>
    <g id="xtick_3">
     <g id="line2d_5">
      <path d="M 121.464932 201.963537 
L 121.464932 7.544053 
" clip-path="url(#p4c0b64f323)" style="fill: none; stroke: #b0b0b0; stroke-opacity: 0.25; stroke-width: 0.5; stroke-linecap: square"/>
     </g>
     <g id="line2d_6">
      <g>
       <use xlink:href="#m81fbdc0861" x="121.464932" y="201.963537" style="stroke: #000000; stroke-width: 0.8"/>
      </g>
     </g>
     <g id="text_3">
      <!-- 400 -->
      <g transform="translate(113.829932 215.042287) scale(0.08 -0.08)">
       <defs>
        <path id="DejaVuSans-34" d="M 2419 4116 
L 825 1625 
L 2419 1625 
L 2419 4116 
z
M 2253 4666 
L 3047 4666 
L 3047 1625 
L 3713 1625 
L 3713 1100 
L 3047 1100 
L 3047 0 
L 2419 0 
L 2419 1100 
L 313 1100 
L 313 1709 
L 2253 4666 
z
" transform="scale(0.015625)"/>
       </defs>
       <use xlink:href="#DejaVuSans-34"/>
       <use xlink:href="#DejaVuSans-30" transform="translate(63.623047 0)"/>
       <use xlink:href="#DejaVuSans-30" transform="translate(127.246094 0)"/>
      </g>
     </g>
    </g>
    <g id="xtick_4">
     <g id="line2d_7">
      <path d="M 161.107241 201.963537 
L 161.107241 7.544053 
" clip-path="url(#p4c0b64f323)" style="fill: none; stroke: #b0b0b0; stroke-opacity: 0.25; stroke-width: 0.5; stroke-linecap: square"/>
     </g>
     <g id="line2d_8">
      <g>
       <use xlink:href="#m81fbdc0861" x="161.107241" y="201.963537" style="stroke: #000000; stroke-width: 0.8"/>
      </g>
     </g>
     <g id="text_4">
      <!-- 600 -->
      <g transform="translate(153.472241 215.042287) scale(0.08 -0.08)">
       <defs>
        <path id="DejaVuSans-36" d="M 2113 2584 
Q 1688 2584 1439 2293 
Q 1191 2003 1191 1497 
Q 1191 994 1439 701 
Q 1688 409 2113 409 
Q 2538 409 2786 701 
Q 3034 994 3034 1497 
Q 3034 2003 2786 2293 
Q 2538 2584 2113 2584 
z
M 3366 4563 
L 3366 3988 
Q 3128 4100 2886 4159 
Q 2644 4219 2406 4219 
Q 1781 4219 1451 3797 
Q 1122 3375 1075 2522 
Q 1259 2794 1537 2939 
Q 1816 3084 2150 3084 
Q 2853 3084 3261 2657 
Q 3669 2231 3669 1497 
Q 3669 778 3244 343 
Q 2819 -91 2113 -91 
Q 1303 -91 875 529 
Q 447 1150 447 2328 
Q 447 3434 972 4092 
Q 1497 4750 2381 4750 
Q 2619 4750 2861 4703 
Q 3103 4656 3366 4563 
z
" transform="scale(0.015625)"/>
       </defs>
       <use xlink:href="#DejaVuSans-36"/>
       <use xlink:href="#DejaVuSans-30" transform="translate(63.623047 0)"/>
       <use xlink:href="#DejaVuSans-30" transform="translate(127.246094 0)"/>
      </g>
     </g>
    </g>
    <g id="xtick_5">
     <g id="line2d_9">
      <path d="M 200.749551 201.963537 
L 200.749551 7.544053 
" clip-path="url(#p4c0b64f323)" style="fill: none; stroke: #b0b0b0; stroke-opacity: 0.25; stroke-width: 0.5; stroke-linecap: square"/>
     </g>
     <g id="line2d_10">
      <g>
       <use xlink:href="#m81fbdc0861" x="200.749551" y="201.963537" style="stroke: #000000; stroke-width: 0.8"/>
      </g>
     </g>
     <g id="text_5">
      <!-- 800 -->
      <g transform="translate(193.114551 215.042287) scale(0.08 -0.08)">
       <defs>
        <path id="DejaVuSans-38" d="M 2034 2216 
Q 1584 2216 1326 1975 
Q 1069 1734 1069 1313 
Q 1069 891 1326 650 
Q 1584 409 2034 409 
Q 2484 409 2743 651 
Q 3003 894 3003 1313 
Q 3003 1734 2745 1975 
Q 2488 2216 2034 2216 
z
M 1403 2484 
Q 997 2584 770 2862 
Q 544 3141 544 3541 
Q 544 4100 942 4425 
Q 1341 4750 2034 4750 
Q 2731 4750 3128 4425 
Q 3525 4100 3525 3541 
Q 3525 3141 3298 2862 
Q 3072 2584 2669 2484 
Q 3125 2378 3379 2068 
Q 3634 1759 3634 1313 
Q 3634 634 3220 271 
Q 2806 -91 2034 -91 
Q 1263 -91 848 271 
Q 434 634 434 1313 
Q 434 1759 690 2068 
Q 947 2378 1403 2484 
z
M 1172 3481 
Q 1172 3119 1398 2916 
Q 1625 2713 2034 2713 
Q 2441 2713 2670 2916 
Q 2900 3119 2900 3481 
Q 2900 3844 2670 4047 
Q 2441 4250 2034 4250 
Q 1625 4250 1398 4047 
Q 1172 3844 1172 3481 
z
" transform="scale(0.015625)"/>
       </defs>
       <use xlink:href="#DejaVuSans-38"/>
       <use xlink:href="#DejaVuSans-30" transform="translate(63.623047 0)"/>
       <use xlink:href="#DejaVuSans-30" transform="translate(127.246094 0)"/>
      </g>
     </g>
    </g>
    <g id="xtick_6">
     <g id="line2d_11">
      <path d="M 240.39186 201.963537 
L 240.39186 7.544053 
" clip-path="url(#p4c0b64f323)" style="fill: none; stroke: #b0b0b0; stroke-opacity: 0.25; stroke-width: 0.5; stroke-linecap: square"/>
     </g>
     <g id="line2d_12">
      <g>
       <use xlink:href="#m81fbdc0861" x="240.39186" y="201.963537" style="stroke: #000000; stroke-width: 0.8"/>
      </g>
     </g>
     <g id="text_6">
      <!-- 1000 -->
      <g transform="translate(230.21186 215.042287) scale(0.08 -0.08)">
       <defs>
        <path id="DejaVuSans-31" d="M 794 531 
L 1825 531 
L 1825 4091 
L 703 3866 
L 703 4441 
L 1819 4666 
L 2450 4666 
L 2450 531 
L 3481 531 
L 3481 0 
L 794 0 
L 794 531 
z
" transform="scale(0.015625)"/>
       </defs>
       <use xlink:href="#DejaVuSans-31"/>
       <use xlink:href="#DejaVuSans-30" transform="translate(63.623047 0)"/>
       <use xlink:href="#DejaVuSans-30" transform="translate(127.246094 0)"/>
       <use xlink:href="#DejaVuSans-30" transform="translate(190.869141 0)"/>
      </g>
     </g>
    </g>
    <g id="text_7">
     <!-- training step -->
     <g transform="translate(113.680347 227.544631) scale(0.09 -0.09)">
      <defs>
       <path id="DejaVuSans-74" d="M 1172 4494 
L 1172 3500 
L 2356 3500 
L 2356 3053 
L 1172 3053 
L 1172 1153 
Q 1172 725 1289 603 
Q 1406 481 1766 481 
L 2356 481 
L 2356 0 
L 1766 0 
Q 1100 0 847 248 
Q 594 497 594 1153 
L 594 3053 
L 172 3053 
L 172 3500 
L 594 3500 
L 594 4494 
L 1172 4494 
z
" transform="scale(0.015625)"/>
       <path id="DejaVuSans-72" d="M 2631 2963 
Q 2534 3019 2420 3045 
Q 2306 3072 2169 3072 
Q 1681 3072 1420 2755 
Q 1159 2438 1159 1844 
L 1159 0 
L 581 0 
L 581 3500 
L 1159 3500 
L 1159 2956 
Q 1341 3275 1631 3429 
Q 1922 3584 2338 3584 
Q 2397 3584 2469 3576 
Q 2541 3569 2628 3553 
L 2631 2963 
z
" transform="scale(0.015625)"/>
       <path id="DejaVuSans-61" d="M 2194 1759 
Q 1497 1759 1228 1600 
Q 959 1441 959 1056 
Q 959 750 1161 570 
Q 1363 391 1709 391 
Q 2188 391 2477 730 
Q 2766 1069 2766 1631 
L 2766 1759 
L 2194 1759 
z
M 3341 1997 
L 3341 0 
L 2766 0 
L 2766 531 
Q 2569 213 2275 61 
Q 1981 -91 1556 -91 
Q 1019 -91 701 211 
Q 384 513 384 1019 
Q 384 1609 779 1909 
Q 1175 2209 1959 2209 
L 2766 2209 
L 2766 2266 
Q 2766 2663 2505 2880 
Q 2244 3097 1772 3097 
Q 1472 3097 1187 3025 
Q 903 2953 641 2809 
L 641 3341 
Q 956 3463 1253 3523 
Q 1550 3584 1831 3584 
Q 2591 3584 2966 3190 
Q 3341 2797 3341 1997 
z
" transform="scale(0.015625)"/>
       <path id="DejaVuSans-69" d="M 603 3500 
L 1178 3500 
L 1178 0 
L 603 0 
L 603 3500 
z
M 603 4863 
L 1178 4863 
L 1178 4134 
L 603 4134 
L 603 4863 
z
" transform="scale(0.015625)"/>
       <path id="DejaVuSans-6e" d="M 3513 2113 
L 3513 0 
L 2938 0 
L 2938 2094 
Q 2938 2591 2744 2837 
Q 2550 3084 2163 3084 
Q 1697 3084 1428 2787 
Q 1159 2491 1159 1978 
L 1159 0 
L 581 0 
L 581 3500 
L 1159 3500 
L 1159 2956 
Q 1366 3272 1645 3428 
Q 1925 3584 2291 3584 
Q 2894 3584 3203 3211 
Q 3513 2838 3513 2113 
z
" transform="scale(0.015625)"/>
       <path id="DejaVuSans-67" d="M 2906 1791 
Q 2906 2416 2648 2759 
Q 2391 3103 1925 3103 
Q 1463 3103 1205 2759 
Q 947 2416 947 1791 
Q 947 1169 1205 825 
Q 1463 481 1925 481 
Q 2391 481 2648 825 
Q 2906 1169 2906 1791 
z
M 3481 434 
Q 3481 -459 3084 -895 
Q 2688 -1331 1869 -1331 
Q 1566 -1331 1297 -1286 
Q 1028 -1241 775 -1147 
L 775 -588 
Q 1028 -725 1275 -790 
Q 1522 -856 1778 -856 
Q 2344 -856 2625 -561 
Q 2906 -266 2906 331 
L 2906 616 
Q 2728 306 2450 153 
Q 2172 0 1784 0 
Q 1141 0 747 490 
Q 353 981 353 1791 
Q 353 2603 747 3093 
Q 1141 3584 1784 3584 
Q 2172 3584 2450 3431 
Q 2728 3278 2906 2969 
L 2906 3500 
L 3481 3500 
L 3481 434 
z
" transform="scale(0.015625)"/>
       <path id="DejaVuSans-20" transform="scale(0.015625)"/>
       <path id="DejaVuSans-73" d="M 2834 3397 
L 2834 2853 
Q 2591 2978 2328 3040 
Q 2066 3103 1784 3103 
Q 1356 3103 1142 2972 
Q 928 2841 928 2578 
Q 928 2378 1081 2264 
Q 1234 2150 1697 2047 
L 1894 2003 
Q 2506 1872 2764 1633 
Q 3022 1394 3022 966 
Q 3022 478 2636 193 
Q 2250 -91 1575 -91 
Q 1294 -91 989 -36 
Q 684 19 347 128 
L 347 722 
Q 666 556 975 473 
Q 1284 391 1588 391 
Q 1994 391 2212 530 
Q 2431 669 2431 922 
Q 2431 1156 2273 1281 
Q 2116 1406 1581 1522 
L 1381 1569 
Q 847 1681 609 1914 
Q 372 2147 372 2553 
Q 372 3047 722 3315 
Q 1072 3584 1716 3584 
Q 2034 3584 2315 3537 
Q 2597 3491 2834 3397 
z
" transform="scale(0.015625)"/>
       <path id="DejaVuSans-65" d="M 3597 1894 
L 3597 1613 
L 953 1613 
Q 991 1019 1311 708 
Q 1631 397 2203 397 
Q 2534 397 2845 478 
Q 3156 559 3463 722 
L 3463 178 
Q 3153 47 2828 -22 
Q 2503 -91 2169 -91 
Q 1331 -91 842 396 
Q 353 884 353 1716 
Q 353 2575 817 3079 
Q 1281 3584 2069 3584 
Q 2775 3584 3186 3129 
Q 3597 2675 3597 1894 
z
M 3022 2063 
Q 3016 2534 2758 2815 
Q 2500 3097 2075 3097 
Q 1594 3097 1305 2825 
Q 1016 2553 972 2059 
L 3022 2063 
z
" transform="scale(0.015625)"/>
       <path id="DejaVuSans-70" d="M 1159 525 
L 1159 -1331 
L 581 -1331 
L 581 3500 
L 1159 3500 
L 1159 2969 
Q 1341 3281 1617 3432 
Q 1894 3584 2278 3584 
Q 2916 3584 3314 3078 
Q 3713 2572 3713 1747 
Q 3713 922 3314 415 
Q 2916 -91 2278 -91 
Q 1894 -91 1617 61 
Q 1341 213 1159 525 
z
M 3116 1747 
Q 3116 2381 2855 2742 
Q 2594 3103 2138 3103 
Q 1681 3103 1420 2742 
Q 1159 2381 1159 1747 
Q 1159 1113 1420 752 
Q 1681 391 2138 391 
Q 2594 391 2855 752 
Q 3116 1113 3116 1747 
z
" transform="scale(0.015625)"/>
      </defs>
      <use xlink:href="#DejaVuSans-74"/>
      <use xlink:href="#DejaVuSans-72" transform="translate(39.208984 0)"/>
      <use xlink:href="#DejaVuSans-61" transform="translate(80.322266 0)"/>
      <use xlink:href="#DejaVuSans-69" transform="translate(141.601562 0)"/>
      <use xlink:href="#DejaVuSans-6e" transform="translate(169.384766 0)"/>
      <use xlink:href="#DejaVuSans-69" transform="translate(232.763672 0)"/>
      <use xlink:href="#DejaVuSans-6e" transform="translate(260.546875 0)"/>
      <use xlink:href="#DejaVuSans-67" transform="translate(323.925781 0)"/>
      <use xlink:href="#DejaVuSans-20" transform="translate(387.402344 0)"/>
      <use xlink:href="#DejaVuSans-73" transform="translate(419.189453 0)"/>
      <use xlink:href="#DejaVuSans-74" transform="translate(471.289062 0)"/>
      <use xlink:href="#DejaVuSans-65" transform="translate(510.498047 0)"/>
      <use xlink:href="#DejaVuSans-70" transform="translate(572.021484 0)"/>
     </g>
    </g>
   </g>
   <g id="matplotlib.axis_2">
    <g id="ytick_1">
     <g id="line2d_13">
      <path d="M 42.180312 194.415376 
L 242.373976 194.415376 
" clip-path="url(#p4c0b64f323)" style="fill: none; stroke: #b0b0b0; stroke-opacity: 0.25; stroke-width: 0.5; stroke-linecap: square"/>
     </g>
     <g id="line2d_14">
      <defs>
       <path id="m1a570ddbe1" d="M 0 0 
L -3.5 0 
" style="stroke: #000000; stroke-width: 0.8"/>
      </defs>
      <g>
       <use xlink:href="#m1a570ddbe1" x="42.180312" y="194.415376" style="stroke: #000000; stroke-width: 0.8"/>
      </g>
     </g>
     <g id="text_8">
      <!-- 100 -->
      <g transform="translate(19.910312 197.454751) scale(0.08 -0.08)">
       <use xlink:href="#DejaVuSans-31"/>
       <use xlink:href="#DejaVuSans-30" transform="translate(63.623047 0)"/>
       <use xlink:href="#DejaVuSans-30" transform="translate(127.246094 0)"/>
      </g>
     </g>
    </g>
    <g id="ytick_2">
     <g id="line2d_15">
      <path d="M 42.180312 168.104518 
L 242.373976 168.104518 
" clip-path="url(#p4c0b64f323)" style="fill: none; stroke: #b0b0b0; stroke-opacity: 0.25; stroke-width: 0.5; stroke-linecap: square"/>
     </g>
     <g id="line2d_16">
      <g>
       <use xlink:href="#m1a570ddbe1" x="42.180312" y="168.104518" style="stroke: #000000; stroke-width: 0.8"/>
      </g>
     </g>
     <g id="text_9">
      <!-- 125 -->
      <g transform="translate(19.910312 171.143893) scale(0.08 -0.08)">
       <defs>
        <path id="DejaVuSans-35" d="M 691 4666 
L 3169 4666 
L 3169 4134 
L 1269 4134 
L 1269 2991 
Q 1406 3038 1543 3061 
Q 1681 3084 1819 3084 
Q 2600 3084 3056 2656 
Q 3513 2228 3513 1497 
Q 3513 744 3044 326 
Q 2575 -91 1722 -91 
Q 1428 -91 1123 -41 
Q 819 9 494 109 
L 494 744 
Q 775 591 1075 516 
Q 1375 441 1709 441 
Q 2250 441 2565 725 
Q 2881 1009 2881 1497 
Q 2881 1984 2565 2268 
Q 2250 2553 1709 2553 
Q 1456 2553 1204 2497 
Q 953 2441 691 2322 
L 691 4666 
z
" transform="scale(0.015625)"/>
       </defs>
       <use xlink:href="#DejaVuSans-31"/>
       <use xlink:href="#DejaVuSans-32" transform="translate(63.623047 0)"/>
       <use xlink:href="#DejaVuSans-35" transform="translate(127.246094 0)"/>
      </g>
     </g>
    </g>
    <g id="ytick_3">
     <g id="line2d_17">
      <path d="M 42.180312 141.793661 
L 242.373976 141.793661 
" clip-path="url(#p4c0b64f323)" style="fill: none; stroke: #b0b0b0; stroke-opacity: 0.25; stroke-width: 0.5; stroke-linecap: square"/>
     </g>
     <g id="line2d_18">
      <g>
       <use xlink:href="#m1a570ddbe1" x="42.180312" y="141.793661" style="stroke: #000000; stroke-width: 0.8"/>
      </g>
     </g>
     <g id="text_10">
      <!-- 150 -->
      <g transform="translate(19.910312 144.833036) scale(0.08 -0.08)">
       <use xlink:href="#DejaVuSans-31"/>
       <use xlink:href="#DejaVuSans-35" transform="translate(63.623047 0)"/>
       <use xlink:href="#DejaVuSans-30" transform="translate(127.246094 0)"/>
      </g>
     </g>
    </g>
    <g id="ytick_4">
     <g id="line2d_19">
      <path d="M 42.180312 115.482804 
L 242.373976 115.482804 
" clip-path="url(#p4c0b64f323)" style="fill: none; stroke: #b0b0b0; stroke-opacity: 0.25; stroke-width: 0.5; stroke-linecap: square"/>
     </g>
     <g id="line2d_20">
      <g>
       <use xlink:href="#m1a570ddbe1" x="42.180312" y="115.482804" style="stroke: #000000; stroke-width: 0.8"/>
      </g>
     </g>
     <g id="text_11">
      <!-- 175 -->
      <g transform="translate(19.910312 118.522179) scale(0.08 -0.08)">
       <defs>
        <path id="DejaVuSans-37" d="M 525 4666 
L 3525 4666 
L 3525 4397 
L 1831 0 
L 1172 0 
L 2766 4134 
L 525 4134 
L 525 4666 
z
" transform="scale(0.015625)"/>
       </defs>
       <use xlink:href="#DejaVuSans-31"/>
       <use xlink:href="#DejaVuSans-37" transform="translate(63.623047 0)"/>
       <use xlink:href="#DejaVuSans-35" transform="translate(127.246094 0)"/>
      </g>
     </g>
    </g>
    <g id="ytick_5">
     <g id="line2d_21">
      <path d="M 42.180312 89.171947 
L 242.373976 89.171947 
" clip-path="url(#p4c0b64f323)" style="fill: none; stroke: #b0b0b0; stroke-opacity: 0.25; stroke-width: 0.5; stroke-linecap: square"/>
     </g>
     <g id="line2d_22">
      <g>
       <use xlink:href="#m1a570ddbe1" x="42.180312" y="89.171947" style="stroke: #000000; stroke-width: 0.8"/>
      </g>
     </g>
     <g id="text_12">
      <!-- 200 -->
      <g transform="translate(19.910312 92.211322) scale(0.08 -0.08)">
       <use xlink:href="#DejaVuSans-32"/>
       <use xlink:href="#DejaVuSans-30" transform="translate(63.623047 0)"/>
       <use xlink:href="#DejaVuSans-30" transform="translate(127.246094 0)"/>
      </g>
     </g>
    </g>
    <g id="ytick_6">
     <g id="line2d_23">
      <path d="M 42.180312 62.861089 
L 242.373976 62.861089 
" clip-path="url(#p4c0b64f323)" style="fill: none; stroke: #b0b0b0; stroke-opacity: 0.25; stroke-width: 0.5; stroke-linecap: square"/>
     </g>
     <g id="line2d_24">
      <g>
       <use xlink:href="#m1a570ddbe1" x="42.180312" y="62.861089" style="stroke: #000000; stroke-width: 0.8"/>
      </g>
     </g>
     <g id="text_13">
      <!-- 225 -->
      <g transform="translate(19.910312 65.900464) scale(0.08 -0.08)">
       <use xlink:href="#DejaVuSans-32"/>
       <use xlink:href="#DejaVuSans-32" transform="translate(63.623047 0)"/>
       <use xlink:href="#DejaVuSans-35" transform="translate(127.246094 0)"/>
      </g>
     </g>
    </g>
    <g id="ytick_7">
     <g id="line2d_25">
      <path d="M 42.180312 36.550232 
L 242.373976 36.550232 
" clip-path="url(#p4c0b64f323)" style="fill: none; stroke: #b0b0b0; stroke-opacity: 0.25; stroke-width: 0.5; stroke-linecap: square"/>
     </g>
     <g id="line2d_26">
      <g>
       <use xlink:href="#m1a570ddbe1" x="42.180312" y="36.550232" style="stroke: #000000; stroke-width: 0.8"/>
      </g>
     </g>
     <g id="text_14">
      <!-- 250 -->
      <g transform="translate(19.910312 39.589607) scale(0.08 -0.08)">
       <use xlink:href="#DejaVuSans-32"/>
       <use xlink:href="#DejaVuSans-35" transform="translate(63.623047 0)"/>
       <use xlink:href="#DejaVuSans-30" transform="translate(127.246094 0)"/>
      </g>
     </g>
    </g>
    <g id="ytick_8">
     <g id="line2d_27">
      <path d="M 42.180312 10.239375 
L 242.373976 10.239375 
" clip-path="url(#p4c0b64f323)" style="fill: none; stroke: #b0b0b0; stroke-opacity: 0.25; stroke-width: 0.5; stroke-linecap: square"/>
     </g>
     <g id="line2d_28">
      <g>
       <use xlink:href="#m1a570ddbe1" x="42.180312" y="10.239375" style="stroke: #000000; stroke-width: 0.8"/>
      </g>
     </g>
     <g id="text_15">
      <!-- 275 -->
      <g transform="translate(19.910312 13.27875) scale(0.08 -0.08)">
       <use xlink:href="#DejaVuSans-32"/>
       <use xlink:href="#DejaVuSans-37" transform="translate(63.623047 0)"/>
       <use xlink:href="#DejaVuSans-35" transform="translate(127.246094 0)"/>
      </g>
     </g>
    </g>
    <g id="text_16">
     <!-- validation MSE -->
     <g transform="translate(14.038594 137.922311) rotate(-90) scale(0.09 -0.09)">
      <defs>
       <path id="DejaVuSans-76" d="M 191 3500 
L 800 3500 
L 1894 563 
L 2988 3500 
L 3597 3500 
L 2284 0 
L 1503 0 
L 191 3500 
z
" transform="scale(0.015625)"/>
       <path id="DejaVuSans-6c" d="M 603 4863 
L 1178 4863 
L 1178 0 
L 603 0 
L 603 4863 
z
" transform="scale(0.015625)"/>
       <path id="DejaVuSans-64" d="M 2906 2969 
L 2906 4863 
L 3481 4863 
L 3481 0 
L 2906 0 
L 2906 525 
Q 2725 213 2448 61 
Q 2172 -91 1784 -91 
Q 1150 -91 751 415 
Q 353 922 353 1747 
Q 353 2572 751 3078 
Q 1150 3584 1784 3584 
Q 2172 3584 2448 3432 
Q 2725 3281 2906 2969 
z
M 947 1747 
Q 947 1113 1208 752 
Q 1469 391 1925 391 
Q 2381 391 2643 752 
Q 2906 1113 2906 1747 
Q 2906 2381 2643 2742 
Q 2381 3103 1925 3103 
Q 1469 3103 1208 2742 
Q 947 2381 947 1747 
z
" transform="scale(0.015625)"/>
       <path id="DejaVuSans-6f" d="M 1959 3097 
Q 1497 3097 1228 2736 
Q 959 2375 959 1747 
Q 959 1119 1226 758 
Q 1494 397 1959 397 
Q 2419 397 2687 759 
Q 2956 1122 2956 1747 
Q 2956 2369 2687 2733 
Q 2419 3097 1959 3097 
z
M 1959 3584 
Q 2709 3584 3137 3096 
Q 3566 2609 3566 1747 
Q 3566 888 3137 398 
Q 2709 -91 1959 -91 
Q 1206 -91 779 398 
Q 353 888 353 1747 
Q 353 2609 779 3096 
Q 1206 3584 1959 3584 
z
" transform="scale(0.015625)"/>
       <path id="DejaVuSans-4d" d="M 628 4666 
L 1569 4666 
L 2759 1491 
L 3956 4666 
L 4897 4666 
L 4897 0 
L 4281 0 
L 4281 4097 
L 3078 897 
L 2444 897 
L 1241 4097 
L 1241 0 
L 628 0 
L 628 4666 
z
" transform="scale(0.015625)"/>
       <path id="DejaVuSans-53" d="M 3425 4513 
L 3425 3897 
Q 3066 4069 2747 4153 
Q 2428 4238 2131 4238 
Q 1616 4238 1336 4038 
Q 1056 3838 1056 3469 
Q 1056 3159 1242 3001 
Q 1428 2844 1947 2747 
L 2328 2669 
Q 3034 2534 3370 2195 
Q 3706 1856 3706 1288 
Q 3706 609 3251 259 
Q 2797 -91 1919 -91 
Q 1588 -91 1214 -16 
Q 841 59 441 206 
L 441 856 
Q 825 641 1194 531 
Q 1563 422 1919 422 
Q 2459 422 2753 634 
Q 3047 847 3047 1241 
Q 3047 1584 2836 1778 
Q 2625 1972 2144 2069 
L 1759 2144 
Q 1053 2284 737 2584 
Q 422 2884 422 3419 
Q 422 4038 858 4394 
Q 1294 4750 2059 4750 
Q 2388 4750 2728 4690 
Q 3069 4631 3425 4513 
z
" transform="scale(0.015625)"/>
       <path id="DejaVuSans-45" d="M 628 4666 
L 3578 4666 
L 3578 4134 
L 1259 4134 
L 1259 2753 
L 3481 2753 
L 3481 2222 
L 1259 2222 
L 1259 531 
L 3634 531 
L 3634 0 
L 628 0 
L 628 4666 
z
" transform="scale(0.015625)"/>
      </defs>
      <use xlink:href="#DejaVuSans-76"/>
      <use xlink:href="#DejaVuSans-61" transform="translate(59.179688 0)"/>
      <use xlink:href="#DejaVuSans-6c" transform="translate(120.458984 0)"/>
      <use xlink:href="#DejaVuSans-69" transform="translate(148.242188 0)"/>
      <use xlink:href="#DejaVuSans-64" transform="translate(176.025391 0)"/>
      <use xlink:href="#DejaVuSans-61" transform="translate(239.501953 0)"/>
      <use xlink:href="#DejaVuSans-74" transform="translate(300.78125 0)"/>
      <use xlink:href="#DejaVuSans-69" transform="translate(339.990234 0)"/>
      <use xlink:href="#DejaVuSans-6f" transform="translate(367.773438 0)"/>
      <use xlink:href="#DejaVuSans-6e" transform="translate(428.955078 0)"/>
      <use xlink:href="#DejaVuSans-20" transform="translate(492.333984 0)"/>
      <use xlink:href="#DejaVuSans-4d" transform="translate(524.121094 0)"/>
      <use xlink:href="#DejaVuSans-53" transform="translate(610.400391 0)"/>
      <use xlink:href="#DejaVuSans-45" transform="translate(673.876953 0)"/>
     </g>
    </g>
   </g>
   <g id="patch_3">
    <path d="M 42.180312 201.963537 
L 42.180312 7.544053 
" style="fill: none; stroke: #000000; stroke-width: 0.8; stroke-linejoin: miter; stroke-linecap: square"/>
   </g>
   <g id="patch_4">
    <path d="M 242.373976 201.963537 
L 242.373976 7.544053 
" style="fill: none; stroke: #000000; stroke-width: 0.8; stroke-linejoin: miter; stroke-linecap: square"/>
   </g>
   <g id="patch_5">
    <path d="M 42.180312 201.963537 
L 242.373976 201.963537 
" style="fill: none; stroke: #000000; stroke-width: 0.8; stroke-linejoin: miter; stroke-linecap: square"/>
   </g>
   <g id="patch_6">
    <path d="M 42.180312 7.544053 
L 242.373976 7.544053 
" style="fill: none; stroke: #000000; stroke-width: 0.8; stroke-linejoin: miter; stroke-linecap: square"/>
   </g>
   <g id="line2d_29">
    <path d="M 43.964216 18.123021 
L 45.74812 21.961636 
L 47.532024 27.421772 
L 49.315928 35.41159 
L 51.099832 48.253519 
L 52.883736 64.039195 
L 54.66764 78.210117 
L 56.451544 94.773515 
L 58.235448 112.174973 
L 60.019352 131.149406 
L 61.803256 148.247399 
L 63.58716 160.500504 
L 65.371064 167.655632 
L 67.154968 172.817298 
L 68.938871 176.219032 
L 70.722775 178.965024 
L 72.506679 180.009511 
L 74.290583 182.663568 
L 76.074487 183.884441 
L 77.858391 185.010481 
L 79.642295 185.906939 
L 81.426199 186.802867 
L 83.210103 187.330938 
L 84.994007 187.80608 
L 86.777911 188.310649 
L 88.561815 188.632091 
L 90.345719 188.865859 
L 92.129623 189.21113 
L 93.913526 189.24293 
L 95.69743 189.504722 
L 97.481334 189.672742 
L 99.265238 189.661479 
L 101.049142 189.850888 
L 102.833046 190.044343 
L 104.61695 190.235654 
L 106.400854 190.456696 
L 108.184758 190.156707 
L 109.968662 190.085247 
L 111.752566 190.435281 
L 113.53647 190.553861 
L 115.320374 190.77433 
L 117.104278 190.929704 
L 118.888182 191.120541 
L 120.672085 191.191683 
L 122.455989 191.113212 
L 124.239893 191.155172 
L 126.023797 191.534607 
L 127.807701 191.51706 
L 129.591605 191.790231 
L 131.375509 191.747318 
L 133.159413 192.099628 
L 134.943317 192.118733 
L 136.727221 192.284503 
L 138.511125 192.409287 
L 140.295029 192.415584 
L 142.078933 192.637624 
L 143.862837 192.63392 
L 145.64674 192.737739 
L 147.430644 192.719065 
L 149.214548 192.801331 
L 150.998452 192.786282 
L 152.782356 192.810351 
L 154.56626 192.819141 
L 156.350164 192.87755 
L 158.134068 192.80494 
L 159.917972 192.930513 
L 161.701876 192.971432 
L 163.48578 192.942822 
L 165.269684 192.953443 
L 167.053588 192.969124 
L 168.837492 192.991696 
L 170.621396 193.024479 
L 172.405299 192.95993 
L 174.189203 192.990295 
L 175.973107 193.038623 
L 177.757011 193.004848 
L 179.540915 193.024302 
L 181.324819 193.007382 
L 183.108723 193.027228 
L 184.892627 193.035936 
L 186.676531 193.052738 
L 188.460435 193.040989 
L 190.244339 193.072458 
L 192.028243 193.014686 
L 193.812147 193.042751 
L 195.596051 193.062869 
L 197.379954 193.047941 
L 199.163858 193.040228 
L 200.947762 193.077978 
L 202.731666 193.075345 
L 204.51557 193.067506 
L 206.299474 193.099249 
L 208.083378 193.094094 
L 209.867282 193.090129 
L 211.651186 193.104306 
L 213.43509 193.091945 
L 215.218994 193.088518 
L 217.002898 193.080794 
L 218.786802 193.101259 
L 220.570706 193.084982 
L 222.35461 193.109724 
L 224.138513 193.108959 
L 225.922417 193.1009 
L 227.706321 193.101894 
L 229.490225 193.110419 
L 231.274129 193.125503 
L 233.058033 193.121851 
L 234.841937 193.110341 
L 236.625841 193.126288 
L 238.409745 193.11158 
L 240.193649 193.118212 
L 241.977553 193.1201 
" clip-path="url(#p4c0b64f323)" style="fill: none; stroke: #0072b2; stroke-width: 1.8; stroke-linecap: square"/>
    <defs>
     <path id="m99b142c7b1" d="M 0 2 
C 0.530406 2 1.03916 1.789267 1.414214 1.414214 
C 1.789267 1.03916 2 0.530406 2 0 
C 2 -0.530406 1.789267 -1.03916 1.414214 -1.414214 
C 1.03916 -1.789267 0.530406 -2 0 -2 
C -0.530406 -2 -1.03916 -1.789267 -1.414214 -1.414214 
C -1.789267 -1.03916 -2 -0.530406 -2 0 
C -2 0.530406 -1.789267 1.03916 -1.414214 1.414214 
C -1.03916 1.789267 -0.530406 2 0 2 
z
" style="stroke: #ffffff; stroke-width: 0.4"/>
    </defs>
    <g clip-path="url(#p4c0b64f323)">
     <use xlink:href="#m99b142c7b1" x="43.964216" y="18.123021" style="fill: #0072b2; stroke: #ffffff; stroke-width: 0.4"/>
     <use xlink:href="#m99b142c7b1" x="68.938871" y="176.219032" style="fill: #0072b2; stroke: #ffffff; stroke-width: 0.4"/>
     <use xlink:href="#m99b142c7b1" x="93.913526" y="189.24293" style="fill: #0072b2; stroke: #ffffff; stroke-width: 0.4"/>
     <use xlink:href="#m99b142c7b1" x="118.888182" y="191.120541" style="fill: #0072b2; stroke: #ffffff; stroke-width: 0.4"/>
     <use xlink:href="#m99b142c7b1" x="143.862837" y="192.63392" style="fill: #0072b2; stroke: #ffffff; stroke-width: 0.4"/>
     <use xlink:href="#m99b142c7b1" x="168.837492" y="192.991696" style="fill: #0072b2; stroke: #ffffff; stroke-width: 0.4"/>
     <use xlink:href="#m99b142c7b1" x="193.812147" y="193.042751" style="fill: #0072b2; stroke: #ffffff; stroke-width: 0.4"/>
     <use xlink:href="#m99b142c7b1" x="218.786802" y="193.101259" style="fill: #0072b2; stroke: #ffffff; stroke-width: 0.4"/>
    </g>
   </g>
   <g id="line2d_30">
    <path d="M 43.964216 140.754575 
L 45.74812 142.417176 
L 47.532024 143.292441 
L 49.315928 143.590944 
L 51.099832 143.902059 
L 52.883736 144.334922 
L 54.66764 145.000316 
L 56.451544 146.098315 
L 58.235448 146.985585 
L 60.019352 148.13441 
L 61.803256 149.112507 
L 63.58716 150.405958 
L 65.371064 151.653592 
L 67.154968 153.263366 
L 68.938871 155.8626 
L 70.722775 157.897726 
L 72.506679 160.287349 
L 74.290583 162.110505 
L 76.074487 163.808859 
L 77.858391 166.229452 
L 79.642295 167.481413 
L 81.426199 169.65029 
L 83.210103 171.455324 
L 84.994007 173.193387 
L 86.777911 172.680418 
L 88.561815 174.369044 
L 90.345719 176.23812 
L 92.129623 178.721399 
L 93.913526 178.454743 
L 95.69743 180.14286 
L 97.481334 181.450256 
L 99.265238 181.986549 
L 101.049142 182.831525 
L 102.833046 182.741938 
L 104.61695 184.120979 
L 106.400854 185.373365 
L 108.184758 185.738001 
L 109.968662 187.58782 
L 111.752566 185.984987 
L 113.53647 186.898308 
L 115.320374 187.332377 
L 117.104278 187.561116 
L 118.888182 186.639145 
L 120.672085 186.500435 
L 122.455989 188.118482 
L 124.239893 188.01714 
L 126.023797 188.416036 
L 127.807701 188.65621 
L 129.591605 188.424258 
L 131.375509 188.585183 
L 133.159413 188.998599 
L 134.943317 188.950849 
L 136.727221 189.195752 
L 138.511125 189.065265 
L 140.295029 189.495691 
L 142.078933 189.435383 
L 143.862837 189.825697 
L 145.64674 189.575927 
L 147.430644 189.884446 
L 149.214548 189.797421 
L 150.998452 189.93991 
L 152.782356 189.846493 
L 154.56626 190.147034 
L 156.350164 190.239978 
L 158.134068 190.105869 
L 159.917972 190.153579 
L 161.701876 190.387209 
L 163.48578 190.321166 
L 165.269684 190.537305 
L 167.053588 190.469417 
L 168.837492 190.680255 
L 170.621396 190.65066 
L 172.405299 190.773363 
L 174.189203 190.811544 
L 175.973107 190.66779 
L 177.757011 189.954219 
L 179.540915 190.785689 
L 181.324819 190.207143 
L 183.108723 190.773245 
L 184.892627 190.643234 
L 186.676531 190.857349 
L 188.460435 190.969183 
L 190.244339 190.933586 
L 192.028243 191.22273 
L 193.812147 191.218859 
L 195.596051 190.991051 
L 197.379954 191.252959 
L 199.163858 191.342575 
L 200.947762 191.364599 
L 202.731666 191.305067 
L 204.51557 191.356982 
L 206.299474 191.474725 
L 208.083378 191.418538 
L 209.867282 191.577332 
L 211.651186 191.519462 
L 213.43509 191.596974 
L 215.218994 191.531952 
L 217.002898 191.668347 
L 218.786802 191.693194 
L 220.570706 191.728815 
L 222.35461 191.744634 
L 224.138513 191.791235 
L 225.922417 191.825304 
L 227.706321 191.845337 
L 229.490225 191.873115 
L 231.274129 191.885891 
L 233.058033 191.946271 
L 234.841937 191.964294 
L 236.625841 191.993463 
L 238.409745 192.017817 
L 240.193649 192.07575 
L 241.977553 192.097697 
" clip-path="url(#p4c0b64f323)" style="fill: none; stroke-dasharray: 5.4,1.8,1.8,1.8; stroke-dashoffset: 0; stroke: #000000; stroke-width: 1.8"/>
    <defs>
     <path id="m1b0d2ae0ec" d="M -0.666667 2 
L 0.666667 2 
L 0.666667 0.666667 
L 2 0.666667 
L 2 -0.666667 
L 0.666667 -0.666667 
L 0.666667 -2 
L -0.666667 -2 
L -0.666667 -0.666667 
L -2 -0.666667 
L -2 0.666667 
L -0.666667 0.666667 
z
" style="stroke: #ffffff; stroke-width: 0.4; stroke-linejoin: miter"/>
    </defs>
    <g clip-path="url(#p4c0b64f323)">
     <use xlink:href="#m1b0d2ae0ec" x="43.964216" y="140.754575" style="stroke: #ffffff; stroke-width: 0.4; stroke-linejoin: miter"/>
     <use xlink:href="#m1b0d2ae0ec" x="68.938871" y="155.8626" style="stroke: #ffffff; stroke-width: 0.4; stroke-linejoin: miter"/>
     <use xlink:href="#m1b0d2ae0ec" x="93.913526" y="178.454743" style="stroke: #ffffff; stroke-width: 0.4; stroke-linejoin: miter"/>
     <use xlink:href="#m1b0d2ae0ec" x="118.888182" y="186.639145" style="stroke: #ffffff; stroke-width: 0.4; stroke-linejoin: miter"/>
     <use xlink:href="#m1b0d2ae0ec" x="143.862837" y="189.825697" style="stroke: #ffffff; stroke-width: 0.4; stroke-linejoin: miter"/>
     <use xlink:href="#m1b0d2ae0ec" x="168.837492" y="190.680255" style="stroke: #ffffff; stroke-width: 0.4; stroke-linejoin: miter"/>
     <use xlink:href="#m1b0d2ae0ec" x="193.812147" y="191.218859" style="stroke: #ffffff; stroke-width: 0.4; stroke-linejoin: miter"/>
     <use xlink:href="#m1b0d2ae0ec" x="218.786802" y="191.693194" style="stroke: #ffffff; stroke-width: 0.4; stroke-linejoin: miter"/>
    </g>
   </g>
   <g id="line2d_31">
    <path d="M 43.964216 76.050468 
L 45.74812 78.219326 
L 47.532024 81.47331 
L 49.315928 85.596868 
L 51.099832 91.308798 
L 52.883736 100.029322 
L 54.66764 111.626594 
L 56.451544 124.295554 
L 58.235448 133.482206 
L 60.019352 142.148963 
L 61.803256 149.554128 
L 63.58716 154.024702 
L 65.371064 158.622533 
L 67.154968 162.095947 
L 68.938871 164.41827 
L 70.722775 165.721333 
L 72.506679 166.916275 
L 74.290583 168.356349 
L 76.074487 170.794424 
L 77.858391 174.057454 
L 79.642295 177.683975 
L 81.426199 180.57355 
L 83.210103 181.927487 
L 84.994007 182.638722 
L 86.777911 183.200506 
L 88.561815 183.559649 
L 90.345719 183.839038 
L 92.129623 184.009926 
L 93.913526 184.089384 
L 95.69743 184.133964 
L 97.481334 184.171192 
L 99.265238 184.199822 
L 101.049142 184.254661 
L 102.833046 184.290972 
L 104.61695 184.300109 
L 106.400854 184.266788 
L 108.184758 184.324964 
L 109.968662 184.336037 
L 111.752566 184.499368 
L 113.53647 184.71387 
L 115.320374 185.106932 
L 117.104278 185.660421 
L 118.888182 186.313821 
L 120.672085 187.010533 
L 122.455989 187.634052 
L 124.239893 188.021614 
L 126.023797 188.249689 
L 127.807701 188.407597 
L 129.591605 188.523873 
L 131.375509 188.609603 
L 133.159413 188.697378 
L 134.943317 188.755441 
L 136.727221 188.804083 
L 138.511125 188.86277 
L 140.295029 188.895181 
L 142.078933 188.913668 
L 143.862837 188.944014 
L 145.64674 188.954213 
L 147.430644 188.947602 
L 149.214548 188.96872 
L 150.998452 188.9828 
L 152.782356 189.00285 
L 154.56626 189.009038 
L 156.350164 189.000333 
L 158.134068 189.015681 
L 159.917972 189.005648 
L 161.701876 189.014266 
L 163.48578 189.016708 
L 165.269684 189.022947 
L 167.053588 188.994666 
L 168.837492 189.000094 
L 170.621396 189.021854 
L 172.405299 189.025185 
L 174.189203 189.007789 
L 175.973107 189.017909 
L 177.757011 189.022665 
L 179.540915 189.024752 
L 181.324819 189.023789 
L 183.108723 189.005905 
L 184.892627 189.031241 
L 186.676531 189.022597 
L 188.460435 189.017293 
L 190.244339 189.006498 
L 192.028243 189.030308 
L 193.812147 189.011904 
L 195.596051 189.028899 
L 197.379954 189.031444 
L 199.163858 189.01086 
L 200.947762 189.025059 
L 202.731666 189.018197 
L 204.51557 189.029051 
L 206.299474 189.038554 
L 208.083378 189.023892 
L 209.867282 189.026913 
L 211.651186 189.029836 
L 213.43509 189.035536 
L 215.218994 189.027422 
L 217.002898 189.022588 
L 218.786802 189.030319 
L 220.570706 189.022613 
L 222.35461 189.03843 
L 224.138513 189.024955 
L 225.922417 189.037571 
L 227.706321 189.031651 
L 229.490225 189.031109 
L 231.274129 189.033571 
L 233.058033 189.031457 
L 234.841937 189.03153 
L 236.625841 189.040102 
L 238.409745 189.033641 
L 240.193649 189.03622 
L 241.977553 189.032513 
" clip-path="url(#p4c0b64f323)" style="fill: none; stroke-dasharray: 9,3.6; stroke-dashoffset: 0; stroke: #009e73; stroke-width: 1.8"/>
    <defs>
     <path id="mb0de60f5bc" d="M -0 2.828427 
L 2.828427 0 
L 0 -2.828427 
L -2.828427 -0 
z
" style="stroke: #ffffff; stroke-width: 0.4; stroke-linejoin: miter"/>
    </defs>
    <g clip-path="url(#p4c0b64f323)">
     <use xlink:href="#mb0de60f5bc" x="43.964216" y="76.050468" style="fill: #009e73; stroke: #ffffff; stroke-width: 0.4; stroke-linejoin: miter"/>
     <use xlink:href="#mb0de60f5bc" x="68.938871" y="164.41827" style="fill: #009e73; stroke: #ffffff; stroke-width: 0.4; stroke-linejoin: miter"/>
     <use xlink:href="#mb0de60f5bc" x="93.913526" y="184.089384" style="fill: #009e73; stroke: #ffffff; stroke-width: 0.4; stroke-linejoin: miter"/>
     <use xlink:href="#mb0de60f5bc" x="118.888182" y="186.313821" style="fill: #009e73; stroke: #ffffff; stroke-width: 0.4; stroke-linejoin: miter"/>
     <use xlink:href="#mb0de60f5bc" x="143.862837" y="188.944014" style="fill: #009e73; stroke: #ffffff; stroke-width: 0.4; stroke-linejoin: miter"/>
     <use xlink:href="#mb0de60f5bc" x="168.837492" y="189.000094" style="fill: #009e73; stroke: #ffffff; stroke-width: 0.4; stroke-linejoin: miter"/>
     <use xlink:href="#mb0de60f5bc" x="193.812147" y="189.011904" style="fill: #009e73; stroke: #ffffff; stroke-width: 0.4; stroke-linejoin: miter"/>
     <use xlink:href="#mb0de60f5bc" x="218.786802" y="189.030319" style="fill: #009e73; stroke: #ffffff; stroke-width: 0.4; stroke-linejoin: miter"/>
    </g>
   </g>
   <g id="line2d_32">
    <path d="M 43.964216 76.6294 
L 45.74812 80.084941 
L 47.532024 84.571486 
L 49.315928 89.661915 
L 51.099832 96.617939 
L 52.883736 107.004861 
L 54.66764 118.315222 
L 56.451544 125.825976 
L 58.235448 134.516641 
L 60.019352 142.465503 
L 61.803256 149.121387 
L 63.58716 155.800818 
L 65.371064 161.555677 
L 67.154968 164.974185 
L 68.938871 169.327535 
L 70.722775 172.894364 
L 72.506679 175.364181 
L 74.290583 177.4949 
L 76.074487 180.077965 
L 77.858391 182.38632 
L 79.642295 183.538301 
L 81.426199 184.383703 
L 83.210103 185.095621 
L 84.994007 185.709821 
L 86.777911 186.12686 
L 88.561815 186.402023 
L 90.345719 186.523742 
L 92.129623 186.65479 
L 93.913526 186.738855 
L 95.69743 186.834118 
L 97.481334 186.945324 
L 99.265238 187.006548 
L 101.049142 187.027331 
L 102.833046 187.048163 
L 104.61695 187.019243 
L 106.400854 187.066098 
L 108.184758 186.994577 
L 109.968662 187.024853 
L 111.752566 187.051125 
L 113.53647 187.044299 
L 115.320374 187.057459 
L 117.104278 187.081718 
L 118.888182 187.017561 
L 120.672085 187.053747 
L 122.455989 187.057019 
L 124.239893 187.05742 
L 126.023797 187.066351 
L 127.807701 187.042399 
L 129.591605 187.072076 
L 131.375509 187.096145 
L 133.159413 187.079765 
L 134.943317 187.073763 
L 136.727221 187.089768 
L 138.511125 187.076988 
L 140.295029 187.080865 
L 142.078933 187.0926 
L 143.862837 187.086542 
L 145.64674 187.041061 
L 147.430644 187.093517 
L 149.214548 187.055461 
L 150.998452 187.05919 
L 152.782356 187.062943 
L 154.56626 187.076861 
L 156.350164 187.093655 
L 158.134068 187.077347 
L 159.917972 187.033812 
L 161.701876 187.090349 
L 163.48578 187.077752 
L 165.269684 187.083467 
L 167.053588 187.099527 
L 168.837492 187.096853 
L 170.621396 187.086343 
L 172.405299 187.108982 
L 174.189203 187.094944 
L 175.973107 187.102537 
L 177.757011 187.094046 
L 179.540915 187.091008 
L 181.324819 187.114409 
L 183.108723 187.100275 
L 184.892627 187.112025 
L 186.676531 187.09279 
L 188.460435 187.104179 
L 190.244339 187.08893 
L 192.028243 187.107922 
L 193.812147 187.104352 
L 195.596051 187.093377 
L 197.379954 187.117537 
L 199.163858 187.102999 
L 200.947762 187.107135 
L 202.731666 187.111109 
L 204.51557 187.113367 
L 206.299474 187.107905 
L 208.083378 187.114554 
L 209.867282 187.111881 
L 211.651186 187.113602 
L 213.43509 187.112688 
L 215.218994 187.114596 
L 217.002898 187.113445 
L 218.786802 187.11525 
L 220.570706 187.117699 
L 222.35461 187.10758 
L 224.138513 187.109282 
L 225.922417 187.118198 
L 227.706321 187.1195 
L 229.490225 187.121403 
L 231.274129 187.121798 
L 233.058033 187.119076 
L 234.841937 187.1138 
L 236.625841 187.120098 
L 238.409745 187.120747 
L 240.193649 187.121858 
L 241.977553 187.117282 
" clip-path="url(#p4c0b64f323)" style="fill: none; stroke-dasharray: 1.8,1.8; stroke-dashoffset: 0; stroke: #56b4e9; stroke-width: 1.8"/>
    <defs>
     <path id="m1e690869e4" d="M -0 2 
L 2 -2 
L -2 -2 
z
" style="stroke: #ffffff; stroke-width: 0.4; stroke-linejoin: miter"/>
    </defs>
    <g clip-path="url(#p4c0b64f323)">
     <use xlink:href="#m1e690869e4" x="43.964216" y="76.6294" style="fill: #56b4e9; stroke: #ffffff; stroke-width: 0.4; stroke-linejoin: miter"/>
     <use xlink:href="#m1e690869e4" x="68.938871" y="169.327535" style="fill: #56b4e9; stroke: #ffffff; stroke-width: 0.4; stroke-linejoin: miter"/>
     <use xlink:href="#m1e690869e4" x="93.913526" y="186.738855" style="fill: #56b4e9; stroke: #ffffff; stroke-width: 0.4; stroke-linejoin: miter"/>
     <use xlink:href="#m1e690869e4" x="118.888182" y="187.017561" style="fill: #56b4e9; stroke: #ffffff; stroke-width: 0.4; stroke-linejoin: miter"/>
     <use xlink:href="#m1e690869e4" x="143.862837" y="187.086542" style="fill: #56b4e9; stroke: #ffffff; stroke-width: 0.4; stroke-linejoin: miter"/>
     <use xlink:href="#m1e690869e4" x="168.837492" y="187.096853" style="fill: #56b4e9; stroke: #ffffff; stroke-width: 0.4; stroke-linejoin: miter"/>
     <use xlink:href="#m1e690869e4" x="193.812147" y="187.104352" style="fill: #56b4e9; stroke: #ffffff; stroke-width: 0.4; stroke-linejoin: miter"/>
     <use xlink:href="#m1e690869e4" x="218.786802" y="187.11525" style="fill: #56b4e9; stroke: #ffffff; stroke-width: 0.4; stroke-linejoin: miter"/>
    </g>
   </g>
   <g id="line2d_33">
    <path d="M 43.964216 16.381302 
L 45.74812 16.393227 
L 47.532024 16.406676 
L 49.315928 16.499079 
L 51.099832 16.836627 
L 52.883736 17.709201 
L 54.66764 19.189734 
L 56.451544 21.174641 
L 58.235448 23.748395 
L 60.019352 27.011819 
L 61.803256 30.940428 
L 63.58716 35.653867 
L 65.371064 41.195784 
L 67.154968 47.379846 
L 68.938871 53.909482 
L 70.722775 60.712162 
L 72.506679 67.766594 
L 74.290583 75.295376 
L 76.074487 83.83005 
L 77.858391 94.282627 
L 79.642295 106.954024 
L 81.426199 119.732094 
L 83.210103 129.218841 
L 84.994007 133.350189 
L 86.777911 135.028649 
L 88.561815 136.492535 
L 90.345719 137.950213 
L 92.129623 139.384163 
L 93.913526 140.675766 
L 95.69743 141.712434 
L 97.481334 142.488847 
L 99.265238 143.014942 
L 101.049142 143.329477 
L 102.833046 143.408871 
L 104.61695 143.437277 
L 106.400854 143.454186 
L 108.184758 143.468899 
L 109.968662 143.465414 
L 111.752566 143.457077 
L 113.53647 143.451315 
L 115.320374 143.440819 
L 117.104278 143.44337 
L 118.888182 143.447689 
L 120.672085 143.470847 
L 122.455989 143.460971 
L 124.239893 143.464012 
L 126.023797 143.475188 
L 127.807701 143.478512 
L 129.591605 143.435502 
L 131.375509 143.461875 
L 133.159413 143.475549 
L 134.943317 143.464918 
L 136.727221 143.470812 
L 138.511125 143.468224 
L 140.295029 143.471673 
L 142.078933 143.472621 
L 143.862837 143.475069 
L 145.64674 143.468701 
L 147.430644 143.464604 
L 149.214548 143.478293 
L 150.998452 143.472677 
L 152.782356 143.467494 
L 154.56626 143.470725 
L 156.350164 143.473634 
L 158.134068 143.471683 
L 159.917972 143.475239 
L 161.701876 143.461081 
L 163.48578 143.46934 
L 165.269684 143.467774 
L 167.053588 143.475621 
L 168.837492 143.480543 
L 170.621396 143.478075 
L 172.405299 143.475561 
L 174.189203 143.472009 
L 175.973107 143.47761 
L 177.757011 143.467654 
L 179.540915 143.475352 
L 181.324819 143.478694 
L 183.108723 143.48398 
L 184.892627 143.475393 
L 186.676531 143.48538 
L 188.460435 143.477679 
L 190.244339 143.481016 
L 192.028243 143.478889 
L 193.812147 143.481245 
L 195.596051 143.47525 
L 197.379954 143.475634 
L 199.163858 143.481223 
L 200.947762 143.482822 
L 202.731666 143.479569 
L 204.51557 143.484483 
L 206.299474 143.478958 
L 208.083378 143.483281 
L 209.867282 143.483269 
L 211.651186 143.483316 
L 213.43509 143.482739 
L 215.218994 143.483178 
L 217.002898 143.482734 
L 218.786802 143.483491 
L 220.570706 143.483528 
L 222.35461 143.483096 
L 224.138513 143.485006 
L 225.922417 143.485372 
L 227.706321 143.486052 
L 229.490225 143.484007 
L 231.274129 143.482983 
L 233.058033 143.484899 
L 234.841937 143.48415 
L 236.625841 143.484441 
L 238.409745 143.482601 
L 240.193649 143.48524 
L 241.977553 143.483562 
" clip-path="url(#p4c0b64f323)" style="fill: none; stroke-dasharray: 9,3.6; stroke-dashoffset: 0; stroke: #e69f00; stroke-width: 1.8"/>
    <defs>
     <path id="m1f57468b4e" d="M -2 2 
L 2 2 
L 2 -2 
L -2 -2 
z
" style="stroke: #ffffff; stroke-width: 0.4; stroke-linejoin: miter"/>
    </defs>
    <g clip-path="url(#p4c0b64f323)">
     <use xlink:href="#m1f57468b4e" x="43.964216" y="16.381302" style="fill: #e69f00; stroke: #ffffff; stroke-width: 0.4; stroke-linejoin: miter"/>
     <use xlink:href="#m1f57468b4e" x="68.938871" y="53.909482" style="fill: #e69f00; stroke: #ffffff; stroke-width: 0.4; stroke-linejoin: miter"/>
     <use xlink:href="#m1f57468b4e" x="93.913526" y="140.675766" style="fill: #e69f00; stroke: #ffffff; stroke-width: 0.4; stroke-linejoin: miter"/>
     <use xlink:href="#m1f57468b4e" x="118.888182" y="143.447689" style="fill: #e69f00; stroke: #ffffff; stroke-width: 0.4; stroke-linejoin: miter"/>
     <use xlink:href="#m1f57468b4e" x="143.862837" y="143.475069" style="fill: #e69f00; stroke: #ffffff; stroke-width: 0.4; stroke-linejoin: miter"/>
     <use xlink:href="#m1f57468b4e" x="168.837492" y="143.480543" style="fill: #e69f00; stroke: #ffffff; stroke-width: 0.4; stroke-linejoin: miter"/>
     <use xlink:href="#m1f57468b4e" x="193.812147" y="143.481245" style="fill: #e69f00; stroke: #ffffff; stroke-width: 0.4; stroke-linejoin: miter"/>
     <use xlink:href="#m1f57468b4e" x="218.786802" y="143.483491" style="fill: #e69f00; stroke: #ffffff; stroke-width: 0.4; stroke-linejoin: miter"/>
    </g>
   </g>
   <g id="line2d_34">
    <path d="M 43.964216 16.381302 
L 45.74812 16.393227 
L 47.532024 16.406676 
L 49.315928 16.499079 
L 51.099832 16.836627 
L 52.883736 17.709201 
L 54.66764 19.189734 
L 56.451544 21.174641 
L 58.235448 23.748395 
L 60.019352 27.011819 
L 61.803256 30.940428 
L 63.58716 35.653867 
L 65.371064 41.195784 
L 67.154968 47.379847 
L 68.938871 53.909482 
L 70.722775 60.712162 
L 72.506679 67.766594 
L 74.290583 75.295376 
L 76.074487 83.830051 
L 77.858391 94.282628 
L 79.642295 106.954024 
L 81.426199 119.732095 
L 83.210103 129.218841 
L 84.994007 133.350189 
L 86.777911 135.028648 
L 88.561815 136.492538 
L 90.345719 137.950174 
L 92.129623 139.384474 
L 93.913526 140.649969 
L 95.69743 141.655418 
L 97.481334 142.447167 
L 99.265238 142.934001 
L 101.049142 143.261273 
L 102.833046 143.358859 
L 104.61695 143.427536 
L 106.400854 143.444833 
L 108.184758 143.463215 
L 109.968662 143.466219 
L 111.752566 143.46001 
L 113.53647 143.474164 
L 115.320374 143.445581 
L 117.104278 143.47074 
L 118.888182 143.469509 
L 120.672085 143.474053 
L 122.455989 143.470445 
L 124.239893 143.468972 
L 126.023797 143.460844 
L 127.807701 143.47235 
L 129.591605 143.455442 
L 131.375509 143.460723 
L 133.159413 143.477187 
L 134.943317 143.446689 
L 136.727221 143.464681 
L 138.511125 143.466551 
L 140.295029 143.472218 
L 142.078933 143.470258 
L 143.862837 143.46673 
L 145.64674 143.470379 
L 147.430644 143.465996 
L 149.214548 143.469867 
L 150.998452 143.472225 
L 152.782356 143.459457 
L 154.56626 143.470307 
L 156.350164 143.472092 
L 158.134068 143.468346 
L 159.917972 143.471239 
L 161.701876 143.47688 
L 163.48578 143.472841 
L 165.269684 143.472449 
L 167.053588 143.474068 
L 168.837492 143.475441 
L 170.621396 143.480673 
L 172.405299 143.479812 
L 174.189203 143.472154 
L 175.973107 143.478878 
L 177.757011 143.466319 
L 179.540915 143.474108 
L 181.324819 143.47267 
L 183.108723 143.483413 
L 184.892627 143.474853 
L 186.676531 143.484051 
L 188.460435 143.480609 
L 190.244339 143.48014 
L 192.028243 143.474981 
L 193.812147 143.480382 
L 195.596051 143.475949 
L 197.379954 143.475318 
L 199.163858 143.481041 
L 200.947762 143.483613 
L 202.731666 143.480569 
L 204.51557 143.483513 
L 206.299474 143.479679 
L 208.083378 143.483478 
L 209.867282 143.482766 
L 211.651186 143.482679 
L 213.43509 143.483199 
L 215.218994 143.482896 
L 217.002898 143.48254 
L 218.786802 143.483181 
L 220.570706 143.484236 
L 222.35461 143.482663 
L 224.138513 143.485143 
L 225.922417 143.485183 
L 227.706321 143.48582 
L 229.490225 143.483893 
L 231.274129 143.482922 
L 233.058033 143.484907 
L 234.841937 143.48409 
L 236.625841 143.484406 
L 238.409745 143.482574 
L 240.193649 143.485169 
L 241.977553 143.483392 
" clip-path="url(#p4c0b64f323)" style="fill: none; stroke-dasharray: 1.8,1.8; stroke-dashoffset: 0; stroke: #d55e00; stroke-width: 1.8"/>
    <defs>
     <path id="m9a84b3094f" d="M 0 -2 
L -2 2 
L 2 2 
z
" style="stroke: #ffffff; stroke-width: 0.4; stroke-linejoin: miter"/>
    </defs>
    <g clip-path="url(#p4c0b64f323)">
     <use xlink:href="#m9a84b3094f" x="43.964216" y="16.381302" style="fill: #d55e00; stroke: #ffffff; stroke-width: 0.4; stroke-linejoin: miter"/>
     <use xlink:href="#m9a84b3094f" x="68.938871" y="53.909482" style="fill: #d55e00; stroke: #ffffff; stroke-width: 0.4; stroke-linejoin: miter"/>
     <use xlink:href="#m9a84b3094f" x="93.913526" y="140.649969" style="fill: #d55e00; stroke: #ffffff; stroke-width: 0.4; stroke-linejoin: miter"/>
     <use xlink:href="#m9a84b3094f" x="118.888182" y="143.469509" style="fill: #d55e00; stroke: #ffffff; stroke-width: 0.4; stroke-linejoin: miter"/>
     <use xlink:href="#m9a84b3094f" x="143.862837" y="143.46673" style="fill: #d55e00; stroke: #ffffff; stroke-width: 0.4; stroke-linejoin: miter"/>
     <use xlink:href="#m9a84b3094f" x="168.837492" y="143.475441" style="fill: #d55e00; stroke: #ffffff; stroke-width: 0.4; stroke-linejoin: miter"/>
     <use xlink:href="#m9a84b3094f" x="193.812147" y="143.480382" style="fill: #d55e00; stroke: #ffffff; stroke-width: 0.4; stroke-linejoin: miter"/>
     <use xlink:href="#m9a84b3094f" x="218.786802" y="143.483181" style="fill: #d55e00; stroke: #ffffff; stroke-width: 0.4; stroke-linejoin: miter"/>
    </g>
   </g>
   <g id="patch_7">
    <path d="M 121.464932 195.46781 
L 242.373976 195.46781 
L 242.373976 183.891033 
L 121.464932 183.891033 
L 121.464932 195.46781 
z
M 122.257778 93.088626 
Q 121.861355 138.489829 121.464932 183.891033 
M 236.368166 153.358666 
Q 239.371071 174.413238 242.373976 195.46781 
" style="fill: none; opacity: 0.8; stroke: #737373; stroke-width: 0.6; stroke-linejoin: miter"/>
   </g>
   <g id="axes_2">
    <g id="patch_8">
     <path d="M 122.257778 153.358666 
L 236.368166 153.358666 
L 236.368166 93.088626 
L 122.257778 93.088626 
z
" style="fill: #ffffff"/>
    </g>
    <g id="matplotlib.axis_3">
     <g id="xtick_7">
      <g id="line2d_35">
       <path d="M 122.257778 153.358666 
L 122.257778 93.088626 
" clip-path="url(#p1cf6c9d013)" style="fill: none; stroke: #b0b0b0; stroke-opacity: 0.25; stroke-width: 0.4; stroke-linecap: square"/>
      </g>
      <g id="line2d_36">
       <defs>
        <path id="m6dd5a231cb" d="M 0 0 
L 0 2 
" style="stroke: #000000; stroke-width: 0.8"/>
       </defs>
       <g>
        <use xlink:href="#m6dd5a231cb" x="122.257778" y="153.358666" style="stroke: #000000; stroke-width: 0.8"/>
       </g>
      </g>
      <g id="text_17">
       <!-- 400 -->
       <g transform="translate(116.531528 160.917729) scale(0.06 -0.06)">
        <use xlink:href="#DejaVuSans-34"/>
        <use xlink:href="#DejaVuSans-30" transform="translate(63.623047 0)"/>
        <use xlink:href="#DejaVuSans-30" transform="translate(127.246094 0)"/>
       </g>
      </g>
     </g>
     <g id="xtick_8">
      <g id="line2d_37">
       <path d="M 159.67102 153.358666 
L 159.67102 93.088626 
" clip-path="url(#p1cf6c9d013)" style="fill: none; stroke: #b0b0b0; stroke-opacity: 0.25; stroke-width: 0.4; stroke-linecap: square"/>
      </g>
      <g id="line2d_38">
       <g>
        <use xlink:href="#m6dd5a231cb" x="159.67102" y="153.358666" style="stroke: #000000; stroke-width: 0.8"/>
       </g>
      </g>
      <g id="text_18">
       <!-- 600 -->
       <g transform="translate(153.94477 160.917729) scale(0.06 -0.06)">
        <use xlink:href="#DejaVuSans-36"/>
        <use xlink:href="#DejaVuSans-30" transform="translate(63.623047 0)"/>
        <use xlink:href="#DejaVuSans-30" transform="translate(127.246094 0)"/>
       </g>
      </g>
     </g>
     <g id="xtick_9">
      <g id="line2d_39">
       <path d="M 197.084262 153.358666 
L 197.084262 93.088626 
" clip-path="url(#p1cf6c9d013)" style="fill: none; stroke: #b0b0b0; stroke-opacity: 0.25; stroke-width: 0.4; stroke-linecap: square"/>
      </g>
      <g id="line2d_40">
       <g>
        <use xlink:href="#m6dd5a231cb" x="197.084262" y="153.358666" style="stroke: #000000; stroke-width: 0.8"/>
       </g>
      </g>
      <g id="text_19">
       <!-- 800 -->
       <g transform="translate(191.358012 160.917729) scale(0.06 -0.06)">
        <use xlink:href="#DejaVuSans-38"/>
        <use xlink:href="#DejaVuSans-30" transform="translate(63.623047 0)"/>
        <use xlink:href="#DejaVuSans-30" transform="translate(127.246094 0)"/>
       </g>
      </g>
     </g>
     <g id="xtick_10">
      <g id="line2d_41">
       <path d="M 234.497504 153.358666 
L 234.497504 93.088626 
" clip-path="url(#p1cf6c9d013)" style="fill: none; stroke: #b0b0b0; stroke-opacity: 0.25; stroke-width: 0.4; stroke-linecap: square"/>
      </g>
      <g id="line2d_42">
       <g>
        <use xlink:href="#m6dd5a231cb" x="234.497504" y="153.358666" style="stroke: #000000; stroke-width: 0.8"/>
       </g>
      </g>
      <g id="text_20">
       <!-- 1000 -->
       <g transform="translate(226.862504 160.917729) scale(0.06 -0.06)">
        <use xlink:href="#DejaVuSans-31"/>
        <use xlink:href="#DejaVuSans-30" transform="translate(63.623047 0)"/>
        <use xlink:href="#DejaVuSans-30" transform="translate(127.246094 0)"/>
        <use xlink:href="#DejaVuSans-30" transform="translate(190.869141 0)"/>
       </g>
      </g>
     </g>
    </g>
    <g id="matplotlib.axis_4">
     <g id="ytick_9">
      <g id="line2d_43">
       <path d="M 122.257778 147.879572 
L 236.368166 147.879572 
" clip-path="url(#p1cf6c9d013)" style="fill: none; stroke: #b0b0b0; stroke-opacity: 0.25; stroke-width: 0.4; stroke-linecap: square"/>
      </g>
      <g id="line2d_44">
       <defs>
        <path id="m1c9b197f8f" d="M 0 0 
L -2 0 
" style="stroke: #000000; stroke-width: 0.8"/>
       </defs>
       <g>
        <use xlink:href="#m1c9b197f8f" x="122.257778" y="147.879572" style="stroke: #000000; stroke-width: 0.8"/>
       </g>
      </g>
      <g id="text_21">
       <!-- 100.0 -->
       <g transform="translate(102.080903 150.159103) scale(0.06 -0.06)">
        <defs>
         <path id="DejaVuSans-2e" d="M 684 794 
L 1344 794 
L 1344 0 
L 684 0 
L 684 794 
z
" transform="scale(0.015625)"/>
        </defs>
        <use xlink:href="#DejaVuSans-31"/>
        <use xlink:href="#DejaVuSans-30" transform="translate(63.623047 0)"/>
        <use xlink:href="#DejaVuSans-30" transform="translate(127.246094 0)"/>
        <use xlink:href="#DejaVuSans-2e" transform="translate(190.869141 0)"/>
        <use xlink:href="#DejaVuSans-30" transform="translate(222.65625 0)"/>
       </g>
      </g>
     </g>
     <g id="ytick_10">
      <g id="line2d_45">
       <path d="M 122.257778 134.181835 
L 236.368166 134.181835 
" clip-path="url(#p1cf6c9d013)" style="fill: none; stroke: #b0b0b0; stroke-opacity: 0.25; stroke-width: 0.4; stroke-linecap: square"/>
      </g>
      <g id="line2d_46">
       <g>
        <use xlink:href="#m1c9b197f8f" x="122.257778" y="134.181835" style="stroke: #000000; stroke-width: 0.8"/>
       </g>
      </g>
      <g id="text_22">
       <!-- 102.5 -->
       <g transform="translate(102.080903 136.461367) scale(0.06 -0.06)">
        <use xlink:href="#DejaVuSans-31"/>
        <use xlink:href="#DejaVuSans-30" transform="translate(63.623047 0)"/>
        <use xlink:href="#DejaVuSans-32" transform="translate(127.246094 0)"/>
        <use xlink:href="#DejaVuSans-2e" transform="translate(190.869141 0)"/>
        <use xlink:href="#DejaVuSans-35" transform="translate(222.65625 0)"/>
       </g>
      </g>
     </g>
     <g id="ytick_11">
      <g id="line2d_47">
       <path d="M 122.257778 120.484099 
L 236.368166 120.484099 
" clip-path="url(#p1cf6c9d013)" style="fill: none; stroke: #b0b0b0; stroke-opacity: 0.25; stroke-width: 0.4; stroke-linecap: square"/>
      </g>
      <g id="line2d_48">
       <g>
        <use xlink:href="#m1c9b197f8f" x="122.257778" y="120.484099" style="stroke: #000000; stroke-width: 0.8"/>
       </g>
      </g>
      <g id="text_23">
       <!-- 105.0 -->
       <g transform="translate(102.080903 122.76363) scale(0.06 -0.06)">
        <use xlink:href="#DejaVuSans-31"/>
        <use xlink:href="#DejaVuSans-30" transform="translate(63.623047 0)"/>
        <use xlink:href="#DejaVuSans-35" transform="translate(127.246094 0)"/>
        <use xlink:href="#DejaVuSans-2e" transform="translate(190.869141 0)"/>
        <use xlink:href="#DejaVuSans-30" transform="translate(222.65625 0)"/>
       </g>
      </g>
     </g>
     <g id="ytick_12">
      <g id="line2d_49">
       <path d="M 122.257778 106.786363 
L 236.368166 106.786363 
" clip-path="url(#p1cf6c9d013)" style="fill: none; stroke: #b0b0b0; stroke-opacity: 0.25; stroke-width: 0.4; stroke-linecap: square"/>
      </g>
      <g id="line2d_50">
       <g>
        <use xlink:href="#m1c9b197f8f" x="122.257778" y="106.786363" style="stroke: #000000; stroke-width: 0.8"/>
       </g>
      </g>
      <g id="text_24">
       <!-- 107.5 -->
       <g transform="translate(102.080903 109.065894) scale(0.06 -0.06)">
        <use xlink:href="#DejaVuSans-31"/>
        <use xlink:href="#DejaVuSans-30" transform="translate(63.623047 0)"/>
        <use xlink:href="#DejaVuSans-37" transform="translate(127.246094 0)"/>
        <use xlink:href="#DejaVuSans-2e" transform="translate(190.869141 0)"/>
        <use xlink:href="#DejaVuSans-35" transform="translate(222.65625 0)"/>
       </g>
      </g>
     </g>
     <g id="ytick_13">
      <g id="line2d_51">
       <path d="M 122.257778 93.088626 
L 236.368166 93.088626 
" clip-path="url(#p1cf6c9d013)" style="fill: none; stroke: #b0b0b0; stroke-opacity: 0.25; stroke-width: 0.4; stroke-linecap: square"/>
      </g>
      <g id="line2d_52">
       <g>
        <use xlink:href="#m1c9b197f8f" x="122.257778" y="93.088626" style="stroke: #000000; stroke-width: 0.8"/>
       </g>
      </g>
      <g id="text_25">
       <!-- 110.0 -->
       <g transform="translate(102.080903 95.368157) scale(0.06 -0.06)">
        <use xlink:href="#DejaVuSans-31"/>
        <use xlink:href="#DejaVuSans-31" transform="translate(63.623047 0)"/>
        <use xlink:href="#DejaVuSans-30" transform="translate(127.246094 0)"/>
        <use xlink:href="#DejaVuSans-2e" transform="translate(190.869141 0)"/>
        <use xlink:href="#DejaVuSans-30" transform="translate(222.65625 0)"/>
       </g>
      </g>
     </g>
    </g>
    <g id="patch_9">
     <path d="M 122.257778 153.358666 
L 122.257778 93.088626 
" style="fill: none; stroke: #000000; stroke-width: 0.6; stroke-linejoin: miter; stroke-linecap: square"/>
    </g>
    <g id="patch_10">
     <path d="M 236.368166 153.358666 
L 236.368166 93.088626 
" style="fill: none; stroke: #000000; stroke-width: 0.6; stroke-linejoin: miter; stroke-linecap: square"/>
    </g>
    <g id="patch_11">
     <path d="M 122.257778 153.358666 
L 236.368166 153.358666 
" style="fill: none; stroke: #000000; stroke-width: 0.6; stroke-linejoin: miter; stroke-linecap: square"/>
    </g>
    <g id="patch_12">
     <path d="M 122.257778 93.088626 
L 236.368166 93.088626 
" style="fill: none; stroke: #000000; stroke-width: 0.6; stroke-linejoin: miter; stroke-linecap: square"/>
    </g>
    <g id="line2d_53">
     <path d="M 68.885723 -1 
L 69.31804 8.565252 
L 71.001636 35.437486 
L 72.685232 53.147301 
L 74.368828 67.443256 
L 76.052424 72.880975 
L 77.73602 86.698302 
L 79.419616 93.054309 
L 81.103212 98.916604 
L 82.786808 103.583666 
L 84.470403 108.247972 
L 86.153999 110.997173 
L 87.837595 113.470815 
L 89.521191 116.097657 
L 91.204787 117.771125 
L 92.888383 118.988145 
L 94.571979 120.785667 
L 96.255575 120.95122 
L 97.939171 122.314144 
L 99.622766 123.188874 
L 101.306362 123.130236 
L 102.989958 124.116324 
L 104.673554 125.123473 
L 106.35715 126.119459 
L 108.040746 127.270229 
L 109.724342 125.708449 
L 111.407938 125.336422 
L 113.091534 127.15874 
L 114.775129 127.77608 
L 116.458725 128.923868 
L 118.142321 129.732762 
L 119.825917 130.726281 
L 121.509513 131.096655 
L 123.193109 130.688125 
L 124.876705 130.906575 
L 126.560301 132.881955 
L 128.243897 132.790605 
L 129.927492 134.212767 
L 131.611088 133.989357 
L 133.294684 135.82352 
L 134.97828 135.922984 
L 136.661876 136.786003 
L 138.345472 137.43564 
L 140.029068 137.468426 
L 141.712664 138.624394 
L 143.39626 138.60511 
L 145.079855 139.145602 
L 146.763451 139.048382 
L 148.447047 139.476668 
L 150.130643 139.398321 
L 151.814239 139.523628 
L 153.497835 139.569387 
L 155.181431 139.873474 
L 156.865027 139.49546 
L 158.548623 140.149207 
L 160.232218 140.362235 
L 161.915814 140.213288 
L 163.59941 140.268583 
L 165.283006 140.350217 
L 166.966602 140.46773 
L 168.650198 140.638402 
L 170.333794 140.302355 
L 172.01739 140.460438 
L 173.700986 140.712037 
L 175.384581 140.536204 
L 177.068177 140.637484 
L 178.751773 140.549396 
L 180.435369 140.652712 
L 182.118965 140.698052 
L 183.802561 140.785523 
L 185.486157 140.724356 
L 187.169753 140.888187 
L 188.853349 140.58742 
L 190.536945 140.733528 
L 192.22054 140.838264 
L 193.904136 140.76055 
L 195.587732 140.720396 
L 197.271328 140.916924 
L 198.954924 140.903215 
L 200.63852 140.862409 
L 202.322116 141.027666 
L 204.005712 141.000829 
L 205.689308 140.980187 
L 207.372903 141.053993 
L 209.056499 140.989637 
L 210.740095 140.971798 
L 212.423691 140.931587 
L 214.107287 141.038131 
L 215.790883 140.953388 
L 217.474479 141.082196 
L 219.158075 141.078216 
L 220.841671 141.036262 
L 222.525266 141.041435 
L 224.208862 141.085814 
L 225.892458 141.164344 
L 227.576054 141.145335 
L 229.25965 141.085408 
L 230.943246 141.168433 
L 232.626842 141.091863 
L 234.310438 141.126386 
L 235.994034 141.136215 
" clip-path="url(#p1cf6c9d013)" style="fill: none; stroke: #0072b2; stroke-width: 1.8; stroke-linecap: square"/>
     <g clip-path="url(#p1cf6c9d013)">
      <use xlink:href="#m99b142c7b1" x="73.806051" y="-1" style="fill: #0072b2; stroke: #ffffff; stroke-width: 0.4"/>
      <use xlink:href="#m99b142c7b1" x="82.786808" y="103.583666" style="fill: #0072b2; stroke: #ffffff; stroke-width: 0.4"/>
      <use xlink:href="#m99b142c7b1" x="99.622766" y="123.188874" style="fill: #0072b2; stroke: #ffffff; stroke-width: 0.4"/>
      <use xlink:href="#m99b142c7b1" x="116.458725" y="128.923868" style="fill: #0072b2; stroke: #ffffff; stroke-width: 0.4"/>
      <use xlink:href="#m99b142c7b1" x="133.294684" y="135.82352" style="fill: #0072b2; stroke: #ffffff; stroke-width: 0.4"/>
      <use xlink:href="#m99b142c7b1" x="150.130643" y="139.398321" style="fill: #0072b2; stroke: #ffffff; stroke-width: 0.4"/>
      <use xlink:href="#m99b142c7b1" x="166.966602" y="140.46773" style="fill: #0072b2; stroke: #ffffff; stroke-width: 0.4"/>
      <use xlink:href="#m99b142c7b1" x="183.802561" y="140.785523" style="fill: #0072b2; stroke: #ffffff; stroke-width: 0.4"/>
      <use xlink:href="#m99b142c7b1" x="200.63852" y="140.862409" style="fill: #0072b2; stroke: #ffffff; stroke-width: 0.4"/>
      <use xlink:href="#m99b142c7b1" x="217.474479" y="141.082196" style="fill: #0072b2; stroke: #ffffff; stroke-width: 0.4"/>
      <use xlink:href="#m99b142c7b1" x="234.310438" y="141.126386" style="fill: #0072b2; stroke: #ffffff; stroke-width: 0.4"/>
     </g>
    </g>
    <g id="line2d_54">
     <path d="M 80.817258 -1 
L 81.103212 1.140393 
L 82.786808 7.658247 
L 84.470403 18.949671 
L 86.153999 28.34689 
L 87.837595 37.395444 
L 89.521191 34.724868 
L 91.204787 43.516051 
L 92.888383 53.246679 
L 94.571979 66.174917 
L 96.255575 64.786671 
L 97.939171 73.575203 
L 99.622766 80.381658 
L 101.306362 83.173665 
L 102.989958 87.572705 
L 104.673554 87.106304 
L 106.35715 94.285752 
L 108.040746 100.805818 
L 109.724342 102.704155 
L 111.407938 112.334529 
L 113.091534 103.989993 
L 114.775129 108.744849 
L 116.458725 111.00466 
L 118.142321 112.195506 
L 119.825917 107.395614 
L 121.509513 106.673474 
L 123.193109 115.097214 
L 124.876705 114.569617 
L 126.560301 116.646316 
L 128.243897 117.896689 
L 129.927492 116.68912 
L 131.611088 117.526913 
L 133.294684 119.679207 
L 134.97828 119.430615 
L 136.661876 120.705607 
L 138.345472 120.026279 
L 140.029068 122.267124 
L 141.712664 121.953155 
L 143.39626 123.985174 
L 145.079855 122.684841 
L 146.763451 124.291029 
L 148.447047 123.837965 
L 150.130643 124.579779 
L 151.814239 124.093443 
L 153.497835 125.658094 
L 155.181431 126.141971 
L 156.865027 125.44378 
L 158.548623 125.692164 
L 160.232218 126.908472 
L 161.915814 126.564645 
L 163.59941 127.68989 
L 165.283006 127.336453 
L 166.966602 128.434103 
L 168.650198 128.280027 
L 170.333794 128.918832 
L 172.01739 129.117606 
L 173.700986 128.369206 
L 175.384581 124.654275 
L 177.068177 128.983006 
L 178.751773 125.971028 
L 180.435369 128.918217 
L 182.118965 128.241368 
L 183.802561 129.356076 
L 185.486157 129.938295 
L 187.169753 129.752974 
L 188.853349 131.258289 
L 190.536945 131.238139 
L 192.22054 130.052144 
L 193.904136 131.415664 
L 195.587732 131.882217 
L 197.271328 131.996876 
L 198.954924 131.686943 
L 200.63852 131.957219 
L 202.322116 132.570204 
L 204.005712 132.277687 
L 205.689308 133.104387 
L 207.372903 132.803109 
L 209.056499 133.20665 
L 210.740095 132.868133 
L 212.423691 133.578221 
L 214.107287 133.707577 
L 215.790883 133.893028 
L 217.474479 133.975382 
L 219.158075 134.217991 
L 220.841671 134.395359 
L 222.525266 134.499652 
L 224.208862 134.64427 
L 225.892458 134.710785 
L 227.576054 135.025126 
L 229.25965 135.118957 
L 230.943246 135.270813 
L 232.626842 135.397606 
L 234.310438 135.699211 
L 235.994034 135.813469 
" clip-path="url(#p1cf6c9d013)" style="fill: none; stroke-dasharray: 5.4,1.8,1.8,1.8; stroke-dashoffset: 0; stroke: #000000; stroke-width: 1.8"/>
     <g clip-path="url(#p1cf6c9d013)">
      <use xlink:href="#m1b0d2ae0ec" x="81.262507" y="-1" style="stroke: #ffffff; stroke-width: 0.4; stroke-linejoin: miter"/>
      <use xlink:href="#m1b0d2ae0ec" x="82.786808" y="7.658247" style="stroke: #ffffff; stroke-width: 0.4; stroke-linejoin: miter"/>
      <use xlink:href="#m1b0d2ae0ec" x="99.622766" y="80.381658" style="stroke: #ffffff; stroke-width: 0.4; stroke-linejoin: miter"/>
      <use xlink:href="#m1b0d2ae0ec" x="116.458725" y="111.00466" style="stroke: #ffffff; stroke-width: 0.4; stroke-linejoin: miter"/>
      <use xlink:href="#m1b0d2ae0ec" x="133.294684" y="119.679207" style="stroke: #ffffff; stroke-width: 0.4; stroke-linejoin: miter"/>
      <use xlink:href="#m1b0d2ae0ec" x="150.130643" y="124.579779" style="stroke: #ffffff; stroke-width: 0.4; stroke-linejoin: miter"/>
      <use xlink:href="#m1b0d2ae0ec" x="166.966602" y="128.434103" style="stroke: #ffffff; stroke-width: 0.4; stroke-linejoin: miter"/>
      <use xlink:href="#m1b0d2ae0ec" x="183.802561" y="129.356076" style="stroke: #ffffff; stroke-width: 0.4; stroke-linejoin: miter"/>
      <use xlink:href="#m1b0d2ae0ec" x="200.63852" y="131.957219" style="stroke: #ffffff; stroke-width: 0.4; stroke-linejoin: miter"/>
      <use xlink:href="#m1b0d2ae0ec" x="217.474479" y="133.975382" style="stroke: #ffffff; stroke-width: 0.4; stroke-linejoin: miter"/>
      <use xlink:href="#m1b0d2ae0ec" x="234.310438" y="135.699211" style="stroke: #ffffff; stroke-width: 0.4; stroke-linejoin: miter"/>
     </g>
    </g>
    <g id="line2d_55">
     <path d="M 74.505478 -1 
L 76.052424 4.716077 
L 77.73602 12.213266 
L 79.419616 24.906167 
L 81.103212 41.893878 
L 82.786808 60.773966 
L 84.470403 75.817428 
L 86.153999 82.866183 
L 87.837595 86.568954 
L 89.521191 89.493664 
L 91.204787 91.363402 
L 92.888383 92.817935 
L 94.571979 93.707596 
L 96.255575 94.121264 
L 97.939171 94.353356 
L 99.622766 94.547168 
L 101.306362 94.696216 
L 102.989958 94.981715 
L 104.673554 95.170756 
L 106.35715 95.218326 
L 108.040746 95.044852 
L 109.724342 95.347723 
L 111.407938 95.40537 
L 113.091534 96.25569 
L 114.775129 97.37241 
L 116.458725 99.418738 
L 118.142321 102.300265 
L 119.825917 105.701941 
L 121.509513 109.329105 
L 123.193109 112.575216 
L 124.876705 114.592911 
L 126.560301 115.780295 
L 128.243897 116.602381 
L 129.927492 117.207729 
L 131.611088 117.654046 
L 133.294684 118.111015 
L 134.97828 118.4133 
L 136.661876 118.666533 
L 138.345472 118.972066 
L 140.029068 119.140798 
L 141.712664 119.237044 
L 143.39626 119.395028 
L 145.079855 119.448127 
L 146.763451 119.413711 
L 148.447047 119.523652 
L 150.130643 119.596953 
L 151.814239 119.701336 
L 153.497835 119.733552 
L 155.181431 119.688235 
L 156.865027 119.768137 
L 158.548623 119.715904 
L 160.232218 119.760773 
L 161.915814 119.773484 
L 163.59941 119.805966 
L 165.283006 119.658732 
L 166.966602 119.68699 
L 168.650198 119.800273 
L 170.333794 119.817614 
L 172.01739 119.727052 
L 173.700986 119.779738 
L 175.384581 119.804499 
L 177.068177 119.815362 
L 178.751773 119.810348 
L 180.435369 119.71724 
L 182.118965 119.849142 
L 183.802561 119.804143 
L 185.486157 119.776529 
L 187.169753 119.72033 
L 188.853349 119.844289 
L 190.536945 119.748473 
L 192.22054 119.836952 
L 193.904136 119.850199 
L 195.587732 119.74304 
L 197.271328 119.816959 
L 198.954924 119.781238 
L 200.63852 119.837741 
L 202.322116 119.887216 
L 204.005712 119.810883 
L 205.689308 119.826614 
L 207.372903 119.841832 
L 209.056499 119.871504 
L 210.740095 119.829263 
L 212.423691 119.804098 
L 214.107287 119.844345 
L 215.790883 119.804225 
L 217.474479 119.886574 
L 219.158075 119.816417 
L 220.841671 119.882097 
L 222.525266 119.851281 
L 224.208862 119.848458 
L 225.892458 119.861273 
L 227.576054 119.850269 
L 229.25965 119.85065 
L 230.943246 119.895275 
L 232.626842 119.861641 
L 234.310438 119.875068 
L 235.994034 119.855764 
" clip-path="url(#p1cf6c9d013)" style="fill: none; stroke-dasharray: 9,3.6; stroke-dashoffset: 0; stroke: #009e73; stroke-width: 1.8"/>
     <g clip-path="url(#p1cf6c9d013)">
      <use xlink:href="#mb0de60f5bc" x="75.68511" y="-1" style="fill: #009e73; stroke: #ffffff; stroke-width: 0.4; stroke-linejoin: miter"/>
      <use xlink:href="#mb0de60f5bc" x="82.786808" y="60.773966" style="fill: #009e73; stroke: #ffffff; stroke-width: 0.4; stroke-linejoin: miter"/>
      <use xlink:href="#mb0de60f5bc" x="99.622766" y="94.547168" style="fill: #009e73; stroke: #ffffff; stroke-width: 0.4; stroke-linejoin: miter"/>
      <use xlink:href="#mb0de60f5bc" x="116.458725" y="99.418738" style="fill: #009e73; stroke: #ffffff; stroke-width: 0.4; stroke-linejoin: miter"/>
      <use xlink:href="#mb0de60f5bc" x="133.294684" y="118.111015" style="fill: #009e73; stroke: #ffffff; stroke-width: 0.4; stroke-linejoin: miter"/>
      <use xlink:href="#mb0de60f5bc" x="150.130643" y="119.596953" style="fill: #009e73; stroke: #ffffff; stroke-width: 0.4; stroke-linejoin: miter"/>
      <use xlink:href="#mb0de60f5bc" x="166.966602" y="119.68699" style="fill: #009e73; stroke: #ffffff; stroke-width: 0.4; stroke-linejoin: miter"/>
      <use xlink:href="#mb0de60f5bc" x="183.802561" y="119.804143" style="fill: #009e73; stroke: #ffffff; stroke-width: 0.4; stroke-linejoin: miter"/>
      <use xlink:href="#mb0de60f5bc" x="200.63852" y="119.837741" style="fill: #009e73; stroke: #ffffff; stroke-width: 0.4; stroke-linejoin: miter"/>
      <use xlink:href="#mb0de60f5bc" x="217.474479" y="119.886574" style="fill: #009e73; stroke: #ffffff; stroke-width: 0.4; stroke-linejoin: miter"/>
      <use xlink:href="#mb0de60f5bc" x="234.310438" y="119.875068" style="fill: #009e73; stroke: #ffffff; stroke-width: 0.4; stroke-linejoin: miter"/>
     </g>
    </g>
    <g id="line2d_56">
     <path d="M 71.328094 -1 
L 72.685232 17.269376 
L 74.368828 35.838698 
L 76.052424 48.696848 
L 77.73602 59.789621 
L 79.419616 73.237357 
L 81.103212 85.254918 
L 82.786808 91.252262 
L 84.470403 95.653524 
L 86.153999 99.359852 
L 87.837595 102.55745 
L 89.521191 104.728602 
L 91.204787 106.161131 
L 92.888383 106.794817 
L 94.571979 107.477064 
L 96.255575 107.914719 
L 97.939171 108.41067 
L 99.622766 108.989618 
L 101.306362 109.308357 
L 102.989958 109.41656 
L 104.673554 109.52501 
L 106.35715 109.374451 
L 108.040746 109.618382 
L 109.724342 109.246036 
L 111.407938 109.403655 
L 113.091534 109.54043 
L 114.775129 109.504895 
L 116.458725 109.57341 
L 118.142321 109.699704 
L 119.825917 109.365695 
L 121.509513 109.554081 
L 123.193109 109.571118 
L 124.876705 109.573206 
L 126.560301 109.619699 
L 128.243897 109.495001 
L 129.927492 109.649503 
L 131.611088 109.774812 
L 133.294684 109.689537 
L 134.97828 109.658286 
L 136.661876 109.741612 
L 138.345472 109.675077 
L 140.029068 109.69526 
L 141.712664 109.756353 
L 143.39626 109.724819 
L 145.079855 109.488039 
L 146.763451 109.761131 
L 148.447047 109.563005 
L 150.130643 109.582419 
L 151.814239 109.601959 
L 153.497835 109.674414 
L 155.181431 109.761849 
L 156.865027 109.676945 
L 158.548623 109.450297 
L 160.232218 109.744639 
L 161.915814 109.679055 
L 163.59941 109.708806 
L 165.283006 109.79242 
L 166.966602 109.778499 
L 168.650198 109.723779 
L 170.333794 109.841642 
L 172.01739 109.76856 
L 173.700986 109.808088 
L 175.384581 109.763885 
L 177.068177 109.748065 
L 178.751773 109.869896 
L 180.435369 109.796313 
L 182.118965 109.857484 
L 183.802561 109.757343 
L 185.486157 109.816638 
L 187.169753 109.737251 
L 188.853349 109.836125 
L 190.536945 109.81754 
L 192.22054 109.760401 
L 193.904136 109.886181 
L 195.587732 109.810495 
L 197.271328 109.832027 
L 198.954924 109.852713 
L 200.63852 109.864471 
L 202.322116 109.836034 
L 204.005712 109.870649 
L 205.689308 109.856736 
L 207.372903 109.865695 
L 209.056499 109.860935 
L 210.740095 109.870871 
L 212.423691 109.864879 
L 214.107287 109.874274 
L 215.790883 109.887022 
L 217.474479 109.834341 
L 219.158075 109.843204 
L 220.841671 109.889621 
L 222.525266 109.896399 
L 224.208862 109.906307 
L 225.892458 109.908362 
L 227.576054 109.894195 
L 229.25965 109.866727 
L 230.943246 109.899513 
L 232.626842 109.902891 
L 234.310438 109.908678 
L 235.994034 109.884853 
" clip-path="url(#p1cf6c9d013)" style="fill: none; stroke-dasharray: 1.8,1.8; stroke-dashoffset: 0; stroke: #56b4e9; stroke-width: 1.8"/>
     <g clip-path="url(#p1cf6c9d013)">
      <use xlink:href="#m1e690869e4" x="74.118603" y="-1" style="fill: #56b4e9; stroke: #ffffff; stroke-width: 0.4; stroke-linejoin: miter"/>
      <use xlink:href="#m1e690869e4" x="82.786808" y="91.252262" style="fill: #56b4e9; stroke: #ffffff; stroke-width: 0.4; stroke-linejoin: miter"/>
      <use xlink:href="#m1e690869e4" x="99.622766" y="108.989618" style="fill: #56b4e9; stroke: #ffffff; stroke-width: 0.4; stroke-linejoin: miter"/>
      <use xlink:href="#m1e690869e4" x="116.458725" y="109.57341" style="fill: #56b4e9; stroke: #ffffff; stroke-width: 0.4; stroke-linejoin: miter"/>
      <use xlink:href="#m1e690869e4" x="133.294684" y="109.689537" style="fill: #56b4e9; stroke: #ffffff; stroke-width: 0.4; stroke-linejoin: miter"/>
      <use xlink:href="#m1e690869e4" x="150.130643" y="109.582419" style="fill: #56b4e9; stroke: #ffffff; stroke-width: 0.4; stroke-linejoin: miter"/>
      <use xlink:href="#m1e690869e4" x="166.966602" y="109.778499" style="fill: #56b4e9; stroke: #ffffff; stroke-width: 0.4; stroke-linejoin: miter"/>
      <use xlink:href="#m1e690869e4" x="183.802561" y="109.757343" style="fill: #56b4e9; stroke: #ffffff; stroke-width: 0.4; stroke-linejoin: miter"/>
      <use xlink:href="#m1e690869e4" x="200.63852" y="109.864471" style="fill: #56b4e9; stroke: #ffffff; stroke-width: 0.4; stroke-linejoin: miter"/>
      <use xlink:href="#m1e690869e4" x="217.474479" y="109.834341" style="fill: #56b4e9; stroke: #ffffff; stroke-width: 0.4; stroke-linejoin: miter"/>
      <use xlink:href="#m1e690869e4" x="234.310438" y="109.908678" style="fill: #56b4e9; stroke: #ffffff; stroke-width: 0.4; stroke-linejoin: miter"/>
     </g>
    </g>
    <g id="line2d_57">
     <path clip-path="url(#p1cf6c9d013)" style="fill: none; stroke-dasharray: 9,3.6; stroke-dashoffset: 0; stroke: #e69f00; stroke-width: 1.8"/>
     <g clip-path="url(#p1cf6c9d013)"/>
    </g>
    <g id="line2d_58">
     <path clip-path="url(#p1cf6c9d013)" style="fill: none; stroke-dasharray: 1.8,1.8; stroke-dashoffset: 0; stroke: #d55e00; stroke-width: 1.8"/>
     <g clip-path="url(#p1cf6c9d013)"/>
    </g>
   </g>
   <g id="legend_1">
    <g id="line2d_59">
     <path d="M 154.390773 15.117881 
L 162.640773 15.117881 
L 170.890773 15.117881 
" style="fill: none; stroke: #0072b2; stroke-width: 1.8; stroke-linecap: square"/>
     <g>
      <use xlink:href="#m99b142c7b1" x="162.640773" y="15.117881" style="fill: #0072b2; stroke: #ffffff; stroke-width: 0.4"/>
     </g>
    </g>
    <g id="text_26">
     <!-- RichBasis -->
     <g transform="translate(176.890773 17.742881) scale(0.075 -0.075)">
      <defs>
       <path id="DejaVuSans-52" d="M 2841 2188 
Q 3044 2119 3236 1894 
Q 3428 1669 3622 1275 
L 4263 0 
L 3584 0 
L 2988 1197 
Q 2756 1666 2539 1819 
Q 2322 1972 1947 1972 
L 1259 1972 
L 1259 0 
L 628 0 
L 628 4666 
L 2053 4666 
Q 2853 4666 3247 4331 
Q 3641 3997 3641 3322 
Q 3641 2881 3436 2590 
Q 3231 2300 2841 2188 
z
M 1259 4147 
L 1259 2491 
L 2053 2491 
Q 2509 2491 2742 2702 
Q 2975 2913 2975 3322 
Q 2975 3731 2742 3939 
Q 2509 4147 2053 4147 
L 1259 4147 
z
" transform="scale(0.015625)"/>
       <path id="DejaVuSans-63" d="M 3122 3366 
L 3122 2828 
Q 2878 2963 2633 3030 
Q 2388 3097 2138 3097 
Q 1578 3097 1268 2742 
Q 959 2388 959 1747 
Q 959 1106 1268 751 
Q 1578 397 2138 397 
Q 2388 397 2633 464 
Q 2878 531 3122 666 
L 3122 134 
Q 2881 22 2623 -34 
Q 2366 -91 2075 -91 
Q 1284 -91 818 406 
Q 353 903 353 1747 
Q 353 2603 823 3093 
Q 1294 3584 2113 3584 
Q 2378 3584 2631 3529 
Q 2884 3475 3122 3366 
z
" transform="scale(0.015625)"/>
       <path id="DejaVuSans-68" d="M 3513 2113 
L 3513 0 
L 2938 0 
L 2938 2094 
Q 2938 2591 2744 2837 
Q 2550 3084 2163 3084 
Q 1697 3084 1428 2787 
Q 1159 2491 1159 1978 
L 1159 0 
L 581 0 
L 581 4863 
L 1159 4863 
L 1159 2956 
Q 1366 3272 1645 3428 
Q 1925 3584 2291 3584 
Q 2894 3584 3203 3211 
Q 3513 2838 3513 2113 
z
" transform="scale(0.015625)"/>
       <path id="DejaVuSans-42" d="M 1259 2228 
L 1259 519 
L 2272 519 
Q 2781 519 3026 730 
Q 3272 941 3272 1375 
Q 3272 1813 3026 2020 
Q 2781 2228 2272 2228 
L 1259 2228 
z
M 1259 4147 
L 1259 2741 
L 2194 2741 
Q 2656 2741 2882 2914 
Q 3109 3088 3109 3444 
Q 3109 3797 2882 3972 
Q 2656 4147 2194 4147 
L 1259 4147 
z
M 628 4666 
L 2241 4666 
Q 2963 4666 3353 4366 
Q 3744 4066 3744 3513 
Q 3744 3084 3544 2831 
Q 3344 2578 2956 2516 
Q 3422 2416 3680 2098 
Q 3938 1781 3938 1306 
Q 3938 681 3513 340 
Q 3088 0 2303 0 
L 628 0 
L 628 4666 
z
" transform="scale(0.015625)"/>
      </defs>
      <use xlink:href="#DejaVuSans-52"/>
      <use xlink:href="#DejaVuSans-69" transform="translate(69.482422 0)"/>
      <use xlink:href="#DejaVuSans-63" transform="translate(97.265625 0)"/>
      <use xlink:href="#DejaVuSans-68" transform="translate(152.246094 0)"/>
      <use xlink:href="#DejaVuSans-42" transform="translate(215.625 0)"/>
      <use xlink:href="#DejaVuSans-61" transform="translate(284.228516 0)"/>
      <use xlink:href="#DejaVuSans-73" transform="translate(345.507812 0)"/>
      <use xlink:href="#DejaVuSans-69" transform="translate(397.607422 0)"/>
      <use xlink:href="#DejaVuSans-73" transform="translate(425.390625 0)"/>
     </g>
    </g>
    <g id="line2d_60">
     <path d="M 154.390773 24.026475 
L 162.640773 24.026475 
L 170.890773 24.026475 
" style="fill: none; stroke-dasharray: 5.4,1.8,1.8,1.8; stroke-dashoffset: 0; stroke: #000000; stroke-width: 1.8"/>
     <g>
      <use xlink:href="#m1b0d2ae0ec" x="162.640773" y="24.026475" style="stroke: #ffffff; stroke-width: 0.4; stroke-linejoin: miter"/>
     </g>
    </g>
    <g id="text_27">
     <!-- DCT-IV (relaxed) -->
     <g transform="translate(176.890773 26.651475) scale(0.075 -0.075)">
      <defs>
       <path id="DejaVuSans-44" d="M 1259 4147 
L 1259 519 
L 2022 519 
Q 2988 519 3436 956 
Q 3884 1394 3884 2338 
Q 3884 3275 3436 3711 
Q 2988 4147 2022 4147 
L 1259 4147 
z
M 628 4666 
L 1925 4666 
Q 3281 4666 3915 4102 
Q 4550 3538 4550 2338 
Q 4550 1131 3912 565 
Q 3275 0 1925 0 
L 628 0 
L 628 4666 
z
" transform="scale(0.015625)"/>
       <path id="DejaVuSans-43" d="M 4122 4306 
L 4122 3641 
Q 3803 3938 3442 4084 
Q 3081 4231 2675 4231 
Q 1875 4231 1450 3742 
Q 1025 3253 1025 2328 
Q 1025 1406 1450 917 
Q 1875 428 2675 428 
Q 3081 428 3442 575 
Q 3803 722 4122 1019 
L 4122 359 
Q 3791 134 3420 21 
Q 3050 -91 2638 -91 
Q 1578 -91 968 557 
Q 359 1206 359 2328 
Q 359 3453 968 4101 
Q 1578 4750 2638 4750 
Q 3056 4750 3426 4639 
Q 3797 4528 4122 4306 
z
" transform="scale(0.015625)"/>
       <path id="DejaVuSans-54" d="M -19 4666 
L 3928 4666 
L 3928 4134 
L 2272 4134 
L 2272 0 
L 1638 0 
L 1638 4134 
L -19 4134 
L -19 4666 
z
" transform="scale(0.015625)"/>
       <path id="DejaVuSans-2d" d="M 313 2009 
L 1997 2009 
L 1997 1497 
L 313 1497 
L 313 2009 
z
" transform="scale(0.015625)"/>
       <path id="DejaVuSans-49" d="M 628 4666 
L 1259 4666 
L 1259 0 
L 628 0 
L 628 4666 
z
" transform="scale(0.015625)"/>
       <path id="DejaVuSans-56" d="M 1831 0 
L 50 4666 
L 709 4666 
L 2188 738 
L 3669 4666 
L 4325 4666 
L 2547 0 
L 1831 0 
z
" transform="scale(0.015625)"/>
       <path id="DejaVuSans-28" d="M 1984 4856 
Q 1566 4138 1362 3434 
Q 1159 2731 1159 2009 
Q 1159 1288 1364 580 
Q 1569 -128 1984 -844 
L 1484 -844 
Q 1016 -109 783 600 
Q 550 1309 550 2009 
Q 550 2706 781 3412 
Q 1013 4119 1484 4856 
L 1984 4856 
z
" transform="scale(0.015625)"/>
       <path id="DejaVuSans-78" d="M 3513 3500 
L 2247 1797 
L 3578 0 
L 2900 0 
L 1881 1375 
L 863 0 
L 184 0 
L 1544 1831 
L 300 3500 
L 978 3500 
L 1906 2253 
L 2834 3500 
L 3513 3500 
z
" transform="scale(0.015625)"/>
       <path id="DejaVuSans-29" d="M 513 4856 
L 1013 4856 
Q 1481 4119 1714 3412 
Q 1947 2706 1947 2009 
Q 1947 1309 1714 600 
Q 1481 -109 1013 -844 
L 513 -844 
Q 928 -128 1133 580 
Q 1338 1288 1338 2009 
Q 1338 2731 1133 3434 
Q 928 4138 513 4856 
z
" transform="scale(0.015625)"/>
      </defs>
      <use xlink:href="#DejaVuSans-44"/>
      <use xlink:href="#DejaVuSans-43" transform="translate(77.001953 0)"/>
      <use xlink:href="#DejaVuSans-54" transform="translate(146.826172 0)"/>
      <use xlink:href="#DejaVuSans-2d" transform="translate(198.785156 0)"/>
      <use xlink:href="#DejaVuSans-49" transform="translate(234.869141 0)"/>
      <use xlink:href="#DejaVuSans-56" transform="translate(264.361328 0)"/>
      <use xlink:href="#DejaVuSans-20" transform="translate(332.769531 0)"/>
      <use xlink:href="#DejaVuSans-28" transform="translate(364.556641 0)"/>
      <use xlink:href="#DejaVuSans-72" transform="translate(403.570312 0)"/>
      <use xlink:href="#DejaVuSans-65" transform="translate(442.433594 0)"/>
      <use xlink:href="#DejaVuSans-6c" transform="translate(503.957031 0)"/>
      <use xlink:href="#DejaVuSans-61" transform="translate(531.740234 0)"/>
      <use xlink:href="#DejaVuSans-78" transform="translate(593.019531 0)"/>
      <use xlink:href="#DejaVuSans-65" transform="translate(649.074219 0)"/>
      <use xlink:href="#DejaVuSans-64" transform="translate(710.597656 0)"/>
      <use xlink:href="#DejaVuSans-29" transform="translate(774.074219 0)"/>
     </g>
    </g>
    <g id="line2d_61">
     <path d="M 154.390773 32.935069 
L 162.640773 32.935069 
L 170.890773 32.935069 
" style="fill: none; stroke-dasharray: 9,3.6; stroke-dashoffset: 0; stroke: #009e73; stroke-width: 1.8"/>
     <g>
      <use xlink:href="#mb0de60f5bc" x="162.640773" y="32.935069" style="fill: #009e73; stroke: #ffffff; stroke-width: 0.4; stroke-linejoin: miter"/>
     </g>
    </g>
    <g id="text_28">
     <!-- TEBD -->
     <g transform="translate(176.890773 35.560069) scale(0.075 -0.075)">
      <use xlink:href="#DejaVuSans-54"/>
      <use xlink:href="#DejaVuSans-45" transform="translate(61.083984 0)"/>
      <use xlink:href="#DejaVuSans-42" transform="translate(124.267578 0)"/>
      <use xlink:href="#DejaVuSans-44" transform="translate(192.871094 0)"/>
     </g>
    </g>
    <g id="line2d_62">
     <path d="M 154.390773 41.843662 
L 162.640773 41.843662 
L 170.890773 41.843662 
" style="fill: none; stroke-dasharray: 1.8,1.8; stroke-dashoffset: 0; stroke: #56b4e9; stroke-width: 1.8"/>
     <g>
      <use xlink:href="#m1e690869e4" x="162.640773" y="41.843662" style="fill: #56b4e9; stroke: #ffffff; stroke-width: 0.4; stroke-linejoin: miter"/>
     </g>
    </g>
    <g id="text_29">
     <!-- MERA -->
     <g transform="translate(176.890773 44.468662) scale(0.075 -0.075)">
      <defs>
       <path id="DejaVuSans-41" d="M 2188 4044 
L 1331 1722 
L 3047 1722 
L 2188 4044 
z
M 1831 4666 
L 2547 4666 
L 4325 0 
L 3669 0 
L 3244 1197 
L 1141 1197 
L 716 0 
L 50 0 
L 1831 4666 
z
" transform="scale(0.015625)"/>
      </defs>
      <use xlink:href="#DejaVuSans-4d"/>
      <use xlink:href="#DejaVuSans-45" transform="translate(86.279297 0)"/>
      <use xlink:href="#DejaVuSans-52" transform="translate(149.462891 0)"/>
      <use xlink:href="#DejaVuSans-41" transform="translate(214.945312 0)"/>
     </g>
    </g>
    <g id="line2d_63">
     <path d="M 154.390773 50.752256 
L 162.640773 50.752256 
L 170.890773 50.752256 
" style="fill: none; stroke-dasharray: 9,3.6; stroke-dashoffset: 0; stroke: #e69f00; stroke-width: 1.8"/>
     <g>
      <use xlink:href="#m1f57468b4e" x="162.640773" y="50.752256" style="fill: #e69f00; stroke: #ffffff; stroke-width: 0.4; stroke-linejoin: miter"/>
     </g>
    </g>
    <g id="text_30">
     <!-- QFT -->
     <g transform="translate(176.890773 53.377256) scale(0.075 -0.075)">
      <defs>
       <path id="DejaVuSans-51" d="M 2522 4238 
Q 1834 4238 1429 3725 
Q 1025 3213 1025 2328 
Q 1025 1447 1429 934 
Q 1834 422 2522 422 
Q 3209 422 3611 934 
Q 4013 1447 4013 2328 
Q 4013 3213 3611 3725 
Q 3209 4238 2522 4238 
z
M 3406 84 
L 4238 -825 
L 3475 -825 
L 2784 -78 
Q 2681 -84 2626 -87 
Q 2572 -91 2522 -91 
Q 1538 -91 948 567 
Q 359 1225 359 2328 
Q 359 3434 948 4092 
Q 1538 4750 2522 4750 
Q 3503 4750 4090 4092 
Q 4678 3434 4678 2328 
Q 4678 1516 4351 937 
Q 4025 359 3406 84 
z
" transform="scale(0.015625)"/>
       <path id="DejaVuSans-46" d="M 628 4666 
L 3309 4666 
L 3309 4134 
L 1259 4134 
L 1259 2759 
L 3109 2759 
L 3109 2228 
L 1259 2228 
L 1259 0 
L 628 0 
L 628 4666 
z
" transform="scale(0.015625)"/>
      </defs>
      <use xlink:href="#DejaVuSans-51"/>
      <use xlink:href="#DejaVuSans-46" transform="translate(78.710938 0)"/>
      <use xlink:href="#DejaVuSans-54" transform="translate(134.480469 0)"/>
     </g>
    </g>
    <g id="line2d_64">
     <path d="M 154.390773 59.66085 
L 162.640773 59.66085 
L 170.890773 59.66085 
" style="fill: none; stroke-dasharray: 1.8,1.8; stroke-dashoffset: 0; stroke: #d55e00; stroke-width: 1.8"/>
     <g>
      <use xlink:href="#m9a84b3094f" x="162.640773" y="59.66085" style="fill: #d55e00; stroke: #ffffff; stroke-width: 0.4; stroke-linejoin: miter"/>
     </g>
    </g>
    <g id="text_31">
     <!-- Entangled QFT -->
     <g transform="translate(176.890773 62.28585) scale(0.075 -0.075)">
      <use xlink:href="#DejaVuSans-45"/>
      <use xlink:href="#DejaVuSans-6e" transform="translate(63.183594 0)"/>
      <use xlink:href="#DejaVuSans-74" transform="translate(126.5625 0)"/>
      <use xlink:href="#DejaVuSans-61" transform="translate(165.771484 0)"/>
      <use xlink:href="#DejaVuSans-6e" transform="translate(227.050781 0)"/>
      <use xlink:href="#DejaVuSans-67" transform="translate(290.429688 0)"/>
      <use xlink:href="#DejaVuSans-6c" transform="translate(353.90625 0)"/>
      <use xlink:href="#DejaVuSans-65" transform="translate(381.689453 0)"/>
      <use xlink:href="#DejaVuSans-64" transform="translate(443.212891 0)"/>
      <use xlink:href="#DejaVuSans-20" transform="translate(506.689453 0)"/>
      <use xlink:href="#DejaVuSans-51" transform="translate(538.476562 0)"/>
      <use xlink:href="#DejaVuSans-46" transform="translate(617.1875 0)"/>
      <use xlink:href="#DejaVuSans-54" transform="translate(672.957031 0)"/>
     </g>
    </g>
   </g>
  </g>
 </g>
 <defs>
  <clipPath id="p4c0b64f323">
   <rect x="42.180312" y="7.544053" width="200.193663" height="194.419484"/>
  </clipPath>
  <clipPath id="p1cf6c9d013">
   <rect x="122.257778" y="93.088626" width="114.110388" height="60.27004"/>
  </clipPath>
 </defs>
</svg>
