<?xml version="1.0" encoding="utf-8" standalone="no"?>
<!DOCTYPE svg PUBLIC "-//W3C//DTD SVG 1.1//EN"
  "http://www.w3.org/Graphics/SVG/1.1/DTD/svg11.dtd">
<svg xmlns:xlink="http://www.w3.org/1999/xlink" width="297.194682pt" height="231.820625pt" viewBox="0 0 297.194682 231.820625" xmlns="http://www.w3.org/2000/svg" version="1.1">
 <metadata>
  <rdf:RDF xmlns:dc="http://purl.org/dc/elements/1.1/" xmlns:cc="http://creativecommons.org/ns#" xmlns:rdf="http://www.w3.org/1999/02/22-rdf-syntax-ns#">
   <cc:Work>
    <dc:type rdf:resource="http://purl.org/dc/dcmitype/StillImage"/>
    <dc:date>2026-07-23T05:49:17.469822</dc:date>
    <dc:format>image/svg+xml</dc:format>
    <dc:creator>
     <cc:Agent>
      <dc:title>Matplotlib v3.10.9, https://matplotlib.org/</dc:title>
     </cc:Agent>
    </dc:creator>
   </cc:Work>
  </rdf:RDF>
 </metadata>
 <defs>
  <style type="text/css">*{stroke-linejoin: round; stroke-linecap: butt}</style>
 </defs>
 <g id="figure_1">
  <g id="patch_1">
   <path d="M 0 231.820625 
L 297.194682 231.820625 
L 297.194682 0 
L 0 0 
z
" style="fill: #ffffff"/>
  </g>
  <g id="axes_1">
   <g id="patch_2">
    <path d="M 42.8616 91.725939 
L 281.5416 91.725939 
L 281.5416 7.2 
L 42.8616 7.2 
z
" style="fill: #ffffff"/>
   </g>
   <g id="matplotlib.axis_1">
    <g id="xtick_1">
     <g id="line2d_1">
      <path d="M 42.8616 91.725939 
L 42.8616 7.2 
" clip-path="url(#p2746e5ae32)" style="fill: none; stroke: #b0b0b0; stroke-opacity: 0.25; stroke-width: 0.5; stroke-linecap: square"/>
     </g>
    </g>
    <g id="xtick_2">
     <g id="line2d_2">
      <path d="M 90.124966 91.725939 
L 90.124966 7.2 
" clip-path="url(#p2746e5ae32)" style="fill: none; stroke: #b0b0b0; stroke-opacity: 0.25; stroke-width: 0.5; stroke-linecap: square"/>
     </g>
    </g>
    <g id="xtick_3">
     <g id="line2d_3">
      <path d="M 137.388333 91.725939 
L 137.388333 7.2 
" clip-path="url(#p2746e5ae32)" style="fill: none; stroke: #b0b0b0; stroke-opacity: 0.25; stroke-width: 0.5; stroke-linecap: square"/>
     </g>
    </g>
    <g id="xtick_4">
     <g id="line2d_4">
      <path d="M 184.651699 91.725939 
L 184.651699 7.2 
" clip-path="url(#p2746e5ae32)" style="fill: none; stroke: #b0b0b0; stroke-opacity: 0.25; stroke-width: 0.5; stroke-linecap: square"/>
     </g>
    </g>
    <g id="xtick_5">
     <g id="line2d_5">
      <path d="M 231.915065 91.725939 
L 231.915065 7.2 
" clip-path="url(#p2746e5ae32)" style="fill: none; stroke: #b0b0b0; stroke-opacity: 0.25; stroke-width: 0.5; stroke-linecap: square"/>
     </g>
    </g>
    <g id="xtick_6">
     <g id="line2d_6">
      <path d="M 279.178432 91.725939 
L 279.178432 7.2 
" clip-path="url(#p2746e5ae32)" style="fill: none; stroke: #b0b0b0; stroke-opacity: 0.25; stroke-width: 0.5; stroke-linecap: square"/>
     </g>
    </g>
   </g>
   <g id="matplotlib.axis_2">
    <g id="ytick_1">
     <g id="line2d_7">
      <path d="M 42.8616 84.582902 
L 281.5416 84.582902 
" clip-path="url(#p2746e5ae32)" style="fill: none; stroke: #b0b0b0; stroke-opacity: 0.25; stroke-width: 0.5; stroke-linecap: square"/>
     </g>
     <g id="line2d_8">
      <defs>
       <path id="m625742d10a" d="M 0 0 
L -3.5 0 
" style="stroke: #000000; stroke-width: 0.8"/>
      </defs>
      <g>
       <use xlink:href="#m625742d10a" x="42.8616" y="84.582902" style="stroke: #000000; stroke-width: 0.8"/>
      </g>
     </g>
     <g id="text_1">
      <!-- 150 -->
      <g transform="translate(19.637225 87.812238) scale(0.085 -0.085)">
       <defs>
        <path id="DejaVuSans-31" d="M 794 531 
L 1825 531 
L 1825 4091 
L 703 3866 
L 703 4441 
L 1819 4666 
L 2450 4666 
L 2450 531 
L 3481 531 
L 3481 0 
L 794 0 
L 794 531 
z
" transform="scale(0.015625)"/>
        <path id="DejaVuSans-35" d="M 691 4666 
L 3169 4666 
L 3169 4134 
L 1269 4134 
L 1269 2991 
Q 1406 3038 1543 3061 
Q 1681 3084 1819 3084 
Q 2600 3084 3056 2656 
Q 3513 2228 3513 1497 
Q 3513 744 3044 326 
Q 2575 -91 1722 -91 
Q 1428 -91 1123 -41 
Q 819 9 494 109 
L 494 744 
Q 775 591 1075 516 
Q 1375 441 1709 441 
Q 2250 441 2565 725 
Q 2881 1009 2881 1497 
Q 2881 1984 2565 2268 
Q 2250 2553 1709 2553 
Q 1456 2553 1204 2497 
Q 953 2441 691 2322 
L 691 4666 
z
" transform="scale(0.015625)"/>
        <path id="DejaVuSans-30" d="M 2034 4250 
Q 1547 4250 1301 3770 
Q 1056 3291 1056 2328 
Q 1056 1369 1301 889 
Q 1547 409 2034 409 
Q 2525 409 2770 889 
Q 3016 1369 3016 2328 
Q 3016 3291 2770 3770 
Q 2525 4250 2034 4250 
z
M 2034 4750 
Q 2819 4750 3233 4129 
Q 3647 3509 3647 2328 
Q 3647 1150 3233 529 
Q 2819 -91 2034 -91 
Q 1250 -91 836 529 
Q 422 1150 422 2328 
Q 422 3509 836 4129 
Q 1250 4750 2034 4750 
z
" transform="scale(0.015625)"/>
       </defs>
       <use xlink:href="#DejaVuSans-31"/>
       <use xlink:href="#DejaVuSans-35" transform="translate(63.623047 0)"/>
       <use xlink:href="#DejaVuSans-30" transform="translate(127.246094 0)"/>
      </g>
     </g>
    </g>
    <g id="ytick_2">
     <g id="line2d_9">
      <path d="M 42.8616 54.820247 
L 281.5416 54.820247 
" clip-path="url(#p2746e5ae32)" style="fill: none; stroke: #b0b0b0; stroke-opacity: 0.25; stroke-width: 0.5; stroke-linecap: square"/>
     </g>
     <g id="line2d_10">
      <g>
       <use xlink:href="#m625742d10a" x="42.8616" y="54.820247" style="stroke: #000000; stroke-width: 0.8"/>
      </g>
     </g>
     <g id="text_2">
      <!-- 200 -->
      <g transform="translate(19.637225 58.049583) scale(0.085 -0.085)">
       <defs>
        <path id="DejaVuSans-32" d="M 1228 531 
L 3431 531 
L 3431 0 
L 469 0 
L 469 531 
Q 828 903 1448 1529 
Q 2069 2156 2228 2338 
Q 2531 2678 2651 2914 
Q 2772 3150 2772 3378 
Q 2772 3750 2511 3984 
Q 2250 4219 1831 4219 
Q 1534 4219 1204 4116 
Q 875 4013 500 3803 
L 500 4441 
Q 881 4594 1212 4672 
Q 1544 4750 1819 4750 
Q 2544 4750 2975 4387 
Q 3406 4025 3406 3419 
Q 3406 3131 3298 2873 
Q 3191 2616 2906 2266 
Q 2828 2175 2409 1742 
Q 1991 1309 1228 531 
z
" transform="scale(0.015625)"/>
       </defs>
       <use xlink:href="#DejaVuSans-32"/>
       <use xlink:href="#DejaVuSans-30" transform="translate(63.623047 0)"/>
       <use xlink:href="#DejaVuSans-30" transform="translate(127.246094 0)"/>
      </g>
     </g>
    </g>
    <g id="ytick_3">
     <g id="line2d_11">
      <path d="M 42.8616 25.057593 
L 281.5416 25.057593 
" clip-path="url(#p2746e5ae32)" style="fill: none; stroke: #b0b0b0; stroke-opacity: 0.25; stroke-width: 0.5; stroke-linecap: square"/>
     </g>
     <g id="line2d_12">
      <g>
       <use xlink:href="#m625742d10a" x="42.8616" y="25.057593" style="stroke: #000000; stroke-width: 0.8"/>
      </g>
     </g>
     <g id="text_3">
      <!-- 250 -->
      <g transform="translate(19.637225 28.286929) scale(0.085 -0.085)">
       <use xlink:href="#DejaVuSans-32"/>
       <use xlink:href="#DejaVuSans-35" transform="translate(63.623047 0)"/>
       <use xlink:href="#DejaVuSans-30" transform="translate(127.246094 0)"/>
      </g>
     </g>
    </g>
   </g>
   <g id="line2d_13">
    <defs>
     <path id="m2c43c98f91" d="M -1.8 0.9 
L 1.8 -0.9 
" style="stroke: #000000; stroke-width: 0.8"/>
    </defs>
    <g>
     <use xlink:href="#m2c43c98f91" x="42.8616" y="91.725939" style="stroke: #000000; stroke-width: 0.8"/>
     <use xlink:href="#m2c43c98f91" x="281.5416" y="91.725939" style="stroke: #000000; stroke-width: 0.8"/>
    </g>
   </g>
   <g id="patch_3">
    <path d="M 42.8616 91.725939 
L 42.8616 7.2 
" style="fill: none; stroke: #000000; stroke-width: 0.8; stroke-linejoin: miter; stroke-linecap: square"/>
   </g>
   <g id="patch_4">
    <path d="M 281.5416 91.725939 
L 281.5416 7.2 
" style="fill: none; stroke: #000000; stroke-width: 0.8; stroke-linejoin: miter; stroke-linecap: square"/>
   </g>
   <g id="patch_5">
    <path d="M 42.8616 7.2 
L 281.5416 7.2 
" style="fill: none; stroke: #000000; stroke-width: 0.8; stroke-linejoin: miter; stroke-linecap: square"/>
   </g>
   <g id="line2d_14">
    <path d="M 44.988451 14.635228 
L 47.115303 16.806334 
L 49.242154 19.894568 
L 51.369006 24.413581 
L 53.495857 31.67693 
L 55.622709 40.605252 
L 57.74956 48.620275 
L 59.876412 57.988475 
L 62.003263 67.830677 
L 64.130115 78.562549 
L 66.256966 88.233113 
L 68.383818 95.163426 
L 70.510669 99.210341 
L 72.637521 102.129761 
L 74.764372 104.053769 
L 76.891224 105.606893 
L 79.018075 106.197651 
L 81.144927 107.698776 
L 83.271778 108.389298 
L 85.39863 109.026182 
L 87.525481 109.533215 
L 89.652333 110.039949 
L 91.779184 110.338624 
L 93.906036 110.607363 
L 96.032887 110.892745 
L 98.159739 111.074552 
L 100.28659 111.20677 
L 102.413442 111.402054 
L 104.540293 111.42004 
L 106.667145 111.568109 
L 108.793996 111.66314 
L 110.920848 111.65677 
L 113.047699 111.763899 
L 115.17455 111.873316 
L 117.301402 111.981521 
L 119.428253 112.106542 
L 121.555105 111.936869 
L 123.681956 111.896451 
L 125.808808 112.094429 
L 127.935659 112.161498 
L 130.062511 112.286194 
L 132.189362 112.374073 
L 134.316214 112.48201 
L 136.443065 112.522248 
L 138.569917 112.477865 
L 140.696768 112.501597 
L 142.82362 112.716204 
L 144.950471 112.70628 
L 147.077323 112.860784 
L 149.204174 112.836513 
L 151.331026 113.035778 
L 153.457877 113.046584 
L 155.584729 113.140343 
L 157.71158 113.21092 
L 159.838432 113.214482 
L 161.965283 113.340067 
L 164.092135 113.337972 
L 166.218986 113.396691 
L 168.345838 113.386129 
L 170.472689 113.432659 
L 172.599541 113.424147 
L 174.726392 113.43776 
L 176.853244 113.442732 
L 178.980095 113.475768 
L 181.106947 113.4347 
L 183.233798 113.505724 
L 185.36065 113.528867 
L 187.487501 113.512686 
L 189.614352 113.518693 
L 191.741204 113.527562 
L 193.868055 113.540328 
L 195.994907 113.55887 
L 198.121758 113.522362 
L 200.24861 113.539536 
L 202.375461 113.56687 
L 204.502313 113.547768 
L 206.629164 113.558771 
L 208.756016 113.549201 
L 210.882867 113.560425 
L 213.009719 113.565351 
L 215.13657 113.574854 
L 217.263422 113.568209 
L 219.390273 113.586007 
L 221.517125 113.553332 
L 223.643976 113.569205 
L 225.770828 113.580584 
L 227.897679 113.572141 
L 230.024531 113.567778 
L 232.151382 113.589129 
L 234.278234 113.58764 
L 236.405085 113.583207 
L 238.531937 113.60116 
L 240.658788 113.598245 
L 242.78564 113.596002 
L 244.912491 113.60402 
L 247.039343 113.597029 
L 249.166194 113.595091 
L 251.293046 113.590722 
L 253.419897 113.602297 
L 255.546749 113.593091 
L 257.6736 113.607084 
L 259.800451 113.606652 
L 261.927303 113.602094 
L 264.054154 113.602656 
L 266.181006 113.607478 
L 268.307857 113.616009 
L 270.434709 113.613944 
L 272.56156 113.607433 
L 274.688412 113.616453 
L 276.815263 113.608135 
L 278.942115 113.611885 
L 281.068966 113.612953 
" clip-path="url(#p2746e5ae32)" style="fill: none; stroke: #0072b2; stroke-width: 1.8; stroke-linecap: square"/>
    <defs>
     <path id="m5027721fc1" d="M 0 2 
C 0.530406 2 1.03916 1.789267 1.414214 1.414214 
C 1.789267 1.03916 2 0.530406 2 0 
C 2 -0.530406 1.789267 -1.03916 1.414214 -1.414214 
C 1.03916 -1.789267 0.530406 -2 0 -2 
C -0.530406 -2 -1.03916 -1.789267 -1.414214 -1.414214 
C -1.789267 -1.03916 -2 -0.530406 -2 0 
C -2 0.530406 -1.789267 1.03916 -1.414214 1.414214 
C -1.03916 1.789267 -0.530406 2 0 2 
z
" style="stroke: #ffffff; stroke-width: 0.4"/>
    </defs>
    <g clip-path="url(#p2746e5ae32)">
     <use xlink:href="#m5027721fc1" x="44.988451" y="14.635228" style="fill: #0072b2; stroke: #ffffff; stroke-width: 0.4"/>
     <use xlink:href="#m5027721fc1" x="74.764372" y="104.053769" style="fill: #0072b2; stroke: #ffffff; stroke-width: 0.4"/>
     <use xlink:href="#m5027721fc1" x="104.540293" y="111.42004" style="fill: #0072b2; stroke: #ffffff; stroke-width: 0.4"/>
     <use xlink:href="#m5027721fc1" x="134.316214" y="112.48201" style="fill: #0072b2; stroke: #ffffff; stroke-width: 0.4"/>
     <use xlink:href="#m5027721fc1" x="164.092135" y="113.337972" style="fill: #0072b2; stroke: #ffffff; stroke-width: 0.4"/>
     <use xlink:href="#m5027721fc1" x="193.868055" y="113.540328" style="fill: #0072b2; stroke: #ffffff; stroke-width: 0.4"/>
     <use xlink:href="#m5027721fc1" x="223.643976" y="113.569205" style="fill: #0072b2; stroke: #ffffff; stroke-width: 0.4"/>
     <use xlink:href="#m5027721fc1" x="253.419897" y="113.602297" style="fill: #0072b2; stroke: #ffffff; stroke-width: 0.4"/>
    </g>
   </g>
   <g id="line2d_15">
    <path d="M 44.988451 83.995199 
L 47.115303 84.93556 
L 49.242154 85.430607 
L 51.369006 85.599439 
L 53.495857 85.775404 
L 55.622709 86.02023 
L 57.74956 86.396575 
L 59.876412 87.017599 
L 62.003263 87.519436 
L 64.130115 88.169207 
L 66.256966 88.722415 
L 68.383818 89.453987 
L 70.510669 90.159644 
L 72.637521 91.070126 
L 74.764372 92.540244 
L 76.891224 93.691304 
L 79.018075 95.042866 
L 81.144927 96.074037 
L 83.271778 97.03462 
L 85.39863 98.403698 
L 87.525481 99.111803 
L 89.652333 100.338512 
L 91.779184 101.359433 
L 93.906036 102.342475 
L 96.032887 102.052342 
L 98.159739 103.007423 
L 100.28659 104.064566 
L 102.413442 105.4691 
L 104.540293 105.318279 
L 106.667145 106.273072 
L 108.793996 107.012531 
L 110.920848 107.315857 
L 113.047699 107.793772 
L 115.17455 107.743102 
L 117.301402 108.523082 
L 119.428253 109.231427 
L 121.555105 109.437664 
L 123.681956 110.483916 
L 125.808808 109.577359 
L 127.935659 110.09393 
L 130.062511 110.339438 
L 132.189362 110.468812 
L 134.316214 109.947348 
L 136.443065 109.868894 
L 138.569917 110.784056 
L 140.696768 110.726737 
L 142.82362 110.952351 
L 144.950471 111.088193 
L 147.077323 110.957002 
L 149.204174 111.04802 
L 151.331026 111.281847 
L 153.457877 111.25484 
L 155.584729 111.393356 
L 157.71158 111.319553 
L 159.838432 111.563 
L 161.965283 111.528891 
L 164.092135 111.749651 
L 166.218986 111.608382 
L 168.345838 111.782879 
L 170.472689 111.733658 
L 172.599541 111.814249 
L 174.726392 111.761413 
L 176.853244 111.931398 
L 178.980095 111.983967 
L 181.106947 111.908115 
L 183.233798 111.935099 
L 185.36065 112.06724 
L 187.487501 112.029886 
L 189.614352 112.152134 
L 191.741204 112.113736 
L 193.868055 112.232986 
L 195.994907 112.216247 
L 198.121758 112.285647 
L 200.24861 112.307242 
L 202.375461 112.225935 
L 204.502313 111.822342 
L 206.629164 112.292619 
L 208.756016 111.965396 
L 210.882867 112.28558 
L 213.009719 112.212047 
L 215.13657 112.33315 
L 217.263422 112.396402 
L 219.390273 112.376269 
L 221.517125 112.539808 
L 223.643976 112.537618 
L 225.770828 112.408771 
L 227.897679 112.556905 
L 230.024531 112.607592 
L 232.151382 112.620048 
L 234.278234 112.586377 
L 236.405085 112.61574 
L 238.531937 112.682335 
L 240.658788 112.650556 
L 242.78564 112.740369 
L 244.912491 112.707638 
L 247.039343 112.751479 
L 249.166194 112.714702 
L 251.293046 112.791847 
L 253.419897 112.8059 
L 255.546749 112.826048 
L 257.6736 112.834995 
L 259.800451 112.861352 
L 261.927303 112.880621 
L 264.054154 112.891952 
L 266.181006 112.907663 
L 268.307857 112.914889 
L 270.434709 112.94904 
L 272.56156 112.959234 
L 274.688412 112.975731 
L 276.815263 112.989506 
L 278.942115 113.022273 
L 281.068966 113.034686 
" clip-path="url(#p2746e5ae32)" style="fill: none; stroke-dasharray: 5.4,1.8,1.8,1.8; stroke-dashoffset: 0; stroke: #000000; stroke-width: 1.8"/>
    <defs>
     <path id="m69719be8d2" d="M -0.666667 2 
L 0.666667 2 
L 0.666667 0.666667 
L 2 0.666667 
L 2 -0.666667 
L 0.666667 -0.666667 
L 0.666667 -2 
L -0.666667 -2 
L -0.666667 -0.666667 
L -2 -0.666667 
L -2 0.666667 
L -0.666667 0.666667 
z
" style="stroke: #ffffff; stroke-width: 0.4; stroke-linejoin: miter"/>
    </defs>
    <g clip-path="url(#p2746e5ae32)">
     <use xlink:href="#m69719be8d2" x="44.988451" y="83.995199" style="stroke: #ffffff; stroke-width: 0.4; stroke-linejoin: miter"/>
     <use xlink:href="#m69719be8d2" x="74.764372" y="92.540244" style="stroke: #ffffff; stroke-width: 0.4; stroke-linejoin: miter"/>
     <use xlink:href="#m69719be8d2" x="104.540293" y="105.318279" style="stroke: #ffffff; stroke-width: 0.4; stroke-linejoin: miter"/>
     <use xlink:href="#m69719be8d2" x="134.316214" y="109.947348" style="stroke: #ffffff; stroke-width: 0.4; stroke-linejoin: miter"/>
     <use xlink:href="#m69719be8d2" x="164.092135" y="111.749651" style="stroke: #ffffff; stroke-width: 0.4; stroke-linejoin: miter"/>
     <use xlink:href="#m69719be8d2" x="193.868055" y="112.232986" style="stroke: #ffffff; stroke-width: 0.4; stroke-linejoin: miter"/>
     <use xlink:href="#m69719be8d2" x="223.643976" y="112.537618" style="stroke: #ffffff; stroke-width: 0.4; stroke-linejoin: miter"/>
     <use xlink:href="#m69719be8d2" x="253.419897" y="112.8059" style="stroke: #ffffff; stroke-width: 0.4; stroke-linejoin: miter"/>
    </g>
   </g>
   <g id="line2d_16">
    <path d="M 44.988451 47.398786 
L 47.115303 48.625484 
L 49.242154 50.465926 
L 51.369006 52.798196 
L 53.495857 56.028843 
L 55.622709 60.96114 
L 57.74956 67.520516 
L 59.876412 74.686035 
L 62.003263 79.881972 
L 64.130115 84.783859 
L 66.256966 88.972195 
L 68.383818 91.500735 
L 70.510669 94.101252 
L 72.637521 96.065803 
L 74.764372 97.379301 
L 76.891224 98.116308 
L 79.018075 98.792163 
L 81.144927 99.606664 
L 83.271778 100.98563 
L 85.39863 102.831189 
L 87.525481 104.882336 
L 89.652333 106.516669 
L 91.779184 107.282452 
L 93.906036 107.684723 
L 96.032887 108.002466 
L 98.159739 108.205596 
L 100.28659 108.363618 
L 102.413442 108.460271 
L 104.540293 108.505212 
L 106.667145 108.530427 
L 108.793996 108.551483 
L 110.920848 108.567676 
L 113.047699 108.598692 
L 115.17455 108.61923 
L 117.301402 108.624398 
L 119.428253 108.605552 
L 121.555105 108.638456 
L 123.681956 108.644719 
L 125.808808 108.737098 
L 127.935659 108.858419 
L 130.062511 109.080734 
L 132.189362 109.393785 
L 134.316214 109.763346 
L 136.443065 110.157404 
L 138.569917 110.510064 
L 140.696768 110.729268 
L 142.82362 110.858266 
L 144.950471 110.947578 
L 147.077323 111.013344 
L 149.204174 111.061832 
L 151.331026 111.111478 
L 153.457877 111.144318 
L 155.584729 111.171829 
L 157.71158 111.205023 
L 159.838432 111.223354 
L 161.965283 111.23381 
L 164.092135 111.250974 
L 166.218986 111.256742 
L 168.345838 111.253003 
L 170.472689 111.264948 
L 172.599541 111.272911 
L 174.726392 111.284251 
L 176.853244 111.287751 
L 178.980095 111.282828 
L 181.106947 111.291509 
L 183.233798 111.285834 
L 185.36065 111.290708 
L 187.487501 111.292089 
L 189.614352 111.295618 
L 191.741204 111.279623 
L 193.868055 111.282693 
L 195.994907 111.295 
L 198.121758 111.296884 
L 200.24861 111.287045 
L 202.375461 111.292769 
L 204.502313 111.295459 
L 206.629164 111.296639 
L 208.756016 111.296094 
L 210.882867 111.285979 
L 213.009719 111.300309 
L 215.13657 111.29542 
L 217.263422 111.29242 
L 219.390273 111.286315 
L 221.517125 111.299782 
L 223.643976 111.289372 
L 225.770828 111.298985 
L 227.897679 111.300424 
L 230.024531 111.288782 
L 232.151382 111.296813 
L 234.278234 111.292932 
L 236.405085 111.29907 
L 238.531937 111.304445 
L 240.658788 111.296153 
L 242.78564 111.297862 
L 244.912491 111.299515 
L 247.039343 111.302738 
L 249.166194 111.298149 
L 251.293046 111.295415 
L 253.419897 111.299788 
L 255.546749 111.295429 
L 257.6736 111.304376 
L 259.800451 111.296754 
L 261.927303 111.303889 
L 264.054154 111.300541 
L 266.181006 111.300235 
L 268.307857 111.301627 
L 270.434709 111.300431 
L 272.56156 111.300473 
L 274.688412 111.305321 
L 276.815263 111.301667 
L 278.942115 111.303126 
L 281.068966 111.301028 
" clip-path="url(#p2746e5ae32)" style="fill: none; stroke-dasharray: 9,3.6; stroke-dashoffset: 0; stroke: #009e73; stroke-width: 1.8"/>
    <defs>
     <path id="mb39d60772a" d="M -0 2.828427 
L 2.828427 0 
L 0 -2.828427 
L -2.828427 -0 
z
" style="stroke: #ffffff; stroke-width: 0.4; stroke-linejoin: miter"/>
    </defs>
    <g clip-path="url(#p2746e5ae32)">
     <use xlink:href="#mb39d60772a" x="44.988451" y="47.398786" style="fill: #009e73; stroke: #ffffff; stroke-width: 0.4; stroke-linejoin: miter"/>
     <use xlink:href="#mb39d60772a" x="74.764372" y="97.379301" style="fill: #009e73; stroke: #ffffff; stroke-width: 0.4; stroke-linejoin: miter"/>
     <use xlink:href="#mb39d60772a" x="104.540293" y="108.505212" style="fill: #009e73; stroke: #ffffff; stroke-width: 0.4; stroke-linejoin: miter"/>
     <use xlink:href="#mb39d60772a" x="134.316214" y="109.763346" style="fill: #009e73; stroke: #ffffff; stroke-width: 0.4; stroke-linejoin: miter"/>
     <use xlink:href="#mb39d60772a" x="164.092135" y="111.250974" style="fill: #009e73; stroke: #ffffff; stroke-width: 0.4; stroke-linejoin: miter"/>
     <use xlink:href="#mb39d60772a" x="193.868055" y="111.282693" style="fill: #009e73; stroke: #ffffff; stroke-width: 0.4; stroke-linejoin: miter"/>
     <use xlink:href="#mb39d60772a" x="223.643976" y="111.289372" style="fill: #009e73; stroke: #ffffff; stroke-width: 0.4; stroke-linejoin: miter"/>
     <use xlink:href="#mb39d60772a" x="253.419897" y="111.299788" style="fill: #009e73; stroke: #ffffff; stroke-width: 0.4; stroke-linejoin: miter"/>
    </g>
   </g>
   <g id="line2d_17">
    <path d="M 44.988451 47.726228 
L 47.115303 49.680669 
L 49.242154 52.218243 
L 51.369006 55.097372 
L 53.495857 59.031674 
L 55.622709 64.90648 
L 57.74956 71.30358 
L 59.876412 75.551636 
L 62.003263 80.467045 
L 64.130115 84.962893 
L 66.256966 88.727438 
L 68.383818 92.5053 
L 70.510669 95.760228 
L 72.637521 97.693724 
L 74.764372 100.155963 
L 76.891224 102.173349 
L 79.018075 103.570268 
L 81.144927 104.775396 
L 83.271778 106.236368 
L 85.39863 107.541966 
L 87.525481 108.193522 
L 89.652333 108.671678 
L 91.779184 109.074337 
L 93.906036 109.421726 
L 96.032887 109.657602 
L 98.159739 109.813233 
L 100.28659 109.882077 
L 102.413442 109.956197 
L 104.540293 110.003744 
L 106.667145 110.057625 
L 108.793996 110.120522 
L 110.920848 110.15515 
L 113.047699 110.166905 
L 115.17455 110.178687 
L 117.301402 110.16233 
L 119.428253 110.188831 
L 121.555105 110.148379 
L 123.681956 110.165503 
L 125.808808 110.180363 
L 127.935659 110.176502 
L 130.062511 110.183945 
L 132.189362 110.197666 
L 134.316214 110.161379 
L 136.443065 110.181846 
L 138.569917 110.183696 
L 140.696768 110.183923 
L 142.82362 110.188974 
L 144.950471 110.175427 
L 147.077323 110.192212 
L 149.204174 110.205826 
L 151.331026 110.196562 
L 153.457877 110.193167 
L 155.584729 110.202219 
L 157.71158 110.194991 
L 159.838432 110.197183 
L 161.965283 110.203821 
L 164.092135 110.200395 
L 166.218986 110.174671 
L 168.345838 110.20434 
L 170.472689 110.182815 
L 172.599541 110.184924 
L 174.726392 110.187047 
L 176.853244 110.194919 
L 178.980095 110.204418 
L 181.106947 110.195194 
L 183.233798 110.17057 
L 185.36065 110.202548 
L 187.487501 110.195423 
L 189.614352 110.198655 
L 191.741204 110.207739 
L 193.868055 110.206227 
L 195.994907 110.200282 
L 198.121758 110.213086 
L 200.24861 110.205147 
L 202.375461 110.209441 
L 204.502313 110.204639 
L 206.629164 110.20292 
L 208.756016 110.216156 
L 210.882867 110.208162 
L 213.009719 110.214808 
L 215.13657 110.203928 
L 217.263422 110.21037 
L 219.390273 110.201745 
L 221.517125 110.212487 
L 223.643976 110.210468 
L 225.770828 110.20426 
L 227.897679 110.217925 
L 230.024531 110.209703 
L 232.151382 110.212042 
L 234.278234 110.214289 
L 236.405085 110.215567 
L 238.531937 110.212477 
L 240.658788 110.216238 
L 242.78564 110.214726 
L 244.912491 110.2157 
L 247.039343 110.215182 
L 249.166194 110.216262 
L 251.293046 110.215611 
L 253.419897 110.216632 
L 255.546749 110.218017 
L 257.6736 110.212293 
L 259.800451 110.213256 
L 261.927303 110.218299 
L 264.054154 110.219035 
L 266.181006 110.220112 
L 268.307857 110.220335 
L 270.434709 110.218796 
L 272.56156 110.215812 
L 274.688412 110.219374 
L 276.815263 110.219741 
L 278.942115 110.220369 
L 281.068966 110.217781 
" clip-path="url(#p2746e5ae32)" style="fill: none; stroke-dasharray: 1.8,1.8; stroke-dashoffset: 0; stroke: #56b4e9; stroke-width: 1.8"/>
    <defs>
     <path id="m17ed76d8cb" d="M -0 2 
L 2 -2 
L -2 -2 
z
" style="stroke: #ffffff; stroke-width: 0.4; stroke-linejoin: miter"/>
    </defs>
    <g clip-path="url(#p2746e5ae32)">
     <use xlink:href="#m17ed76d8cb" x="44.988451" y="47.726228" style="fill: #56b4e9; stroke: #ffffff; stroke-width: 0.4; stroke-linejoin: miter"/>
     <use xlink:href="#m17ed76d8cb" x="74.764372" y="100.155963" style="fill: #56b4e9; stroke: #ffffff; stroke-width: 0.4; stroke-linejoin: miter"/>
     <use xlink:href="#m17ed76d8cb" x="104.540293" y="110.003744" style="fill: #56b4e9; stroke: #ffffff; stroke-width: 0.4; stroke-linejoin: miter"/>
     <use xlink:href="#m17ed76d8cb" x="134.316214" y="110.161379" style="fill: #56b4e9; stroke: #ffffff; stroke-width: 0.4; stroke-linejoin: miter"/>
     <use xlink:href="#m17ed76d8cb" x="164.092135" y="110.200395" style="fill: #56b4e9; stroke: #ffffff; stroke-width: 0.4; stroke-linejoin: miter"/>
     <use xlink:href="#m17ed76d8cb" x="193.868055" y="110.206227" style="fill: #56b4e9; stroke: #ffffff; stroke-width: 0.4; stroke-linejoin: miter"/>
     <use xlink:href="#m17ed76d8cb" x="223.643976" y="110.210468" style="fill: #56b4e9; stroke: #ffffff; stroke-width: 0.4; stroke-linejoin: miter"/>
     <use xlink:href="#m17ed76d8cb" x="253.419897" y="110.216632" style="fill: #56b4e9; stroke: #ffffff; stroke-width: 0.4; stroke-linejoin: miter"/>
    </g>
   </g>
   <g id="line2d_18">
    <path d="M 44.988451 13.650118 
L 47.115303 13.656863 
L 49.242154 13.664469 
L 51.369006 13.716732 
L 53.495857 13.907648 
L 55.622709 14.401173 
L 57.74956 15.238557 
L 59.876412 16.361213 
L 62.003263 17.816919 
L 64.130115 19.6627 
L 66.256966 21.884708 
L 68.383818 24.550612 
L 70.510669 27.6851 
L 72.637521 31.182784 
L 74.764372 34.875923 
L 76.891224 38.723494 
L 79.018075 42.713456 
L 81.144927 46.971708 
L 83.271778 51.79889 
L 85.39863 57.71083 
L 87.525481 64.877727 
L 89.652333 72.104958 
L 91.779184 77.470628 
L 93.906036 79.807304 
L 96.032887 80.756635 
L 98.159739 81.584604 
L 100.28659 82.409062 
L 102.413442 83.220098 
L 104.540293 83.950624 
L 106.667145 84.53696 
L 108.793996 84.976097 
L 110.920848 85.273654 
L 113.047699 85.451554 
L 115.17455 85.496459 
L 117.301402 85.512525 
L 119.428253 85.522089 
L 121.555105 85.530411 
L 123.681956 85.528439 
L 125.808808 85.523724 
L 127.935659 85.520465 
L 130.062511 85.514528 
L 132.189362 85.515971 
L 134.316214 85.518414 
L 136.443065 85.531512 
L 138.569917 85.525927 
L 140.696768 85.527646 
L 142.82362 85.533968 
L 144.950471 85.535848 
L 147.077323 85.511522 
L 149.204174 85.526438 
L 151.331026 85.534172 
L 153.457877 85.528159 
L 155.584729 85.531492 
L 157.71158 85.530029 
L 159.838432 85.53198 
L 161.965283 85.532516 
L 164.092135 85.5339 
L 166.218986 85.530299 
L 168.345838 85.527981 
L 170.472689 85.535724 
L 172.599541 85.532548 
L 174.726392 85.529616 
L 176.853244 85.531443 
L 178.980095 85.533088 
L 181.106947 85.531986 
L 183.233798 85.533996 
L 185.36065 85.525989 
L 187.487501 85.53066 
L 189.614352 85.529774 
L 191.741204 85.534213 
L 193.868055 85.536996 
L 195.994907 85.5356 
L 198.121758 85.534179 
L 200.24861 85.532169 
L 202.375461 85.535338 
L 204.502313 85.529707 
L 206.629164 85.53406 
L 208.756016 85.535951 
L 210.882867 85.53894 
L 213.009719 85.534084 
L 215.13657 85.539732 
L 217.263422 85.535377 
L 219.390273 85.537264 
L 221.517125 85.536061 
L 223.643976 85.537393 
L 225.770828 85.534003 
L 227.897679 85.53422 
L 230.024531 85.537381 
L 232.151382 85.538286 
L 234.278234 85.536446 
L 236.405085 85.539225 
L 238.531937 85.5361 
L 240.658788 85.538545 
L 242.78564 85.538538 
L 244.912491 85.538565 
L 247.039343 85.538238 
L 249.166194 85.538487 
L 251.293046 85.538236 
L 253.419897 85.538664 
L 255.546749 85.538685 
L 257.6736 85.53844 
L 259.800451 85.539521 
L 261.927303 85.539728 
L 264.054154 85.540112 
L 266.181006 85.538956 
L 268.307857 85.538376 
L 270.434709 85.53946 
L 272.56156 85.539036 
L 274.688412 85.539201 
L 276.815263 85.53816 
L 278.942115 85.539653 
L 281.068966 85.538704 
" clip-path="url(#p2746e5ae32)" style="fill: none; stroke-dasharray: 9,3.6; stroke-dashoffset: 0; stroke: #e69f00; stroke-width: 1.8"/>
    <defs>
     <path id="m58dd3b44cc" d="M -2 2 
L 2 2 
L 2 -2 
L -2 -2 
z
" style="stroke: #ffffff; stroke-width: 0.4; stroke-linejoin: miter"/>
    </defs>
    <g clip-path="url(#p2746e5ae32)">
     <use xlink:href="#m58dd3b44cc" x="44.988451" y="13.650118" style="fill: #e69f00; stroke: #ffffff; stroke-width: 0.4; stroke-linejoin: miter"/>
     <use xlink:href="#m58dd3b44cc" x="74.764372" y="34.875923" style="fill: #e69f00; stroke: #ffffff; stroke-width: 0.4; stroke-linejoin: miter"/>
     <use xlink:href="#m58dd3b44cc" x="104.540293" y="83.950624" style="fill: #e69f00; stroke: #ffffff; stroke-width: 0.4; stroke-linejoin: miter"/>
     <use xlink:href="#m58dd3b44cc" x="134.316214" y="85.518414" style="fill: #e69f00; stroke: #ffffff; stroke-width: 0.4; stroke-linejoin: miter"/>
     <use xlink:href="#m58dd3b44cc" x="164.092135" y="85.5339" style="fill: #e69f00; stroke: #ffffff; stroke-width: 0.4; stroke-linejoin: miter"/>
     <use xlink:href="#m58dd3b44cc" x="193.868055" y="85.536996" style="fill: #e69f00; stroke: #ffffff; stroke-width: 0.4; stroke-linejoin: miter"/>
     <use xlink:href="#m58dd3b44cc" x="223.643976" y="85.537393" style="fill: #e69f00; stroke: #ffffff; stroke-width: 0.4; stroke-linejoin: miter"/>
     <use xlink:href="#m58dd3b44cc" x="253.419897" y="85.538664" style="fill: #e69f00; stroke: #ffffff; stroke-width: 0.4; stroke-linejoin: miter"/>
    </g>
   </g>
   <g id="line2d_19">
    <path d="M 44.988451 13.650118 
L 47.115303 13.656863 
L 49.242154 13.664469 
L 51.369006 13.716732 
L 53.495857 13.907648 
L 55.622709 14.401173 
L 57.74956 15.238557 
L 59.876412 16.361213 
L 62.003263 17.816919 
L 64.130115 19.6627 
L 66.256966 21.884708 
L 68.383818 24.550612 
L 70.510669 27.6851 
L 72.637521 31.182784 
L 74.764372 34.875923 
L 76.891224 38.723494 
L 79.018075 42.713456 
L 81.144927 46.971708 
L 83.271778 51.79889 
L 85.39863 57.71083 
L 87.525481 64.877727 
L 89.652333 72.104958 
L 91.779184 77.470629 
L 93.906036 79.807304 
L 96.032887 80.756635 
L 98.159739 81.584605 
L 100.28659 82.40904 
L 102.413442 83.220274 
L 104.540293 83.936034 
L 106.667145 84.504712 
L 108.793996 84.952523 
L 110.920848 85.227874 
L 113.047699 85.412978 
L 115.17455 85.468172 
L 117.301402 85.507016 
L 119.428253 85.516799 
L 121.555105 85.527196 
L 123.681956 85.528895 
L 125.808808 85.525383 
L 127.935659 85.533389 
L 130.062511 85.517222 
L 132.189362 85.531452 
L 134.316214 85.530756 
L 136.443065 85.533326 
L 138.569917 85.531285 
L 140.696768 85.530452 
L 142.82362 85.525855 
L 144.950471 85.532363 
L 147.077323 85.5228 
L 149.204174 85.525787 
L 151.331026 85.535098 
L 153.457877 85.517849 
L 155.584729 85.528025 
L 157.71158 85.529082 
L 159.838432 85.532288 
L 161.965283 85.531179 
L 164.092135 85.529184 
L 166.218986 85.531248 
L 168.345838 85.528769 
L 170.472689 85.530958 
L 172.599541 85.532292 
L 174.726392 85.52507 
L 176.853244 85.531207 
L 178.980095 85.532217 
L 181.106947 85.530098 
L 183.233798 85.531734 
L 185.36065 85.534925 
L 187.487501 85.53264 
L 189.614352 85.532419 
L 191.741204 85.533334 
L 193.868055 85.534111 
L 195.994907 85.53707 
L 198.121758 85.536583 
L 200.24861 85.532252 
L 202.375461 85.536055 
L 204.502313 85.528951 
L 206.629164 85.533357 
L 208.756016 85.532544 
L 210.882867 85.53862 
L 213.009719 85.533778 
L 215.13657 85.538981 
L 217.263422 85.537034 
L 219.390273 85.536768 
L 221.517125 85.53385 
L 223.643976 85.536906 
L 225.770828 85.534398 
L 227.897679 85.534041 
L 230.024531 85.537278 
L 232.151382 85.538733 
L 234.278234 85.537011 
L 236.405085 85.538676 
L 238.531937 85.536508 
L 240.658788 85.538656 
L 242.78564 85.538254 
L 244.912491 85.538205 
L 247.039343 85.538499 
L 249.166194 85.538328 
L 251.293046 85.538126 
L 253.419897 85.538488 
L 255.546749 85.539085 
L 257.6736 85.538196 
L 259.800451 85.539598 
L 261.927303 85.539621 
L 264.054154 85.539981 
L 266.181006 85.538891 
L 268.307857 85.538342 
L 270.434709 85.539464 
L 272.56156 85.539002 
L 274.688412 85.539182 
L 276.815263 85.538145 
L 278.942115 85.539613 
L 281.068966 85.538608 
" clip-path="url(#p2746e5ae32)" style="fill: none; stroke-dasharray: 1.8,1.8; stroke-dashoffset: 0; stroke: #d55e00; stroke-width: 1.8"/>
    <defs>
     <path id="m924785447e" d="M 0 -2 
L -2 2 
L 2 2 
z
" style="stroke: #ffffff; stroke-width: 0.4; stroke-linejoin: miter"/>
    </defs>
    <g clip-path="url(#p2746e5ae32)">
     <use xlink:href="#m924785447e" x="44.988451" y="13.650118" style="fill: #d55e00; stroke: #ffffff; stroke-width: 0.4; stroke-linejoin: miter"/>
     <use xlink:href="#m924785447e" x="74.764372" y="34.875923" style="fill: #d55e00; stroke: #ffffff; stroke-width: 0.4; stroke-linejoin: miter"/>
     <use xlink:href="#m924785447e" x="104.540293" y="83.936034" style="fill: #d55e00; stroke: #ffffff; stroke-width: 0.4; stroke-linejoin: miter"/>
     <use xlink:href="#m924785447e" x="134.316214" y="85.530756" style="fill: #d55e00; stroke: #ffffff; stroke-width: 0.4; stroke-linejoin: miter"/>
     <use xlink:href="#m924785447e" x="164.092135" y="85.529184" style="fill: #d55e00; stroke: #ffffff; stroke-width: 0.4; stroke-linejoin: miter"/>
     <use xlink:href="#m924785447e" x="193.868055" y="85.534111" style="fill: #d55e00; stroke: #ffffff; stroke-width: 0.4; stroke-linejoin: miter"/>
     <use xlink:href="#m924785447e" x="223.643976" y="85.536906" style="fill: #d55e00; stroke: #ffffff; stroke-width: 0.4; stroke-linejoin: miter"/>
     <use xlink:href="#m924785447e" x="253.419897" y="85.538488" style="fill: #d55e00; stroke: #ffffff; stroke-width: 0.4; stroke-linejoin: miter"/>
    </g>
   </g>
   <g id="legend_1">
    <g id="line2d_20">
     <path d="M 187.69285 15.27875 
L 196.49285 15.27875 
L 205.29285 15.27875 
" style="fill: none; stroke: #0072b2; stroke-width: 1.8; stroke-linecap: square"/>
     <g>
      <use xlink:href="#m5027721fc1" x="196.49285" y="15.27875" style="fill: #0072b2; stroke: #ffffff; stroke-width: 0.4"/>
     </g>
    </g>
    <g id="text_4">
     <!-- RichBasis -->
     <g transform="translate(211.69285 18.07875) scale(0.08 -0.08)">
      <defs>
       <path id="DejaVuSans-52" d="M 2841 2188 
Q 3044 2119 3236 1894 
Q 3428 1669 3622 1275 
L 4263 0 
L 3584 0 
L 2988 1197 
Q 2756 1666 2539 1819 
Q 2322 1972 1947 1972 
L 1259 1972 
L 1259 0 
L 628 0 
L 628 4666 
L 2053 4666 
Q 2853 4666 3247 4331 
Q 3641 3997 3641 3322 
Q 3641 2881 3436 2590 
Q 3231 2300 2841 2188 
z
M 1259 4147 
L 1259 2491 
L 2053 2491 
Q 2509 2491 2742 2702 
Q 2975 2913 2975 3322 
Q 2975 3731 2742 3939 
Q 2509 4147 2053 4147 
L 1259 4147 
z
" transform="scale(0.015625)"/>
       <path id="DejaVuSans-69" d="M 603 3500 
L 1178 3500 
L 1178 0 
L 603 0 
L 603 3500 
z
M 603 4863 
L 1178 4863 
L 1178 4134 
L 603 4134 
L 603 4863 
z
" transform="scale(0.015625)"/>
       <path id="DejaVuSans-63" d="M 3122 3366 
L 3122 2828 
Q 2878 2963 2633 3030 
Q 2388 3097 2138 3097 
Q 1578 3097 1268 2742 
Q 959 2388 959 1747 
Q 959 1106 1268 751 
Q 1578 397 2138 397 
Q 2388 397 2633 464 
Q 2878 531 3122 666 
L 3122 134 
Q 2881 22 2623 -34 
Q 2366 -91 2075 -91 
Q 1284 -91 818 406 
Q 353 903 353 1747 
Q 353 2603 823 3093 
Q 1294 3584 2113 3584 
Q 2378 3584 2631 3529 
Q 2884 3475 3122 3366 
z
" transform="scale(0.015625)"/>
       <path id="DejaVuSans-68" d="M 3513 2113 
L 3513 0 
L 2938 0 
L 2938 2094 
Q 2938 2591 2744 2837 
Q 2550 3084 2163 3084 
Q 1697 3084 1428 2787 
Q 1159 2491 1159 1978 
L 1159 0 
L 581 0 
L 581 4863 
L 1159 4863 
L 1159 2956 
Q 1366 3272 1645 3428 
Q 1925 3584 2291 3584 
Q 2894 3584 3203 3211 
Q 3513 2838 3513 2113 
z
" transform="scale(0.015625)"/>
       <path id="DejaVuSans-42" d="M 1259 2228 
L 1259 519 
L 2272 519 
Q 2781 519 3026 730 
Q 3272 941 3272 1375 
Q 3272 1813 3026 2020 
Q 2781 2228 2272 2228 
L 1259 2228 
z
M 1259 4147 
L 1259 2741 
L 2194 2741 
Q 2656 2741 2882 2914 
Q 3109 3088 3109 3444 
Q 3109 3797 2882 3972 
Q 2656 4147 2194 4147 
L 1259 4147 
z
M 628 4666 
L 2241 4666 
Q 2963 4666 3353 4366 
Q 3744 4066 3744 3513 
Q 3744 3084 3544 2831 
Q 3344 2578 2956 2516 
Q 3422 2416 3680 2098 
Q 3938 1781 3938 1306 
Q 3938 681 3513 340 
Q 3088 0 2303 0 
L 628 0 
L 628 4666 
z
" transform="scale(0.015625)"/>
       <path id="DejaVuSans-61" d="M 2194 1759 
Q 1497 1759 1228 1600 
Q 959 1441 959 1056 
Q 959 750 1161 570 
Q 1363 391 1709 391 
Q 2188 391 2477 730 
Q 2766 1069 2766 1631 
L 2766 1759 
L 2194 1759 
z
M 3341 1997 
L 3341 0 
L 2766 0 
L 2766 531 
Q 2569 213 2275 61 
Q 1981 -91 1556 -91 
Q 1019 -91 701 211 
Q 384 513 384 1019 
Q 384 1609 779 1909 
Q 1175 2209 1959 2209 
L 2766 2209 
L 2766 2266 
Q 2766 2663 2505 2880 
Q 2244 3097 1772 3097 
Q 1472 3097 1187 3025 
Q 903 2953 641 2809 
L 641 3341 
Q 956 3463 1253 3523 
Q 1550 3584 1831 3584 
Q 2591 3584 2966 3190 
Q 3341 2797 3341 1997 
z
" transform="scale(0.015625)"/>
       <path id="DejaVuSans-73" d="M 2834 3397 
L 2834 2853 
Q 2591 2978 2328 3040 
Q 2066 3103 1784 3103 
Q 1356 3103 1142 2972 
Q 928 2841 928 2578 
Q 928 2378 1081 2264 
Q 1234 2150 1697 2047 
L 1894 2003 
Q 2506 1872 2764 1633 
Q 3022 1394 3022 966 
Q 3022 478 2636 193 
Q 2250 -91 1575 -91 
Q 1294 -91 989 -36 
Q 684 19 347 128 
L 347 722 
Q 666 556 975 473 
Q 1284 391 1588 391 
Q 1994 391 2212 530 
Q 2431 669 2431 922 
Q 2431 1156 2273 1281 
Q 2116 1406 1581 1522 
L 1381 1569 
Q 847 1681 609 1914 
Q 372 2147 372 2553 
Q 372 3047 722 3315 
Q 1072 3584 1716 3584 
Q 2034 3584 2315 3537 
Q 2597 3491 2834 3397 
z
" transform="scale(0.015625)"/>
      </defs>
      <use xlink:href="#DejaVuSans-52"/>
      <use xlink:href="#DejaVuSans-69" transform="translate(69.482422 0)"/>
      <use xlink:href="#DejaVuSans-63" transform="translate(97.265625 0)"/>
      <use xlink:href="#DejaVuSans-68" transform="translate(152.246094 0)"/>
      <use xlink:href="#DejaVuSans-42" transform="translate(215.625 0)"/>
      <use xlink:href="#DejaVuSans-61" transform="translate(284.228516 0)"/>
      <use xlink:href="#DejaVuSans-73" transform="translate(345.507812 0)"/>
      <use xlink:href="#DejaVuSans-69" transform="translate(397.607422 0)"/>
      <use xlink:href="#DejaVuSans-73" transform="translate(425.390625 0)"/>
     </g>
    </g>
    <g id="line2d_21">
     <path d="M 187.69285 24.78125 
L 196.49285 24.78125 
L 205.29285 24.78125 
" style="fill: none; stroke-dasharray: 5.4,1.8,1.8,1.8; stroke-dashoffset: 0; stroke: #000000; stroke-width: 1.8"/>
     <g>
      <use xlink:href="#m69719be8d2" x="196.49285" y="24.78125" style="stroke: #ffffff; stroke-width: 0.4; stroke-linejoin: miter"/>
     </g>
    </g>
    <g id="text_5">
     <!-- DCT-IV (relaxed) -->
     <g transform="translate(211.69285 27.58125) scale(0.08 -0.08)">
      <defs>
       <path id="DejaVuSans-44" d="M 1259 4147 
L 1259 519 
L 2022 519 
Q 2988 519 3436 956 
Q 3884 1394 3884 2338 
Q 3884 3275 3436 3711 
Q 2988 4147 2022 4147 
L 1259 4147 
z
M 628 4666 
L 1925 4666 
Q 3281 4666 3915 4102 
Q 4550 3538 4550 2338 
Q 4550 1131 3912 565 
Q 3275 0 1925 0 
L 628 0 
L 628 4666 
z
" transform="scale(0.015625)"/>
       <path id="DejaVuSans-43" d="M 4122 4306 
L 4122 3641 
Q 3803 3938 3442 4084 
Q 3081 4231 2675 4231 
Q 1875 4231 1450 3742 
Q 1025 3253 1025 2328 
Q 1025 1406 1450 917 
Q 1875 428 2675 428 
Q 3081 428 3442 575 
Q 3803 722 4122 1019 
L 4122 359 
Q 3791 134 3420 21 
Q 3050 -91 2638 -91 
Q 1578 -91 968 557 
Q 359 1206 359 2328 
Q 359 3453 968 4101 
Q 1578 4750 2638 4750 
Q 3056 4750 3426 4639 
Q 3797 4528 4122 4306 
z
" transform="scale(0.015625)"/>
       <path id="DejaVuSans-54" d="M -19 4666 
L 3928 4666 
L 3928 4134 
L 2272 4134 
L 2272 0 
L 1638 0 
L 1638 4134 
L -19 4134 
L -19 4666 
z
" transform="scale(0.015625)"/>
       <path id="DejaVuSans-2d" d="M 313 2009 
L 1997 2009 
L 1997 1497 
L 313 1497 
L 313 2009 
z
" transform="scale(0.015625)"/>
       <path id="DejaVuSans-49" d="M 628 4666 
L 1259 4666 
L 1259 0 
L 628 0 
L 628 4666 
z
" transform="scale(0.015625)"/>
       <path id="DejaVuSans-56" d="M 1831 0 
L 50 4666 
L 709 4666 
L 2188 738 
L 3669 4666 
L 4325 4666 
L 2547 0 
L 1831 0 
z
" transform="scale(0.015625)"/>
       <path id="DejaVuSans-20" transform="scale(0.015625)"/>
       <path id="DejaVuSans-28" d="M 1984 4856 
Q 1566 4138 1362 3434 
Q 1159 2731 1159 2009 
Q 1159 1288 1364 580 
Q 1569 -128 1984 -844 
L 1484 -844 
Q 1016 -109 783 600 
Q 550 1309 550 2009 
Q 550 2706 781 3412 
Q 1013 4119 1484 4856 
L 1984 4856 
z
" transform="scale(0.015625)"/>
       <path id="DejaVuSans-72" d="M 2631 2963 
Q 2534 3019 2420 3045 
Q 2306 3072 2169 3072 
Q 1681 3072 1420 2755 
Q 1159 2438 1159 1844 
L 1159 0 
L 581 0 
L 581 3500 
L 1159 3500 
L 1159 2956 
Q 1341 3275 1631 3429 
Q 1922 3584 2338 3584 
Q 2397 3584 2469 3576 
Q 2541 3569 2628 3553 
L 2631 2963 
z
" transform="scale(0.015625)"/>
       <path id="DejaVuSans-65" d="M 3597 1894 
L 3597 1613 
L 953 1613 
Q 991 1019 1311 708 
Q 1631 397 2203 397 
Q 2534 397 2845 478 
Q 3156 559 3463 722 
L 3463 178 
Q 3153 47 2828 -22 
Q 2503 -91 2169 -91 
Q 1331 -91 842 396 
Q 353 884 353 1716 
Q 353 2575 817 3079 
Q 1281 3584 2069 3584 
Q 2775 3584 3186 3129 
Q 3597 2675 3597 1894 
z
M 3022 2063 
Q 3016 2534 2758 2815 
Q 2500 3097 2075 3097 
Q 1594 3097 1305 2825 
Q 1016 2553 972 2059 
L 3022 2063 
z
" transform="scale(0.015625)"/>
       <path id="DejaVuSans-6c" d="M 603 4863 
L 1178 4863 
L 1178 0 
L 603 0 
L 603 4863 
z
" transform="scale(0.015625)"/>
       <path id="DejaVuSans-78" d="M 3513 3500 
L 2247 1797 
L 3578 0 
L 2900 0 
L 1881 1375 
L 863 0 
L 184 0 
L 1544 1831 
L 300 3500 
L 978 3500 
L 1906 2253 
L 2834 3500 
L 3513 3500 
z
" transform="scale(0.015625)"/>
       <path id="DejaVuSans-64" d="M 2906 2969 
L 2906 4863 
L 3481 4863 
L 3481 0 
L 2906 0 
L 2906 525 
Q 2725 213 2448 61 
Q 2172 -91 1784 -91 
Q 1150 -91 751 415 
Q 353 922 353 1747 
Q 353 2572 751 3078 
Q 1150 3584 1784 3584 
Q 2172 3584 2448 3432 
Q 2725 3281 2906 2969 
z
M 947 1747 
Q 947 1113 1208 752 
Q 1469 391 1925 391 
Q 2381 391 2643 752 
Q 2906 1113 2906 1747 
Q 2906 2381 2643 2742 
Q 2381 3103 1925 3103 
Q 1469 3103 1208 2742 
Q 947 2381 947 1747 
z
" transform="scale(0.015625)"/>
       <path id="DejaVuSans-29" d="M 513 4856 
L 1013 4856 
Q 1481 4119 1714 3412 
Q 1947 2706 1947 2009 
Q 1947 1309 1714 600 
Q 1481 -109 1013 -844 
L 513 -844 
Q 928 -128 1133 580 
Q 1338 1288 1338 2009 
Q 1338 2731 1133 3434 
Q 928 4138 513 4856 
z
" transform="scale(0.015625)"/>
      </defs>
      <use xlink:href="#DejaVuSans-44"/>
      <use xlink:href="#DejaVuSans-43" transform="translate(77.001953 0)"/>
      <use xlink:href="#DejaVuSans-54" transform="translate(146.826172 0)"/>
      <use xlink:href="#DejaVuSans-2d" transform="translate(198.785156 0)"/>
      <use xlink:href="#DejaVuSans-49" transform="translate(234.869141 0)"/>
      <use xlink:href="#DejaVuSans-56" transform="translate(264.361328 0)"/>
      <use xlink:href="#DejaVuSans-20" transform="translate(332.769531 0)"/>
      <use xlink:href="#DejaVuSans-28" transform="translate(364.556641 0)"/>
      <use xlink:href="#DejaVuSans-72" transform="translate(403.570312 0)"/>
      <use xlink:href="#DejaVuSans-65" transform="translate(442.433594 0)"/>
      <use xlink:href="#DejaVuSans-6c" transform="translate(503.957031 0)"/>
      <use xlink:href="#DejaVuSans-61" transform="translate(531.740234 0)"/>
      <use xlink:href="#DejaVuSans-78" transform="translate(593.019531 0)"/>
      <use xlink:href="#DejaVuSans-65" transform="translate(649.074219 0)"/>
      <use xlink:href="#DejaVuSans-64" transform="translate(710.597656 0)"/>
      <use xlink:href="#DejaVuSans-29" transform="translate(774.074219 0)"/>
     </g>
    </g>
    <g id="line2d_22">
     <path d="M 187.69285 34.28375 
L 196.49285 34.28375 
L 205.29285 34.28375 
" style="fill: none; stroke-dasharray: 9,3.6; stroke-dashoffset: 0; stroke: #009e73; stroke-width: 1.8"/>
     <g>
      <use xlink:href="#mb39d60772a" x="196.49285" y="34.28375" style="fill: #009e73; stroke: #ffffff; stroke-width: 0.4; stroke-linejoin: miter"/>
     </g>
    </g>
    <g id="text_6">
     <!-- TEBD -->
     <g transform="translate(211.69285 37.08375) scale(0.08 -0.08)">
      <defs>
       <path id="DejaVuSans-45" d="M 628 4666 
L 3578 4666 
L 3578 4134 
L 1259 4134 
L 1259 2753 
L 3481 2753 
L 3481 2222 
L 1259 2222 
L 1259 531 
L 3634 531 
L 3634 0 
L 628 0 
L 628 4666 
z
" transform="scale(0.015625)"/>
      </defs>
      <use xlink:href="#DejaVuSans-54"/>
      <use xlink:href="#DejaVuSans-45" transform="translate(61.083984 0)"/>
      <use xlink:href="#DejaVuSans-42" transform="translate(124.267578 0)"/>
      <use xlink:href="#DejaVuSans-44" transform="translate(192.871094 0)"/>
     </g>
    </g>
    <g id="line2d_23">
     <path d="M 187.69285 43.78625 
L 196.49285 43.78625 
L 205.29285 43.78625 
" style="fill: none; stroke-dasharray: 1.8,1.8; stroke-dashoffset: 0; stroke: #56b4e9; stroke-width: 1.8"/>
     <g>
      <use xlink:href="#m17ed76d8cb" x="196.49285" y="43.78625" style="fill: #56b4e9; stroke: #ffffff; stroke-width: 0.4; stroke-linejoin: miter"/>
     </g>
    </g>
    <g id="text_7">
     <!-- MERA -->
     <g transform="translate(211.69285 46.58625) scale(0.08 -0.08)">
      <defs>
       <path id="DejaVuSans-4d" d="M 628 4666 
L 1569 4666 
L 2759 1491 
L 3956 4666 
L 4897 4666 
L 4897 0 
L 4281 0 
L 4281 4097 
L 3078 897 
L 2444 897 
L 1241 4097 
L 1241 0 
L 628 0 
L 628 4666 
z
" transform="scale(0.015625)"/>
       <path id="DejaVuSans-41" d="M 2188 4044 
L 1331 1722 
L 3047 1722 
L 2188 4044 
z
M 1831 4666 
L 2547 4666 
L 4325 0 
L 3669 0 
L 3244 1197 
L 1141 1197 
L 716 0 
L 50 0 
L 1831 4666 
z
" transform="scale(0.015625)"/>
      </defs>
      <use xlink:href="#DejaVuSans-4d"/>
      <use xlink:href="#DejaVuSans-45" transform="translate(86.279297 0)"/>
      <use xlink:href="#DejaVuSans-52" transform="translate(149.462891 0)"/>
      <use xlink:href="#DejaVuSans-41" transform="translate(214.945312 0)"/>
     </g>
    </g>
    <g id="line2d_24">
     <path d="M 187.69285 53.28875 
L 196.49285 53.28875 
L 205.29285 53.28875 
" style="fill: none; stroke-dasharray: 9,3.6; stroke-dashoffset: 0; stroke: #e69f00; stroke-width: 1.8"/>
     <g>
      <use xlink:href="#m58dd3b44cc" x="196.49285" y="53.28875" style="fill: #e69f00; stroke: #ffffff; stroke-width: 0.4; stroke-linejoin: miter"/>
     </g>
    </g>
    <g id="text_8">
     <!-- QFT -->
     <g transform="translate(211.69285 56.08875) scale(0.08 -0.08)">
      <defs>
       <path id="DejaVuSans-51" d="M 2522 4238 
Q 1834 4238 1429 3725 
Q 1025 3213 1025 2328 
Q 1025 1447 1429 934 
Q 1834 422 2522 422 
Q 3209 422 3611 934 
Q 4013 1447 4013 2328 
Q 4013 3213 3611 3725 
Q 3209 4238 2522 4238 
z
M 3406 84 
L 4238 -825 
L 3475 -825 
L 2784 -78 
Q 2681 -84 2626 -87 
Q 2572 -91 2522 -91 
Q 1538 -91 948 567 
Q 359 1225 359 2328 
Q 359 3434 948 4092 
Q 1538 4750 2522 4750 
Q 3503 4750 4090 4092 
Q 4678 3434 4678 2328 
Q 4678 1516 4351 937 
Q 4025 359 3406 84 
z
" transform="scale(0.015625)"/>
       <path id="DejaVuSans-46" d="M 628 4666 
L 3309 4666 
L 3309 4134 
L 1259 4134 
L 1259 2759 
L 3109 2759 
L 3109 2228 
L 1259 2228 
L 1259 0 
L 628 0 
L 628 4666 
z
" transform="scale(0.015625)"/>
      </defs>
      <use xlink:href="#DejaVuSans-51"/>
      <use xlink:href="#DejaVuSans-46" transform="translate(78.710938 0)"/>
      <use xlink:href="#DejaVuSans-54" transform="translate(134.480469 0)"/>
     </g>
    </g>
    <g id="line2d_25">
     <path d="M 187.69285 62.79125 
L 196.49285 62.79125 
L 205.29285 62.79125 
" style="fill: none; stroke-dasharray: 1.8,1.8; stroke-dashoffset: 0; stroke: #d55e00; stroke-width: 1.8"/>
     <g>
      <use xlink:href="#m924785447e" x="196.49285" y="62.79125" style="fill: #d55e00; stroke: #ffffff; stroke-width: 0.4; stroke-linejoin: miter"/>
     </g>
    </g>
    <g id="text_9">
     <!-- Entangled QFT -->
     <g transform="translate(211.69285 65.59125) scale(0.08 -0.08)">
      <defs>
       <path id="DejaVuSans-6e" d="M 3513 2113 
L 3513 0 
L 2938 0 
L 2938 2094 
Q 2938 2591 2744 2837 
Q 2550 3084 2163 3084 
Q 1697 3084 1428 2787 
Q 1159 2491 1159 1978 
L 1159 0 
L 581 0 
L 581 3500 
L 1159 3500 
L 1159 2956 
Q 1366 3272 1645 3428 
Q 1925 3584 2291 3584 
Q 2894 3584 3203 3211 
Q 3513 2838 3513 2113 
z
" transform="scale(0.015625)"/>
       <path id="DejaVuSans-74" d="M 1172 4494 
L 1172 3500 
L 2356 3500 
L 2356 3053 
L 1172 3053 
L 1172 1153 
Q 1172 725 1289 603 
Q 1406 481 1766 481 
L 2356 481 
L 2356 0 
L 1766 0 
Q 1100 0 847 248 
Q 594 497 594 1153 
L 594 3053 
L 172 3053 
L 172 3500 
L 594 3500 
L 594 4494 
L 1172 4494 
z
" transform="scale(0.015625)"/>
       <path id="DejaVuSans-67" d="M 2906 1791 
Q 2906 2416 2648 2759 
Q 2391 3103 1925 3103 
Q 1463 3103 1205 2759 
Q 947 2416 947 1791 
Q 947 1169 1205 825 
Q 1463 481 1925 481 
Q 2391 481 2648 825 
Q 2906 1169 2906 1791 
z
M 3481 434 
Q 3481 -459 3084 -895 
Q 2688 -1331 1869 -1331 
Q 1566 -1331 1297 -1286 
Q 1028 -1241 775 -1147 
L 775 -588 
Q 1028 -725 1275 -790 
Q 1522 -856 1778 -856 
Q 2344 -856 2625 -561 
Q 2906 -266 2906 331 
L 2906 616 
Q 2728 306 2450 153 
Q 2172 0 1784 0 
Q 1141 0 747 490 
Q 353 981 353 1791 
Q 353 2603 747 3093 
Q 1141 3584 1784 3584 
Q 2172 3584 2450 3431 
Q 2728 3278 2906 2969 
L 2906 3500 
L 3481 3500 
L 3481 434 
z
" transform="scale(0.015625)"/>
      </defs>
      <use xlink:href="#DejaVuSans-45"/>
      <use xlink:href="#DejaVuSans-6e" transform="translate(63.183594 0)"/>
      <use xlink:href="#DejaVuSans-74" transform="translate(126.5625 0)"/>
      <use xlink:href="#DejaVuSans-61" transform="translate(165.771484 0)"/>
      <use xlink:href="#DejaVuSans-6e" transform="translate(227.050781 0)"/>
      <use xlink:href="#DejaVuSans-67" transform="translate(290.429688 0)"/>
      <use xlink:href="#DejaVuSans-6c" transform="translate(353.90625 0)"/>
      <use xlink:href="#DejaVuSans-65" transform="translate(381.689453 0)"/>
      <use xlink:href="#DejaVuSans-64" transform="translate(443.212891 0)"/>
      <use xlink:href="#DejaVuSans-20" transform="translate(506.689453 0)"/>
      <use xlink:href="#DejaVuSans-51" transform="translate(538.476562 0)"/>
      <use xlink:href="#DejaVuSans-46" transform="translate(617.1875 0)"/>
      <use xlink:href="#DejaVuSans-54" transform="translate(672.957031 0)"/>
     </g>
    </g>
   </g>
  </g>
  <g id="axes_2">
   <g id="patch_6">
    <path d="M 42.8616 196.2 
L 281.5416 196.2 
L 281.5416 98.99517 
L 42.8616 98.99517 
z
" style="fill: #ffffff"/>
   </g>
   <g id="matplotlib.axis_3">
    <g id="xtick_7">
     <g id="line2d_26">
      <path d="M 42.8616 196.2 
L 42.8616 98.99517 
" clip-path="url(#p73cbf9384d)" style="fill: none; stroke: #b0b0b0; stroke-opacity: 0.25; stroke-width: 0.5; stroke-linecap: square"/>
     </g>
     <g id="line2d_27">
      <defs>
       <path id="ma0a8c1c456" d="M 0 0 
L 0 3.5 
" style="stroke: #000000; stroke-width: 0.8"/>
      </defs>
      <g>
       <use xlink:href="#ma0a8c1c456" x="42.8616" y="196.2" style="stroke: #000000; stroke-width: 0.8"/>
      </g>
     </g>
     <g id="text_10">
      <!-- 0 -->
      <g transform="translate(40.157538 209.658672) scale(0.085 -0.085)">
       <use xlink:href="#DejaVuSans-30"/>
      </g>
     </g>
    </g>
    <g id="xtick_8">
     <g id="line2d_28">
      <path d="M 90.124966 196.2 
L 90.124966 98.99517 
" clip-path="url(#p73cbf9384d)" style="fill: none; stroke: #b0b0b0; stroke-opacity: 0.25; stroke-width: 0.5; stroke-linecap: square"/>
     </g>
     <g id="line2d_29">
      <g>
       <use xlink:href="#ma0a8c1c456" x="90.124966" y="196.2" style="stroke: #000000; stroke-width: 0.8"/>
      </g>
     </g>
     <g id="text_11">
      <!-- 200 -->
      <g transform="translate(82.012779 209.658672) scale(0.085 -0.085)">
       <use xlink:href="#DejaVuSans-32"/>
       <use xlink:href="#DejaVuSans-30" transform="translate(63.623047 0)"/>
       <use xlink:href="#DejaVuSans-30" transform="translate(127.246094 0)"/>
      </g>
     </g>
    </g>
    <g id="xtick_9">
     <g id="line2d_30">
      <path d="M 137.388333 196.2 
L 137.388333 98.99517 
" clip-path="url(#p73cbf9384d)" style="fill: none; stroke: #b0b0b0; stroke-opacity: 0.25; stroke-width: 0.5; stroke-linecap: square"/>
     </g>
     <g id="line2d_31">
      <g>
       <use xlink:href="#ma0a8c1c456" x="137.388333" y="196.2" style="stroke: #000000; stroke-width: 0.8"/>
      </g>
     </g>
     <g id="text_12">
      <!-- 400 -->
      <g transform="translate(129.276145 209.658672) scale(0.085 -0.085)">
       <defs>
        <path id="DejaVuSans-34" d="M 2419 4116 
L 825 1625 
L 2419 1625 
L 2419 4116 
z
M 2253 4666 
L 3047 4666 
L 3047 1625 
L 3713 1625 
L 3713 1100 
L 3047 1100 
L 3047 0 
L 2419 0 
L 2419 1100 
L 313 1100 
L 313 1709 
L 2253 4666 
z
" transform="scale(0.015625)"/>
       </defs>
       <use xlink:href="#DejaVuSans-34"/>
       <use xlink:href="#DejaVuSans-30" transform="translate(63.623047 0)"/>
       <use xlink:href="#DejaVuSans-30" transform="translate(127.246094 0)"/>
      </g>
     </g>
    </g>
    <g id="xtick_10">
     <g id="line2d_32">
      <path d="M 184.651699 196.2 
L 184.651699 98.99517 
" clip-path="url(#p73cbf9384d)" style="fill: none; stroke: #b0b0b0; stroke-opacity: 0.25; stroke-width: 0.5; stroke-linecap: square"/>
     </g>
     <g id="line2d_33">
      <g>
       <use xlink:href="#ma0a8c1c456" x="184.651699" y="196.2" style="stroke: #000000; stroke-width: 0.8"/>
      </g>
     </g>
     <g id="text_13">
      <!-- 600 -->
      <g transform="translate(176.539512 209.658672) scale(0.085 -0.085)">
       <defs>
        <path id="DejaVuSans-36" d="M 2113 2584 
Q 1688 2584 1439 2293 
Q 1191 2003 1191 1497 
Q 1191 994 1439 701 
Q 1688 409 2113 409 
Q 2538 409 2786 701 
Q 3034 994 3034 1497 
Q 3034 2003 2786 2293 
Q 2538 2584 2113 2584 
z
M 3366 4563 
L 3366 3988 
Q 3128 4100 2886 4159 
Q 2644 4219 2406 4219 
Q 1781 4219 1451 3797 
Q 1122 3375 1075 2522 
Q 1259 2794 1537 2939 
Q 1816 3084 2150 3084 
Q 2853 3084 3261 2657 
Q 3669 2231 3669 1497 
Q 3669 778 3244 343 
Q 2819 -91 2113 -91 
Q 1303 -91 875 529 
Q 447 1150 447 2328 
Q 447 3434 972 4092 
Q 1497 4750 2381 4750 
Q 2619 4750 2861 4703 
Q 3103 4656 3366 4563 
z
" transform="scale(0.015625)"/>
       </defs>
       <use xlink:href="#DejaVuSans-36"/>
       <use xlink:href="#DejaVuSans-30" transform="translate(63.623047 0)"/>
       <use xlink:href="#DejaVuSans-30" transform="translate(127.246094 0)"/>
      </g>
     </g>
    </g>
    <g id="xtick_11">
     <g id="line2d_34">
      <path d="M 231.915065 196.2 
L 231.915065 98.99517 
" clip-path="url(#p73cbf9384d)" style="fill: none; stroke: #b0b0b0; stroke-opacity: 0.25; stroke-width: 0.5; stroke-linecap: square"/>
     </g>
     <g id="line2d_35">
      <g>
       <use xlink:href="#ma0a8c1c456" x="231.915065" y="196.2" style="stroke: #000000; stroke-width: 0.8"/>
      </g>
     </g>
     <g id="text_14">
      <!-- 800 -->
      <g transform="translate(223.802878 209.658672) scale(0.085 -0.085)">
       <defs>
        <path id="DejaVuSans-38" d="M 2034 2216 
Q 1584 2216 1326 1975 
Q 1069 1734 1069 1313 
Q 1069 891 1326 650 
Q 1584 409 2034 409 
Q 2484 409 2743 651 
Q 3003 894 3003 1313 
Q 3003 1734 2745 1975 
Q 2488 2216 2034 2216 
z
M 1403 2484 
Q 997 2584 770 2862 
Q 544 3141 544 3541 
Q 544 4100 942 4425 
Q 1341 4750 2034 4750 
Q 2731 4750 3128 4425 
Q 3525 4100 3525 3541 
Q 3525 3141 3298 2862 
Q 3072 2584 2669 2484 
Q 3125 2378 3379 2068 
Q 3634 1759 3634 1313 
Q 3634 634 3220 271 
Q 2806 -91 2034 -91 
Q 1263 -91 848 271 
Q 434 634 434 1313 
Q 434 1759 690 2068 
Q 947 2378 1403 2484 
z
M 1172 3481 
Q 1172 3119 1398 2916 
Q 1625 2713 2034 2713 
Q 2441 2713 2670 2916 
Q 2900 3119 2900 3481 
Q 2900 3844 2670 4047 
Q 2441 4250 2034 4250 
Q 1625 4250 1398 4047 
Q 1172 3844 1172 3481 
z
" transform="scale(0.015625)"/>
       </defs>
       <use xlink:href="#DejaVuSans-38"/>
       <use xlink:href="#DejaVuSans-30" transform="translate(63.623047 0)"/>
       <use xlink:href="#DejaVuSans-30" transform="translate(127.246094 0)"/>
      </g>
     </g>
    </g>
    <g id="xtick_12">
     <g id="line2d_36">
      <path d="M 279.178432 196.2 
L 279.178432 98.99517 
" clip-path="url(#p73cbf9384d)" style="fill: none; stroke: #b0b0b0; stroke-opacity: 0.25; stroke-width: 0.5; stroke-linecap: square"/>
     </g>
     <g id="line2d_37">
      <g>
       <use xlink:href="#ma0a8c1c456" x="279.178432" y="196.2" style="stroke: #000000; stroke-width: 0.8"/>
      </g>
     </g>
     <g id="text_15">
      <!-- 1000 -->
      <g transform="translate(268.362182 209.658672) scale(0.085 -0.085)">
       <use xlink:href="#DejaVuSans-31"/>
       <use xlink:href="#DejaVuSans-30" transform="translate(63.623047 0)"/>
       <use xlink:href="#DejaVuSans-30" transform="translate(127.246094 0)"/>
       <use xlink:href="#DejaVuSans-30" transform="translate(190.869141 0)"/>
      </g>
     </g>
    </g>
    <g id="text_16">
     <!-- training step -->
     <g transform="translate(132.016092 222.644922) scale(0.095 -0.095)">
      <defs>
       <path id="DejaVuSans-70" d="M 1159 525 
L 1159 -1331 
L 581 -1331 
L 581 3500 
L 1159 3500 
L 1159 2969 
Q 1341 3281 1617 3432 
Q 1894 3584 2278 3584 
Q 2916 3584 3314 3078 
Q 3713 2572 3713 1747 
Q 3713 922 3314 415 
Q 2916 -91 2278 -91 
Q 1894 -91 1617 61 
Q 1341 213 1159 525 
z
M 3116 1747 
Q 3116 2381 2855 2742 
Q 2594 3103 2138 3103 
Q 1681 3103 1420 2742 
Q 1159 2381 1159 1747 
Q 1159 1113 1420 752 
Q 1681 391 2138 391 
Q 2594 391 2855 752 
Q 3116 1113 3116 1747 
z
" transform="scale(0.015625)"/>
      </defs>
      <use xlink:href="#DejaVuSans-74"/>
      <use xlink:href="#DejaVuSans-72" transform="translate(39.208984 0)"/>
      <use xlink:href="#DejaVuSans-61" transform="translate(80.322266 0)"/>
      <use xlink:href="#DejaVuSans-69" transform="translate(141.601562 0)"/>
      <use xlink:href="#DejaVuSans-6e" transform="translate(169.384766 0)"/>
      <use xlink:href="#DejaVuSans-69" transform="translate(232.763672 0)"/>
      <use xlink:href="#DejaVuSans-6e" transform="translate(260.546875 0)"/>
      <use xlink:href="#DejaVuSans-67" transform="translate(323.925781 0)"/>
      <use xlink:href="#DejaVuSans-20" transform="translate(387.402344 0)"/>
      <use xlink:href="#DejaVuSans-73" transform="translate(419.189453 0)"/>
      <use xlink:href="#DejaVuSans-74" transform="translate(471.289062 0)"/>
      <use xlink:href="#DejaVuSans-65" transform="translate(510.498047 0)"/>
      <use xlink:href="#DejaVuSans-70" transform="translate(572.021484 0)"/>
     </g>
    </g>
   </g>
   <g id="matplotlib.axis_4">
    <g id="ytick_4">
     <g id="line2d_38">
      <path d="M 42.8616 190.799732 
L 281.5416 190.799732 
" clip-path="url(#p73cbf9384d)" style="fill: none; stroke: #b0b0b0; stroke-opacity: 0.25; stroke-width: 0.5; stroke-linecap: square"/>
     </g>
     <g id="line2d_39">
      <g>
       <use xlink:href="#m625742d10a" x="42.8616" y="190.799732" style="stroke: #000000; stroke-width: 0.8"/>
      </g>
     </g>
     <g id="text_17">
      <!-- 100 -->
      <g transform="translate(19.637225 194.029068) scale(0.085 -0.085)">
       <use xlink:href="#DejaVuSans-31"/>
       <use xlink:href="#DejaVuSans-30" transform="translate(63.623047 0)"/>
       <use xlink:href="#DejaVuSans-30" transform="translate(127.246094 0)"/>
      </g>
     </g>
    </g>
    <g id="ytick_5">
     <g id="line2d_40">
      <path d="M 42.8616 163.79839 
L 281.5416 163.79839 
" clip-path="url(#p73cbf9384d)" style="fill: none; stroke: #b0b0b0; stroke-opacity: 0.25; stroke-width: 0.5; stroke-linecap: square"/>
     </g>
     <g id="line2d_41">
      <g>
       <use xlink:href="#m625742d10a" x="42.8616" y="163.79839" style="stroke: #000000; stroke-width: 0.8"/>
      </g>
     </g>
     <g id="text_18">
      <!-- 105 -->
      <g transform="translate(19.637225 167.027726) scale(0.085 -0.085)">
       <use xlink:href="#DejaVuSans-31"/>
       <use xlink:href="#DejaVuSans-30" transform="translate(63.623047 0)"/>
       <use xlink:href="#DejaVuSans-35" transform="translate(127.246094 0)"/>
      </g>
     </g>
    </g>
    <g id="ytick_6">
     <g id="line2d_42">
      <path d="M 42.8616 136.797048 
L 281.5416 136.797048 
" clip-path="url(#p73cbf9384d)" style="fill: none; stroke: #b0b0b0; stroke-opacity: 0.25; stroke-width: 0.5; stroke-linecap: square"/>
     </g>
     <g id="line2d_43">
      <g>
       <use xlink:href="#m625742d10a" x="42.8616" y="136.797048" style="stroke: #000000; stroke-width: 0.8"/>
      </g>
     </g>
     <g id="text_19">
      <!-- 110 -->
      <g transform="translate(19.637225 140.026384) scale(0.085 -0.085)">
       <use xlink:href="#DejaVuSans-31"/>
       <use xlink:href="#DejaVuSans-31" transform="translate(63.623047 0)"/>
       <use xlink:href="#DejaVuSans-30" transform="translate(127.246094 0)"/>
      </g>
     </g>
    </g>
    <g id="ytick_7">
     <g id="line2d_44">
      <path d="M 42.8616 109.795707 
L 281.5416 109.795707 
" clip-path="url(#p73cbf9384d)" style="fill: none; stroke: #b0b0b0; stroke-opacity: 0.25; stroke-width: 0.5; stroke-linecap: square"/>
     </g>
     <g id="line2d_45">
      <g>
       <use xlink:href="#m625742d10a" x="42.8616" y="109.795707" style="stroke: #000000; stroke-width: 0.8"/>
      </g>
     </g>
     <g id="text_20">
      <!-- 115 -->
      <g transform="translate(19.637225 113.025043) scale(0.085 -0.085)">
       <use xlink:href="#DejaVuSans-31"/>
       <use xlink:href="#DejaVuSans-31" transform="translate(63.623047 0)"/>
       <use xlink:href="#DejaVuSans-35" transform="translate(127.246094 0)"/>
      </g>
     </g>
    </g>
   </g>
   <g id="line2d_46">
    <g>
     <use xlink:href="#m2c43c98f91" x="42.8616" y="98.99517" style="stroke: #000000; stroke-width: 0.8"/>
     <use xlink:href="#m2c43c98f91" x="281.5416" y="98.99517" style="stroke: #000000; stroke-width: 0.8"/>
    </g>
   </g>
   <g id="patch_7">
    <path d="M 42.8616 196.2 
L 42.8616 98.99517 
" style="fill: none; stroke: #000000; stroke-width: 0.8; stroke-linejoin: miter; stroke-linecap: square"/>
   </g>
   <g id="patch_8">
    <path d="M 281.5416 196.2 
L 281.5416 98.99517 
" style="fill: none; stroke: #000000; stroke-width: 0.8; stroke-linejoin: miter; stroke-linecap: square"/>
   </g>
   <g id="patch_9">
    <path d="M 42.8616 196.2 
L 281.5416 196.2 
" style="fill: none; stroke: #000000; stroke-width: 0.8; stroke-linejoin: miter; stroke-linecap: square"/>
   </g>
   <g id="line2d_47">
    <path d="M 67.782527 -1 
L 68.383818 16.775179 
L 70.510669 53.489689 
L 72.637521 79.975319 
L 74.764372 97.430348 
L 76.891224 111.520631 
L 79.018075 116.880119 
L 81.144927 130.49866 
L 83.271778 136.763225 
L 85.39863 142.541181 
L 87.525481 147.141099 
L 89.652333 151.738301 
L 91.779184 154.447949 
L 93.906036 156.886004 
L 96.032887 159.475054 
L 98.159739 161.124446 
L 100.28659 162.323958 
L 102.413442 164.09562 
L 104.540293 164.258791 
L 106.667145 165.602106 
L 108.793996 166.464252 
L 110.920848 166.406458 
L 113.047699 167.378359 
L 115.17455 168.371018 
L 117.301402 169.352676 
L 119.428253 170.486889 
L 121.555105 168.947579 
L 123.681956 168.580903 
L 125.808808 170.377005 
L 127.935659 170.985464 
L 130.062511 172.116738 
L 132.189362 172.913995 
L 134.316214 173.893221 
L 136.443065 174.258266 
L 138.569917 173.855613 
L 140.696768 174.070921 
L 142.82362 176.017882 
L 144.950471 175.927845 
L 147.077323 177.329548 
L 149.204174 177.109352 
L 151.331026 178.917127 
L 153.457877 179.01516 
L 155.584729 179.865763 
L 157.71158 180.506054 
L 159.838432 180.538368 
L 161.965283 181.677705 
L 164.092135 181.658699 
L 166.218986 182.191415 
L 168.345838 182.095593 
L 170.472689 182.517718 
L 172.599541 182.440498 
L 174.726392 182.564003 
L 176.853244 182.609104 
L 178.980095 182.908815 
L 181.106947 182.53624 
L 183.233798 183.180581 
L 185.36065 183.390545 
L 187.487501 183.243741 
L 189.614352 183.29824 
L 191.741204 183.3787 
L 193.868055 183.494522 
L 195.994907 183.662739 
L 198.121758 183.331527 
L 200.24861 183.487335 
L 202.375461 183.735314 
L 204.502313 183.562011 
L 206.629164 183.661833 
L 208.756016 183.575013 
L 210.882867 183.676843 
L 213.009719 183.72153 
L 215.13657 183.807743 
L 217.263422 183.747456 
L 219.390273 183.90893 
L 221.517125 183.612491 
L 223.643976 183.756496 
L 225.770828 183.859726 
L 227.897679 183.78313 
L 230.024531 183.743553 
L 232.151382 183.937254 
L 234.278234 183.923742 
L 236.405085 183.883523 
L 238.531937 184.046403 
L 240.658788 184.019952 
L 242.78564 183.999606 
L 244.912491 184.07235 
L 247.039343 184.008921 
L 249.166194 183.991338 
L 251.293046 183.951706 
L 253.419897 184.056717 
L 255.546749 183.973193 
L 257.6736 184.100148 
L 259.800451 184.096226 
L 261.927303 184.054874 
L 264.054154 184.059973 
L 266.181006 184.103714 
L 268.307857 184.181114 
L 270.434709 184.162378 
L 272.56156 184.103314 
L 274.688412 184.185144 
L 276.815263 184.109676 
L 278.942115 184.143703 
L 281.068966 184.15339 
" clip-path="url(#p73cbf9384d)" style="fill: none; stroke: #0072b2; stroke-width: 1.8; stroke-linecap: square"/>
    <g clip-path="url(#p73cbf9384d)">
     <use xlink:href="#m5027721fc1" x="71.151497" y="-1" style="fill: #0072b2; stroke: #ffffff; stroke-width: 0.4"/>
     <use xlink:href="#m5027721fc1" x="74.764372" y="97.430348" style="fill: #0072b2; stroke: #ffffff; stroke-width: 0.4"/>
     <use xlink:href="#m5027721fc1" x="104.540293" y="164.258791" style="fill: #0072b2; stroke: #ffffff; stroke-width: 0.4"/>
     <use xlink:href="#m5027721fc1" x="134.316214" y="173.893221" style="fill: #0072b2; stroke: #ffffff; stroke-width: 0.4"/>
     <use xlink:href="#m5027721fc1" x="164.092135" y="181.658699" style="fill: #0072b2; stroke: #ffffff; stroke-width: 0.4"/>
     <use xlink:href="#m5027721fc1" x="193.868055" y="183.494522" style="fill: #0072b2; stroke: #ffffff; stroke-width: 0.4"/>
     <use xlink:href="#m5027721fc1" x="223.643976" y="183.756496" style="fill: #0072b2; stroke: #ffffff; stroke-width: 0.4"/>
     <use xlink:href="#m5027721fc1" x="253.419897" y="184.056717" style="fill: #0072b2; stroke: #ffffff; stroke-width: 0.4"/>
    </g>
   </g>
   <g id="line2d_48">
    <path d="M 75.991055 -1 
L 76.891224 3.419758 
L 79.018075 15.681433 
L 81.144927 25.036443 
L 83.271778 33.751066 
L 85.39863 46.171649 
L 87.525481 52.595732 
L 89.652333 63.72471 
L 91.779184 72.986734 
L 93.906036 81.905109 
L 96.032887 79.272954 
L 98.159739 87.93766 
L 100.28659 97.528296 
L 102.413442 110.27054 
L 104.540293 108.902266 
L 106.667145 117.564359 
L 108.793996 124.272892 
L 110.920848 127.024731 
L 113.047699 131.360483 
L 115.17455 130.900793 
L 117.301402 137.976952 
L 119.428253 144.403215 
L 121.555105 146.274241 
L 123.681956 155.766066 
L 125.808808 147.54158 
L 127.935659 152.22803 
L 130.062511 154.455329 
L 132.189362 155.629043 
L 134.316214 150.898205 
L 136.443065 150.186455 
L 138.569917 158.489004 
L 140.696768 157.968998 
L 142.82362 160.01582 
L 144.950471 161.248204 
L 147.077323 160.058009 
L 149.204174 160.883748 
L 151.331026 163.005077 
L 153.457877 162.760062 
L 155.584729 164.016711 
L 157.71158 163.347156 
L 159.838432 165.555763 
L 161.965283 165.246311 
L 164.092135 167.249096 
L 166.218986 165.967471 
L 168.345838 167.55055 
L 170.472689 167.104005 
L 172.599541 167.835146 
L 174.726392 167.355808 
L 176.853244 168.897948 
L 178.980095 169.374864 
L 181.106947 168.686718 
L 183.233798 168.931528 
L 185.36065 170.130337 
L 187.487501 169.791457 
L 189.614352 170.900513 
L 191.741204 170.552161 
L 193.868055 171.63402 
L 195.994907 171.482161 
L 198.121758 172.111775 
L 200.24861 172.307689 
L 202.375461 171.570056 
L 204.502313 167.908571 
L 206.629164 172.175026 
L 208.756016 169.20638 
L 210.882867 172.111169 
L 213.009719 171.444057 
L 215.13657 172.542728 
L 217.263422 173.116571 
L 219.390273 172.933916 
L 221.517125 174.417575 
L 223.643976 174.397714 
L 225.770828 173.228782 
L 227.897679 174.572685 
L 230.024531 175.032526 
L 232.151382 175.145536 
L 234.278234 174.840062 
L 236.405085 175.106449 
L 238.531937 175.710616 
L 240.658788 175.422307 
L 242.78564 176.237113 
L 244.912491 175.94017 
L 247.039343 176.337905 
L 249.166194 176.004259 
L 251.293046 176.704131 
L 253.419897 176.831626 
L 255.546749 177.014409 
L 257.6736 177.095577 
L 259.800451 177.334696 
L 261.927303 177.509513 
L 264.054154 177.612305 
L 266.181006 177.754843 
L 268.307857 177.8204 
L 270.434709 178.130219 
L 272.56156 178.222701 
L 274.688412 178.372372 
L 276.815263 178.497341 
L 278.942115 178.794607 
L 281.068966 178.90722 
" clip-path="url(#p73cbf9384d)" style="fill: none; stroke-dasharray: 5.4,1.8,1.8,1.8; stroke-dashoffset: 0; stroke: #000000; stroke-width: 1.8"/>
    <g clip-path="url(#p73cbf9384d)">
     <use xlink:href="#m69719be8d2" x="76.311385" y="-1" style="stroke: #ffffff; stroke-width: 0.4; stroke-linejoin: miter"/>
     <use xlink:href="#m69719be8d2" x="104.540293" y="108.902266" style="stroke: #ffffff; stroke-width: 0.4; stroke-linejoin: miter"/>
     <use xlink:href="#m69719be8d2" x="134.316214" y="150.898205" style="stroke: #ffffff; stroke-width: 0.4; stroke-linejoin: miter"/>
     <use xlink:href="#m69719be8d2" x="164.092135" y="167.249096" style="stroke: #ffffff; stroke-width: 0.4; stroke-linejoin: miter"/>
     <use xlink:href="#m69719be8d2" x="193.868055" y="171.63402" style="stroke: #ffffff; stroke-width: 0.4; stroke-linejoin: miter"/>
     <use xlink:href="#m69719be8d2" x="223.643976" y="174.397714" style="stroke: #ffffff; stroke-width: 0.4; stroke-linejoin: miter"/>
     <use xlink:href="#m69719be8d2" x="253.419897" y="176.831626" style="stroke: #ffffff; stroke-width: 0.4; stroke-linejoin: miter"/>
    </g>
   </g>
   <g id="line2d_49">
    <path d="M 69.776951 -1 
L 70.510669 7.138902 
L 72.637521 24.961741 
L 74.764372 36.878086 
L 76.891224 43.564381 
L 79.018075 49.69589 
L 81.144927 57.085219 
L 83.271778 69.595511 
L 85.39863 86.338825 
L 87.525481 104.94729 
L 89.652333 119.774326 
L 91.779184 126.721672 
L 93.906036 130.371172 
L 96.032887 133.253806 
L 98.159739 135.096645 
L 100.28659 136.530251 
L 102.413442 137.407113 
L 104.540293 137.81483 
L 106.667145 138.043583 
L 108.793996 138.234607 
L 110.920848 138.38151 
L 113.047699 138.662902 
L 115.17455 138.849223 
L 117.301402 138.896108 
L 119.428253 138.725131 
L 121.555105 139.023644 
L 123.681956 139.080462 
L 125.808808 139.918549 
L 127.935659 141.019203 
L 130.062511 143.036091 
L 132.189362 145.876162 
L 134.316214 149.228899 
L 136.443065 152.80388 
L 138.569917 156.003289 
L 140.696768 157.991957 
L 142.82362 159.162258 
L 144.950471 159.972517 
L 147.077323 160.569156 
L 149.204174 161.009052 
L 151.331026 161.459447 
L 153.457877 161.757383 
L 155.584729 162.006973 
L 157.71158 162.30811 
L 159.838432 162.474415 
L 161.965283 162.569276 
L 164.092135 162.724987 
L 166.218986 162.777322 
L 168.345838 162.743402 
L 170.472689 162.851761 
L 172.599541 162.924008 
L 174.726392 163.026888 
L 176.853244 163.058641 
L 178.980095 163.013975 
L 181.106947 163.092729 
L 183.233798 163.041246 
L 185.36065 163.08547 
L 187.487501 163.097999 
L 189.614352 163.130013 
L 191.741204 162.984897 
L 193.868055 163.012749 
L 195.994907 163.124402 
L 198.121758 163.141493 
L 200.24861 163.052235 
L 202.375461 163.104163 
L 204.502313 163.128567 
L 206.629164 163.139274 
L 208.756016 163.134332 
L 210.882867 163.042564 
L 213.009719 163.172568 
L 215.13657 163.128216 
L 217.263422 163.100999 
L 219.390273 163.045609 
L 221.517125 163.167785 
L 223.643976 163.073347 
L 225.770828 163.160553 
L 227.897679 163.17361 
L 230.024531 163.067993 
L 232.151382 163.140848 
L 234.278234 163.10564 
L 236.405085 163.161331 
L 238.531937 163.210094 
L 240.658788 163.13486 
L 242.78564 163.150364 
L 244.912491 163.165363 
L 247.039343 163.194608 
L 249.166194 163.152975 
L 251.293046 163.128172 
L 253.419897 163.16784 
L 255.546749 163.128297 
L 257.6736 163.209461 
L 259.800451 163.140314 
L 261.927303 163.205049 
L 264.054154 163.174676 
L 266.181006 163.171894 
L 268.307857 163.184524 
L 270.434709 163.173679 
L 272.56156 163.174054 
L 274.688412 163.218037 
L 276.815263 163.184887 
L 278.942115 163.19812 
L 281.068966 163.179095 
" clip-path="url(#p73cbf9384d)" style="fill: none; stroke-dasharray: 9,3.6; stroke-dashoffset: 0; stroke: #009e73; stroke-width: 1.8"/>
    <g clip-path="url(#p73cbf9384d)">
     <use xlink:href="#mb39d60772a" x="72.277011" y="-1" style="fill: #009e73; stroke: #ffffff; stroke-width: 0.4; stroke-linejoin: miter"/>
     <use xlink:href="#mb39d60772a" x="74.764372" y="36.878086" style="fill: #009e73; stroke: #ffffff; stroke-width: 0.4; stroke-linejoin: miter"/>
     <use xlink:href="#mb39d60772a" x="104.540293" y="137.81483" style="fill: #009e73; stroke: #ffffff; stroke-width: 0.4; stroke-linejoin: miter"/>
     <use xlink:href="#mb39d60772a" x="134.316214" y="149.228899" style="fill: #009e73; stroke: #ffffff; stroke-width: 0.4; stroke-linejoin: miter"/>
     <use xlink:href="#mb39d60772a" x="164.092135" y="162.724987" style="fill: #009e73; stroke: #ffffff; stroke-width: 0.4; stroke-linejoin: miter"/>
     <use xlink:href="#mb39d60772a" x="193.868055" y="163.012749" style="fill: #009e73; stroke: #ffffff; stroke-width: 0.4; stroke-linejoin: miter"/>
     <use xlink:href="#mb39d60772a" x="223.643976" y="163.073347" style="fill: #009e73; stroke: #ffffff; stroke-width: 0.4; stroke-linejoin: miter"/>
     <use xlink:href="#mb39d60772a" x="253.419897" y="163.16784" style="fill: #009e73; stroke: #ffffff; stroke-width: 0.4; stroke-linejoin: miter"/>
    </g>
   </g>
   <g id="line2d_50">
    <path d="M 68.84045 -1 
L 70.510669 22.189499 
L 72.637521 39.730603 
L 74.764372 62.068589 
L 76.891224 80.370759 
L 79.018075 93.043922 
L 81.144927 103.977107 
L 83.271778 117.231374 
L 85.39863 129.076042 
L 87.525481 134.987103 
L 89.652333 139.325046 
L 91.779184 142.978051 
L 93.906036 146.129647 
L 96.032887 148.269563 
L 98.159739 149.681483 
L 100.28659 150.306052 
L 102.413442 150.978483 
L 104.540293 151.409842 
L 106.667145 151.898658 
L 108.793996 152.469277 
L 110.920848 152.78343 
L 113.047699 152.890076 
L 115.17455 152.996967 
L 117.301402 152.848574 
L 119.428253 153.088995 
L 121.555105 152.722006 
L 123.681956 152.877357 
L 125.808808 153.012164 
L 127.935659 152.977141 
L 130.062511 153.04467 
L 132.189362 153.169147 
L 134.316214 152.839944 
L 136.443065 153.025619 
L 138.569917 153.042411 
L 140.696768 153.044469 
L 142.82362 153.090293 
L 144.950471 152.967389 
L 147.077323 153.119669 
L 149.204174 153.243174 
L 151.331026 153.159127 
L 153.457877 153.128325 
L 155.584729 153.210453 
L 157.71158 153.144874 
L 159.838432 153.164767 
L 161.965283 153.224981 
L 164.092135 153.193901 
L 166.218986 152.960528 
L 168.345838 153.229691 
L 170.472689 153.034415 
L 172.599541 153.05355 
L 174.726392 153.072809 
L 176.853244 153.144221 
L 178.980095 153.230398 
L 181.106947 153.146716 
L 183.233798 152.923328 
L 185.36065 153.213435 
L 187.487501 153.148795 
L 189.614352 153.178118 
L 191.741204 153.260529 
L 193.868055 153.246808 
L 195.994907 153.192875 
L 198.121758 153.309043 
L 200.24861 153.237012 
L 202.375461 153.275972 
L 204.502313 153.232405 
L 206.629164 153.216812 
L 208.756016 153.336891 
L 210.882867 153.264367 
L 213.009719 153.324657 
L 215.13657 153.225957 
L 217.263422 153.284399 
L 219.390273 153.206154 
L 221.517125 153.303606 
L 223.643976 153.285287 
L 225.770828 153.228971 
L 227.897679 153.352941 
L 230.024531 153.278344 
L 232.151382 153.299566 
L 234.278234 153.319955 
L 236.405085 153.331544 
L 238.531937 153.303516 
L 240.658788 153.337633 
L 242.78564 153.323919 
L 244.912491 153.33275 
L 247.039343 153.328059 
L 249.166194 153.337852 
L 251.293046 153.331945 
L 253.419897 153.341205 
L 255.546749 153.353771 
L 257.6736 153.301847 
L 259.800451 153.310583 
L 261.927303 153.356332 
L 264.054154 153.363013 
L 266.181006 153.372778 
L 268.307857 153.374804 
L 270.434709 153.36084 
L 272.56156 153.333767 
L 274.688412 153.366082 
L 276.815263 153.36941 
L 278.942115 153.375115 
L 281.068966 153.351633 
" clip-path="url(#p73cbf9384d)" style="fill: none; stroke-dasharray: 1.8,1.8; stroke-dashoffset: 0; stroke: #56b4e9; stroke-width: 1.8"/>
    <g clip-path="url(#p73cbf9384d)">
     <use xlink:href="#m17ed76d8cb" x="70.816283" y="-1" style="fill: #56b4e9; stroke: #ffffff; stroke-width: 0.4; stroke-linejoin: miter"/>
     <use xlink:href="#m17ed76d8cb" x="74.764372" y="62.068589" style="fill: #56b4e9; stroke: #ffffff; stroke-width: 0.4; stroke-linejoin: miter"/>
     <use xlink:href="#m17ed76d8cb" x="104.540293" y="151.409842" style="fill: #56b4e9; stroke: #ffffff; stroke-width: 0.4; stroke-linejoin: miter"/>
     <use xlink:href="#m17ed76d8cb" x="134.316214" y="152.839944" style="fill: #56b4e9; stroke: #ffffff; stroke-width: 0.4; stroke-linejoin: miter"/>
     <use xlink:href="#m17ed76d8cb" x="164.092135" y="153.193901" style="fill: #56b4e9; stroke: #ffffff; stroke-width: 0.4; stroke-linejoin: miter"/>
     <use xlink:href="#m17ed76d8cb" x="193.868055" y="153.246808" style="fill: #56b4e9; stroke: #ffffff; stroke-width: 0.4; stroke-linejoin: miter"/>
     <use xlink:href="#m17ed76d8cb" x="223.643976" y="153.285287" style="fill: #56b4e9; stroke: #ffffff; stroke-width: 0.4; stroke-linejoin: miter"/>
     <use xlink:href="#m17ed76d8cb" x="253.419897" y="153.341205" style="fill: #56b4e9; stroke: #ffffff; stroke-width: 0.4; stroke-linejoin: miter"/>
    </g>
   </g>
   <g id="line2d_51">
    <path clip-path="url(#p73cbf9384d)" style="fill: none; stroke-dasharray: 9,3.6; stroke-dashoffset: 0; stroke: #e69f00; stroke-width: 1.8"/>
    <g clip-path="url(#p73cbf9384d)"/>
   </g>
   <g id="line2d_52">
    <path clip-path="url(#p73cbf9384d)" style="fill: none; stroke-dasharray: 1.8,1.8; stroke-dashoffset: 0; stroke: #d55e00; stroke-width: 1.8"/>
    <g clip-path="url(#p73cbf9384d)"/>
   </g>
  </g>
  <g id="text_21">
   <!-- validation MSE -->
   <g transform="translate(14.418516 136.171211) rotate(-90) scale(0.095 -0.095)">
    <defs>
     <path id="DejaVuSans-76" d="M 191 3500 
L 800 3500 
L 1894 563 
L 2988 3500 
L 3597 3500 
L 2284 0 
L 1503 0 
L 191 3500 
z
" transform="scale(0.015625)"/>
     <path id="DejaVuSans-6f" d="M 1959 3097 
Q 1497 3097 1228 2736 
Q 959 2375 959 1747 
Q 959 1119 1226 758 
Q 1494 397 1959 397 
Q 2419 397 2687 759 
Q 2956 1122 2956 1747 
Q 2956 2369 2687 2733 
Q 2419 3097 1959 3097 
z
M 1959 3584 
Q 2709 3584 3137 3096 
Q 3566 2609 3566 1747 
Q 3566 888 3137 398 
Q 2709 -91 1959 -91 
Q 1206 -91 779 398 
Q 353 888 353 1747 
Q 353 2609 779 3096 
Q 1206 3584 1959 3584 
z
" transform="scale(0.015625)"/>
     <path id="DejaVuSans-53" d="M 3425 4513 
L 3425 3897 
Q 3066 4069 2747 4153 
Q 2428 4238 2131 4238 
Q 1616 4238 1336 4038 
Q 1056 3838 1056 3469 
Q 1056 3159 1242 3001 
Q 1428 2844 1947 2747 
L 2328 2669 
Q 3034 2534 3370 2195 
Q 3706 1856 3706 1288 
Q 3706 609 3251 259 
Q 2797 -91 1919 -91 
Q 1588 -91 1214 -16 
Q 841 59 441 206 
L 441 856 
Q 825 641 1194 531 
Q 1563 422 1919 422 
Q 2459 422 2753 634 
Q 3047 847 3047 1241 
Q 3047 1584 2836 1778 
Q 2625 1972 2144 2069 
L 1759 2144 
Q 1053 2284 737 2584 
Q 422 2884 422 3419 
Q 422 4038 858 4394 
Q 1294 4750 2059 4750 
Q 2388 4750 2728 4690 
Q 3069 4631 3425 4513 
z
" transform="scale(0.015625)"/>
    </defs>
    <use xlink:href="#DejaVuSans-76"/>
    <use xlink:href="#DejaVuSans-61" transform="translate(59.179688 0)"/>
    <use xlink:href="#DejaVuSans-6c" transform="translate(120.458984 0)"/>
    <use xlink:href="#DejaVuSans-69" transform="translate(148.242188 0)"/>
    <use xlink:href="#DejaVuSans-64" transform="translate(176.025391 0)"/>
    <use xlink:href="#DejaVuSans-61" transform="translate(239.501953 0)"/>
    <use xlink:href="#DejaVuSans-74" transform="translate(300.78125 0)"/>
    <use xlink:href="#DejaVuSans-69" transform="translate(339.990234 0)"/>
    <use xlink:href="#DejaVuSans-6f" transform="translate(367.773438 0)"/>
    <use xlink:href="#DejaVuSans-6e" transform="translate(428.955078 0)"/>
    <use xlink:href="#DejaVuSans-20" transform="translate(492.333984 0)"/>
    <use xlink:href="#DejaVuSans-4d" transform="translate(524.121094 0)"/>
    <use xlink:href="#DejaVuSans-53" transform="translate(610.400391 0)"/>
    <use xlink:href="#DejaVuSans-45" transform="translate(673.876953 0)"/>
   </g>
  </g>
 </g>
 <defs>
  <clipPath id="p2746e5ae32">
   <rect x="42.8616" y="7.2" width="238.68" height="84.525939"/>
  </clipPath>
  <clipPath id="p73cbf9384d">
   <rect x="42.8616" y="98.99517" width="238.68" height="97.20483"/>
  </clipPath>
 </defs>
</svg>
