<?xml version="1.0" encoding="utf-8" standalone="no"?>
<!DOCTYPE svg PUBLIC "-//W3C//DTD SVG 1.1//EN"
  "http://www.w3.org/Graphics/SVG/1.1/DTD/svg11.dtd">
<svg xmlns:xlink="http://www.w3.org/1999/xlink" width="245.853465pt" height="219.260812pt" viewBox="0 0 245.853465 219.260812" xmlns="http://www.w3.org/2000/svg" version="1.1">
 <metadata>
  <rdf:RDF xmlns:dc="http://purl.org/dc/elements/1.1/" xmlns:cc="http://creativecommons.org/ns#" xmlns:rdf="http://www.w3.org/1999/02/22-rdf-syntax-ns#">
   <cc:Work>
    <dc:type rdf:resource="http://purl.org/dc/dcmitype/StillImage"/>
    <dc:date>2026-07-23T05:44:18.592500</dc:date>
    <dc:format>image/svg+xml</dc:format>
    <dc:creator>
     <cc:Agent>
      <dc:title>Matplotlib v3.10.9, https://matplotlib.org/</dc:title>
     </cc:Agent>
    </dc:creator>
   </cc:Work>
  </rdf:RDF>
 </metadata>
 <defs>
  <style type="text/css">*{stroke-linejoin: round; stroke-linecap: butt}</style>
 </defs>
 <g id="figure_1">
  <g id="patch_1">
   <path d="M 0 219.260812 
L 245.853465 219.260812 
L 245.853465 -0 
L 0 -0 
z
" style="fill: #ffffff"/>
  </g>
  <g id="axes_1">
   <g id="patch_2">
    <path d="M 53.82 86.541682 
L 230.22 86.541682 
L 230.22 7.2 
L 53.82 7.2 
z
" style="fill: #ffffff"/>
   </g>
   <g id="matplotlib.axis_1">
    <g id="xtick_1">
     <g id="line2d_1">
      <path d="M 53.82 86.541682 
L 53.82 7.2 
" clip-path="url(#p6f32466483)" style="fill: none; stroke: #b0b0b0; stroke-opacity: 0.25; stroke-width: 0.5; stroke-linecap: square"/>
     </g>
    </g>
    <g id="xtick_2">
     <g id="line2d_2">
      <path d="M 88.750693 86.541682 
L 88.750693 7.2 
" clip-path="url(#p6f32466483)" style="fill: none; stroke: #b0b0b0; stroke-opacity: 0.25; stroke-width: 0.5; stroke-linecap: square"/>
     </g>
    </g>
    <g id="xtick_3">
     <g id="line2d_3">
      <path d="M 123.681386 86.541682 
L 123.681386 7.2 
" clip-path="url(#p6f32466483)" style="fill: none; stroke: #b0b0b0; stroke-opacity: 0.25; stroke-width: 0.5; stroke-linecap: square"/>
     </g>
    </g>
    <g id="xtick_4">
     <g id="line2d_4">
      <path d="M 158.612079 86.541682 
L 158.612079 7.2 
" clip-path="url(#p6f32466483)" style="fill: none; stroke: #b0b0b0; stroke-opacity: 0.25; stroke-width: 0.5; stroke-linecap: square"/>
     </g>
    </g>
    <g id="xtick_5">
     <g id="line2d_5">
      <path d="M 193.542772 86.541682 
L 193.542772 7.2 
" clip-path="url(#p6f32466483)" style="fill: none; stroke: #b0b0b0; stroke-opacity: 0.25; stroke-width: 0.5; stroke-linecap: square"/>
     </g>
    </g>
    <g id="xtick_6">
     <g id="line2d_6">
      <path d="M 228.473465 86.541682 
L 228.473465 7.2 
" clip-path="url(#p6f32466483)" style="fill: none; stroke: #b0b0b0; stroke-opacity: 0.25; stroke-width: 0.5; stroke-linecap: square"/>
     </g>
    </g>
   </g>
   <g id="matplotlib.axis_2">
    <g id="ytick_1">
     <g id="line2d_7">
      <path d="M 53.82 79.836751 
L 230.22 79.836751 
" clip-path="url(#p6f32466483)" style="fill: none; stroke: #b0b0b0; stroke-opacity: 0.25; stroke-width: 0.5; stroke-linecap: square"/>
     </g>
     <g id="line2d_8">
      <defs>
       <path id="m781bb1dc1a" d="M 0 0 
L -3.5 0 
" style="stroke: #000000; stroke-width: 0.8"/>
      </defs>
      <g>
       <use xlink:href="#m781bb1dc1a" x="53.82" y="79.836751" style="stroke: #000000; stroke-width: 0.8"/>
      </g>
     </g>
     <g id="text_1">
      <!-- 150 -->
      <g transform="translate(31.55 82.876126) scale(0.08 -0.08)">
       <defs>
        <path id="DejaVuSans-31" d="M 794 531 
L 1825 531 
L 1825 4091 
L 703 3866 
L 703 4441 
L 1819 4666 
L 2450 4666 
L 2450 531 
L 3481 531 
L 3481 0 
L 794 0 
L 794 531 
z
" transform="scale(0.015625)"/>
        <path id="DejaVuSans-35" d="M 691 4666 
L 3169 4666 
L 3169 4134 
L 1269 4134 
L 1269 2991 
Q 1406 3038 1543 3061 
Q 1681 3084 1819 3084 
Q 2600 3084 3056 2656 
Q 3513 2228 3513 1497 
Q 3513 744 3044 326 
Q 2575 -91 1722 -91 
Q 1428 -91 1123 -41 
Q 819 9 494 109 
L 494 744 
Q 775 591 1075 516 
Q 1375 441 1709 441 
Q 2250 441 2565 725 
Q 2881 1009 2881 1497 
Q 2881 1984 2565 2268 
Q 2250 2553 1709 2553 
Q 1456 2553 1204 2497 
Q 953 2441 691 2322 
L 691 4666 
z
" transform="scale(0.015625)"/>
        <path id="DejaVuSans-30" d="M 2034 4250 
Q 1547 4250 1301 3770 
Q 1056 3291 1056 2328 
Q 1056 1369 1301 889 
Q 1547 409 2034 409 
Q 2525 409 2770 889 
Q 3016 1369 3016 2328 
Q 3016 3291 2770 3770 
Q 2525 4250 2034 4250 
z
M 2034 4750 
Q 2819 4750 3233 4129 
Q 3647 3509 3647 2328 
Q 3647 1150 3233 529 
Q 2819 -91 2034 -91 
Q 1250 -91 836 529 
Q 422 1150 422 2328 
Q 422 3509 836 4129 
Q 1250 4750 2034 4750 
z
" transform="scale(0.015625)"/>
       </defs>
       <use xlink:href="#DejaVuSans-31"/>
       <use xlink:href="#DejaVuSans-35" transform="translate(63.623047 0)"/>
       <use xlink:href="#DejaVuSans-30" transform="translate(127.246094 0)"/>
      </g>
     </g>
    </g>
    <g id="ytick_2">
     <g id="line2d_9">
      <path d="M 53.82 51.899539 
L 230.22 51.899539 
" clip-path="url(#p6f32466483)" style="fill: none; stroke: #b0b0b0; stroke-opacity: 0.25; stroke-width: 0.5; stroke-linecap: square"/>
     </g>
     <g id="line2d_10">
      <g>
       <use xlink:href="#m781bb1dc1a" x="53.82" y="51.899539" style="stroke: #000000; stroke-width: 0.8"/>
      </g>
     </g>
     <g id="text_2">
      <!-- 200 -->
      <g transform="translate(31.55 54.938914) scale(0.08 -0.08)">
       <defs>
        <path id="DejaVuSans-32" d="M 1228 531 
L 3431 531 
L 3431 0 
L 469 0 
L 469 531 
Q 828 903 1448 1529 
Q 2069 2156 2228 2338 
Q 2531 2678 2651 2914 
Q 2772 3150 2772 3378 
Q 2772 3750 2511 3984 
Q 2250 4219 1831 4219 
Q 1534 4219 1204 4116 
Q 875 4013 500 3803 
L 500 4441 
Q 881 4594 1212 4672 
Q 1544 4750 1819 4750 
Q 2544 4750 2975 4387 
Q 3406 4025 3406 3419 
Q 3406 3131 3298 2873 
Q 3191 2616 2906 2266 
Q 2828 2175 2409 1742 
Q 1991 1309 1228 531 
z
" transform="scale(0.015625)"/>
       </defs>
       <use xlink:href="#DejaVuSans-32"/>
       <use xlink:href="#DejaVuSans-30" transform="translate(63.623047 0)"/>
       <use xlink:href="#DejaVuSans-30" transform="translate(127.246094 0)"/>
      </g>
     </g>
    </g>
    <g id="ytick_3">
     <g id="line2d_11">
      <path d="M 53.82 23.962327 
L 230.22 23.962327 
" clip-path="url(#p6f32466483)" style="fill: none; stroke: #b0b0b0; stroke-opacity: 0.25; stroke-width: 0.5; stroke-linecap: square"/>
     </g>
     <g id="line2d_12">
      <g>
       <use xlink:href="#m781bb1dc1a" x="53.82" y="23.962327" style="stroke: #000000; stroke-width: 0.8"/>
      </g>
     </g>
     <g id="text_3">
      <!-- 250 -->
      <g transform="translate(31.55 27.001702) scale(0.08 -0.08)">
       <use xlink:href="#DejaVuSans-32"/>
       <use xlink:href="#DejaVuSans-35" transform="translate(63.623047 0)"/>
       <use xlink:href="#DejaVuSans-30" transform="translate(127.246094 0)"/>
      </g>
     </g>
    </g>
   </g>
   <g id="line2d_13">
    <defs>
     <path id="m6e6bf194f1" d="M -3 1.5 
L 3 -1.5 
" style="stroke: #000000"/>
    </defs>
    <g>
     <use xlink:href="#m6e6bf194f1" x="53.82" y="86.541682" style="stroke: #000000"/>
     <use xlink:href="#m6e6bf194f1" x="230.22" y="86.541682" style="stroke: #000000"/>
    </g>
   </g>
   <g id="patch_3">
    <path d="M 53.82 86.541682 
L 53.82 7.2 
" style="fill: none; stroke: #000000; stroke-width: 0.8; stroke-linejoin: miter; stroke-linecap: square"/>
   </g>
   <g id="patch_4">
    <path d="M 230.22 86.541682 
L 230.22 7.2 
" style="fill: none; stroke: #000000; stroke-width: 0.8; stroke-linejoin: miter; stroke-linecap: square"/>
   </g>
   <g id="patch_5">
    <path d="M 53.82 7.2 
L 230.22 7.2 
" style="fill: none; stroke: #000000; stroke-width: 0.8; stroke-linejoin: miter; stroke-linecap: square"/>
   </g>
   <g id="line2d_14">
    <path d="M 55.391881 14.1792 
L 56.963762 16.217146 
L 58.535644 19.115968 
L 60.107525 23.357815 
L 61.679406 30.175679 
L 63.251287 38.556397 
L 64.823168 46.079832 
L 66.39505 54.873448 
L 67.966931 64.111996 
L 69.538812 74.185646 
L 71.110693 83.263082 
L 72.682574 89.768336 
L 74.254455 93.56704 
L 75.826337 96.307402 
L 77.398218 98.113405 
L 78.970099 99.57127 
L 80.54198 100.125795 
L 82.113861 101.534851 
L 83.685743 102.183021 
L 85.257624 102.780843 
L 86.829505 103.256778 
L 88.401386 103.732432 
L 89.973267 104.012789 
L 91.545149 104.265044 
L 93.11703 104.532923 
L 94.688911 104.703579 
L 96.260792 104.827688 
L 97.832673 105.010995 
L 99.404554 105.027877 
L 100.976436 105.166865 
L 102.548317 105.256067 
L 104.120198 105.250088 
L 105.692079 105.350646 
L 107.26396 105.453353 
L 108.835842 105.554921 
L 110.407723 105.672274 
L 111.979604 105.513007 
L 113.551485 105.475069 
L 115.123366 105.660904 
L 116.695248 105.723859 
L 118.267129 105.840908 
L 119.83901 105.923397 
L 121.410891 106.024713 
L 122.982772 106.062483 
L 124.554653 106.020822 
L 126.126535 106.043099 
L 127.698416 106.244543 
L 129.270297 106.235228 
L 130.842178 106.380256 
L 132.414059 106.357474 
L 133.985941 106.544517 
L 135.557822 106.55466 
L 137.129703 106.642668 
L 138.701584 106.708917 
L 140.273465 106.71226 
L 141.845347 106.830143 
L 143.417228 106.828176 
L 144.989109 106.883294 
L 146.56099 106.87338 
L 148.132871 106.917056 
L 149.704752 106.909066 
L 151.276634 106.921844 
L 152.848515 106.926511 
L 154.420396 106.957521 
L 155.992277 106.918972 
L 157.564158 106.985639 
L 159.13604 107.007364 
L 160.707921 106.992174 
L 162.279802 106.997813 
L 163.851683 107.006138 
L 165.423564 107.018122 
L 166.995446 107.035526 
L 168.567327 107.001257 
L 170.139208 107.017378 
L 171.711089 107.043035 
L 173.28297 107.025104 
L 174.854851 107.035433 
L 176.426733 107.02645 
L 177.998614 107.036986 
L 179.570495 107.041609 
L 181.142376 107.050529 
L 182.714257 107.044292 
L 184.286139 107.060999 
L 185.85802 107.030327 
L 187.429901 107.045227 
L 189.001782 107.055908 
L 190.573663 107.047983 
L 192.145545 107.043888 
L 193.717426 107.063929 
L 195.289307 107.062531 
L 196.861188 107.05837 
L 198.433069 107.075223 
L 200.00495 107.072486 
L 201.576832 107.070381 
L 203.148713 107.077907 
L 204.720594 107.071344 
L 206.292475 107.069525 
L 207.864356 107.065425 
L 209.436238 107.07629 
L 211.008119 107.067648 
L 212.58 107.080783 
L 214.151881 107.080378 
L 215.723762 107.076099 
L 217.295644 107.076627 
L 218.867525 107.081152 
L 220.439406 107.089161 
L 222.011287 107.087222 
L 223.583168 107.081111 
L 225.15505 107.089578 
L 226.726931 107.081769 
L 228.298812 107.08529 
L 229.870693 107.086292 
" clip-path="url(#p6f32466483)" style="fill: none; stroke: #0072b2; stroke-width: 1.8; stroke-linecap: square"/>
    <defs>
     <path id="ma470c65d7e" d="M 0 2 
C 0.530406 2 1.03916 1.789267 1.414214 1.414214 
C 1.789267 1.03916 2 0.530406 2 0 
C 2 -0.530406 1.789267 -1.03916 1.414214 -1.414214 
C 1.03916 -1.789267 0.530406 -2 0 -2 
C -0.530406 -2 -1.03916 -1.789267 -1.414214 -1.414214 
C -1.789267 -1.03916 -2 -0.530406 -2 0 
C -2 0.530406 -1.789267 1.03916 -1.414214 1.414214 
C -1.03916 1.789267 -0.530406 2 0 2 
z
" style="stroke: #ffffff; stroke-width: 0.4"/>
    </defs>
    <g clip-path="url(#p6f32466483)">
     <use xlink:href="#ma470c65d7e" x="55.391881" y="14.1792" style="fill: #0072b2; stroke: #ffffff; stroke-width: 0.4"/>
     <use xlink:href="#ma470c65d7e" x="77.398218" y="98.113405" style="fill: #0072b2; stroke: #ffffff; stroke-width: 0.4"/>
     <use xlink:href="#ma470c65d7e" x="99.404554" y="105.027877" style="fill: #0072b2; stroke: #ffffff; stroke-width: 0.4"/>
     <use xlink:href="#ma470c65d7e" x="121.410891" y="106.024713" style="fill: #0072b2; stroke: #ffffff; stroke-width: 0.4"/>
     <use xlink:href="#ma470c65d7e" x="143.417228" y="106.828176" style="fill: #0072b2; stroke: #ffffff; stroke-width: 0.4"/>
     <use xlink:href="#ma470c65d7e" x="165.423564" y="107.018122" style="fill: #0072b2; stroke: #ffffff; stroke-width: 0.4"/>
     <use xlink:href="#ma470c65d7e" x="187.429901" y="107.045227" style="fill: #0072b2; stroke: #ffffff; stroke-width: 0.4"/>
     <use xlink:href="#ma470c65d7e" x="209.436238" y="107.07629" style="fill: #0072b2; stroke: #ffffff; stroke-width: 0.4"/>
    </g>
   </g>
   <g id="line2d_15">
    <path d="M 55.391881 79.285093 
L 56.963762 80.167779 
L 58.535644 80.632463 
L 60.107525 80.79094 
L 61.679406 80.956113 
L 63.251287 81.185923 
L 64.823168 81.539185 
L 66.39505 82.12212 
L 67.966931 82.593177 
L 69.538812 83.203096 
L 71.110693 83.722374 
L 72.682574 84.409075 
L 74.254455 85.071452 
L 75.826337 85.926092 
L 77.398218 87.306042 
L 78.970099 88.386504 
L 80.54198 89.65517 
L 82.113861 90.623096 
L 83.685743 91.524763 
L 85.257624 92.809871 
L 86.829505 93.474546 
L 88.401386 94.626017 
L 89.973267 95.584321 
L 91.545149 96.50707 
L 93.11703 96.234731 
L 94.688911 97.131234 
L 96.260792 98.123539 
L 97.832673 99.441928 
L 99.404554 99.300358 
L 100.976436 100.196591 
L 102.548317 100.890696 
L 104.120198 101.175417 
L 105.692079 101.62402 
L 107.26396 101.576458 
L 108.835842 102.3086 
L 110.407723 102.9735 
L 111.979604 103.167088 
L 113.551485 104.149169 
L 115.123366 103.298214 
L 116.695248 103.783102 
L 118.267129 104.013552 
L 119.83901 104.134992 
L 121.410891 103.645511 
L 122.982772 103.571869 
L 124.554653 104.4309 
L 126.126535 104.377097 
L 127.698416 104.588874 
L 129.270297 104.716384 
L 130.842178 104.593239 
L 132.414059 104.678675 
L 133.985941 104.89816 
L 135.557822 104.87281 
L 137.129703 105.00283 
L 138.701584 104.933554 
L 140.273465 105.16207 
L 141.845347 105.130052 
L 143.417228 105.337272 
L 144.989109 105.204668 
L 146.56099 105.368462 
L 148.132871 105.32226 
L 149.704752 105.397908 
L 151.276634 105.348313 
L 152.848515 105.507872 
L 154.420396 105.557217 
L 155.992277 105.486017 
L 157.564158 105.511347 
L 159.13604 105.635383 
L 160.707921 105.60032 
L 162.279802 105.71507 
L 163.851683 105.679027 
L 165.423564 105.790963 
L 166.995446 105.77525 
L 168.567327 105.840394 
L 170.139208 105.860665 
L 171.711089 105.784345 
L 173.28297 105.405505 
L 174.854851 105.846938 
L 176.426733 105.539785 
L 177.998614 105.840331 
L 179.570495 105.771308 
L 181.142376 105.884983 
L 182.714257 105.944356 
L 184.286139 105.925458 
L 185.85802 106.078966 
L 187.429901 106.076911 
L 189.001782 105.955966 
L 190.573663 106.095015 
L 192.145545 106.142593 
L 193.717426 106.154285 
L 195.289307 106.122679 
L 196.861188 106.150241 
L 198.433069 106.212752 
L 200.00495 106.182922 
L 201.576832 106.267227 
L 203.148713 106.236503 
L 204.720594 106.277655 
L 206.292475 106.243134 
L 207.864356 106.315547 
L 209.436238 106.328738 
L 211.008119 106.34765 
L 212.58 106.356048 
L 214.151881 106.380789 
L 215.723762 106.398877 
L 217.295644 106.409512 
L 218.867525 106.42426 
L 220.439406 106.431043 
L 222.011287 106.463099 
L 223.583168 106.472667 
L 225.15505 106.488153 
L 226.726931 106.501083 
L 228.298812 106.53184 
L 229.870693 106.543492 
" clip-path="url(#p6f32466483)" style="fill: none; stroke-dasharray: 5.4,1.8,1.8,1.8; stroke-dashoffset: 0; stroke: #000000; stroke-width: 1.8"/>
    <defs>
     <path id="me46bc880e4" d="M -0.666667 2 
L 0.666667 2 
L 0.666667 0.666667 
L 2 0.666667 
L 2 -0.666667 
L 0.666667 -0.666667 
L 0.666667 -2 
L -0.666667 -2 
L -0.666667 -0.666667 
L -2 -0.666667 
L -2 0.666667 
L -0.666667 0.666667 
z
" style="stroke: #ffffff; stroke-width: 0.4; stroke-linejoin: miter"/>
    </defs>
    <g clip-path="url(#p6f32466483)">
     <use xlink:href="#me46bc880e4" x="55.391881" y="79.285093" style="stroke: #ffffff; stroke-width: 0.4; stroke-linejoin: miter"/>
     <use xlink:href="#me46bc880e4" x="77.398218" y="87.306042" style="stroke: #ffffff; stroke-width: 0.4; stroke-linejoin: miter"/>
     <use xlink:href="#me46bc880e4" x="99.404554" y="99.300358" style="stroke: #ffffff; stroke-width: 0.4; stroke-linejoin: miter"/>
     <use xlink:href="#me46bc880e4" x="121.410891" y="103.645511" style="stroke: #ffffff; stroke-width: 0.4; stroke-linejoin: miter"/>
     <use xlink:href="#me46bc880e4" x="143.417228" y="105.337272" style="stroke: #ffffff; stroke-width: 0.4; stroke-linejoin: miter"/>
     <use xlink:href="#me46bc880e4" x="165.423564" y="105.790963" style="stroke: #ffffff; stroke-width: 0.4; stroke-linejoin: miter"/>
     <use xlink:href="#me46bc880e4" x="187.429901" y="106.076911" style="stroke: #ffffff; stroke-width: 0.4; stroke-linejoin: miter"/>
     <use xlink:href="#me46bc880e4" x="209.436238" y="106.328738" style="stroke: #ffffff; stroke-width: 0.4; stroke-linejoin: miter"/>
    </g>
   </g>
   <g id="line2d_16">
    <path d="M 55.391881 44.93326 
L 56.963762 46.084721 
L 58.535644 47.812282 
L 60.107525 50.001506 
L 61.679406 53.034007 
L 63.251287 57.663791 
L 64.823168 63.820858 
L 66.39505 70.546892 
L 67.966931 75.424145 
L 69.538812 80.025383 
L 71.110693 83.956833 
L 72.682574 86.33029 
L 74.254455 88.771309 
L 75.826337 90.615367 
L 77.398218 91.848303 
L 78.970099 92.540108 
L 80.54198 93.174511 
L 82.113861 93.939055 
L 83.685743 95.233445 
L 85.257624 96.965809 
L 86.829505 98.891153 
L 88.401386 100.425247 
L 89.973267 101.144061 
L 91.545149 101.52166 
L 93.11703 101.819915 
L 94.688911 102.010586 
L 96.260792 102.158916 
L 97.832673 102.249641 
L 99.404554 102.291826 
L 100.976436 102.315494 
L 102.548317 102.335259 
L 104.120198 102.350458 
L 105.692079 102.379573 
L 107.26396 102.398851 
L 108.835842 102.403702 
L 110.407723 102.386011 
L 111.979604 102.416897 
L 113.551485 102.422776 
L 115.123366 102.509489 
L 116.695248 102.62337 
L 118.267129 102.832049 
L 119.83901 103.1259 
L 121.410891 103.472794 
L 122.982772 103.842683 
L 124.554653 104.173713 
L 126.126535 104.379473 
L 127.698416 104.500559 
L 129.270297 104.584394 
L 130.842178 104.646125 
L 132.414059 104.69164 
L 133.985941 104.73824 
L 135.557822 104.769067 
L 137.129703 104.794891 
L 138.701584 104.826048 
L 140.273465 104.843255 
L 141.845347 104.85307 
L 143.417228 104.869181 
L 144.989109 104.874596 
L 146.56099 104.871086 
L 148.132871 104.882297 
L 149.704752 104.889773 
L 151.276634 104.900417 
L 152.848515 104.903703 
L 154.420396 104.899081 
L 155.992277 104.907229 
L 157.564158 104.901903 
L 159.13604 104.906478 
L 160.707921 104.907775 
L 162.279802 104.911087 
L 163.851683 104.896073 
L 165.423564 104.898954 
L 166.995446 104.910507 
L 168.567327 104.912275 
L 170.139208 104.90304 
L 171.711089 104.908412 
L 173.28297 104.910937 
L 174.854851 104.912045 
L 176.426733 104.911534 
L 177.998614 104.902039 
L 179.570495 104.91549 
L 181.142376 104.910901 
L 182.714257 104.908085 
L 184.286139 104.902354 
L 185.85802 104.914995 
L 187.429901 104.905224 
L 189.001782 104.914247 
L 190.573663 104.915598 
L 192.145545 104.90467 
L 193.717426 104.912208 
L 195.289307 104.908565 
L 196.861188 104.914327 
L 198.433069 104.919373 
L 200.00495 104.911589 
L 201.576832 104.913193 
L 203.148713 104.914745 
L 204.720594 104.91777 
L 206.292475 104.913463 
L 207.864356 104.910897 
L 209.436238 104.915001 
L 211.008119 104.91091 
L 212.58 104.919307 
L 214.151881 104.912153 
L 215.723762 104.918851 
L 217.295644 104.915708 
L 218.867525 104.91542 
L 220.439406 104.916727 
L 222.011287 104.915605 
L 223.583168 104.915644 
L 225.15505 104.920195 
L 226.726931 104.916765 
L 228.298812 104.918134 
L 229.870693 104.916165 
" clip-path="url(#p6f32466483)" style="fill: none; stroke-dasharray: 9,3.6; stroke-dashoffset: 0; stroke: #009e73; stroke-width: 1.8"/>
    <defs>
     <path id="m0ef39dbfee" d="M -0 2.828427 
L 2.828427 0 
L 0 -2.828427 
L -2.828427 -0 
z
" style="stroke: #ffffff; stroke-width: 0.4; stroke-linejoin: miter"/>
    </defs>
    <g clip-path="url(#p6f32466483)">
     <use xlink:href="#m0ef39dbfee" x="55.391881" y="44.93326" style="fill: #009e73; stroke: #ffffff; stroke-width: 0.4; stroke-linejoin: miter"/>
     <use xlink:href="#m0ef39dbfee" x="77.398218" y="91.848303" style="fill: #009e73; stroke: #ffffff; stroke-width: 0.4; stroke-linejoin: miter"/>
     <use xlink:href="#m0ef39dbfee" x="99.404554" y="102.291826" style="fill: #009e73; stroke: #ffffff; stroke-width: 0.4; stroke-linejoin: miter"/>
     <use xlink:href="#m0ef39dbfee" x="121.410891" y="103.472794" style="fill: #009e73; stroke: #ffffff; stroke-width: 0.4; stroke-linejoin: miter"/>
     <use xlink:href="#m0ef39dbfee" x="143.417228" y="104.869181" style="fill: #009e73; stroke: #ffffff; stroke-width: 0.4; stroke-linejoin: miter"/>
     <use xlink:href="#m0ef39dbfee" x="165.423564" y="104.898954" style="fill: #009e73; stroke: #ffffff; stroke-width: 0.4; stroke-linejoin: miter"/>
     <use xlink:href="#m0ef39dbfee" x="187.429901" y="104.905224" style="fill: #009e73; stroke: #ffffff; stroke-width: 0.4; stroke-linejoin: miter"/>
     <use xlink:href="#m0ef39dbfee" x="209.436238" y="104.915001" style="fill: #009e73; stroke: #ffffff; stroke-width: 0.4; stroke-linejoin: miter"/>
    </g>
   </g>
   <g id="line2d_17">
    <path d="M 55.391881 45.240619 
L 56.963762 47.075188 
L 58.535644 49.457124 
L 60.107525 52.159667 
L 61.679406 55.852665 
L 63.251287 61.367149 
L 64.823168 67.371894 
L 66.39505 71.359402 
L 67.966931 75.973333 
L 69.538812 80.193436 
L 71.110693 83.727088 
L 72.682574 87.273242 
L 74.254455 90.328534 
L 75.826337 92.143442 
L 77.398218 94.454664 
L 78.970099 96.348317 
L 80.54198 97.659559 
L 82.113861 98.790772 
L 83.685743 100.162138 
L 85.257624 101.387658 
L 86.829505 101.999252 
L 88.401386 102.448082 
L 89.973267 102.826044 
L 91.545149 103.152127 
L 93.11703 103.373536 
L 94.688911 103.519621 
L 96.260792 103.584243 
L 97.832673 103.653817 
L 99.404554 103.698448 
L 100.976436 103.749024 
L 102.548317 103.808063 
L 104.120198 103.840567 
L 105.692079 103.851602 
L 107.26396 103.862661 
L 108.835842 103.847308 
L 110.407723 103.872183 
L 111.979604 103.834212 
L 113.551485 103.850286 
L 115.123366 103.864234 
L 116.695248 103.86061 
L 118.267129 103.867597 
L 119.83901 103.880476 
L 121.410891 103.846415 
L 122.982772 103.865626 
L 124.554653 103.867363 
L 126.126535 103.867576 
L 127.698416 103.872317 
L 129.270297 103.859601 
L 130.842178 103.875357 
L 132.414059 103.888135 
L 133.985941 103.879439 
L 135.557822 103.876252 
L 137.129703 103.88475 
L 138.701584 103.877965 
L 140.273465 103.880023 
L 141.845347 103.886253 
L 143.417228 103.883037 
L 144.989109 103.858891 
L 146.56099 103.88674 
L 148.132871 103.866536 
L 149.704752 103.868516 
L 151.276634 103.870508 
L 152.848515 103.877897 
L 154.420396 103.886813 
L 155.992277 103.878155 
L 157.564158 103.855042 
L 159.13604 103.885058 
L 160.707921 103.87837 
L 162.279802 103.881404 
L 163.851683 103.889931 
L 165.423564 103.888511 
L 166.995446 103.882931 
L 168.567327 103.89495 
L 170.139208 103.887498 
L 171.711089 103.891529 
L 173.28297 103.887021 
L 174.854851 103.885408 
L 176.426733 103.897832 
L 177.998614 103.890328 
L 179.570495 103.896566 
L 181.142376 103.886354 
L 182.714257 103.892401 
L 184.286139 103.884305 
L 185.85802 103.894388 
L 187.429901 103.892493 
L 189.001782 103.886666 
L 190.573663 103.899492 
L 192.145545 103.891774 
L 193.717426 103.89397 
L 195.289307 103.896079 
L 196.861188 103.897279 
L 198.433069 103.894379 
L 200.00495 103.897909 
L 201.576832 103.89649 
L 203.148713 103.897403 
L 204.720594 103.896918 
L 206.292475 103.897931 
L 207.864356 103.89732 
L 209.436238 103.898278 
L 211.008119 103.899578 
L 212.58 103.894206 
L 214.151881 103.89511 
L 215.723762 103.899843 
L 217.295644 103.900534 
L 218.867525 103.901545 
L 220.439406 103.901754 
L 222.011287 103.90031 
L 223.583168 103.897509 
L 225.15505 103.900852 
L 226.726931 103.901196 
L 228.298812 103.901787 
L 229.870693 103.899357 
" clip-path="url(#p6f32466483)" style="fill: none; stroke-dasharray: 1.8,1.8; stroke-dashoffset: 0; stroke: #56b4e9; stroke-width: 1.8"/>
    <defs>
     <path id="mfd28afb80c" d="M -0 2 
L 2 -2 
L -2 -2 
z
" style="stroke: #ffffff; stroke-width: 0.4; stroke-linejoin: miter"/>
    </defs>
    <g clip-path="url(#p6f32466483)">
     <use xlink:href="#mfd28afb80c" x="55.391881" y="45.240619" style="fill: #56b4e9; stroke: #ffffff; stroke-width: 0.4; stroke-linejoin: miter"/>
     <use xlink:href="#mfd28afb80c" x="77.398218" y="94.454664" style="fill: #56b4e9; stroke: #ffffff; stroke-width: 0.4; stroke-linejoin: miter"/>
     <use xlink:href="#mfd28afb80c" x="99.404554" y="103.698448" style="fill: #56b4e9; stroke: #ffffff; stroke-width: 0.4; stroke-linejoin: miter"/>
     <use xlink:href="#mfd28afb80c" x="121.410891" y="103.846415" style="fill: #56b4e9; stroke: #ffffff; stroke-width: 0.4; stroke-linejoin: miter"/>
     <use xlink:href="#mfd28afb80c" x="143.417228" y="103.883037" style="fill: #56b4e9; stroke: #ffffff; stroke-width: 0.4; stroke-linejoin: miter"/>
     <use xlink:href="#mfd28afb80c" x="165.423564" y="103.888511" style="fill: #56b4e9; stroke: #ffffff; stroke-width: 0.4; stroke-linejoin: miter"/>
     <use xlink:href="#mfd28afb80c" x="187.429901" y="103.892493" style="fill: #56b4e9; stroke: #ffffff; stroke-width: 0.4; stroke-linejoin: miter"/>
     <use xlink:href="#mfd28afb80c" x="209.436238" y="103.898278" style="fill: #56b4e9; stroke: #ffffff; stroke-width: 0.4; stroke-linejoin: miter"/>
    </g>
   </g>
   <g id="line2d_18">
    <path d="M 55.391881 13.254511 
L 56.963762 13.260842 
L 58.535644 13.267982 
L 60.107525 13.317039 
L 61.679406 13.496245 
L 63.251287 13.959501 
L 64.823168 14.745525 
L 66.39505 15.799326 
L 67.966931 17.165748 
L 69.538812 18.898321 
L 71.110693 20.984045 
L 72.682574 23.486441 
L 74.254455 26.428681 
L 75.826337 29.71184 
L 77.398218 33.178466 
L 78.970099 36.790053 
L 80.54198 40.535297 
L 82.113861 44.532377 
L 83.685743 49.063491 
L 85.257624 54.612833 
L 86.829505 61.34016 
L 88.401386 68.124121 
L 89.973267 73.160697 
L 91.545149 75.354056 
L 93.11703 76.245162 
L 94.688911 77.022348 
L 96.260792 77.796239 
L 97.832673 78.557532 
L 99.404554 79.243253 
L 100.976436 79.793627 
L 102.548317 80.20583 
L 104.120198 80.485137 
L 105.692079 80.652125 
L 107.26396 80.694276 
L 108.835842 80.709357 
L 110.407723 80.718334 
L 111.979604 80.726146 
L 113.551485 80.724295 
L 115.123366 80.719869 
L 116.695248 80.71681 
L 118.267129 80.711237 
L 119.83901 80.712592 
L 121.410891 80.714885 
L 122.982772 80.727179 
L 124.554653 80.721937 
L 126.126535 80.723551 
L 127.698416 80.729484 
L 129.270297 80.731249 
L 130.842178 80.708415 
L 132.414059 80.722416 
L 133.985941 80.729676 
L 135.557822 80.724032 
L 137.129703 80.727161 
L 138.701584 80.725787 
L 140.273465 80.727618 
L 141.845347 80.728121 
L 143.417228 80.729421 
L 144.989109 80.72604 
L 146.56099 80.723865 
L 148.132871 80.731133 
L 149.704752 80.728151 
L 151.276634 80.7254 
L 152.848515 80.727115 
L 154.420396 80.728659 
L 155.992277 80.727624 
L 157.564158 80.729511 
L 159.13604 80.721995 
L 160.707921 80.726379 
L 162.279802 80.725548 
L 163.851683 80.729714 
L 165.423564 80.732327 
L 166.995446 80.731017 
L 168.567327 80.729682 
L 170.139208 80.727796 
L 171.711089 80.73077 
L 173.28297 80.725485 
L 174.854851 80.729571 
L 176.426733 80.731346 
L 177.998614 80.734152 
L 179.570495 80.729593 
L 181.142376 80.734896 
L 182.714257 80.730807 
L 184.286139 80.732578 
L 185.85802 80.731449 
L 187.429901 80.7327 
L 189.001782 80.729517 
L 190.573663 80.729721 
L 192.145545 80.732688 
L 193.717426 80.733537 
L 195.289307 80.73181 
L 196.861188 80.734419 
L 198.433069 80.731486 
L 200.00495 80.733781 
L 201.576832 80.733774 
L 203.148713 80.7338 
L 204.720594 80.733493 
L 206.292475 80.733726 
L 207.864356 80.733491 
L 209.436238 80.733892 
L 211.008119 80.733912 
L 212.58 80.733683 
L 214.151881 80.734697 
L 215.723762 80.734891 
L 217.295644 80.735252 
L 218.867525 80.734167 
L 220.439406 80.733623 
L 222.011287 80.73464 
L 223.583168 80.734242 
L 225.15505 80.734397 
L 226.726931 80.73342 
L 228.298812 80.734821 
L 229.870693 80.73393 
" clip-path="url(#p6f32466483)" style="fill: none; stroke-dasharray: 9,3.6; stroke-dashoffset: 0; stroke: #e69f00; stroke-width: 1.8"/>
    <defs>
     <path id="mf960f6123d" d="M -2 2 
L 2 2 
L 2 -2 
L -2 -2 
z
" style="stroke: #ffffff; stroke-width: 0.4; stroke-linejoin: miter"/>
    </defs>
    <g clip-path="url(#p6f32466483)">
     <use xlink:href="#mf960f6123d" x="55.391881" y="13.254511" style="fill: #e69f00; stroke: #ffffff; stroke-width: 0.4; stroke-linejoin: miter"/>
     <use xlink:href="#mf960f6123d" x="77.398218" y="33.178466" style="fill: #e69f00; stroke: #ffffff; stroke-width: 0.4; stroke-linejoin: miter"/>
     <use xlink:href="#mf960f6123d" x="99.404554" y="79.243253" style="fill: #e69f00; stroke: #ffffff; stroke-width: 0.4; stroke-linejoin: miter"/>
     <use xlink:href="#mf960f6123d" x="121.410891" y="80.714885" style="fill: #e69f00; stroke: #ffffff; stroke-width: 0.4; stroke-linejoin: miter"/>
     <use xlink:href="#mf960f6123d" x="143.417228" y="80.729421" style="fill: #e69f00; stroke: #ffffff; stroke-width: 0.4; stroke-linejoin: miter"/>
     <use xlink:href="#mf960f6123d" x="165.423564" y="80.732327" style="fill: #e69f00; stroke: #ffffff; stroke-width: 0.4; stroke-linejoin: miter"/>
     <use xlink:href="#mf960f6123d" x="187.429901" y="80.7327" style="fill: #e69f00; stroke: #ffffff; stroke-width: 0.4; stroke-linejoin: miter"/>
     <use xlink:href="#mf960f6123d" x="209.436238" y="80.733892" style="fill: #e69f00; stroke: #ffffff; stroke-width: 0.4; stroke-linejoin: miter"/>
    </g>
   </g>
   <g id="line2d_19">
    <path d="M 55.391881 13.254511 
L 56.963762 13.260842 
L 58.535644 13.267982 
L 60.107525 13.317039 
L 61.679406 13.496245 
L 63.251287 13.959501 
L 64.823168 14.745525 
L 66.39505 15.799326 
L 67.966931 17.165748 
L 69.538812 18.898321 
L 71.110693 20.984045 
L 72.682574 23.486441 
L 74.254455 26.428681 
L 75.826337 29.71184 
L 77.398218 33.178466 
L 78.970099 36.790053 
L 80.54198 40.535298 
L 82.113861 44.532377 
L 83.685743 49.063491 
L 85.257624 54.612833 
L 86.829505 61.34016 
L 88.401386 68.124121 
L 89.973267 73.160697 
L 91.545149 75.354056 
L 93.11703 76.245161 
L 94.688911 77.02235 
L 96.260792 77.796218 
L 97.832673 78.557698 
L 99.404554 79.229557 
L 100.976436 79.763356 
L 102.548317 80.183701 
L 104.120198 80.442165 
L 105.692079 80.615916 
L 107.26396 80.667724 
L 108.835842 80.704185 
L 110.407723 80.713369 
L 111.979604 80.723128 
L 113.551485 80.724723 
L 115.123366 80.721426 
L 116.695248 80.728941 
L 118.267129 80.713766 
L 119.83901 80.727123 
L 121.410891 80.726469 
L 122.982772 80.728882 
L 124.554653 80.726966 
L 126.126535 80.726184 
L 127.698416 80.721869 
L 129.270297 80.727978 
L 130.842178 80.719001 
L 132.414059 80.721805 
L 133.985941 80.730546 
L 135.557822 80.714354 
L 137.129703 80.723906 
L 138.701584 80.724899 
L 140.273465 80.727907 
L 141.845347 80.726867 
L 143.417228 80.724994 
L 144.989109 80.726931 
L 146.56099 80.724604 
L 148.132871 80.726659 
L 149.704752 80.727911 
L 151.276634 80.721132 
L 152.848515 80.726893 
L 154.420396 80.727841 
L 155.992277 80.725852 
L 157.564158 80.727388 
L 159.13604 80.730383 
L 160.707921 80.728238 
L 162.279802 80.72803 
L 163.851683 80.72889 
L 165.423564 80.729619 
L 166.995446 80.732397 
L 168.567327 80.731939 
L 170.139208 80.727874 
L 171.711089 80.731443 
L 173.28297 80.724776 
L 174.854851 80.728911 
L 176.426733 80.728148 
L 177.998614 80.733851 
L 179.570495 80.729307 
L 181.142376 80.73419 
L 182.714257 80.732362 
L 184.286139 80.732113 
L 185.85802 80.729374 
L 187.429901 80.732242 
L 189.001782 80.729888 
L 190.573663 80.729553 
L 192.145545 80.732592 
L 193.717426 80.733957 
L 195.289307 80.732341 
L 196.861188 80.733904 
L 198.433069 80.731869 
L 200.00495 80.733885 
L 201.576832 80.733508 
L 203.148713 80.733462 
L 204.720594 80.733738 
L 206.292475 80.733577 
L 207.864356 80.733387 
L 209.436238 80.733728 
L 211.008119 80.734288 
L 212.58 80.733453 
L 214.151881 80.734769 
L 215.723762 80.73479 
L 217.295644 80.735129 
L 218.867525 80.734106 
L 220.439406 80.73359 
L 222.011287 80.734644 
L 223.583168 80.73421 
L 225.15505 80.734378 
L 226.726931 80.733405 
L 228.298812 80.734783 
L 229.870693 80.73384 
" clip-path="url(#p6f32466483)" style="fill: none; stroke-dasharray: 1.8,1.8; stroke-dashoffset: 0; stroke: #d55e00; stroke-width: 1.8"/>
    <defs>
     <path id="m2c34ef8855" d="M 0 -2 
L -2 2 
L 2 2 
z
" style="stroke: #ffffff; stroke-width: 0.4; stroke-linejoin: miter"/>
    </defs>
    <g clip-path="url(#p6f32466483)">
     <use xlink:href="#m2c34ef8855" x="55.391881" y="13.254511" style="fill: #d55e00; stroke: #ffffff; stroke-width: 0.4; stroke-linejoin: miter"/>
     <use xlink:href="#m2c34ef8855" x="77.398218" y="33.178466" style="fill: #d55e00; stroke: #ffffff; stroke-width: 0.4; stroke-linejoin: miter"/>
     <use xlink:href="#m2c34ef8855" x="99.404554" y="79.229557" style="fill: #d55e00; stroke: #ffffff; stroke-width: 0.4; stroke-linejoin: miter"/>
     <use xlink:href="#m2c34ef8855" x="121.410891" y="80.726469" style="fill: #d55e00; stroke: #ffffff; stroke-width: 0.4; stroke-linejoin: miter"/>
     <use xlink:href="#m2c34ef8855" x="143.417228" y="80.724994" style="fill: #d55e00; stroke: #ffffff; stroke-width: 0.4; stroke-linejoin: miter"/>
     <use xlink:href="#m2c34ef8855" x="165.423564" y="80.729619" style="fill: #d55e00; stroke: #ffffff; stroke-width: 0.4; stroke-linejoin: miter"/>
     <use xlink:href="#m2c34ef8855" x="187.429901" y="80.732242" style="fill: #d55e00; stroke: #ffffff; stroke-width: 0.4; stroke-linejoin: miter"/>
     <use xlink:href="#m2c34ef8855" x="209.436238" y="80.733728" style="fill: #d55e00; stroke: #ffffff; stroke-width: 0.4; stroke-linejoin: miter"/>
    </g>
   </g>
   <g id="legend_1">
    <g id="line2d_20">
     <path d="M 142.236797 14.773828 
L 150.486797 14.773828 
L 158.736797 14.773828 
" style="fill: none; stroke: #0072b2; stroke-width: 1.8; stroke-linecap: square"/>
     <g>
      <use xlink:href="#ma470c65d7e" x="150.486797" y="14.773828" style="fill: #0072b2; stroke: #ffffff; stroke-width: 0.4"/>
     </g>
    </g>
    <g id="text_4">
     <!-- RichBasis -->
     <g transform="translate(164.736797 17.398828) scale(0.075 -0.075)">
      <defs>
       <path id="DejaVuSans-52" d="M 2841 2188 
Q 3044 2119 3236 1894 
Q 3428 1669 3622 1275 
L 4263 0 
L 3584 0 
L 2988 1197 
Q 2756 1666 2539 1819 
Q 2322 1972 1947 1972 
L 1259 1972 
L 1259 0 
L 628 0 
L 628 4666 
L 2053 4666 
Q 2853 4666 3247 4331 
Q 3641 3997 3641 3322 
Q 3641 2881 3436 2590 
Q 3231 2300 2841 2188 
z
M 1259 4147 
L 1259 2491 
L 2053 2491 
Q 2509 2491 2742 2702 
Q 2975 2913 2975 3322 
Q 2975 3731 2742 3939 
Q 2509 4147 2053 4147 
L 1259 4147 
z
" transform="scale(0.015625)"/>
       <path id="DejaVuSans-69" d="M 603 3500 
L 1178 3500 
L 1178 0 
L 603 0 
L 603 3500 
z
M 603 4863 
L 1178 4863 
L 1178 4134 
L 603 4134 
L 603 4863 
z
" transform="scale(0.015625)"/>
       <path id="DejaVuSans-63" d="M 3122 3366 
L 3122 2828 
Q 2878 2963 2633 3030 
Q 2388 3097 2138 3097 
Q 1578 3097 1268 2742 
Q 959 2388 959 1747 
Q 959 1106 1268 751 
Q 1578 397 2138 397 
Q 2388 397 2633 464 
Q 2878 531 3122 666 
L 3122 134 
Q 2881 22 2623 -34 
Q 2366 -91 2075 -91 
Q 1284 -91 818 406 
Q 353 903 353 1747 
Q 353 2603 823 3093 
Q 1294 3584 2113 3584 
Q 2378 3584 2631 3529 
Q 2884 3475 3122 3366 
z
" transform="scale(0.015625)"/>
       <path id="DejaVuSans-68" d="M 3513 2113 
L 3513 0 
L 2938 0 
L 2938 2094 
Q 2938 2591 2744 2837 
Q 2550 3084 2163 3084 
Q 1697 3084 1428 2787 
Q 1159 2491 1159 1978 
L 1159 0 
L 581 0 
L 581 4863 
L 1159 4863 
L 1159 2956 
Q 1366 3272 1645 3428 
Q 1925 3584 2291 3584 
Q 2894 3584 3203 3211 
Q 3513 2838 3513 2113 
z
" transform="scale(0.015625)"/>
       <path id="DejaVuSans-42" d="M 1259 2228 
L 1259 519 
L 2272 519 
Q 2781 519 3026 730 
Q 3272 941 3272 1375 
Q 3272 1813 3026 2020 
Q 2781 2228 2272 2228 
L 1259 2228 
z
M 1259 4147 
L 1259 2741 
L 2194 2741 
Q 2656 2741 2882 2914 
Q 3109 3088 3109 3444 
Q 3109 3797 2882 3972 
Q 2656 4147 2194 4147 
L 1259 4147 
z
M 628 4666 
L 2241 4666 
Q 2963 4666 3353 4366 
Q 3744 4066 3744 3513 
Q 3744 3084 3544 2831 
Q 3344 2578 2956 2516 
Q 3422 2416 3680 2098 
Q 3938 1781 3938 1306 
Q 3938 681 3513 340 
Q 3088 0 2303 0 
L 628 0 
L 628 4666 
z
" transform="scale(0.015625)"/>
       <path id="DejaVuSans-61" d="M 2194 1759 
Q 1497 1759 1228 1600 
Q 959 1441 959 1056 
Q 959 750 1161 570 
Q 1363 391 1709 391 
Q 2188 391 2477 730 
Q 2766 1069 2766 1631 
L 2766 1759 
L 2194 1759 
z
M 3341 1997 
L 3341 0 
L 2766 0 
L 2766 531 
Q 2569 213 2275 61 
Q 1981 -91 1556 -91 
Q 1019 -91 701 211 
Q 384 513 384 1019 
Q 384 1609 779 1909 
Q 1175 2209 1959 2209 
L 2766 2209 
L 2766 2266 
Q 2766 2663 2505 2880 
Q 2244 3097 1772 3097 
Q 1472 3097 1187 3025 
Q 903 2953 641 2809 
L 641 3341 
Q 956 3463 1253 3523 
Q 1550 3584 1831 3584 
Q 2591 3584 2966 3190 
Q 3341 2797 3341 1997 
z
" transform="scale(0.015625)"/>
       <path id="DejaVuSans-73" d="M 2834 3397 
L 2834 2853 
Q 2591 2978 2328 3040 
Q 2066 3103 1784 3103 
Q 1356 3103 1142 2972 
Q 928 2841 928 2578 
Q 928 2378 1081 2264 
Q 1234 2150 1697 2047 
L 1894 2003 
Q 2506 1872 2764 1633 
Q 3022 1394 3022 966 
Q 3022 478 2636 193 
Q 2250 -91 1575 -91 
Q 1294 -91 989 -36 
Q 684 19 347 128 
L 347 722 
Q 666 556 975 473 
Q 1284 391 1588 391 
Q 1994 391 2212 530 
Q 2431 669 2431 922 
Q 2431 1156 2273 1281 
Q 2116 1406 1581 1522 
L 1381 1569 
Q 847 1681 609 1914 
Q 372 2147 372 2553 
Q 372 3047 722 3315 
Q 1072 3584 1716 3584 
Q 2034 3584 2315 3537 
Q 2597 3491 2834 3397 
z
" transform="scale(0.015625)"/>
      </defs>
      <use xlink:href="#DejaVuSans-52"/>
      <use xlink:href="#DejaVuSans-69" transform="translate(69.482422 0)"/>
      <use xlink:href="#DejaVuSans-63" transform="translate(97.265625 0)"/>
      <use xlink:href="#DejaVuSans-68" transform="translate(152.246094 0)"/>
      <use xlink:href="#DejaVuSans-42" transform="translate(215.625 0)"/>
      <use xlink:href="#DejaVuSans-61" transform="translate(284.228516 0)"/>
      <use xlink:href="#DejaVuSans-73" transform="translate(345.507812 0)"/>
      <use xlink:href="#DejaVuSans-69" transform="translate(397.607422 0)"/>
      <use xlink:href="#DejaVuSans-73" transform="translate(425.390625 0)"/>
     </g>
    </g>
    <g id="line2d_21">
     <path d="M 142.236797 23.682422 
L 150.486797 23.682422 
L 158.736797 23.682422 
" style="fill: none; stroke-dasharray: 5.4,1.8,1.8,1.8; stroke-dashoffset: 0; stroke: #000000; stroke-width: 1.8"/>
     <g>
      <use xlink:href="#me46bc880e4" x="150.486797" y="23.682422" style="stroke: #ffffff; stroke-width: 0.4; stroke-linejoin: miter"/>
     </g>
    </g>
    <g id="text_5">
     <!-- DCT-IV (relaxed) -->
     <g transform="translate(164.736797 26.307422) scale(0.075 -0.075)">
      <defs>
       <path id="DejaVuSans-44" d="M 1259 4147 
L 1259 519 
L 2022 519 
Q 2988 519 3436 956 
Q 3884 1394 3884 2338 
Q 3884 3275 3436 3711 
Q 2988 4147 2022 4147 
L 1259 4147 
z
M 628 4666 
L 1925 4666 
Q 3281 4666 3915 4102 
Q 4550 3538 4550 2338 
Q 4550 1131 3912 565 
Q 3275 0 1925 0 
L 628 0 
L 628 4666 
z
" transform="scale(0.015625)"/>
       <path id="DejaVuSans-43" d="M 4122 4306 
L 4122 3641 
Q 3803 3938 3442 4084 
Q 3081 4231 2675 4231 
Q 1875 4231 1450 3742 
Q 1025 3253 1025 2328 
Q 1025 1406 1450 917 
Q 1875 428 2675 428 
Q 3081 428 3442 575 
Q 3803 722 4122 1019 
L 4122 359 
Q 3791 134 3420 21 
Q 3050 -91 2638 -91 
Q 1578 -91 968 557 
Q 359 1206 359 2328 
Q 359 3453 968 4101 
Q 1578 4750 2638 4750 
Q 3056 4750 3426 4639 
Q 3797 4528 4122 4306 
z
" transform="scale(0.015625)"/>
       <path id="DejaVuSans-54" d="M -19 4666 
L 3928 4666 
L 3928 4134 
L 2272 4134 
L 2272 0 
L 1638 0 
L 1638 4134 
L -19 4134 
L -19 4666 
z
" transform="scale(0.015625)"/>
       <path id="DejaVuSans-2d" d="M 313 2009 
L 1997 2009 
L 1997 1497 
L 313 1497 
L 313 2009 
z
" transform="scale(0.015625)"/>
       <path id="DejaVuSans-49" d="M 628 4666 
L 1259 4666 
L 1259 0 
L 628 0 
L 628 4666 
z
" transform="scale(0.015625)"/>
       <path id="DejaVuSans-56" d="M 1831 0 
L 50 4666 
L 709 4666 
L 2188 738 
L 3669 4666 
L 4325 4666 
L 2547 0 
L 1831 0 
z
" transform="scale(0.015625)"/>
       <path id="DejaVuSans-20" transform="scale(0.015625)"/>
       <path id="DejaVuSans-28" d="M 1984 4856 
Q 1566 4138 1362 3434 
Q 1159 2731 1159 2009 
Q 1159 1288 1364 580 
Q 1569 -128 1984 -844 
L 1484 -844 
Q 1016 -109 783 600 
Q 550 1309 550 2009 
Q 550 2706 781 3412 
Q 1013 4119 1484 4856 
L 1984 4856 
z
" transform="scale(0.015625)"/>
       <path id="DejaVuSans-72" d="M 2631 2963 
Q 2534 3019 2420 3045 
Q 2306 3072 2169 3072 
Q 1681 3072 1420 2755 
Q 1159 2438 1159 1844 
L 1159 0 
L 581 0 
L 581 3500 
L 1159 3500 
L 1159 2956 
Q 1341 3275 1631 3429 
Q 1922 3584 2338 3584 
Q 2397 3584 2469 3576 
Q 2541 3569 2628 3553 
L 2631 2963 
z
" transform="scale(0.015625)"/>
       <path id="DejaVuSans-65" d="M 3597 1894 
L 3597 1613 
L 953 1613 
Q 991 1019 1311 708 
Q 1631 397 2203 397 
Q 2534 397 2845 478 
Q 3156 559 3463 722 
L 3463 178 
Q 3153 47 2828 -22 
Q 2503 -91 2169 -91 
Q 1331 -91 842 396 
Q 353 884 353 1716 
Q 353 2575 817 3079 
Q 1281 3584 2069 3584 
Q 2775 3584 3186 3129 
Q 3597 2675 3597 1894 
z
M 3022 2063 
Q 3016 2534 2758 2815 
Q 2500 3097 2075 3097 
Q 1594 3097 1305 2825 
Q 1016 2553 972 2059 
L 3022 2063 
z
" transform="scale(0.015625)"/>
       <path id="DejaVuSans-6c" d="M 603 4863 
L 1178 4863 
L 1178 0 
L 603 0 
L 603 4863 
z
" transform="scale(0.015625)"/>
       <path id="DejaVuSans-78" d="M 3513 3500 
L 2247 1797 
L 3578 0 
L 2900 0 
L 1881 1375 
L 863 0 
L 184 0 
L 1544 1831 
L 300 3500 
L 978 3500 
L 1906 2253 
L 2834 3500 
L 3513 3500 
z
" transform="scale(0.015625)"/>
       <path id="DejaVuSans-64" d="M 2906 2969 
L 2906 4863 
L 3481 4863 
L 3481 0 
L 2906 0 
L 2906 525 
Q 2725 213 2448 61 
Q 2172 -91 1784 -91 
Q 1150 -91 751 415 
Q 353 922 353 1747 
Q 353 2572 751 3078 
Q 1150 3584 1784 3584 
Q 2172 3584 2448 3432 
Q 2725 3281 2906 2969 
z
M 947 1747 
Q 947 1113 1208 752 
Q 1469 391 1925 391 
Q 2381 391 2643 752 
Q 2906 1113 2906 1747 
Q 2906 2381 2643 2742 
Q 2381 3103 1925 3103 
Q 1469 3103 1208 2742 
Q 947 2381 947 1747 
z
" transform="scale(0.015625)"/>
       <path id="DejaVuSans-29" d="M 513 4856 
L 1013 4856 
Q 1481 4119 1714 3412 
Q 1947 2706 1947 2009 
Q 1947 1309 1714 600 
Q 1481 -109 1013 -844 
L 513 -844 
Q 928 -128 1133 580 
Q 1338 1288 1338 2009 
Q 1338 2731 1133 3434 
Q 928 4138 513 4856 
z
" transform="scale(0.015625)"/>
      </defs>
      <use xlink:href="#DejaVuSans-44"/>
      <use xlink:href="#DejaVuSans-43" transform="translate(77.001953 0)"/>
      <use xlink:href="#DejaVuSans-54" transform="translate(146.826172 0)"/>
      <use xlink:href="#DejaVuSans-2d" transform="translate(198.785156 0)"/>
      <use xlink:href="#DejaVuSans-49" transform="translate(234.869141 0)"/>
      <use xlink:href="#DejaVuSans-56" transform="translate(264.361328 0)"/>
      <use xlink:href="#DejaVuSans-20" transform="translate(332.769531 0)"/>
      <use xlink:href="#DejaVuSans-28" transform="translate(364.556641 0)"/>
      <use xlink:href="#DejaVuSans-72" transform="translate(403.570312 0)"/>
      <use xlink:href="#DejaVuSans-65" transform="translate(442.433594 0)"/>
      <use xlink:href="#DejaVuSans-6c" transform="translate(503.957031 0)"/>
      <use xlink:href="#DejaVuSans-61" transform="translate(531.740234 0)"/>
      <use xlink:href="#DejaVuSans-78" transform="translate(593.019531 0)"/>
      <use xlink:href="#DejaVuSans-65" transform="translate(649.074219 0)"/>
      <use xlink:href="#DejaVuSans-64" transform="translate(710.597656 0)"/>
      <use xlink:href="#DejaVuSans-29" transform="translate(774.074219 0)"/>
     </g>
    </g>
    <g id="line2d_22">
     <path d="M 142.236797 32.591016 
L 150.486797 32.591016 
L 158.736797 32.591016 
" style="fill: none; stroke-dasharray: 9,3.6; stroke-dashoffset: 0; stroke: #009e73; stroke-width: 1.8"/>
     <g>
      <use xlink:href="#m0ef39dbfee" x="150.486797" y="32.591016" style="fill: #009e73; stroke: #ffffff; stroke-width: 0.4; stroke-linejoin: miter"/>
     </g>
    </g>
    <g id="text_6">
     <!-- TEBD -->
     <g transform="translate(164.736797 35.216016) scale(0.075 -0.075)">
      <defs>
       <path id="DejaVuSans-45" d="M 628 4666 
L 3578 4666 
L 3578 4134 
L 1259 4134 
L 1259 2753 
L 3481 2753 
L 3481 2222 
L 1259 2222 
L 1259 531 
L 3634 531 
L 3634 0 
L 628 0 
L 628 4666 
z
" transform="scale(0.015625)"/>
      </defs>
      <use xlink:href="#DejaVuSans-54"/>
      <use xlink:href="#DejaVuSans-45" transform="translate(61.083984 0)"/>
      <use xlink:href="#DejaVuSans-42" transform="translate(124.267578 0)"/>
      <use xlink:href="#DejaVuSans-44" transform="translate(192.871094 0)"/>
     </g>
    </g>
    <g id="line2d_23">
     <path d="M 142.236797 41.499609 
L 150.486797 41.499609 
L 158.736797 41.499609 
" style="fill: none; stroke-dasharray: 1.8,1.8; stroke-dashoffset: 0; stroke: #56b4e9; stroke-width: 1.8"/>
     <g>
      <use xlink:href="#mfd28afb80c" x="150.486797" y="41.499609" style="fill: #56b4e9; stroke: #ffffff; stroke-width: 0.4; stroke-linejoin: miter"/>
     </g>
    </g>
    <g id="text_7">
     <!-- MERA -->
     <g transform="translate(164.736797 44.124609) scale(0.075 -0.075)">
      <defs>
       <path id="DejaVuSans-4d" d="M 628 4666 
L 1569 4666 
L 2759 1491 
L 3956 4666 
L 4897 4666 
L 4897 0 
L 4281 0 
L 4281 4097 
L 3078 897 
L 2444 897 
L 1241 4097 
L 1241 0 
L 628 0 
L 628 4666 
z
" transform="scale(0.015625)"/>
       <path id="DejaVuSans-41" d="M 2188 4044 
L 1331 1722 
L 3047 1722 
L 2188 4044 
z
M 1831 4666 
L 2547 4666 
L 4325 0 
L 3669 0 
L 3244 1197 
L 1141 1197 
L 716 0 
L 50 0 
L 1831 4666 
z
" transform="scale(0.015625)"/>
      </defs>
      <use xlink:href="#DejaVuSans-4d"/>
      <use xlink:href="#DejaVuSans-45" transform="translate(86.279297 0)"/>
      <use xlink:href="#DejaVuSans-52" transform="translate(149.462891 0)"/>
      <use xlink:href="#DejaVuSans-41" transform="translate(214.945312 0)"/>
     </g>
    </g>
    <g id="line2d_24">
     <path d="M 142.236797 50.408203 
L 150.486797 50.408203 
L 158.736797 50.408203 
" style="fill: none; stroke-dasharray: 9,3.6; stroke-dashoffset: 0; stroke: #e69f00; stroke-width: 1.8"/>
     <g>
      <use xlink:href="#mf960f6123d" x="150.486797" y="50.408203" style="fill: #e69f00; stroke: #ffffff; stroke-width: 0.4; stroke-linejoin: miter"/>
     </g>
    </g>
    <g id="text_8">
     <!-- QFT -->
     <g transform="translate(164.736797 53.033203) scale(0.075 -0.075)">
      <defs>
       <path id="DejaVuSans-51" d="M 2522 4238 
Q 1834 4238 1429 3725 
Q 1025 3213 1025 2328 
Q 1025 1447 1429 934 
Q 1834 422 2522 422 
Q 3209 422 3611 934 
Q 4013 1447 4013 2328 
Q 4013 3213 3611 3725 
Q 3209 4238 2522 4238 
z
M 3406 84 
L 4238 -825 
L 3475 -825 
L 2784 -78 
Q 2681 -84 2626 -87 
Q 2572 -91 2522 -91 
Q 1538 -91 948 567 
Q 359 1225 359 2328 
Q 359 3434 948 4092 
Q 1538 4750 2522 4750 
Q 3503 4750 4090 4092 
Q 4678 3434 4678 2328 
Q 4678 1516 4351 937 
Q 4025 359 3406 84 
z
" transform="scale(0.015625)"/>
       <path id="DejaVuSans-46" d="M 628 4666 
L 3309 4666 
L 3309 4134 
L 1259 4134 
L 1259 2759 
L 3109 2759 
L 3109 2228 
L 1259 2228 
L 1259 0 
L 628 0 
L 628 4666 
z
" transform="scale(0.015625)"/>
      </defs>
      <use xlink:href="#DejaVuSans-51"/>
      <use xlink:href="#DejaVuSans-46" transform="translate(78.710938 0)"/>
      <use xlink:href="#DejaVuSans-54" transform="translate(134.480469 0)"/>
     </g>
    </g>
    <g id="line2d_25">
     <path d="M 142.236797 59.316797 
L 150.486797 59.316797 
L 158.736797 59.316797 
" style="fill: none; stroke-dasharray: 1.8,1.8; stroke-dashoffset: 0; stroke: #d55e00; stroke-width: 1.8"/>
     <g>
      <use xlink:href="#m2c34ef8855" x="150.486797" y="59.316797" style="fill: #d55e00; stroke: #ffffff; stroke-width: 0.4; stroke-linejoin: miter"/>
     </g>
    </g>
    <g id="text_9">
     <!-- Entangled QFT -->
     <g transform="translate(164.736797 61.941797) scale(0.075 -0.075)">
      <defs>
       <path id="DejaVuSans-6e" d="M 3513 2113 
L 3513 0 
L 2938 0 
L 2938 2094 
Q 2938 2591 2744 2837 
Q 2550 3084 2163 3084 
Q 1697 3084 1428 2787 
Q 1159 2491 1159 1978 
L 1159 0 
L 581 0 
L 581 3500 
L 1159 3500 
L 1159 2956 
Q 1366 3272 1645 3428 
Q 1925 3584 2291 3584 
Q 2894 3584 3203 3211 
Q 3513 2838 3513 2113 
z
" transform="scale(0.015625)"/>
       <path id="DejaVuSans-74" d="M 1172 4494 
L 1172 3500 
L 2356 3500 
L 2356 3053 
L 1172 3053 
L 1172 1153 
Q 1172 725 1289 603 
Q 1406 481 1766 481 
L 2356 481 
L 2356 0 
L 1766 0 
Q 1100 0 847 248 
Q 594 497 594 1153 
L 594 3053 
L 172 3053 
L 172 3500 
L 594 3500 
L 594 4494 
L 1172 4494 
z
" transform="scale(0.015625)"/>
       <path id="DejaVuSans-67" d="M 2906 1791 
Q 2906 2416 2648 2759 
Q 2391 3103 1925 3103 
Q 1463 3103 1205 2759 
Q 947 2416 947 1791 
Q 947 1169 1205 825 
Q 1463 481 1925 481 
Q 2391 481 2648 825 
Q 2906 1169 2906 1791 
z
M 3481 434 
Q 3481 -459 3084 -895 
Q 2688 -1331 1869 -1331 
Q 1566 -1331 1297 -1286 
Q 1028 -1241 775 -1147 
L 775 -588 
Q 1028 -725 1275 -790 
Q 1522 -856 1778 -856 
Q 2344 -856 2625 -561 
Q 2906 -266 2906 331 
L 2906 616 
Q 2728 306 2450 153 
Q 2172 0 1784 0 
Q 1141 0 747 490 
Q 353 981 353 1791 
Q 353 2603 747 3093 
Q 1141 3584 1784 3584 
Q 2172 3584 2450 3431 
Q 2728 3278 2906 2969 
L 2906 3500 
L 3481 3500 
L 3481 434 
z
" transform="scale(0.015625)"/>
      </defs>
      <use xlink:href="#DejaVuSans-45"/>
      <use xlink:href="#DejaVuSans-6e" transform="translate(63.183594 0)"/>
      <use xlink:href="#DejaVuSans-74" transform="translate(126.5625 0)"/>
      <use xlink:href="#DejaVuSans-61" transform="translate(165.771484 0)"/>
      <use xlink:href="#DejaVuSans-6e" transform="translate(227.050781 0)"/>
      <use xlink:href="#DejaVuSans-67" transform="translate(290.429688 0)"/>
      <use xlink:href="#DejaVuSans-6c" transform="translate(353.90625 0)"/>
      <use xlink:href="#DejaVuSans-65" transform="translate(381.689453 0)"/>
      <use xlink:href="#DejaVuSans-64" transform="translate(443.212891 0)"/>
      <use xlink:href="#DejaVuSans-20" transform="translate(506.689453 0)"/>
      <use xlink:href="#DejaVuSans-51" transform="translate(538.476562 0)"/>
      <use xlink:href="#DejaVuSans-46" transform="translate(617.1875 0)"/>
      <use xlink:href="#DejaVuSans-54" transform="translate(672.957031 0)"/>
     </g>
    </g>
   </g>
  </g>
  <g id="axes_2">
   <g id="patch_6">
    <path d="M 53.82 184.608 
L 230.22 184.608 
L 230.22 93.365066 
L 53.82 93.365066 
z
" style="fill: #ffffff"/>
   </g>
   <g id="matplotlib.axis_3">
    <g id="xtick_7">
     <g id="line2d_26">
      <path d="M 53.82 184.608 
L 53.82 93.365066 
" clip-path="url(#p77d7178a00)" style="fill: none; stroke: #b0b0b0; stroke-opacity: 0.25; stroke-width: 0.5; stroke-linecap: square"/>
     </g>
     <g id="line2d_27">
      <defs>
       <path id="m0edf243a6a" d="M 0 0 
L 0 3.5 
" style="stroke: #000000; stroke-width: 0.8"/>
      </defs>
      <g>
       <use xlink:href="#m0edf243a6a" x="53.82" y="184.608" style="stroke: #000000; stroke-width: 0.8"/>
      </g>
     </g>
     <g id="text_10">
      <!-- 0 -->
      <g transform="translate(51.275 197.68675) scale(0.08 -0.08)">
       <use xlink:href="#DejaVuSans-30"/>
      </g>
     </g>
    </g>
    <g id="xtick_8">
     <g id="line2d_28">
      <path d="M 88.750693 184.608 
L 88.750693 93.365066 
" clip-path="url(#p77d7178a00)" style="fill: none; stroke: #b0b0b0; stroke-opacity: 0.25; stroke-width: 0.5; stroke-linecap: square"/>
     </g>
     <g id="line2d_29">
      <g>
       <use xlink:href="#m0edf243a6a" x="88.750693" y="184.608" style="stroke: #000000; stroke-width: 0.8"/>
      </g>
     </g>
     <g id="text_11">
      <!-- 200 -->
      <g transform="translate(81.115693 197.68675) scale(0.08 -0.08)">
       <use xlink:href="#DejaVuSans-32"/>
       <use xlink:href="#DejaVuSans-30" transform="translate(63.623047 0)"/>
       <use xlink:href="#DejaVuSans-30" transform="translate(127.246094 0)"/>
      </g>
     </g>
    </g>
    <g id="xtick_9">
     <g id="line2d_30">
      <path d="M 123.681386 184.608 
L 123.681386 93.365066 
" clip-path="url(#p77d7178a00)" style="fill: none; stroke: #b0b0b0; stroke-opacity: 0.25; stroke-width: 0.5; stroke-linecap: square"/>
     </g>
     <g id="line2d_31">
      <g>
       <use xlink:href="#m0edf243a6a" x="123.681386" y="184.608" style="stroke: #000000; stroke-width: 0.8"/>
      </g>
     </g>
     <g id="text_12">
      <!-- 400 -->
      <g transform="translate(116.046386 197.68675) scale(0.08 -0.08)">
       <defs>
        <path id="DejaVuSans-34" d="M 2419 4116 
L 825 1625 
L 2419 1625 
L 2419 4116 
z
M 2253 4666 
L 3047 4666 
L 3047 1625 
L 3713 1625 
L 3713 1100 
L 3047 1100 
L 3047 0 
L 2419 0 
L 2419 1100 
L 313 1100 
L 313 1709 
L 2253 4666 
z
" transform="scale(0.015625)"/>
       </defs>
       <use xlink:href="#DejaVuSans-34"/>
       <use xlink:href="#DejaVuSans-30" transform="translate(63.623047 0)"/>
       <use xlink:href="#DejaVuSans-30" transform="translate(127.246094 0)"/>
      </g>
     </g>
    </g>
    <g id="xtick_10">
     <g id="line2d_32">
      <path d="M 158.612079 184.608 
L 158.612079 93.365066 
" clip-path="url(#p77d7178a00)" style="fill: none; stroke: #b0b0b0; stroke-opacity: 0.25; stroke-width: 0.5; stroke-linecap: square"/>
     </g>
     <g id="line2d_33">
      <g>
       <use xlink:href="#m0edf243a6a" x="158.612079" y="184.608" style="stroke: #000000; stroke-width: 0.8"/>
      </g>
     </g>
     <g id="text_13">
      <!-- 600 -->
      <g transform="translate(150.977079 197.68675) scale(0.08 -0.08)">
       <defs>
        <path id="DejaVuSans-36" d="M 2113 2584 
Q 1688 2584 1439 2293 
Q 1191 2003 1191 1497 
Q 1191 994 1439 701 
Q 1688 409 2113 409 
Q 2538 409 2786 701 
Q 3034 994 3034 1497 
Q 3034 2003 2786 2293 
Q 2538 2584 2113 2584 
z
M 3366 4563 
L 3366 3988 
Q 3128 4100 2886 4159 
Q 2644 4219 2406 4219 
Q 1781 4219 1451 3797 
Q 1122 3375 1075 2522 
Q 1259 2794 1537 2939 
Q 1816 3084 2150 3084 
Q 2853 3084 3261 2657 
Q 3669 2231 3669 1497 
Q 3669 778 3244 343 
Q 2819 -91 2113 -91 
Q 1303 -91 875 529 
Q 447 1150 447 2328 
Q 447 3434 972 4092 
Q 1497 4750 2381 4750 
Q 2619 4750 2861 4703 
Q 3103 4656 3366 4563 
z
" transform="scale(0.015625)"/>
       </defs>
       <use xlink:href="#DejaVuSans-36"/>
       <use xlink:href="#DejaVuSans-30" transform="translate(63.623047 0)"/>
       <use xlink:href="#DejaVuSans-30" transform="translate(127.246094 0)"/>
      </g>
     </g>
    </g>
    <g id="xtick_11">
     <g id="line2d_34">
      <path d="M 193.542772 184.608 
L 193.542772 93.365066 
" clip-path="url(#p77d7178a00)" style="fill: none; stroke: #b0b0b0; stroke-opacity: 0.25; stroke-width: 0.5; stroke-linecap: square"/>
     </g>
     <g id="line2d_35">
      <g>
       <use xlink:href="#m0edf243a6a" x="193.542772" y="184.608" style="stroke: #000000; stroke-width: 0.8"/>
      </g>
     </g>
     <g id="text_14">
      <!-- 800 -->
      <g transform="translate(185.907772 197.68675) scale(0.08 -0.08)">
       <defs>
        <path id="DejaVuSans-38" d="M 2034 2216 
Q 1584 2216 1326 1975 
Q 1069 1734 1069 1313 
Q 1069 891 1326 650 
Q 1584 409 2034 409 
Q 2484 409 2743 651 
Q 3003 894 3003 1313 
Q 3003 1734 2745 1975 
Q 2488 2216 2034 2216 
z
M 1403 2484 
Q 997 2584 770 2862 
Q 544 3141 544 3541 
Q 544 4100 942 4425 
Q 1341 4750 2034 4750 
Q 2731 4750 3128 4425 
Q 3525 4100 3525 3541 
Q 3525 3141 3298 2862 
Q 3072 2584 2669 2484 
Q 3125 2378 3379 2068 
Q 3634 1759 3634 1313 
Q 3634 634 3220 271 
Q 2806 -91 2034 -91 
Q 1263 -91 848 271 
Q 434 634 434 1313 
Q 434 1759 690 2068 
Q 947 2378 1403 2484 
z
M 1172 3481 
Q 1172 3119 1398 2916 
Q 1625 2713 2034 2713 
Q 2441 2713 2670 2916 
Q 2900 3119 2900 3481 
Q 2900 3844 2670 4047 
Q 2441 4250 2034 4250 
Q 1625 4250 1398 4047 
Q 1172 3844 1172 3481 
z
" transform="scale(0.015625)"/>
       </defs>
       <use xlink:href="#DejaVuSans-38"/>
       <use xlink:href="#DejaVuSans-30" transform="translate(63.623047 0)"/>
       <use xlink:href="#DejaVuSans-30" transform="translate(127.246094 0)"/>
      </g>
     </g>
    </g>
    <g id="xtick_12">
     <g id="line2d_36">
      <path d="M 228.473465 184.608 
L 228.473465 93.365066 
" clip-path="url(#p77d7178a00)" style="fill: none; stroke: #b0b0b0; stroke-opacity: 0.25; stroke-width: 0.5; stroke-linecap: square"/>
     </g>
     <g id="line2d_37">
      <g>
       <use xlink:href="#m0edf243a6a" x="228.473465" y="184.608" style="stroke: #000000; stroke-width: 0.8"/>
      </g>
     </g>
     <g id="text_15">
      <!-- 1000 -->
      <g transform="translate(218.293465 197.68675) scale(0.08 -0.08)">
       <use xlink:href="#DejaVuSans-31"/>
       <use xlink:href="#DejaVuSans-30" transform="translate(63.623047 0)"/>
       <use xlink:href="#DejaVuSans-30" transform="translate(127.246094 0)"/>
       <use xlink:href="#DejaVuSans-30" transform="translate(190.869141 0)"/>
      </g>
     </g>
    </g>
    <g id="text_16">
     <!-- training step -->
     <g transform="translate(113.423203 210.189094) scale(0.09 -0.09)">
      <defs>
       <path id="DejaVuSans-70" d="M 1159 525 
L 1159 -1331 
L 581 -1331 
L 581 3500 
L 1159 3500 
L 1159 2969 
Q 1341 3281 1617 3432 
Q 1894 3584 2278 3584 
Q 2916 3584 3314 3078 
Q 3713 2572 3713 1747 
Q 3713 922 3314 415 
Q 2916 -91 2278 -91 
Q 1894 -91 1617 61 
Q 1341 213 1159 525 
z
M 3116 1747 
Q 3116 2381 2855 2742 
Q 2594 3103 2138 3103 
Q 1681 3103 1420 2742 
Q 1159 2381 1159 1747 
Q 1159 1113 1420 752 
Q 1681 391 2138 391 
Q 2594 391 2855 752 
Q 3116 1113 3116 1747 
z
" transform="scale(0.015625)"/>
      </defs>
      <use xlink:href="#DejaVuSans-74"/>
      <use xlink:href="#DejaVuSans-72" transform="translate(39.208984 0)"/>
      <use xlink:href="#DejaVuSans-61" transform="translate(80.322266 0)"/>
      <use xlink:href="#DejaVuSans-69" transform="translate(141.601562 0)"/>
      <use xlink:href="#DejaVuSans-6e" transform="translate(169.384766 0)"/>
      <use xlink:href="#DejaVuSans-69" transform="translate(232.763672 0)"/>
      <use xlink:href="#DejaVuSans-6e" transform="translate(260.546875 0)"/>
      <use xlink:href="#DejaVuSans-67" transform="translate(323.925781 0)"/>
      <use xlink:href="#DejaVuSans-20" transform="translate(387.402344 0)"/>
      <use xlink:href="#DejaVuSans-73" transform="translate(419.189453 0)"/>
      <use xlink:href="#DejaVuSans-74" transform="translate(471.289062 0)"/>
      <use xlink:href="#DejaVuSans-65" transform="translate(510.498047 0)"/>
      <use xlink:href="#DejaVuSans-70" transform="translate(572.021484 0)"/>
     </g>
    </g>
   </g>
   <g id="matplotlib.axis_4">
    <g id="ytick_4">
     <g id="line2d_38">
      <path d="M 53.82 179.538948 
L 230.22 179.538948 
" clip-path="url(#p77d7178a00)" style="fill: none; stroke: #b0b0b0; stroke-opacity: 0.25; stroke-width: 0.5; stroke-linecap: square"/>
     </g>
     <g id="line2d_39">
      <g>
       <use xlink:href="#m781bb1dc1a" x="53.82" y="179.538948" style="stroke: #000000; stroke-width: 0.8"/>
      </g>
     </g>
     <g id="text_17">
      <!-- 100 -->
      <g transform="translate(31.55 182.578323) scale(0.08 -0.08)">
       <use xlink:href="#DejaVuSans-31"/>
       <use xlink:href="#DejaVuSans-30" transform="translate(63.623047 0)"/>
       <use xlink:href="#DejaVuSans-30" transform="translate(127.246094 0)"/>
      </g>
     </g>
    </g>
    <g id="ytick_5">
     <g id="line2d_40">
      <path d="M 53.82 154.193689 
L 230.22 154.193689 
" clip-path="url(#p77d7178a00)" style="fill: none; stroke: #b0b0b0; stroke-opacity: 0.25; stroke-width: 0.5; stroke-linecap: square"/>
     </g>
     <g id="line2d_41">
      <g>
       <use xlink:href="#m781bb1dc1a" x="53.82" y="154.193689" style="stroke: #000000; stroke-width: 0.8"/>
      </g>
     </g>
     <g id="text_18">
      <!-- 105 -->
      <g transform="translate(31.55 157.233064) scale(0.08 -0.08)">
       <use xlink:href="#DejaVuSans-31"/>
       <use xlink:href="#DejaVuSans-30" transform="translate(63.623047 0)"/>
       <use xlink:href="#DejaVuSans-35" transform="translate(127.246094 0)"/>
      </g>
     </g>
    </g>
    <g id="ytick_6">
     <g id="line2d_42">
      <path d="M 53.82 128.848429 
L 230.22 128.848429 
" clip-path="url(#p77d7178a00)" style="fill: none; stroke: #b0b0b0; stroke-opacity: 0.25; stroke-width: 0.5; stroke-linecap: square"/>
     </g>
     <g id="line2d_43">
      <g>
       <use xlink:href="#m781bb1dc1a" x="53.82" y="128.848429" style="stroke: #000000; stroke-width: 0.8"/>
      </g>
     </g>
     <g id="text_19">
      <!-- 110 -->
      <g transform="translate(31.55 131.887804) scale(0.08 -0.08)">
       <use xlink:href="#DejaVuSans-31"/>
       <use xlink:href="#DejaVuSans-31" transform="translate(63.623047 0)"/>
       <use xlink:href="#DejaVuSans-30" transform="translate(127.246094 0)"/>
      </g>
     </g>
    </g>
    <g id="ytick_7">
     <g id="line2d_44">
      <path d="M 53.82 103.50317 
L 230.22 103.50317 
" clip-path="url(#p77d7178a00)" style="fill: none; stroke: #b0b0b0; stroke-opacity: 0.25; stroke-width: 0.5; stroke-linecap: square"/>
     </g>
     <g id="line2d_45">
      <g>
       <use xlink:href="#m781bb1dc1a" x="53.82" y="103.50317" style="stroke: #000000; stroke-width: 0.8"/>
      </g>
     </g>
     <g id="text_20">
      <!-- 115 -->
      <g transform="translate(31.55 106.542545) scale(0.08 -0.08)">
       <use xlink:href="#DejaVuSans-31"/>
       <use xlink:href="#DejaVuSans-31" transform="translate(63.623047 0)"/>
       <use xlink:href="#DejaVuSans-35" transform="translate(127.246094 0)"/>
      </g>
     </g>
    </g>
   </g>
   <g id="line2d_46">
    <g>
     <use xlink:href="#m6e6bf194f1" x="53.82" y="93.365066" style="stroke: #000000"/>
     <use xlink:href="#m6e6bf194f1" x="230.22" y="93.365066" style="stroke: #000000"/>
    </g>
   </g>
   <g id="patch_7">
    <path d="M 53.82 184.608 
L 53.82 93.365066 
" style="fill: none; stroke: #000000; stroke-width: 0.8; stroke-linejoin: miter; stroke-linecap: square"/>
   </g>
   <g id="patch_8">
    <path d="M 230.22 184.608 
L 230.22 93.365066 
" style="fill: none; stroke: #000000; stroke-width: 0.8; stroke-linejoin: miter; stroke-linecap: square"/>
   </g>
   <g id="patch_9">
    <path d="M 53.82 184.608 
L 230.22 184.608 
" style="fill: none; stroke: #000000; stroke-width: 0.8; stroke-linejoin: miter; stroke-linecap: square"/>
   </g>
   <g id="line2d_47">
    <path d="M 72.224786 -1 
L 72.682574 16.187901 
L 74.254455 50.650588 
L 75.826337 75.511766 
L 77.398218 91.89622 
L 78.970099 105.122299 
L 80.54198 110.153072 
L 82.113861 122.936342 
L 83.685743 128.816681 
L 85.257624 134.240255 
L 86.829505 138.558044 
L 88.401386 142.873285 
L 89.973267 145.416742 
L 91.545149 147.705263 
L 93.11703 150.135518 
L 94.688911 151.683747 
L 96.260792 152.809688 
L 97.832673 154.472688 
L 99.404554 154.625852 
L 100.976436 155.886777 
L 102.548317 156.696044 
L 104.120198 156.641795 
L 105.692079 157.554086 
L 107.26396 158.485862 
L 108.835842 159.407312 
L 110.407723 160.47196 
L 111.979604 159.02706 
L 113.551485 158.682875 
L 115.123366 160.368815 
L 116.695248 160.939955 
L 118.267129 162.001845 
L 119.83901 162.750204 
L 121.410891 163.66937 
L 122.982772 164.012026 
L 124.554653 163.634069 
L 126.126535 163.836171 
L 127.698416 165.663718 
L 129.270297 165.579204 
L 130.842178 166.894935 
L 132.414059 166.688245 
L 133.985941 168.385144 
L 135.557822 168.477164 
L 137.129703 169.275596 
L 138.701584 169.876616 
L 140.273465 169.906948 
L 141.845347 170.976406 
L 143.417228 170.958565 
L 144.989109 171.458608 
L 146.56099 171.368664 
L 148.132871 171.764898 
L 149.704752 171.692415 
L 151.276634 171.808344 
L 152.848515 171.850679 
L 154.420396 172.132008 
L 155.992277 171.782284 
L 157.564158 172.387106 
L 159.13604 172.584191 
L 160.707921 172.446391 
L 162.279802 172.497548 
L 163.851683 172.573073 
L 165.423564 172.681791 
L 166.995446 172.839691 
L 168.567327 172.528793 
L 170.139208 172.675045 
L 171.711089 172.907815 
L 173.28297 172.745141 
L 174.854851 172.838841 
L 176.426733 172.757346 
L 177.998614 172.85293 
L 179.570495 172.894877 
L 181.142376 172.975801 
L 182.714257 172.919212 
L 184.286139 173.070782 
L 185.85802 172.792524 
L 187.429901 172.927698 
L 189.001782 173.024596 
L 190.573663 172.952698 
L 192.145545 172.915549 
L 193.717426 173.097369 
L 195.289307 173.084686 
L 196.861188 173.046933 
L 198.433069 173.199823 
L 200.00495 173.174995 
L 201.576832 173.155897 
L 203.148713 173.224179 
L 204.720594 173.16464 
L 206.292475 173.148136 
L 207.864356 173.110935 
L 209.436238 173.209505 
L 211.008119 173.131104 
L 212.58 173.250272 
L 214.151881 173.24659 
L 215.723762 173.207775 
L 217.295644 173.212561 
L 218.867525 173.25362 
L 220.439406 173.326273 
L 222.011287 173.308686 
L 223.583168 173.253244 
L 225.15505 173.330055 
L 226.726931 173.259216 
L 228.298812 173.291155 
L 229.870693 173.300249 
" clip-path="url(#p77d7178a00)" style="fill: none; stroke: #0072b2; stroke-width: 1.8; stroke-linecap: square"/>
    <g clip-path="url(#p77d7178a00)">
     <use xlink:href="#ma470c65d7e" x="74.713534" y="-1" style="fill: #0072b2; stroke: #ffffff; stroke-width: 0.4"/>
     <use xlink:href="#ma470c65d7e" x="77.398218" y="91.89622" style="fill: #0072b2; stroke: #ffffff; stroke-width: 0.4"/>
     <use xlink:href="#ma470c65d7e" x="99.404554" y="154.625852" style="fill: #0072b2; stroke: #ffffff; stroke-width: 0.4"/>
     <use xlink:href="#ma470c65d7e" x="121.410891" y="163.66937" style="fill: #0072b2; stroke: #ffffff; stroke-width: 0.4"/>
     <use xlink:href="#ma470c65d7e" x="143.417228" y="170.958565" style="fill: #0072b2; stroke: #ffffff; stroke-width: 0.4"/>
     <use xlink:href="#ma470c65d7e" x="165.423564" y="172.681791" style="fill: #0072b2; stroke: #ffffff; stroke-width: 0.4"/>
     <use xlink:href="#ma470c65d7e" x="187.429901" y="172.927698" style="fill: #0072b2; stroke: #ffffff; stroke-width: 0.4"/>
     <use xlink:href="#ma470c65d7e" x="209.436238" y="173.209505" style="fill: #0072b2; stroke: #ffffff; stroke-width: 0.4"/>
    </g>
   </g>
   <g id="line2d_48">
    <path d="M 78.224165 -1 
L 78.970099 3.651613 
L 80.54198 15.161239 
L 82.113861 23.942475 
L 83.685743 32.122601 
L 85.257624 43.781388 
L 86.829505 49.811461 
L 88.401386 60.257861 
L 89.973267 68.951814 
L 91.545149 77.323196 
L 93.11703 74.852479 
L 94.688911 82.98575 
L 96.260792 91.98816 
L 97.832673 103.94888 
L 99.404554 102.664527 
L 100.976436 110.795345 
L 102.548317 117.092421 
L 104.120198 119.675481 
L 105.692079 123.745307 
L 107.26396 123.313811 
L 108.835842 129.955965 
L 110.407723 135.988084 
L 111.979604 137.744354 
L 113.551485 146.654014 
L 115.123366 138.933963 
L 116.695248 143.332977 
L 118.267129 145.423669 
L 119.83901 146.525395 
L 121.410891 142.084715 
L 122.982772 141.416619 
L 124.554653 149.209945 
L 126.126535 148.721832 
L 127.698416 150.643116 
L 129.270297 151.799914 
L 130.842178 150.682717 
L 132.414059 151.457812 
L 133.985941 153.449033 
L 135.557822 153.219045 
L 137.129703 154.398619 
L 138.701584 153.770131 
L 140.273465 155.843276 
L 141.845347 155.552804 
L 143.417228 157.432751 
L 144.989109 156.229732 
L 146.56099 157.715717 
L 148.132871 157.296559 
L 149.704752 157.982857 
L 151.276634 157.532918 
L 152.848515 158.980474 
L 154.420396 159.428139 
L 155.992277 158.782199 
L 157.564158 159.011994 
L 159.13604 160.137277 
L 160.707921 159.819181 
L 162.279802 160.860215 
L 163.851683 160.533228 
L 165.423564 161.548733 
L 166.995446 161.406188 
L 168.567327 161.997186 
L 170.139208 162.181084 
L 171.711089 161.488693 
L 173.28297 158.051778 
L 174.854851 162.056557 
L 176.426733 159.269989 
L 177.998614 161.996617 
L 179.570495 161.370422 
L 181.142376 162.401708 
L 182.714257 162.940355 
L 184.286139 162.768903 
L 185.85802 164.161564 
L 187.429901 164.142921 
L 189.001782 163.045683 
L 190.573663 164.307161 
L 192.145545 164.738798 
L 193.717426 164.844877 
L 195.289307 164.558138 
L 196.861188 164.808187 
L 198.433069 165.375298 
L 200.00495 165.104672 
L 201.576832 165.869504 
L 203.148713 165.590773 
L 204.720594 165.964113 
L 206.292475 165.650931 
L 207.864356 166.307877 
L 209.436238 166.427553 
L 211.008119 166.599125 
L 212.58 166.675315 
L 214.151881 166.899768 
L 215.723762 167.063863 
L 217.295644 167.160351 
L 218.867525 167.294146 
L 220.439406 167.355683 
L 222.011287 167.646499 
L 223.583168 167.733308 
L 225.15505 167.873799 
L 226.726931 167.991104 
L 228.298812 168.270138 
L 229.870693 168.375844 
" clip-path="url(#p77d7178a00)" style="fill: none; stroke-dasharray: 5.4,1.8,1.8,1.8; stroke-dashoffset: 0; stroke: #000000; stroke-width: 1.8"/>
    <g clip-path="url(#p77d7178a00)">
     <use xlink:href="#me46bc880e4" x="78.439849" y="-1" style="stroke: #ffffff; stroke-width: 0.4; stroke-linejoin: miter"/>
     <use xlink:href="#me46bc880e4" x="99.404554" y="102.664527" style="stroke: #ffffff; stroke-width: 0.4; stroke-linejoin: miter"/>
     <use xlink:href="#me46bc880e4" x="121.410891" y="142.084715" style="stroke: #ffffff; stroke-width: 0.4; stroke-linejoin: miter"/>
     <use xlink:href="#me46bc880e4" x="143.417228" y="157.432751" style="stroke: #ffffff; stroke-width: 0.4; stroke-linejoin: miter"/>
     <use xlink:href="#me46bc880e4" x="165.423564" y="161.548733" style="stroke: #ffffff; stroke-width: 0.4; stroke-linejoin: miter"/>
     <use xlink:href="#me46bc880e4" x="187.429901" y="164.142921" style="stroke: #ffffff; stroke-width: 0.4; stroke-linejoin: miter"/>
     <use xlink:href="#me46bc880e4" x="209.436238" y="166.427553" style="stroke: #ffffff; stroke-width: 0.4; stroke-linejoin: miter"/>
    </g>
   </g>
   <g id="line2d_49">
    <path d="M 73.676492 -1 
L 74.254455 7.142649 
L 75.826337 23.872354 
L 77.398218 35.05783 
L 78.970099 41.334032 
L 80.54198 47.089476 
L 82.113861 54.025593 
L 83.685743 65.768587 
L 85.257624 81.484977 
L 86.829505 98.952123 
L 88.401386 112.869767 
L 89.973267 119.39101 
L 91.545149 122.816674 
L 93.11703 125.522506 
L 94.688911 127.252317 
L 96.260792 128.597996 
L 97.832673 129.421077 
L 99.404554 129.803787 
L 100.976436 130.01851 
L 102.548317 130.197817 
L 104.120198 130.335711 
L 105.692079 130.599844 
L 107.26396 130.774738 
L 108.835842 130.818747 
L 110.407723 130.658256 
L 111.979604 130.93846 
L 113.551485 130.991793 
L 115.123366 131.778478 
L 116.695248 132.811625 
L 118.267129 134.704811 
L 119.83901 137.370691 
L 121.410891 140.517793 
L 122.982772 143.873508 
L 124.554653 146.876688 
L 126.126535 148.743383 
L 127.698416 149.841906 
L 129.270297 150.602469 
L 130.842178 151.162515 
L 132.414059 151.57543 
L 133.985941 151.998201 
L 135.557822 152.277864 
L 137.129703 152.512145 
L 138.701584 152.794813 
L 140.273465 152.950917 
L 141.845347 153.039961 
L 143.417228 153.186122 
L 144.989109 153.235246 
L 146.56099 153.203406 
L 148.132871 153.305119 
L 149.704752 153.372935 
L 151.276634 153.469506 
L 152.848515 153.499311 
L 154.420396 153.457385 
L 155.992277 153.531308 
L 157.564158 153.482983 
L 159.13604 153.524494 
L 160.707921 153.536255 
L 162.279802 153.566305 
L 163.851683 153.43009 
L 165.423564 153.456233 
L 166.995446 153.561039 
L 168.567327 153.577082 
L 170.139208 153.493298 
L 171.711089 153.542041 
L 173.28297 153.564948 
L 174.854851 153.574998 
L 176.426733 153.570359 
L 177.998614 153.48422 
L 179.570495 153.606251 
L 181.142376 153.564619 
L 182.714257 153.539071 
L 184.286139 153.487078 
L 185.85802 153.60176 
L 187.429901 153.513115 
L 189.001782 153.594973 
L 190.573663 153.607229 
L 192.145545 153.508089 
L 193.717426 153.576476 
L 195.289307 153.543428 
L 196.861188 153.595703 
L 198.433069 153.641475 
L 200.00495 153.570855 
L 201.576832 153.585409 
L 203.148713 153.599488 
L 204.720594 153.626939 
L 206.292475 153.587859 
L 207.864356 153.564577 
L 209.436238 153.601812 
L 211.008119 153.564695 
L 212.58 153.640881 
L 214.151881 153.575975 
L 215.723762 153.636739 
L 217.295644 153.608229 
L 218.867525 153.605618 
L 220.439406 153.617474 
L 222.011287 153.607293 
L 223.583168 153.607646 
L 225.15505 153.648931 
L 226.726931 153.617814 
L 228.298812 153.630236 
L 229.870693 153.612377 
" clip-path="url(#p77d7178a00)" style="fill: none; stroke-dasharray: 9,3.6; stroke-dashoffset: 0; stroke: #009e73; stroke-width: 1.8"/>
    <g clip-path="url(#p77d7178a00)">
     <use xlink:href="#m0ef39dbfee" x="75.533893" y="-1" style="fill: #009e73; stroke: #ffffff; stroke-width: 0.4; stroke-linejoin: miter"/>
     <use xlink:href="#m0ef39dbfee" x="77.398218" y="35.05783" style="fill: #009e73; stroke: #ffffff; stroke-width: 0.4; stroke-linejoin: miter"/>
     <use xlink:href="#m0ef39dbfee" x="99.404554" y="129.803787" style="fill: #009e73; stroke: #ffffff; stroke-width: 0.4; stroke-linejoin: miter"/>
     <use xlink:href="#m0ef39dbfee" x="121.410891" y="140.517793" style="fill: #009e73; stroke: #ffffff; stroke-width: 0.4; stroke-linejoin: miter"/>
     <use xlink:href="#m0ef39dbfee" x="143.417228" y="153.186122" style="fill: #009e73; stroke: #ffffff; stroke-width: 0.4; stroke-linejoin: miter"/>
     <use xlink:href="#m0ef39dbfee" x="165.423564" y="153.456233" style="fill: #009e73; stroke: #ffffff; stroke-width: 0.4; stroke-linejoin: miter"/>
     <use xlink:href="#m0ef39dbfee" x="187.429901" y="153.513115" style="fill: #009e73; stroke: #ffffff; stroke-width: 0.4; stroke-linejoin: miter"/>
     <use xlink:href="#m0ef39dbfee" x="209.436238" y="153.601812" style="fill: #009e73; stroke: #ffffff; stroke-width: 0.4; stroke-linejoin: miter"/>
    </g>
   </g>
   <g id="line2d_50">
    <path d="M 72.991534 -1 
L 74.254455 21.270143 
L 75.826337 37.735393 
L 77.398218 58.703315 
L 78.970099 75.882953 
L 80.54198 87.778829 
L 82.113861 98.041444 
L 83.685743 110.482783 
L 85.257624 121.600978 
L 86.829505 127.149494 
L 88.401386 131.221376 
L 89.973267 134.650331 
L 91.545149 137.608628 
L 93.11703 139.617297 
L 94.688911 140.942619 
L 96.260792 141.528881 
L 97.832673 142.16007 
L 99.404554 142.564972 
L 100.976436 143.023807 
L 102.548317 143.559428 
L 104.120198 143.854313 
L 105.692079 143.954418 
L 107.26396 144.054753 
L 108.835842 143.915461 
L 110.407723 144.141137 
L 111.979604 143.796656 
L 113.551485 143.942479 
L 115.123366 144.069018 
L 116.695248 144.036143 
L 118.267129 144.09953 
L 119.83901 144.216373 
L 121.410891 143.90736 
L 122.982772 144.081648 
L 124.554653 144.09741 
L 126.126535 144.099341 
L 127.698416 144.142355 
L 129.270297 144.026989 
L 130.842178 144.169929 
L 132.414059 144.28586 
L 133.985941 144.206967 
L 135.557822 144.178055 
L 137.129703 144.255145 
L 138.701584 144.193588 
L 140.273465 144.212262 
L 141.845347 144.268783 
L 143.417228 144.239608 
L 144.989109 144.020549 
L 146.56099 144.273203 
L 148.132871 144.089904 
L 149.704752 144.107865 
L 151.276634 144.125943 
L 152.848515 144.192975 
L 154.420396 144.273867 
L 155.992277 144.195317 
L 157.564158 143.985631 
L 159.13604 144.257945 
L 160.707921 144.197269 
L 162.279802 144.224793 
L 163.851683 144.30215 
L 165.423564 144.289271 
L 166.995446 144.238646 
L 168.567327 144.347688 
L 170.139208 144.280076 
L 171.711089 144.316646 
L 173.28297 144.27575 
L 174.854851 144.261114 
L 176.426733 144.373828 
L 177.998614 144.305752 
L 179.570495 144.362345 
L 181.142376 144.269698 
L 182.714257 144.324555 
L 184.286139 144.25111 
L 185.85802 144.342585 
L 187.429901 144.32539 
L 189.001782 144.272527 
L 190.573663 144.388894 
L 192.145545 144.318872 
L 193.717426 144.338793 
L 195.289307 144.357931 
L 196.861188 144.368809 
L 198.433069 144.342501 
L 200.00495 144.374525 
L 201.576832 144.361652 
L 203.148713 144.369941 
L 204.720594 144.365538 
L 206.292475 144.37473 
L 207.864356 144.369186 
L 209.436238 144.377878 
L 211.008119 144.389673 
L 212.58 144.340934 
L 214.151881 144.349134 
L 215.723762 144.392077 
L 217.295644 144.398348 
L 218.867525 144.407514 
L 220.439406 144.409416 
L 222.011287 144.396308 
L 223.583168 144.370896 
L 225.15505 144.401229 
L 226.726931 144.404353 
L 228.298812 144.409708 
L 229.870693 144.387666 
" clip-path="url(#p77d7178a00)" style="fill: none; stroke-dasharray: 1.8,1.8; stroke-dashoffset: 0; stroke: #56b4e9; stroke-width: 1.8"/>
    <g clip-path="url(#p77d7178a00)">
     <use xlink:href="#mfd28afb80c" x="74.455535" y="-1" style="fill: #56b4e9; stroke: #ffffff; stroke-width: 0.4; stroke-linejoin: miter"/>
     <use xlink:href="#mfd28afb80c" x="77.398218" y="58.703315" style="fill: #56b4e9; stroke: #ffffff; stroke-width: 0.4; stroke-linejoin: miter"/>
     <use xlink:href="#mfd28afb80c" x="99.404554" y="142.564972" style="fill: #56b4e9; stroke: #ffffff; stroke-width: 0.4; stroke-linejoin: miter"/>
     <use xlink:href="#mfd28afb80c" x="121.410891" y="143.90736" style="fill: #56b4e9; stroke: #ffffff; stroke-width: 0.4; stroke-linejoin: miter"/>
     <use xlink:href="#mfd28afb80c" x="143.417228" y="144.239608" style="fill: #56b4e9; stroke: #ffffff; stroke-width: 0.4; stroke-linejoin: miter"/>
     <use xlink:href="#mfd28afb80c" x="165.423564" y="144.289271" style="fill: #56b4e9; stroke: #ffffff; stroke-width: 0.4; stroke-linejoin: miter"/>
     <use xlink:href="#mfd28afb80c" x="187.429901" y="144.32539" style="fill: #56b4e9; stroke: #ffffff; stroke-width: 0.4; stroke-linejoin: miter"/>
     <use xlink:href="#mfd28afb80c" x="209.436238" y="144.377878" style="fill: #56b4e9; stroke: #ffffff; stroke-width: 0.4; stroke-linejoin: miter"/>
    </g>
   </g>
   <g id="line2d_51">
    <path clip-path="url(#p77d7178a00)" style="fill: none; stroke-dasharray: 9,3.6; stroke-dashoffset: 0; stroke: #e69f00; stroke-width: 1.8"/>
    <g clip-path="url(#p77d7178a00)"/>
   </g>
   <g id="line2d_52">
    <path clip-path="url(#p77d7178a00)" style="fill: none; stroke-dasharray: 1.8,1.8; stroke-dashoffset: 0; stroke: #d55e00; stroke-width: 1.8"/>
    <g clip-path="url(#p77d7178a00)"/>
   </g>
  </g>
  <g id="text_21">
   <!-- validation MSE -->
   <g transform="translate(14.038594 116.400516) rotate(-90) scale(0.09 -0.09)">
    <defs>
     <path id="DejaVuSans-76" d="M 191 3500 
L 800 3500 
L 1894 563 
L 2988 3500 
L 3597 3500 
L 2284 0 
L 1503 0 
L 191 3500 
z
" transform="scale(0.015625)"/>
     <path id="DejaVuSans-6f" d="M 1959 3097 
Q 1497 3097 1228 2736 
Q 959 2375 959 1747 
Q 959 1119 1226 758 
Q 1494 397 1959 397 
Q 2419 397 2687 759 
Q 2956 1122 2956 1747 
Q 2956 2369 2687 2733 
Q 2419 3097 1959 3097 
z
M 1959 3584 
Q 2709 3584 3137 3096 
Q 3566 2609 3566 1747 
Q 3566 888 3137 398 
Q 2709 -91 1959 -91 
Q 1206 -91 779 398 
Q 353 888 353 1747 
Q 353 2609 779 3096 
Q 1206 3584 1959 3584 
z
" transform="scale(0.015625)"/>
     <path id="DejaVuSans-53" d="M 3425 4513 
L 3425 3897 
Q 3066 4069 2747 4153 
Q 2428 4238 2131 4238 
Q 1616 4238 1336 4038 
Q 1056 3838 1056 3469 
Q 1056 3159 1242 3001 
Q 1428 2844 1947 2747 
L 2328 2669 
Q 3034 2534 3370 2195 
Q 3706 1856 3706 1288 
Q 3706 609 3251 259 
Q 2797 -91 1919 -91 
Q 1588 -91 1214 -16 
Q 841 59 441 206 
L 441 856 
Q 825 641 1194 531 
Q 1563 422 1919 422 
Q 2459 422 2753 634 
Q 3047 847 3047 1241 
Q 3047 1584 2836 1778 
Q 2625 1972 2144 2069 
L 1759 2144 
Q 1053 2284 737 2584 
Q 422 2884 422 3419 
Q 422 4038 858 4394 
Q 1294 4750 2059 4750 
Q 2388 4750 2728 4690 
Q 3069 4631 3425 4513 
z
" transform="scale(0.015625)"/>
    </defs>
    <use xlink:href="#DejaVuSans-76"/>
    <use xlink:href="#DejaVuSans-61" transform="translate(59.179688 0)"/>
    <use xlink:href="#DejaVuSans-6c" transform="translate(120.458984 0)"/>
    <use xlink:href="#DejaVuSans-69" transform="translate(148.242188 0)"/>
    <use xlink:href="#DejaVuSans-64" transform="translate(176.025391 0)"/>
    <use xlink:href="#DejaVuSans-61" transform="translate(239.501953 0)"/>
    <use xlink:href="#DejaVuSans-74" transform="translate(300.78125 0)"/>
    <use xlink:href="#DejaVuSans-69" transform="translate(339.990234 0)"/>
    <use xlink:href="#DejaVuSans-6f" transform="translate(367.773438 0)"/>
    <use xlink:href="#DejaVuSans-6e" transform="translate(428.955078 0)"/>
    <use xlink:href="#DejaVuSans-20" transform="translate(492.333984 0)"/>
    <use xlink:href="#DejaVuSans-4d" transform="translate(524.121094 0)"/>
    <use xlink:href="#DejaVuSans-53" transform="translate(610.400391 0)"/>
    <use xlink:href="#DejaVuSans-45" transform="translate(673.876953 0)"/>
   </g>
  </g>
 </g>
 <defs>
  <clipPath id="p6f32466483">
   <rect x="53.82" y="7.2" width="176.4" height="79.341682"/>
  </clipPath>
  <clipPath id="p77d7178a00">
   <rect x="53.82" y="93.365066" width="176.4" height="91.242934"/>
  </clipPath>
 </defs>
</svg>
