<?xml version="1.0" encoding="utf-8" standalone="no"?>
<!DOCTYPE svg PUBLIC "-//W3C//DTD SVG 1.1//EN"
  "http://www.w3.org/Graphics/SVG/1.1/DTD/svg11.dtd">
<svg xmlns:xlink="http://www.w3.org/1999/xlink" width="566.21pt" height="328.061187pt" viewBox="0 0 566.21 328.061187" xmlns="http://www.w3.org/2000/svg" version="1.1">
 <metadata>
  <rdf:RDF xmlns:dc="http://purl.org/dc/elements/1.1/" xmlns:cc="http://creativecommons.org/ns#" xmlns:rdf="http://www.w3.org/1999/02/22-rdf-syntax-ns#">
   <cc:Work>
    <dc:type rdf:resource="http://purl.org/dc/dcmitype/StillImage"/>
    <dc:date>2026-05-12T10:57:44.306205</dc:date>
    <dc:format>image/svg+xml</dc:format>
    <dc:creator>
     <cc:Agent>
      <dc:title>Matplotlib v3.10.9, https://matplotlib.org/</dc:title>
     </cc:Agent>
    </dc:creator>
   </cc:Work>
  </rdf:RDF>
 </metadata>
 <defs>
  <style type="text/css">*{stroke-linejoin: round; stroke-linecap: butt}</style>
 </defs>
 <g id="figure_1">
  <g id="patch_1">
   <path d="M 0 328.061187 
L 566.21 328.061187 
L 566.21 0 
L 0 0 
z
" style="fill: #ffffff"/>
  </g>
  <g id="axes_1">
   <g id="patch_2">
    <path d="M 34.85 295.344 
L 559.01 295.344 
L 559.01 7.2 
L 34.85 7.2 
z
" style="fill: #ffffff"/>
   </g>
   <g id="matplotlib.axis_1">
    <g id="xtick_1">
     <g id="line2d_1">
      <path d="M 54.38258 295.344 
L 54.38258 7.2 
" clip-path="url(#p31d3fbfd9e)" style="fill: none; stroke: #999999; stroke-opacity: 0.3; stroke-width: 0.5; stroke-linecap: square"/>
     </g>
     <g id="line2d_2">
      <defs>
       <path id="m21100716a6" d="M 0 0 
L 0 3.5 
" style="stroke: #000000; stroke-width: 0.8"/>
      </defs>
      <g>
       <use xlink:href="#m21100716a6" x="54.38258" y="295.344" style="stroke: #000000; stroke-width: 0.8"/>
      </g>
     </g>
     <g id="text_1">
      <!-- 0 -->
      <g transform="translate(52.155705 307.662906) scale(0.07 -0.07)">
       <defs>
        <path id="DejaVuSans-30" d="M 2034 4250 
Q 1547 4250 1301 3770 
Q 1056 3291 1056 2328 
Q 1056 1369 1301 889 
Q 1547 409 2034 409 
Q 2525 409 2770 889 
Q 3016 1369 3016 2328 
Q 3016 3291 2770 3770 
Q 2525 4250 2034 4250 
z
M 2034 4750 
Q 2819 4750 3233 4129 
Q 3647 3509 3647 2328 
Q 3647 1150 3233 529 
Q 2819 -91 2034 -91 
Q 1250 -91 836 529 
Q 422 1150 422 2328 
Q 422 3509 836 4129 
Q 1250 4750 2034 4750 
z
" transform="scale(0.015625)"/>
       </defs>
       <use xlink:href="#DejaVuSans-30"/>
      </g>
     </g>
    </g>
    <g id="xtick_2">
     <g id="line2d_3">
      <path d="M 149.779795 295.344 
L 149.779795 7.2 
" clip-path="url(#p31d3fbfd9e)" style="fill: none; stroke: #999999; stroke-opacity: 0.3; stroke-width: 0.5; stroke-linecap: square"/>
     </g>
     <g id="line2d_4">
      <g>
       <use xlink:href="#m21100716a6" x="149.779795" y="295.344" style="stroke: #000000; stroke-width: 0.8"/>
      </g>
     </g>
     <g id="text_2">
      <!-- 200 -->
      <g transform="translate(143.09917 307.662906) scale(0.07 -0.07)">
       <defs>
        <path id="DejaVuSans-32" d="M 1228 531 
L 3431 531 
L 3431 0 
L 469 0 
L 469 531 
Q 828 903 1448 1529 
Q 2069 2156 2228 2338 
Q 2531 2678 2651 2914 
Q 2772 3150 2772 3378 
Q 2772 3750 2511 3984 
Q 2250 4219 1831 4219 
Q 1534 4219 1204 4116 
Q 875 4013 500 3803 
L 500 4441 
Q 881 4594 1212 4672 
Q 1544 4750 1819 4750 
Q 2544 4750 2975 4387 
Q 3406 4025 3406 3419 
Q 3406 3131 3298 2873 
Q 3191 2616 2906 2266 
Q 2828 2175 2409 1742 
Q 1991 1309 1228 531 
z
" transform="scale(0.015625)"/>
       </defs>
       <use xlink:href="#DejaVuSans-32"/>
       <use xlink:href="#DejaVuSans-30" transform="translate(63.623047 0)"/>
       <use xlink:href="#DejaVuSans-30" transform="translate(127.246094 0)"/>
      </g>
     </g>
    </g>
    <g id="xtick_3">
     <g id="line2d_5">
      <path d="M 245.177011 295.344 
L 245.177011 7.2 
" clip-path="url(#p31d3fbfd9e)" style="fill: none; stroke: #999999; stroke-opacity: 0.3; stroke-width: 0.5; stroke-linecap: square"/>
     </g>
     <g id="line2d_6">
      <g>
       <use xlink:href="#m21100716a6" x="245.177011" y="295.344" style="stroke: #000000; stroke-width: 0.8"/>
      </g>
     </g>
     <g id="text_3">
      <!-- 400 -->
      <g transform="translate(238.496386 307.662906) scale(0.07 -0.07)">
       <defs>
        <path id="DejaVuSans-34" d="M 2419 4116 
L 825 1625 
L 2419 1625 
L 2419 4116 
z
M 2253 4666 
L 3047 4666 
L 3047 1625 
L 3713 1625 
L 3713 1100 
L 3047 1100 
L 3047 0 
L 2419 0 
L 2419 1100 
L 313 1100 
L 313 1709 
L 2253 4666 
z
" transform="scale(0.015625)"/>
       </defs>
       <use xlink:href="#DejaVuSans-34"/>
       <use xlink:href="#DejaVuSans-30" transform="translate(63.623047 0)"/>
       <use xlink:href="#DejaVuSans-30" transform="translate(127.246094 0)"/>
      </g>
     </g>
    </g>
    <g id="xtick_4">
     <g id="line2d_7">
      <path d="M 340.574226 295.344 
L 340.574226 7.2 
" clip-path="url(#p31d3fbfd9e)" style="fill: none; stroke: #999999; stroke-opacity: 0.3; stroke-width: 0.5; stroke-linecap: square"/>
     </g>
     <g id="line2d_8">
      <g>
       <use xlink:href="#m21100716a6" x="340.574226" y="295.344" style="stroke: #000000; stroke-width: 0.8"/>
      </g>
     </g>
     <g id="text_4">
      <!-- 600 -->
      <g transform="translate(333.893601 307.662906) scale(0.07 -0.07)">
       <defs>
        <path id="DejaVuSans-36" d="M 2113 2584 
Q 1688 2584 1439 2293 
Q 1191 2003 1191 1497 
Q 1191 994 1439 701 
Q 1688 409 2113 409 
Q 2538 409 2786 701 
Q 3034 994 3034 1497 
Q 3034 2003 2786 2293 
Q 2538 2584 2113 2584 
z
M 3366 4563 
L 3366 3988 
Q 3128 4100 2886 4159 
Q 2644 4219 2406 4219 
Q 1781 4219 1451 3797 
Q 1122 3375 1075 2522 
Q 1259 2794 1537 2939 
Q 1816 3084 2150 3084 
Q 2853 3084 3261 2657 
Q 3669 2231 3669 1497 
Q 3669 778 3244 343 
Q 2819 -91 2113 -91 
Q 1303 -91 875 529 
Q 447 1150 447 2328 
Q 447 3434 972 4092 
Q 1497 4750 2381 4750 
Q 2619 4750 2861 4703 
Q 3103 4656 3366 4563 
z
" transform="scale(0.015625)"/>
       </defs>
       <use xlink:href="#DejaVuSans-36"/>
       <use xlink:href="#DejaVuSans-30" transform="translate(63.623047 0)"/>
       <use xlink:href="#DejaVuSans-30" transform="translate(127.246094 0)"/>
      </g>
     </g>
    </g>
    <g id="xtick_5">
     <g id="line2d_9">
      <path d="M 435.971441 295.344 
L 435.971441 7.2 
" clip-path="url(#p31d3fbfd9e)" style="fill: none; stroke: #999999; stroke-opacity: 0.3; stroke-width: 0.5; stroke-linecap: square"/>
     </g>
     <g id="line2d_10">
      <g>
       <use xlink:href="#m21100716a6" x="435.971441" y="295.344" style="stroke: #000000; stroke-width: 0.8"/>
      </g>
     </g>
     <g id="text_5">
      <!-- 800 -->
      <g transform="translate(429.290816 307.662906) scale(0.07 -0.07)">
       <defs>
        <path id="DejaVuSans-38" d="M 2034 2216 
Q 1584 2216 1326 1975 
Q 1069 1734 1069 1313 
Q 1069 891 1326 650 
Q 1584 409 2034 409 
Q 2484 409 2743 651 
Q 3003 894 3003 1313 
Q 3003 1734 2745 1975 
Q 2488 2216 2034 2216 
z
M 1403 2484 
Q 997 2584 770 2862 
Q 544 3141 544 3541 
Q 544 4100 942 4425 
Q 1341 4750 2034 4750 
Q 2731 4750 3128 4425 
Q 3525 4100 3525 3541 
Q 3525 3141 3298 2862 
Q 3072 2584 2669 2484 
Q 3125 2378 3379 2068 
Q 3634 1759 3634 1313 
Q 3634 634 3220 271 
Q 2806 -91 2034 -91 
Q 1263 -91 848 271 
Q 434 634 434 1313 
Q 434 1759 690 2068 
Q 947 2378 1403 2484 
z
M 1172 3481 
Q 1172 3119 1398 2916 
Q 1625 2713 2034 2713 
Q 2441 2713 2670 2916 
Q 2900 3119 2900 3481 
Q 2900 3844 2670 4047 
Q 2441 4250 2034 4250 
Q 1625 4250 1398 4047 
Q 1172 3844 1172 3481 
z
" transform="scale(0.015625)"/>
       </defs>
       <use xlink:href="#DejaVuSans-38"/>
       <use xlink:href="#DejaVuSans-30" transform="translate(63.623047 0)"/>
       <use xlink:href="#DejaVuSans-30" transform="translate(127.246094 0)"/>
      </g>
     </g>
    </g>
    <g id="xtick_6">
     <g id="line2d_11">
      <path d="M 531.368657 295.344 
L 531.368657 7.2 
" clip-path="url(#p31d3fbfd9e)" style="fill: none; stroke: #999999; stroke-opacity: 0.3; stroke-width: 0.5; stroke-linecap: square"/>
     </g>
     <g id="line2d_12">
      <g>
       <use xlink:href="#m21100716a6" x="531.368657" y="295.344" style="stroke: #000000; stroke-width: 0.8"/>
      </g>
     </g>
     <g id="text_6">
      <!-- 1000 -->
      <g transform="translate(522.461157 307.662906) scale(0.07 -0.07)">
       <defs>
        <path id="DejaVuSans-31" d="M 794 531 
L 1825 531 
L 1825 4091 
L 703 3866 
L 703 4441 
L 1819 4666 
L 2450 4666 
L 2450 531 
L 3481 531 
L 3481 0 
L 794 0 
L 794 531 
z
" transform="scale(0.015625)"/>
       </defs>
       <use xlink:href="#DejaVuSans-31"/>
       <use xlink:href="#DejaVuSans-30" transform="translate(63.623047 0)"/>
       <use xlink:href="#DejaVuSans-30" transform="translate(127.246094 0)"/>
       <use xlink:href="#DejaVuSans-30" transform="translate(190.869141 0)"/>
      </g>
     </g>
    </g>
    <g id="xtick_7">
     <g id="line2d_13">
      <path d="M 78.231884 295.344 
L 78.231884 7.2 
" clip-path="url(#p31d3fbfd9e)" style="fill: none; stroke: #bbbbbb; stroke-opacity: 0.15; stroke-width: 0.3; stroke-linecap: square"/>
     </g>
     <g id="line2d_14">
      <defs>
       <path id="m4746217b73" d="M 0 0 
L 0 2 
" style="stroke: #000000; stroke-width: 0.6"/>
      </defs>
      <g>
       <use xlink:href="#m4746217b73" x="78.231884" y="295.344" style="stroke: #000000; stroke-width: 0.6"/>
      </g>
     </g>
    </g>
    <g id="xtick_8">
     <g id="line2d_15">
      <path d="M 102.081188 295.344 
L 102.081188 7.2 
" clip-path="url(#p31d3fbfd9e)" style="fill: none; stroke: #bbbbbb; stroke-opacity: 0.15; stroke-width: 0.3; stroke-linecap: square"/>
     </g>
     <g id="line2d_16">
      <g>
       <use xlink:href="#m4746217b73" x="102.081188" y="295.344" style="stroke: #000000; stroke-width: 0.6"/>
      </g>
     </g>
    </g>
    <g id="xtick_9">
     <g id="line2d_17">
      <path d="M 125.930491 295.344 
L 125.930491 7.2 
" clip-path="url(#p31d3fbfd9e)" style="fill: none; stroke: #bbbbbb; stroke-opacity: 0.15; stroke-width: 0.3; stroke-linecap: square"/>
     </g>
     <g id="line2d_18">
      <g>
       <use xlink:href="#m4746217b73" x="125.930491" y="295.344" style="stroke: #000000; stroke-width: 0.6"/>
      </g>
     </g>
    </g>
    <g id="xtick_10">
     <g id="line2d_19">
      <path d="M 173.629099 295.344 
L 173.629099 7.2 
" clip-path="url(#p31d3fbfd9e)" style="fill: none; stroke: #bbbbbb; stroke-opacity: 0.15; stroke-width: 0.3; stroke-linecap: square"/>
     </g>
     <g id="line2d_20">
      <g>
       <use xlink:href="#m4746217b73" x="173.629099" y="295.344" style="stroke: #000000; stroke-width: 0.6"/>
      </g>
     </g>
    </g>
    <g id="xtick_11">
     <g id="line2d_21">
      <path d="M 197.478403 295.344 
L 197.478403 7.2 
" clip-path="url(#p31d3fbfd9e)" style="fill: none; stroke: #bbbbbb; stroke-opacity: 0.15; stroke-width: 0.3; stroke-linecap: square"/>
     </g>
     <g id="line2d_22">
      <g>
       <use xlink:href="#m4746217b73" x="197.478403" y="295.344" style="stroke: #000000; stroke-width: 0.6"/>
      </g>
     </g>
    </g>
    <g id="xtick_12">
     <g id="line2d_23">
      <path d="M 221.327707 295.344 
L 221.327707 7.2 
" clip-path="url(#p31d3fbfd9e)" style="fill: none; stroke: #bbbbbb; stroke-opacity: 0.15; stroke-width: 0.3; stroke-linecap: square"/>
     </g>
     <g id="line2d_24">
      <g>
       <use xlink:href="#m4746217b73" x="221.327707" y="295.344" style="stroke: #000000; stroke-width: 0.6"/>
      </g>
     </g>
    </g>
    <g id="xtick_13">
     <g id="line2d_25">
      <path d="M 269.026314 295.344 
L 269.026314 7.2 
" clip-path="url(#p31d3fbfd9e)" style="fill: none; stroke: #bbbbbb; stroke-opacity: 0.15; stroke-width: 0.3; stroke-linecap: square"/>
     </g>
     <g id="line2d_26">
      <g>
       <use xlink:href="#m4746217b73" x="269.026314" y="295.344" style="stroke: #000000; stroke-width: 0.6"/>
      </g>
     </g>
    </g>
    <g id="xtick_14">
     <g id="line2d_27">
      <path d="M 292.875618 295.344 
L 292.875618 7.2 
" clip-path="url(#p31d3fbfd9e)" style="fill: none; stroke: #bbbbbb; stroke-opacity: 0.15; stroke-width: 0.3; stroke-linecap: square"/>
     </g>
     <g id="line2d_28">
      <g>
       <use xlink:href="#m4746217b73" x="292.875618" y="295.344" style="stroke: #000000; stroke-width: 0.6"/>
      </g>
     </g>
    </g>
    <g id="xtick_15">
     <g id="line2d_29">
      <path d="M 316.724922 295.344 
L 316.724922 7.2 
" clip-path="url(#p31d3fbfd9e)" style="fill: none; stroke: #bbbbbb; stroke-opacity: 0.15; stroke-width: 0.3; stroke-linecap: square"/>
     </g>
     <g id="line2d_30">
      <g>
       <use xlink:href="#m4746217b73" x="316.724922" y="295.344" style="stroke: #000000; stroke-width: 0.6"/>
      </g>
     </g>
    </g>
    <g id="xtick_16">
     <g id="line2d_31">
      <path d="M 364.42353 295.344 
L 364.42353 7.2 
" clip-path="url(#p31d3fbfd9e)" style="fill: none; stroke: #bbbbbb; stroke-opacity: 0.15; stroke-width: 0.3; stroke-linecap: square"/>
     </g>
     <g id="line2d_32">
      <g>
       <use xlink:href="#m4746217b73" x="364.42353" y="295.344" style="stroke: #000000; stroke-width: 0.6"/>
      </g>
     </g>
    </g>
    <g id="xtick_17">
     <g id="line2d_33">
      <path d="M 388.272834 295.344 
L 388.272834 7.2 
" clip-path="url(#p31d3fbfd9e)" style="fill: none; stroke: #bbbbbb; stroke-opacity: 0.15; stroke-width: 0.3; stroke-linecap: square"/>
     </g>
     <g id="line2d_34">
      <g>
       <use xlink:href="#m4746217b73" x="388.272834" y="295.344" style="stroke: #000000; stroke-width: 0.6"/>
      </g>
     </g>
    </g>
    <g id="xtick_18">
     <g id="line2d_35">
      <path d="M 412.122138 295.344 
L 412.122138 7.2 
" clip-path="url(#p31d3fbfd9e)" style="fill: none; stroke: #bbbbbb; stroke-opacity: 0.15; stroke-width: 0.3; stroke-linecap: square"/>
     </g>
     <g id="line2d_36">
      <g>
       <use xlink:href="#m4746217b73" x="412.122138" y="295.344" style="stroke: #000000; stroke-width: 0.6"/>
      </g>
     </g>
    </g>
    <g id="xtick_19">
     <g id="line2d_37">
      <path d="M 459.820745 295.344 
L 459.820745 7.2 
" clip-path="url(#p31d3fbfd9e)" style="fill: none; stroke: #bbbbbb; stroke-opacity: 0.15; stroke-width: 0.3; stroke-linecap: square"/>
     </g>
     <g id="line2d_38">
      <g>
       <use xlink:href="#m4746217b73" x="459.820745" y="295.344" style="stroke: #000000; stroke-width: 0.6"/>
      </g>
     </g>
    </g>
    <g id="xtick_20">
     <g id="line2d_39">
      <path d="M 483.670049 295.344 
L 483.670049 7.2 
" clip-path="url(#p31d3fbfd9e)" style="fill: none; stroke: #bbbbbb; stroke-opacity: 0.15; stroke-width: 0.3; stroke-linecap: square"/>
     </g>
     <g id="line2d_40">
      <g>
       <use xlink:href="#m4746217b73" x="483.670049" y="295.344" style="stroke: #000000; stroke-width: 0.6"/>
      </g>
     </g>
    </g>
    <g id="xtick_21">
     <g id="line2d_41">
      <path d="M 507.519353 295.344 
L 507.519353 7.2 
" clip-path="url(#p31d3fbfd9e)" style="fill: none; stroke: #bbbbbb; stroke-opacity: 0.15; stroke-width: 0.3; stroke-linecap: square"/>
     </g>
     <g id="line2d_42">
      <g>
       <use xlink:href="#m4746217b73" x="507.519353" y="295.344" style="stroke: #000000; stroke-width: 0.6"/>
      </g>
     </g>
    </g>
    <g id="xtick_22">
     <g id="line2d_43">
      <path d="M 555.217961 295.344 
L 555.217961 7.2 
" clip-path="url(#p31d3fbfd9e)" style="fill: none; stroke: #bbbbbb; stroke-opacity: 0.15; stroke-width: 0.3; stroke-linecap: square"/>
     </g>
     <g id="line2d_44">
      <g>
       <use xlink:href="#m4746217b73" x="555.217961" y="295.344" style="stroke: #000000; stroke-width: 0.6"/>
      </g>
     </g>
    </g>
    <g id="text_7">
     <!-- training step -->
     <g transform="translate(271.510625 319.197437) scale(0.08 -0.08)">
      <defs>
       <path id="DejaVuSans-74" d="M 1172 4494 
L 1172 3500 
L 2356 3500 
L 2356 3053 
L 1172 3053 
L 1172 1153 
Q 1172 725 1289 603 
Q 1406 481 1766 481 
L 2356 481 
L 2356 0 
L 1766 0 
Q 1100 0 847 248 
Q 594 497 594 1153 
L 594 3053 
L 172 3053 
L 172 3500 
L 594 3500 
L 594 4494 
L 1172 4494 
z
" transform="scale(0.015625)"/>
       <path id="DejaVuSans-72" d="M 2631 2963 
Q 2534 3019 2420 3045 
Q 2306 3072 2169 3072 
Q 1681 3072 1420 2755 
Q 1159 2438 1159 1844 
L 1159 0 
L 581 0 
L 581 3500 
L 1159 3500 
L 1159 2956 
Q 1341 3275 1631 3429 
Q 1922 3584 2338 3584 
Q 2397 3584 2469 3576 
Q 2541 3569 2628 3553 
L 2631 2963 
z
" transform="scale(0.015625)"/>
       <path id="DejaVuSans-61" d="M 2194 1759 
Q 1497 1759 1228 1600 
Q 959 1441 959 1056 
Q 959 750 1161 570 
Q 1363 391 1709 391 
Q 2188 391 2477 730 
Q 2766 1069 2766 1631 
L 2766 1759 
L 2194 1759 
z
M 3341 1997 
L 3341 0 
L 2766 0 
L 2766 531 
Q 2569 213 2275 61 
Q 1981 -91 1556 -91 
Q 1019 -91 701 211 
Q 384 513 384 1019 
Q 384 1609 779 1909 
Q 1175 2209 1959 2209 
L 2766 2209 
L 2766 2266 
Q 2766 2663 2505 2880 
Q 2244 3097 1772 3097 
Q 1472 3097 1187 3025 
Q 903 2953 641 2809 
L 641 3341 
Q 956 3463 1253 3523 
Q 1550 3584 1831 3584 
Q 2591 3584 2966 3190 
Q 3341 2797 3341 1997 
z
" transform="scale(0.015625)"/>
       <path id="DejaVuSans-69" d="M 603 3500 
L 1178 3500 
L 1178 0 
L 603 0 
L 603 3500 
z
M 603 4863 
L 1178 4863 
L 1178 4134 
L 603 4134 
L 603 4863 
z
" transform="scale(0.015625)"/>
       <path id="DejaVuSans-6e" d="M 3513 2113 
L 3513 0 
L 2938 0 
L 2938 2094 
Q 2938 2591 2744 2837 
Q 2550 3084 2163 3084 
Q 1697 3084 1428 2787 
Q 1159 2491 1159 1978 
L 1159 0 
L 581 0 
L 581 3500 
L 1159 3500 
L 1159 2956 
Q 1366 3272 1645 3428 
Q 1925 3584 2291 3584 
Q 2894 3584 3203 3211 
Q 3513 2838 3513 2113 
z
" transform="scale(0.015625)"/>
       <path id="DejaVuSans-67" d="M 2906 1791 
Q 2906 2416 2648 2759 
Q 2391 3103 1925 3103 
Q 1463 3103 1205 2759 
Q 947 2416 947 1791 
Q 947 1169 1205 825 
Q 1463 481 1925 481 
Q 2391 481 2648 825 
Q 2906 1169 2906 1791 
z
M 3481 434 
Q 3481 -459 3084 -895 
Q 2688 -1331 1869 -1331 
Q 1566 -1331 1297 -1286 
Q 1028 -1241 775 -1147 
L 775 -588 
Q 1028 -725 1275 -790 
Q 1522 -856 1778 -856 
Q 2344 -856 2625 -561 
Q 2906 -266 2906 331 
L 2906 616 
Q 2728 306 2450 153 
Q 2172 0 1784 0 
Q 1141 0 747 490 
Q 353 981 353 1791 
Q 353 2603 747 3093 
Q 1141 3584 1784 3584 
Q 2172 3584 2450 3431 
Q 2728 3278 2906 2969 
L 2906 3500 
L 3481 3500 
L 3481 434 
z
" transform="scale(0.015625)"/>
       <path id="DejaVuSans-20" transform="scale(0.015625)"/>
       <path id="DejaVuSans-73" d="M 2834 3397 
L 2834 2853 
Q 2591 2978 2328 3040 
Q 2066 3103 1784 3103 
Q 1356 3103 1142 2972 
Q 928 2841 928 2578 
Q 928 2378 1081 2264 
Q 1234 2150 1697 2047 
L 1894 2003 
Q 2506 1872 2764 1633 
Q 3022 1394 3022 966 
Q 3022 478 2636 193 
Q 2250 -91 1575 -91 
Q 1294 -91 989 -36 
Q 684 19 347 128 
L 347 722 
Q 666 556 975 473 
Q 1284 391 1588 391 
Q 1994 391 2212 530 
Q 2431 669 2431 922 
Q 2431 1156 2273 1281 
Q 2116 1406 1581 1522 
L 1381 1569 
Q 847 1681 609 1914 
Q 372 2147 372 2553 
Q 372 3047 722 3315 
Q 1072 3584 1716 3584 
Q 2034 3584 2315 3537 
Q 2597 3491 2834 3397 
z
" transform="scale(0.015625)"/>
       <path id="DejaVuSans-65" d="M 3597 1894 
L 3597 1613 
L 953 1613 
Q 991 1019 1311 708 
Q 1631 397 2203 397 
Q 2534 397 2845 478 
Q 3156 559 3463 722 
L 3463 178 
Q 3153 47 2828 -22 
Q 2503 -91 2169 -91 
Q 1331 -91 842 396 
Q 353 884 353 1716 
Q 353 2575 817 3079 
Q 1281 3584 2069 3584 
Q 2775 3584 3186 3129 
Q 3597 2675 3597 1894 
z
M 3022 2063 
Q 3016 2534 2758 2815 
Q 2500 3097 2075 3097 
Q 1594 3097 1305 2825 
Q 1016 2553 972 2059 
L 3022 2063 
z
" transform="scale(0.015625)"/>
       <path id="DejaVuSans-70" d="M 1159 525 
L 1159 -1331 
L 581 -1331 
L 581 3500 
L 1159 3500 
L 1159 2969 
Q 1341 3281 1617 3432 
Q 1894 3584 2278 3584 
Q 2916 3584 3314 3078 
Q 3713 2572 3713 1747 
Q 3713 922 3314 415 
Q 2916 -91 2278 -91 
Q 1894 -91 1617 61 
Q 1341 213 1159 525 
z
M 3116 1747 
Q 3116 2381 2855 2742 
Q 2594 3103 2138 3103 
Q 1681 3103 1420 2742 
Q 1159 2381 1159 1747 
Q 1159 1113 1420 752 
Q 1681 391 2138 391 
Q 2594 391 2855 752 
Q 3116 1113 3116 1747 
z
" transform="scale(0.015625)"/>
      </defs>
      <use xlink:href="#DejaVuSans-74"/>
      <use xlink:href="#DejaVuSans-72" transform="translate(39.208984 0)"/>
      <use xlink:href="#DejaVuSans-61" transform="translate(80.322266 0)"/>
      <use xlink:href="#DejaVuSans-69" transform="translate(141.601562 0)"/>
      <use xlink:href="#DejaVuSans-6e" transform="translate(169.384766 0)"/>
      <use xlink:href="#DejaVuSans-69" transform="translate(232.763672 0)"/>
      <use xlink:href="#DejaVuSans-6e" transform="translate(260.546875 0)"/>
      <use xlink:href="#DejaVuSans-67" transform="translate(323.925781 0)"/>
      <use xlink:href="#DejaVuSans-20" transform="translate(387.402344 0)"/>
      <use xlink:href="#DejaVuSans-73" transform="translate(419.189453 0)"/>
      <use xlink:href="#DejaVuSans-74" transform="translate(471.289062 0)"/>
      <use xlink:href="#DejaVuSans-65" transform="translate(510.498047 0)"/>
      <use xlink:href="#DejaVuSans-70" transform="translate(572.021484 0)"/>
     </g>
    </g>
   </g>
   <g id="matplotlib.axis_2">
    <g id="ytick_1">
     <g id="line2d_45">
      <path d="M 34.85 248.379518 
L 559.01 248.379518 
" clip-path="url(#p31d3fbfd9e)" style="fill: none; stroke: #999999; stroke-opacity: 0.3; stroke-width: 0.5; stroke-linecap: square"/>
     </g>
     <g id="line2d_46">
      <defs>
       <path id="m678fc15809" d="M 0 0 
L -3.5 0 
" style="stroke: #000000; stroke-width: 0.8"/>
      </defs>
      <g>
       <use xlink:href="#m678fc15809" x="34.85" y="248.379518" style="stroke: #000000; stroke-width: 0.8"/>
      </g>
     </g>
     <g id="text_8">
      <!-- 10 -->
      <g transform="translate(18.9425 251.038971) scale(0.07 -0.07)">
       <use xlink:href="#DejaVuSans-31"/>
       <use xlink:href="#DejaVuSans-30" transform="translate(63.623047 0)"/>
      </g>
     </g>
    </g>
    <g id="ytick_2">
     <g id="line2d_47">
      <path d="M 34.85 190.327949 
L 559.01 190.327949 
" clip-path="url(#p31d3fbfd9e)" style="fill: none; stroke: #999999; stroke-opacity: 0.3; stroke-width: 0.5; stroke-linecap: square"/>
     </g>
     <g id="line2d_48">
      <g>
       <use xlink:href="#m678fc15809" x="34.85" y="190.327949" style="stroke: #000000; stroke-width: 0.8"/>
      </g>
     </g>
     <g id="text_9">
      <!-- 15 -->
      <g transform="translate(18.9425 192.987402) scale(0.07 -0.07)">
       <defs>
        <path id="DejaVuSans-35" d="M 691 4666 
L 3169 4666 
L 3169 4134 
L 1269 4134 
L 1269 2991 
Q 1406 3038 1543 3061 
Q 1681 3084 1819 3084 
Q 2600 3084 3056 2656 
Q 3513 2228 3513 1497 
Q 3513 744 3044 326 
Q 2575 -91 1722 -91 
Q 1428 -91 1123 -41 
Q 819 9 494 109 
L 494 744 
Q 775 591 1075 516 
Q 1375 441 1709 441 
Q 2250 441 2565 725 
Q 2881 1009 2881 1497 
Q 2881 1984 2565 2268 
Q 2250 2553 1709 2553 
Q 1456 2553 1204 2497 
Q 953 2441 691 2322 
L 691 4666 
z
" transform="scale(0.015625)"/>
       </defs>
       <use xlink:href="#DejaVuSans-31"/>
       <use xlink:href="#DejaVuSans-35" transform="translate(63.623047 0)"/>
      </g>
     </g>
    </g>
    <g id="ytick_3">
     <g id="line2d_49">
      <path d="M 34.85 132.27638 
L 559.01 132.27638 
" clip-path="url(#p31d3fbfd9e)" style="fill: none; stroke: #999999; stroke-opacity: 0.3; stroke-width: 0.5; stroke-linecap: square"/>
     </g>
     <g id="line2d_50">
      <g>
       <use xlink:href="#m678fc15809" x="34.85" y="132.27638" style="stroke: #000000; stroke-width: 0.8"/>
      </g>
     </g>
     <g id="text_10">
      <!-- 20 -->
      <g transform="translate(18.9425 134.935833) scale(0.07 -0.07)">
       <use xlink:href="#DejaVuSans-32"/>
       <use xlink:href="#DejaVuSans-30" transform="translate(63.623047 0)"/>
      </g>
     </g>
    </g>
    <g id="ytick_4">
     <g id="line2d_51">
      <path d="M 34.85 74.224811 
L 559.01 74.224811 
" clip-path="url(#p31d3fbfd9e)" style="fill: none; stroke: #999999; stroke-opacity: 0.3; stroke-width: 0.5; stroke-linecap: square"/>
     </g>
     <g id="line2d_52">
      <g>
       <use xlink:href="#m678fc15809" x="34.85" y="74.224811" style="stroke: #000000; stroke-width: 0.8"/>
      </g>
     </g>
     <g id="text_11">
      <!-- 25 -->
      <g transform="translate(18.9425 76.884264) scale(0.07 -0.07)">
       <use xlink:href="#DejaVuSans-32"/>
       <use xlink:href="#DejaVuSans-35" transform="translate(63.623047 0)"/>
      </g>
     </g>
    </g>
    <g id="ytick_5">
     <g id="line2d_53">
      <path d="M 34.85 16.173242 
L 559.01 16.173242 
" clip-path="url(#p31d3fbfd9e)" style="fill: none; stroke: #999999; stroke-opacity: 0.3; stroke-width: 0.5; stroke-linecap: square"/>
     </g>
     <g id="line2d_54">
      <g>
       <use xlink:href="#m678fc15809" x="34.85" y="16.173242" style="stroke: #000000; stroke-width: 0.8"/>
      </g>
     </g>
     <g id="text_12">
      <!-- 30 -->
      <g transform="translate(18.9425 18.832695) scale(0.07 -0.07)">
       <defs>
        <path id="DejaVuSans-33" d="M 2597 2516 
Q 3050 2419 3304 2112 
Q 3559 1806 3559 1356 
Q 3559 666 3084 287 
Q 2609 -91 1734 -91 
Q 1441 -91 1130 -33 
Q 819 25 488 141 
L 488 750 
Q 750 597 1062 519 
Q 1375 441 1716 441 
Q 2309 441 2620 675 
Q 2931 909 2931 1356 
Q 2931 1769 2642 2001 
Q 2353 2234 1838 2234 
L 1294 2234 
L 1294 2753 
L 1863 2753 
Q 2328 2753 2575 2939 
Q 2822 3125 2822 3475 
Q 2822 3834 2567 4026 
Q 2313 4219 1838 4219 
Q 1578 4219 1281 4162 
Q 984 4106 628 3988 
L 628 4550 
Q 988 4650 1302 4700 
Q 1616 4750 1894 4750 
Q 2613 4750 3031 4423 
Q 3450 4097 3450 3541 
Q 3450 3153 3228 2886 
Q 3006 2619 2597 2516 
z
" transform="scale(0.015625)"/>
       </defs>
       <use xlink:href="#DejaVuSans-33"/>
       <use xlink:href="#DejaVuSans-30" transform="translate(63.623047 0)"/>
      </g>
     </g>
    </g>
    <g id="ytick_6">
     <g id="line2d_55">
      <path d="M 34.85 294.820773 
L 559.01 294.820773 
" clip-path="url(#p31d3fbfd9e)" style="fill: none; stroke: #bbbbbb; stroke-opacity: 0.15; stroke-width: 0.3; stroke-linecap: square"/>
     </g>
     <g id="line2d_56">
      <defs>
       <path id="m8d317e0405" d="M 0 0 
L -2 0 
" style="stroke: #000000; stroke-width: 0.6"/>
      </defs>
      <g>
       <use xlink:href="#m8d317e0405" x="34.85" y="294.820773" style="stroke: #000000; stroke-width: 0.6"/>
      </g>
     </g>
    </g>
    <g id="ytick_7">
     <g id="line2d_57">
      <path d="M 34.85 283.210459 
L 559.01 283.210459 
" clip-path="url(#p31d3fbfd9e)" style="fill: none; stroke: #bbbbbb; stroke-opacity: 0.15; stroke-width: 0.3; stroke-linecap: square"/>
     </g>
     <g id="line2d_58">
      <g>
       <use xlink:href="#m8d317e0405" x="34.85" y="283.210459" style="stroke: #000000; stroke-width: 0.6"/>
      </g>
     </g>
    </g>
    <g id="ytick_8">
     <g id="line2d_59">
      <path d="M 34.85 271.600145 
L 559.01 271.600145 
" clip-path="url(#p31d3fbfd9e)" style="fill: none; stroke: #bbbbbb; stroke-opacity: 0.15; stroke-width: 0.3; stroke-linecap: square"/>
     </g>
     <g id="line2d_60">
      <g>
       <use xlink:href="#m8d317e0405" x="34.85" y="271.600145" style="stroke: #000000; stroke-width: 0.6"/>
      </g>
     </g>
    </g>
    <g id="ytick_9">
     <g id="line2d_61">
      <path d="M 34.85 259.989832 
L 559.01 259.989832 
" clip-path="url(#p31d3fbfd9e)" style="fill: none; stroke: #bbbbbb; stroke-opacity: 0.15; stroke-width: 0.3; stroke-linecap: square"/>
     </g>
     <g id="line2d_62">
      <g>
       <use xlink:href="#m8d317e0405" x="34.85" y="259.989832" style="stroke: #000000; stroke-width: 0.6"/>
      </g>
     </g>
    </g>
    <g id="ytick_10">
     <g id="line2d_63">
      <path d="M 34.85 236.769204 
L 559.01 236.769204 
" clip-path="url(#p31d3fbfd9e)" style="fill: none; stroke: #bbbbbb; stroke-opacity: 0.15; stroke-width: 0.3; stroke-linecap: square"/>
     </g>
     <g id="line2d_64">
      <g>
       <use xlink:href="#m8d317e0405" x="34.85" y="236.769204" style="stroke: #000000; stroke-width: 0.6"/>
      </g>
     </g>
    </g>
    <g id="ytick_11">
     <g id="line2d_65">
      <path d="M 34.85 225.15889 
L 559.01 225.15889 
" clip-path="url(#p31d3fbfd9e)" style="fill: none; stroke: #bbbbbb; stroke-opacity: 0.15; stroke-width: 0.3; stroke-linecap: square"/>
     </g>
     <g id="line2d_66">
      <g>
       <use xlink:href="#m8d317e0405" x="34.85" y="225.15889" style="stroke: #000000; stroke-width: 0.6"/>
      </g>
     </g>
    </g>
    <g id="ytick_12">
     <g id="line2d_67">
      <path d="M 34.85 213.548576 
L 559.01 213.548576 
" clip-path="url(#p31d3fbfd9e)" style="fill: none; stroke: #bbbbbb; stroke-opacity: 0.15; stroke-width: 0.3; stroke-linecap: square"/>
     </g>
     <g id="line2d_68">
      <g>
       <use xlink:href="#m8d317e0405" x="34.85" y="213.548576" style="stroke: #000000; stroke-width: 0.6"/>
      </g>
     </g>
    </g>
    <g id="ytick_13">
     <g id="line2d_69">
      <path d="M 34.85 201.938263 
L 559.01 201.938263 
" clip-path="url(#p31d3fbfd9e)" style="fill: none; stroke: #bbbbbb; stroke-opacity: 0.15; stroke-width: 0.3; stroke-linecap: square"/>
     </g>
     <g id="line2d_70">
      <g>
       <use xlink:href="#m8d317e0405" x="34.85" y="201.938263" style="stroke: #000000; stroke-width: 0.6"/>
      </g>
     </g>
    </g>
    <g id="ytick_14">
     <g id="line2d_71">
      <path d="M 34.85 178.717635 
L 559.01 178.717635 
" clip-path="url(#p31d3fbfd9e)" style="fill: none; stroke: #bbbbbb; stroke-opacity: 0.15; stroke-width: 0.3; stroke-linecap: square"/>
     </g>
     <g id="line2d_72">
      <g>
       <use xlink:href="#m8d317e0405" x="34.85" y="178.717635" style="stroke: #000000; stroke-width: 0.6"/>
      </g>
     </g>
    </g>
    <g id="ytick_15">
     <g id="line2d_73">
      <path d="M 34.85 167.107321 
L 559.01 167.107321 
" clip-path="url(#p31d3fbfd9e)" style="fill: none; stroke: #bbbbbb; stroke-opacity: 0.15; stroke-width: 0.3; stroke-linecap: square"/>
     </g>
     <g id="line2d_74">
      <g>
       <use xlink:href="#m8d317e0405" x="34.85" y="167.107321" style="stroke: #000000; stroke-width: 0.6"/>
      </g>
     </g>
    </g>
    <g id="ytick_16">
     <g id="line2d_75">
      <path d="M 34.85 155.497007 
L 559.01 155.497007 
" clip-path="url(#p31d3fbfd9e)" style="fill: none; stroke: #bbbbbb; stroke-opacity: 0.15; stroke-width: 0.3; stroke-linecap: square"/>
     </g>
     <g id="line2d_76">
      <g>
       <use xlink:href="#m8d317e0405" x="34.85" y="155.497007" style="stroke: #000000; stroke-width: 0.6"/>
      </g>
     </g>
    </g>
    <g id="ytick_17">
     <g id="line2d_77">
      <path d="M 34.85 143.886694 
L 559.01 143.886694 
" clip-path="url(#p31d3fbfd9e)" style="fill: none; stroke: #bbbbbb; stroke-opacity: 0.15; stroke-width: 0.3; stroke-linecap: square"/>
     </g>
     <g id="line2d_78">
      <g>
       <use xlink:href="#m8d317e0405" x="34.85" y="143.886694" style="stroke: #000000; stroke-width: 0.6"/>
      </g>
     </g>
    </g>
    <g id="ytick_18">
     <g id="line2d_79">
      <path d="M 34.85 120.666066 
L 559.01 120.666066 
" clip-path="url(#p31d3fbfd9e)" style="fill: none; stroke: #bbbbbb; stroke-opacity: 0.15; stroke-width: 0.3; stroke-linecap: square"/>
     </g>
     <g id="line2d_80">
      <g>
       <use xlink:href="#m8d317e0405" x="34.85" y="120.666066" style="stroke: #000000; stroke-width: 0.6"/>
      </g>
     </g>
    </g>
    <g id="ytick_19">
     <g id="line2d_81">
      <path d="M 34.85 109.055752 
L 559.01 109.055752 
" clip-path="url(#p31d3fbfd9e)" style="fill: none; stroke: #bbbbbb; stroke-opacity: 0.15; stroke-width: 0.3; stroke-linecap: square"/>
     </g>
     <g id="line2d_82">
      <g>
       <use xlink:href="#m8d317e0405" x="34.85" y="109.055752" style="stroke: #000000; stroke-width: 0.6"/>
      </g>
     </g>
    </g>
    <g id="ytick_20">
     <g id="line2d_83">
      <path d="M 34.85 97.445438 
L 559.01 97.445438 
" clip-path="url(#p31d3fbfd9e)" style="fill: none; stroke: #bbbbbb; stroke-opacity: 0.15; stroke-width: 0.3; stroke-linecap: square"/>
     </g>
     <g id="line2d_84">
      <g>
       <use xlink:href="#m8d317e0405" x="34.85" y="97.445438" style="stroke: #000000; stroke-width: 0.6"/>
      </g>
     </g>
    </g>
    <g id="ytick_21">
     <g id="line2d_85">
      <path d="M 34.85 85.835125 
L 559.01 85.835125 
" clip-path="url(#p31d3fbfd9e)" style="fill: none; stroke: #bbbbbb; stroke-opacity: 0.15; stroke-width: 0.3; stroke-linecap: square"/>
     </g>
     <g id="line2d_86">
      <g>
       <use xlink:href="#m8d317e0405" x="34.85" y="85.835125" style="stroke: #000000; stroke-width: 0.6"/>
      </g>
     </g>
    </g>
    <g id="ytick_22">
     <g id="line2d_87">
      <path d="M 34.85 62.614497 
L 559.01 62.614497 
" clip-path="url(#p31d3fbfd9e)" style="fill: none; stroke: #bbbbbb; stroke-opacity: 0.15; stroke-width: 0.3; stroke-linecap: square"/>
     </g>
     <g id="line2d_88">
      <g>
       <use xlink:href="#m8d317e0405" x="34.85" y="62.614497" style="stroke: #000000; stroke-width: 0.6"/>
      </g>
     </g>
    </g>
    <g id="ytick_23">
     <g id="line2d_89">
      <path d="M 34.85 51.004183 
L 559.01 51.004183 
" clip-path="url(#p31d3fbfd9e)" style="fill: none; stroke: #bbbbbb; stroke-opacity: 0.15; stroke-width: 0.3; stroke-linecap: square"/>
     </g>
     <g id="line2d_90">
      <g>
       <use xlink:href="#m8d317e0405" x="34.85" y="51.004183" style="stroke: #000000; stroke-width: 0.6"/>
      </g>
     </g>
    </g>
    <g id="ytick_24">
     <g id="line2d_91">
      <path d="M 34.85 39.393869 
L 559.01 39.393869 
" clip-path="url(#p31d3fbfd9e)" style="fill: none; stroke: #bbbbbb; stroke-opacity: 0.15; stroke-width: 0.3; stroke-linecap: square"/>
     </g>
     <g id="line2d_92">
      <g>
       <use xlink:href="#m8d317e0405" x="34.85" y="39.393869" style="stroke: #000000; stroke-width: 0.6"/>
      </g>
     </g>
    </g>
    <g id="ytick_25">
     <g id="line2d_93">
      <path d="M 34.85 27.783556 
L 559.01 27.783556 
" clip-path="url(#p31d3fbfd9e)" style="fill: none; stroke: #bbbbbb; stroke-opacity: 0.15; stroke-width: 0.3; stroke-linecap: square"/>
     </g>
     <g id="line2d_94">
      <g>
       <use xlink:href="#m8d317e0405" x="34.85" y="27.783556" style="stroke: #000000; stroke-width: 0.6"/>
      </g>
     </g>
    </g>
    <g id="text_13">
     <!-- absolute val MSE -->
     <g transform="translate(13.27875 185.460125) rotate(-90) scale(0.08 -0.08)">
      <defs>
       <path id="DejaVuSans-62" d="M 3116 1747 
Q 3116 2381 2855 2742 
Q 2594 3103 2138 3103 
Q 1681 3103 1420 2742 
Q 1159 2381 1159 1747 
Q 1159 1113 1420 752 
Q 1681 391 2138 391 
Q 2594 391 2855 752 
Q 3116 1113 3116 1747 
z
M 1159 2969 
Q 1341 3281 1617 3432 
Q 1894 3584 2278 3584 
Q 2916 3584 3314 3078 
Q 3713 2572 3713 1747 
Q 3713 922 3314 415 
Q 2916 -91 2278 -91 
Q 1894 -91 1617 61 
Q 1341 213 1159 525 
L 1159 0 
L 581 0 
L 581 4863 
L 1159 4863 
L 1159 2969 
z
" transform="scale(0.015625)"/>
       <path id="DejaVuSans-6f" d="M 1959 3097 
Q 1497 3097 1228 2736 
Q 959 2375 959 1747 
Q 959 1119 1226 758 
Q 1494 397 1959 397 
Q 2419 397 2687 759 
Q 2956 1122 2956 1747 
Q 2956 2369 2687 2733 
Q 2419 3097 1959 3097 
z
M 1959 3584 
Q 2709 3584 3137 3096 
Q 3566 2609 3566 1747 
Q 3566 888 3137 398 
Q 2709 -91 1959 -91 
Q 1206 -91 779 398 
Q 353 888 353 1747 
Q 353 2609 779 3096 
Q 1206 3584 1959 3584 
z
" transform="scale(0.015625)"/>
       <path id="DejaVuSans-6c" d="M 603 4863 
L 1178 4863 
L 1178 0 
L 603 0 
L 603 4863 
z
" transform="scale(0.015625)"/>
       <path id="DejaVuSans-75" d="M 544 1381 
L 544 3500 
L 1119 3500 
L 1119 1403 
Q 1119 906 1312 657 
Q 1506 409 1894 409 
Q 2359 409 2629 706 
Q 2900 1003 2900 1516 
L 2900 3500 
L 3475 3500 
L 3475 0 
L 2900 0 
L 2900 538 
Q 2691 219 2414 64 
Q 2138 -91 1772 -91 
Q 1169 -91 856 284 
Q 544 659 544 1381 
z
M 1991 3584 
L 1991 3584 
z
" transform="scale(0.015625)"/>
       <path id="DejaVuSans-76" d="M 191 3500 
L 800 3500 
L 1894 563 
L 2988 3500 
L 3597 3500 
L 2284 0 
L 1503 0 
L 191 3500 
z
" transform="scale(0.015625)"/>
       <path id="DejaVuSans-4d" d="M 628 4666 
L 1569 4666 
L 2759 1491 
L 3956 4666 
L 4897 4666 
L 4897 0 
L 4281 0 
L 4281 4097 
L 3078 897 
L 2444 897 
L 1241 4097 
L 1241 0 
L 628 0 
L 628 4666 
z
" transform="scale(0.015625)"/>
       <path id="DejaVuSans-53" d="M 3425 4513 
L 3425 3897 
Q 3066 4069 2747 4153 
Q 2428 4238 2131 4238 
Q 1616 4238 1336 4038 
Q 1056 3838 1056 3469 
Q 1056 3159 1242 3001 
Q 1428 2844 1947 2747 
L 2328 2669 
Q 3034 2534 3370 2195 
Q 3706 1856 3706 1288 
Q 3706 609 3251 259 
Q 2797 -91 1919 -91 
Q 1588 -91 1214 -16 
Q 841 59 441 206 
L 441 856 
Q 825 641 1194 531 
Q 1563 422 1919 422 
Q 2459 422 2753 634 
Q 3047 847 3047 1241 
Q 3047 1584 2836 1778 
Q 2625 1972 2144 2069 
L 1759 2144 
Q 1053 2284 737 2584 
Q 422 2884 422 3419 
Q 422 4038 858 4394 
Q 1294 4750 2059 4750 
Q 2388 4750 2728 4690 
Q 3069 4631 3425 4513 
z
" transform="scale(0.015625)"/>
       <path id="DejaVuSans-45" d="M 628 4666 
L 3578 4666 
L 3578 4134 
L 1259 4134 
L 1259 2753 
L 3481 2753 
L 3481 2222 
L 1259 2222 
L 1259 531 
L 3634 531 
L 3634 0 
L 628 0 
L 628 4666 
z
" transform="scale(0.015625)"/>
      </defs>
      <use xlink:href="#DejaVuSans-61"/>
      <use xlink:href="#DejaVuSans-62" transform="translate(61.279297 0)"/>
      <use xlink:href="#DejaVuSans-73" transform="translate(124.755859 0)"/>
      <use xlink:href="#DejaVuSans-6f" transform="translate(176.855469 0)"/>
      <use xlink:href="#DejaVuSans-6c" transform="translate(238.037109 0)"/>
      <use xlink:href="#DejaVuSans-75" transform="translate(265.820312 0)"/>
      <use xlink:href="#DejaVuSans-74" transform="translate(329.199219 0)"/>
      <use xlink:href="#DejaVuSans-65" transform="translate(368.408203 0)"/>
      <use xlink:href="#DejaVuSans-20" transform="translate(429.931641 0)"/>
      <use xlink:href="#DejaVuSans-76" transform="translate(461.71875 0)"/>
      <use xlink:href="#DejaVuSans-61" transform="translate(520.898438 0)"/>
      <use xlink:href="#DejaVuSans-6c" transform="translate(582.177734 0)"/>
      <use xlink:href="#DejaVuSans-20" transform="translate(609.960938 0)"/>
      <use xlink:href="#DejaVuSans-4d" transform="translate(641.748047 0)"/>
      <use xlink:href="#DejaVuSans-53" transform="translate(728.027344 0)"/>
      <use xlink:href="#DejaVuSans-45" transform="translate(791.503906 0)"/>
     </g>
    </g>
   </g>
   <g id="line2d_95">
    <path d="M 58.675455 147.929583 
L 62.968329 150.285823 
L 67.261204 153.648723 
L 71.554079 159.296583 
L 75.846953 169.306573 
L 80.139828 185.462519 
L 84.432703 207.791836 
L 88.725577 232.899025 
L 93.018452 255.464859 
L 97.311327 272.666364 
L 101.604201 277.784179 
L 105.897076 280.413476 
L 110.189951 281.504779 
L 114.482826 281.858365 
L 118.7757 282.023481 
L 123.068575 282.139932 
L 127.36145 282.141591 
L 131.654324 282.174328 
L 135.947199 282.093078 
L 140.240074 282.246545 
L 144.532948 282.193325 
L 148.825823 282.179111 
L 153.118698 282.206987 
L 157.411572 282.07684 
L 161.704447 282.156772 
L 165.997322 282.14639 
L 170.290197 282.164136 
L 174.583071 282.098134 
L 178.875946 282.16111 
L 183.168821 282.136259 
L 187.461695 282.114559 
L 191.75457 282.158093 
L 196.047445 282.142541 
L 200.340319 282.119725 
L 204.633194 282.155107 
L 208.926069 282.154683 
L 213.218943 282.113537 
L 217.511818 282.143855 
L 221.804693 282.157144 
L 226.097568 282.118436 
L 230.390442 282.124746 
L 234.683317 282.159979 
L 238.976192 282.112943 
L 243.269066 282.158604 
L 247.561941 282.154258 
L 251.854816 282.118628 
L 256.14769 282.143183 
L 260.440565 282.162257 
L 264.73344 282.164498 
L 269.026314 282.155392 
L 273.319189 282.137444 
L 277.612064 282.109838 
L 281.904939 282.166056 
L 286.197813 282.130428 
L 290.490688 282.178775 
L 294.783563 282.155595 
L 299.076437 282.18306 
L 303.369312 282.181371 
L 307.662187 282.186053 
L 311.955061 282.200433 
L 316.247936 282.171865 
L 320.540811 282.181287 
L 324.833686 282.185464 
L 329.12656 282.206549 
L 333.419435 282.175591 
L 337.71231 282.206743 
L 342.005184 282.20009 
L 346.298059 282.196212 
L 350.590934 282.199454 
L 354.883808 282.221578 
L 359.176683 282.202435 
L 363.469558 282.20736 
L 367.762432 282.196919 
L 372.055307 282.211447 
L 376.348182 282.217615 
L 380.641057 282.203678 
L 384.933931 282.202641 
L 389.226806 282.21344 
L 393.519681 282.221837 
L 397.812555 282.207768 
L 402.10543 282.192797 
L 406.398305 282.19903 
L 410.691179 282.225998 
L 414.984054 282.210813 
L 419.276929 282.179276 
L 423.569803 282.194898 
L 427.862678 282.197108 
L 432.155553 282.20445 
L 436.448428 282.202031 
L 440.741302 282.216505 
L 445.034177 282.214618 
L 449.327052 282.206215 
L 453.619926 282.222196 
L 457.912801 282.195934 
L 462.205676 282.220158 
L 466.49855 282.224962 
L 470.791425 282.227433 
L 475.0843 282.229126 
L 479.377174 282.217069 
L 483.670049 282.232661 
L 487.962924 282.223353 
L 492.255799 282.226508 
L 496.548673 282.214401 
L 500.841548 282.223092 
L 505.134423 282.228188 
L 509.427297 282.226625 
L 513.720172 282.218864 
L 518.013047 282.225028 
L 522.305921 282.227428 
L 526.598796 282.227116 
L 530.891671 282.232887 
L 535.184545 282.22668 
" clip-path="url(#p31d3fbfd9e)" style="fill: none; stroke: #cb6020; stroke-opacity: 0.85; stroke-width: 1.5; stroke-linecap: square"/>
   </g>
   <g id="line2d_96">
    <path d="M 58.675455 183.753317 
L 62.968329 186.176581 
L 67.261204 190.070667 
L 71.554079 195.503382 
L 75.846953 203.147326 
L 80.139828 214.67582 
L 84.432703 231.343616 
L 88.725577 249.424555 
L 93.018452 266.100454 
L 97.311327 275.720695 
L 101.604201 279.629945 
L 105.897076 280.954838 
L 110.189951 281.137144 
L 114.482826 281.24238 
L 118.7757 281.353753 
L 123.068575 281.449581 
L 127.36145 281.355311 
L 131.654324 281.332453 
L 135.947199 281.252689 
L 140.240074 281.279173 
L 144.532948 281.290015 
L 148.825823 281.259284 
L 153.118698 281.373975 
L 157.411572 281.393917 
L 161.704447 281.455952 
L 165.997322 281.461525 
L 170.290197 281.513193 
L 174.583071 281.499422 
L 178.875946 281.502114 
L 183.168821 281.491575 
L 187.461695 281.4507 
L 191.75457 281.469398 
L 196.047445 281.389993 
L 200.340319 281.490682 
L 204.633194 281.411646 
L 208.926069 281.456946 
L 213.218943 281.467251 
L 217.511818 281.471903 
L 221.804693 281.475114 
L 226.097568 281.435329 
L 230.390442 281.428082 
L 234.683317 281.412537 
L 238.976192 281.436875 
L 243.269066 281.465901 
L 247.561941 281.425826 
L 251.854816 281.401191 
L 256.14769 281.431265 
L 260.440565 281.454407 
L 264.73344 281.433268 
L 269.026314 281.488307 
L 273.319189 281.45658 
L 277.612064 281.432227 
L 281.904939 281.45019 
L 286.197813 281.449635 
L 290.490688 281.43306 
L 294.783563 281.460789 
L 299.076437 281.448573 
L 303.369312 281.439776 
L 307.662187 281.430826 
L 311.955061 281.447492 
L 316.247936 281.426199 
L 320.540811 281.462965 
L 324.833686 281.487435 
L 329.12656 281.460434 
L 333.419435 281.451058 
L 337.71231 281.462773 
L 342.005184 281.431548 
L 346.298059 281.438763 
L 350.590934 281.448494 
L 354.883808 281.465239 
L 359.176683 281.456924 
L 363.469558 281.461949 
L 367.762432 281.434835 
L 372.055307 281.459933 
L 376.348182 281.448779 
L 380.641057 281.461514 
L 384.933931 281.484635 
L 389.226806 281.451457 
L 393.519681 281.447956 
L 397.812555 281.464764 
L 402.10543 281.462094 
L 406.398305 281.44998 
L 410.691179 281.463601 
L 414.984054 281.457643 
L 419.276929 281.439718 
L 423.569803 281.446257 
L 427.862678 281.470539 
L 432.155553 281.470517 
L 436.448428 281.452643 
L 440.741302 281.466887 
L 445.034177 281.455005 
L 449.327052 281.475945 
L 453.619926 281.476655 
L 457.912801 281.468409 
L 462.205676 281.461819 
L 466.49855 281.457805 
L 470.791425 281.458375 
L 475.0843 281.4647 
L 479.377174 281.453818 
L 483.670049 281.469033 
L 487.962924 281.461227 
L 492.255799 281.452981 
L 496.548673 281.453153 
L 500.841548 281.458358 
L 505.134423 281.454905 
L 509.427297 281.452622 
L 513.720172 281.455426 
L 518.013047 281.463473 
L 522.305921 281.460559 
L 526.598796 281.458837 
L 530.891671 281.468907 
L 535.184545 281.464799 
" clip-path="url(#p31d3fbfd9e)" style="fill: none; stroke: #000000; stroke-opacity: 0.85; stroke-width: 1.5; stroke-linecap: square"/>
   </g>
   <g id="line2d_97">
    <path d="M 58.675455 146.966829 
L 62.968329 147.053645 
L 67.261204 147.291978 
L 71.554079 147.917162 
L 75.846953 149.530117 
L 80.139828 152.832629 
L 84.432703 157.505436 
L 88.725577 163.12565 
L 93.018452 169.390257 
L 97.311327 176.516714 
L 101.604201 184.426595 
L 105.897076 192.672655 
L 110.189951 201.058768 
L 114.482826 209.305888 
L 118.7757 217.426108 
L 123.068575 225.731172 
L 127.36145 233.757846 
L 131.654324 241.331292 
L 135.947199 248.266368 
L 140.240074 254.197237 
L 144.532948 258.87406 
L 148.825823 261.997316 
L 153.118698 263.54216 
L 157.411572 263.703367 
L 161.704447 263.693103 
L 165.997322 263.702575 
L 170.290197 263.71771 
L 174.583071 263.729224 
L 178.875946 263.722488 
L 183.168821 263.726461 
L 187.461695 263.731506 
L 191.75457 263.738996 
L 196.047445 263.730211 
L 200.340319 263.736927 
L 204.633194 263.742568 
L 208.926069 263.735958 
L 213.218943 263.744793 
L 217.511818 263.737514 
L 221.804693 263.746828 
L 226.097568 263.7341 
L 230.390442 263.72623 
L 234.683317 263.735412 
L 238.976192 263.73063 
L 243.269066 263.726813 
L 247.561941 263.722801 
L 251.854816 263.731809 
L 256.14769 263.721293 
L 260.440565 263.732369 
L 264.73344 263.741893 
L 269.026314 263.742729 
L 273.319189 263.735597 
L 277.612064 263.721959 
L 281.904939 263.740275 
L 286.197813 263.730647 
L 290.490688 263.729235 
L 294.783563 263.738268 
L 299.076437 263.738246 
L 303.369312 263.731222 
L 307.662187 263.745306 
L 311.955061 263.734017 
L 316.247936 263.730615 
L 320.540811 263.739159 
L 324.833686 263.718742 
L 329.12656 263.733031 
L 333.419435 263.735094 
L 337.71231 263.728418 
L 342.005184 263.720975 
L 346.298059 263.733844 
L 350.590934 263.730807 
L 354.883808 263.740997 
L 359.176683 263.740901 
L 363.469558 263.735796 
L 367.762432 263.737311 
L 372.055307 263.744548 
L 376.348182 263.747403 
L 380.641057 263.738974 
L 384.933931 263.736308 
L 389.226806 263.735212 
L 393.519681 263.739161 
L 397.812555 263.7404 
L 402.10543 263.73873 
L 406.398305 263.741461 
L 410.691179 263.741908 
L 414.984054 263.740805 
L 419.276929 263.73625 
L 423.569803 263.735871 
L 427.862678 263.736624 
L 432.155553 263.740047 
L 436.448428 263.743924 
L 440.741302 263.740319 
L 445.034177 263.736981 
L 449.327052 263.737027 
L 453.619926 263.737268 
L 457.912801 263.73611 
L 462.205676 263.737067 
L 466.49855 263.739719 
L 470.791425 263.740025 
L 475.0843 263.742801 
L 479.377174 263.741315 
L 483.670049 263.740124 
L 487.962924 263.739541 
L 492.255799 263.738718 
L 496.548673 263.737445 
L 500.841548 263.735677 
L 505.134423 263.739066 
L 509.427297 263.739992 
L 513.720172 263.74085 
L 518.013047 263.740961 
L 522.305921 263.741764 
L 526.598796 263.740949 
L 530.891671 263.739822 
L 535.184545 263.73659 
" clip-path="url(#p31d3fbfd9e)" style="fill: none; stroke: #a50f15; stroke-opacity: 0.85; stroke-width: 1.5; stroke-linecap: square"/>
   </g>
   <g id="line2d_98">
    <path d="M 58.675455 20.299083 
L 62.968329 20.392206 
L 67.261204 20.646502 
L 71.554079 21.143378 
L 75.846953 22.062069 
L 80.139828 23.61367 
L 84.432703 25.462158 
L 88.725577 27.593726 
L 93.018452 30.158021 
L 97.311327 33.739388 
L 101.604201 39.147423 
L 105.897076 46.43043 
L 110.189951 55.377086 
L 114.482826 66.40587 
L 118.7757 79.147951 
L 123.068575 92.478572 
L 127.36145 105.803105 
L 131.654324 118.757317 
L 135.947199 130.817305 
L 140.240074 141.788311 
L 144.532948 151.332351 
L 148.825823 159.555301 
L 153.118698 166.843595 
L 157.411572 173.086275 
L 161.704447 178.355847 
L 165.997322 182.646121 
L 170.290197 185.881566 
L 174.583071 188.042038 
L 178.875946 189.280196 
L 183.168821 189.755274 
L 187.461695 189.790972 
L 191.75457 189.751514 
L 196.047445 189.780655 
L 200.340319 189.812996 
L 204.633194 189.853367 
L 208.926069 189.767762 
L 213.218943 189.810825 
L 217.511818 189.771514 
L 221.804693 189.869014 
L 226.097568 189.880492 
L 230.390442 189.823818 
L 234.683317 189.781665 
L 238.976192 189.823818 
L 243.269066 189.801325 
L 247.561941 189.773935 
L 251.854816 189.822406 
L 256.14769 189.800277 
L 260.440565 189.766129 
L 264.73344 189.850956 
L 269.026314 189.851379 
L 273.319189 189.781859 
L 277.612064 189.797452 
L 281.904939 189.838179 
L 286.197813 189.819901 
L 290.490688 189.790022 
L 294.783563 189.814788 
L 299.076437 189.824046 
L 303.369312 189.801942 
L 307.662187 189.781849 
L 311.955061 189.772881 
L 316.247936 189.744464 
L 320.540811 189.836496 
L 324.833686 189.825564 
L 329.12656 189.776348 
L 333.419435 189.811413 
L 337.71231 189.8408 
L 342.005184 189.838033 
L 346.298059 189.783787 
L 350.590934 189.821814 
L 354.883808 189.834752 
L 359.176683 189.80798 
L 363.469558 189.820117 
L 367.762432 189.812777 
L 372.055307 189.804406 
L 376.348182 189.822872 
L 380.641057 189.827541 
L 384.933931 189.832121 
L 389.226806 189.804705 
L 393.519681 189.792937 
L 397.812555 189.807594 
L 402.10543 189.813624 
L 406.398305 189.831267 
L 410.691179 189.819421 
L 414.984054 189.817919 
L 419.276929 189.798397 
L 423.569803 189.827922 
L 427.862678 189.815619 
L 432.155553 189.802063 
L 436.448428 189.812845 
L 440.741302 189.820821 
L 445.034177 189.804882 
L 449.327052 189.794652 
L 453.619926 189.795492 
L 457.912801 189.809166 
L 462.205676 189.817395 
L 466.49855 189.821812 
L 470.791425 189.824585 
L 475.0843 189.824484 
L 479.377174 189.82104 
L 483.670049 189.822504 
L 487.962924 189.823868 
L 492.255799 189.822465 
L 496.548673 189.81402 
L 500.841548 189.812523 
L 505.134423 189.820488 
L 509.427297 189.82382 
L 513.720172 189.816694 
L 518.013047 189.817077 
L 522.305921 189.816606 
L 526.598796 189.81476 
L 530.891671 189.815108 
L 535.184545 189.816869 
" clip-path="url(#p31d3fbfd9e)" style="fill: none; stroke: #2171b5; stroke-opacity: 0.85; stroke-width: 1.5; stroke-linecap: square"/>
   </g>
   <g id="line2d_99">
    <path d="M 58.675455 99.89686 
L 62.968329 99.911997 
L 67.261204 99.961974 
L 71.554079 99.996018 
L 75.846953 100.003677 
L 80.139828 99.981675 
L 84.432703 100.045844 
L 88.725577 100.265015 
L 93.018452 100.295419 
L 97.311327 100.354906 
L 101.604201 100.414944 
L 105.897076 100.352398 
L 110.189951 100.288075 
L 114.482826 100.362139 
L 118.7757 100.575761 
L 123.068575 101.152171 
L 127.36145 102.227637 
L 131.654324 104.24903 
L 135.947199 108.075248 
L 140.240074 113.966582 
L 144.532948 121.143396 
L 148.825823 128.811461 
L 153.118698 136.55901 
L 157.411572 143.814465 
L 161.704447 150.30436 
L 165.997322 155.672634 
L 170.290197 159.427946 
L 174.583071 161.409022 
L 178.875946 161.91048 
L 183.168821 162.518736 
L 187.461695 163.868833 
L 191.75457 166.718839 
L 196.047445 170.205283 
L 200.340319 173.840176 
L 204.633194 177.434349 
L 208.926069 180.744754 
L 213.218943 183.750694 
L 217.511818 186.337481 
L 221.804693 188.169298 
L 226.097568 189.263109 
L 230.390442 189.724156 
L 234.683317 189.790568 
L 238.976192 189.802259 
L 243.269066 189.751296 
L 247.561941 189.737597 
L 251.854816 189.776357 
L 256.14769 189.760805 
L 260.440565 189.756967 
L 264.73344 189.787267 
L 269.026314 189.802321 
L 273.319189 189.75136 
L 277.612064 189.754808 
L 281.904939 189.792844 
L 286.197813 189.788663 
L 290.490688 189.766367 
L 294.783563 189.801953 
L 299.076437 189.824566 
L 303.369312 189.798915 
L 307.662187 189.781842 
L 311.955061 189.768275 
L 316.247936 189.737319 
L 320.540811 189.789647 
L 324.833686 189.803545 
L 329.12656 189.763873 
L 333.419435 189.786248 
L 337.71231 189.792573 
L 342.005184 189.800108 
L 346.298059 189.762211 
L 350.590934 189.779131 
L 354.883808 189.796323 
L 359.176683 189.798644 
L 363.469558 189.805186 
L 367.762432 189.795162 
L 372.055307 189.776558 
L 376.348182 189.784264 
L 380.641057 189.77891 
L 384.933931 189.792207 
L 389.226806 189.791378 
L 393.519681 189.782299 
L 397.812555 189.78795 
L 402.10543 189.789111 
L 406.398305 189.795323 
L 410.691179 189.799114 
L 414.984054 189.798138 
L 419.276929 189.784246 
L 423.569803 189.786352 
L 427.862678 189.787092 
L 432.155553 189.777538 
L 436.448428 189.782383 
L 440.741302 189.783998 
L 445.034177 189.777174 
L 449.327052 189.777075 
L 453.619926 189.777399 
L 457.912801 189.785917 
L 462.205676 189.789697 
L 466.49855 189.789512 
L 470.791425 189.79442 
L 475.0843 189.794404 
L 479.377174 189.789536 
L 483.670049 189.792002 
L 487.962924 189.788824 
L 492.255799 189.788493 
L 496.548673 189.786915 
L 500.841548 189.781764 
L 505.134423 189.786709 
L 509.427297 189.787663 
L 513.720172 189.790855 
L 518.013047 189.792082 
L 522.305921 189.78988 
L 526.598796 189.789499 
L 530.891671 189.787206 
L 535.184545 189.78861 
" clip-path="url(#p31d3fbfd9e)" style="fill: none; stroke: #0e6655; stroke-opacity: 0.85; stroke-width: 1.5; stroke-linecap: square"/>
   </g>
   <g id="line2d_100">
    <path d="M 58.675455 20.297455 
L 62.968329 20.42353 
L 67.261204 20.723223 
L 71.554079 21.322026 
L 75.846953 22.530694 
L 80.139828 24.309064 
L 84.432703 26.133981 
L 88.725577 28.180513 
L 93.018452 30.622852 
L 97.311327 34.114629 
L 101.604201 39.773354 
L 105.897076 46.860235 
L 110.189951 55.893317 
L 114.482826 67.133909 
L 118.7757 80.065732 
L 123.068575 93.481493 
L 127.36145 106.596734 
L 131.654324 119.066375 
L 135.947199 130.28142 
L 140.240074 140.126344 
L 144.532948 148.311037 
L 148.825823 154.995652 
L 153.118698 161.267475 
L 157.411572 167.477508 
L 161.704447 172.254504 
L 165.997322 176.448081 
L 170.290197 180.599055 
L 174.583071 184.015407 
L 178.875946 186.714823 
L 183.168821 188.532535 
L 187.461695 189.501205 
L 191.75457 189.722219 
L 196.047445 189.801898 
L 200.340319 189.798013 
L 204.633194 189.826459 
L 208.926069 189.7381 
L 213.218943 189.740894 
L 217.511818 189.713497 
L 221.804693 189.804081 
L 226.097568 189.791996 
L 230.390442 189.750697 
L 234.683317 189.695377 
L 238.976192 189.735794 
L 243.269066 189.732055 
L 247.561941 189.709705 
L 251.854816 189.752484 
L 256.14769 189.739347 
L 260.440565 189.71745 
L 264.73344 189.75671 
L 269.026314 189.743328 
L 273.319189 189.694652 
L 277.612064 189.692126 
L 281.904939 189.733872 
L 286.197813 189.739781 
L 290.490688 189.757797 
L 294.783563 189.760442 
L 299.076437 189.769913 
L 303.369312 189.711894 
L 307.662187 189.712391 
L 311.955061 189.701991 
L 316.247936 189.67619 
L 320.540811 189.741465 
L 324.833686 189.718576 
L 329.12656 189.667072 
L 333.419435 189.699731 
L 337.71231 189.717294 
L 342.005184 189.735766 
L 346.298059 189.706273 
L 350.590934 189.738422 
L 354.883808 189.747492 
L 359.176683 189.742109 
L 363.469558 189.761042 
L 367.762432 189.747981 
L 372.055307 189.725028 
L 376.348182 189.74604 
L 380.641057 189.750658 
L 384.933931 189.749535 
L 389.226806 189.735576 
L 393.519681 189.72868 
L 397.812555 189.745682 
L 402.10543 189.751246 
L 406.398305 189.753937 
L 410.691179 189.7514 
L 414.984054 189.747419 
L 419.276929 189.72556 
L 423.569803 189.753374 
L 427.862678 189.741121 
L 432.155553 189.736073 
L 436.448428 189.741363 
L 440.741302 189.741873 
L 445.034177 189.729047 
L 449.327052 189.723484 
L 453.619926 189.725995 
L 457.912801 189.736037 
L 462.205676 189.742199 
L 466.49855 189.738221 
L 470.791425 189.744388 
L 475.0843 189.741907 
L 479.377174 189.734405 
L 483.670049 189.738012 
L 487.962924 189.742466 
L 492.255799 189.744461 
L 496.548673 189.741514 
L 500.841548 189.738662 
L 505.134423 189.747932 
L 509.427297 189.747694 
L 513.720172 189.74715 
L 518.013047 189.750472 
L 522.305921 189.752082 
L 526.598796 189.749042 
L 530.891671 189.747881 
L 535.184545 189.749444 
" clip-path="url(#p31d3fbfd9e)" style="fill: none; stroke: #08306b; stroke-opacity: 0.85; stroke-width: 1.5; stroke-linecap: square"/>
   </g>
   <g id="patch_3">
    <path d="M 34.85 295.344 
L 34.85 7.2 
" style="fill: none; stroke: #000000; stroke-width: 0.8; stroke-linejoin: miter; stroke-linecap: square"/>
   </g>
   <g id="patch_4">
    <path d="M 34.85 295.344 
L 559.01 295.344 
" style="fill: none; stroke: #000000; stroke-width: 0.8; stroke-linejoin: miter; stroke-linecap: square"/>
   </g>
   <g id="line2d_101">
    <path d="M 67.261204 153.648723 
L 97.311327 272.666364 
L 127.36145 282.141591 
L 157.411572 282.07684 
L 187.461695 282.114559 
L 217.511818 282.143855 
L 247.561941 282.154258 
L 277.612064 282.109838 
L 307.662187 282.186053 
L 337.71231 282.206743 
L 367.762432 282.196919 
L 397.812555 282.207768 
L 427.862678 282.197108 
L 457.912801 282.195934 
L 535.184545 282.22668 
" clip-path="url(#p31d3fbfd9e)" style="fill: none"/>
    <defs>
     <path id="mb3de91749d" d="M 0 -2.25 
L -1.948557 -1.125 
L -1.948557 1.125 
L -0 2.25 
L 1.948557 1.125 
L 1.948557 -1.125 
z
" style="stroke: #cb6020; stroke-linejoin: miter"/>
    </defs>
    <g clip-path="url(#p31d3fbfd9e)">
     <use xlink:href="#mb3de91749d" x="67.261204" y="153.648723" style="fill: #cb6020; stroke: #cb6020; stroke-linejoin: miter"/>
     <use xlink:href="#mb3de91749d" x="97.311327" y="272.666364" style="fill: #cb6020; stroke: #cb6020; stroke-linejoin: miter"/>
     <use xlink:href="#mb3de91749d" x="127.36145" y="282.141591" style="fill: #cb6020; stroke: #cb6020; stroke-linejoin: miter"/>
     <use xlink:href="#mb3de91749d" x="157.411572" y="282.07684" style="fill: #cb6020; stroke: #cb6020; stroke-linejoin: miter"/>
     <use xlink:href="#mb3de91749d" x="187.461695" y="282.114559" style="fill: #cb6020; stroke: #cb6020; stroke-linejoin: miter"/>
     <use xlink:href="#mb3de91749d" x="217.511818" y="282.143855" style="fill: #cb6020; stroke: #cb6020; stroke-linejoin: miter"/>
     <use xlink:href="#mb3de91749d" x="247.561941" y="282.154258" style="fill: #cb6020; stroke: #cb6020; stroke-linejoin: miter"/>
     <use xlink:href="#mb3de91749d" x="277.612064" y="282.109838" style="fill: #cb6020; stroke: #cb6020; stroke-linejoin: miter"/>
     <use xlink:href="#mb3de91749d" x="307.662187" y="282.186053" style="fill: #cb6020; stroke: #cb6020; stroke-linejoin: miter"/>
     <use xlink:href="#mb3de91749d" x="337.71231" y="282.206743" style="fill: #cb6020; stroke: #cb6020; stroke-linejoin: miter"/>
     <use xlink:href="#mb3de91749d" x="367.762432" y="282.196919" style="fill: #cb6020; stroke: #cb6020; stroke-linejoin: miter"/>
     <use xlink:href="#mb3de91749d" x="397.812555" y="282.207768" style="fill: #cb6020; stroke: #cb6020; stroke-linejoin: miter"/>
     <use xlink:href="#mb3de91749d" x="427.862678" y="282.197108" style="fill: #cb6020; stroke: #cb6020; stroke-linejoin: miter"/>
     <use xlink:href="#mb3de91749d" x="457.912801" y="282.195934" style="fill: #cb6020; stroke: #cb6020; stroke-linejoin: miter"/>
     <use xlink:href="#mb3de91749d" x="535.184545" y="282.22668" style="fill: #cb6020; stroke: #cb6020; stroke-linejoin: miter"/>
    </g>
   </g>
   <g id="line2d_102">
    <path d="M 75.846953 203.147326 
L 114.482826 281.24238 
L 153.118698 281.373975 
L 191.75457 281.469398 
L 230.390442 281.428082 
L 269.026314 281.488307 
L 307.662187 281.430826 
L 346.298059 281.438763 
L 384.933931 281.484635 
L 423.569803 281.446257 
L 462.205676 281.461819 
L 500.841548 281.458358 
L 535.184545 281.464799 
" clip-path="url(#p31d3fbfd9e)" style="fill: none"/>
    <defs>
     <path id="m9e3637427d" d="M -0 3.181981 
L 3.181981 0 
L 0 -3.181981 
L -3.181981 -0 
z
" style="stroke: #000000; stroke-linejoin: miter"/>
    </defs>
    <g clip-path="url(#p31d3fbfd9e)">
     <use xlink:href="#m9e3637427d" x="75.846953" y="203.147326" style="stroke: #000000; stroke-linejoin: miter"/>
     <use xlink:href="#m9e3637427d" x="114.482826" y="281.24238" style="stroke: #000000; stroke-linejoin: miter"/>
     <use xlink:href="#m9e3637427d" x="153.118698" y="281.373975" style="stroke: #000000; stroke-linejoin: miter"/>
     <use xlink:href="#m9e3637427d" x="191.75457" y="281.469398" style="stroke: #000000; stroke-linejoin: miter"/>
     <use xlink:href="#m9e3637427d" x="230.390442" y="281.428082" style="stroke: #000000; stroke-linejoin: miter"/>
     <use xlink:href="#m9e3637427d" x="269.026314" y="281.488307" style="stroke: #000000; stroke-linejoin: miter"/>
     <use xlink:href="#m9e3637427d" x="307.662187" y="281.430826" style="stroke: #000000; stroke-linejoin: miter"/>
     <use xlink:href="#m9e3637427d" x="346.298059" y="281.438763" style="stroke: #000000; stroke-linejoin: miter"/>
     <use xlink:href="#m9e3637427d" x="384.933931" y="281.484635" style="stroke: #000000; stroke-linejoin: miter"/>
     <use xlink:href="#m9e3637427d" x="423.569803" y="281.446257" style="stroke: #000000; stroke-linejoin: miter"/>
     <use xlink:href="#m9e3637427d" x="462.205676" y="281.461819" style="stroke: #000000; stroke-linejoin: miter"/>
     <use xlink:href="#m9e3637427d" x="500.841548" y="281.458358" style="stroke: #000000; stroke-linejoin: miter"/>
     <use xlink:href="#m9e3637427d" x="535.184545" y="281.464799" style="stroke: #000000; stroke-linejoin: miter"/>
    </g>
   </g>
   <g id="line2d_103">
    <path d="M 84.432703 157.505436 
L 131.654324 241.331292 
L 178.875946 263.722488 
L 226.097568 263.7341 
L 273.319189 263.735597 
L 320.540811 263.739159 
L 367.762432 263.737311 
L 414.984054 263.740805 
L 462.205676 263.737067 
L 509.427297 263.739992 
L 535.184545 263.73659 
" clip-path="url(#p31d3fbfd9e)" style="fill: none"/>
    <defs>
     <path id="m712f692f1a" d="M -2.25 2.25 
L 2.25 2.25 
L 2.25 -2.25 
L -2.25 -2.25 
z
" style="stroke: #a50f15; stroke-linejoin: miter"/>
    </defs>
    <g clip-path="url(#p31d3fbfd9e)">
     <use xlink:href="#m712f692f1a" x="84.432703" y="157.505436" style="fill: #a50f15; stroke: #a50f15; stroke-linejoin: miter"/>
     <use xlink:href="#m712f692f1a" x="131.654324" y="241.331292" style="fill: #a50f15; stroke: #a50f15; stroke-linejoin: miter"/>
     <use xlink:href="#m712f692f1a" x="178.875946" y="263.722488" style="fill: #a50f15; stroke: #a50f15; stroke-linejoin: miter"/>
     <use xlink:href="#m712f692f1a" x="226.097568" y="263.7341" style="fill: #a50f15; stroke: #a50f15; stroke-linejoin: miter"/>
     <use xlink:href="#m712f692f1a" x="273.319189" y="263.735597" style="fill: #a50f15; stroke: #a50f15; stroke-linejoin: miter"/>
     <use xlink:href="#m712f692f1a" x="320.540811" y="263.739159" style="fill: #a50f15; stroke: #a50f15; stroke-linejoin: miter"/>
     <use xlink:href="#m712f692f1a" x="367.762432" y="263.737311" style="fill: #a50f15; stroke: #a50f15; stroke-linejoin: miter"/>
     <use xlink:href="#m712f692f1a" x="414.984054" y="263.740805" style="fill: #a50f15; stroke: #a50f15; stroke-linejoin: miter"/>
     <use xlink:href="#m712f692f1a" x="462.205676" y="263.737067" style="fill: #a50f15; stroke: #a50f15; stroke-linejoin: miter"/>
     <use xlink:href="#m712f692f1a" x="509.427297" y="263.739992" style="fill: #a50f15; stroke: #a50f15; stroke-linejoin: miter"/>
     <use xlink:href="#m712f692f1a" x="535.184545" y="263.73659" style="fill: #a50f15; stroke: #a50f15; stroke-linejoin: miter"/>
    </g>
   </g>
   <g id="line2d_104">
    <path d="M 93.018452 30.158021 
L 148.825823 159.555301 
L 204.633194 189.853367 
L 260.440565 189.766129 
L 316.247936 189.744464 
L 372.055307 189.804406 
L 427.862678 189.815619 
L 483.670049 189.822504 
L 535.184545 189.816869 
" clip-path="url(#p31d3fbfd9e)" style="fill: none"/>
    <defs>
     <path id="ma554165b9d" d="M -1.25 2.5 
L 0 1.25 
L 1.25 2.5 
L 2.5 1.25 
L 1.25 0 
L 2.5 -1.25 
L 1.25 -2.5 
L 0 -1.25 
L -1.25 -2.5 
L -2.5 -1.25 
L -1.25 0 
L -2.5 1.25 
z
" style="stroke: #2171b5; stroke-linejoin: miter"/>
    </defs>
    <g clip-path="url(#p31d3fbfd9e)">
     <use xlink:href="#ma554165b9d" x="93.018452" y="30.158021" style="fill: #2171b5; stroke: #2171b5; stroke-linejoin: miter"/>
     <use xlink:href="#ma554165b9d" x="148.825823" y="159.555301" style="fill: #2171b5; stroke: #2171b5; stroke-linejoin: miter"/>
     <use xlink:href="#ma554165b9d" x="204.633194" y="189.853367" style="fill: #2171b5; stroke: #2171b5; stroke-linejoin: miter"/>
     <use xlink:href="#ma554165b9d" x="260.440565" y="189.766129" style="fill: #2171b5; stroke: #2171b5; stroke-linejoin: miter"/>
     <use xlink:href="#ma554165b9d" x="316.247936" y="189.744464" style="fill: #2171b5; stroke: #2171b5; stroke-linejoin: miter"/>
     <use xlink:href="#ma554165b9d" x="372.055307" y="189.804406" style="fill: #2171b5; stroke: #2171b5; stroke-linejoin: miter"/>
     <use xlink:href="#ma554165b9d" x="427.862678" y="189.815619" style="fill: #2171b5; stroke: #2171b5; stroke-linejoin: miter"/>
     <use xlink:href="#ma554165b9d" x="483.670049" y="189.822504" style="fill: #2171b5; stroke: #2171b5; stroke-linejoin: miter"/>
     <use xlink:href="#ma554165b9d" x="535.184545" y="189.816869" style="fill: #2171b5; stroke: #2171b5; stroke-linejoin: miter"/>
    </g>
   </g>
   <g id="line2d_105">
    <path d="M 71.554079 99.996018 
L 105.897076 100.352398 
L 140.240074 113.966582 
L 174.583071 161.409022 
L 208.926069 180.744754 
L 243.269066 189.751296 
L 277.612064 189.754808 
L 311.955061 189.768275 
L 346.298059 189.762211 
L 380.641057 189.77891 
L 414.984054 189.798138 
L 449.327052 189.777075 
L 483.670049 189.792002 
L 518.013047 189.792082 
L 535.184545 189.78861 
" clip-path="url(#p31d3fbfd9e)" style="fill: none"/>
    <defs>
     <path id="ma32dff3e5c" d="M 0 -2.25 
L -2.25 2.25 
L 2.25 2.25 
z
" style="stroke: #0e6655; stroke-linejoin: miter"/>
    </defs>
    <g clip-path="url(#p31d3fbfd9e)">
     <use xlink:href="#ma32dff3e5c" x="71.554079" y="99.996018" style="fill: #0e6655; stroke: #0e6655; stroke-linejoin: miter"/>
     <use xlink:href="#ma32dff3e5c" x="105.897076" y="100.352398" style="fill: #0e6655; stroke: #0e6655; stroke-linejoin: miter"/>
     <use xlink:href="#ma32dff3e5c" x="140.240074" y="113.966582" style="fill: #0e6655; stroke: #0e6655; stroke-linejoin: miter"/>
     <use xlink:href="#ma32dff3e5c" x="174.583071" y="161.409022" style="fill: #0e6655; stroke: #0e6655; stroke-linejoin: miter"/>
     <use xlink:href="#ma32dff3e5c" x="208.926069" y="180.744754" style="fill: #0e6655; stroke: #0e6655; stroke-linejoin: miter"/>
     <use xlink:href="#ma32dff3e5c" x="243.269066" y="189.751296" style="fill: #0e6655; stroke: #0e6655; stroke-linejoin: miter"/>
     <use xlink:href="#ma32dff3e5c" x="277.612064" y="189.754808" style="fill: #0e6655; stroke: #0e6655; stroke-linejoin: miter"/>
     <use xlink:href="#ma32dff3e5c" x="311.955061" y="189.768275" style="fill: #0e6655; stroke: #0e6655; stroke-linejoin: miter"/>
     <use xlink:href="#ma32dff3e5c" x="346.298059" y="189.762211" style="fill: #0e6655; stroke: #0e6655; stroke-linejoin: miter"/>
     <use xlink:href="#ma32dff3e5c" x="380.641057" y="189.77891" style="fill: #0e6655; stroke: #0e6655; stroke-linejoin: miter"/>
     <use xlink:href="#ma32dff3e5c" x="414.984054" y="189.798138" style="fill: #0e6655; stroke: #0e6655; stroke-linejoin: miter"/>
     <use xlink:href="#ma32dff3e5c" x="449.327052" y="189.777075" style="fill: #0e6655; stroke: #0e6655; stroke-linejoin: miter"/>
     <use xlink:href="#ma32dff3e5c" x="483.670049" y="189.792002" style="fill: #0e6655; stroke: #0e6655; stroke-linejoin: miter"/>
     <use xlink:href="#ma32dff3e5c" x="518.013047" y="189.792082" style="fill: #0e6655; stroke: #0e6655; stroke-linejoin: miter"/>
     <use xlink:href="#ma32dff3e5c" x="535.184545" y="189.78861" style="fill: #0e6655; stroke: #0e6655; stroke-linejoin: miter"/>
    </g>
   </g>
   <g id="line2d_106">
    <path d="M 80.139828 24.309064 
L 123.068575 93.481493 
L 165.997322 176.448081 
L 208.926069 189.7381 
L 251.854816 189.752484 
L 294.783563 189.760442 
L 337.71231 189.717294 
L 380.641057 189.750658 
L 423.569803 189.753374 
L 466.49855 189.738221 
L 509.427297 189.747694 
L 535.184545 189.749444 
" clip-path="url(#p31d3fbfd9e)" style="fill: none"/>
    <defs>
     <path id="m3e6cf89c62" d="M 0 2.25 
C 0.596707 2.25 1.169055 2.012926 1.59099 1.59099 
C 2.012926 1.169055 2.25 0.596707 2.25 0 
C 2.25 -0.596707 2.012926 -1.169055 1.59099 -1.59099 
C 1.169055 -2.012926 0.596707 -2.25 0 -2.25 
C -0.596707 -2.25 -1.169055 -2.012926 -1.59099 -1.59099 
C -2.012926 -1.169055 -2.25 -0.596707 -2.25 0 
C -2.25 0.596707 -2.012926 1.169055 -1.59099 1.59099 
C -1.169055 2.012926 -0.596707 2.25 0 2.25 
z
" style="stroke: #08306b"/>
    </defs>
    <g clip-path="url(#p31d3fbfd9e)">
     <use xlink:href="#m3e6cf89c62" x="80.139828" y="24.309064" style="fill: #08306b; stroke: #08306b"/>
     <use xlink:href="#m3e6cf89c62" x="123.068575" y="93.481493" style="fill: #08306b; stroke: #08306b"/>
     <use xlink:href="#m3e6cf89c62" x="165.997322" y="176.448081" style="fill: #08306b; stroke: #08306b"/>
     <use xlink:href="#m3e6cf89c62" x="208.926069" y="189.7381" style="fill: #08306b; stroke: #08306b"/>
     <use xlink:href="#m3e6cf89c62" x="251.854816" y="189.752484" style="fill: #08306b; stroke: #08306b"/>
     <use xlink:href="#m3e6cf89c62" x="294.783563" y="189.760442" style="fill: #08306b; stroke: #08306b"/>
     <use xlink:href="#m3e6cf89c62" x="337.71231" y="189.717294" style="fill: #08306b; stroke: #08306b"/>
     <use xlink:href="#m3e6cf89c62" x="380.641057" y="189.750658" style="fill: #08306b; stroke: #08306b"/>
     <use xlink:href="#m3e6cf89c62" x="423.569803" y="189.753374" style="fill: #08306b; stroke: #08306b"/>
     <use xlink:href="#m3e6cf89c62" x="466.49855" y="189.738221" style="fill: #08306b; stroke: #08306b"/>
     <use xlink:href="#m3e6cf89c62" x="509.427297" y="189.747694" style="fill: #08306b; stroke: #08306b"/>
     <use xlink:href="#m3e6cf89c62" x="535.184545" y="189.749444" style="fill: #08306b; stroke: #08306b"/>
    </g>
   </g>
   <g id="legend_1">
    <g id="patch_5">
     <path d="M 473.526875 75.6775 
L 554.11 75.6775 
Q 555.51 75.6775 555.51 74.2775 
L 555.51 12.1 
Q 555.51 10.7 554.11 10.7 
L 473.526875 10.7 
Q 472.126875 10.7 472.126875 12.1 
L 472.126875 74.2775 
Q 472.126875 75.6775 473.526875 75.6775 
z
" style="fill: #ffffff; opacity: 0.85; stroke: #cccccc; stroke-linejoin: miter"/>
    </g>
    <g id="line2d_107">
     <path d="M 474.926875 16.368906 
L 483.326875 16.368906 
L 491.726875 16.368906 
" style="fill: none"/>
     <g>
      <use xlink:href="#mb3de91749d" x="483.326875" y="16.368906" style="fill: #cb6020; stroke: #cb6020; stroke-linejoin: miter"/>
     </g>
    </g>
    <g id="text_14">
     <!-- `rich` -->
     <g transform="translate(497.326875 18.818906) scale(0.07 -0.07)">
      <defs>
       <path id="DejaVuSans-60" d="M 1147 5119 
L 2028 3950 
L 1550 3950 
L 531 5119 
L 1147 5119 
z
" transform="scale(0.015625)"/>
       <path id="DejaVuSans-63" d="M 3122 3366 
L 3122 2828 
Q 2878 2963 2633 3030 
Q 2388 3097 2138 3097 
Q 1578 3097 1268 2742 
Q 959 2388 959 1747 
Q 959 1106 1268 751 
Q 1578 397 2138 397 
Q 2388 397 2633 464 
Q 2878 531 3122 666 
L 3122 134 
Q 2881 22 2623 -34 
Q 2366 -91 2075 -91 
Q 1284 -91 818 406 
Q 353 903 353 1747 
Q 353 2603 823 3093 
Q 1294 3584 2113 3584 
Q 2378 3584 2631 3529 
Q 2884 3475 3122 3366 
z
" transform="scale(0.015625)"/>
       <path id="DejaVuSans-68" d="M 3513 2113 
L 3513 0 
L 2938 0 
L 2938 2094 
Q 2938 2591 2744 2837 
Q 2550 3084 2163 3084 
Q 1697 3084 1428 2787 
Q 1159 2491 1159 1978 
L 1159 0 
L 581 0 
L 581 4863 
L 1159 4863 
L 1159 2956 
Q 1366 3272 1645 3428 
Q 1925 3584 2291 3584 
Q 2894 3584 3203 3211 
Q 3513 2838 3513 2113 
z
" transform="scale(0.015625)"/>
      </defs>
      <use xlink:href="#DejaVuSans-60"/>
      <use xlink:href="#DejaVuSans-72" transform="translate(50 0)"/>
      <use xlink:href="#DejaVuSans-69" transform="translate(91.113281 0)"/>
      <use xlink:href="#DejaVuSans-63" transform="translate(118.896484 0)"/>
      <use xlink:href="#DejaVuSans-68" transform="translate(173.876953 0)"/>
      <use xlink:href="#DejaVuSans-60" transform="translate(237.255859 0)"/>
     </g>
    </g>
    <g id="line2d_108">
     <path d="M 474.926875 26.923594 
L 483.326875 26.923594 
L 491.726875 26.923594 
" style="fill: none"/>
     <g>
      <use xlink:href="#m9e3637427d" x="483.326875" y="26.923594" style="stroke: #000000; stroke-linejoin: miter"/>
     </g>
    </g>
    <g id="text_15">
     <!-- `real_rich` -->
     <g transform="translate(497.326875 29.373594) scale(0.07 -0.07)">
      <defs>
       <path id="DejaVuSans-5f" d="M 3263 -1063 
L 3263 -1509 
L -63 -1509 
L -63 -1063 
L 3263 -1063 
z
" transform="scale(0.015625)"/>
      </defs>
      <use xlink:href="#DejaVuSans-60"/>
      <use xlink:href="#DejaVuSans-72" transform="translate(50 0)"/>
      <use xlink:href="#DejaVuSans-65" transform="translate(88.863281 0)"/>
      <use xlink:href="#DejaVuSans-61" transform="translate(150.386719 0)"/>
      <use xlink:href="#DejaVuSans-6c" transform="translate(211.666016 0)"/>
      <use xlink:href="#DejaVuSans-5f" transform="translate(239.449219 0)"/>
      <use xlink:href="#DejaVuSans-72" transform="translate(289.449219 0)"/>
      <use xlink:href="#DejaVuSans-69" transform="translate(330.5625 0)"/>
      <use xlink:href="#DejaVuSans-63" transform="translate(358.345703 0)"/>
      <use xlink:href="#DejaVuSans-68" transform="translate(413.326172 0)"/>
      <use xlink:href="#DejaVuSans-60" transform="translate(476.705078 0)"/>
     </g>
    </g>
    <g id="line2d_109">
     <path d="M 474.926875 37.392969 
L 483.326875 37.392969 
L 491.726875 37.392969 
" style="fill: none"/>
     <g>
      <use xlink:href="#m712f692f1a" x="483.326875" y="37.392969" style="fill: #a50f15; stroke: #a50f15; stroke-linejoin: miter"/>
     </g>
    </g>
    <g id="text_16">
     <!-- `blocked` -->
     <g transform="translate(497.326875 39.842969) scale(0.07 -0.07)">
      <defs>
       <path id="DejaVuSans-6b" d="M 581 4863 
L 1159 4863 
L 1159 1991 
L 2875 3500 
L 3609 3500 
L 1753 1863 
L 3688 0 
L 2938 0 
L 1159 1709 
L 1159 0 
L 581 0 
L 581 4863 
z
" transform="scale(0.015625)"/>
       <path id="DejaVuSans-64" d="M 2906 2969 
L 2906 4863 
L 3481 4863 
L 3481 0 
L 2906 0 
L 2906 525 
Q 2725 213 2448 61 
Q 2172 -91 1784 -91 
Q 1150 -91 751 415 
Q 353 922 353 1747 
Q 353 2572 751 3078 
Q 1150 3584 1784 3584 
Q 2172 3584 2448 3432 
Q 2725 3281 2906 2969 
z
M 947 1747 
Q 947 1113 1208 752 
Q 1469 391 1925 391 
Q 2381 391 2643 752 
Q 2906 1113 2906 1747 
Q 2906 2381 2643 2742 
Q 2381 3103 1925 3103 
Q 1469 3103 1208 2742 
Q 947 2381 947 1747 
z
" transform="scale(0.015625)"/>
      </defs>
      <use xlink:href="#DejaVuSans-60"/>
      <use xlink:href="#DejaVuSans-62" transform="translate(50 0)"/>
      <use xlink:href="#DejaVuSans-6c" transform="translate(113.476562 0)"/>
      <use xlink:href="#DejaVuSans-6f" transform="translate(141.259766 0)"/>
      <use xlink:href="#DejaVuSans-63" transform="translate(202.441406 0)"/>
      <use xlink:href="#DejaVuSans-6b" transform="translate(257.421875 0)"/>
      <use xlink:href="#DejaVuSans-65" transform="translate(311.707031 0)"/>
      <use xlink:href="#DejaVuSans-64" transform="translate(373.230469 0)"/>
      <use xlink:href="#DejaVuSans-60" transform="translate(436.707031 0)"/>
     </g>
    </g>
    <g id="line2d_110">
     <path d="M 474.926875 47.947656 
L 483.326875 47.947656 
L 491.726875 47.947656 
" style="fill: none"/>
     <g>
      <use xlink:href="#ma554165b9d" x="483.326875" y="47.947656" style="fill: #2171b5; stroke: #2171b5; stroke-linejoin: miter"/>
     </g>
    </g>
    <g id="text_17">
     <!-- `entangled_qft` -->
     <g transform="translate(497.326875 50.397656) scale(0.07 -0.07)">
      <defs>
       <path id="DejaVuSans-71" d="M 947 1747 
Q 947 1113 1208 752 
Q 1469 391 1925 391 
Q 2381 391 2643 752 
Q 2906 1113 2906 1747 
Q 2906 2381 2643 2742 
Q 2381 3103 1925 3103 
Q 1469 3103 1208 2742 
Q 947 2381 947 1747 
z
M 2906 525 
Q 2725 213 2448 61 
Q 2172 -91 1784 -91 
Q 1150 -91 751 415 
Q 353 922 353 1747 
Q 353 2572 751 3078 
Q 1150 3584 1784 3584 
Q 2172 3584 2448 3432 
Q 2725 3281 2906 2969 
L 2906 3500 
L 3481 3500 
L 3481 -1331 
L 2906 -1331 
L 2906 525 
z
" transform="scale(0.015625)"/>
       <path id="DejaVuSans-66" d="M 2375 4863 
L 2375 4384 
L 1825 4384 
Q 1516 4384 1395 4259 
Q 1275 4134 1275 3809 
L 1275 3500 
L 2222 3500 
L 2222 3053 
L 1275 3053 
L 1275 0 
L 697 0 
L 697 3053 
L 147 3053 
L 147 3500 
L 697 3500 
L 697 3744 
Q 697 4328 969 4595 
Q 1241 4863 1831 4863 
L 2375 4863 
z
" transform="scale(0.015625)"/>
      </defs>
      <use xlink:href="#DejaVuSans-60"/>
      <use xlink:href="#DejaVuSans-65" transform="translate(50 0)"/>
      <use xlink:href="#DejaVuSans-6e" transform="translate(111.523438 0)"/>
      <use xlink:href="#DejaVuSans-74" transform="translate(174.902344 0)"/>
      <use xlink:href="#DejaVuSans-61" transform="translate(214.111328 0)"/>
      <use xlink:href="#DejaVuSans-6e" transform="translate(275.390625 0)"/>
      <use xlink:href="#DejaVuSans-67" transform="translate(338.769531 0)"/>
      <use xlink:href="#DejaVuSans-6c" transform="translate(402.246094 0)"/>
      <use xlink:href="#DejaVuSans-65" transform="translate(430.029297 0)"/>
      <use xlink:href="#DejaVuSans-64" transform="translate(491.552734 0)"/>
      <use xlink:href="#DejaVuSans-5f" transform="translate(555.029297 0)"/>
      <use xlink:href="#DejaVuSans-71" transform="translate(605.029297 0)"/>
      <use xlink:href="#DejaVuSans-66" transform="translate(668.505859 0)"/>
      <use xlink:href="#DejaVuSans-74" transform="translate(701.960938 0)"/>
      <use xlink:href="#DejaVuSans-60" transform="translate(741.169922 0)"/>
     </g>
    </g>
    <g id="line2d_111">
     <path d="M 474.926875 58.417031 
L 483.326875 58.417031 
L 491.726875 58.417031 
" style="fill: none"/>
     <g>
      <use xlink:href="#ma32dff3e5c" x="483.326875" y="58.417031" style="fill: #0e6655; stroke: #0e6655; stroke-linejoin: miter"/>
     </g>
    </g>
    <g id="text_18">
     <!-- `tebd` -->
     <g transform="translate(497.326875 60.867031) scale(0.07 -0.07)">
      <use xlink:href="#DejaVuSans-60"/>
      <use xlink:href="#DejaVuSans-74" transform="translate(50 0)"/>
      <use xlink:href="#DejaVuSans-65" transform="translate(89.208984 0)"/>
      <use xlink:href="#DejaVuSans-62" transform="translate(150.732422 0)"/>
      <use xlink:href="#DejaVuSans-64" transform="translate(214.208984 0)"/>
      <use xlink:href="#DejaVuSans-60" transform="translate(277.685547 0)"/>
     </g>
    </g>
    <g id="line2d_112">
     <path d="M 474.926875 68.971719 
L 483.326875 68.971719 
L 491.726875 68.971719 
" style="fill: none"/>
     <g>
      <use xlink:href="#m3e6cf89c62" x="483.326875" y="68.971719" style="fill: #08306b; stroke: #08306b"/>
     </g>
    </g>
    <g id="text_19">
     <!-- `qft` -->
     <g transform="translate(497.326875 71.421719) scale(0.07 -0.07)">
      <use xlink:href="#DejaVuSans-60"/>
      <use xlink:href="#DejaVuSans-71" transform="translate(50 0)"/>
      <use xlink:href="#DejaVuSans-66" transform="translate(113.476562 0)"/>
      <use xlink:href="#DejaVuSans-74" transform="translate(146.931641 0)"/>
      <use xlink:href="#DejaVuSans-60" transform="translate(186.140625 0)"/>
     </g>
    </g>
   </g>
  </g>
 </g>
 <defs>
  <clipPath id="p31d3fbfd9e">
   <rect x="34.85" y="7.2" width="524.16" height="288.144"/>
  </clipPath>
 </defs>
</svg>
