<?xml version="1.0" encoding="utf-8" standalone="no"?>
<!DOCTYPE svg PUBLIC "-//W3C//DTD SVG 1.1//EN"
  "http://www.w3.org/Graphics/SVG/1.1/DTD/svg11.dtd">
<svg xmlns:xlink="http://www.w3.org/1999/xlink" width="493.524033pt" height="380.79625pt" viewBox="0 0 493.524033 380.79625" xmlns="http://www.w3.org/2000/svg" version="1.1">
 <metadata>
  <rdf:RDF xmlns:dc="http://purl.org/dc/elements/1.1/" xmlns:cc="http://creativecommons.org/ns#" xmlns:rdf="http://www.w3.org/1999/02/22-rdf-syntax-ns#">
   <cc:Work>
    <dc:type rdf:resource="http://purl.org/dc/dcmitype/StillImage"/>
    <dc:date>2026-05-27T12:50:58.497369</dc:date>
    <dc:format>image/svg+xml</dc:format>
    <dc:creator>
     <cc:Agent>
      <dc:title>Matplotlib v3.10.9, https://matplotlib.org/</dc:title>
     </cc:Agent>
    </dc:creator>
   </cc:Work>
  </rdf:RDF>
 </metadata>
 <defs>
  <style type="text/css">*{stroke-linejoin: round; stroke-linecap: butt}</style>
 </defs>
 <g id="figure_1">
  <g id="patch_1">
   <path d="M 0 380.79625 
L 493.524033 380.79625 
L 493.524033 0 
L 0 0 
z
" style="fill: #ffffff"/>
  </g>
  <g id="axes_1">
   <g id="patch_2">
    <path d="M 51.8 168.07 
L 473.786096 168.07 
L 473.786096 7.2 
L 51.8 7.2 
z
" style="fill: #ffffff"/>
   </g>
   <g id="matplotlib.axis_1">
    <g id="xtick_1">
     <g id="line2d_1">
      <path d="M 70.693396 168.07 
L 70.693396 7.2 
" clip-path="url(#pbddbdab5f4)" style="fill: none; stroke: #b0b0b0; stroke-opacity: 0.25; stroke-width: 0.5; stroke-linecap: square"/>
     </g>
     <g id="line2d_2">
      <defs>
       <path id="mcf20beb918" d="M 0 0 
L 0 3.5 
" style="stroke: #000000; stroke-width: 0.8"/>
      </defs>
      <g>
       <use xlink:href="#mcf20beb918" x="70.693396" y="168.07" style="stroke: #000000; stroke-width: 0.8"/>
      </g>
     </g>
    </g>
    <g id="xtick_2">
     <g id="line2d_3">
      <path d="M 128.251345 168.07 
L 128.251345 7.2 
" clip-path="url(#pbddbdab5f4)" style="fill: none; stroke: #b0b0b0; stroke-opacity: 0.25; stroke-width: 0.5; stroke-linecap: square"/>
     </g>
     <g id="line2d_4">
      <g>
       <use xlink:href="#mcf20beb918" x="128.251345" y="168.07" style="stroke: #000000; stroke-width: 0.8"/>
      </g>
     </g>
    </g>
    <g id="xtick_3">
     <g id="line2d_5">
      <path d="M 185.809293 168.07 
L 185.809293 7.2 
" clip-path="url(#pbddbdab5f4)" style="fill: none; stroke: #b0b0b0; stroke-opacity: 0.25; stroke-width: 0.5; stroke-linecap: square"/>
     </g>
     <g id="line2d_6">
      <g>
       <use xlink:href="#mcf20beb918" x="185.809293" y="168.07" style="stroke: #000000; stroke-width: 0.8"/>
      </g>
     </g>
    </g>
    <g id="xtick_4">
     <g id="line2d_7">
      <path d="M 243.367241 168.07 
L 243.367241 7.2 
" clip-path="url(#pbddbdab5f4)" style="fill: none; stroke: #b0b0b0; stroke-opacity: 0.25; stroke-width: 0.5; stroke-linecap: square"/>
     </g>
     <g id="line2d_8">
      <g>
       <use xlink:href="#mcf20beb918" x="243.367241" y="168.07" style="stroke: #000000; stroke-width: 0.8"/>
      </g>
     </g>
    </g>
    <g id="xtick_5">
     <g id="line2d_9">
      <path d="M 300.925189 168.07 
L 300.925189 7.2 
" clip-path="url(#pbddbdab5f4)" style="fill: none; stroke: #b0b0b0; stroke-opacity: 0.25; stroke-width: 0.5; stroke-linecap: square"/>
     </g>
     <g id="line2d_10">
      <g>
       <use xlink:href="#mcf20beb918" x="300.925189" y="168.07" style="stroke: #000000; stroke-width: 0.8"/>
      </g>
     </g>
    </g>
    <g id="xtick_6">
     <g id="line2d_11">
      <path d="M 358.483137 168.07 
L 358.483137 7.2 
" clip-path="url(#pbddbdab5f4)" style="fill: none; stroke: #b0b0b0; stroke-opacity: 0.25; stroke-width: 0.5; stroke-linecap: square"/>
     </g>
     <g id="line2d_12">
      <g>
       <use xlink:href="#mcf20beb918" x="358.483137" y="168.07" style="stroke: #000000; stroke-width: 0.8"/>
      </g>
     </g>
    </g>
    <g id="xtick_7">
     <g id="line2d_13">
      <path d="M 416.041085 168.07 
L 416.041085 7.2 
" clip-path="url(#pbddbdab5f4)" style="fill: none; stroke: #b0b0b0; stroke-opacity: 0.25; stroke-width: 0.5; stroke-linecap: square"/>
     </g>
     <g id="line2d_14">
      <g>
       <use xlink:href="#mcf20beb918" x="416.041085" y="168.07" style="stroke: #000000; stroke-width: 0.8"/>
      </g>
     </g>
    </g>
    <g id="xtick_8">
     <g id="line2d_15">
      <path d="M 473.599033 168.07 
L 473.599033 7.2 
" clip-path="url(#pbddbdab5f4)" style="fill: none; stroke: #b0b0b0; stroke-opacity: 0.25; stroke-width: 0.5; stroke-linecap: square"/>
     </g>
     <g id="line2d_16">
      <g>
       <use xlink:href="#mcf20beb918" x="473.599033" y="168.07" style="stroke: #000000; stroke-width: 0.8"/>
      </g>
     </g>
    </g>
   </g>
   <g id="matplotlib.axis_2">
    <g id="ytick_1">
     <g id="line2d_17">
      <path d="M 51.8 166.376527 
L 473.786096 166.376527 
" clip-path="url(#pbddbdab5f4)" style="fill: none; stroke: #b0b0b0; stroke-opacity: 0.25; stroke-width: 0.5; stroke-linecap: square"/>
     </g>
     <g id="line2d_18">
      <defs>
       <path id="m447d593745" d="M 0 0 
L -3.5 0 
" style="stroke: #000000; stroke-width: 0.8"/>
      </defs>
      <g>
       <use xlink:href="#m447d593745" x="51.8" y="166.376527" style="stroke: #000000; stroke-width: 0.8"/>
      </g>
     </g>
     <g id="text_1">
      <!-- 6 -->
      <g transform="translate(38.4375 170.175745) scale(0.1 -0.1)">
       <defs>
        <path id="DejaVuSans-36" d="M 2113 2584 
Q 1688 2584 1439 2293 
Q 1191 2003 1191 1497 
Q 1191 994 1439 701 
Q 1688 409 2113 409 
Q 2538 409 2786 701 
Q 3034 994 3034 1497 
Q 3034 2003 2786 2293 
Q 2538 2584 2113 2584 
z
M 3366 4563 
L 3366 3988 
Q 3128 4100 2886 4159 
Q 2644 4219 2406 4219 
Q 1781 4219 1451 3797 
Q 1122 3375 1075 2522 
Q 1259 2794 1537 2939 
Q 1816 3084 2150 3084 
Q 2853 3084 3261 2657 
Q 3669 2231 3669 1497 
Q 3669 778 3244 343 
Q 2819 -91 2113 -91 
Q 1303 -91 875 529 
Q 447 1150 447 2328 
Q 447 3434 972 4092 
Q 1497 4750 2381 4750 
Q 2619 4750 2861 4703 
Q 3103 4656 3366 4563 
z
" transform="scale(0.015625)"/>
       </defs>
       <use xlink:href="#DejaVuSans-36"/>
      </g>
     </g>
    </g>
    <g id="ytick_2">
     <g id="line2d_19">
      <path d="M 51.8 140.903044 
L 473.786096 140.903044 
" clip-path="url(#pbddbdab5f4)" style="fill: none; stroke: #b0b0b0; stroke-opacity: 0.25; stroke-width: 0.5; stroke-linecap: square"/>
     </g>
     <g id="line2d_20">
      <g>
       <use xlink:href="#m447d593745" x="51.8" y="140.903044" style="stroke: #000000; stroke-width: 0.8"/>
      </g>
     </g>
     <g id="text_2">
      <!-- 8 -->
      <g transform="translate(38.4375 144.702263) scale(0.1 -0.1)">
       <defs>
        <path id="DejaVuSans-38" d="M 2034 2216 
Q 1584 2216 1326 1975 
Q 1069 1734 1069 1313 
Q 1069 891 1326 650 
Q 1584 409 2034 409 
Q 2484 409 2743 651 
Q 3003 894 3003 1313 
Q 3003 1734 2745 1975 
Q 2488 2216 2034 2216 
z
M 1403 2484 
Q 997 2584 770 2862 
Q 544 3141 544 3541 
Q 544 4100 942 4425 
Q 1341 4750 2034 4750 
Q 2731 4750 3128 4425 
Q 3525 4100 3525 3541 
Q 3525 3141 3298 2862 
Q 3072 2584 2669 2484 
Q 3125 2378 3379 2068 
Q 3634 1759 3634 1313 
Q 3634 634 3220 271 
Q 2806 -91 2034 -91 
Q 1263 -91 848 271 
Q 434 634 434 1313 
Q 434 1759 690 2068 
Q 947 2378 1403 2484 
z
M 1172 3481 
Q 1172 3119 1398 2916 
Q 1625 2713 2034 2713 
Q 2441 2713 2670 2916 
Q 2900 3119 2900 3481 
Q 2900 3844 2670 4047 
Q 2441 4250 2034 4250 
Q 1625 4250 1398 4047 
Q 1172 3844 1172 3481 
z
" transform="scale(0.015625)"/>
       </defs>
       <use xlink:href="#DejaVuSans-38"/>
      </g>
     </g>
    </g>
    <g id="ytick_3">
     <g id="line2d_21">
      <path d="M 51.8 115.429562 
L 473.786096 115.429562 
" clip-path="url(#pbddbdab5f4)" style="fill: none; stroke: #b0b0b0; stroke-opacity: 0.25; stroke-width: 0.5; stroke-linecap: square"/>
     </g>
     <g id="line2d_22">
      <g>
       <use xlink:href="#m447d593745" x="51.8" y="115.429562" style="stroke: #000000; stroke-width: 0.8"/>
      </g>
     </g>
     <g id="text_3">
      <!-- 10 -->
      <g transform="translate(32.075 119.228781) scale(0.1 -0.1)">
       <defs>
        <path id="DejaVuSans-31" d="M 794 531 
L 1825 531 
L 1825 4091 
L 703 3866 
L 703 4441 
L 1819 4666 
L 2450 4666 
L 2450 531 
L 3481 531 
L 3481 0 
L 794 0 
L 794 531 
z
" transform="scale(0.015625)"/>
        <path id="DejaVuSans-30" d="M 2034 4250 
Q 1547 4250 1301 3770 
Q 1056 3291 1056 2328 
Q 1056 1369 1301 889 
Q 1547 409 2034 409 
Q 2525 409 2770 889 
Q 3016 1369 3016 2328 
Q 3016 3291 2770 3770 
Q 2525 4250 2034 4250 
z
M 2034 4750 
Q 2819 4750 3233 4129 
Q 3647 3509 3647 2328 
Q 3647 1150 3233 529 
Q 2819 -91 2034 -91 
Q 1250 -91 836 529 
Q 422 1150 422 2328 
Q 422 3509 836 4129 
Q 1250 4750 2034 4750 
z
" transform="scale(0.015625)"/>
       </defs>
       <use xlink:href="#DejaVuSans-31"/>
       <use xlink:href="#DejaVuSans-30" transform="translate(63.623047 0)"/>
      </g>
     </g>
    </g>
    <g id="ytick_4">
     <g id="line2d_23">
      <path d="M 51.8 89.956079 
L 473.786096 89.956079 
" clip-path="url(#pbddbdab5f4)" style="fill: none; stroke: #b0b0b0; stroke-opacity: 0.25; stroke-width: 0.5; stroke-linecap: square"/>
     </g>
     <g id="line2d_24">
      <g>
       <use xlink:href="#m447d593745" x="51.8" y="89.956079" style="stroke: #000000; stroke-width: 0.8"/>
      </g>
     </g>
     <g id="text_4">
      <!-- 12 -->
      <g transform="translate(32.075 93.755298) scale(0.1 -0.1)">
       <defs>
        <path id="DejaVuSans-32" d="M 1228 531 
L 3431 531 
L 3431 0 
L 469 0 
L 469 531 
Q 828 903 1448 1529 
Q 2069 2156 2228 2338 
Q 2531 2678 2651 2914 
Q 2772 3150 2772 3378 
Q 2772 3750 2511 3984 
Q 2250 4219 1831 4219 
Q 1534 4219 1204 4116 
Q 875 4013 500 3803 
L 500 4441 
Q 881 4594 1212 4672 
Q 1544 4750 1819 4750 
Q 2544 4750 2975 4387 
Q 3406 4025 3406 3419 
Q 3406 3131 3298 2873 
Q 3191 2616 2906 2266 
Q 2828 2175 2409 1742 
Q 1991 1309 1228 531 
z
" transform="scale(0.015625)"/>
       </defs>
       <use xlink:href="#DejaVuSans-31"/>
       <use xlink:href="#DejaVuSans-32" transform="translate(63.623047 0)"/>
      </g>
     </g>
    </g>
    <g id="ytick_5">
     <g id="line2d_25">
      <path d="M 51.8 64.482597 
L 473.786096 64.482597 
" clip-path="url(#pbddbdab5f4)" style="fill: none; stroke: #b0b0b0; stroke-opacity: 0.25; stroke-width: 0.5; stroke-linecap: square"/>
     </g>
     <g id="line2d_26">
      <g>
       <use xlink:href="#m447d593745" x="51.8" y="64.482597" style="stroke: #000000; stroke-width: 0.8"/>
      </g>
     </g>
     <g id="text_5">
      <!-- 14 -->
      <g transform="translate(32.075 68.281816) scale(0.1 -0.1)">
       <defs>
        <path id="DejaVuSans-34" d="M 2419 4116 
L 825 1625 
L 2419 1625 
L 2419 4116 
z
M 2253 4666 
L 3047 4666 
L 3047 1625 
L 3713 1625 
L 3713 1100 
L 3047 1100 
L 3047 0 
L 2419 0 
L 2419 1100 
L 313 1100 
L 313 1709 
L 2253 4666 
z
" transform="scale(0.015625)"/>
       </defs>
       <use xlink:href="#DejaVuSans-31"/>
       <use xlink:href="#DejaVuSans-34" transform="translate(63.623047 0)"/>
      </g>
     </g>
    </g>
    <g id="ytick_6">
     <g id="line2d_27">
      <path d="M 51.8 39.009115 
L 473.786096 39.009115 
" clip-path="url(#pbddbdab5f4)" style="fill: none; stroke: #b0b0b0; stroke-opacity: 0.25; stroke-width: 0.5; stroke-linecap: square"/>
     </g>
     <g id="line2d_28">
      <g>
       <use xlink:href="#m447d593745" x="51.8" y="39.009115" style="stroke: #000000; stroke-width: 0.8"/>
      </g>
     </g>
     <g id="text_6">
      <!-- 16 -->
      <g transform="translate(32.075 42.808333) scale(0.1 -0.1)">
       <use xlink:href="#DejaVuSans-31"/>
       <use xlink:href="#DejaVuSans-36" transform="translate(63.623047 0)"/>
      </g>
     </g>
    </g>
    <g id="ytick_7">
     <g id="line2d_29">
      <path d="M 51.8 13.535632 
L 473.786096 13.535632 
" clip-path="url(#pbddbdab5f4)" style="fill: none; stroke: #b0b0b0; stroke-opacity: 0.25; stroke-width: 0.5; stroke-linecap: square"/>
     </g>
     <g id="line2d_30">
      <g>
       <use xlink:href="#m447d593745" x="51.8" y="13.535632" style="stroke: #000000; stroke-width: 0.8"/>
      </g>
     </g>
     <g id="text_7">
      <!-- 18 -->
      <g transform="translate(32.075 17.334851) scale(0.1 -0.1)">
       <use xlink:href="#DejaVuSans-31"/>
       <use xlink:href="#DejaVuSans-38" transform="translate(63.623047 0)"/>
      </g>
     </g>
    </g>
    <g id="text_8">
     <!-- top-$k$ MSE loss -->
     <g transform="translate(25.975 124.035) rotate(-90) scale(0.1 -0.1)">
      <defs>
       <path id="DejaVuSans-74" d="M 1172 4494 
L 1172 3500 
L 2356 3500 
L 2356 3053 
L 1172 3053 
L 1172 1153 
Q 1172 725 1289 603 
Q 1406 481 1766 481 
L 2356 481 
L 2356 0 
L 1766 0 
Q 1100 0 847 248 
Q 594 497 594 1153 
L 594 3053 
L 172 3053 
L 172 3500 
L 594 3500 
L 594 4494 
L 1172 4494 
z
" transform="scale(0.015625)"/>
       <path id="DejaVuSans-6f" d="M 1959 3097 
Q 1497 3097 1228 2736 
Q 959 2375 959 1747 
Q 959 1119 1226 758 
Q 1494 397 1959 397 
Q 2419 397 2687 759 
Q 2956 1122 2956 1747 
Q 2956 2369 2687 2733 
Q 2419 3097 1959 3097 
z
M 1959 3584 
Q 2709 3584 3137 3096 
Q 3566 2609 3566 1747 
Q 3566 888 3137 398 
Q 2709 -91 1959 -91 
Q 1206 -91 779 398 
Q 353 888 353 1747 
Q 353 2609 779 3096 
Q 1206 3584 1959 3584 
z
" transform="scale(0.015625)"/>
       <path id="DejaVuSans-70" d="M 1159 525 
L 1159 -1331 
L 581 -1331 
L 581 3500 
L 1159 3500 
L 1159 2969 
Q 1341 3281 1617 3432 
Q 1894 3584 2278 3584 
Q 2916 3584 3314 3078 
Q 3713 2572 3713 1747 
Q 3713 922 3314 415 
Q 2916 -91 2278 -91 
Q 1894 -91 1617 61 
Q 1341 213 1159 525 
z
M 3116 1747 
Q 3116 2381 2855 2742 
Q 2594 3103 2138 3103 
Q 1681 3103 1420 2742 
Q 1159 2381 1159 1747 
Q 1159 1113 1420 752 
Q 1681 391 2138 391 
Q 2594 391 2855 752 
Q 3116 1113 3116 1747 
z
" transform="scale(0.015625)"/>
       <path id="DejaVuSans-2d" d="M 313 2009 
L 1997 2009 
L 1997 1497 
L 313 1497 
L 313 2009 
z
" transform="scale(0.015625)"/>
       <path id="DejaVuSans-Oblique-6b" d="M 1172 4863 
L 1747 4863 
L 1197 2028 
L 3169 3500 
L 3916 3500 
L 1716 1825 
L 3322 0 
L 2625 0 
L 1131 1709 
L 800 0 
L 225 0 
L 1172 4863 
z
" transform="scale(0.015625)"/>
       <path id="DejaVuSans-20" transform="scale(0.015625)"/>
       <path id="DejaVuSans-4d" d="M 628 4666 
L 1569 4666 
L 2759 1491 
L 3956 4666 
L 4897 4666 
L 4897 0 
L 4281 0 
L 4281 4097 
L 3078 897 
L 2444 897 
L 1241 4097 
L 1241 0 
L 628 0 
L 628 4666 
z
" transform="scale(0.015625)"/>
       <path id="DejaVuSans-53" d="M 3425 4513 
L 3425 3897 
Q 3066 4069 2747 4153 
Q 2428 4238 2131 4238 
Q 1616 4238 1336 4038 
Q 1056 3838 1056 3469 
Q 1056 3159 1242 3001 
Q 1428 2844 1947 2747 
L 2328 2669 
Q 3034 2534 3370 2195 
Q 3706 1856 3706 1288 
Q 3706 609 3251 259 
Q 2797 -91 1919 -91 
Q 1588 -91 1214 -16 
Q 841 59 441 206 
L 441 856 
Q 825 641 1194 531 
Q 1563 422 1919 422 
Q 2459 422 2753 634 
Q 3047 847 3047 1241 
Q 3047 1584 2836 1778 
Q 2625 1972 2144 2069 
L 1759 2144 
Q 1053 2284 737 2584 
Q 422 2884 422 3419 
Q 422 4038 858 4394 
Q 1294 4750 2059 4750 
Q 2388 4750 2728 4690 
Q 3069 4631 3425 4513 
z
" transform="scale(0.015625)"/>
       <path id="DejaVuSans-45" d="M 628 4666 
L 3578 4666 
L 3578 4134 
L 1259 4134 
L 1259 2753 
L 3481 2753 
L 3481 2222 
L 1259 2222 
L 1259 531 
L 3634 531 
L 3634 0 
L 628 0 
L 628 4666 
z
" transform="scale(0.015625)"/>
       <path id="DejaVuSans-6c" d="M 603 4863 
L 1178 4863 
L 1178 0 
L 603 0 
L 603 4863 
z
" transform="scale(0.015625)"/>
       <path id="DejaVuSans-73" d="M 2834 3397 
L 2834 2853 
Q 2591 2978 2328 3040 
Q 2066 3103 1784 3103 
Q 1356 3103 1142 2972 
Q 928 2841 928 2578 
Q 928 2378 1081 2264 
Q 1234 2150 1697 2047 
L 1894 2003 
Q 2506 1872 2764 1633 
Q 3022 1394 3022 966 
Q 3022 478 2636 193 
Q 2250 -91 1575 -91 
Q 1294 -91 989 -36 
Q 684 19 347 128 
L 347 722 
Q 666 556 975 473 
Q 1284 391 1588 391 
Q 1994 391 2212 530 
Q 2431 669 2431 922 
Q 2431 1156 2273 1281 
Q 2116 1406 1581 1522 
L 1381 1569 
Q 847 1681 609 1914 
Q 372 2147 372 2553 
Q 372 3047 722 3315 
Q 1072 3584 1716 3584 
Q 2034 3584 2315 3537 
Q 2597 3491 2834 3397 
z
" transform="scale(0.015625)"/>
      </defs>
      <use xlink:href="#DejaVuSans-74" transform="translate(0 0.015625)"/>
      <use xlink:href="#DejaVuSans-6f" transform="translate(39.208984 0.015625)"/>
      <use xlink:href="#DejaVuSans-70" transform="translate(100.390625 0.015625)"/>
      <use xlink:href="#DejaVuSans-2d" transform="translate(163.867188 0.015625)"/>
      <use xlink:href="#DejaVuSans-Oblique-6b" transform="translate(199.951172 0.015625)"/>
      <use xlink:href="#DejaVuSans-20" transform="translate(257.861328 0.015625)"/>
      <use xlink:href="#DejaVuSans-4d" transform="translate(289.648438 0.015625)"/>
      <use xlink:href="#DejaVuSans-53" transform="translate(375.927734 0.015625)"/>
      <use xlink:href="#DejaVuSans-45" transform="translate(439.404297 0.015625)"/>
      <use xlink:href="#DejaVuSans-20" transform="translate(502.587891 0.015625)"/>
      <use xlink:href="#DejaVuSans-6c" transform="translate(534.375 0.015625)"/>
      <use xlink:href="#DejaVuSans-6f" transform="translate(562.158203 0.015625)"/>
      <use xlink:href="#DejaVuSans-73" transform="translate(623.339844 0.015625)"/>
      <use xlink:href="#DejaVuSans-73" transform="translate(675.439453 0.015625)"/>
     </g>
    </g>
   </g>
   <g id="line2d_31">
    <path d="M 70.981186 14.55426 
L 72.995714 14.714048 
L 74.722453 15.083064 
L 76.161402 15.59255 
L 77.60035 16.319847 
L 79.039299 17.325371 
L 80.190458 18.393084 
L 81.341617 19.717786 
L 82.492776 21.355109 
L 83.931725 23.813164 
L 85.082883 26.188772 
L 86.521832 29.664645 
L 88.248571 34.538917 
L 89.975309 40.086076 
L 91.989837 47.267154 
L 94.579945 57.507182 
L 97.745632 70.022375 
L 100.04795 78.290034 
L 101.774688 83.798806 
L 103.213637 87.772115 
L 104.652586 91.149812 
L 106.091535 93.917442 
L 107.530483 96.111698 
L 108.969432 97.820399 
L 110.408381 99.119678 
L 111.847329 100.087333 
L 113.286278 100.781941 
L 115.013016 101.345133 
L 117.027545 101.736684 
L 119.617652 101.989299 
L 123.646709 102.123492 
L 132.280401 102.29019 
L 133.14377 102.640665 
L 134.007139 103.224402 
L 134.870509 104.148172 
L 135.733878 105.438549 
L 136.597247 107.108598 
L 137.748406 109.964482 
L 138.899565 113.437486 
L 140.050724 117.578246 
L 141.489673 123.77649 
L 142.928621 131.010892 
L 145.230939 144.008097 
L 146.669888 151.708208 
L 147.533257 155.375574 
L 148.396626 158.032623 
L 148.972206 159.236432 
L 149.547785 160.031703 
L 150.123365 160.496457 
L 150.698944 160.699973 
L 151.562313 160.705435 
L 155.01579 160.314276 
L 157.893688 160.605428 
L 160.483795 160.728138 
L 170.844226 160.750064 
L 172.570965 160.744907 
L 212.861528 160.753633 
L 213.149318 160.678095 
L 213.437108 160.75601 
L 214.012687 160.713213 
L 214.588267 160.729803 
L 216.602795 160.749443 
L 221.49522 160.749311 
L 224.085328 160.755588 
L 224.373118 160.636315 
L 224.660908 160.756582 
L 225.236487 160.67986 
L 225.812066 160.730946 
L 226.387646 160.722931 
L 227.251015 160.715342 
L 229.265543 160.7534 
L 232.143441 160.750877 
L 235.884707 160.755474 
L 236.172497 160.639419 
L 236.460287 160.75668 
L 236.748077 160.661039 
L 238.474815 160.753899 
L 239.625974 160.752329 
L 242.503871 160.751154 
L 263.224733 160.751623 
L 266.965999 160.754215 
L 267.253789 160.608902 
L 267.541579 160.756661 
L 267.829369 160.635682 
L 269.556107 160.747208 
L 270.995056 160.737427 
L 277.03864 160.740227 
L 278.765379 160.748239 
L 279.053168 160.620808 
L 279.340958 160.740986 
L 279.628748 160.651296 
L 281.355486 160.746932 
L 282.218856 160.74684 
L 292.003707 160.756268 
L 292.291496 160.51414 
L 292.579286 160.756892 
L 292.867076 160.573756 
L 293.154866 160.585975 
L 293.442655 160.729528 
L 296.896132 160.740432 
L 298.910661 160.739473 
L 304.378666 160.755739 
L 304.666455 160.472255 
L 304.954245 160.757694 
L 305.242035 160.51479 
L 306.105404 160.675081 
L 306.393194 160.597121 
L 306.968773 160.755345 
L 307.544353 160.655032 
L 308.407722 160.720765 
L 308.983301 160.720358 
L 309.846671 160.718203 
L 314.163517 160.755481 
L 319.919312 160.756901 
L 320.207101 160.42959 
L 320.494891 160.757594 
L 320.782681 160.480301 
L 321.070471 160.54679 
L 321.35826 160.746673 
L 321.93384 160.567495 
L 322.509419 160.755847 
L 323.372788 160.690641 
L 323.948368 160.731504 
L 324.523947 160.70315 
L 325.099527 160.75118 
L 325.962896 160.742208 
L 327.977424 160.742065 
L 331.143111 160.755739 
L 331.430901 160.463536 
L 331.718691 160.757617 
L 332.006481 160.51192 
L 332.29427 160.574265 
L 332.58206 160.750983 
L 333.15764 160.589885 
L 333.733219 160.754416 
L 334.308799 160.651251 
L 335.172168 160.723315 
L 335.747747 160.716826 
L 336.611116 160.720148 
L 343.230281 160.755257 
L 346.683757 160.756975 
L 346.971547 160.453665 
L 347.259337 160.757716 
L 347.547127 160.498945 
L 348.410496 160.680583 
L 348.698286 160.582328 
L 349.273865 160.754864 
L 350.137234 160.693907 
L 350.712814 160.733543 
L 351.288393 160.705414 
L 352.151762 160.723026 
L 356.468609 160.751667 
L 357.907557 160.755681 
L 358.195347 160.465405 
L 358.483137 160.757505 
L 358.770926 160.514202 
L 359.634296 160.673614 
L 359.922085 160.593021 
L 360.497665 160.75652 
L 361.073244 160.655351 
L 361.648824 160.756295 
L 362.512193 160.722242 
L 363.375562 160.718218 
L 364.526721 160.735988 
L 364.814511 160.475124 
L 365.102301 160.755451 
L 365.390091 160.555807 
L 366.25346 160.647007 
L 366.541249 160.634593 
L 366.829039 160.740617 
L 368.843567 160.732808 
L 370.570306 160.737425 
L 381.794106 160.757591 
L 382.081895 160.381491 
L 382.369685 160.757727 
L 382.657475 160.450841 
L 382.945265 160.501486 
L 383.233054 160.735314 
L 384.096424 160.625933 
L 384.384213 160.750138 
L 385.247583 160.659062 
L 385.823162 160.74303 
L 386.398742 160.682539 
L 387.262111 160.730008 
L 388.701059 160.730904 
L 394.456854 160.756343 
L 394.744644 160.385482 
L 395.032434 160.757658 
L 395.320224 160.461813 
L 395.608013 160.520693 
L 395.895803 160.741716 
L 396.471382 160.547368 
L 397.046962 160.755744 
L 397.910331 160.679761 
L 398.485911 160.730222 
L 399.06149 160.694795 
L 399.63707 160.748872 
L 400.500439 160.737546 
L 402.227177 160.750804 
L 405.105075 160.751158 
L 411.436449 160.757014 
L 411.724239 160.375238 
L 412.012028 160.75759 
L 412.299818 160.447436 
L 412.587608 160.502942 
L 412.875398 160.73691 
L 413.738767 160.632427 
L 414.026557 160.75103 
L 414.889926 160.667992 
L 415.465505 160.733139 
L 416.041085 160.687765 
L 416.904454 160.721507 
L 418.918982 160.752202 
L 420.070141 160.750968 
L 420.357931 160.434368 
L 420.645721 160.757525 
L 420.93351 160.498821 
L 421.79688 160.657486 
L 422.084669 160.579611 
L 422.660249 160.74577 
L 423.235828 160.653881 
L 423.811408 160.740461 
L 424.674777 160.732161 
L 428.416044 160.75281 
L 429.279413 160.749029 
L 429.279413 160.749029 
" clip-path="url(#pbddbdab5f4)" style="fill: none; stroke: #0072b2; stroke-width: 1.4; stroke-linecap: square"/>
   </g>
   <g id="line2d_32">
    <path d="M 429.279413 160.749029 
" clip-path="url(#pbddbdab5f4)" style="fill: none; stroke: #0072b2; stroke-width: 1.5; stroke-linecap: square"/>
    <defs>
     <path id="md6f7418d76" d="M 0 2 
C 0.530406 2 1.03916 1.789267 1.414214 1.414214 
C 1.789267 1.03916 2 0.530406 2 0 
C 2 -0.530406 1.789267 -1.03916 1.414214 -1.414214 
C 1.03916 -1.789267 0.530406 -2 0 -2 
C -0.530406 -2 -1.03916 -1.789267 -1.414214 -1.414214 
C -1.789267 -1.03916 -2 -0.530406 -2 0 
C -2 0.530406 -1.789267 1.03916 -1.414214 1.414214 
C -1.03916 1.789267 -0.530406 2 0 2 
z
" style="stroke: #0072b2"/>
    </defs>
    <g clip-path="url(#pbddbdab5f4)">
     <use xlink:href="#md6f7418d76" x="429.279413" y="160.749029" style="fill: #0072b2; stroke: #0072b2"/>
    </g>
   </g>
   <g id="line2d_33">
    <path d="M 70.981186 14.55426 
L 72.995714 14.714048 
L 74.722453 15.083064 
L 76.161402 15.59255 
L 77.60035 16.319847 
L 79.039299 17.325371 
L 80.190458 18.393084 
L 81.341617 19.717786 
L 82.492776 21.355109 
L 83.931725 23.813164 
L 85.082883 26.188772 
L 86.521832 29.664645 
L 88.248571 34.538917 
L 89.975309 40.086076 
L 91.989837 47.267154 
L 94.579945 57.507182 
L 97.745632 70.022375 
L 100.04795 78.290034 
L 101.774688 83.798806 
L 103.213637 87.772115 
L 104.652586 91.149812 
L 106.091535 93.917442 
L 107.530483 96.111698 
L 108.969432 97.820399 
L 110.408381 99.119678 
L 111.847329 100.087333 
L 113.286278 100.781941 
L 115.013016 101.345133 
L 117.027545 101.736684 
L 119.617652 101.989299 
L 123.646709 102.123492 
L 134.294929 102.158567 
L 141.489673 102.163185 
L 157.318108 102.177883 
L 172.858754 102.182855 
L 176.024441 102.183559 
L 239.625974 102.102547 
L 239.913764 102.223276 
L 240.201553 102.191028 
L 241.064923 102.649287 
L 241.640502 103.241343 
L 242.503871 104.669292 
L 243.367241 106.878272 
L 244.23061 109.90968 
L 245.093979 113.77702 
L 246.245138 120.238777 
L 247.396297 128.337718 
L 248.835246 140.418117 
L 250.274194 152.751745 
L 250.849774 156.449259 
L 251.425353 158.990483 
L 252.000933 160.362992 
L 252.288723 160.659896 
L 252.576512 160.749752 
L 253.152092 160.515604 
L 254.87883 159.132604 
L 255.45441 159.042394 
L 256.029989 159.171472 
L 257.181148 159.778679 
L 258.332307 160.381276 
L 259.195676 160.646992 
L 260.346835 160.753061 
L 268.692738 160.754834 
L 268.980528 160.578131 
L 269.268317 160.755223 
L 269.556107 160.607652 
L 271.282845 160.753456 
L 272.146215 160.719465 
L 273.009584 160.719281 
L 277.902009 160.751255 
L 281.931066 160.754816 
L 282.218856 160.573547 
L 282.506645 160.755248 
L 282.794435 160.60808 
L 284.521173 160.752746 
L 285.384543 160.721103 
L 286.247912 160.714296 
L 289.413599 160.753933 
L 298.622871 160.754773 
L 299.77403 160.75507 
L 300.061819 160.558374 
L 300.349609 160.755267 
L 300.637399 160.594522 
L 302.364137 160.751328 
L 303.227507 160.712152 
L 303.803086 160.738736 
L 304.666455 160.746817 
L 307.832142 160.745428 
L 308.119932 160.611988 
L 308.407722 160.752589 
L 308.695512 160.650514 
L 310.42225 160.737567 
L 311.573409 160.735811 
L 319.055942 160.754021 
L 320.494891 160.754485 
L 320.782681 160.522712 
L 321.070471 160.755673 
L 321.35826 160.576557 
L 323.372788 160.721615 
L 323.948368 160.703436 
L 324.523947 160.741697 
L 325.387317 160.745139 
L 333.15764 160.757102 
L 337.474486 160.757154 
L 337.762275 160.496917 
L 338.050065 160.757497 
L 338.337855 160.543785 
L 338.625645 160.589076 
L 338.913434 160.746989 
L 339.776804 160.676212 
L 340.352383 160.719983 
L 340.927963 160.699203 
L 341.503542 160.74228 
L 342.079122 160.709759 
L 342.942491 160.732007 
L 345.820388 160.744206 
L 348.122706 160.7532 
L 348.410496 160.538151 
L 348.698286 160.75741 
L 348.986075 160.576489 
L 349.849445 160.681554 
L 350.137234 160.636448 
L 350.712814 160.752606 
L 351.288393 160.685314 
L 351.863973 160.7518 
L 352.727342 160.743808 
L 355.605239 160.750572 
L 361.361034 160.757262 
L 364.238932 160.756986 
L 364.526721 160.495876 
L 364.814511 160.757416 
L 365.102301 160.538282 
L 365.96567 160.692638 
L 366.25346 160.605951 
L 367.116829 160.713338 
L 367.692408 160.702128 
L 368.267988 160.737414 
L 368.843567 160.712372 
L 369.706937 160.727171 
L 375.174942 160.75309 
L 380.067367 160.756875 
L 380.355157 160.468426 
L 380.642947 160.757405 
L 380.930736 160.50384 
L 381.794106 160.676757 
L 382.081895 160.592726 
L 382.657475 160.755954 
L 383.520844 160.70542 
L 384.096424 160.730355 
L 384.672003 160.7126 
L 385.535372 160.721582 
L 392.442326 160.756176 
L 392.730116 160.448801 
L 393.017906 160.757457 
L 393.305695 160.498785 
L 394.169065 160.674392 
L 394.456854 160.581357 
L 395.032434 160.755493 
L 395.608013 160.646693 
L 396.471382 160.727043 
L 397.046962 160.712664 
L 397.910331 160.720149 
L 403.666126 160.755134 
L 403.953916 160.490092 
L 404.241705 160.756904 
L 404.529495 160.544991 
L 405.392864 160.695936 
L 405.680654 160.609253 
L 406.544023 160.710028 
L 407.119603 160.701423 
L 407.695182 160.736043 
L 408.558552 160.74626 
L 416.328875 160.755267 
L 416.616664 160.497781 
L 416.904454 160.75705 
L 417.192244 160.539564 
L 418.055613 160.686444 
L 418.343403 160.613036 
L 418.918982 160.749393 
L 419.782351 160.714639 
L 420.357931 160.728089 
L 421.79688 160.729579 
L 429.279413 160.755713 
L 429.567203 160.444139 
L 429.854992 160.757383 
L 430.142782 160.491004 
L 430.430572 160.562703 
L 430.718362 160.749998 
L 431.293941 160.576332 
L 431.869521 160.755711 
L 432.73289 160.702065 
L 433.308469 160.729045 
L 433.884049 160.709898 
L 434.747418 160.719887 
L 446.259008 160.757167 
L 446.546797 160.238263 
L 446.834587 160.757148 
L 447.122377 160.321161 
L 447.410167 160.415515 
L 447.697956 160.733074 
L 448.273536 160.453761 
L 448.849115 160.747706 
L 449.712484 160.626778 
L 450.288064 160.729955 
L 450.863643 160.663394 
L 451.439223 160.741581 
L 452.590382 160.742106 
L 454.60491 160.735226 
L 454.60491 160.735226 
" clip-path="url(#pbddbdab5f4)" style="fill: none; stroke-dasharray: 5.18,2.24; stroke-dashoffset: 0; stroke: #e69f00; stroke-width: 1.4"/>
   </g>
   <g id="line2d_34">
    <path d="M 454.60491 160.735226 
" clip-path="url(#pbddbdab5f4)" style="fill: none; stroke: #e69f00; stroke-width: 1.5; stroke-linecap: square"/>
    <defs>
     <path id="m10143addd7" d="M 0 2 
C 0.530406 2 1.03916 1.789267 1.414214 1.414214 
C 1.789267 1.03916 2 0.530406 2 0 
C 2 -0.530406 1.789267 -1.03916 1.414214 -1.414214 
C 1.03916 -1.789267 0.530406 -2 0 -2 
C -0.530406 -2 -1.03916 -1.789267 -1.414214 -1.414214 
C -1.789267 -1.03916 -2 -0.530406 -2 0 
C -2 0.530406 -1.789267 1.03916 -1.414214 1.414214 
C -1.03916 1.789267 -0.530406 2 0 2 
z
" style="stroke: #e69f00"/>
    </defs>
    <g clip-path="url(#pbddbdab5f4)">
     <use xlink:href="#m10143addd7" x="454.60491" y="160.735226" style="fill: #e69f00; stroke: #e69f00"/>
    </g>
   </g>
   <g id="line2d_35">
    <path d="M 70.981186 14.55426 
L 142.640832 14.586547 
L 143.216411 14.725683 
L 143.79199 15.102035 
L 144.36757 15.746181 
L 144.943149 16.741662 
L 145.518729 18.162534 
L 146.094308 20.042453 
L 146.957678 23.831029 
L 147.821047 28.685217 
L 148.972206 36.871923 
L 150.123365 46.849726 
L 151.850103 64.459568 
L 155.01579 97.607611 
L 156.166949 107.451087 
L 157.030319 113.335012 
L 157.893688 117.83849 
L 158.757057 121.056266 
L 159.332636 122.575142 
L 159.908216 123.659618 
L 160.483795 124.379763 
L 161.059375 124.817441 
L 161.634954 125.05338 
L 162.498324 125.154461 
L 164.225062 125.036935 
L 166.52738 124.90285 
L 169.405277 124.996421 
L 174.297703 125.137163 
L 178.326759 125.155059 
L 178.614549 125.011671 
L 178.902339 125.155596 
L 179.190129 125.03811 
L 181.204657 125.133219 
L 182.068026 125.152274 
L 187.248241 125.154936 
L 191.565087 125.154787 
L 191.852877 125.002262 
L 192.140667 125.15587 
L 192.428457 125.033902 
L 194.442985 125.124866 
L 195.594144 125.138548 
L 197.320882 125.139392 
L 199.91099 125.151272 
L 201.925518 125.152842 
L 202.213308 124.96117 
L 202.501098 125.155833 
L 202.788887 125.000687 
L 203.652256 125.098263 
L 203.940046 125.050579 
L 204.515626 125.152778 
L 205.378995 125.133691 
L 207.105733 125.140338 
L 210.27142 125.152235 
L 211.998159 125.153073 
L 212.285949 124.946853 
L 212.573738 125.155841 
L 212.861528 124.991392 
L 214.588267 125.152594 
L 215.451636 125.122747 
L 216.602795 125.130753 
L 218.329533 125.148119 
L 218.617323 125.143393 
L 218.905113 125.000267 
L 219.192902 125.15407 
L 219.480692 125.044347 
L 220.919641 125.148488 
L 222.934169 125.146144 
L 231.280072 125.155572 
L 231.567861 124.91069 
L 231.855651 125.156211 
L 232.143441 124.960701 
L 234.157969 125.117107 
L 234.733548 125.104872 
L 235.309128 125.138116 
L 235.884707 125.117142 
L 236.748077 125.127551 
L 243.079451 125.153626 
L 243.367241 124.930019 
L 243.65503 125.156188 
L 243.94282 124.970203 
L 244.806189 125.086813 
L 245.093979 125.031483 
L 245.669559 125.154172 
L 246.245138 125.080036 
L 246.820718 125.152163 
L 247.684087 125.136246 
L 249.410825 125.146086 
L 252.000933 125.149656 
L 252.288723 124.941649 
L 252.576512 125.155845 
L 252.864302 124.990937 
L 253.727671 125.083869 
L 254.015461 125.04478 
L 254.591041 125.146638 
L 255.16662 125.095045 
L 255.742199 125.144872 
L 256.605569 125.147435 
L 268.692738 125.155804 
L 268.980528 124.938985 
L 269.268317 125.156206 
L 269.556107 124.985731 
L 271.570635 125.127724 
L 272.146215 125.10461 
L 272.721794 125.146378 
L 273.585163 125.144475 
L 276.750851 125.1485 
L 284.233384 125.156028 
L 284.521173 125.155582 
L 284.808963 124.945681 
L 285.096753 125.158752 
L 285.384543 124.993198 
L 287.399071 125.121218 
L 288.26244 125.148057 
L 292.003707 125.154454 
L 298.622871 125.15902 
L 298.910661 124.918926 
L 299.19845 125.15958 
L 299.48624 124.981159 
L 299.77403 124.990706 
L 300.061819 125.122458 
L 310.71004 125.157495 
L 310.99783 124.872885 
L 311.285619 125.126108 
L 311.573409 124.919007 
L 312.148989 125.139925 
L 312.724568 125.012604 
L 313.300148 125.14354 
L 314.163517 125.111825 
L 315.026886 125.10467 
L 317.329204 125.143914 
L 323.084999 125.15846 
L 323.372788 124.858722 
L 323.660578 125.159011 
L 323.948368 124.916792 
L 324.236158 124.976033 
L 324.523947 125.149127 
L 325.099527 124.988914 
L 325.675106 125.158247 
L 326.250686 125.0517 
L 327.114055 125.130422 
L 327.689635 125.115237 
L 328.265214 125.14927 
L 329.128583 125.150355 
L 333.445429 125.156247 
L 340.064593 125.15906 
L 340.352383 124.801307 
L 340.640173 125.159596 
L 340.927963 124.866107 
L 341.215752 124.928744 
L 341.503542 125.144909 
L 342.366911 125.045881 
L 342.654701 125.155117 
L 343.51807 125.075815 
L 344.09365 125.140594 
L 344.669229 125.091967 
L 345.532598 125.127679 
L 347.259337 125.133931 
L 349.273865 125.156207 
L 352.151762 125.15598 
L 352.439552 124.849777 
L 352.727342 125.173664 
L 353.015132 124.946504 
L 353.302921 125.078803 
L 353.590711 125.342773 
L 354.166291 125.470832 
L 355.605239 127.050293 
L 356.756398 129.10597 
L 357.619768 131.311017 
L 358.483137 134.410724 
L 359.346506 138.652533 
L 360.209875 144.215633 
L 362.224403 158.284629 
L 362.799983 160.192976 
L 363.087773 160.621371 
L 363.375562 160.742658 
L 363.663352 160.641831 
L 364.238932 159.989574 
L 365.102301 158.959172 
L 365.67788 158.734356 
L 366.25346 158.899616 
L 367.116829 159.562354 
L 368.267988 160.430632 
L 369.131357 160.723222 
L 369.994726 160.742941 
L 372.872624 160.598749 
L 377.18947 160.751871 
L 382.657475 160.757682 
L 382.657475 160.757682 
" clip-path="url(#pbddbdab5f4)" style="fill: none; stroke-dasharray: 8.96,2.24,1.4,2.24; stroke-dashoffset: 0; stroke: #009e73; stroke-width: 1.4"/>
   </g>
   <g id="line2d_36">
    <path d="M 382.657475 160.757682 
" clip-path="url(#pbddbdab5f4)" style="fill: none; stroke: #009e73; stroke-width: 1.5; stroke-linecap: square"/>
    <defs>
     <path id="m48a0a06c55" d="M 0 2 
C 0.530406 2 1.03916 1.789267 1.414214 1.414214 
C 1.789267 1.03916 2 0.530406 2 0 
C 2 -0.530406 1.789267 -1.03916 1.414214 -1.414214 
C 1.03916 -1.789267 0.530406 -2 0 -2 
C -0.530406 -2 -1.03916 -1.789267 -1.414214 -1.414214 
C -1.789267 -1.03916 -2 -0.530406 -2 0 
C -2 0.530406 -1.789267 1.03916 -1.414214 1.414214 
C -1.03916 1.789267 -0.530406 2 0 2 
z
" style="stroke: #009e73"/>
    </defs>
    <g clip-path="url(#pbddbdab5f4)">
     <use xlink:href="#m48a0a06c55" x="382.657475" y="160.757682" style="fill: #009e73; stroke: #009e73"/>
    </g>
   </g>
   <g id="patch_3">
    <path d="M 51.8 168.07 
L 51.8 7.2 
" style="fill: none; stroke: #000000; stroke-width: 0.8; stroke-linejoin: miter; stroke-linecap: square"/>
   </g>
   <g id="patch_4">
    <path d="M 473.786096 168.07 
L 473.786096 7.2 
" style="fill: none; stroke: #000000; stroke-width: 0.8; stroke-linejoin: miter; stroke-linecap: square"/>
   </g>
   <g id="patch_5">
    <path d="M 51.8 168.07 
L 473.786096 168.07 
" style="fill: none; stroke: #000000; stroke-width: 0.8; stroke-linejoin: miter; stroke-linecap: square"/>
   </g>
   <g id="patch_6">
    <path d="M 51.8 7.2 
L 473.786096 7.2 
" style="fill: none; stroke: #000000; stroke-width: 0.8; stroke-linejoin: miter; stroke-linecap: square"/>
   </g>
   <g id="text_9">
    <!-- block-growth: MSE=6.442  PSNR@.20=37.61 dB -->
    <g style="fill: #0072b2" transform="translate(297.88568 20.562406) scale(0.07 -0.07)">
     <defs>
      <path id="DejaVuSans-62" d="M 3116 1747 
Q 3116 2381 2855 2742 
Q 2594 3103 2138 3103 
Q 1681 3103 1420 2742 
Q 1159 2381 1159 1747 
Q 1159 1113 1420 752 
Q 1681 391 2138 391 
Q 2594 391 2855 752 
Q 3116 1113 3116 1747 
z
M 1159 2969 
Q 1341 3281 1617 3432 
Q 1894 3584 2278 3584 
Q 2916 3584 3314 3078 
Q 3713 2572 3713 1747 
Q 3713 922 3314 415 
Q 2916 -91 2278 -91 
Q 1894 -91 1617 61 
Q 1341 213 1159 525 
L 1159 0 
L 581 0 
L 581 4863 
L 1159 4863 
L 1159 2969 
z
" transform="scale(0.015625)"/>
      <path id="DejaVuSans-63" d="M 3122 3366 
L 3122 2828 
Q 2878 2963 2633 3030 
Q 2388 3097 2138 3097 
Q 1578 3097 1268 2742 
Q 959 2388 959 1747 
Q 959 1106 1268 751 
Q 1578 397 2138 397 
Q 2388 397 2633 464 
Q 2878 531 3122 666 
L 3122 134 
Q 2881 22 2623 -34 
Q 2366 -91 2075 -91 
Q 1284 -91 818 406 
Q 353 903 353 1747 
Q 353 2603 823 3093 
Q 1294 3584 2113 3584 
Q 2378 3584 2631 3529 
Q 2884 3475 3122 3366 
z
" transform="scale(0.015625)"/>
      <path id="DejaVuSans-6b" d="M 581 4863 
L 1159 4863 
L 1159 1991 
L 2875 3500 
L 3609 3500 
L 1753 1863 
L 3688 0 
L 2938 0 
L 1159 1709 
L 1159 0 
L 581 0 
L 581 4863 
z
" transform="scale(0.015625)"/>
      <path id="DejaVuSans-67" d="M 2906 1791 
Q 2906 2416 2648 2759 
Q 2391 3103 1925 3103 
Q 1463 3103 1205 2759 
Q 947 2416 947 1791 
Q 947 1169 1205 825 
Q 1463 481 1925 481 
Q 2391 481 2648 825 
Q 2906 1169 2906 1791 
z
M 3481 434 
Q 3481 -459 3084 -895 
Q 2688 -1331 1869 -1331 
Q 1566 -1331 1297 -1286 
Q 1028 -1241 775 -1147 
L 775 -588 
Q 1028 -725 1275 -790 
Q 1522 -856 1778 -856 
Q 2344 -856 2625 -561 
Q 2906 -266 2906 331 
L 2906 616 
Q 2728 306 2450 153 
Q 2172 0 1784 0 
Q 1141 0 747 490 
Q 353 981 353 1791 
Q 353 2603 747 3093 
Q 1141 3584 1784 3584 
Q 2172 3584 2450 3431 
Q 2728 3278 2906 2969 
L 2906 3500 
L 3481 3500 
L 3481 434 
z
" transform="scale(0.015625)"/>
      <path id="DejaVuSans-72" d="M 2631 2963 
Q 2534 3019 2420 3045 
Q 2306 3072 2169 3072 
Q 1681 3072 1420 2755 
Q 1159 2438 1159 1844 
L 1159 0 
L 581 0 
L 581 3500 
L 1159 3500 
L 1159 2956 
Q 1341 3275 1631 3429 
Q 1922 3584 2338 3584 
Q 2397 3584 2469 3576 
Q 2541 3569 2628 3553 
L 2631 2963 
z
" transform="scale(0.015625)"/>
      <path id="DejaVuSans-77" d="M 269 3500 
L 844 3500 
L 1563 769 
L 2278 3500 
L 2956 3500 
L 3675 769 
L 4391 3500 
L 4966 3500 
L 4050 0 
L 3372 0 
L 2619 2869 
L 1863 0 
L 1184 0 
L 269 3500 
z
" transform="scale(0.015625)"/>
      <path id="DejaVuSans-68" d="M 3513 2113 
L 3513 0 
L 2938 0 
L 2938 2094 
Q 2938 2591 2744 2837 
Q 2550 3084 2163 3084 
Q 1697 3084 1428 2787 
Q 1159 2491 1159 1978 
L 1159 0 
L 581 0 
L 581 4863 
L 1159 4863 
L 1159 2956 
Q 1366 3272 1645 3428 
Q 1925 3584 2291 3584 
Q 2894 3584 3203 3211 
Q 3513 2838 3513 2113 
z
" transform="scale(0.015625)"/>
      <path id="DejaVuSans-3a" d="M 750 794 
L 1409 794 
L 1409 0 
L 750 0 
L 750 794 
z
M 750 3309 
L 1409 3309 
L 1409 2516 
L 750 2516 
L 750 3309 
z
" transform="scale(0.015625)"/>
      <path id="DejaVuSans-3d" d="M 678 2906 
L 4684 2906 
L 4684 2381 
L 678 2381 
L 678 2906 
z
M 678 1631 
L 4684 1631 
L 4684 1100 
L 678 1100 
L 678 1631 
z
" transform="scale(0.015625)"/>
      <path id="DejaVuSans-2e" d="M 684 794 
L 1344 794 
L 1344 0 
L 684 0 
L 684 794 
z
" transform="scale(0.015625)"/>
      <path id="DejaVuSans-50" d="M 1259 4147 
L 1259 2394 
L 2053 2394 
Q 2494 2394 2734 2622 
Q 2975 2850 2975 3272 
Q 2975 3691 2734 3919 
Q 2494 4147 2053 4147 
L 1259 4147 
z
M 628 4666 
L 2053 4666 
Q 2838 4666 3239 4311 
Q 3641 3956 3641 3272 
Q 3641 2581 3239 2228 
Q 2838 1875 2053 1875 
L 1259 1875 
L 1259 0 
L 628 0 
L 628 4666 
z
" transform="scale(0.015625)"/>
      <path id="DejaVuSans-4e" d="M 628 4666 
L 1478 4666 
L 3547 763 
L 3547 4666 
L 4159 4666 
L 4159 0 
L 3309 0 
L 1241 3903 
L 1241 0 
L 628 0 
L 628 4666 
z
" transform="scale(0.015625)"/>
      <path id="DejaVuSans-52" d="M 2841 2188 
Q 3044 2119 3236 1894 
Q 3428 1669 3622 1275 
L 4263 0 
L 3584 0 
L 2988 1197 
Q 2756 1666 2539 1819 
Q 2322 1972 1947 1972 
L 1259 1972 
L 1259 0 
L 628 0 
L 628 4666 
L 2053 4666 
Q 2853 4666 3247 4331 
Q 3641 3997 3641 3322 
Q 3641 2881 3436 2590 
Q 3231 2300 2841 2188 
z
M 1259 4147 
L 1259 2491 
L 2053 2491 
Q 2509 2491 2742 2702 
Q 2975 2913 2975 3322 
Q 2975 3731 2742 3939 
Q 2509 4147 2053 4147 
L 1259 4147 
z
" transform="scale(0.015625)"/>
      <path id="DejaVuSans-40" d="M 2381 1678 
Q 2381 1231 2603 976 
Q 2825 722 3213 722 
Q 3597 722 3817 978 
Q 4038 1234 4038 1678 
Q 4038 2116 3813 2373 
Q 3588 2631 3206 2631 
Q 2828 2631 2604 2375 
Q 2381 2119 2381 1678 
z
M 4084 744 
Q 3897 503 3655 389 
Q 3413 275 3091 275 
Q 2553 275 2217 664 
Q 1881 1053 1881 1678 
Q 1881 2303 2218 2693 
Q 2556 3084 3091 3084 
Q 3413 3084 3656 2967 
Q 3900 2850 4084 2613 
L 4084 3022 
L 4531 3022 
L 4531 722 
Q 4988 791 5245 1139 
Q 5503 1488 5503 2041 
Q 5503 2375 5404 2669 
Q 5306 2963 5106 3213 
Q 4781 3622 4314 3839 
Q 3847 4056 3297 4056 
Q 2913 4056 2559 3954 
Q 2206 3853 1906 3653 
Q 1416 3334 1139 2817 
Q 863 2300 863 1697 
Q 863 1200 1042 765 
Q 1222 331 1563 0 
Q 1891 -325 2322 -495 
Q 2753 -666 3244 -666 
Q 3647 -666 4036 -530 
Q 4425 -394 4750 -141 
L 5031 -488 
Q 4641 -791 4180 -952 
Q 3719 -1113 3244 -1113 
Q 2666 -1113 2153 -908 
Q 1641 -703 1241 -313 
Q 841 78 631 592 
Q 422 1106 422 1697 
Q 422 2266 634 2781 
Q 847 3297 1241 3688 
Q 1644 4084 2172 4295 
Q 2700 4506 3291 4506 
Q 3953 4506 4520 4234 
Q 5088 3963 5472 3463 
Q 5706 3156 5829 2797 
Q 5953 2438 5953 2053 
Q 5953 1231 5456 756 
Q 4959 281 4084 263 
L 4084 744 
z
" transform="scale(0.015625)"/>
      <path id="DejaVuSans-33" d="M 2597 2516 
Q 3050 2419 3304 2112 
Q 3559 1806 3559 1356 
Q 3559 666 3084 287 
Q 2609 -91 1734 -91 
Q 1441 -91 1130 -33 
Q 819 25 488 141 
L 488 750 
Q 750 597 1062 519 
Q 1375 441 1716 441 
Q 2309 441 2620 675 
Q 2931 909 2931 1356 
Q 2931 1769 2642 2001 
Q 2353 2234 1838 2234 
L 1294 2234 
L 1294 2753 
L 1863 2753 
Q 2328 2753 2575 2939 
Q 2822 3125 2822 3475 
Q 2822 3834 2567 4026 
Q 2313 4219 1838 4219 
Q 1578 4219 1281 4162 
Q 984 4106 628 3988 
L 628 4550 
Q 988 4650 1302 4700 
Q 1616 4750 1894 4750 
Q 2613 4750 3031 4423 
Q 3450 4097 3450 3541 
Q 3450 3153 3228 2886 
Q 3006 2619 2597 2516 
z
" transform="scale(0.015625)"/>
      <path id="DejaVuSans-37" d="M 525 4666 
L 3525 4666 
L 3525 4397 
L 1831 0 
L 1172 0 
L 2766 4134 
L 525 4134 
L 525 4666 
z
" transform="scale(0.015625)"/>
      <path id="DejaVuSans-64" d="M 2906 2969 
L 2906 4863 
L 3481 4863 
L 3481 0 
L 2906 0 
L 2906 525 
Q 2725 213 2448 61 
Q 2172 -91 1784 -91 
Q 1150 -91 751 415 
Q 353 922 353 1747 
Q 353 2572 751 3078 
Q 1150 3584 1784 3584 
Q 2172 3584 2448 3432 
Q 2725 3281 2906 2969 
z
M 947 1747 
Q 947 1113 1208 752 
Q 1469 391 1925 391 
Q 2381 391 2643 752 
Q 2906 1113 2906 1747 
Q 2906 2381 2643 2742 
Q 2381 3103 1925 3103 
Q 1469 3103 1208 2742 
Q 947 2381 947 1747 
z
" transform="scale(0.015625)"/>
      <path id="DejaVuSans-42" d="M 1259 2228 
L 1259 519 
L 2272 519 
Q 2781 519 3026 730 
Q 3272 941 3272 1375 
Q 3272 1813 3026 2020 
Q 2781 2228 2272 2228 
L 1259 2228 
z
M 1259 4147 
L 1259 2741 
L 2194 2741 
Q 2656 2741 2882 2914 
Q 3109 3088 3109 3444 
Q 3109 3797 2882 3972 
Q 2656 4147 2194 4147 
L 1259 4147 
z
M 628 4666 
L 2241 4666 
Q 2963 4666 3353 4366 
Q 3744 4066 3744 3513 
Q 3744 3084 3544 2831 
Q 3344 2578 2956 2516 
Q 3422 2416 3680 2098 
Q 3938 1781 3938 1306 
Q 3938 681 3513 340 
Q 3088 0 2303 0 
L 628 0 
L 628 4666 
z
" transform="scale(0.015625)"/>
     </defs>
     <use xlink:href="#DejaVuSans-62"/>
     <use xlink:href="#DejaVuSans-6c" transform="translate(63.476562 0)"/>
     <use xlink:href="#DejaVuSans-6f" transform="translate(91.259766 0)"/>
     <use xlink:href="#DejaVuSans-63" transform="translate(152.441406 0)"/>
     <use xlink:href="#DejaVuSans-6b" transform="translate(207.421875 0)"/>
     <use xlink:href="#DejaVuSans-2d" transform="translate(265.332031 0)"/>
     <use xlink:href="#DejaVuSans-67" transform="translate(301.416016 0)"/>
     <use xlink:href="#DejaVuSans-72" transform="translate(364.892578 0)"/>
     <use xlink:href="#DejaVuSans-6f" transform="translate(403.755859 0)"/>
     <use xlink:href="#DejaVuSans-77" transform="translate(464.9375 0)"/>
     <use xlink:href="#DejaVuSans-74" transform="translate(546.724609 0)"/>
     <use xlink:href="#DejaVuSans-68" transform="translate(585.933594 0)"/>
     <use xlink:href="#DejaVuSans-3a" transform="translate(649.3125 0)"/>
     <use xlink:href="#DejaVuSans-20" transform="translate(683.003906 0)"/>
     <use xlink:href="#DejaVuSans-4d" transform="translate(714.791016 0)"/>
     <use xlink:href="#DejaVuSans-53" transform="translate(801.070312 0)"/>
     <use xlink:href="#DejaVuSans-45" transform="translate(864.546875 0)"/>
     <use xlink:href="#DejaVuSans-3d" transform="translate(927.730469 0)"/>
     <use xlink:href="#DejaVuSans-36" transform="translate(1011.519531 0)"/>
     <use xlink:href="#DejaVuSans-2e" transform="translate(1075.142578 0)"/>
     <use xlink:href="#DejaVuSans-34" transform="translate(1106.929688 0)"/>
     <use xlink:href="#DejaVuSans-34" transform="translate(1170.552734 0)"/>
     <use xlink:href="#DejaVuSans-32" transform="translate(1234.175781 0)"/>
     <use xlink:href="#DejaVuSans-20" transform="translate(1297.798828 0)"/>
     <use xlink:href="#DejaVuSans-20" transform="translate(1329.585938 0)"/>
     <use xlink:href="#DejaVuSans-50" transform="translate(1361.373047 0)"/>
     <use xlink:href="#DejaVuSans-53" transform="translate(1421.675781 0)"/>
     <use xlink:href="#DejaVuSans-4e" transform="translate(1485.152344 0)"/>
     <use xlink:href="#DejaVuSans-52" transform="translate(1559.957031 0)"/>
     <use xlink:href="#DejaVuSans-40" transform="translate(1629.439453 0)"/>
     <use xlink:href="#DejaVuSans-2e" transform="translate(1729.439453 0)"/>
     <use xlink:href="#DejaVuSans-32" transform="translate(1761.226562 0)"/>
     <use xlink:href="#DejaVuSans-30" transform="translate(1824.849609 0)"/>
     <use xlink:href="#DejaVuSans-3d" transform="translate(1888.472656 0)"/>
     <use xlink:href="#DejaVuSans-33" transform="translate(1972.261719 0)"/>
     <use xlink:href="#DejaVuSans-37" transform="translate(2035.884766 0)"/>
     <use xlink:href="#DejaVuSans-2e" transform="translate(2099.507812 0)"/>
     <use xlink:href="#DejaVuSans-36" transform="translate(2131.294922 0)"/>
     <use xlink:href="#DejaVuSans-31" transform="translate(2194.917969 0)"/>
     <use xlink:href="#DejaVuSans-20" transform="translate(2258.541016 0)"/>
     <use xlink:href="#DejaVuSans-64" transform="translate(2290.328125 0)"/>
     <use xlink:href="#DejaVuSans-42" transform="translate(2353.804688 0)"/>
    </g>
   </g>
   <g id="text_10">
    <!-- left→right: MSE=6.443  PSNR@.20=37.47 dB -->
    <g style="fill: #e69f00" transform="translate(309.687242 32.627656) scale(0.07 -0.07)">
     <defs>
      <path id="DejaVuSans-65" d="M 3597 1894 
L 3597 1613 
L 953 1613 
Q 991 1019 1311 708 
Q 1631 397 2203 397 
Q 2534 397 2845 478 
Q 3156 559 3463 722 
L 3463 178 
Q 3153 47 2828 -22 
Q 2503 -91 2169 -91 
Q 1331 -91 842 396 
Q 353 884 353 1716 
Q 353 2575 817 3079 
Q 1281 3584 2069 3584 
Q 2775 3584 3186 3129 
Q 3597 2675 3597 1894 
z
M 3022 2063 
Q 3016 2534 2758 2815 
Q 2500 3097 2075 3097 
Q 1594 3097 1305 2825 
Q 1016 2553 972 2059 
L 3022 2063 
z
" transform="scale(0.015625)"/>
      <path id="DejaVuSans-66" d="M 2375 4863 
L 2375 4384 
L 1825 4384 
Q 1516 4384 1395 4259 
Q 1275 4134 1275 3809 
L 1275 3500 
L 2222 3500 
L 2222 3053 
L 1275 3053 
L 1275 0 
L 697 0 
L 697 3053 
L 147 3053 
L 147 3500 
L 697 3500 
L 697 3744 
Q 697 4328 969 4595 
Q 1241 4863 1831 4863 
L 2375 4863 
z
" transform="scale(0.015625)"/>
      <path id="DejaVuSans-2192" d="M 5050 2147 
L 5050 1866 
L 3822 638 
L 3447 1013 
L 4175 1741 
L 366 1741 
L 366 2272 
L 4175 2272 
L 3447 3000 
L 3822 3375 
L 5050 2147 
z
" transform="scale(0.015625)"/>
      <path id="DejaVuSans-69" d="M 603 3500 
L 1178 3500 
L 1178 0 
L 603 0 
L 603 3500 
z
M 603 4863 
L 1178 4863 
L 1178 4134 
L 603 4134 
L 603 4863 
z
" transform="scale(0.015625)"/>
     </defs>
     <use xlink:href="#DejaVuSans-6c"/>
     <use xlink:href="#DejaVuSans-65" transform="translate(27.783203 0)"/>
     <use xlink:href="#DejaVuSans-66" transform="translate(89.306641 0)"/>
     <use xlink:href="#DejaVuSans-74" transform="translate(122.761719 0)"/>
     <use xlink:href="#DejaVuSans-2192" transform="translate(161.970703 0)"/>
     <use xlink:href="#DejaVuSans-72" transform="translate(245.759766 0)"/>
     <use xlink:href="#DejaVuSans-69" transform="translate(286.873047 0)"/>
     <use xlink:href="#DejaVuSans-67" transform="translate(314.65625 0)"/>
     <use xlink:href="#DejaVuSans-68" transform="translate(378.132812 0)"/>
     <use xlink:href="#DejaVuSans-74" transform="translate(441.511719 0)"/>
     <use xlink:href="#DejaVuSans-3a" transform="translate(480.720703 0)"/>
     <use xlink:href="#DejaVuSans-20" transform="translate(514.412109 0)"/>
     <use xlink:href="#DejaVuSans-4d" transform="translate(546.199219 0)"/>
     <use xlink:href="#DejaVuSans-53" transform="translate(632.478516 0)"/>
     <use xlink:href="#DejaVuSans-45" transform="translate(695.955078 0)"/>
     <use xlink:href="#DejaVuSans-3d" transform="translate(759.138672 0)"/>
     <use xlink:href="#DejaVuSans-36" transform="translate(842.927734 0)"/>
     <use xlink:href="#DejaVuSans-2e" transform="translate(906.550781 0)"/>
     <use xlink:href="#DejaVuSans-34" transform="translate(938.337891 0)"/>
     <use xlink:href="#DejaVuSans-34" transform="translate(1001.960938 0)"/>
     <use xlink:href="#DejaVuSans-33" transform="translate(1065.583984 0)"/>
     <use xlink:href="#DejaVuSans-20" transform="translate(1129.207031 0)"/>
     <use xlink:href="#DejaVuSans-20" transform="translate(1160.994141 0)"/>
     <use xlink:href="#DejaVuSans-50" transform="translate(1192.78125 0)"/>
     <use xlink:href="#DejaVuSans-53" transform="translate(1253.083984 0)"/>
     <use xlink:href="#DejaVuSans-4e" transform="translate(1316.560547 0)"/>
     <use xlink:href="#DejaVuSans-52" transform="translate(1391.365234 0)"/>
     <use xlink:href="#DejaVuSans-40" transform="translate(1460.847656 0)"/>
     <use xlink:href="#DejaVuSans-2e" transform="translate(1560.847656 0)"/>
     <use xlink:href="#DejaVuSans-32" transform="translate(1592.634766 0)"/>
     <use xlink:href="#DejaVuSans-30" transform="translate(1656.257812 0)"/>
     <use xlink:href="#DejaVuSans-3d" transform="translate(1719.880859 0)"/>
     <use xlink:href="#DejaVuSans-33" transform="translate(1803.669922 0)"/>
     <use xlink:href="#DejaVuSans-37" transform="translate(1867.292969 0)"/>
     <use xlink:href="#DejaVuSans-2e" transform="translate(1930.916016 0)"/>
     <use xlink:href="#DejaVuSans-34" transform="translate(1962.703125 0)"/>
     <use xlink:href="#DejaVuSans-37" transform="translate(2026.326172 0)"/>
     <use xlink:href="#DejaVuSans-20" transform="translate(2089.949219 0)"/>
     <use xlink:href="#DejaVuSans-64" transform="translate(2121.736328 0)"/>
     <use xlink:href="#DejaVuSans-42" transform="translate(2185.212891 0)"/>
    </g>
   </g>
   <g id="text_11">
    <!-- right→left: MSE=6.441  PSNR@.20=37.60 dB -->
    <g style="fill: #009e73" transform="translate(309.687242 44.692906) scale(0.07 -0.07)">
     <use xlink:href="#DejaVuSans-72"/>
     <use xlink:href="#DejaVuSans-69" transform="translate(41.113281 0)"/>
     <use xlink:href="#DejaVuSans-67" transform="translate(68.896484 0)"/>
     <use xlink:href="#DejaVuSans-68" transform="translate(132.373047 0)"/>
     <use xlink:href="#DejaVuSans-74" transform="translate(195.751953 0)"/>
     <use xlink:href="#DejaVuSans-2192" transform="translate(234.960938 0)"/>
     <use xlink:href="#DejaVuSans-6c" transform="translate(318.75 0)"/>
     <use xlink:href="#DejaVuSans-65" transform="translate(346.533203 0)"/>
     <use xlink:href="#DejaVuSans-66" transform="translate(408.056641 0)"/>
     <use xlink:href="#DejaVuSans-74" transform="translate(441.511719 0)"/>
     <use xlink:href="#DejaVuSans-3a" transform="translate(480.720703 0)"/>
     <use xlink:href="#DejaVuSans-20" transform="translate(514.412109 0)"/>
     <use xlink:href="#DejaVuSans-4d" transform="translate(546.199219 0)"/>
     <use xlink:href="#DejaVuSans-53" transform="translate(632.478516 0)"/>
     <use xlink:href="#DejaVuSans-45" transform="translate(695.955078 0)"/>
     <use xlink:href="#DejaVuSans-3d" transform="translate(759.138672 0)"/>
     <use xlink:href="#DejaVuSans-36" transform="translate(842.927734 0)"/>
     <use xlink:href="#DejaVuSans-2e" transform="translate(906.550781 0)"/>
     <use xlink:href="#DejaVuSans-34" transform="translate(938.337891 0)"/>
     <use xlink:href="#DejaVuSans-34" transform="translate(1001.960938 0)"/>
     <use xlink:href="#DejaVuSans-31" transform="translate(1065.583984 0)"/>
     <use xlink:href="#DejaVuSans-20" transform="translate(1129.207031 0)"/>
     <use xlink:href="#DejaVuSans-20" transform="translate(1160.994141 0)"/>
     <use xlink:href="#DejaVuSans-50" transform="translate(1192.78125 0)"/>
     <use xlink:href="#DejaVuSans-53" transform="translate(1253.083984 0)"/>
     <use xlink:href="#DejaVuSans-4e" transform="translate(1316.560547 0)"/>
     <use xlink:href="#DejaVuSans-52" transform="translate(1391.365234 0)"/>
     <use xlink:href="#DejaVuSans-40" transform="translate(1460.847656 0)"/>
     <use xlink:href="#DejaVuSans-2e" transform="translate(1560.847656 0)"/>
     <use xlink:href="#DejaVuSans-32" transform="translate(1592.634766 0)"/>
     <use xlink:href="#DejaVuSans-30" transform="translate(1656.257812 0)"/>
     <use xlink:href="#DejaVuSans-3d" transform="translate(1719.880859 0)"/>
     <use xlink:href="#DejaVuSans-33" transform="translate(1803.669922 0)"/>
     <use xlink:href="#DejaVuSans-37" transform="translate(1867.292969 0)"/>
     <use xlink:href="#DejaVuSans-2e" transform="translate(1930.916016 0)"/>
     <use xlink:href="#DejaVuSans-36" transform="translate(1962.703125 0)"/>
     <use xlink:href="#DejaVuSans-30" transform="translate(2026.326172 0)"/>
     <use xlink:href="#DejaVuSans-20" transform="translate(2089.949219 0)"/>
     <use xlink:href="#DejaVuSans-64" transform="translate(2121.736328 0)"/>
     <use xlink:href="#DejaVuSans-42" transform="translate(2185.212891 0)"/>
    </g>
   </g>
   <g id="legend_1">
    <g id="line2d_37">
     <path d="M 392.241096 17.67875 
L 400.241096 17.67875 
L 408.241096 17.67875 
" style="fill: none; stroke: #0072b2; stroke-width: 1.4; stroke-linecap: square"/>
    </g>
    <g id="text_12">
     <!-- block-growth -->
     <g transform="translate(414.641096 20.47875) scale(0.08 -0.08)">
      <use xlink:href="#DejaVuSans-62"/>
      <use xlink:href="#DejaVuSans-6c" transform="translate(63.476562 0)"/>
      <use xlink:href="#DejaVuSans-6f" transform="translate(91.259766 0)"/>
      <use xlink:href="#DejaVuSans-63" transform="translate(152.441406 0)"/>
      <use xlink:href="#DejaVuSans-6b" transform="translate(207.421875 0)"/>
      <use xlink:href="#DejaVuSans-2d" transform="translate(265.332031 0)"/>
      <use xlink:href="#DejaVuSans-67" transform="translate(301.416016 0)"/>
      <use xlink:href="#DejaVuSans-72" transform="translate(364.892578 0)"/>
      <use xlink:href="#DejaVuSans-6f" transform="translate(403.755859 0)"/>
      <use xlink:href="#DejaVuSans-77" transform="translate(464.9375 0)"/>
      <use xlink:href="#DejaVuSans-74" transform="translate(546.724609 0)"/>
      <use xlink:href="#DejaVuSans-68" transform="translate(585.933594 0)"/>
     </g>
    </g>
    <g id="line2d_38">
     <path d="M 392.241096 29.42125 
L 400.241096 29.42125 
L 408.241096 29.42125 
" style="fill: none; stroke-dasharray: 5.18,2.24; stroke-dashoffset: 0; stroke: #e69f00; stroke-width: 1.4"/>
    </g>
    <g id="text_13">
     <!-- left→right -->
     <g transform="translate(414.641096 32.22125) scale(0.08 -0.08)">
      <use xlink:href="#DejaVuSans-6c"/>
      <use xlink:href="#DejaVuSans-65" transform="translate(27.783203 0)"/>
      <use xlink:href="#DejaVuSans-66" transform="translate(89.306641 0)"/>
      <use xlink:href="#DejaVuSans-74" transform="translate(122.761719 0)"/>
      <use xlink:href="#DejaVuSans-2192" transform="translate(161.970703 0)"/>
      <use xlink:href="#DejaVuSans-72" transform="translate(245.759766 0)"/>
      <use xlink:href="#DejaVuSans-69" transform="translate(286.873047 0)"/>
      <use xlink:href="#DejaVuSans-67" transform="translate(314.65625 0)"/>
      <use xlink:href="#DejaVuSans-68" transform="translate(378.132812 0)"/>
      <use xlink:href="#DejaVuSans-74" transform="translate(441.511719 0)"/>
     </g>
    </g>
    <g id="line2d_39">
     <path d="M 392.241096 41.16375 
L 400.241096 41.16375 
L 408.241096 41.16375 
" style="fill: none; stroke-dasharray: 8.96,2.24,1.4,2.24; stroke-dashoffset: 0; stroke: #009e73; stroke-width: 1.4"/>
    </g>
    <g id="text_14">
     <!-- right→left -->
     <g transform="translate(414.641096 43.96375) scale(0.08 -0.08)">
      <use xlink:href="#DejaVuSans-72"/>
      <use xlink:href="#DejaVuSans-69" transform="translate(41.113281 0)"/>
      <use xlink:href="#DejaVuSans-67" transform="translate(68.896484 0)"/>
      <use xlink:href="#DejaVuSans-68" transform="translate(132.373047 0)"/>
      <use xlink:href="#DejaVuSans-74" transform="translate(195.751953 0)"/>
      <use xlink:href="#DejaVuSans-2192" transform="translate(234.960938 0)"/>
      <use xlink:href="#DejaVuSans-6c" transform="translate(318.75 0)"/>
      <use xlink:href="#DejaVuSans-65" transform="translate(346.533203 0)"/>
      <use xlink:href="#DejaVuSans-66" transform="translate(408.056641 0)"/>
      <use xlink:href="#DejaVuSans-74" transform="translate(441.511719 0)"/>
     </g>
    </g>
   </g>
  </g>
  <g id="axes_2">
   <g id="patch_7">
    <path d="M 51.8 343.24 
L 473.786096 343.24 
L 473.786096 182.37 
L 51.8 182.37 
z
" style="fill: #ffffff"/>
   </g>
   <g id="matplotlib.axis_3">
    <g id="xtick_9">
     <g id="line2d_40">
      <path d="M 70.693396 343.24 
L 70.693396 182.37 
" clip-path="url(#p64d9738835)" style="fill: none; stroke: #b0b0b0; stroke-opacity: 0.25; stroke-width: 0.5; stroke-linecap: square"/>
     </g>
     <g id="line2d_41">
      <g>
       <use xlink:href="#mcf20beb918" x="70.693396" y="343.24" style="stroke: #000000; stroke-width: 0.8"/>
      </g>
     </g>
     <g id="text_15">
      <!-- 0 -->
      <g transform="translate(67.512146 357.838437) scale(0.1 -0.1)">
       <use xlink:href="#DejaVuSans-30"/>
      </g>
     </g>
    </g>
    <g id="xtick_10">
     <g id="line2d_42">
      <path d="M 128.251345 343.24 
L 128.251345 182.37 
" clip-path="url(#p64d9738835)" style="fill: none; stroke: #b0b0b0; stroke-opacity: 0.25; stroke-width: 0.5; stroke-linecap: square"/>
     </g>
     <g id="line2d_43">
      <g>
       <use xlink:href="#mcf20beb918" x="128.251345" y="343.24" style="stroke: #000000; stroke-width: 0.8"/>
      </g>
     </g>
     <g id="text_16">
      <!-- 200 -->
      <g transform="translate(118.707595 357.838437) scale(0.1 -0.1)">
       <use xlink:href="#DejaVuSans-32"/>
       <use xlink:href="#DejaVuSans-30" transform="translate(63.623047 0)"/>
       <use xlink:href="#DejaVuSans-30" transform="translate(127.246094 0)"/>
      </g>
     </g>
    </g>
    <g id="xtick_11">
     <g id="line2d_44">
      <path d="M 185.809293 343.24 
L 185.809293 182.37 
" clip-path="url(#p64d9738835)" style="fill: none; stroke: #b0b0b0; stroke-opacity: 0.25; stroke-width: 0.5; stroke-linecap: square"/>
     </g>
     <g id="line2d_45">
      <g>
       <use xlink:href="#mcf20beb918" x="185.809293" y="343.24" style="stroke: #000000; stroke-width: 0.8"/>
      </g>
     </g>
     <g id="text_17">
      <!-- 400 -->
      <g transform="translate(176.265543 357.838437) scale(0.1 -0.1)">
       <use xlink:href="#DejaVuSans-34"/>
       <use xlink:href="#DejaVuSans-30" transform="translate(63.623047 0)"/>
       <use xlink:href="#DejaVuSans-30" transform="translate(127.246094 0)"/>
      </g>
     </g>
    </g>
    <g id="xtick_12">
     <g id="line2d_46">
      <path d="M 243.367241 343.24 
L 243.367241 182.37 
" clip-path="url(#p64d9738835)" style="fill: none; stroke: #b0b0b0; stroke-opacity: 0.25; stroke-width: 0.5; stroke-linecap: square"/>
     </g>
     <g id="line2d_47">
      <g>
       <use xlink:href="#mcf20beb918" x="243.367241" y="343.24" style="stroke: #000000; stroke-width: 0.8"/>
      </g>
     </g>
     <g id="text_18">
      <!-- 600 -->
      <g transform="translate(233.823491 357.838437) scale(0.1 -0.1)">
       <use xlink:href="#DejaVuSans-36"/>
       <use xlink:href="#DejaVuSans-30" transform="translate(63.623047 0)"/>
       <use xlink:href="#DejaVuSans-30" transform="translate(127.246094 0)"/>
      </g>
     </g>
    </g>
    <g id="xtick_13">
     <g id="line2d_48">
      <path d="M 300.925189 343.24 
L 300.925189 182.37 
" clip-path="url(#p64d9738835)" style="fill: none; stroke: #b0b0b0; stroke-opacity: 0.25; stroke-width: 0.5; stroke-linecap: square"/>
     </g>
     <g id="line2d_49">
      <g>
       <use xlink:href="#mcf20beb918" x="300.925189" y="343.24" style="stroke: #000000; stroke-width: 0.8"/>
      </g>
     </g>
     <g id="text_19">
      <!-- 800 -->
      <g transform="translate(291.381439 357.838437) scale(0.1 -0.1)">
       <use xlink:href="#DejaVuSans-38"/>
       <use xlink:href="#DejaVuSans-30" transform="translate(63.623047 0)"/>
       <use xlink:href="#DejaVuSans-30" transform="translate(127.246094 0)"/>
      </g>
     </g>
    </g>
    <g id="xtick_14">
     <g id="line2d_50">
      <path d="M 358.483137 343.24 
L 358.483137 182.37 
" clip-path="url(#p64d9738835)" style="fill: none; stroke: #b0b0b0; stroke-opacity: 0.25; stroke-width: 0.5; stroke-linecap: square"/>
     </g>
     <g id="line2d_51">
      <g>
       <use xlink:href="#mcf20beb918" x="358.483137" y="343.24" style="stroke: #000000; stroke-width: 0.8"/>
      </g>
     </g>
     <g id="text_20">
      <!-- 1000 -->
      <g transform="translate(345.758137 357.838437) scale(0.1 -0.1)">
       <use xlink:href="#DejaVuSans-31"/>
       <use xlink:href="#DejaVuSans-30" transform="translate(63.623047 0)"/>
       <use xlink:href="#DejaVuSans-30" transform="translate(127.246094 0)"/>
       <use xlink:href="#DejaVuSans-30" transform="translate(190.869141 0)"/>
      </g>
     </g>
    </g>
    <g id="xtick_15">
     <g id="line2d_52">
      <path d="M 416.041085 343.24 
L 416.041085 182.37 
" clip-path="url(#p64d9738835)" style="fill: none; stroke: #b0b0b0; stroke-opacity: 0.25; stroke-width: 0.5; stroke-linecap: square"/>
     </g>
     <g id="line2d_53">
      <g>
       <use xlink:href="#mcf20beb918" x="416.041085" y="343.24" style="stroke: #000000; stroke-width: 0.8"/>
      </g>
     </g>
     <g id="text_21">
      <!-- 1200 -->
      <g transform="translate(403.316085 357.838437) scale(0.1 -0.1)">
       <use xlink:href="#DejaVuSans-31"/>
       <use xlink:href="#DejaVuSans-32" transform="translate(63.623047 0)"/>
       <use xlink:href="#DejaVuSans-30" transform="translate(127.246094 0)"/>
       <use xlink:href="#DejaVuSans-30" transform="translate(190.869141 0)"/>
      </g>
     </g>
    </g>
    <g id="xtick_16">
     <g id="line2d_54">
      <path d="M 473.599033 343.24 
L 473.599033 182.37 
" clip-path="url(#p64d9738835)" style="fill: none; stroke: #b0b0b0; stroke-opacity: 0.25; stroke-width: 0.5; stroke-linecap: square"/>
     </g>
     <g id="line2d_55">
      <g>
       <use xlink:href="#mcf20beb918" x="473.599033" y="343.24" style="stroke: #000000; stroke-width: 0.8"/>
      </g>
     </g>
     <g id="text_22">
      <!-- 1400 -->
      <g transform="translate(460.874033 357.838437) scale(0.1 -0.1)">
       <use xlink:href="#DejaVuSans-31"/>
       <use xlink:href="#DejaVuSans-34" transform="translate(63.623047 0)"/>
       <use xlink:href="#DejaVuSans-30" transform="translate(127.246094 0)"/>
       <use xlink:href="#DejaVuSans-30" transform="translate(190.869141 0)"/>
      </g>
     </g>
    </g>
    <g id="text_23">
     <!-- cumulative training step -->
     <g transform="translate(201.634454 371.516562) scale(0.1 -0.1)">
      <defs>
       <path id="DejaVuSans-75" d="M 544 1381 
L 544 3500 
L 1119 3500 
L 1119 1403 
Q 1119 906 1312 657 
Q 1506 409 1894 409 
Q 2359 409 2629 706 
Q 2900 1003 2900 1516 
L 2900 3500 
L 3475 3500 
L 3475 0 
L 2900 0 
L 2900 538 
Q 2691 219 2414 64 
Q 2138 -91 1772 -91 
Q 1169 -91 856 284 
Q 544 659 544 1381 
z
M 1991 3584 
L 1991 3584 
z
" transform="scale(0.015625)"/>
       <path id="DejaVuSans-6d" d="M 3328 2828 
Q 3544 3216 3844 3400 
Q 4144 3584 4550 3584 
Q 5097 3584 5394 3201 
Q 5691 2819 5691 2113 
L 5691 0 
L 5113 0 
L 5113 2094 
Q 5113 2597 4934 2840 
Q 4756 3084 4391 3084 
Q 3944 3084 3684 2787 
Q 3425 2491 3425 1978 
L 3425 0 
L 2847 0 
L 2847 2094 
Q 2847 2600 2669 2842 
Q 2491 3084 2119 3084 
Q 1678 3084 1418 2786 
Q 1159 2488 1159 1978 
L 1159 0 
L 581 0 
L 581 3500 
L 1159 3500 
L 1159 2956 
Q 1356 3278 1631 3431 
Q 1906 3584 2284 3584 
Q 2666 3584 2933 3390 
Q 3200 3197 3328 2828 
z
" transform="scale(0.015625)"/>
       <path id="DejaVuSans-61" d="M 2194 1759 
Q 1497 1759 1228 1600 
Q 959 1441 959 1056 
Q 959 750 1161 570 
Q 1363 391 1709 391 
Q 2188 391 2477 730 
Q 2766 1069 2766 1631 
L 2766 1759 
L 2194 1759 
z
M 3341 1997 
L 3341 0 
L 2766 0 
L 2766 531 
Q 2569 213 2275 61 
Q 1981 -91 1556 -91 
Q 1019 -91 701 211 
Q 384 513 384 1019 
Q 384 1609 779 1909 
Q 1175 2209 1959 2209 
L 2766 2209 
L 2766 2266 
Q 2766 2663 2505 2880 
Q 2244 3097 1772 3097 
Q 1472 3097 1187 3025 
Q 903 2953 641 2809 
L 641 3341 
Q 956 3463 1253 3523 
Q 1550 3584 1831 3584 
Q 2591 3584 2966 3190 
Q 3341 2797 3341 1997 
z
" transform="scale(0.015625)"/>
       <path id="DejaVuSans-76" d="M 191 3500 
L 800 3500 
L 1894 563 
L 2988 3500 
L 3597 3500 
L 2284 0 
L 1503 0 
L 191 3500 
z
" transform="scale(0.015625)"/>
       <path id="DejaVuSans-6e" d="M 3513 2113 
L 3513 0 
L 2938 0 
L 2938 2094 
Q 2938 2591 2744 2837 
Q 2550 3084 2163 3084 
Q 1697 3084 1428 2787 
Q 1159 2491 1159 1978 
L 1159 0 
L 581 0 
L 581 3500 
L 1159 3500 
L 1159 2956 
Q 1366 3272 1645 3428 
Q 1925 3584 2291 3584 
Q 2894 3584 3203 3211 
Q 3513 2838 3513 2113 
z
" transform="scale(0.015625)"/>
      </defs>
      <use xlink:href="#DejaVuSans-63"/>
      <use xlink:href="#DejaVuSans-75" transform="translate(54.980469 0)"/>
      <use xlink:href="#DejaVuSans-6d" transform="translate(118.359375 0)"/>
      <use xlink:href="#DejaVuSans-75" transform="translate(215.771484 0)"/>
      <use xlink:href="#DejaVuSans-6c" transform="translate(279.150391 0)"/>
      <use xlink:href="#DejaVuSans-61" transform="translate(306.933594 0)"/>
      <use xlink:href="#DejaVuSans-74" transform="translate(368.212891 0)"/>
      <use xlink:href="#DejaVuSans-69" transform="translate(407.421875 0)"/>
      <use xlink:href="#DejaVuSans-76" transform="translate(435.205078 0)"/>
      <use xlink:href="#DejaVuSans-65" transform="translate(494.384766 0)"/>
      <use xlink:href="#DejaVuSans-20" transform="translate(555.908203 0)"/>
      <use xlink:href="#DejaVuSans-74" transform="translate(587.695312 0)"/>
      <use xlink:href="#DejaVuSans-72" transform="translate(626.904297 0)"/>
      <use xlink:href="#DejaVuSans-61" transform="translate(668.017578 0)"/>
      <use xlink:href="#DejaVuSans-69" transform="translate(729.296875 0)"/>
      <use xlink:href="#DejaVuSans-6e" transform="translate(757.080078 0)"/>
      <use xlink:href="#DejaVuSans-69" transform="translate(820.458984 0)"/>
      <use xlink:href="#DejaVuSans-6e" transform="translate(848.242188 0)"/>
      <use xlink:href="#DejaVuSans-67" transform="translate(911.621094 0)"/>
      <use xlink:href="#DejaVuSans-20" transform="translate(975.097656 0)"/>
      <use xlink:href="#DejaVuSans-73" transform="translate(1006.884766 0)"/>
      <use xlink:href="#DejaVuSans-74" transform="translate(1058.984375 0)"/>
      <use xlink:href="#DejaVuSans-65" transform="translate(1098.193359 0)"/>
      <use xlink:href="#DejaVuSans-70" transform="translate(1159.716797 0)"/>
     </g>
    </g>
   </g>
   <g id="matplotlib.axis_4">
    <g id="ytick_8">
     <g id="line2d_56">
      <path d="M 51.8 326.486744 
L 473.786096 326.486744 
" clip-path="url(#p64d9738835)" style="fill: none; stroke: #b0b0b0; stroke-opacity: 0.25; stroke-width: 0.5; stroke-linecap: square"/>
     </g>
     <g id="line2d_57">
      <g>
       <use xlink:href="#m447d593745" x="51.8" y="326.486744" style="stroke: #000000; stroke-width: 0.8"/>
      </g>
     </g>
     <g id="text_24">
      <!-- $\mathdefault{10^{-3}}$ -->
      <g transform="translate(21.3 330.285963) scale(0.1 -0.1)">
       <defs>
        <path id="DejaVuSans-2212" d="M 678 2272 
L 4684 2272 
L 4684 1741 
L 678 1741 
L 678 2272 
z
" transform="scale(0.015625)"/>
       </defs>
       <use xlink:href="#DejaVuSans-31" transform="translate(0 0.765625)"/>
       <use xlink:href="#DejaVuSans-30" transform="translate(63.623047 0.765625)"/>
       <use xlink:href="#DejaVuSans-2212" transform="translate(128.203125 39.046875) scale(0.7)"/>
       <use xlink:href="#DejaVuSans-33" transform="translate(186.855469 39.046875) scale(0.7)"/>
      </g>
     </g>
    </g>
    <g id="ytick_9">
     <g id="line2d_58">
      <path d="M 51.8 292.256011 
L 473.786096 292.256011 
" clip-path="url(#p64d9738835)" style="fill: none; stroke: #b0b0b0; stroke-opacity: 0.25; stroke-width: 0.5; stroke-linecap: square"/>
     </g>
     <g id="line2d_59">
      <g>
       <use xlink:href="#m447d593745" x="51.8" y="292.256011" style="stroke: #000000; stroke-width: 0.8"/>
      </g>
     </g>
     <g id="text_25">
      <!-- $\mathdefault{10^{-2}}$ -->
      <g transform="translate(21.3 296.05523) scale(0.1 -0.1)">
       <use xlink:href="#DejaVuSans-31" transform="translate(0 0.765625)"/>
       <use xlink:href="#DejaVuSans-30" transform="translate(63.623047 0.765625)"/>
       <use xlink:href="#DejaVuSans-2212" transform="translate(128.203125 39.046875) scale(0.7)"/>
       <use xlink:href="#DejaVuSans-32" transform="translate(186.855469 39.046875) scale(0.7)"/>
      </g>
     </g>
    </g>
    <g id="ytick_10">
     <g id="line2d_60">
      <path d="M 51.8 258.025279 
L 473.786096 258.025279 
" clip-path="url(#p64d9738835)" style="fill: none; stroke: #b0b0b0; stroke-opacity: 0.25; stroke-width: 0.5; stroke-linecap: square"/>
     </g>
     <g id="line2d_61">
      <g>
       <use xlink:href="#m447d593745" x="51.8" y="258.025279" style="stroke: #000000; stroke-width: 0.8"/>
      </g>
     </g>
     <g id="text_26">
      <!-- $\mathdefault{10^{-1}}$ -->
      <g transform="translate(21.3 261.824497) scale(0.1 -0.1)">
       <use xlink:href="#DejaVuSans-31" transform="translate(0 0.684375)"/>
       <use xlink:href="#DejaVuSans-30" transform="translate(63.623047 0.684375)"/>
       <use xlink:href="#DejaVuSans-2212" transform="translate(128.203125 38.965625) scale(0.7)"/>
       <use xlink:href="#DejaVuSans-31" transform="translate(186.855469 38.965625) scale(0.7)"/>
      </g>
     </g>
    </g>
    <g id="ytick_11">
     <g id="line2d_62">
      <path d="M 51.8 223.794546 
L 473.786096 223.794546 
" clip-path="url(#p64d9738835)" style="fill: none; stroke: #b0b0b0; stroke-opacity: 0.25; stroke-width: 0.5; stroke-linecap: square"/>
     </g>
     <g id="line2d_63">
      <g>
       <use xlink:href="#m447d593745" x="51.8" y="223.794546" style="stroke: #000000; stroke-width: 0.8"/>
      </g>
     </g>
     <g id="text_27">
      <!-- $\mathdefault{10^{0}}$ -->
      <g transform="translate(27.2 227.593765) scale(0.1 -0.1)">
       <use xlink:href="#DejaVuSans-31" transform="translate(0 0.765625)"/>
       <use xlink:href="#DejaVuSans-30" transform="translate(63.623047 0.765625)"/>
       <use xlink:href="#DejaVuSans-30" transform="translate(128.203125 39.046875) scale(0.7)"/>
      </g>
     </g>
    </g>
    <g id="ytick_12">
     <g id="line2d_64">
      <path d="M 51.8 189.563813 
L 473.786096 189.563813 
" clip-path="url(#p64d9738835)" style="fill: none; stroke: #b0b0b0; stroke-opacity: 0.25; stroke-width: 0.5; stroke-linecap: square"/>
     </g>
     <g id="line2d_65">
      <g>
       <use xlink:href="#m447d593745" x="51.8" y="189.563813" style="stroke: #000000; stroke-width: 0.8"/>
      </g>
     </g>
     <g id="text_28">
      <!-- $\mathdefault{10^{1}}$ -->
      <g transform="translate(27.2 193.363032) scale(0.1 -0.1)">
       <use xlink:href="#DejaVuSans-31" transform="translate(0 0.684375)"/>
       <use xlink:href="#DejaVuSans-30" transform="translate(63.623047 0.684375)"/>
       <use xlink:href="#DejaVuSans-31" transform="translate(128.203125 38.965625) scale(0.7)"/>
      </g>
     </g>
    </g>
    <g id="ytick_13">
     <g id="line2d_66">
      <defs>
       <path id="m9f66c22029" d="M 0 0 
L -2 0 
" style="stroke: #000000; stroke-width: 0.6"/>
      </defs>
      <g>
       <use xlink:href="#m9f66c22029" x="51.8" y="340.108522" style="stroke: #000000; stroke-width: 0.6"/>
      </g>
     </g>
    </g>
    <g id="ytick_14">
     <g id="line2d_67">
      <g>
       <use xlink:href="#m9f66c22029" x="51.8" y="336.791221" style="stroke: #000000; stroke-width: 0.6"/>
      </g>
     </g>
    </g>
    <g id="ytick_15">
     <g id="line2d_68">
      <g>
       <use xlink:href="#m9f66c22029" x="51.8" y="334.080789" style="stroke: #000000; stroke-width: 0.6"/>
      </g>
     </g>
    </g>
    <g id="ytick_16">
     <g id="line2d_69">
      <g>
       <use xlink:href="#m9f66c22029" x="51.8" y="331.789152" style="stroke: #000000; stroke-width: 0.6"/>
      </g>
     </g>
    </g>
    <g id="ytick_17">
     <g id="line2d_70">
      <g>
       <use xlink:href="#m9f66c22029" x="51.8" y="329.804045" style="stroke: #000000; stroke-width: 0.6"/>
      </g>
     </g>
    </g>
    <g id="ytick_18">
     <g id="line2d_71">
      <g>
       <use xlink:href="#m9f66c22029" x="51.8" y="328.053056" style="stroke: #000000; stroke-width: 0.6"/>
      </g>
     </g>
    </g>
    <g id="ytick_19">
     <g id="line2d_72">
      <g>
       <use xlink:href="#m9f66c22029" x="51.8" y="316.182267" style="stroke: #000000; stroke-width: 0.6"/>
      </g>
     </g>
    </g>
    <g id="ytick_20">
     <g id="line2d_73">
      <g>
       <use xlink:href="#m9f66c22029" x="51.8" y="310.154534" style="stroke: #000000; stroke-width: 0.6"/>
      </g>
     </g>
    </g>
    <g id="ytick_21">
     <g id="line2d_74">
      <g>
       <use xlink:href="#m9f66c22029" x="51.8" y="305.877789" style="stroke: #000000; stroke-width: 0.6"/>
      </g>
     </g>
    </g>
    <g id="ytick_22">
     <g id="line2d_75">
      <g>
       <use xlink:href="#m9f66c22029" x="51.8" y="302.560489" style="stroke: #000000; stroke-width: 0.6"/>
      </g>
     </g>
    </g>
    <g id="ytick_23">
     <g id="line2d_76">
      <g>
       <use xlink:href="#m9f66c22029" x="51.8" y="299.850057" style="stroke: #000000; stroke-width: 0.6"/>
      </g>
     </g>
    </g>
    <g id="ytick_24">
     <g id="line2d_77">
      <g>
       <use xlink:href="#m9f66c22029" x="51.8" y="297.558419" style="stroke: #000000; stroke-width: 0.6"/>
      </g>
     </g>
    </g>
    <g id="ytick_25">
     <g id="line2d_78">
      <g>
       <use xlink:href="#m9f66c22029" x="51.8" y="295.573312" style="stroke: #000000; stroke-width: 0.6"/>
      </g>
     </g>
    </g>
    <g id="ytick_26">
     <g id="line2d_79">
      <g>
       <use xlink:href="#m9f66c22029" x="51.8" y="293.822324" style="stroke: #000000; stroke-width: 0.6"/>
      </g>
     </g>
    </g>
    <g id="ytick_27">
     <g id="line2d_80">
      <g>
       <use xlink:href="#m9f66c22029" x="51.8" y="281.951534" style="stroke: #000000; stroke-width: 0.6"/>
      </g>
     </g>
    </g>
    <g id="ytick_28">
     <g id="line2d_81">
      <g>
       <use xlink:href="#m9f66c22029" x="51.8" y="275.923801" style="stroke: #000000; stroke-width: 0.6"/>
      </g>
     </g>
    </g>
    <g id="ytick_29">
     <g id="line2d_82">
      <g>
       <use xlink:href="#m9f66c22029" x="51.8" y="271.647057" style="stroke: #000000; stroke-width: 0.6"/>
      </g>
     </g>
    </g>
    <g id="ytick_30">
     <g id="line2d_83">
      <g>
       <use xlink:href="#m9f66c22029" x="51.8" y="268.329756" style="stroke: #000000; stroke-width: 0.6"/>
      </g>
     </g>
    </g>
    <g id="ytick_31">
     <g id="line2d_84">
      <g>
       <use xlink:href="#m9f66c22029" x="51.8" y="265.619324" style="stroke: #000000; stroke-width: 0.6"/>
      </g>
     </g>
    </g>
    <g id="ytick_32">
     <g id="line2d_85">
      <g>
       <use xlink:href="#m9f66c22029" x="51.8" y="263.327686" style="stroke: #000000; stroke-width: 0.6"/>
      </g>
     </g>
    </g>
    <g id="ytick_33">
     <g id="line2d_86">
      <g>
       <use xlink:href="#m9f66c22029" x="51.8" y="261.342579" style="stroke: #000000; stroke-width: 0.6"/>
      </g>
     </g>
    </g>
    <g id="ytick_34">
     <g id="line2d_87">
      <g>
       <use xlink:href="#m9f66c22029" x="51.8" y="259.591591" style="stroke: #000000; stroke-width: 0.6"/>
      </g>
     </g>
    </g>
    <g id="ytick_35">
     <g id="line2d_88">
      <g>
       <use xlink:href="#m9f66c22029" x="51.8" y="247.720801" style="stroke: #000000; stroke-width: 0.6"/>
      </g>
     </g>
    </g>
    <g id="ytick_36">
     <g id="line2d_89">
      <g>
       <use xlink:href="#m9f66c22029" x="51.8" y="241.693068" style="stroke: #000000; stroke-width: 0.6"/>
      </g>
     </g>
    </g>
    <g id="ytick_37">
     <g id="line2d_90">
      <g>
       <use xlink:href="#m9f66c22029" x="51.8" y="237.416324" style="stroke: #000000; stroke-width: 0.6"/>
      </g>
     </g>
    </g>
    <g id="ytick_38">
     <g id="line2d_91">
      <g>
       <use xlink:href="#m9f66c22029" x="51.8" y="234.099023" style="stroke: #000000; stroke-width: 0.6"/>
      </g>
     </g>
    </g>
    <g id="ytick_39">
     <g id="line2d_92">
      <g>
       <use xlink:href="#m9f66c22029" x="51.8" y="231.388591" style="stroke: #000000; stroke-width: 0.6"/>
      </g>
     </g>
    </g>
    <g id="ytick_40">
     <g id="line2d_93">
      <g>
       <use xlink:href="#m9f66c22029" x="51.8" y="229.096953" style="stroke: #000000; stroke-width: 0.6"/>
      </g>
     </g>
    </g>
    <g id="ytick_41">
     <g id="line2d_94">
      <g>
       <use xlink:href="#m9f66c22029" x="51.8" y="227.111847" style="stroke: #000000; stroke-width: 0.6"/>
      </g>
     </g>
    </g>
    <g id="ytick_42">
     <g id="line2d_95">
      <g>
       <use xlink:href="#m9f66c22029" x="51.8" y="225.360858" style="stroke: #000000; stroke-width: 0.6"/>
      </g>
     </g>
    </g>
    <g id="ytick_43">
     <g id="line2d_96">
      <g>
       <use xlink:href="#m9f66c22029" x="51.8" y="213.490069" style="stroke: #000000; stroke-width: 0.6"/>
      </g>
     </g>
    </g>
    <g id="ytick_44">
     <g id="line2d_97">
      <g>
       <use xlink:href="#m9f66c22029" x="51.8" y="207.462336" style="stroke: #000000; stroke-width: 0.6"/>
      </g>
     </g>
    </g>
    <g id="ytick_45">
     <g id="line2d_98">
      <g>
       <use xlink:href="#m9f66c22029" x="51.8" y="203.185591" style="stroke: #000000; stroke-width: 0.6"/>
      </g>
     </g>
    </g>
    <g id="ytick_46">
     <g id="line2d_99">
      <g>
       <use xlink:href="#m9f66c22029" x="51.8" y="199.868291" style="stroke: #000000; stroke-width: 0.6"/>
      </g>
     </g>
    </g>
    <g id="ytick_47">
     <g id="line2d_100">
      <g>
       <use xlink:href="#m9f66c22029" x="51.8" y="197.157858" style="stroke: #000000; stroke-width: 0.6"/>
      </g>
     </g>
    </g>
    <g id="ytick_48">
     <g id="line2d_101">
      <g>
       <use xlink:href="#m9f66c22029" x="51.8" y="194.866221" style="stroke: #000000; stroke-width: 0.6"/>
      </g>
     </g>
    </g>
    <g id="ytick_49">
     <g id="line2d_102">
      <g>
       <use xlink:href="#m9f66c22029" x="51.8" y="192.881114" style="stroke: #000000; stroke-width: 0.6"/>
      </g>
     </g>
    </g>
    <g id="ytick_50">
     <g id="line2d_103">
      <g>
       <use xlink:href="#m9f66c22029" x="51.8" y="191.130126" style="stroke: #000000; stroke-width: 0.6"/>
      </g>
     </g>
    </g>
    <g id="text_29">
     <!-- grad norm  $\|g\|$ -->
     <g transform="translate(14.9 300.405) rotate(-90) scale(0.1 -0.1)">
      <defs>
       <path id="DejaVuSans-2016" d="M 1344 4891 
L 1344 -1509 
L 813 -1509 
L 813 4891 
L 1344 4891 
z
M 2376 4891 
L 2376 -1509 
L 1845 -1509 
L 1845 4891 
L 2376 4891 
z
" transform="scale(0.015625)"/>
       <path id="DejaVuSans-Oblique-67" d="M 3816 3500 
L 3219 434 
Q 3047 -456 2561 -893 
Q 2075 -1331 1253 -1331 
Q 950 -1331 690 -1286 
Q 431 -1241 206 -1147 
L 313 -588 
Q 525 -725 762 -790 
Q 1000 -856 1269 -856 
Q 1816 -856 2167 -557 
Q 2519 -259 2631 300 
L 2681 563 
Q 2441 288 2122 144 
Q 1803 0 1434 0 
Q 903 0 598 351 
Q 294 703 294 1319 
Q 294 1803 478 2267 
Q 663 2731 997 3091 
Q 1219 3328 1514 3456 
Q 1809 3584 2131 3584 
Q 2484 3584 2746 3420 
Q 3009 3256 3138 2956 
L 3238 3500 
L 3816 3500 
z
M 2950 2216 
Q 2950 2641 2750 2872 
Q 2550 3103 2181 3103 
Q 1953 3103 1747 3012 
Q 1541 2922 1394 2759 
Q 1156 2491 1023 2127 
Q 891 1763 891 1375 
Q 891 944 1092 712 
Q 1294 481 1672 481 
Q 2219 481 2584 976 
Q 2950 1472 2950 2216 
z
" transform="scale(0.015625)"/>
      </defs>
      <use xlink:href="#DejaVuSans-67" transform="translate(0 0.578125)"/>
      <use xlink:href="#DejaVuSans-72" transform="translate(63.476562 0.578125)"/>
      <use xlink:href="#DejaVuSans-61" transform="translate(104.589844 0.578125)"/>
      <use xlink:href="#DejaVuSans-64" transform="translate(165.869141 0.578125)"/>
      <use xlink:href="#DejaVuSans-20" transform="translate(229.345703 0.578125)"/>
      <use xlink:href="#DejaVuSans-6e" transform="translate(261.132812 0.578125)"/>
      <use xlink:href="#DejaVuSans-6f" transform="translate(324.511719 0.578125)"/>
      <use xlink:href="#DejaVuSans-72" transform="translate(385.693359 0.578125)"/>
      <use xlink:href="#DejaVuSans-6d" transform="translate(426.806641 0.578125)"/>
      <use xlink:href="#DejaVuSans-20" transform="translate(524.21875 0.578125)"/>
      <use xlink:href="#DejaVuSans-20" transform="translate(556.005859 0.578125)"/>
      <use xlink:href="#DejaVuSans-2016" transform="translate(587.792969 0.578125)"/>
      <use xlink:href="#DejaVuSans-Oblique-67" transform="translate(637.792969 0.578125)"/>
      <use xlink:href="#DejaVuSans-2016" transform="translate(701.269531 0.578125)"/>
     </g>
    </g>
   </g>
   <g id="line2d_104">
    <path d="M 70.981186 250.095922 
L 77.60035 250.095922 
L 77.88814 209.130884 
L 84.795094 209.130884 
L 85.082883 195.312611 
L 91.989837 195.312611 
L 92.277627 189.682273 
L 99.184581 189.682273 
L 99.47237 191.028463 
L 106.379324 191.028463 
L 106.667114 199.144165 
L 113.574068 199.144165 
L 113.861857 212.778109 
L 120.768811 212.778109 
L 121.056601 231.545531 
L 127.963555 231.545531 
L 128.251345 256.40149 
L 130.553662 256.40149 
L 130.841452 257.507118 
L 137.460616 257.507118 
L 137.748406 204.265187 
L 144.65536 204.265187 
L 144.943149 195.288931 
L 151.850103 195.288931 
L 152.137893 224.610992 
L 159.044847 224.610992 
L 159.332636 240.145041 
L 165.088431 240.145041 
L 165.376221 244.579542 
L 170.556436 244.579542 
L 170.844226 241.737124 
L 174.873282 241.737124 
L 175.161072 238.649499 
L 179.190129 238.649499 
L 179.477918 241.225912 
L 185.233713 241.225912 
L 185.521503 232.508182 
L 191.277298 232.508182 
L 191.565087 236.977195 
L 197.608672 236.977195 
L 197.896462 233.15709 
L 204.515626 233.15709 
L 204.803415 255.198344 
L 205.666785 255.198344 
L 205.954574 230.340959 
L 212.573738 230.340959 
L 212.861528 230.199067 
L 216.602795 230.199067 
L 216.890585 232.991656 
L 223.509749 232.991656 
L 223.797538 265.087743 
L 224.085328 225.651816 
L 230.704492 225.651816 
L 230.992282 248.109874 
L 235.596918 248.109874 
L 235.884707 226.292912 
L 242.503871 226.292912 
L 242.791661 248.141682 
L 245.669559 248.141682 
L 245.957348 225.809409 
L 252.576512 225.809409 
L 252.864302 252.184925 
L 258.044517 252.184925 
L 258.332307 226.085845 
L 264.951471 226.085845 
L 265.239261 245.507675 
L 266.67821 245.507675 
L 266.965999 224.623638 
L 272.434004 224.623638 
L 272.721794 223.150217 
L 278.477589 223.150217 
L 278.765379 224.249188 
L 285.384543 224.249188 
L 285.672332 253.669322 
L 291.715917 253.669322 
L 292.003707 217.770624 
L 298.622871 217.770624 
L 298.910661 238.049907 
L 304.090876 238.049907 
L 304.378666 215.398401 
L 310.99783 215.398401 
L 311.285619 244.926581 
L 318.192573 244.926581 
L 318.480363 256.896425 
L 319.631522 256.896425 
L 319.919312 214.325412 
L 326.538476 214.325412 
L 326.826265 237.629471 
L 330.855322 237.629471 
L 331.143111 216.154154 
L 337.762275 216.154154 
L 338.050065 241.788101 
L 344.957019 241.788101 
L 345.244809 255.361516 
L 346.395968 255.361516 
L 346.683757 216.051342 
L 353.302921 216.051342 
L 353.590711 238.745612 
L 357.619768 238.745612 
L 357.907557 216.18566 
L 364.238932 216.18566 
L 364.526721 215.216945 
L 371.145885 215.216945 
L 371.433675 240.548911 
L 378.340629 240.548911 
L 378.628419 257.203647 
L 381.506316 257.203647 
L 381.794106 213.922588 
L 388.41327 213.922588 
L 388.701059 233.639149 
L 394.169065 233.639149 
L 394.456854 214.363293 
L 401.076018 214.363293 
L 401.363808 236.784765 
L 408.270762 236.784765 
L 408.558552 256.129005 
L 411.148659 256.129005 
L 411.436449 213.757104 
L 418.055613 213.757104 
L 418.343403 235.013537 
L 419.782351 235.013537 
L 420.070141 215.063025 
L 426.689305 215.063025 
L 426.977095 247.016878 
L 429.279413 247.016878 
L 429.279413 247.016878 
" clip-path="url(#p64d9738835)" style="fill: none; stroke: #0072b2; stroke-width: 1.4; stroke-linecap: square"/>
   </g>
   <g id="line2d_105">
    <path d="M 429.279413 247.016878 
" clip-path="url(#p64d9738835)" style="fill: none; stroke: #0072b2; stroke-width: 1.5; stroke-linecap: square"/>
    <g clip-path="url(#p64d9738835)">
     <use xlink:href="#md6f7418d76" x="429.279413" y="247.016878" style="fill: #0072b2; stroke: #0072b2"/>
    </g>
   </g>
   <g id="line2d_106">
    <path d="M 70.981186 250.095922 
L 77.60035 250.095922 
L 77.88814 209.130884 
L 84.795094 209.130884 
L 85.082883 195.312611 
L 91.989837 195.312611 
L 92.277627 189.682273 
L 99.184581 189.682273 
L 99.47237 191.028463 
L 106.379324 191.028463 
L 106.667114 199.144165 
L 113.574068 199.144165 
L 113.861857 212.778109 
L 120.768811 212.778109 
L 121.056601 231.545531 
L 127.963555 231.545531 
L 128.251345 256.40149 
L 130.553662 256.40149 
L 130.841452 275.528072 
L 137.460616 275.528072 
L 137.748406 267.530187 
L 138.611775 267.530187 
L 138.899565 246.34303 
L 144.07978 246.34303 
L 144.36757 244.810438 
L 149.259996 244.810438 
L 149.547785 335.927727 
L 154.152421 335.927727 
L 154.440211 256.862155 
L 160.483795 256.862155 
L 160.771585 245.339306 
L 165.9518 245.339306 
L 166.23959 246.65067 
L 172.570965 246.65067 
L 172.858754 249.693555 
L 178.326759 249.693555 
L 178.614549 238.35907 
L 184.370344 238.35907 
L 184.658134 236.781262 
L 191.277298 236.781262 
L 191.565087 279.325503 
L 194.442985 279.325503 
L 194.730775 233.844545 
L 201.349939 233.844545 
L 201.637728 267.328951 
L 202.213308 267.328951 
L 202.501098 229.755489 
L 209.120262 229.755489 
L 209.408051 250.766151 
L 213.437108 250.766151 
L 213.724897 228.775463 
L 220.344061 228.775463 
L 220.631851 250.552433 
L 226.099856 250.552433 
L 226.387646 226.197466 
L 233.00681 226.197466 
L 233.2946 249.175426 
L 239.050395 249.175426 
L 239.338184 227.375285 
L 245.957348 227.375285 
L 246.245138 198.814371 
L 253.152092 198.814371 
L 253.439882 214.128317 
L 260.346835 214.128317 
L 260.634625 247.09295 
L 267.541579 247.09295 
L 267.829369 276.277282 
L 268.404948 276.277282 
L 268.692738 220.198302 
L 275.311902 220.198302 
L 275.599692 241.432952 
L 281.643276 241.432952 
L 281.931066 220.168734 
L 288.55023 220.168734 
L 288.83802 245.8196 
L 295.744973 245.8196 
L 296.032763 257.685221 
L 299.48624 257.685221 
L 299.77403 219.384571 
L 306.393194 219.384571 
L 306.680983 241.23505 
L 307.544353 241.23505 
L 307.832142 222.145022 
L 314.451306 222.145022 
L 314.739096 249.186188 
L 320.207101 249.186188 
L 320.494891 216.410187 
L 327.114055 216.410187 
L 327.401845 239.481562 
L 334.308799 239.481562 
L 334.596588 258.018954 
L 337.186696 258.018954 
L 337.474486 215.986112 
L 344.09365 215.986112 
L 344.381439 237.245648 
L 347.834916 237.245648 
L 348.122706 217.242834 
L 354.74187 217.242834 
L 355.02966 259.757742 
L 361.936614 259.757742 
L 362.224403 275.878162 
L 363.951142 275.878162 
L 364.238932 215.720537 
L 370.858096 215.720537 
L 371.145885 237.687289 
L 378.052839 237.687289 
L 378.340629 256.608057 
L 379.779578 256.608057 
L 380.067367 215.359401 
L 386.686531 215.359401 
L 386.974321 238.929755 
L 392.154536 238.929755 
L 392.442326 215.017468 
L 399.06149 215.017468 
L 399.34928 240.099641 
L 403.378336 240.099641 
L 403.666126 217.207342 
L 410.28529 217.207342 
L 410.57308 241.196201 
L 416.041085 241.196201 
L 416.328875 219.927524 
L 422.948039 219.927524 
L 423.235828 243.911999 
L 428.991623 243.911999 
L 429.279413 215.900622 
L 435.898577 215.900622 
L 436.186367 238.255254 
L 443.09332 238.255254 
L 443.38111 258.228392 
L 445.971218 258.228392 
L 446.259008 209.882515 
L 452.878172 209.882515 
L 453.165961 232.415639 
L 454.60491 232.415639 
L 454.60491 232.415639 
" clip-path="url(#p64d9738835)" style="fill: none; stroke-dasharray: 5.18,2.24; stroke-dashoffset: 0; stroke: #e69f00; stroke-width: 1.4"/>
   </g>
   <g id="line2d_107">
    <path d="M 454.60491 232.415639 
" clip-path="url(#p64d9738835)" style="fill: none; stroke: #e69f00; stroke-width: 1.5; stroke-linecap: square"/>
    <g clip-path="url(#p64d9738835)">
     <use xlink:href="#m10143addd7" x="454.60491" y="232.415639" style="fill: #e69f00; stroke: #e69f00"/>
    </g>
   </g>
   <g id="line2d_108">
    <path d="M 70.981186 251.664969 
L 75.298032 251.664969 
L 75.585822 258.750279 
L 76.736981 258.750279 
L 77.024771 255.941396 
L 79.327089 255.941396 
L 79.614878 250.41127 
L 82.492776 250.41127 
L 82.780566 251.457124 
L 84.507304 251.457124 
L 84.795094 257.841837 
L 86.234042 257.841837 
L 86.521832 252.127026 
L 91.702047 252.127026 
L 91.989837 250.22291 
L 96.306683 250.22291 
L 96.594473 245.538387 
L 102.925847 245.538387 
L 103.213637 241.984588 
L 108.969432 241.984588 
L 109.257222 232.157729 
L 115.876386 232.157729 
L 116.164175 273.134391 
L 117.890914 273.134391 
L 118.178704 232.915818 
L 124.797868 232.915818 
L 125.085657 255.91851 
L 125.373447 255.91851 
L 125.661237 231.957034 
L 132.280401 231.957034 
L 132.568191 253.833879 
L 135.158298 253.833879 
L 135.446088 228.94096 
L 141.777462 228.94096 
L 142.065252 230.875785 
L 148.684416 230.875785 
L 148.972206 189.718186 
L 155.87916 189.718186 
L 156.166949 191.236484 
L 163.073903 191.236484 
L 163.361693 233.256121 
L 170.268647 233.256121 
L 170.556436 230.23598 
L 177.46339 230.23598 
L 177.75118 280.895224 
L 178.03897 280.895224 
L 178.326759 219.809031 
L 184.945923 219.809031 
L 185.233713 241.101892 
L 191.277298 241.101892 
L 191.565087 219.266764 
L 198.184251 219.266764 
L 198.472041 245.685911 
L 201.637728 245.685911 
L 201.925518 216.77097 
L 208.544682 216.77097 
L 208.832472 245.730159 
L 211.710369 245.730159 
L 211.998159 216.457609 
L 218.329533 216.457609 
L 218.617323 218.813454 
L 225.236487 218.813454 
L 225.524277 241.527589 
L 230.992282 241.527589 
L 231.280072 216.592351 
L 237.899236 216.592351 
L 238.187025 239.305514 
L 242.791661 239.305514 
L 243.079451 217.055977 
L 249.698615 217.055977 
L 249.986405 249.90786 
L 251.713143 249.90786 
L 252.000933 217.407808 
L 258.620097 217.407808 
L 258.907887 248.539871 
L 265.81484 248.539871 
L 266.10263 260.520596 
L 268.404948 260.520596 
L 268.692738 220.045337 
L 275.311902 220.045337 
L 275.599692 239.625982 
L 282.506645 239.625982 
L 282.794435 264.030994 
L 284.233384 264.030994 
L 284.521173 220.198417 
L 291.140338 220.198417 
L 291.428127 243.282992 
L 298.335081 243.282992 
L 298.622871 219.370393 
L 305.242035 219.370393 
L 305.529825 239.827226 
L 310.42225 239.827226 
L 310.71004 215.625626 
L 317.329204 215.625626 
L 317.616994 238.516052 
L 322.797209 238.516052 
L 323.084999 215.1113 
L 329.704163 215.1113 
L 329.991952 238.783331 
L 336.898906 238.783331 
L 337.186696 256.756377 
L 339.776804 256.756377 
L 340.064593 214.023851 
L 346.683757 214.023851 
L 346.971547 233.47348 
L 351.863973 233.47348 
L 352.151762 214.974524 
L 358.770926 214.974524 
L 359.058716 204.16655 
L 365.96567 204.16655 
L 366.25346 209.87018 
L 373.160414 209.87018 
L 373.448203 231.082215 
L 380.355157 231.082215 
L 380.642947 252.681401 
L 382.657475 252.681401 
L 382.657475 252.681401 
" clip-path="url(#p64d9738835)" style="fill: none; stroke-dasharray: 8.96,2.24,1.4,2.24; stroke-dashoffset: 0; stroke: #009e73; stroke-width: 1.4"/>
   </g>
   <g id="line2d_109">
    <path d="M 382.657475 252.681401 
" clip-path="url(#p64d9738835)" style="fill: none; stroke: #009e73; stroke-width: 1.5; stroke-linecap: square"/>
    <g clip-path="url(#p64d9738835)">
     <use xlink:href="#m48a0a06c55" x="382.657475" y="252.681401" style="fill: #009e73; stroke: #009e73"/>
    </g>
   </g>
   <g id="patch_8">
    <path d="M 51.8 343.24 
L 51.8 182.37 
" style="fill: none; stroke: #000000; stroke-width: 0.8; stroke-linejoin: miter; stroke-linecap: square"/>
   </g>
   <g id="patch_9">
    <path d="M 473.786096 343.24 
L 473.786096 182.37 
" style="fill: none; stroke: #000000; stroke-width: 0.8; stroke-linejoin: miter; stroke-linecap: square"/>
   </g>
   <g id="patch_10">
    <path d="M 51.8 343.24 
L 473.786096 343.24 
" style="fill: none; stroke: #000000; stroke-width: 0.8; stroke-linejoin: miter; stroke-linecap: square"/>
   </g>
   <g id="patch_11">
    <path d="M 51.8 182.37 
L 473.786096 182.37 
" style="fill: none; stroke: #000000; stroke-width: 0.8; stroke-linejoin: miter; stroke-linecap: square"/>
   </g>
  </g>
 </g>
 <defs>
  <clipPath id="pbddbdab5f4">
   <rect x="51.8" y="7.2" width="421.986096" height="160.87"/>
  </clipPath>
  <clipPath id="p64d9738835">
   <rect x="51.8" y="182.37" width="421.986096" height="160.87"/>
  </clipPath>
 </defs>
</svg>
