<?xml version="1.0" encoding="utf-8" standalone="no"?>
<!DOCTYPE svg PUBLIC "-//W3C//DTD SVG 1.1//EN"
  "http://www.w3.org/Graphics/SVG/1.1/DTD/svg11.dtd">
<svg xmlns:xlink="http://www.w3.org/1999/xlink" width="684pt" height="252pt" viewBox="0 0 684 252" xmlns="http://www.w3.org/2000/svg" version="1.1">
 <metadata>
  <rdf:RDF xmlns:dc="http://purl.org/dc/elements/1.1/" xmlns:cc="http://creativecommons.org/ns#" xmlns:rdf="http://www.w3.org/1999/02/22-rdf-syntax-ns#">
   <cc:Work>
    <dc:type rdf:resource="http://purl.org/dc/dcmitype/StillImage"/>
    <dc:date>2026-05-13T07:44:54.704746</dc:date>
    <dc:format>image/svg+xml</dc:format>
    <dc:creator>
     <cc:Agent>
      <dc:title>Matplotlib v3.10.9, https://matplotlib.org/</dc:title>
     </cc:Agent>
    </dc:creator>
   </cc:Work>
  </rdf:RDF>
 </metadata>
 <defs>
  <style type="text/css">*{stroke-linejoin: round; stroke-linecap: butt}</style>
 </defs>
 <g id="figure_1">
  <g id="patch_1">
   <path d="M 0 252 
L 684 252 
L 684 0 
L 0 0 
z
" style="fill: #ffffff"/>
  </g>
  <g id="axes_1">
   <g id="patch_2">
    <path d="M 45.94399 218.64351 
L 341.200313 218.64351 
L 341.200313 3.00024 
L 45.94399 3.00024 
z
" style="fill: #ffffff"/>
   </g>
   <g id="matplotlib.axis_1">
    <g id="xtick_1">
     <g id="line2d_1">
      <path d="M 59.364732 218.64351 
L 59.364732 3.00024 
" clip-path="url(#p61029fe0b8)" style="fill: none; stroke: #b0b0b0; stroke-opacity: 0.3; stroke-width: 0.4; stroke-linecap: square"/>
     </g>
     <g id="line2d_2">
      <defs>
       <path id="m9b6f30fc9c" d="M 0 0 
L 0 3.5 
" style="stroke: #000000; stroke-width: 0.8"/>
      </defs>
      <g>
       <use xlink:href="#m9b6f30fc9c" x="59.364732" y="218.64351" style="stroke: #000000; stroke-width: 0.8"/>
      </g>
     </g>
     <g id="text_1">
      <!-- $\mathdefault{10^{-1}}$ -->
      <g transform="translate(47.614732 233.241948) scale(0.1 -0.1)">
       <defs>
        <path id="DejaVuSans-31" d="M 794 531 
L 1825 531 
L 1825 4091 
L 703 3866 
L 703 4441 
L 1819 4666 
L 2450 4666 
L 2450 531 
L 3481 531 
L 3481 0 
L 794 0 
L 794 531 
z
" transform="scale(0.015625)"/>
        <path id="DejaVuSans-30" d="M 2034 4250 
Q 1547 4250 1301 3770 
Q 1056 3291 1056 2328 
Q 1056 1369 1301 889 
Q 1547 409 2034 409 
Q 2525 409 2770 889 
Q 3016 1369 3016 2328 
Q 3016 3291 2770 3770 
Q 2525 4250 2034 4250 
z
M 2034 4750 
Q 2819 4750 3233 4129 
Q 3647 3509 3647 2328 
Q 3647 1150 3233 529 
Q 2819 -91 2034 -91 
Q 1250 -91 836 529 
Q 422 1150 422 2328 
Q 422 3509 836 4129 
Q 1250 4750 2034 4750 
z
" transform="scale(0.015625)"/>
        <path id="DejaVuSans-2212" d="M 678 2272 
L 4684 2272 
L 4684 1741 
L 678 1741 
L 678 2272 
z
" transform="scale(0.015625)"/>
       </defs>
       <use xlink:href="#DejaVuSans-31" transform="translate(0 0.684375)"/>
       <use xlink:href="#DejaVuSans-30" transform="translate(63.623047 0.684375)"/>
       <use xlink:href="#DejaVuSans-2212" transform="translate(128.203125 38.965625) scale(0.7)"/>
       <use xlink:href="#DejaVuSans-31" transform="translate(186.855469 38.965625) scale(0.7)"/>
      </g>
     </g>
    </g>
    <g id="xtick_2">
     <g id="line2d_3">
      <path d="M 193.572151 218.64351 
L 193.572151 3.00024 
" clip-path="url(#p61029fe0b8)" style="fill: none; stroke: #b0b0b0; stroke-opacity: 0.3; stroke-width: 0.4; stroke-linecap: square"/>
     </g>
     <g id="line2d_4">
      <g>
       <use xlink:href="#m9b6f30fc9c" x="193.572151" y="218.64351" style="stroke: #000000; stroke-width: 0.8"/>
      </g>
     </g>
     <g id="text_2">
      <!-- $\mathdefault{10^{0}}$ -->
      <g transform="translate(184.772151 233.241948) scale(0.1 -0.1)">
       <use xlink:href="#DejaVuSans-31" transform="translate(0 0.765625)"/>
       <use xlink:href="#DejaVuSans-30" transform="translate(63.623047 0.765625)"/>
       <use xlink:href="#DejaVuSans-30" transform="translate(128.203125 39.046875) scale(0.7)"/>
      </g>
     </g>
    </g>
    <g id="xtick_3">
     <g id="line2d_5">
      <path d="M 327.779571 218.64351 
L 327.779571 3.00024 
" clip-path="url(#p61029fe0b8)" style="fill: none; stroke: #b0b0b0; stroke-opacity: 0.3; stroke-width: 0.4; stroke-linecap: square"/>
     </g>
     <g id="line2d_6">
      <g>
       <use xlink:href="#m9b6f30fc9c" x="327.779571" y="218.64351" style="stroke: #000000; stroke-width: 0.8"/>
      </g>
     </g>
     <g id="text_3">
      <!-- $\mathdefault{10^{1}}$ -->
      <g transform="translate(318.979571 233.241948) scale(0.1 -0.1)">
       <use xlink:href="#DejaVuSans-31" transform="translate(0 0.684375)"/>
       <use xlink:href="#DejaVuSans-30" transform="translate(63.623047 0.684375)"/>
       <use xlink:href="#DejaVuSans-31" transform="translate(128.203125 38.965625) scale(0.7)"/>
      </g>
     </g>
    </g>
    <g id="xtick_4">
     <g id="line2d_7">
      <path d="M 46.358689 218.64351 
L 46.358689 3.00024 
" clip-path="url(#p61029fe0b8)" style="fill: none; stroke: #b0b0b0; stroke-opacity: 0.3; stroke-width: 0.4; stroke-linecap: square"/>
     </g>
     <g id="line2d_8">
      <defs>
       <path id="m998f9cea1b" d="M 0 0 
L 0 2 
" style="stroke: #000000; stroke-width: 0.6"/>
      </defs>
      <g>
       <use xlink:href="#m998f9cea1b" x="46.358689" y="218.64351" style="stroke: #000000; stroke-width: 0.6"/>
      </g>
     </g>
    </g>
    <g id="xtick_5">
     <g id="line2d_9">
      <path d="M 53.223737 218.64351 
L 53.223737 3.00024 
" clip-path="url(#p61029fe0b8)" style="fill: none; stroke: #b0b0b0; stroke-opacity: 0.3; stroke-width: 0.4; stroke-linecap: square"/>
     </g>
     <g id="line2d_10">
      <g>
       <use xlink:href="#m998f9cea1b" x="53.223737" y="218.64351" style="stroke: #000000; stroke-width: 0.6"/>
      </g>
     </g>
    </g>
    <g id="xtick_6">
     <g id="line2d_11">
      <path d="M 99.765191 218.64351 
L 99.765191 3.00024 
" clip-path="url(#p61029fe0b8)" style="fill: none; stroke: #b0b0b0; stroke-opacity: 0.3; stroke-width: 0.4; stroke-linecap: square"/>
     </g>
     <g id="line2d_12">
      <g>
       <use xlink:href="#m998f9cea1b" x="99.765191" y="218.64351" style="stroke: #000000; stroke-width: 0.6"/>
      </g>
     </g>
    </g>
    <g id="xtick_7">
     <g id="line2d_13">
      <path d="M 123.397944 218.64351 
L 123.397944 3.00024 
" clip-path="url(#p61029fe0b8)" style="fill: none; stroke: #b0b0b0; stroke-opacity: 0.3; stroke-width: 0.4; stroke-linecap: square"/>
     </g>
     <g id="line2d_14">
      <g>
       <use xlink:href="#m998f9cea1b" x="123.397944" y="218.64351" style="stroke: #000000; stroke-width: 0.6"/>
      </g>
     </g>
    </g>
    <g id="xtick_8">
     <g id="line2d_15">
      <path d="M 140.16565 218.64351 
L 140.16565 3.00024 
" clip-path="url(#p61029fe0b8)" style="fill: none; stroke: #b0b0b0; stroke-opacity: 0.3; stroke-width: 0.4; stroke-linecap: square"/>
     </g>
     <g id="line2d_16">
      <g>
       <use xlink:href="#m998f9cea1b" x="140.16565" y="218.64351" style="stroke: #000000; stroke-width: 0.6"/>
      </g>
     </g>
    </g>
    <g id="xtick_9">
     <g id="line2d_17">
      <path d="M 153.171692 218.64351 
L 153.171692 3.00024 
" clip-path="url(#p61029fe0b8)" style="fill: none; stroke: #b0b0b0; stroke-opacity: 0.3; stroke-width: 0.4; stroke-linecap: square"/>
     </g>
     <g id="line2d_18">
      <g>
       <use xlink:href="#m998f9cea1b" x="153.171692" y="218.64351" style="stroke: #000000; stroke-width: 0.6"/>
      </g>
     </g>
    </g>
    <g id="xtick_10">
     <g id="line2d_19">
      <path d="M 163.798403 218.64351 
L 163.798403 3.00024 
" clip-path="url(#p61029fe0b8)" style="fill: none; stroke: #b0b0b0; stroke-opacity: 0.3; stroke-width: 0.4; stroke-linecap: square"/>
     </g>
     <g id="line2d_20">
      <g>
       <use xlink:href="#m998f9cea1b" x="163.798403" y="218.64351" style="stroke: #000000; stroke-width: 0.6"/>
      </g>
     </g>
    </g>
    <g id="xtick_11">
     <g id="line2d_21">
      <path d="M 172.783159 218.64351 
L 172.783159 3.00024 
" clip-path="url(#p61029fe0b8)" style="fill: none; stroke: #b0b0b0; stroke-opacity: 0.3; stroke-width: 0.4; stroke-linecap: square"/>
     </g>
     <g id="line2d_22">
      <g>
       <use xlink:href="#m998f9cea1b" x="172.783159" y="218.64351" style="stroke: #000000; stroke-width: 0.6"/>
      </g>
     </g>
    </g>
    <g id="xtick_12">
     <g id="line2d_23">
      <path d="M 180.566108 218.64351 
L 180.566108 3.00024 
" clip-path="url(#p61029fe0b8)" style="fill: none; stroke: #b0b0b0; stroke-opacity: 0.3; stroke-width: 0.4; stroke-linecap: square"/>
     </g>
     <g id="line2d_24">
      <g>
       <use xlink:href="#m998f9cea1b" x="180.566108" y="218.64351" style="stroke: #000000; stroke-width: 0.6"/>
      </g>
     </g>
    </g>
    <g id="xtick_13">
     <g id="line2d_25">
      <path d="M 187.431157 218.64351 
L 187.431157 3.00024 
" clip-path="url(#p61029fe0b8)" style="fill: none; stroke: #b0b0b0; stroke-opacity: 0.3; stroke-width: 0.4; stroke-linecap: square"/>
     </g>
     <g id="line2d_26">
      <g>
       <use xlink:href="#m998f9cea1b" x="187.431157" y="218.64351" style="stroke: #000000; stroke-width: 0.6"/>
      </g>
     </g>
    </g>
    <g id="xtick_14">
     <g id="line2d_27">
      <path d="M 233.97261 218.64351 
L 233.97261 3.00024 
" clip-path="url(#p61029fe0b8)" style="fill: none; stroke: #b0b0b0; stroke-opacity: 0.3; stroke-width: 0.4; stroke-linecap: square"/>
     </g>
     <g id="line2d_28">
      <g>
       <use xlink:href="#m998f9cea1b" x="233.97261" y="218.64351" style="stroke: #000000; stroke-width: 0.6"/>
      </g>
     </g>
    </g>
    <g id="xtick_15">
     <g id="line2d_29">
      <path d="M 257.605364 218.64351 
L 257.605364 3.00024 
" clip-path="url(#p61029fe0b8)" style="fill: none; stroke: #b0b0b0; stroke-opacity: 0.3; stroke-width: 0.4; stroke-linecap: square"/>
     </g>
     <g id="line2d_30">
      <g>
       <use xlink:href="#m998f9cea1b" x="257.605364" y="218.64351" style="stroke: #000000; stroke-width: 0.6"/>
      </g>
     </g>
    </g>
    <g id="xtick_16">
     <g id="line2d_31">
      <path d="M 274.373069 218.64351 
L 274.373069 3.00024 
" clip-path="url(#p61029fe0b8)" style="fill: none; stroke: #b0b0b0; stroke-opacity: 0.3; stroke-width: 0.4; stroke-linecap: square"/>
     </g>
     <g id="line2d_32">
      <g>
       <use xlink:href="#m998f9cea1b" x="274.373069" y="218.64351" style="stroke: #000000; stroke-width: 0.6"/>
      </g>
     </g>
    </g>
    <g id="xtick_17">
     <g id="line2d_33">
      <path d="M 287.379112 218.64351 
L 287.379112 3.00024 
" clip-path="url(#p61029fe0b8)" style="fill: none; stroke: #b0b0b0; stroke-opacity: 0.3; stroke-width: 0.4; stroke-linecap: square"/>
     </g>
     <g id="line2d_34">
      <g>
       <use xlink:href="#m998f9cea1b" x="287.379112" y="218.64351" style="stroke: #000000; stroke-width: 0.6"/>
      </g>
     </g>
    </g>
    <g id="xtick_18">
     <g id="line2d_35">
      <path d="M 298.005822 218.64351 
L 298.005822 3.00024 
" clip-path="url(#p61029fe0b8)" style="fill: none; stroke: #b0b0b0; stroke-opacity: 0.3; stroke-width: 0.4; stroke-linecap: square"/>
     </g>
     <g id="line2d_36">
      <g>
       <use xlink:href="#m998f9cea1b" x="298.005822" y="218.64351" style="stroke: #000000; stroke-width: 0.6"/>
      </g>
     </g>
    </g>
    <g id="xtick_19">
     <g id="line2d_37">
      <path d="M 306.990578 218.64351 
L 306.990578 3.00024 
" clip-path="url(#p61029fe0b8)" style="fill: none; stroke: #b0b0b0; stroke-opacity: 0.3; stroke-width: 0.4; stroke-linecap: square"/>
     </g>
     <g id="line2d_38">
      <g>
       <use xlink:href="#m998f9cea1b" x="306.990578" y="218.64351" style="stroke: #000000; stroke-width: 0.6"/>
      </g>
     </g>
    </g>
    <g id="xtick_20">
     <g id="line2d_39">
      <path d="M 314.773528 218.64351 
L 314.773528 3.00024 
" clip-path="url(#p61029fe0b8)" style="fill: none; stroke: #b0b0b0; stroke-opacity: 0.3; stroke-width: 0.4; stroke-linecap: square"/>
     </g>
     <g id="line2d_40">
      <g>
       <use xlink:href="#m998f9cea1b" x="314.773528" y="218.64351" style="stroke: #000000; stroke-width: 0.6"/>
      </g>
     </g>
    </g>
    <g id="xtick_21">
     <g id="line2d_41">
      <path d="M 321.638576 218.64351 
L 321.638576 3.00024 
" clip-path="url(#p61029fe0b8)" style="fill: none; stroke: #b0b0b0; stroke-opacity: 0.3; stroke-width: 0.4; stroke-linecap: square"/>
     </g>
     <g id="line2d_42">
      <g>
       <use xlink:href="#m998f9cea1b" x="321.638576" y="218.64351" style="stroke: #000000; stroke-width: 0.6"/>
      </g>
     </g>
    </g>
    <g id="text_4">
     <!-- $\lambda$ -->
     <g transform="translate(190.572151 246.920073) scale(0.1 -0.1)">
      <defs>
       <path id="DejaVuSans-Oblique-3bb" d="M 2350 4316 
L 3125 0 
L 2516 0 
L 2038 2588 
L 328 0 
L -281 0 
L 1903 3356 
L 1794 3975 
Q 1725 4369 1391 4369 
L 1091 4369 
L 1184 4863 
L 1550 4856 
Q 2253 4847 2350 4316 
z
" transform="scale(0.015625)"/>
      </defs>
      <use xlink:href="#DejaVuSans-Oblique-3bb" transform="translate(0 0.015625)"/>
     </g>
    </g>
   </g>
   <g id="matplotlib.axis_2">
    <g id="ytick_1">
     <g id="line2d_43">
      <path d="M 45.94399 186.553509 
L 341.200313 186.553509 
" clip-path="url(#p61029fe0b8)" style="fill: none; stroke: #b0b0b0; stroke-opacity: 0.3; stroke-width: 0.4; stroke-linecap: square"/>
     </g>
     <g id="line2d_44">
      <defs>
       <path id="m63c9688f1e" d="M 0 0 
L -3.5 0 
" style="stroke: #000000; stroke-width: 0.8"/>
      </defs>
      <g>
       <use xlink:href="#m63c9688f1e" x="45.94399" y="186.553509" style="stroke: #000000; stroke-width: 0.8"/>
      </g>
     </g>
     <g id="text_5">
      <!-- 31.4 -->
      <g transform="translate(16.678365 190.352728) scale(0.1 -0.1)">
       <defs>
        <path id="DejaVuSans-33" d="M 2597 2516 
Q 3050 2419 3304 2112 
Q 3559 1806 3559 1356 
Q 3559 666 3084 287 
Q 2609 -91 1734 -91 
Q 1441 -91 1130 -33 
Q 819 25 488 141 
L 488 750 
Q 750 597 1062 519 
Q 1375 441 1716 441 
Q 2309 441 2620 675 
Q 2931 909 2931 1356 
Q 2931 1769 2642 2001 
Q 2353 2234 1838 2234 
L 1294 2234 
L 1294 2753 
L 1863 2753 
Q 2328 2753 2575 2939 
Q 2822 3125 2822 3475 
Q 2822 3834 2567 4026 
Q 2313 4219 1838 4219 
Q 1578 4219 1281 4162 
Q 984 4106 628 3988 
L 628 4550 
Q 988 4650 1302 4700 
Q 1616 4750 1894 4750 
Q 2613 4750 3031 4423 
Q 3450 4097 3450 3541 
Q 3450 3153 3228 2886 
Q 3006 2619 2597 2516 
z
" transform="scale(0.015625)"/>
        <path id="DejaVuSans-2e" d="M 684 794 
L 1344 794 
L 1344 0 
L 684 0 
L 684 794 
z
" transform="scale(0.015625)"/>
        <path id="DejaVuSans-34" d="M 2419 4116 
L 825 1625 
L 2419 1625 
L 2419 4116 
z
M 2253 4666 
L 3047 4666 
L 3047 1625 
L 3713 1625 
L 3713 1100 
L 3047 1100 
L 3047 0 
L 2419 0 
L 2419 1100 
L 313 1100 
L 313 1709 
L 2253 4666 
z
" transform="scale(0.015625)"/>
       </defs>
       <use xlink:href="#DejaVuSans-33"/>
       <use xlink:href="#DejaVuSans-31" transform="translate(63.623047 0)"/>
       <use xlink:href="#DejaVuSans-2e" transform="translate(127.246094 0)"/>
       <use xlink:href="#DejaVuSans-34" transform="translate(159.033203 0)"/>
      </g>
     </g>
    </g>
    <g id="ytick_2">
     <g id="line2d_45">
      <path d="M 45.94399 146.029812 
L 341.200313 146.029812 
" clip-path="url(#p61029fe0b8)" style="fill: none; stroke: #b0b0b0; stroke-opacity: 0.3; stroke-width: 0.4; stroke-linecap: square"/>
     </g>
     <g id="line2d_46">
      <g>
       <use xlink:href="#m63c9688f1e" x="45.94399" y="146.029812" style="stroke: #000000; stroke-width: 0.8"/>
      </g>
     </g>
     <g id="text_6">
      <!-- 31.6 -->
      <g transform="translate(16.678365 149.82903) scale(0.1 -0.1)">
       <defs>
        <path id="DejaVuSans-36" d="M 2113 2584 
Q 1688 2584 1439 2293 
Q 1191 2003 1191 1497 
Q 1191 994 1439 701 
Q 1688 409 2113 409 
Q 2538 409 2786 701 
Q 3034 994 3034 1497 
Q 3034 2003 2786 2293 
Q 2538 2584 2113 2584 
z
M 3366 4563 
L 3366 3988 
Q 3128 4100 2886 4159 
Q 2644 4219 2406 4219 
Q 1781 4219 1451 3797 
Q 1122 3375 1075 2522 
Q 1259 2794 1537 2939 
Q 1816 3084 2150 3084 
Q 2853 3084 3261 2657 
Q 3669 2231 3669 1497 
Q 3669 778 3244 343 
Q 2819 -91 2113 -91 
Q 1303 -91 875 529 
Q 447 1150 447 2328 
Q 447 3434 972 4092 
Q 1497 4750 2381 4750 
Q 2619 4750 2861 4703 
Q 3103 4656 3366 4563 
z
" transform="scale(0.015625)"/>
       </defs>
       <use xlink:href="#DejaVuSans-33"/>
       <use xlink:href="#DejaVuSans-31" transform="translate(63.623047 0)"/>
       <use xlink:href="#DejaVuSans-2e" transform="translate(127.246094 0)"/>
       <use xlink:href="#DejaVuSans-36" transform="translate(159.033203 0)"/>
      </g>
     </g>
    </g>
    <g id="ytick_3">
     <g id="line2d_47">
      <path d="M 45.94399 105.506114 
L 341.200313 105.506114 
" clip-path="url(#p61029fe0b8)" style="fill: none; stroke: #b0b0b0; stroke-opacity: 0.3; stroke-width: 0.4; stroke-linecap: square"/>
     </g>
     <g id="line2d_48">
      <g>
       <use xlink:href="#m63c9688f1e" x="45.94399" y="105.506114" style="stroke: #000000; stroke-width: 0.8"/>
      </g>
     </g>
     <g id="text_7">
      <!-- 31.8 -->
      <g transform="translate(16.678365 109.305333) scale(0.1 -0.1)">
       <defs>
        <path id="DejaVuSans-38" d="M 2034 2216 
Q 1584 2216 1326 1975 
Q 1069 1734 1069 1313 
Q 1069 891 1326 650 
Q 1584 409 2034 409 
Q 2484 409 2743 651 
Q 3003 894 3003 1313 
Q 3003 1734 2745 1975 
Q 2488 2216 2034 2216 
z
M 1403 2484 
Q 997 2584 770 2862 
Q 544 3141 544 3541 
Q 544 4100 942 4425 
Q 1341 4750 2034 4750 
Q 2731 4750 3128 4425 
Q 3525 4100 3525 3541 
Q 3525 3141 3298 2862 
Q 3072 2584 2669 2484 
Q 3125 2378 3379 2068 
Q 3634 1759 3634 1313 
Q 3634 634 3220 271 
Q 2806 -91 2034 -91 
Q 1263 -91 848 271 
Q 434 634 434 1313 
Q 434 1759 690 2068 
Q 947 2378 1403 2484 
z
M 1172 3481 
Q 1172 3119 1398 2916 
Q 1625 2713 2034 2713 
Q 2441 2713 2670 2916 
Q 2900 3119 2900 3481 
Q 2900 3844 2670 4047 
Q 2441 4250 2034 4250 
Q 1625 4250 1398 4047 
Q 1172 3844 1172 3481 
z
" transform="scale(0.015625)"/>
       </defs>
       <use xlink:href="#DejaVuSans-33"/>
       <use xlink:href="#DejaVuSans-31" transform="translate(63.623047 0)"/>
       <use xlink:href="#DejaVuSans-2e" transform="translate(127.246094 0)"/>
       <use xlink:href="#DejaVuSans-38" transform="translate(159.033203 0)"/>
      </g>
     </g>
    </g>
    <g id="ytick_4">
     <g id="line2d_49">
      <path d="M 45.94399 64.982416 
L 341.200313 64.982416 
" clip-path="url(#p61029fe0b8)" style="fill: none; stroke: #b0b0b0; stroke-opacity: 0.3; stroke-width: 0.4; stroke-linecap: square"/>
     </g>
     <g id="line2d_50">
      <g>
       <use xlink:href="#m63c9688f1e" x="45.94399" y="64.982416" style="stroke: #000000; stroke-width: 0.8"/>
      </g>
     </g>
     <g id="text_8">
      <!-- 32.0 -->
      <g transform="translate(16.678365 68.781635) scale(0.1 -0.1)">
       <defs>
        <path id="DejaVuSans-32" d="M 1228 531 
L 3431 531 
L 3431 0 
L 469 0 
L 469 531 
Q 828 903 1448 1529 
Q 2069 2156 2228 2338 
Q 2531 2678 2651 2914 
Q 2772 3150 2772 3378 
Q 2772 3750 2511 3984 
Q 2250 4219 1831 4219 
Q 1534 4219 1204 4116 
Q 875 4013 500 3803 
L 500 4441 
Q 881 4594 1212 4672 
Q 1544 4750 1819 4750 
Q 2544 4750 2975 4387 
Q 3406 4025 3406 3419 
Q 3406 3131 3298 2873 
Q 3191 2616 2906 2266 
Q 2828 2175 2409 1742 
Q 1991 1309 1228 531 
z
" transform="scale(0.015625)"/>
       </defs>
       <use xlink:href="#DejaVuSans-33"/>
       <use xlink:href="#DejaVuSans-32" transform="translate(63.623047 0)"/>
       <use xlink:href="#DejaVuSans-2e" transform="translate(127.246094 0)"/>
       <use xlink:href="#DejaVuSans-30" transform="translate(159.033203 0)"/>
      </g>
     </g>
    </g>
    <g id="ytick_5">
     <g id="line2d_51">
      <path d="M 45.94399 24.458718 
L 341.200313 24.458718 
" clip-path="url(#p61029fe0b8)" style="fill: none; stroke: #b0b0b0; stroke-opacity: 0.3; stroke-width: 0.4; stroke-linecap: square"/>
     </g>
     <g id="line2d_52">
      <g>
       <use xlink:href="#m63c9688f1e" x="45.94399" y="24.458718" style="stroke: #000000; stroke-width: 0.8"/>
      </g>
     </g>
     <g id="text_9">
      <!-- 32.2 -->
      <g transform="translate(16.678365 28.257937) scale(0.1 -0.1)">
       <use xlink:href="#DejaVuSans-33"/>
       <use xlink:href="#DejaVuSans-32" transform="translate(63.623047 0)"/>
       <use xlink:href="#DejaVuSans-2e" transform="translate(127.246094 0)"/>
       <use xlink:href="#DejaVuSans-32" transform="translate(159.033203 0)"/>
      </g>
     </g>
    </g>
    <g id="text_10">
     <!-- test PSNR @ ρ=0.20 (dB) -->
     <g transform="translate(10.598678 174.186719) rotate(-90) scale(0.1 -0.1)">
      <defs>
       <path id="DejaVuSans-74" d="M 1172 4494 
L 1172 3500 
L 2356 3500 
L 2356 3053 
L 1172 3053 
L 1172 1153 
Q 1172 725 1289 603 
Q 1406 481 1766 481 
L 2356 481 
L 2356 0 
L 1766 0 
Q 1100 0 847 248 
Q 594 497 594 1153 
L 594 3053 
L 172 3053 
L 172 3500 
L 594 3500 
L 594 4494 
L 1172 4494 
z
" transform="scale(0.015625)"/>
       <path id="DejaVuSans-65" d="M 3597 1894 
L 3597 1613 
L 953 1613 
Q 991 1019 1311 708 
Q 1631 397 2203 397 
Q 2534 397 2845 478 
Q 3156 559 3463 722 
L 3463 178 
Q 3153 47 2828 -22 
Q 2503 -91 2169 -91 
Q 1331 -91 842 396 
Q 353 884 353 1716 
Q 353 2575 817 3079 
Q 1281 3584 2069 3584 
Q 2775 3584 3186 3129 
Q 3597 2675 3597 1894 
z
M 3022 2063 
Q 3016 2534 2758 2815 
Q 2500 3097 2075 3097 
Q 1594 3097 1305 2825 
Q 1016 2553 972 2059 
L 3022 2063 
z
" transform="scale(0.015625)"/>
       <path id="DejaVuSans-73" d="M 2834 3397 
L 2834 2853 
Q 2591 2978 2328 3040 
Q 2066 3103 1784 3103 
Q 1356 3103 1142 2972 
Q 928 2841 928 2578 
Q 928 2378 1081 2264 
Q 1234 2150 1697 2047 
L 1894 2003 
Q 2506 1872 2764 1633 
Q 3022 1394 3022 966 
Q 3022 478 2636 193 
Q 2250 -91 1575 -91 
Q 1294 -91 989 -36 
Q 684 19 347 128 
L 347 722 
Q 666 556 975 473 
Q 1284 391 1588 391 
Q 1994 391 2212 530 
Q 2431 669 2431 922 
Q 2431 1156 2273 1281 
Q 2116 1406 1581 1522 
L 1381 1569 
Q 847 1681 609 1914 
Q 372 2147 372 2553 
Q 372 3047 722 3315 
Q 1072 3584 1716 3584 
Q 2034 3584 2315 3537 
Q 2597 3491 2834 3397 
z
" transform="scale(0.015625)"/>
       <path id="DejaVuSans-20" transform="scale(0.015625)"/>
       <path id="DejaVuSans-50" d="M 1259 4147 
L 1259 2394 
L 2053 2394 
Q 2494 2394 2734 2622 
Q 2975 2850 2975 3272 
Q 2975 3691 2734 3919 
Q 2494 4147 2053 4147 
L 1259 4147 
z
M 628 4666 
L 2053 4666 
Q 2838 4666 3239 4311 
Q 3641 3956 3641 3272 
Q 3641 2581 3239 2228 
Q 2838 1875 2053 1875 
L 1259 1875 
L 1259 0 
L 628 0 
L 628 4666 
z
" transform="scale(0.015625)"/>
       <path id="DejaVuSans-53" d="M 3425 4513 
L 3425 3897 
Q 3066 4069 2747 4153 
Q 2428 4238 2131 4238 
Q 1616 4238 1336 4038 
Q 1056 3838 1056 3469 
Q 1056 3159 1242 3001 
Q 1428 2844 1947 2747 
L 2328 2669 
Q 3034 2534 3370 2195 
Q 3706 1856 3706 1288 
Q 3706 609 3251 259 
Q 2797 -91 1919 -91 
Q 1588 -91 1214 -16 
Q 841 59 441 206 
L 441 856 
Q 825 641 1194 531 
Q 1563 422 1919 422 
Q 2459 422 2753 634 
Q 3047 847 3047 1241 
Q 3047 1584 2836 1778 
Q 2625 1972 2144 2069 
L 1759 2144 
Q 1053 2284 737 2584 
Q 422 2884 422 3419 
Q 422 4038 858 4394 
Q 1294 4750 2059 4750 
Q 2388 4750 2728 4690 
Q 3069 4631 3425 4513 
z
" transform="scale(0.015625)"/>
       <path id="DejaVuSans-4e" d="M 628 4666 
L 1478 4666 
L 3547 763 
L 3547 4666 
L 4159 4666 
L 4159 0 
L 3309 0 
L 1241 3903 
L 1241 0 
L 628 0 
L 628 4666 
z
" transform="scale(0.015625)"/>
       <path id="DejaVuSans-52" d="M 2841 2188 
Q 3044 2119 3236 1894 
Q 3428 1669 3622 1275 
L 4263 0 
L 3584 0 
L 2988 1197 
Q 2756 1666 2539 1819 
Q 2322 1972 1947 1972 
L 1259 1972 
L 1259 0 
L 628 0 
L 628 4666 
L 2053 4666 
Q 2853 4666 3247 4331 
Q 3641 3997 3641 3322 
Q 3641 2881 3436 2590 
Q 3231 2300 2841 2188 
z
M 1259 4147 
L 1259 2491 
L 2053 2491 
Q 2509 2491 2742 2702 
Q 2975 2913 2975 3322 
Q 2975 3731 2742 3939 
Q 2509 4147 2053 4147 
L 1259 4147 
z
" transform="scale(0.015625)"/>
       <path id="DejaVuSans-40" d="M 2381 1678 
Q 2381 1231 2603 976 
Q 2825 722 3213 722 
Q 3597 722 3817 978 
Q 4038 1234 4038 1678 
Q 4038 2116 3813 2373 
Q 3588 2631 3206 2631 
Q 2828 2631 2604 2375 
Q 2381 2119 2381 1678 
z
M 4084 744 
Q 3897 503 3655 389 
Q 3413 275 3091 275 
Q 2553 275 2217 664 
Q 1881 1053 1881 1678 
Q 1881 2303 2218 2693 
Q 2556 3084 3091 3084 
Q 3413 3084 3656 2967 
Q 3900 2850 4084 2613 
L 4084 3022 
L 4531 3022 
L 4531 722 
Q 4988 791 5245 1139 
Q 5503 1488 5503 2041 
Q 5503 2375 5404 2669 
Q 5306 2963 5106 3213 
Q 4781 3622 4314 3839 
Q 3847 4056 3297 4056 
Q 2913 4056 2559 3954 
Q 2206 3853 1906 3653 
Q 1416 3334 1139 2817 
Q 863 2300 863 1697 
Q 863 1200 1042 765 
Q 1222 331 1563 0 
Q 1891 -325 2322 -495 
Q 2753 -666 3244 -666 
Q 3647 -666 4036 -530 
Q 4425 -394 4750 -141 
L 5031 -488 
Q 4641 -791 4180 -952 
Q 3719 -1113 3244 -1113 
Q 2666 -1113 2153 -908 
Q 1641 -703 1241 -313 
Q 841 78 631 592 
Q 422 1106 422 1697 
Q 422 2266 634 2781 
Q 847 3297 1241 3688 
Q 1644 4084 2172 4295 
Q 2700 4506 3291 4506 
Q 3953 4506 4520 4234 
Q 5088 3963 5472 3463 
Q 5706 3156 5829 2797 
Q 5953 2438 5953 2053 
Q 5953 1231 5456 756 
Q 4959 281 4084 263 
L 4084 744 
z
" transform="scale(0.015625)"/>
       <path id="DejaVuSans-3c1" d="M 863 2875 
Q 1053 3194 1525 3475 
Q 1709 3584 2278 3584 
Q 2916 3584 3314 3078 
Q 3713 2572 3713 1747 
Q 3713 922 3314 415 
Q 2916 -91 2278 -91 
Q 1894 -91 1617 61 
Q 1341 213 1159 525 
L 1159 -1331 
L 581 -1331 
L 581 1716 
Q 581 2438 863 2875 
z
M 3116 1747 
Q 3116 2381 2855 2742 
Q 2594 3103 2138 3103 
Q 1681 3103 1420 2742 
Q 1159 2381 1159 1747 
Q 1159 1113 1420 752 
Q 1681 391 2138 391 
Q 2594 391 2855 752 
Q 3116 1113 3116 1747 
z
" transform="scale(0.015625)"/>
       <path id="DejaVuSans-3d" d="M 678 2906 
L 4684 2906 
L 4684 2381 
L 678 2381 
L 678 2906 
z
M 678 1631 
L 4684 1631 
L 4684 1100 
L 678 1100 
L 678 1631 
z
" transform="scale(0.015625)"/>
       <path id="DejaVuSans-28" d="M 1984 4856 
Q 1566 4138 1362 3434 
Q 1159 2731 1159 2009 
Q 1159 1288 1364 580 
Q 1569 -128 1984 -844 
L 1484 -844 
Q 1016 -109 783 600 
Q 550 1309 550 2009 
Q 550 2706 781 3412 
Q 1013 4119 1484 4856 
L 1984 4856 
z
" transform="scale(0.015625)"/>
       <path id="DejaVuSans-64" d="M 2906 2969 
L 2906 4863 
L 3481 4863 
L 3481 0 
L 2906 0 
L 2906 525 
Q 2725 213 2448 61 
Q 2172 -91 1784 -91 
Q 1150 -91 751 415 
Q 353 922 353 1747 
Q 353 2572 751 3078 
Q 1150 3584 1784 3584 
Q 2172 3584 2448 3432 
Q 2725 3281 2906 2969 
z
M 947 1747 
Q 947 1113 1208 752 
Q 1469 391 1925 391 
Q 2381 391 2643 752 
Q 2906 1113 2906 1747 
Q 2906 2381 2643 2742 
Q 2381 3103 1925 3103 
Q 1469 3103 1208 2742 
Q 947 2381 947 1747 
z
" transform="scale(0.015625)"/>
       <path id="DejaVuSans-42" d="M 1259 2228 
L 1259 519 
L 2272 519 
Q 2781 519 3026 730 
Q 3272 941 3272 1375 
Q 3272 1813 3026 2020 
Q 2781 2228 2272 2228 
L 1259 2228 
z
M 1259 4147 
L 1259 2741 
L 2194 2741 
Q 2656 2741 2882 2914 
Q 3109 3088 3109 3444 
Q 3109 3797 2882 3972 
Q 2656 4147 2194 4147 
L 1259 4147 
z
M 628 4666 
L 2241 4666 
Q 2963 4666 3353 4366 
Q 3744 4066 3744 3513 
Q 3744 3084 3544 2831 
Q 3344 2578 2956 2516 
Q 3422 2416 3680 2098 
Q 3938 1781 3938 1306 
Q 3938 681 3513 340 
Q 3088 0 2303 0 
L 628 0 
L 628 4666 
z
" transform="scale(0.015625)"/>
       <path id="DejaVuSans-29" d="M 513 4856 
L 1013 4856 
Q 1481 4119 1714 3412 
Q 1947 2706 1947 2009 
Q 1947 1309 1714 600 
Q 1481 -109 1013 -844 
L 513 -844 
Q 928 -128 1133 580 
Q 1338 1288 1338 2009 
Q 1338 2731 1133 3434 
Q 928 4138 513 4856 
z
" transform="scale(0.015625)"/>
      </defs>
      <use xlink:href="#DejaVuSans-74"/>
      <use xlink:href="#DejaVuSans-65" transform="translate(39.208984 0)"/>
      <use xlink:href="#DejaVuSans-73" transform="translate(100.732422 0)"/>
      <use xlink:href="#DejaVuSans-74" transform="translate(152.832031 0)"/>
      <use xlink:href="#DejaVuSans-20" transform="translate(192.041016 0)"/>
      <use xlink:href="#DejaVuSans-50" transform="translate(223.828125 0)"/>
      <use xlink:href="#DejaVuSans-53" transform="translate(284.130859 0)"/>
      <use xlink:href="#DejaVuSans-4e" transform="translate(347.607422 0)"/>
      <use xlink:href="#DejaVuSans-52" transform="translate(422.412109 0)"/>
      <use xlink:href="#DejaVuSans-20" transform="translate(491.894531 0)"/>
      <use xlink:href="#DejaVuSans-40" transform="translate(523.681641 0)"/>
      <use xlink:href="#DejaVuSans-20" transform="translate(623.681641 0)"/>
      <use xlink:href="#DejaVuSans-3c1" transform="translate(655.46875 0)"/>
      <use xlink:href="#DejaVuSans-3d" transform="translate(718.945312 0)"/>
      <use xlink:href="#DejaVuSans-30" transform="translate(802.734375 0)"/>
      <use xlink:href="#DejaVuSans-2e" transform="translate(866.357422 0)"/>
      <use xlink:href="#DejaVuSans-32" transform="translate(898.144531 0)"/>
      <use xlink:href="#DejaVuSans-30" transform="translate(961.767578 0)"/>
      <use xlink:href="#DejaVuSans-20" transform="translate(1025.390625 0)"/>
      <use xlink:href="#DejaVuSans-28" transform="translate(1057.177734 0)"/>
      <use xlink:href="#DejaVuSans-64" transform="translate(1096.191406 0)"/>
      <use xlink:href="#DejaVuSans-42" transform="translate(1159.667969 0)"/>
      <use xlink:href="#DejaVuSans-29" transform="translate(1228.271484 0)"/>
     </g>
    </g>
   </g>
   <g id="line2d_53">
    <path d="M 59.364732 133.967551 
L 193.572151 133.908302 
L 327.779571 12.802207 
" clip-path="url(#p61029fe0b8)" style="fill: none; stroke: #0072b2; stroke-width: 1.5; stroke-linecap: square"/>
    <defs>
     <path id="mbc377a9ee6" d="M 0 3.5 
C 0.928211 3.5 1.81853 3.131218 2.474874 2.474874 
C 3.131218 1.81853 3.5 0.928211 3.5 0 
C 3.5 -0.928211 3.131218 -1.81853 2.474874 -2.474874 
C 1.81853 -3.131218 0.928211 -3.5 0 -3.5 
C -0.928211 -3.5 -1.81853 -3.131218 -2.474874 -2.474874 
C -3.131218 -1.81853 -3.5 -0.928211 -3.5 0 
C -3.5 0.928211 -3.131218 1.81853 -2.474874 2.474874 
C -1.81853 3.131218 -0.928211 3.5 0 3.5 
z
" style="stroke: #0072b2"/>
    </defs>
    <g clip-path="url(#p61029fe0b8)">
     <use xlink:href="#mbc377a9ee6" x="59.364732" y="133.967551" style="fill: #0072b2; stroke: #0072b2"/>
     <use xlink:href="#mbc377a9ee6" x="193.572151" y="133.908302" style="fill: #0072b2; stroke: #0072b2"/>
     <use xlink:href="#mbc377a9ee6" x="327.779571" y="12.802207" style="fill: #0072b2; stroke: #0072b2"/>
    </g>
   </g>
   <g id="line2d_54">
    <path d="M 45.94399 133.872702 
L 341.200313 133.872702 
" clip-path="url(#p61029fe0b8)" style="fill: none; stroke-dasharray: 6.4,1.6,1,1.6; stroke-dashoffset: 0; stroke: #888888"/>
   </g>
   <g id="line2d_55">
    <path d="M 45.94399 208.841543 
L 341.200313 208.841543 
" clip-path="url(#p61029fe0b8)" style="fill: none; stroke-dasharray: 3.7,1.6; stroke-dashoffset: 0; stroke: #e69f00"/>
   </g>
   <g id="line2d_56">
    <path d="M 45.94399 12.301609 
L 341.200313 12.301609 
" clip-path="url(#p61029fe0b8)" style="fill: none; stroke-dasharray: 1,1.65; stroke-dashoffset: 0; stroke: #009e73"/>
   </g>
   <g id="patch_3">
    <path d="M 45.94399 218.64351 
L 45.94399 3.00024 
" style="fill: none; stroke: #000000; stroke-width: 0.8; stroke-linejoin: miter; stroke-linecap: square"/>
   </g>
   <g id="patch_4">
    <path d="M 341.200313 218.64351 
L 341.200313 3.00024 
" style="fill: none; stroke: #000000; stroke-width: 0.8; stroke-linejoin: miter; stroke-linecap: square"/>
   </g>
   <g id="patch_5">
    <path d="M 45.94399 218.64351 
L 341.200313 218.64351 
" style="fill: none; stroke: #000000; stroke-width: 0.8; stroke-linejoin: miter; stroke-linecap: square"/>
   </g>
   <g id="patch_6">
    <path d="M 45.94399 3.00024 
L 341.200313 3.00024 
" style="fill: none; stroke: #000000; stroke-width: 0.8; stroke-linejoin: miter; stroke-linecap: square"/>
   </g>
   <g id="legend_1">
    <g id="line2d_57">
     <path d="M 53.14399 13.47899 
L 61.14399 13.47899 
L 69.14399 13.47899 
" style="fill: none; stroke: #0072b2; stroke-width: 1.5; stroke-linecap: square"/>
     <g>
      <use xlink:href="#mbc377a9ee6" x="61.14399" y="13.47899" style="fill: #0072b2; stroke: #0072b2"/>
     </g>
    </g>
    <g id="text_11">
     <!-- qft_identity + L1 reg -->
     <g transform="translate(75.54399 16.27899) scale(0.08 -0.08)">
      <defs>
       <path id="DejaVuSans-71" d="M 947 1747 
Q 947 1113 1208 752 
Q 1469 391 1925 391 
Q 2381 391 2643 752 
Q 2906 1113 2906 1747 
Q 2906 2381 2643 2742 
Q 2381 3103 1925 3103 
Q 1469 3103 1208 2742 
Q 947 2381 947 1747 
z
M 2906 525 
Q 2725 213 2448 61 
Q 2172 -91 1784 -91 
Q 1150 -91 751 415 
Q 353 922 353 1747 
Q 353 2572 751 3078 
Q 1150 3584 1784 3584 
Q 2172 3584 2448 3432 
Q 2725 3281 2906 2969 
L 2906 3500 
L 3481 3500 
L 3481 -1331 
L 2906 -1331 
L 2906 525 
z
" transform="scale(0.015625)"/>
       <path id="DejaVuSans-66" d="M 2375 4863 
L 2375 4384 
L 1825 4384 
Q 1516 4384 1395 4259 
Q 1275 4134 1275 3809 
L 1275 3500 
L 2222 3500 
L 2222 3053 
L 1275 3053 
L 1275 0 
L 697 0 
L 697 3053 
L 147 3053 
L 147 3500 
L 697 3500 
L 697 3744 
Q 697 4328 969 4595 
Q 1241 4863 1831 4863 
L 2375 4863 
z
" transform="scale(0.015625)"/>
       <path id="DejaVuSans-5f" d="M 3263 -1063 
L 3263 -1509 
L -63 -1509 
L -63 -1063 
L 3263 -1063 
z
" transform="scale(0.015625)"/>
       <path id="DejaVuSans-69" d="M 603 3500 
L 1178 3500 
L 1178 0 
L 603 0 
L 603 3500 
z
M 603 4863 
L 1178 4863 
L 1178 4134 
L 603 4134 
L 603 4863 
z
" transform="scale(0.015625)"/>
       <path id="DejaVuSans-6e" d="M 3513 2113 
L 3513 0 
L 2938 0 
L 2938 2094 
Q 2938 2591 2744 2837 
Q 2550 3084 2163 3084 
Q 1697 3084 1428 2787 
Q 1159 2491 1159 1978 
L 1159 0 
L 581 0 
L 581 3500 
L 1159 3500 
L 1159 2956 
Q 1366 3272 1645 3428 
Q 1925 3584 2291 3584 
Q 2894 3584 3203 3211 
Q 3513 2838 3513 2113 
z
" transform="scale(0.015625)"/>
       <path id="DejaVuSans-79" d="M 2059 -325 
Q 1816 -950 1584 -1140 
Q 1353 -1331 966 -1331 
L 506 -1331 
L 506 -850 
L 844 -850 
Q 1081 -850 1212 -737 
Q 1344 -625 1503 -206 
L 1606 56 
L 191 3500 
L 800 3500 
L 1894 763 
L 2988 3500 
L 3597 3500 
L 2059 -325 
z
" transform="scale(0.015625)"/>
       <path id="DejaVuSans-2b" d="M 2944 4013 
L 2944 2272 
L 4684 2272 
L 4684 1741 
L 2944 1741 
L 2944 0 
L 2419 0 
L 2419 1741 
L 678 1741 
L 678 2272 
L 2419 2272 
L 2419 4013 
L 2944 4013 
z
" transform="scale(0.015625)"/>
       <path id="DejaVuSans-4c" d="M 628 4666 
L 1259 4666 
L 1259 531 
L 3531 531 
L 3531 0 
L 628 0 
L 628 4666 
z
" transform="scale(0.015625)"/>
       <path id="DejaVuSans-72" d="M 2631 2963 
Q 2534 3019 2420 3045 
Q 2306 3072 2169 3072 
Q 1681 3072 1420 2755 
Q 1159 2438 1159 1844 
L 1159 0 
L 581 0 
L 581 3500 
L 1159 3500 
L 1159 2956 
Q 1341 3275 1631 3429 
Q 1922 3584 2338 3584 
Q 2397 3584 2469 3576 
Q 2541 3569 2628 3553 
L 2631 2963 
z
" transform="scale(0.015625)"/>
       <path id="DejaVuSans-67" d="M 2906 1791 
Q 2906 2416 2648 2759 
Q 2391 3103 1925 3103 
Q 1463 3103 1205 2759 
Q 947 2416 947 1791 
Q 947 1169 1205 825 
Q 1463 481 1925 481 
Q 2391 481 2648 825 
Q 2906 1169 2906 1791 
z
M 3481 434 
Q 3481 -459 3084 -895 
Q 2688 -1331 1869 -1331 
Q 1566 -1331 1297 -1286 
Q 1028 -1241 775 -1147 
L 775 -588 
Q 1028 -725 1275 -790 
Q 1522 -856 1778 -856 
Q 2344 -856 2625 -561 
Q 2906 -266 2906 331 
L 2906 616 
Q 2728 306 2450 153 
Q 2172 0 1784 0 
Q 1141 0 747 490 
Q 353 981 353 1791 
Q 353 2603 747 3093 
Q 1141 3584 1784 3584 
Q 2172 3584 2450 3431 
Q 2728 3278 2906 2969 
L 2906 3500 
L 3481 3500 
L 3481 434 
z
" transform="scale(0.015625)"/>
      </defs>
      <use xlink:href="#DejaVuSans-71"/>
      <use xlink:href="#DejaVuSans-66" transform="translate(63.476562 0)"/>
      <use xlink:href="#DejaVuSans-74" transform="translate(96.931641 0)"/>
      <use xlink:href="#DejaVuSans-5f" transform="translate(136.140625 0)"/>
      <use xlink:href="#DejaVuSans-69" transform="translate(186.140625 0)"/>
      <use xlink:href="#DejaVuSans-64" transform="translate(213.923828 0)"/>
      <use xlink:href="#DejaVuSans-65" transform="translate(277.400391 0)"/>
      <use xlink:href="#DejaVuSans-6e" transform="translate(338.923828 0)"/>
      <use xlink:href="#DejaVuSans-74" transform="translate(402.302734 0)"/>
      <use xlink:href="#DejaVuSans-69" transform="translate(441.511719 0)"/>
      <use xlink:href="#DejaVuSans-74" transform="translate(469.294922 0)"/>
      <use xlink:href="#DejaVuSans-79" transform="translate(508.503906 0)"/>
      <use xlink:href="#DejaVuSans-20" transform="translate(567.683594 0)"/>
      <use xlink:href="#DejaVuSans-2b" transform="translate(599.470703 0)"/>
      <use xlink:href="#DejaVuSans-20" transform="translate(683.259766 0)"/>
      <use xlink:href="#DejaVuSans-4c" transform="translate(715.046875 0)"/>
      <use xlink:href="#DejaVuSans-31" transform="translate(770.759766 0)"/>
      <use xlink:href="#DejaVuSans-20" transform="translate(834.382812 0)"/>
      <use xlink:href="#DejaVuSans-72" transform="translate(866.169922 0)"/>
      <use xlink:href="#DejaVuSans-65" transform="translate(905.033203 0)"/>
      <use xlink:href="#DejaVuSans-67" transform="translate(966.556641 0)"/>
     </g>
    </g>
    <g id="line2d_58">
     <path d="M 53.14399 25.44399 
L 61.14399 25.44399 
L 69.14399 25.44399 
" style="fill: none; stroke-dasharray: 6.4,1.6,1,1.6; stroke-dashoffset: 0; stroke: #888888"/>
    </g>
    <g id="text_12">
     <!-- qft_identity (no reg) -->
     <g transform="translate(75.54399 28.24399) scale(0.08 -0.08)">
      <defs>
       <path id="DejaVuSans-6f" d="M 1959 3097 
Q 1497 3097 1228 2736 
Q 959 2375 959 1747 
Q 959 1119 1226 758 
Q 1494 397 1959 397 
Q 2419 397 2687 759 
Q 2956 1122 2956 1747 
Q 2956 2369 2687 2733 
Q 2419 3097 1959 3097 
z
M 1959 3584 
Q 2709 3584 3137 3096 
Q 3566 2609 3566 1747 
Q 3566 888 3137 398 
Q 2709 -91 1959 -91 
Q 1206 -91 779 398 
Q 353 888 353 1747 
Q 353 2609 779 3096 
Q 1206 3584 1959 3584 
z
" transform="scale(0.015625)"/>
      </defs>
      <use xlink:href="#DejaVuSans-71"/>
      <use xlink:href="#DejaVuSans-66" transform="translate(63.476562 0)"/>
      <use xlink:href="#DejaVuSans-74" transform="translate(96.931641 0)"/>
      <use xlink:href="#DejaVuSans-5f" transform="translate(136.140625 0)"/>
      <use xlink:href="#DejaVuSans-69" transform="translate(186.140625 0)"/>
      <use xlink:href="#DejaVuSans-64" transform="translate(213.923828 0)"/>
      <use xlink:href="#DejaVuSans-65" transform="translate(277.400391 0)"/>
      <use xlink:href="#DejaVuSans-6e" transform="translate(338.923828 0)"/>
      <use xlink:href="#DejaVuSans-74" transform="translate(402.302734 0)"/>
      <use xlink:href="#DejaVuSans-69" transform="translate(441.511719 0)"/>
      <use xlink:href="#DejaVuSans-74" transform="translate(469.294922 0)"/>
      <use xlink:href="#DejaVuSans-79" transform="translate(508.503906 0)"/>
      <use xlink:href="#DejaVuSans-20" transform="translate(567.683594 0)"/>
      <use xlink:href="#DejaVuSans-28" transform="translate(599.470703 0)"/>
      <use xlink:href="#DejaVuSans-6e" transform="translate(638.484375 0)"/>
      <use xlink:href="#DejaVuSans-6f" transform="translate(701.863281 0)"/>
      <use xlink:href="#DejaVuSans-20" transform="translate(763.044922 0)"/>
      <use xlink:href="#DejaVuSans-72" transform="translate(794.832031 0)"/>
      <use xlink:href="#DejaVuSans-65" transform="translate(833.695312 0)"/>
      <use xlink:href="#DejaVuSans-67" transform="translate(895.21875 0)"/>
      <use xlink:href="#DejaVuSans-29" transform="translate(958.695312 0)"/>
     </g>
    </g>
    <g id="line2d_59">
     <path d="M 53.14399 37.40899 
L 61.14399 37.40899 
L 69.14399 37.40899 
" style="fill: none; stroke-dasharray: 3.7,1.6; stroke-dashoffset: 0; stroke: #e69f00"/>
    </g>
    <g id="text_13">
     <!-- qft (analytic init) -->
     <g transform="translate(75.54399 40.20899) scale(0.08 -0.08)">
      <defs>
       <path id="DejaVuSans-61" d="M 2194 1759 
Q 1497 1759 1228 1600 
Q 959 1441 959 1056 
Q 959 750 1161 570 
Q 1363 391 1709 391 
Q 2188 391 2477 730 
Q 2766 1069 2766 1631 
L 2766 1759 
L 2194 1759 
z
M 3341 1997 
L 3341 0 
L 2766 0 
L 2766 531 
Q 2569 213 2275 61 
Q 1981 -91 1556 -91 
Q 1019 -91 701 211 
Q 384 513 384 1019 
Q 384 1609 779 1909 
Q 1175 2209 1959 2209 
L 2766 2209 
L 2766 2266 
Q 2766 2663 2505 2880 
Q 2244 3097 1772 3097 
Q 1472 3097 1187 3025 
Q 903 2953 641 2809 
L 641 3341 
Q 956 3463 1253 3523 
Q 1550 3584 1831 3584 
Q 2591 3584 2966 3190 
Q 3341 2797 3341 1997 
z
" transform="scale(0.015625)"/>
       <path id="DejaVuSans-6c" d="M 603 4863 
L 1178 4863 
L 1178 0 
L 603 0 
L 603 4863 
z
" transform="scale(0.015625)"/>
       <path id="DejaVuSans-63" d="M 3122 3366 
L 3122 2828 
Q 2878 2963 2633 3030 
Q 2388 3097 2138 3097 
Q 1578 3097 1268 2742 
Q 959 2388 959 1747 
Q 959 1106 1268 751 
Q 1578 397 2138 397 
Q 2388 397 2633 464 
Q 2878 531 3122 666 
L 3122 134 
Q 2881 22 2623 -34 
Q 2366 -91 2075 -91 
Q 1284 -91 818 406 
Q 353 903 353 1747 
Q 353 2603 823 3093 
Q 1294 3584 2113 3584 
Q 2378 3584 2631 3529 
Q 2884 3475 3122 3366 
z
" transform="scale(0.015625)"/>
      </defs>
      <use xlink:href="#DejaVuSans-71"/>
      <use xlink:href="#DejaVuSans-66" transform="translate(63.476562 0)"/>
      <use xlink:href="#DejaVuSans-74" transform="translate(96.931641 0)"/>
      <use xlink:href="#DejaVuSans-20" transform="translate(136.140625 0)"/>
      <use xlink:href="#DejaVuSans-28" transform="translate(167.927734 0)"/>
      <use xlink:href="#DejaVuSans-61" transform="translate(206.941406 0)"/>
      <use xlink:href="#DejaVuSans-6e" transform="translate(268.220703 0)"/>
      <use xlink:href="#DejaVuSans-61" transform="translate(331.599609 0)"/>
      <use xlink:href="#DejaVuSans-6c" transform="translate(392.878906 0)"/>
      <use xlink:href="#DejaVuSans-79" transform="translate(420.662109 0)"/>
      <use xlink:href="#DejaVuSans-74" transform="translate(479.841797 0)"/>
      <use xlink:href="#DejaVuSans-69" transform="translate(519.050781 0)"/>
      <use xlink:href="#DejaVuSans-63" transform="translate(546.833984 0)"/>
      <use xlink:href="#DejaVuSans-20" transform="translate(601.814453 0)"/>
      <use xlink:href="#DejaVuSans-69" transform="translate(633.601562 0)"/>
      <use xlink:href="#DejaVuSans-6e" transform="translate(661.384766 0)"/>
      <use xlink:href="#DejaVuSans-69" transform="translate(724.763672 0)"/>
      <use xlink:href="#DejaVuSans-74" transform="translate(752.546875 0)"/>
      <use xlink:href="#DejaVuSans-29" transform="translate(791.755859 0)"/>
     </g>
    </g>
    <g id="line2d_60">
     <path d="M 53.14399 49.15149 
L 61.14399 49.15149 
L 69.14399 49.15149 
" style="fill: none; stroke-dasharray: 1,1.65; stroke-dashoffset: 0; stroke: #009e73"/>
    </g>
    <g id="text_14">
     <!-- blocked_8 (warm-start ceiling) -->
     <g transform="translate(75.54399 51.95149) scale(0.08 -0.08)">
      <defs>
       <path id="DejaVuSans-62" d="M 3116 1747 
Q 3116 2381 2855 2742 
Q 2594 3103 2138 3103 
Q 1681 3103 1420 2742 
Q 1159 2381 1159 1747 
Q 1159 1113 1420 752 
Q 1681 391 2138 391 
Q 2594 391 2855 752 
Q 3116 1113 3116 1747 
z
M 1159 2969 
Q 1341 3281 1617 3432 
Q 1894 3584 2278 3584 
Q 2916 3584 3314 3078 
Q 3713 2572 3713 1747 
Q 3713 922 3314 415 
Q 2916 -91 2278 -91 
Q 1894 -91 1617 61 
Q 1341 213 1159 525 
L 1159 0 
L 581 0 
L 581 4863 
L 1159 4863 
L 1159 2969 
z
" transform="scale(0.015625)"/>
       <path id="DejaVuSans-6b" d="M 581 4863 
L 1159 4863 
L 1159 1991 
L 2875 3500 
L 3609 3500 
L 1753 1863 
L 3688 0 
L 2938 0 
L 1159 1709 
L 1159 0 
L 581 0 
L 581 4863 
z
" transform="scale(0.015625)"/>
       <path id="DejaVuSans-77" d="M 269 3500 
L 844 3500 
L 1563 769 
L 2278 3500 
L 2956 3500 
L 3675 769 
L 4391 3500 
L 4966 3500 
L 4050 0 
L 3372 0 
L 2619 2869 
L 1863 0 
L 1184 0 
L 269 3500 
z
" transform="scale(0.015625)"/>
       <path id="DejaVuSans-6d" d="M 3328 2828 
Q 3544 3216 3844 3400 
Q 4144 3584 4550 3584 
Q 5097 3584 5394 3201 
Q 5691 2819 5691 2113 
L 5691 0 
L 5113 0 
L 5113 2094 
Q 5113 2597 4934 2840 
Q 4756 3084 4391 3084 
Q 3944 3084 3684 2787 
Q 3425 2491 3425 1978 
L 3425 0 
L 2847 0 
L 2847 2094 
Q 2847 2600 2669 2842 
Q 2491 3084 2119 3084 
Q 1678 3084 1418 2786 
Q 1159 2488 1159 1978 
L 1159 0 
L 581 0 
L 581 3500 
L 1159 3500 
L 1159 2956 
Q 1356 3278 1631 3431 
Q 1906 3584 2284 3584 
Q 2666 3584 2933 3390 
Q 3200 3197 3328 2828 
z
" transform="scale(0.015625)"/>
       <path id="DejaVuSans-2d" d="M 313 2009 
L 1997 2009 
L 1997 1497 
L 313 1497 
L 313 2009 
z
" transform="scale(0.015625)"/>
      </defs>
      <use xlink:href="#DejaVuSans-62"/>
      <use xlink:href="#DejaVuSans-6c" transform="translate(63.476562 0)"/>
      <use xlink:href="#DejaVuSans-6f" transform="translate(91.259766 0)"/>
      <use xlink:href="#DejaVuSans-63" transform="translate(152.441406 0)"/>
      <use xlink:href="#DejaVuSans-6b" transform="translate(207.421875 0)"/>
      <use xlink:href="#DejaVuSans-65" transform="translate(261.707031 0)"/>
      <use xlink:href="#DejaVuSans-64" transform="translate(323.230469 0)"/>
      <use xlink:href="#DejaVuSans-5f" transform="translate(386.707031 0)"/>
      <use xlink:href="#DejaVuSans-38" transform="translate(436.707031 0)"/>
      <use xlink:href="#DejaVuSans-20" transform="translate(500.330078 0)"/>
      <use xlink:href="#DejaVuSans-28" transform="translate(532.117188 0)"/>
      <use xlink:href="#DejaVuSans-77" transform="translate(571.130859 0)"/>
      <use xlink:href="#DejaVuSans-61" transform="translate(652.917969 0)"/>
      <use xlink:href="#DejaVuSans-72" transform="translate(714.197266 0)"/>
      <use xlink:href="#DejaVuSans-6d" transform="translate(753.560547 0)"/>
      <use xlink:href="#DejaVuSans-2d" transform="translate(850.972656 0)"/>
      <use xlink:href="#DejaVuSans-73" transform="translate(887.056641 0)"/>
      <use xlink:href="#DejaVuSans-74" transform="translate(939.15625 0)"/>
      <use xlink:href="#DejaVuSans-61" transform="translate(978.365234 0)"/>
      <use xlink:href="#DejaVuSans-72" transform="translate(1039.644531 0)"/>
      <use xlink:href="#DejaVuSans-74" transform="translate(1080.757812 0)"/>
      <use xlink:href="#DejaVuSans-20" transform="translate(1119.966797 0)"/>
      <use xlink:href="#DejaVuSans-63" transform="translate(1151.753906 0)"/>
      <use xlink:href="#DejaVuSans-65" transform="translate(1206.734375 0)"/>
      <use xlink:href="#DejaVuSans-69" transform="translate(1268.257812 0)"/>
      <use xlink:href="#DejaVuSans-6c" transform="translate(1296.041016 0)"/>
      <use xlink:href="#DejaVuSans-69" transform="translate(1323.824219 0)"/>
      <use xlink:href="#DejaVuSans-6e" transform="translate(1351.607422 0)"/>
      <use xlink:href="#DejaVuSans-67" transform="translate(1414.986328 0)"/>
      <use xlink:href="#DejaVuSans-29" transform="translate(1478.462891 0)"/>
     </g>
    </g>
   </g>
  </g>
  <g id="axes_2">
   <g id="patch_7">
    <path d="M 385.743438 218.64351 
L 680.99976 218.64351 
L 680.99976 3.00024 
L 385.743438 3.00024 
z
" style="fill: #ffffff"/>
   </g>
   <g id="FillBetweenPolyCollection_1">
    <path d="M 433.322001 208.841543 
L 399.168246 208.841543 
L 399.164285 206.863707 
L 399.176279 204.885872 
L 399.204059 202.908036 
L 399.247398 200.9302 
L 399.306014 198.952364 
L 399.379569 196.974529 
L 399.46767 194.996693 
L 399.569869 193.018857 
L 399.685671 191.041021 
L 399.814526 189.063186 
L 399.955839 187.08535 
L 400.108969 185.107514 
L 400.27323 183.129678 
L 400.447899 181.151843 
L 400.632213 179.174007 
L 400.825373 177.196171 
L 401.026551 175.218335 
L 401.23489 173.2405 
L 401.449508 171.262664 
L 401.669502 169.284828 
L 401.893951 167.306992 
L 402.121919 165.329157 
L 402.352462 163.351321 
L 402.584626 161.373485 
L 402.817458 159.395649 
L 403.050002 157.417814 
L 403.28131 155.439978 
L 403.510438 153.462142 
L 403.736459 151.484306 
L 403.958456 149.506471 
L 404.175536 147.528635 
L 404.386823 145.550799 
L 404.591471 143.572963 
L 404.788659 141.595128 
L 404.977601 139.617292 
L 405.157544 137.639456 
L 405.327771 135.66162 
L 405.487607 133.683785 
L 405.636419 131.705949 
L 405.773618 129.728113 
L 405.898662 127.750277 
L 406.011057 125.772442 
L 406.110362 123.794606 
L 406.196185 121.81677 
L 406.268189 119.838934 
L 406.326091 117.861099 
L 406.369664 115.883263 
L 406.398737 113.905427 
L 406.413195 111.927591 
L 406.412983 109.949756 
L 406.3981 107.97192 
L 406.368606 105.994084 
L 406.324616 104.016248 
L 406.266302 102.038413 
L 406.193894 100.060577 
L 406.107676 98.082741 
L 406.007986 96.104905 
L 405.895218 94.12707 
L 405.769815 92.149234 
L 405.632272 90.171398 
L 405.483133 88.193562 
L 405.322987 86.215727 
L 405.152469 84.237891 
L 404.972256 82.260055 
L 404.783064 80.282219 
L 404.585649 78.304384 
L 404.380797 76.326548 
L 404.169331 74.348712 
L 403.952097 72.370876 
L 403.72997 70.393041 
L 403.503847 68.415205 
L 403.274642 66.437369 
L 403.043286 64.459533 
L 402.81072 62.481698 
L 402.577894 60.503862 
L 402.345763 58.526026 
L 402.115282 56.54819 
L 401.887403 54.570355 
L 401.66307 52.592519 
L 401.443219 50.614683 
L 401.22877 48.636847 
L 401.020626 46.659012 
L 400.819668 44.681176 
L 400.626753 42.70334 
L 400.442708 40.725504 
L 400.26833 38.747669 
L 400.10438 36.769833 
L 399.951583 34.791997 
L 399.810622 32.814161 
L 399.682137 30.836326 
L 399.566722 28.85849 
L 399.464923 26.880654 
L 399.377238 24.902818 
L 399.304111 22.924983 
L 399.245932 20.947147 
L 399.203039 18.969311 
L 399.175714 16.991475 
L 399.164179 15.01364 
L 399.168605 13.035804 
L 433.321643 13.035804 
L 433.321643 13.035804 
L 433.326068 15.01364 
L 433.314534 16.991475 
L 433.287208 18.969311 
L 433.244315 20.947147 
L 433.186137 22.924983 
L 433.113009 24.902818 
L 433.025324 26.880654 
L 432.923526 28.85849 
L 432.808111 30.836326 
L 432.679625 32.814161 
L 432.538664 34.791997 
L 432.385867 36.769833 
L 432.221918 38.747669 
L 432.04754 40.725504 
L 431.863495 42.70334 
L 431.670579 44.681176 
L 431.469621 46.659012 
L 431.261477 48.636847 
L 431.047028 50.614683 
L 430.827177 52.592519 
L 430.602845 54.570355 
L 430.374965 56.54819 
L 430.144484 58.526026 
L 429.912353 60.503862 
L 429.679527 62.481698 
L 429.446962 64.459533 
L 429.215605 66.437369 
L 428.9864 68.415205 
L 428.760277 70.393041 
L 428.538151 72.370876 
L 428.320917 74.348712 
L 428.10945 76.326548 
L 427.904599 78.304384 
L 427.707183 80.282219 
L 427.517992 82.260055 
L 427.337778 84.237891 
L 427.16726 86.215727 
L 427.007114 88.193562 
L 426.857975 90.171398 
L 426.720432 92.149234 
L 426.595029 94.12707 
L 426.482261 96.104905 
L 426.382572 98.082741 
L 426.296353 100.060577 
L 426.223945 102.038413 
L 426.165632 104.016248 
L 426.121641 105.994084 
L 426.092147 107.97192 
L 426.077265 109.949756 
L 426.077052 111.927591 
L 426.091511 113.905427 
L 426.120583 115.883263 
L 426.164156 117.861099 
L 426.222058 119.838934 
L 426.294062 121.81677 
L 426.379885 123.794606 
L 426.47919 125.772442 
L 426.591586 127.750277 
L 426.71663 129.728113 
L 426.853829 131.705949 
L 427.00264 133.683785 
L 427.162477 135.66162 
L 427.332704 137.639456 
L 427.512646 139.617292 
L 427.701588 141.595128 
L 427.898777 143.572963 
L 428.103424 145.550799 
L 428.314712 147.528635 
L 428.531791 149.506471 
L 428.753789 151.484306 
L 428.979809 153.462142 
L 429.208938 155.439978 
L 429.440245 157.417814 
L 429.672789 159.395649 
L 429.905621 161.373485 
L 430.137786 163.351321 
L 430.368328 165.329157 
L 430.596297 167.306992 
L 430.820745 169.284828 
L 431.040739 171.262664 
L 431.255357 173.2405 
L 431.463696 175.218335 
L 431.664875 177.196171 
L 431.858035 179.174007 
L 432.042348 181.151843 
L 432.217017 183.129678 
L 432.381279 185.107514 
L 432.534408 187.08535 
L 432.675721 189.063186 
L 432.804577 191.041021 
L 432.920378 193.018857 
L 433.022578 194.996693 
L 433.110678 196.974529 
L 433.184233 198.952364 
L 433.242849 200.9302 
L 433.286189 202.908036 
L 433.313969 204.885872 
L 433.325962 206.863707 
L 433.322001 208.841543 
z
" clip-path="url(#p9923e2e513)" style="fill: #e69f00; fill-opacity: 0.6"/>
   </g>
   <g id="FillBetweenPolyCollection_2">
    <path d="M 530.927409 208.841543 
L 496.77363 208.841543 
L 496.769669 206.864048 
L 496.781661 204.886553 
L 496.809439 202.909058 
L 496.852775 200.931563 
L 496.911386 198.954068 
L 496.984935 196.976573 
L 497.073029 194.999078 
L 497.175221 193.021583 
L 497.291014 191.044087 
L 497.41986 189.066592 
L 497.561163 187.089097 
L 497.714282 185.111602 
L 497.878532 183.134107 
L 498.05319 181.156612 
L 498.237491 179.179117 
L 498.430639 177.201622 
L 498.631805 175.224127 
L 498.840132 173.246632 
L 499.054739 171.269137 
L 499.274721 169.291641 
L 499.499158 167.314146 
L 499.727115 165.336651 
L 499.957648 163.359156 
L 500.189803 161.381661 
L 500.422626 159.404166 
L 500.655162 157.426671 
L 500.886463 155.449176 
L 501.115586 153.471681 
L 501.341602 151.494186 
L 501.563596 149.516691 
L 501.780673 147.539196 
L 501.99196 145.5617 
L 502.196609 143.584205 
L 502.3938 141.60671 
L 502.582746 139.629215 
L 502.762695 137.65172 
L 502.93293 135.674225 
L 503.092775 133.69673 
L 503.241598 131.719235 
L 503.378809 129.74174 
L 503.503868 127.764245 
L 503.616279 125.78675 
L 503.715602 123.809255 
L 503.801444 121.831759 
L 503.873469 119.854264 
L 503.931393 117.876769 
L 503.97499 115.899274 
L 504.004087 113.921779 
L 504.018572 111.944284 
L 504.018387 109.966789 
L 504.003533 107.989294 
L 503.974068 106.011799 
L 503.930108 104.034304 
L 503.871825 102.056809 
L 503.799448 100.079314 
L 503.713262 98.101818 
L 503.613604 96.124323 
L 503.500868 94.146828 
L 503.375497 92.169333 
L 503.237986 90.191838 
L 503.088878 88.214343 
L 502.928763 86.236848 
L 502.758275 84.259353 
L 502.578091 82.281858 
L 502.388927 80.304363 
L 502.191538 78.326868 
L 501.986712 76.349373 
L 501.775268 74.371877 
L 501.558056 72.394382 
L 501.33595 70.416887 
L 501.109844 68.439392 
L 500.880655 66.461897 
L 500.649312 64.484402 
L 500.416756 62.506907 
L 500.183939 60.529412 
L 499.951813 58.551917 
L 499.721334 56.574422 
L 499.493454 54.596927 
L 499.269117 52.619431 
L 499.04926 50.641936 
L 498.834801 48.664441 
L 498.626644 46.686946 
L 498.425669 44.709451 
L 498.232734 42.731956 
L 498.048667 40.754461 
L 497.874263 38.776966 
L 497.710284 36.799471 
L 497.557455 34.821976 
L 497.416458 32.844481 
L 497.287934 30.866986 
L 497.172478 28.88949 
L 497.070635 26.911995 
L 496.982903 24.9345 
L 496.909726 22.957005 
L 496.851496 20.97951 
L 496.808549 19.002015 
L 496.781167 17.02452 
L 496.769575 15.047025 
L 496.773941 13.06953 
L 530.927098 13.06953 
L 530.927098 13.06953 
L 530.931464 15.047025 
L 530.919872 17.02452 
L 530.89249 19.002015 
L 530.849543 20.97951 
L 530.791313 22.957005 
L 530.718136 24.9345 
L 530.630404 26.911995 
L 530.528561 28.88949 
L 530.413105 30.866986 
L 530.284581 32.844481 
L 530.143585 34.821976 
L 529.990755 36.799471 
L 529.826777 38.776966 
L 529.652373 40.754461 
L 529.468305 42.731956 
L 529.27537 44.709451 
L 529.074395 46.686946 
L 528.866238 48.664441 
L 528.65178 50.641936 
L 528.431922 52.619431 
L 528.207585 54.596927 
L 527.979705 56.574422 
L 527.749226 58.551917 
L 527.517101 60.529412 
L 527.284283 62.506907 
L 527.051728 64.484402 
L 526.820384 66.461897 
L 526.591195 68.439392 
L 526.36509 70.416887 
L 526.142983 72.394382 
L 525.925771 74.371877 
L 525.714327 76.349373 
L 525.509501 78.326868 
L 525.312112 80.304363 
L 525.122949 82.281858 
L 524.942765 84.259353 
L 524.772276 86.236848 
L 524.612161 88.214343 
L 524.463053 90.191838 
L 524.325542 92.169333 
L 524.200171 94.146828 
L 524.087435 96.124323 
L 523.987777 98.101818 
L 523.901591 100.079314 
L 523.829214 102.056809 
L 523.770931 104.034304 
L 523.726971 106.011799 
L 523.697506 107.989294 
L 523.682652 109.966789 
L 523.682467 111.944284 
L 523.696952 113.921779 
L 523.726049 115.899274 
L 523.769646 117.876769 
L 523.82757 119.854264 
L 523.899595 121.831759 
L 523.985437 123.809255 
L 524.08476 125.78675 
L 524.197172 127.764245 
L 524.32223 129.74174 
L 524.459441 131.719235 
L 524.608264 133.69673 
L 524.76811 135.674225 
L 524.938344 137.65172 
L 525.118293 139.629215 
L 525.307239 141.60671 
L 525.50443 143.584205 
L 525.709079 145.5617 
L 525.920366 147.539196 
L 526.137443 149.516691 
L 526.359438 151.494186 
L 526.585453 153.471681 
L 526.814577 155.449176 
L 527.045877 157.426671 
L 527.278414 159.404166 
L 527.511236 161.381661 
L 527.743391 163.359156 
L 527.973924 165.336651 
L 528.201881 167.314146 
L 528.426318 169.291641 
L 528.646301 171.269137 
L 528.860907 173.246632 
L 529.069234 175.224127 
L 529.2704 177.201622 
L 529.463548 179.179117 
L 529.647849 181.156612 
L 529.822507 183.134107 
L 529.986757 185.111602 
L 530.139876 187.089097 
L 530.28118 189.066592 
L 530.410025 191.044087 
L 530.525818 193.021583 
L 530.62801 194.999078 
L 530.716104 196.976573 
L 530.789653 198.954068 
L 530.848265 200.931563 
L 530.8916 202.909058 
L 530.919378 204.886553 
L 530.93137 206.864048 
L 530.927409 208.841543 
z
" clip-path="url(#p9923e2e513)" style="fill: #e69f00; fill-opacity: 0.6"/>
   </g>
   <g id="FillBetweenPolyCollection_3">
    <path d="M 628.532717 208.841543 
L 594.379114 208.841543 
L 594.375153 206.865317 
L 594.387155 204.889092 
L 594.41495 202.912866 
L 594.458312 200.93664 
L 594.516956 198.960414 
L 594.590546 196.984188 
L 594.678688 195.007963 
L 594.780934 193.031737 
L 594.896787 191.055511 
L 595.025699 189.079285 
L 595.167073 187.10306 
L 595.320267 185.126834 
L 595.484596 183.150608 
L 595.659335 181.174382 
L 595.84372 179.198156 
L 596.036953 177.221931 
L 596.238205 175.245705 
L 596.446618 173.269479 
L 596.661309 171.293253 
L 596.881374 169.317028 
L 597.105891 167.340802 
L 597.333926 165.364576 
L 597.564531 163.38835 
L 597.796753 161.412124 
L 598.029638 159.435899 
L 598.26223 157.459673 
L 598.493579 155.483447 
L 598.722742 153.507221 
L 598.94879 151.530996 
L 599.170807 149.55477 
L 599.387898 147.578544 
L 599.599187 145.602318 
L 599.803828 143.626092 
L 600.001001 141.649867 
L 600.189917 139.673641 
L 600.369824 137.697415 
L 600.540005 135.721189 
L 600.699786 133.744963 
L 600.848531 131.768738 
L 600.985653 129.792512 
L 601.11061 127.816286 
L 601.222909 125.84006 
L 601.322107 123.863835 
L 601.407814 121.887609 
L 601.479692 119.911383 
L 601.537459 117.935157 
L 601.580888 115.958931 
L 601.609809 113.982706 
L 601.624109 112.00648 
L 601.62373 110.030254 
L 601.608676 108.054028 
L 601.579003 106.077803 
L 601.53483 104.101577 
L 601.47633 102.125351 
L 601.403732 100.149125 
L 601.317321 98.172899 
L 601.217438 96.196674 
L 601.104476 94.220448 
L 600.978879 92.244222 
L 600.841144 90.267996 
L 600.691815 88.291771 
L 600.531483 86.315545 
L 600.360784 84.339319 
L 600.180395 82.363093 
L 599.991034 80.386867 
L 599.793457 78.410642 
L 599.588454 76.434416 
L 599.376844 74.45819 
L 599.159478 72.481964 
L 598.937231 70.505739 
L 598.711001 68.529513 
L 598.481702 66.553287 
L 598.250266 64.577061 
L 598.017636 62.600835 
L 597.784762 60.62461 
L 597.5526 58.648384 
L 597.322104 56.672158 
L 597.094228 54.695932 
L 596.869917 52.719706 
L 596.650107 50.743481 
L 596.435718 48.767255 
L 596.227653 46.791029 
L 596.026794 44.814803 
L 595.833997 42.838578 
L 595.65009 40.862352 
L 595.47587 38.886126 
L 595.312097 36.9099 
L 595.159496 34.933674 
L 595.018749 32.957449 
L 594.890497 30.981223 
L 594.775332 29.004997 
L 594.673801 27.028771 
L 594.586399 25.052546 
L 594.51357 23.07632 
L 594.455706 21.100094 
L 594.41314 19.123868 
L 594.386154 17.147642 
L 594.374971 15.171417 
L 594.379758 13.195191 
L 628.532073 13.195191 
L 628.532073 13.195191 
L 628.53686 15.171417 
L 628.525677 17.147642 
L 628.498691 19.123868 
L 628.456125 21.100094 
L 628.39826 23.07632 
L 628.325432 25.052546 
L 628.23803 27.028771 
L 628.136499 29.004997 
L 628.021334 30.981223 
L 627.893082 32.957449 
L 627.752335 34.933674 
L 627.599734 36.9099 
L 627.435961 38.886126 
L 627.261741 40.862352 
L 627.077834 42.838578 
L 626.885037 44.814803 
L 626.684177 46.791029 
L 626.476113 48.767255 
L 626.261724 50.743481 
L 626.041913 52.719706 
L 625.817603 54.695932 
L 625.589727 56.672158 
L 625.359231 58.648384 
L 625.127069 60.62461 
L 624.894195 62.600835 
L 624.661565 64.577061 
L 624.430129 66.553287 
L 624.20083 68.529513 
L 623.9746 70.505739 
L 623.752353 72.481964 
L 623.534987 74.45819 
L 623.323377 76.434416 
L 623.118373 78.410642 
L 622.920796 80.386867 
L 622.731436 82.363093 
L 622.551047 84.339319 
L 622.380348 86.315545 
L 622.220016 88.291771 
L 622.070687 90.267996 
L 621.932952 92.244222 
L 621.807355 94.220448 
L 621.694393 96.196674 
L 621.59451 98.172899 
L 621.508099 100.149125 
L 621.435501 102.125351 
L 621.377 104.101577 
L 621.332827 106.077803 
L 621.303155 108.054028 
L 621.288101 110.030254 
L 621.287722 112.00648 
L 621.302021 113.982706 
L 621.330943 115.958931 
L 621.374372 117.935157 
L 621.432139 119.911383 
L 621.504017 121.887609 
L 621.589724 123.863835 
L 621.688922 125.84006 
L 621.801221 127.816286 
L 621.926178 129.792512 
L 622.0633 131.768738 
L 622.212045 133.744963 
L 622.371825 135.721189 
L 622.542007 137.697415 
L 622.721914 139.673641 
L 622.91083 141.649867 
L 623.108003 143.626092 
L 623.312644 145.602318 
L 623.523933 147.578544 
L 623.741024 149.55477 
L 623.963041 151.530996 
L 624.189089 153.507221 
L 624.418252 155.483447 
L 624.649601 157.459673 
L 624.882193 159.435899 
L 625.115077 161.412124 
L 625.3473 163.38835 
L 625.577905 165.364576 
L 625.805939 167.340802 
L 626.030457 169.317028 
L 626.250522 171.293253 
L 626.465213 173.269479 
L 626.673626 175.245705 
L 626.874877 177.221931 
L 627.068111 179.198156 
L 627.252496 181.174382 
L 627.427235 183.150608 
L 627.591564 185.126834 
L 627.744758 187.10306 
L 627.886132 189.079285 
L 628.015044 191.055511 
L 628.130897 193.031737 
L 628.233143 195.007963 
L 628.321285 196.984188 
L 628.394874 198.960414 
L 628.453519 200.93664 
L 628.496881 202.912866 
L 628.524676 204.889092 
L 628.536678 206.865317 
L 628.532717 208.841543 
z
" clip-path="url(#p9923e2e513)" style="fill: #e69f00; fill-opacity: 0.6"/>
   </g>
   <g id="FillBetweenPolyCollection_4">
    <path d="M 472.368226 208.841543 
L 438.206338 208.841543 
L 438.341542 206.861348 
L 438.743213 204.881153 
L 439.3924 202.900957 
L 440.259134 200.920762 
L 441.30472 198.940567 
L 442.484593 196.960371 
L 443.751453 194.980176 
L 445.058366 192.999981 
L 446.361556 191.019785 
L 447.622662 189.03959 
L 448.810327 187.059395 
L 449.901059 185.079199 
L 450.87939 183.099004 
L 451.737427 181.118809 
L 452.473933 179.138613 
L 453.093115 177.158418 
L 453.603256 175.178223 
L 454.015358 173.198027 
L 454.341901 171.217832 
L 454.595793 169.237637 
L 454.789548 167.257442 
L 454.934714 165.277246 
L 455.041517 163.297051 
L 455.118692 161.316856 
L 455.173473 159.33666 
L 455.211676 157.356465 
L 455.237855 155.37627 
L 455.255483 153.396074 
L 455.26715 151.415879 
L 455.274739 149.435684 
L 455.279592 147.455488 
L 455.282642 145.475293 
L 455.284527 143.495098 
L 455.285672 141.514902 
L 455.286356 139.534707 
L 455.286758 137.554512 
L 455.28699 135.574316 
L 455.287122 133.594121 
L 455.287196 131.613926 
L 455.287236 129.633731 
L 455.287258 127.653535 
L 455.28727 125.67334 
L 455.287276 123.693145 
L 455.287279 121.712949 
L 455.287281 119.732754 
L 455.287281 117.752559 
L 455.287282 115.772363 
L 455.287282 113.792168 
L 455.287282 111.811973 
L 455.287282 109.831777 
L 455.287282 107.851582 
L 455.287282 105.871387 
L 455.287282 103.891191 
L 455.287282 101.910996 
L 455.287282 99.930801 
L 455.287282 97.950605 
L 455.287282 95.97041 
L 455.287281 93.990215 
L 455.28728 92.010019 
L 455.287279 90.029824 
L 455.287276 88.049629 
L 455.287272 86.069434 
L 455.287263 84.089238 
L 455.287249 82.109043 
L 455.287224 80.128848 
L 455.287183 78.148652 
L 455.287116 76.168457 
L 455.287007 74.188262 
L 455.286834 72.208066 
L 455.286564 70.227871 
L 455.286149 68.247676 
L 455.285522 66.26748 
L 455.284594 64.287285 
L 455.28324 62.30709 
L 455.281302 60.326894 
L 455.278574 58.346699 
L 455.274805 56.366504 
L 455.269689 54.386308 
L 455.26287 52.406113 
L 455.253947 50.425918 
L 455.242486 48.445723 
L 455.228042 46.465527 
L 455.210189 44.485332 
L 455.188551 42.505137 
L 455.162852 40.524941 
L 455.132959 38.544746 
L 455.09893 36.564551 
L 455.061056 34.584355 
L 455.01989 32.60416 
L 454.976261 30.623965 
L 454.931271 28.643769 
L 454.886257 26.663574 
L 454.84274 24.683379 
L 454.802341 22.703183 
L 454.766689 20.722988 
L 454.737309 18.742793 
L 454.715516 16.762597 
L 454.702318 14.782402 
L 454.698339 12.802207 
L 455.876225 12.802207 
L 455.876225 12.802207 
L 455.872246 14.782402 
L 455.859048 16.762597 
L 455.837255 18.742793 
L 455.807875 20.722988 
L 455.772223 22.703183 
L 455.731825 24.683379 
L 455.688307 26.663574 
L 455.643293 28.643769 
L 455.598303 30.623965 
L 455.554674 32.60416 
L 455.513508 34.584355 
L 455.475634 36.564551 
L 455.441605 38.544746 
L 455.411712 40.524941 
L 455.386013 42.505137 
L 455.364375 44.485332 
L 455.346522 46.465527 
L 455.332078 48.445723 
L 455.320618 50.425918 
L 455.311694 52.406113 
L 455.304875 54.386308 
L 455.299759 56.366504 
L 455.29599 58.346699 
L 455.293262 60.326894 
L 455.291324 62.30709 
L 455.28997 64.287285 
L 455.289042 66.26748 
L 455.288416 68.247676 
L 455.288001 70.227871 
L 455.28773 72.208066 
L 455.287557 74.188262 
L 455.287448 76.168457 
L 455.287381 78.148652 
L 455.28734 80.128848 
L 455.287315 82.109043 
L 455.287301 84.089238 
L 455.287293 86.069434 
L 455.287288 88.049629 
L 455.287285 90.029824 
L 455.287284 92.010019 
L 455.287283 93.990215 
L 455.287283 95.97041 
L 455.287282 97.950605 
L 455.287282 99.930801 
L 455.287282 101.910996 
L 455.287282 103.891191 
L 455.287282 105.871387 
L 455.287282 107.851582 
L 455.287282 109.831777 
L 455.287282 111.811973 
L 455.287282 113.792168 
L 455.287282 115.772363 
L 455.287283 117.752559 
L 455.287284 119.732754 
L 455.287285 121.712949 
L 455.287288 123.693145 
L 455.287294 125.67334 
L 455.287306 127.653535 
L 455.287328 129.633731 
L 455.287368 131.613926 
L 455.287442 133.594121 
L 455.287574 135.574316 
L 455.287806 137.554512 
L 455.288208 139.534707 
L 455.288892 141.514902 
L 455.290037 143.495098 
L 455.291922 145.475293 
L 455.294972 147.455488 
L 455.299825 149.435684 
L 455.307414 151.415879 
L 455.319081 153.396074 
L 455.336709 155.37627 
L 455.362888 157.356465 
L 455.401091 159.33666 
L 455.455872 161.316856 
L 455.533047 163.297051 
L 455.63985 165.277246 
L 455.785016 167.257442 
L 455.978771 169.237637 
L 456.232663 171.217832 
L 456.559206 173.198027 
L 456.971308 175.178223 
L 457.481449 177.158418 
L 458.100631 179.138613 
L 458.837137 181.118809 
L 459.695174 183.099004 
L 460.673505 185.079199 
L 461.764237 187.059395 
L 462.951902 189.03959 
L 464.213008 191.019785 
L 465.516198 192.999981 
L 466.823111 194.980176 
L 468.089971 196.960371 
L 469.269844 198.940567 
L 470.31543 200.920762 
L 471.182165 202.900957 
L 471.831352 204.881153 
L 472.233022 206.861348 
L 472.368226 208.841543 
z
" clip-path="url(#p9923e2e513)" style="fill: #0072b2; fill-opacity: 0.6"/>
   </g>
   <g id="FillBetweenPolyCollection_5">
    <path d="M 569.973622 208.841543 
L 535.811734 208.841543 
L 535.947754 206.862361 
L 536.350106 204.883178 
L 536.999816 202.903996 
L 537.866904 200.924814 
L 538.912675 198.945631 
L 540.092578 196.966449 
L 541.359338 194.987267 
L 542.666049 193.008084 
L 543.968965 191.028902 
L 545.229757 189.049719 
L 546.417096 187.070537 
L 547.507515 185.091355 
L 548.485561 183.112172 
L 549.343351 181.13299 
L 550.079656 179.153807 
L 550.698682 177.174625 
L 551.208708 175.195443 
L 551.620733 173.21626 
L 551.947229 171.237078 
L 552.201096 169.257896 
L 552.394844 167.278713 
L 552.540014 165.299531 
L 552.646826 163.320348 
L 552.724014 161.341166 
L 552.778809 159.361984 
L 552.817025 157.382801 
L 552.843215 155.403619 
L 552.860853 153.424437 
L 552.872527 151.445254 
L 552.880122 149.466072 
L 552.884979 147.486889 
L 552.888032 145.507707 
L 552.889919 143.528525 
L 552.891066 141.549342 
L 552.891751 139.57016 
L 552.892153 137.590978 
L 552.892386 135.611795 
L 552.892518 133.632613 
L 552.892592 131.65343 
L 552.892632 129.674248 
L 552.892654 127.695066 
L 552.892666 125.715883 
L 552.892672 123.736701 
L 552.892675 121.757518 
L 552.892676 119.778336 
L 552.892677 117.799154 
L 552.892678 115.819971 
L 552.892678 113.840789 
L 552.892678 111.861607 
L 552.892678 109.882424 
L 552.892678 107.903242 
L 552.892678 105.924059 
L 552.892678 103.944877 
L 552.892678 101.965695 
L 552.892678 99.986512 
L 552.892678 98.00733 
L 552.892677 96.028148 
L 552.892677 94.048965 
L 552.892676 92.069783 
L 552.892675 90.0906 
L 552.892672 88.111418 
L 552.892667 86.132236 
L 552.892659 84.153053 
L 552.892645 82.173871 
L 552.89262 80.194688 
L 552.89258 78.215506 
L 552.892513 76.236324 
L 552.892404 74.257141 
L 552.892232 72.277959 
L 552.891963 70.298777 
L 552.89155 68.319594 
L 552.890926 66.340412 
L 552.890001 64.361229 
L 552.888653 62.382047 
L 552.886722 60.402865 
L 552.884006 58.423682 
L 552.88025 56.4445 
L 552.875152 54.465318 
L 552.868356 52.486135 
L 552.859461 50.506953 
L 552.848035 48.52777 
L 552.833632 46.548588 
L 552.815825 44.569406 
L 552.794239 42.590223 
L 552.768596 40.611041 
L 552.738761 38.631859 
L 552.704789 36.652676 
L 552.666968 34.673494 
L 552.625846 32.694311 
L 552.582251 30.715129 
L 552.537277 28.735947 
L 552.49226 26.756764 
L 552.448718 24.777582 
L 552.40827 22.798399 
L 552.372546 20.819217 
L 552.34307 18.840035 
L 552.321162 16.860852 
L 552.307835 14.88167 
L 552.303717 12.902488 
L 553.481639 12.902488 
L 553.481639 12.902488 
L 553.477521 14.88167 
L 553.464194 16.860852 
L 553.442286 18.840035 
L 553.41281 20.819217 
L 553.377085 22.798399 
L 553.336638 24.777582 
L 553.293096 26.756764 
L 553.248079 28.735947 
L 553.203105 30.715129 
L 553.15951 32.694311 
L 553.118388 34.673494 
L 553.080567 36.652676 
L 553.046595 38.631859 
L 553.01676 40.611041 
L 552.991117 42.590223 
L 552.969531 44.569406 
L 552.951724 46.548588 
L 552.937321 48.52777 
L 552.925895 50.506953 
L 552.917 52.486135 
L 552.910204 54.465318 
L 552.905105 56.4445 
L 552.90135 58.423682 
L 552.898633 60.402865 
L 552.896703 62.382047 
L 552.895355 64.361229 
L 552.89443 66.340412 
L 552.893806 68.319594 
L 552.893393 70.298777 
L 552.893124 72.277959 
L 552.892952 74.257141 
L 552.892843 76.236324 
L 552.892776 78.215506 
L 552.892735 80.194688 
L 552.892711 82.173871 
L 552.892697 84.153053 
L 552.892688 86.132236 
L 552.892684 88.111418 
L 552.892681 90.0906 
L 552.89268 92.069783 
L 552.892679 94.048965 
L 552.892678 96.028148 
L 552.892678 98.00733 
L 552.892678 99.986512 
L 552.892678 101.965695 
L 552.892678 103.944877 
L 552.892678 105.924059 
L 552.892678 107.903242 
L 552.892678 109.882424 
L 552.892678 111.861607 
L 552.892678 113.840789 
L 552.892678 115.819971 
L 552.892679 117.799154 
L 552.892679 119.778336 
L 552.892681 121.757518 
L 552.892684 123.736701 
L 552.89269 125.715883 
L 552.892702 127.695066 
L 552.892724 129.674248 
L 552.892764 131.65343 
L 552.892838 133.632613 
L 552.89297 135.611795 
L 552.893203 137.590978 
L 552.893605 139.57016 
L 552.89429 141.549342 
L 552.895437 143.528525 
L 552.897324 145.507707 
L 552.900377 147.486889 
L 552.905234 149.466072 
L 552.912829 151.445254 
L 552.924503 153.424437 
L 552.942141 155.403619 
L 552.968331 157.382801 
L 553.006547 159.361984 
L 553.061342 161.341166 
L 553.13853 163.320348 
L 553.245342 165.299531 
L 553.390512 167.278713 
L 553.58426 169.257896 
L 553.838127 171.237078 
L 554.164623 173.21626 
L 554.576648 175.195443 
L 555.086674 177.174625 
L 555.7057 179.153807 
L 556.442005 181.13299 
L 557.299795 183.112172 
L 558.277841 185.091355 
L 559.368259 187.070537 
L 560.555599 189.049719 
L 561.816391 191.028902 
L 563.119307 193.008084 
L 564.426018 194.987267 
L 565.692777 196.966449 
L 566.872681 198.945631 
L 567.918452 200.924814 
L 568.78554 202.903996 
L 569.43525 204.883178 
L 569.837602 206.862361 
L 569.973622 208.841543 
z
" clip-path="url(#p9923e2e513)" style="fill: #0072b2; fill-opacity: 0.6"/>
   </g>
   <g id="FillBetweenPolyCollection_6">
    <path d="M 667.579018 208.841543 
L 633.41713 208.841543 
L 633.50583 208.841286 
L 633.987716 208.841028 
L 634.824445 208.840771 
L 635.954611 208.840513 
L 637.300999 208.840256 
L 638.779152 208.839999 
L 640.305903 208.839741 
L 641.806739 208.839484 
L 643.221098 208.839226 
L 644.50524 208.838969 
L 645.632697 208.838711 
L 646.59273 208.838454 
L 647.387417 208.838197 
L 648.028083 208.837939 
L 648.531703 208.837682 
L 648.917771 208.837424 
L 649.205899 208.837167 
L 649.41426 208.836909 
L 649.558789 208.836652 
L 649.652989 208.836394 
L 649.708139 208.836137 
L 649.733693 208.83588 
L 649.737713 208.835622 
L 649.727217 208.835365 
L 649.708394 208.835107 
L 649.686685 208.83485 
L 649.666751 208.834592 
L 649.65239 208.834335 
L 649.646449 208.834078 
L 649.650783 208.83382 
L 649.666269 208.833563 
L 649.692894 208.833305 
L 649.7299 208.833048 
L 649.775955 208.83279 
L 649.829334 208.832533 
L 649.888093 208.832275 
L 649.950214 208.832018 
L 650.013717 208.831761 
L 650.076756 208.831503 
L 650.137683 208.831246 
L 650.195107 208.830988 
L 650.247927 208.830731 
L 650.295361 208.830473 
L 650.336948 208.830216 
L 650.372539 208.829959 
L 650.402263 208.829701 
L 650.426481 208.829444 
L 650.445725 208.829186 
L 650.460634 208.828929 
L 650.471895 208.828671 
L 650.480183 208.828414 
L 650.486128 208.828157 
L 650.490283 208.827899 
L 650.493112 208.827642 
L 650.494988 208.827384 
L 650.4962 208.827127 
L 650.496964 208.826869 
L 650.497432 208.826612 
L 650.497711 208.826354 
L 650.497874 208.826097 
L 650.497967 208.82584 
L 650.498018 208.825582 
L 650.498045 208.825325 
L 650.498059 208.825067 
L 650.498067 208.82481 
L 650.49807 208.824552 
L 650.498071 208.824295 
L 650.498071 208.824038 
L 650.498069 208.82378 
L 650.498065 208.823523 
L 650.498055 208.823265 
L 650.498037 208.823008 
L 650.498004 208.82275 
L 650.497941 208.822493 
L 650.497829 208.822236 
L 650.497635 208.821978 
L 650.497305 208.821721 
L 650.49676 208.821463 
L 650.495884 208.821206 
L 650.494513 208.820948 
L 650.492427 208.820691 
L 650.48934 208.820433 
L 650.484897 208.820176 
L 650.478683 208.819919 
L 650.470242 208.819661 
L 650.459109 208.819404 
L 650.444865 208.819146 
L 650.427204 208.818889 
L 650.406004 208.818631 
L 650.381407 208.818374 
L 650.353877 208.818117 
L 650.324239 208.817859 
L 650.293667 208.817602 
L 650.263635 208.817344 
L 650.235809 208.817087 
L 650.211904 208.816829 
L 650.193505 208.816572 
L 650.181903 208.816314 
L 650.177938 208.816057 
L 650.818209 208.816057 
L 650.818209 208.816057 
L 650.814245 208.816314 
L 650.802643 208.816572 
L 650.784244 208.816829 
L 650.760338 208.817087 
L 650.732513 208.817344 
L 650.702481 208.817602 
L 650.671909 208.817859 
L 650.64227 208.818117 
L 650.614741 208.818374 
L 650.590143 208.818631 
L 650.568944 208.818889 
L 650.551282 208.819146 
L 650.537039 208.819404 
L 650.525906 208.819661 
L 650.517465 208.819919 
L 650.511251 208.820176 
L 650.506808 208.820433 
L 650.50372 208.820691 
L 650.501635 208.820948 
L 650.500264 208.821206 
L 650.499388 208.821463 
L 650.498843 208.821721 
L 650.498513 208.821978 
L 650.498318 208.822236 
L 650.498206 208.822493 
L 650.498144 208.82275 
L 650.49811 208.823008 
L 650.498092 208.823265 
L 650.498083 208.823523 
L 650.498078 208.82378 
L 650.498077 208.824038 
L 650.498076 208.824295 
L 650.498078 208.824552 
L 650.498081 208.82481 
L 650.498088 208.825067 
L 650.498103 208.825325 
L 650.49813 208.825582 
L 650.498181 208.82584 
L 650.498273 208.826097 
L 650.498436 208.826354 
L 650.498716 208.826612 
L 650.499184 208.826869 
L 650.499947 208.827127 
L 650.50116 208.827384 
L 650.503036 208.827642 
L 650.505865 208.827899 
L 650.510019 208.828157 
L 650.515964 208.828414 
L 650.524253 208.828671 
L 650.535513 208.828929 
L 650.550423 208.829186 
L 650.569667 208.829444 
L 650.593885 208.829701 
L 650.623609 208.829959 
L 650.659199 208.830216 
L 650.700786 208.830473 
L 650.74822 208.830731 
L 650.801041 208.830988 
L 650.858465 208.831246 
L 650.919392 208.831503 
L 650.98243 208.831761 
L 651.045934 208.832018 
L 651.108054 208.832275 
L 651.166814 208.832533 
L 651.220193 208.83279 
L 651.266247 208.833048 
L 651.303253 208.833305 
L 651.329879 208.833563 
L 651.345365 208.83382 
L 651.349698 208.834078 
L 651.343758 208.834335 
L 651.329396 208.834592 
L 651.309462 208.83485 
L 651.287753 208.835107 
L 651.268931 208.835365 
L 651.258434 208.835622 
L 651.262454 208.83588 
L 651.288009 208.836137 
L 651.343159 208.836394 
L 651.437359 208.836652 
L 651.581887 208.836909 
L 651.790249 208.837167 
L 652.078377 208.837424 
L 652.464444 208.837682 
L 652.968064 208.837939 
L 653.60873 208.838197 
L 654.403417 208.838454 
L 655.36345 208.838711 
L 656.490907 208.838969 
L 657.77505 208.839226 
L 659.189409 208.839484 
L 660.690244 208.839741 
L 662.216996 208.839999 
L 663.695148 208.840256 
L 665.041537 208.840513 
L 666.171702 208.840771 
L 667.008432 208.841028 
L 667.490317 208.841286 
L 667.579018 208.841543 
z
" clip-path="url(#p9923e2e513)" style="fill: #0072b2; fill-opacity: 0.6"/>
   </g>
   <g id="matplotlib.axis_3">
    <g id="xtick_22">
     <g id="line2d_61">
      <g>
       <use xlink:href="#m9b6f30fc9c" x="435.766203" y="218.64351" style="stroke: #000000; stroke-width: 0.8"/>
      </g>
     </g>
     <g id="text_15">
      <!-- 1e-01 -->
      <g transform="translate(422.784406 232.482104) scale(0.09 -0.09)">
       <use xlink:href="#DejaVuSans-31"/>
       <use xlink:href="#DejaVuSans-65" transform="translate(63.623047 0)"/>
       <use xlink:href="#DejaVuSans-2d" transform="translate(125.146484 0)"/>
       <use xlink:href="#DejaVuSans-30" transform="translate(161.230469 0)"/>
       <use xlink:href="#DejaVuSans-31" transform="translate(224.853516 0)"/>
      </g>
     </g>
    </g>
    <g id="xtick_23">
     <g id="line2d_62">
      <g>
       <use xlink:href="#m9b6f30fc9c" x="533.371599" y="218.64351" style="stroke: #000000; stroke-width: 0.8"/>
      </g>
     </g>
     <g id="text_16">
      <!-- 1e+00 -->
      <g transform="translate(518.242458 232.482104) scale(0.09 -0.09)">
       <use xlink:href="#DejaVuSans-31"/>
       <use xlink:href="#DejaVuSans-65" transform="translate(63.623047 0)"/>
       <use xlink:href="#DejaVuSans-2b" transform="translate(125.146484 0)"/>
       <use xlink:href="#DejaVuSans-30" transform="translate(208.935547 0)"/>
       <use xlink:href="#DejaVuSans-30" transform="translate(272.558594 0)"/>
      </g>
     </g>
    </g>
    <g id="xtick_24">
     <g id="line2d_63">
      <g>
       <use xlink:href="#m9b6f30fc9c" x="630.976995" y="218.64351" style="stroke: #000000; stroke-width: 0.8"/>
      </g>
     </g>
     <g id="text_17">
      <!-- 1e+01 -->
      <g transform="translate(615.847854 232.482104) scale(0.09 -0.09)">
       <use xlink:href="#DejaVuSans-31"/>
       <use xlink:href="#DejaVuSans-65" transform="translate(63.623047 0)"/>
       <use xlink:href="#DejaVuSans-2b" transform="translate(125.146484 0)"/>
       <use xlink:href="#DejaVuSans-30" transform="translate(208.935547 0)"/>
       <use xlink:href="#DejaVuSans-31" transform="translate(272.558594 0)"/>
      </g>
     </g>
    </g>
    <g id="text_18">
     <!-- $\lambda$ (L1) -->
     <g transform="translate(518.921599 245.95226) scale(0.1 -0.1)">
      <use xlink:href="#DejaVuSans-Oblique-3bb" transform="translate(0 0.015625)"/>
      <use xlink:href="#DejaVuSans-20" transform="translate(59.179688 0.015625)"/>
      <use xlink:href="#DejaVuSans-28" transform="translate(90.966797 0.015625)"/>
      <use xlink:href="#DejaVuSans-4c" transform="translate(129.980469 0.015625)"/>
      <use xlink:href="#DejaVuSans-31" transform="translate(185.693359 0.015625)"/>
      <use xlink:href="#DejaVuSans-29" transform="translate(249.316406 0.015625)"/>
     </g>
    </g>
   </g>
   <g id="matplotlib.axis_4">
    <g id="ytick_6">
     <g id="line2d_64">
      <path d="M 385.743438 208.841543 
L 680.99976 208.841543 
" clip-path="url(#p9923e2e513)" style="fill: none; stroke: #b0b0b0; stroke-opacity: 0.3; stroke-width: 0.4; stroke-linecap: square"/>
     </g>
     <g id="line2d_65">
      <g>
       <use xlink:href="#m63c9688f1e" x="385.743438" y="208.841543" style="stroke: #000000; stroke-width: 0.8"/>
      </g>
     </g>
     <g id="text_19">
      <!-- 0.0 -->
      <g transform="translate(362.840313 212.640762) scale(0.1 -0.1)">
       <use xlink:href="#DejaVuSans-30"/>
       <use xlink:href="#DejaVuSans-2e" transform="translate(63.623047 0)"/>
       <use xlink:href="#DejaVuSans-30" transform="translate(95.410156 0)"/>
      </g>
     </g>
    </g>
    <g id="ytick_7">
     <g id="line2d_66">
      <path d="M 385.743438 172.669777 
L 680.99976 172.669777 
" clip-path="url(#p9923e2e513)" style="fill: none; stroke: #b0b0b0; stroke-opacity: 0.3; stroke-width: 0.4; stroke-linecap: square"/>
     </g>
     <g id="line2d_67">
      <g>
       <use xlink:href="#m63c9688f1e" x="385.743438" y="172.669777" style="stroke: #000000; stroke-width: 0.8"/>
      </g>
     </g>
     <g id="text_20">
      <!-- 0.2 -->
      <g transform="translate(362.840313 176.468996) scale(0.1 -0.1)">
       <use xlink:href="#DejaVuSans-30"/>
       <use xlink:href="#DejaVuSans-2e" transform="translate(63.623047 0)"/>
       <use xlink:href="#DejaVuSans-32" transform="translate(95.410156 0)"/>
      </g>
     </g>
    </g>
    <g id="ytick_8">
     <g id="line2d_68">
      <path d="M 385.743438 136.498012 
L 680.99976 136.498012 
" clip-path="url(#p9923e2e513)" style="fill: none; stroke: #b0b0b0; stroke-opacity: 0.3; stroke-width: 0.4; stroke-linecap: square"/>
     </g>
     <g id="line2d_69">
      <g>
       <use xlink:href="#m63c9688f1e" x="385.743438" y="136.498012" style="stroke: #000000; stroke-width: 0.8"/>
      </g>
     </g>
     <g id="text_21">
      <!-- 0.4 -->
      <g transform="translate(362.840313 140.29723) scale(0.1 -0.1)">
       <use xlink:href="#DejaVuSans-30"/>
       <use xlink:href="#DejaVuSans-2e" transform="translate(63.623047 0)"/>
       <use xlink:href="#DejaVuSans-34" transform="translate(95.410156 0)"/>
      </g>
     </g>
    </g>
    <g id="ytick_9">
     <g id="line2d_70">
      <path d="M 385.743438 100.326246 
L 680.99976 100.326246 
" clip-path="url(#p9923e2e513)" style="fill: none; stroke: #b0b0b0; stroke-opacity: 0.3; stroke-width: 0.4; stroke-linecap: square"/>
     </g>
     <g id="line2d_71">
      <g>
       <use xlink:href="#m63c9688f1e" x="385.743438" y="100.326246" style="stroke: #000000; stroke-width: 0.8"/>
      </g>
     </g>
     <g id="text_22">
      <!-- 0.6 -->
      <g transform="translate(362.840313 104.125465) scale(0.1 -0.1)">
       <use xlink:href="#DejaVuSans-30"/>
       <use xlink:href="#DejaVuSans-2e" transform="translate(63.623047 0)"/>
       <use xlink:href="#DejaVuSans-36" transform="translate(95.410156 0)"/>
      </g>
     </g>
    </g>
    <g id="ytick_10">
     <g id="line2d_72">
      <path d="M 385.743438 64.15448 
L 680.99976 64.15448 
" clip-path="url(#p9923e2e513)" style="fill: none; stroke: #b0b0b0; stroke-opacity: 0.3; stroke-width: 0.4; stroke-linecap: square"/>
     </g>
     <g id="line2d_73">
      <g>
       <use xlink:href="#m63c9688f1e" x="385.743438" y="64.15448" style="stroke: #000000; stroke-width: 0.8"/>
      </g>
     </g>
     <g id="text_23">
      <!-- 0.8 -->
      <g transform="translate(362.840313 67.953699) scale(0.1 -0.1)">
       <use xlink:href="#DejaVuSans-30"/>
       <use xlink:href="#DejaVuSans-2e" transform="translate(63.623047 0)"/>
       <use xlink:href="#DejaVuSans-38" transform="translate(95.410156 0)"/>
      </g>
     </g>
    </g>
    <g id="ytick_11">
     <g id="line2d_74">
      <path d="M 385.743438 27.982715 
L 680.99976 27.982715 
" clip-path="url(#p9923e2e513)" style="fill: none; stroke: #b0b0b0; stroke-opacity: 0.3; stroke-width: 0.4; stroke-linecap: square"/>
     </g>
     <g id="line2d_75">
      <g>
       <use xlink:href="#m63c9688f1e" x="385.743438" y="27.982715" style="stroke: #000000; stroke-width: 0.8"/>
      </g>
     </g>
     <g id="text_24">
      <!-- 1.0 -->
      <g transform="translate(362.840313 31.781933) scale(0.1 -0.1)">
       <use xlink:href="#DejaVuSans-31"/>
       <use xlink:href="#DejaVuSans-2e" transform="translate(63.623047 0)"/>
       <use xlink:href="#DejaVuSans-30" transform="translate(95.410156 0)"/>
      </g>
     </g>
    </g>
    <g id="text_25">
     <!-- $\|T_g - I_g\|_F$ (per gate, end of training) -->
     <g transform="translate(355.740313 200.071875) rotate(-90) scale(0.1 -0.1)">
      <defs>
       <path id="DejaVuSans-2016" d="M 1344 4891 
L 1344 -1509 
L 813 -1509 
L 813 4891 
L 1344 4891 
z
M 2376 4891 
L 2376 -1509 
L 1845 -1509 
L 1845 4891 
L 2376 4891 
z
" transform="scale(0.015625)"/>
       <path id="DejaVuSans-Oblique-54" d="M 378 4666 
L 4325 4666 
L 4225 4134 
L 2559 4134 
L 1759 0 
L 1125 0 
L 1925 4134 
L 275 4134 
L 378 4666 
z
" transform="scale(0.015625)"/>
       <path id="DejaVuSans-Oblique-67" d="M 3816 3500 
L 3219 434 
Q 3047 -456 2561 -893 
Q 2075 -1331 1253 -1331 
Q 950 -1331 690 -1286 
Q 431 -1241 206 -1147 
L 313 -588 
Q 525 -725 762 -790 
Q 1000 -856 1269 -856 
Q 1816 -856 2167 -557 
Q 2519 -259 2631 300 
L 2681 563 
Q 2441 288 2122 144 
Q 1803 0 1434 0 
Q 903 0 598 351 
Q 294 703 294 1319 
Q 294 1803 478 2267 
Q 663 2731 997 3091 
Q 1219 3328 1514 3456 
Q 1809 3584 2131 3584 
Q 2484 3584 2746 3420 
Q 3009 3256 3138 2956 
L 3238 3500 
L 3816 3500 
z
M 2950 2216 
Q 2950 2641 2750 2872 
Q 2550 3103 2181 3103 
Q 1953 3103 1747 3012 
Q 1541 2922 1394 2759 
Q 1156 2491 1023 2127 
Q 891 1763 891 1375 
Q 891 944 1092 712 
Q 1294 481 1672 481 
Q 2219 481 2584 976 
Q 2950 1472 2950 2216 
z
" transform="scale(0.015625)"/>
       <path id="DejaVuSans-Oblique-49" d="M 1081 4666 
L 1716 4666 
L 806 0 
L 172 0 
L 1081 4666 
z
" transform="scale(0.015625)"/>
       <path id="DejaVuSans-Oblique-46" d="M 1081 4666 
L 3756 4666 
L 3653 4134 
L 1606 4134 
L 1338 2759 
L 3188 2759 
L 3084 2228 
L 1234 2228 
L 800 0 
L 172 0 
L 1081 4666 
z
" transform="scale(0.015625)"/>
       <path id="DejaVuSans-70" d="M 1159 525 
L 1159 -1331 
L 581 -1331 
L 581 3500 
L 1159 3500 
L 1159 2969 
Q 1341 3281 1617 3432 
Q 1894 3584 2278 3584 
Q 2916 3584 3314 3078 
Q 3713 2572 3713 1747 
Q 3713 922 3314 415 
Q 2916 -91 2278 -91 
Q 1894 -91 1617 61 
Q 1341 213 1159 525 
z
M 3116 1747 
Q 3116 2381 2855 2742 
Q 2594 3103 2138 3103 
Q 1681 3103 1420 2742 
Q 1159 2381 1159 1747 
Q 1159 1113 1420 752 
Q 1681 391 2138 391 
Q 2594 391 2855 752 
Q 3116 1113 3116 1747 
z
" transform="scale(0.015625)"/>
       <path id="DejaVuSans-2c" d="M 750 794 
L 1409 794 
L 1409 256 
L 897 -744 
L 494 -744 
L 750 256 
L 750 794 
z
" transform="scale(0.015625)"/>
      </defs>
      <use xlink:href="#DejaVuSans-2016" transform="translate(0 0.578125)"/>
      <use xlink:href="#DejaVuSans-Oblique-54" transform="translate(50 0.578125)"/>
      <use xlink:href="#DejaVuSans-Oblique-67" transform="translate(111.083984 -15.828125) scale(0.7)"/>
      <use xlink:href="#DejaVuSans-2212" transform="translate(177.734375 0.578125)"/>
      <use xlink:href="#DejaVuSans-Oblique-49" transform="translate(281.005859 0.578125)"/>
      <use xlink:href="#DejaVuSans-Oblique-67" transform="translate(310.498047 -15.828125) scale(0.7)"/>
      <use xlink:href="#DejaVuSans-2016" transform="translate(357.666016 0.578125)"/>
      <use xlink:href="#DejaVuSans-Oblique-46" transform="translate(408.623047 -15.828125) scale(0.7)"/>
      <use xlink:href="#DejaVuSans-20" transform="translate(451.621094 0.578125)"/>
      <use xlink:href="#DejaVuSans-28" transform="translate(483.408203 0.578125)"/>
      <use xlink:href="#DejaVuSans-70" transform="translate(522.421875 0.578125)"/>
      <use xlink:href="#DejaVuSans-65" transform="translate(585.898438 0.578125)"/>
      <use xlink:href="#DejaVuSans-72" transform="translate(647.421875 0.578125)"/>
      <use xlink:href="#DejaVuSans-20" transform="translate(688.535156 0.578125)"/>
      <use xlink:href="#DejaVuSans-67" transform="translate(720.322266 0.578125)"/>
      <use xlink:href="#DejaVuSans-61" transform="translate(783.798828 0.578125)"/>
      <use xlink:href="#DejaVuSans-74" transform="translate(845.078125 0.578125)"/>
      <use xlink:href="#DejaVuSans-65" transform="translate(884.287109 0.578125)"/>
      <use xlink:href="#DejaVuSans-2c" transform="translate(945.810547 0.578125)"/>
      <use xlink:href="#DejaVuSans-20" transform="translate(977.597656 0.578125)"/>
      <use xlink:href="#DejaVuSans-65" transform="translate(1009.384766 0.578125)"/>
      <use xlink:href="#DejaVuSans-6e" transform="translate(1070.908203 0.578125)"/>
      <use xlink:href="#DejaVuSans-64" transform="translate(1134.287109 0.578125)"/>
      <use xlink:href="#DejaVuSans-20" transform="translate(1197.763672 0.578125)"/>
      <use xlink:href="#DejaVuSans-6f" transform="translate(1229.550781 0.578125)"/>
      <use xlink:href="#DejaVuSans-66" transform="translate(1290.732422 0.578125)"/>
      <use xlink:href="#DejaVuSans-20" transform="translate(1325.9375 0.578125)"/>
      <use xlink:href="#DejaVuSans-74" transform="translate(1357.724609 0.578125)"/>
      <use xlink:href="#DejaVuSans-72" transform="translate(1396.933594 0.578125)"/>
      <use xlink:href="#DejaVuSans-61" transform="translate(1438.046875 0.578125)"/>
      <use xlink:href="#DejaVuSans-69" transform="translate(1499.326172 0.578125)"/>
      <use xlink:href="#DejaVuSans-6e" transform="translate(1527.109375 0.578125)"/>
      <use xlink:href="#DejaVuSans-69" transform="translate(1590.488281 0.578125)"/>
      <use xlink:href="#DejaVuSans-6e" transform="translate(1618.271484 0.578125)"/>
      <use xlink:href="#DejaVuSans-67" transform="translate(1681.650391 0.578125)"/>
      <use xlink:href="#DejaVuSans-29" transform="translate(1745.126953 0.578125)"/>
     </g>
    </g>
   </g>
   <g id="LineCollection_1">
    <path d="M 407.704652 13.035804 
L 424.785596 13.035804 
" clip-path="url(#p9923e2e513)" style="fill: none; stroke: #1f77b4; stroke-width: 1.5"/>
    <path d="M 505.310047 13.06953 
L 522.390992 13.06953 
" clip-path="url(#p9923e2e513)" style="fill: none; stroke: #1f77b4; stroke-width: 1.5"/>
    <path d="M 602.915443 13.195191 
L 619.996388 13.195191 
" clip-path="url(#p9923e2e513)" style="fill: none; stroke: #1f77b4; stroke-width: 1.5"/>
   </g>
   <g id="LineCollection_2">
    <path d="M 407.704652 208.841543 
L 424.785596 208.841543 
" clip-path="url(#p9923e2e513)" style="fill: none; stroke: #1f77b4; stroke-width: 1.5"/>
    <path d="M 505.310047 208.841543 
L 522.390992 208.841543 
" clip-path="url(#p9923e2e513)" style="fill: none; stroke: #1f77b4; stroke-width: 1.5"/>
    <path d="M 602.915443 208.841543 
L 619.996388 208.841543 
" clip-path="url(#p9923e2e513)" style="fill: none; stroke: #1f77b4; stroke-width: 1.5"/>
   </g>
   <g id="LineCollection_3">
    <path d="M 416.245124 208.841543 
L 416.245124 13.035804 
" clip-path="url(#p9923e2e513)" style="fill: none; stroke: #1f77b4; stroke-width: 1.5"/>
    <path d="M 513.85052 208.841543 
L 513.85052 13.06953 
" clip-path="url(#p9923e2e513)" style="fill: none; stroke: #1f77b4; stroke-width: 1.5"/>
    <path d="M 611.455915 208.841543 
L 611.455915 13.195191 
" clip-path="url(#p9923e2e513)" style="fill: none; stroke: #1f77b4; stroke-width: 1.5"/>
   </g>
   <g id="LineCollection_4">
    <path d="M 407.704652 110.99837 
L 424.785596 110.99837 
" clip-path="url(#p9923e2e513)" style="fill: none; stroke: #1f77b4; stroke-width: 1.5"/>
    <path d="M 505.310047 111.005994 
L 522.390992 111.005994 
" clip-path="url(#p9923e2e513)" style="fill: none; stroke: #1f77b4; stroke-width: 1.5"/>
    <path d="M 602.915443 111.093887 
L 619.996388 111.093887 
" clip-path="url(#p9923e2e513)" style="fill: none; stroke: #1f77b4; stroke-width: 1.5"/>
   </g>
   <g id="LineCollection_5">
    <path d="M 446.74681 12.802207 
L 463.827754 12.802207 
" clip-path="url(#p9923e2e513)" style="fill: none; stroke: #ff7f0e; stroke-width: 1.5"/>
    <path d="M 544.352206 12.902488 
L 561.43315 12.902488 
" clip-path="url(#p9923e2e513)" style="fill: none; stroke: #ff7f0e; stroke-width: 1.5"/>
    <path d="M 641.957602 208.816057 
L 659.038546 208.816057 
" clip-path="url(#p9923e2e513)" style="fill: none; stroke: #ff7f0e; stroke-width: 1.5"/>
   </g>
   <g id="LineCollection_6">
    <path d="M 446.74681 208.841543 
L 463.827754 208.841543 
" clip-path="url(#p9923e2e513)" style="fill: none; stroke: #ff7f0e; stroke-width: 1.5"/>
    <path d="M 544.352206 208.841543 
L 561.43315 208.841543 
" clip-path="url(#p9923e2e513)" style="fill: none; stroke: #ff7f0e; stroke-width: 1.5"/>
    <path d="M 641.957602 208.841543 
L 659.038546 208.841543 
" clip-path="url(#p9923e2e513)" style="fill: none; stroke: #ff7f0e; stroke-width: 1.5"/>
   </g>
   <g id="LineCollection_7">
    <path d="M 455.287282 208.841543 
L 455.287282 12.802207 
" clip-path="url(#p9923e2e513)" style="fill: none; stroke: #ff7f0e; stroke-width: 1.5"/>
    <path d="M 552.892678 208.841543 
L 552.892678 12.902488 
" clip-path="url(#p9923e2e513)" style="fill: none; stroke: #ff7f0e; stroke-width: 1.5"/>
    <path d="M 650.498074 208.841543 
L 650.498074 208.816057 
" clip-path="url(#p9923e2e513)" style="fill: none; stroke: #ff7f0e; stroke-width: 1.5"/>
   </g>
   <g id="LineCollection_8">
    <path d="M 446.74681 208.841543 
L 463.827754 208.841543 
" clip-path="url(#p9923e2e513)" style="fill: none; stroke: #ff7f0e; stroke-width: 1.5"/>
    <path d="M 544.352206 208.841543 
L 561.43315 208.841543 
" clip-path="url(#p9923e2e513)" style="fill: none; stroke: #ff7f0e; stroke-width: 1.5"/>
    <path d="M 641.957602 208.841543 
L 659.038546 208.841543 
" clip-path="url(#p9923e2e513)" style="fill: none; stroke: #ff7f0e; stroke-width: 1.5"/>
   </g>
   <g id="patch_8">
    <path d="M 385.743438 218.64351 
L 385.743438 3.00024 
" style="fill: none; stroke: #000000; stroke-width: 0.8; stroke-linejoin: miter; stroke-linecap: square"/>
   </g>
   <g id="patch_9">
    <path d="M 680.99976 218.64351 
L 680.99976 3.00024 
" style="fill: none; stroke: #000000; stroke-width: 0.8; stroke-linejoin: miter; stroke-linecap: square"/>
   </g>
   <g id="patch_10">
    <path d="M 385.743438 218.64351 
L 680.99976 218.64351 
" style="fill: none; stroke: #000000; stroke-width: 0.8; stroke-linejoin: miter; stroke-linecap: square"/>
   </g>
   <g id="patch_11">
    <path d="M 385.743438 3.00024 
L 680.99976 3.00024 
" style="fill: none; stroke: #000000; stroke-width: 0.8; stroke-linejoin: miter; stroke-linecap: square"/>
   </g>
   <g id="legend_2">
    <g id="patch_12">
     <path d="M 568.55101 16.27899 
L 584.55101 16.27899 
L 584.55101 10.67899 
L 568.55101 10.67899 
z
" style="fill: #e69f00; opacity: 0.6"/>
    </g>
    <g id="text_26">
     <!-- blocked_8 inner (12) -->
     <g transform="translate(590.95101 16.27899) scale(0.08 -0.08)">
      <use xlink:href="#DejaVuSans-62"/>
      <use xlink:href="#DejaVuSans-6c" transform="translate(63.476562 0)"/>
      <use xlink:href="#DejaVuSans-6f" transform="translate(91.259766 0)"/>
      <use xlink:href="#DejaVuSans-63" transform="translate(152.441406 0)"/>
      <use xlink:href="#DejaVuSans-6b" transform="translate(207.421875 0)"/>
      <use xlink:href="#DejaVuSans-65" transform="translate(261.707031 0)"/>
      <use xlink:href="#DejaVuSans-64" transform="translate(323.230469 0)"/>
      <use xlink:href="#DejaVuSans-5f" transform="translate(386.707031 0)"/>
      <use xlink:href="#DejaVuSans-38" transform="translate(436.707031 0)"/>
      <use xlink:href="#DejaVuSans-20" transform="translate(500.330078 0)"/>
      <use xlink:href="#DejaVuSans-69" transform="translate(532.117188 0)"/>
      <use xlink:href="#DejaVuSans-6e" transform="translate(559.900391 0)"/>
      <use xlink:href="#DejaVuSans-6e" transform="translate(623.279297 0)"/>
      <use xlink:href="#DejaVuSans-65" transform="translate(686.658203 0)"/>
      <use xlink:href="#DejaVuSans-72" transform="translate(748.181641 0)"/>
      <use xlink:href="#DejaVuSans-20" transform="translate(789.294922 0)"/>
      <use xlink:href="#DejaVuSans-28" transform="translate(821.082031 0)"/>
      <use xlink:href="#DejaVuSans-31" transform="translate(860.095703 0)"/>
      <use xlink:href="#DejaVuSans-32" transform="translate(923.71875 0)"/>
      <use xlink:href="#DejaVuSans-29" transform="translate(987.341797 0)"/>
     </g>
    </g>
    <g id="patch_13">
     <path d="M 568.55101 28.24399 
L 584.55101 28.24399 
L 584.55101 22.64399 
L 568.55101 22.64399 
z
" style="fill: #0072b2; opacity: 0.6"/>
    </g>
    <g id="text_27">
     <!-- blocked_8 outer (60) -->
     <g transform="translate(590.95101 28.24399) scale(0.08 -0.08)">
      <defs>
       <path id="DejaVuSans-75" d="M 544 1381 
L 544 3500 
L 1119 3500 
L 1119 1403 
Q 1119 906 1312 657 
Q 1506 409 1894 409 
Q 2359 409 2629 706 
Q 2900 1003 2900 1516 
L 2900 3500 
L 3475 3500 
L 3475 0 
L 2900 0 
L 2900 538 
Q 2691 219 2414 64 
Q 2138 -91 1772 -91 
Q 1169 -91 856 284 
Q 544 659 544 1381 
z
M 1991 3584 
L 1991 3584 
z
" transform="scale(0.015625)"/>
      </defs>
      <use xlink:href="#DejaVuSans-62"/>
      <use xlink:href="#DejaVuSans-6c" transform="translate(63.476562 0)"/>
      <use xlink:href="#DejaVuSans-6f" transform="translate(91.259766 0)"/>
      <use xlink:href="#DejaVuSans-63" transform="translate(152.441406 0)"/>
      <use xlink:href="#DejaVuSans-6b" transform="translate(207.421875 0)"/>
      <use xlink:href="#DejaVuSans-65" transform="translate(261.707031 0)"/>
      <use xlink:href="#DejaVuSans-64" transform="translate(323.230469 0)"/>
      <use xlink:href="#DejaVuSans-5f" transform="translate(386.707031 0)"/>
      <use xlink:href="#DejaVuSans-38" transform="translate(436.707031 0)"/>
      <use xlink:href="#DejaVuSans-20" transform="translate(500.330078 0)"/>
      <use xlink:href="#DejaVuSans-6f" transform="translate(532.117188 0)"/>
      <use xlink:href="#DejaVuSans-75" transform="translate(593.298828 0)"/>
      <use xlink:href="#DejaVuSans-74" transform="translate(656.677734 0)"/>
      <use xlink:href="#DejaVuSans-65" transform="translate(695.886719 0)"/>
      <use xlink:href="#DejaVuSans-72" transform="translate(757.410156 0)"/>
      <use xlink:href="#DejaVuSans-20" transform="translate(798.523438 0)"/>
      <use xlink:href="#DejaVuSans-28" transform="translate(830.310547 0)"/>
      <use xlink:href="#DejaVuSans-36" transform="translate(869.324219 0)"/>
      <use xlink:href="#DejaVuSans-30" transform="translate(932.947266 0)"/>
      <use xlink:href="#DejaVuSans-29" transform="translate(996.570312 0)"/>
     </g>
    </g>
   </g>
  </g>
 </g>
 <defs>
  <clipPath id="p61029fe0b8">
   <rect x="45.94399" y="3.00024" width="295.256323" height="215.64327"/>
  </clipPath>
  <clipPath id="p9923e2e513">
   <rect x="385.743438" y="3.00024" width="295.256322" height="215.64327"/>
  </clipPath>
 </defs>
</svg>
