<?xml version="1.0" encoding="utf-8" standalone="no"?>
<!DOCTYPE svg PUBLIC "-//W3C//DTD SVG 1.1//EN"
  "http://www.w3.org/Graphics/SVG/1.1/DTD/svg11.dtd">
<svg xmlns:xlink="http://www.w3.org/1999/xlink" width="553.38375pt" height="321.437187pt" viewBox="0 0 553.38375 321.437187" xmlns="http://www.w3.org/2000/svg" version="1.1">
 <metadata>
  <rdf:RDF xmlns:dc="http://purl.org/dc/elements/1.1/" xmlns:cc="http://creativecommons.org/ns#" xmlns:rdf="http://www.w3.org/1999/02/22-rdf-syntax-ns#">
   <cc:Work>
    <dc:type rdf:resource="http://purl.org/dc/dcmitype/StillImage"/>
    <dc:date>2026-05-20T11:05:00.229544</dc:date>
    <dc:format>image/svg+xml</dc:format>
    <dc:creator>
     <cc:Agent>
      <dc:title>Matplotlib v3.10.9, https://matplotlib.org/</dc:title>
     </cc:Agent>
    </dc:creator>
   </cc:Work>
  </rdf:RDF>
 </metadata>
 <defs>
  <style type="text/css">*{stroke-linejoin: round; stroke-linecap: butt}</style>
 </defs>
 <g id="figure_1">
  <g id="patch_1">
   <path d="M 0 321.437187 
L 553.38375 321.437187 
L 553.38375 0 
L 0 0 
z
" style="fill: #ffffff"/>
  </g>
  <g id="axes_1">
   <g id="patch_2">
    <path d="M 39.30375 288.72 
L 546.18375 288.72 
L 546.18375 7.2 
L 39.30375 7.2 
z
" style="fill: #ffffff"/>
   </g>
   <g id="matplotlib.axis_1">
    <g id="xtick_1">
     <g id="line2d_1">
      <path d="M 58.192399 288.72 
L 58.192399 7.2 
" clip-path="url(#p521fa8721e)" style="fill: none; stroke: #999999; stroke-opacity: 0.3; stroke-width: 0.5; stroke-linecap: square"/>
     </g>
     <g id="line2d_2">
      <defs>
       <path id="m06c801c053" d="M 0 0 
L 0 3.5 
" style="stroke: #000000; stroke-width: 0.8"/>
      </defs>
      <g>
       <use xlink:href="#m06c801c053" x="58.192399" y="288.72" style="stroke: #000000; stroke-width: 0.8"/>
      </g>
     </g>
     <g id="text_1">
      <!-- 0 -->
      <g transform="translate(55.965524 301.038906) scale(0.07 -0.07)">
       <defs>
        <path id="DejaVuSans-30" d="M 2034 4250 
Q 1547 4250 1301 3770 
Q 1056 3291 1056 2328 
Q 1056 1369 1301 889 
Q 1547 409 2034 409 
Q 2525 409 2770 889 
Q 3016 1369 3016 2328 
Q 3016 3291 2770 3770 
Q 2525 4250 2034 4250 
z
M 2034 4750 
Q 2819 4750 3233 4129 
Q 3647 3509 3647 2328 
Q 3647 1150 3233 529 
Q 2819 -91 2034 -91 
Q 1250 -91 836 529 
Q 422 1150 422 2328 
Q 422 3509 836 4129 
Q 1250 4750 2034 4750 
z
" transform="scale(0.015625)"/>
       </defs>
       <use xlink:href="#DejaVuSans-30"/>
      </g>
     </g>
    </g>
    <g id="xtick_2">
     <g id="line2d_3">
      <path d="M 150.444651 288.72 
L 150.444651 7.2 
" clip-path="url(#p521fa8721e)" style="fill: none; stroke: #999999; stroke-opacity: 0.3; stroke-width: 0.5; stroke-linecap: square"/>
     </g>
     <g id="line2d_4">
      <g>
       <use xlink:href="#m06c801c053" x="150.444651" y="288.72" style="stroke: #000000; stroke-width: 0.8"/>
      </g>
     </g>
     <g id="text_2">
      <!-- 200 -->
      <g transform="translate(143.764026 301.038906) scale(0.07 -0.07)">
       <defs>
        <path id="DejaVuSans-32" d="M 1228 531 
L 3431 531 
L 3431 0 
L 469 0 
L 469 531 
Q 828 903 1448 1529 
Q 2069 2156 2228 2338 
Q 2531 2678 2651 2914 
Q 2772 3150 2772 3378 
Q 2772 3750 2511 3984 
Q 2250 4219 1831 4219 
Q 1534 4219 1204 4116 
Q 875 4013 500 3803 
L 500 4441 
Q 881 4594 1212 4672 
Q 1544 4750 1819 4750 
Q 2544 4750 2975 4387 
Q 3406 4025 3406 3419 
Q 3406 3131 3298 2873 
Q 3191 2616 2906 2266 
Q 2828 2175 2409 1742 
Q 1991 1309 1228 531 
z
" transform="scale(0.015625)"/>
       </defs>
       <use xlink:href="#DejaVuSans-32"/>
       <use xlink:href="#DejaVuSans-30" transform="translate(63.623047 0)"/>
       <use xlink:href="#DejaVuSans-30" transform="translate(127.246094 0)"/>
      </g>
     </g>
    </g>
    <g id="xtick_3">
     <g id="line2d_5">
      <path d="M 242.696903 288.72 
L 242.696903 7.2 
" clip-path="url(#p521fa8721e)" style="fill: none; stroke: #999999; stroke-opacity: 0.3; stroke-width: 0.5; stroke-linecap: square"/>
     </g>
     <g id="line2d_6">
      <g>
       <use xlink:href="#m06c801c053" x="242.696903" y="288.72" style="stroke: #000000; stroke-width: 0.8"/>
      </g>
     </g>
     <g id="text_3">
      <!-- 400 -->
      <g transform="translate(236.016278 301.038906) scale(0.07 -0.07)">
       <defs>
        <path id="DejaVuSans-34" d="M 2419 4116 
L 825 1625 
L 2419 1625 
L 2419 4116 
z
M 2253 4666 
L 3047 4666 
L 3047 1625 
L 3713 1625 
L 3713 1100 
L 3047 1100 
L 3047 0 
L 2419 0 
L 2419 1100 
L 313 1100 
L 313 1709 
L 2253 4666 
z
" transform="scale(0.015625)"/>
       </defs>
       <use xlink:href="#DejaVuSans-34"/>
       <use xlink:href="#DejaVuSans-30" transform="translate(63.623047 0)"/>
       <use xlink:href="#DejaVuSans-30" transform="translate(127.246094 0)"/>
      </g>
     </g>
    </g>
    <g id="xtick_4">
     <g id="line2d_7">
      <path d="M 334.949155 288.72 
L 334.949155 7.2 
" clip-path="url(#p521fa8721e)" style="fill: none; stroke: #999999; stroke-opacity: 0.3; stroke-width: 0.5; stroke-linecap: square"/>
     </g>
     <g id="line2d_8">
      <g>
       <use xlink:href="#m06c801c053" x="334.949155" y="288.72" style="stroke: #000000; stroke-width: 0.8"/>
      </g>
     </g>
     <g id="text_4">
      <!-- 600 -->
      <g transform="translate(328.26853 301.038906) scale(0.07 -0.07)">
       <defs>
        <path id="DejaVuSans-36" d="M 2113 2584 
Q 1688 2584 1439 2293 
Q 1191 2003 1191 1497 
Q 1191 994 1439 701 
Q 1688 409 2113 409 
Q 2538 409 2786 701 
Q 3034 994 3034 1497 
Q 3034 2003 2786 2293 
Q 2538 2584 2113 2584 
z
M 3366 4563 
L 3366 3988 
Q 3128 4100 2886 4159 
Q 2644 4219 2406 4219 
Q 1781 4219 1451 3797 
Q 1122 3375 1075 2522 
Q 1259 2794 1537 2939 
Q 1816 3084 2150 3084 
Q 2853 3084 3261 2657 
Q 3669 2231 3669 1497 
Q 3669 778 3244 343 
Q 2819 -91 2113 -91 
Q 1303 -91 875 529 
Q 447 1150 447 2328 
Q 447 3434 972 4092 
Q 1497 4750 2381 4750 
Q 2619 4750 2861 4703 
Q 3103 4656 3366 4563 
z
" transform="scale(0.015625)"/>
       </defs>
       <use xlink:href="#DejaVuSans-36"/>
       <use xlink:href="#DejaVuSans-30" transform="translate(63.623047 0)"/>
       <use xlink:href="#DejaVuSans-30" transform="translate(127.246094 0)"/>
      </g>
     </g>
    </g>
    <g id="xtick_5">
     <g id="line2d_9">
      <path d="M 427.201408 288.72 
L 427.201408 7.2 
" clip-path="url(#p521fa8721e)" style="fill: none; stroke: #999999; stroke-opacity: 0.3; stroke-width: 0.5; stroke-linecap: square"/>
     </g>
     <g id="line2d_10">
      <g>
       <use xlink:href="#m06c801c053" x="427.201408" y="288.72" style="stroke: #000000; stroke-width: 0.8"/>
      </g>
     </g>
     <g id="text_5">
      <!-- 800 -->
      <g transform="translate(420.520783 301.038906) scale(0.07 -0.07)">
       <defs>
        <path id="DejaVuSans-38" d="M 2034 2216 
Q 1584 2216 1326 1975 
Q 1069 1734 1069 1313 
Q 1069 891 1326 650 
Q 1584 409 2034 409 
Q 2484 409 2743 651 
Q 3003 894 3003 1313 
Q 3003 1734 2745 1975 
Q 2488 2216 2034 2216 
z
M 1403 2484 
Q 997 2584 770 2862 
Q 544 3141 544 3541 
Q 544 4100 942 4425 
Q 1341 4750 2034 4750 
Q 2731 4750 3128 4425 
Q 3525 4100 3525 3541 
Q 3525 3141 3298 2862 
Q 3072 2584 2669 2484 
Q 3125 2378 3379 2068 
Q 3634 1759 3634 1313 
Q 3634 634 3220 271 
Q 2806 -91 2034 -91 
Q 1263 -91 848 271 
Q 434 634 434 1313 
Q 434 1759 690 2068 
Q 947 2378 1403 2484 
z
M 1172 3481 
Q 1172 3119 1398 2916 
Q 1625 2713 2034 2713 
Q 2441 2713 2670 2916 
Q 2900 3119 2900 3481 
Q 2900 3844 2670 4047 
Q 2441 4250 2034 4250 
Q 1625 4250 1398 4047 
Q 1172 3844 1172 3481 
z
" transform="scale(0.015625)"/>
       </defs>
       <use xlink:href="#DejaVuSans-38"/>
       <use xlink:href="#DejaVuSans-30" transform="translate(63.623047 0)"/>
       <use xlink:href="#DejaVuSans-30" transform="translate(127.246094 0)"/>
      </g>
     </g>
    </g>
    <g id="xtick_6">
     <g id="line2d_11">
      <path d="M 519.45366 288.72 
L 519.45366 7.2 
" clip-path="url(#p521fa8721e)" style="fill: none; stroke: #999999; stroke-opacity: 0.3; stroke-width: 0.5; stroke-linecap: square"/>
     </g>
     <g id="line2d_12">
      <g>
       <use xlink:href="#m06c801c053" x="519.45366" y="288.72" style="stroke: #000000; stroke-width: 0.8"/>
      </g>
     </g>
     <g id="text_6">
      <!-- 1000 -->
      <g transform="translate(510.54616 301.038906) scale(0.07 -0.07)">
       <defs>
        <path id="DejaVuSans-31" d="M 794 531 
L 1825 531 
L 1825 4091 
L 703 3866 
L 703 4441 
L 1819 4666 
L 2450 4666 
L 2450 531 
L 3481 531 
L 3481 0 
L 794 0 
L 794 531 
z
" transform="scale(0.015625)"/>
       </defs>
       <use xlink:href="#DejaVuSans-31"/>
       <use xlink:href="#DejaVuSans-30" transform="translate(63.623047 0)"/>
       <use xlink:href="#DejaVuSans-30" transform="translate(127.246094 0)"/>
       <use xlink:href="#DejaVuSans-30" transform="translate(190.869141 0)"/>
      </g>
     </g>
    </g>
    <g id="xtick_7">
     <g id="line2d_13">
      <path d="M 81.255462 288.72 
L 81.255462 7.2 
" clip-path="url(#p521fa8721e)" style="fill: none; stroke: #bbbbbb; stroke-opacity: 0.15; stroke-width: 0.3; stroke-linecap: square"/>
     </g>
     <g id="line2d_14">
      <defs>
       <path id="md0e4e1d65c" d="M 0 0 
L 0 2 
" style="stroke: #000000; stroke-width: 0.6"/>
      </defs>
      <g>
       <use xlink:href="#md0e4e1d65c" x="81.255462" y="288.72" style="stroke: #000000; stroke-width: 0.6"/>
      </g>
     </g>
    </g>
    <g id="xtick_8">
     <g id="line2d_15">
      <path d="M 104.318525 288.72 
L 104.318525 7.2 
" clip-path="url(#p521fa8721e)" style="fill: none; stroke: #bbbbbb; stroke-opacity: 0.15; stroke-width: 0.3; stroke-linecap: square"/>
     </g>
     <g id="line2d_16">
      <g>
       <use xlink:href="#md0e4e1d65c" x="104.318525" y="288.72" style="stroke: #000000; stroke-width: 0.6"/>
      </g>
     </g>
    </g>
    <g id="xtick_9">
     <g id="line2d_17">
      <path d="M 127.381588 288.72 
L 127.381588 7.2 
" clip-path="url(#p521fa8721e)" style="fill: none; stroke: #bbbbbb; stroke-opacity: 0.15; stroke-width: 0.3; stroke-linecap: square"/>
     </g>
     <g id="line2d_18">
      <g>
       <use xlink:href="#md0e4e1d65c" x="127.381588" y="288.72" style="stroke: #000000; stroke-width: 0.6"/>
      </g>
     </g>
    </g>
    <g id="xtick_10">
     <g id="line2d_19">
      <path d="M 173.507714 288.72 
L 173.507714 7.2 
" clip-path="url(#p521fa8721e)" style="fill: none; stroke: #bbbbbb; stroke-opacity: 0.15; stroke-width: 0.3; stroke-linecap: square"/>
     </g>
     <g id="line2d_20">
      <g>
       <use xlink:href="#md0e4e1d65c" x="173.507714" y="288.72" style="stroke: #000000; stroke-width: 0.6"/>
      </g>
     </g>
    </g>
    <g id="xtick_11">
     <g id="line2d_21">
      <path d="M 196.570777 288.72 
L 196.570777 7.2 
" clip-path="url(#p521fa8721e)" style="fill: none; stroke: #bbbbbb; stroke-opacity: 0.15; stroke-width: 0.3; stroke-linecap: square"/>
     </g>
     <g id="line2d_22">
      <g>
       <use xlink:href="#md0e4e1d65c" x="196.570777" y="288.72" style="stroke: #000000; stroke-width: 0.6"/>
      </g>
     </g>
    </g>
    <g id="xtick_12">
     <g id="line2d_23">
      <path d="M 219.63384 288.72 
L 219.63384 7.2 
" clip-path="url(#p521fa8721e)" style="fill: none; stroke: #bbbbbb; stroke-opacity: 0.15; stroke-width: 0.3; stroke-linecap: square"/>
     </g>
     <g id="line2d_24">
      <g>
       <use xlink:href="#md0e4e1d65c" x="219.63384" y="288.72" style="stroke: #000000; stroke-width: 0.6"/>
      </g>
     </g>
    </g>
    <g id="xtick_13">
     <g id="line2d_25">
      <path d="M 265.759966 288.72 
L 265.759966 7.2 
" clip-path="url(#p521fa8721e)" style="fill: none; stroke: #bbbbbb; stroke-opacity: 0.15; stroke-width: 0.3; stroke-linecap: square"/>
     </g>
     <g id="line2d_26">
      <g>
       <use xlink:href="#md0e4e1d65c" x="265.759966" y="288.72" style="stroke: #000000; stroke-width: 0.6"/>
      </g>
     </g>
    </g>
    <g id="xtick_14">
     <g id="line2d_27">
      <path d="M 288.823029 288.72 
L 288.823029 7.2 
" clip-path="url(#p521fa8721e)" style="fill: none; stroke: #bbbbbb; stroke-opacity: 0.15; stroke-width: 0.3; stroke-linecap: square"/>
     </g>
     <g id="line2d_28">
      <g>
       <use xlink:href="#md0e4e1d65c" x="288.823029" y="288.72" style="stroke: #000000; stroke-width: 0.6"/>
      </g>
     </g>
    </g>
    <g id="xtick_15">
     <g id="line2d_29">
      <path d="M 311.886092 288.72 
L 311.886092 7.2 
" clip-path="url(#p521fa8721e)" style="fill: none; stroke: #bbbbbb; stroke-opacity: 0.15; stroke-width: 0.3; stroke-linecap: square"/>
     </g>
     <g id="line2d_30">
      <g>
       <use xlink:href="#md0e4e1d65c" x="311.886092" y="288.72" style="stroke: #000000; stroke-width: 0.6"/>
      </g>
     </g>
    </g>
    <g id="xtick_16">
     <g id="line2d_31">
      <path d="M 358.012218 288.72 
L 358.012218 7.2 
" clip-path="url(#p521fa8721e)" style="fill: none; stroke: #bbbbbb; stroke-opacity: 0.15; stroke-width: 0.3; stroke-linecap: square"/>
     </g>
     <g id="line2d_32">
      <g>
       <use xlink:href="#md0e4e1d65c" x="358.012218" y="288.72" style="stroke: #000000; stroke-width: 0.6"/>
      </g>
     </g>
    </g>
    <g id="xtick_17">
     <g id="line2d_33">
      <path d="M 381.075282 288.72 
L 381.075282 7.2 
" clip-path="url(#p521fa8721e)" style="fill: none; stroke: #bbbbbb; stroke-opacity: 0.15; stroke-width: 0.3; stroke-linecap: square"/>
     </g>
     <g id="line2d_34">
      <g>
       <use xlink:href="#md0e4e1d65c" x="381.075282" y="288.72" style="stroke: #000000; stroke-width: 0.6"/>
      </g>
     </g>
    </g>
    <g id="xtick_18">
     <g id="line2d_35">
      <path d="M 404.138345 288.72 
L 404.138345 7.2 
" clip-path="url(#p521fa8721e)" style="fill: none; stroke: #bbbbbb; stroke-opacity: 0.15; stroke-width: 0.3; stroke-linecap: square"/>
     </g>
     <g id="line2d_36">
      <g>
       <use xlink:href="#md0e4e1d65c" x="404.138345" y="288.72" style="stroke: #000000; stroke-width: 0.6"/>
      </g>
     </g>
    </g>
    <g id="xtick_19">
     <g id="line2d_37">
      <path d="M 450.264471 288.72 
L 450.264471 7.2 
" clip-path="url(#p521fa8721e)" style="fill: none; stroke: #bbbbbb; stroke-opacity: 0.15; stroke-width: 0.3; stroke-linecap: square"/>
     </g>
     <g id="line2d_38">
      <g>
       <use xlink:href="#md0e4e1d65c" x="450.264471" y="288.72" style="stroke: #000000; stroke-width: 0.6"/>
      </g>
     </g>
    </g>
    <g id="xtick_20">
     <g id="line2d_39">
      <path d="M 473.327534 288.72 
L 473.327534 7.2 
" clip-path="url(#p521fa8721e)" style="fill: none; stroke: #bbbbbb; stroke-opacity: 0.15; stroke-width: 0.3; stroke-linecap: square"/>
     </g>
     <g id="line2d_40">
      <g>
       <use xlink:href="#md0e4e1d65c" x="473.327534" y="288.72" style="stroke: #000000; stroke-width: 0.6"/>
      </g>
     </g>
    </g>
    <g id="xtick_21">
     <g id="line2d_41">
      <path d="M 496.390597 288.72 
L 496.390597 7.2 
" clip-path="url(#p521fa8721e)" style="fill: none; stroke: #bbbbbb; stroke-opacity: 0.15; stroke-width: 0.3; stroke-linecap: square"/>
     </g>
     <g id="line2d_42">
      <g>
       <use xlink:href="#md0e4e1d65c" x="496.390597" y="288.72" style="stroke: #000000; stroke-width: 0.6"/>
      </g>
     </g>
    </g>
    <g id="xtick_22">
     <g id="line2d_43">
      <path d="M 542.516723 288.72 
L 542.516723 7.2 
" clip-path="url(#p521fa8721e)" style="fill: none; stroke: #bbbbbb; stroke-opacity: 0.15; stroke-width: 0.3; stroke-linecap: square"/>
     </g>
     <g id="line2d_44">
      <g>
       <use xlink:href="#md0e4e1d65c" x="542.516723" y="288.72" style="stroke: #000000; stroke-width: 0.6"/>
      </g>
     </g>
    </g>
    <g id="text_7">
     <!-- training step -->
     <g transform="translate(267.324375 312.573438) scale(0.08 -0.08)">
      <defs>
       <path id="DejaVuSans-74" d="M 1172 4494 
L 1172 3500 
L 2356 3500 
L 2356 3053 
L 1172 3053 
L 1172 1153 
Q 1172 725 1289 603 
Q 1406 481 1766 481 
L 2356 481 
L 2356 0 
L 1766 0 
Q 1100 0 847 248 
Q 594 497 594 1153 
L 594 3053 
L 172 3053 
L 172 3500 
L 594 3500 
L 594 4494 
L 1172 4494 
z
" transform="scale(0.015625)"/>
       <path id="DejaVuSans-72" d="M 2631 2963 
Q 2534 3019 2420 3045 
Q 2306 3072 2169 3072 
Q 1681 3072 1420 2755 
Q 1159 2438 1159 1844 
L 1159 0 
L 581 0 
L 581 3500 
L 1159 3500 
L 1159 2956 
Q 1341 3275 1631 3429 
Q 1922 3584 2338 3584 
Q 2397 3584 2469 3576 
Q 2541 3569 2628 3553 
L 2631 2963 
z
" transform="scale(0.015625)"/>
       <path id="DejaVuSans-61" d="M 2194 1759 
Q 1497 1759 1228 1600 
Q 959 1441 959 1056 
Q 959 750 1161 570 
Q 1363 391 1709 391 
Q 2188 391 2477 730 
Q 2766 1069 2766 1631 
L 2766 1759 
L 2194 1759 
z
M 3341 1997 
L 3341 0 
L 2766 0 
L 2766 531 
Q 2569 213 2275 61 
Q 1981 -91 1556 -91 
Q 1019 -91 701 211 
Q 384 513 384 1019 
Q 384 1609 779 1909 
Q 1175 2209 1959 2209 
L 2766 2209 
L 2766 2266 
Q 2766 2663 2505 2880 
Q 2244 3097 1772 3097 
Q 1472 3097 1187 3025 
Q 903 2953 641 2809 
L 641 3341 
Q 956 3463 1253 3523 
Q 1550 3584 1831 3584 
Q 2591 3584 2966 3190 
Q 3341 2797 3341 1997 
z
" transform="scale(0.015625)"/>
       <path id="DejaVuSans-69" d="M 603 3500 
L 1178 3500 
L 1178 0 
L 603 0 
L 603 3500 
z
M 603 4863 
L 1178 4863 
L 1178 4134 
L 603 4134 
L 603 4863 
z
" transform="scale(0.015625)"/>
       <path id="DejaVuSans-6e" d="M 3513 2113 
L 3513 0 
L 2938 0 
L 2938 2094 
Q 2938 2591 2744 2837 
Q 2550 3084 2163 3084 
Q 1697 3084 1428 2787 
Q 1159 2491 1159 1978 
L 1159 0 
L 581 0 
L 581 3500 
L 1159 3500 
L 1159 2956 
Q 1366 3272 1645 3428 
Q 1925 3584 2291 3584 
Q 2894 3584 3203 3211 
Q 3513 2838 3513 2113 
z
" transform="scale(0.015625)"/>
       <path id="DejaVuSans-67" d="M 2906 1791 
Q 2906 2416 2648 2759 
Q 2391 3103 1925 3103 
Q 1463 3103 1205 2759 
Q 947 2416 947 1791 
Q 947 1169 1205 825 
Q 1463 481 1925 481 
Q 2391 481 2648 825 
Q 2906 1169 2906 1791 
z
M 3481 434 
Q 3481 -459 3084 -895 
Q 2688 -1331 1869 -1331 
Q 1566 -1331 1297 -1286 
Q 1028 -1241 775 -1147 
L 775 -588 
Q 1028 -725 1275 -790 
Q 1522 -856 1778 -856 
Q 2344 -856 2625 -561 
Q 2906 -266 2906 331 
L 2906 616 
Q 2728 306 2450 153 
Q 2172 0 1784 0 
Q 1141 0 747 490 
Q 353 981 353 1791 
Q 353 2603 747 3093 
Q 1141 3584 1784 3584 
Q 2172 3584 2450 3431 
Q 2728 3278 2906 2969 
L 2906 3500 
L 3481 3500 
L 3481 434 
z
" transform="scale(0.015625)"/>
       <path id="DejaVuSans-20" transform="scale(0.015625)"/>
       <path id="DejaVuSans-73" d="M 2834 3397 
L 2834 2853 
Q 2591 2978 2328 3040 
Q 2066 3103 1784 3103 
Q 1356 3103 1142 2972 
Q 928 2841 928 2578 
Q 928 2378 1081 2264 
Q 1234 2150 1697 2047 
L 1894 2003 
Q 2506 1872 2764 1633 
Q 3022 1394 3022 966 
Q 3022 478 2636 193 
Q 2250 -91 1575 -91 
Q 1294 -91 989 -36 
Q 684 19 347 128 
L 347 722 
Q 666 556 975 473 
Q 1284 391 1588 391 
Q 1994 391 2212 530 
Q 2431 669 2431 922 
Q 2431 1156 2273 1281 
Q 2116 1406 1581 1522 
L 1381 1569 
Q 847 1681 609 1914 
Q 372 2147 372 2553 
Q 372 3047 722 3315 
Q 1072 3584 1716 3584 
Q 2034 3584 2315 3537 
Q 2597 3491 2834 3397 
z
" transform="scale(0.015625)"/>
       <path id="DejaVuSans-65" d="M 3597 1894 
L 3597 1613 
L 953 1613 
Q 991 1019 1311 708 
Q 1631 397 2203 397 
Q 2534 397 2845 478 
Q 3156 559 3463 722 
L 3463 178 
Q 3153 47 2828 -22 
Q 2503 -91 2169 -91 
Q 1331 -91 842 396 
Q 353 884 353 1716 
Q 353 2575 817 3079 
Q 1281 3584 2069 3584 
Q 2775 3584 3186 3129 
Q 3597 2675 3597 1894 
z
M 3022 2063 
Q 3016 2534 2758 2815 
Q 2500 3097 2075 3097 
Q 1594 3097 1305 2825 
Q 1016 2553 972 2059 
L 3022 2063 
z
" transform="scale(0.015625)"/>
       <path id="DejaVuSans-70" d="M 1159 525 
L 1159 -1331 
L 581 -1331 
L 581 3500 
L 1159 3500 
L 1159 2969 
Q 1341 3281 1617 3432 
Q 1894 3584 2278 3584 
Q 2916 3584 3314 3078 
Q 3713 2572 3713 1747 
Q 3713 922 3314 415 
Q 2916 -91 2278 -91 
Q 1894 -91 1617 61 
Q 1341 213 1159 525 
z
M 3116 1747 
Q 3116 2381 2855 2742 
Q 2594 3103 2138 3103 
Q 1681 3103 1420 2742 
Q 1159 2381 1159 1747 
Q 1159 1113 1420 752 
Q 1681 391 2138 391 
Q 2594 391 2855 752 
Q 3116 1113 3116 1747 
z
" transform="scale(0.015625)"/>
      </defs>
      <use xlink:href="#DejaVuSans-74"/>
      <use xlink:href="#DejaVuSans-72" transform="translate(39.208984 0)"/>
      <use xlink:href="#DejaVuSans-61" transform="translate(80.322266 0)"/>
      <use xlink:href="#DejaVuSans-69" transform="translate(141.601562 0)"/>
      <use xlink:href="#DejaVuSans-6e" transform="translate(169.384766 0)"/>
      <use xlink:href="#DejaVuSans-69" transform="translate(232.763672 0)"/>
      <use xlink:href="#DejaVuSans-6e" transform="translate(260.546875 0)"/>
      <use xlink:href="#DejaVuSans-67" transform="translate(323.925781 0)"/>
      <use xlink:href="#DejaVuSans-20" transform="translate(387.402344 0)"/>
      <use xlink:href="#DejaVuSans-73" transform="translate(419.189453 0)"/>
      <use xlink:href="#DejaVuSans-74" transform="translate(471.289062 0)"/>
      <use xlink:href="#DejaVuSans-65" transform="translate(510.498047 0)"/>
      <use xlink:href="#DejaVuSans-70" transform="translate(572.021484 0)"/>
     </g>
    </g>
   </g>
   <g id="matplotlib.axis_2">
    <g id="ytick_1">
     <g id="line2d_45">
      <path d="M 39.30375 281.682 
L 546.18375 281.682 
" clip-path="url(#p521fa8721e)" style="fill: none; stroke: #999999; stroke-opacity: 0.3; stroke-width: 0.5; stroke-linecap: square"/>
     </g>
     <g id="line2d_46">
      <defs>
       <path id="m0c85ebfd1f" d="M 0 0 
L -3.5 0 
" style="stroke: #000000; stroke-width: 0.8"/>
      </defs>
      <g>
       <use xlink:href="#m0c85ebfd1f" x="39.30375" y="281.682" style="stroke: #000000; stroke-width: 0.8"/>
      </g>
     </g>
     <g id="text_8">
      <!-- 125 -->
      <g transform="translate(18.9425 284.341453) scale(0.07 -0.07)">
       <defs>
        <path id="DejaVuSans-35" d="M 691 4666 
L 3169 4666 
L 3169 4134 
L 1269 4134 
L 1269 2991 
Q 1406 3038 1543 3061 
Q 1681 3084 1819 3084 
Q 2600 3084 3056 2656 
Q 3513 2228 3513 1497 
Q 3513 744 3044 326 
Q 2575 -91 1722 -91 
Q 1428 -91 1123 -41 
Q 819 9 494 109 
L 494 744 
Q 775 591 1075 516 
Q 1375 441 1709 441 
Q 2250 441 2565 725 
Q 2881 1009 2881 1497 
Q 2881 1984 2565 2268 
Q 2250 2553 1709 2553 
Q 1456 2553 1204 2497 
Q 953 2441 691 2322 
L 691 4666 
z
" transform="scale(0.015625)"/>
       </defs>
       <use xlink:href="#DejaVuSans-31"/>
       <use xlink:href="#DejaVuSans-32" transform="translate(63.623047 0)"/>
       <use xlink:href="#DejaVuSans-35" transform="translate(127.246094 0)"/>
      </g>
     </g>
    </g>
    <g id="ytick_2">
     <g id="line2d_47">
      <path d="M 39.30375 246.492 
L 546.18375 246.492 
" clip-path="url(#p521fa8721e)" style="fill: none; stroke: #999999; stroke-opacity: 0.3; stroke-width: 0.5; stroke-linecap: square"/>
     </g>
     <g id="line2d_48">
      <g>
       <use xlink:href="#m0c85ebfd1f" x="39.30375" y="246.492" style="stroke: #000000; stroke-width: 0.8"/>
      </g>
     </g>
     <g id="text_9">
      <!-- 150 -->
      <g transform="translate(18.9425 249.151453) scale(0.07 -0.07)">
       <use xlink:href="#DejaVuSans-31"/>
       <use xlink:href="#DejaVuSans-35" transform="translate(63.623047 0)"/>
       <use xlink:href="#DejaVuSans-30" transform="translate(127.246094 0)"/>
      </g>
     </g>
    </g>
    <g id="ytick_3">
     <g id="line2d_49">
      <path d="M 39.30375 211.302 
L 546.18375 211.302 
" clip-path="url(#p521fa8721e)" style="fill: none; stroke: #999999; stroke-opacity: 0.3; stroke-width: 0.5; stroke-linecap: square"/>
     </g>
     <g id="line2d_50">
      <g>
       <use xlink:href="#m0c85ebfd1f" x="39.30375" y="211.302" style="stroke: #000000; stroke-width: 0.8"/>
      </g>
     </g>
     <g id="text_10">
      <!-- 175 -->
      <g transform="translate(18.9425 213.961453) scale(0.07 -0.07)">
       <defs>
        <path id="DejaVuSans-37" d="M 525 4666 
L 3525 4666 
L 3525 4397 
L 1831 0 
L 1172 0 
L 2766 4134 
L 525 4134 
L 525 4666 
z
" transform="scale(0.015625)"/>
       </defs>
       <use xlink:href="#DejaVuSans-31"/>
       <use xlink:href="#DejaVuSans-37" transform="translate(63.623047 0)"/>
       <use xlink:href="#DejaVuSans-35" transform="translate(127.246094 0)"/>
      </g>
     </g>
    </g>
    <g id="ytick_4">
     <g id="line2d_51">
      <path d="M 39.30375 176.112 
L 546.18375 176.112 
" clip-path="url(#p521fa8721e)" style="fill: none; stroke: #999999; stroke-opacity: 0.3; stroke-width: 0.5; stroke-linecap: square"/>
     </g>
     <g id="line2d_52">
      <g>
       <use xlink:href="#m0c85ebfd1f" x="39.30375" y="176.112" style="stroke: #000000; stroke-width: 0.8"/>
      </g>
     </g>
     <g id="text_11">
      <!-- 200 -->
      <g transform="translate(18.9425 178.771453) scale(0.07 -0.07)">
       <use xlink:href="#DejaVuSans-32"/>
       <use xlink:href="#DejaVuSans-30" transform="translate(63.623047 0)"/>
       <use xlink:href="#DejaVuSans-30" transform="translate(127.246094 0)"/>
      </g>
     </g>
    </g>
    <g id="ytick_5">
     <g id="line2d_53">
      <path d="M 39.30375 140.922 
L 546.18375 140.922 
" clip-path="url(#p521fa8721e)" style="fill: none; stroke: #999999; stroke-opacity: 0.3; stroke-width: 0.5; stroke-linecap: square"/>
     </g>
     <g id="line2d_54">
      <g>
       <use xlink:href="#m0c85ebfd1f" x="39.30375" y="140.922" style="stroke: #000000; stroke-width: 0.8"/>
      </g>
     </g>
     <g id="text_12">
      <!-- 225 -->
      <g transform="translate(18.9425 143.581453) scale(0.07 -0.07)">
       <use xlink:href="#DejaVuSans-32"/>
       <use xlink:href="#DejaVuSans-32" transform="translate(63.623047 0)"/>
       <use xlink:href="#DejaVuSans-35" transform="translate(127.246094 0)"/>
      </g>
     </g>
    </g>
    <g id="ytick_6">
     <g id="line2d_55">
      <path d="M 39.30375 105.732 
L 546.18375 105.732 
" clip-path="url(#p521fa8721e)" style="fill: none; stroke: #999999; stroke-opacity: 0.3; stroke-width: 0.5; stroke-linecap: square"/>
     </g>
     <g id="line2d_56">
      <g>
       <use xlink:href="#m0c85ebfd1f" x="39.30375" y="105.732" style="stroke: #000000; stroke-width: 0.8"/>
      </g>
     </g>
     <g id="text_13">
      <!-- 250 -->
      <g transform="translate(18.9425 108.391453) scale(0.07 -0.07)">
       <use xlink:href="#DejaVuSans-32"/>
       <use xlink:href="#DejaVuSans-35" transform="translate(63.623047 0)"/>
       <use xlink:href="#DejaVuSans-30" transform="translate(127.246094 0)"/>
      </g>
     </g>
    </g>
    <g id="ytick_7">
     <g id="line2d_57">
      <path d="M 39.30375 70.542 
L 546.18375 70.542 
" clip-path="url(#p521fa8721e)" style="fill: none; stroke: #999999; stroke-opacity: 0.3; stroke-width: 0.5; stroke-linecap: square"/>
     </g>
     <g id="line2d_58">
      <g>
       <use xlink:href="#m0c85ebfd1f" x="39.30375" y="70.542" style="stroke: #000000; stroke-width: 0.8"/>
      </g>
     </g>
     <g id="text_14">
      <!-- 275 -->
      <g transform="translate(18.9425 73.201453) scale(0.07 -0.07)">
       <use xlink:href="#DejaVuSans-32"/>
       <use xlink:href="#DejaVuSans-37" transform="translate(63.623047 0)"/>
       <use xlink:href="#DejaVuSans-35" transform="translate(127.246094 0)"/>
      </g>
     </g>
    </g>
    <g id="ytick_8">
     <g id="line2d_59">
      <path d="M 39.30375 35.352 
L 546.18375 35.352 
" clip-path="url(#p521fa8721e)" style="fill: none; stroke: #999999; stroke-opacity: 0.3; stroke-width: 0.5; stroke-linecap: square"/>
     </g>
     <g id="line2d_60">
      <g>
       <use xlink:href="#m0c85ebfd1f" x="39.30375" y="35.352" style="stroke: #000000; stroke-width: 0.8"/>
      </g>
     </g>
     <g id="text_15">
      <!-- 300 -->
      <g transform="translate(18.9425 38.011453) scale(0.07 -0.07)">
       <defs>
        <path id="DejaVuSans-33" d="M 2597 2516 
Q 3050 2419 3304 2112 
Q 3559 1806 3559 1356 
Q 3559 666 3084 287 
Q 2609 -91 1734 -91 
Q 1441 -91 1130 -33 
Q 819 25 488 141 
L 488 750 
Q 750 597 1062 519 
Q 1375 441 1716 441 
Q 2309 441 2620 675 
Q 2931 909 2931 1356 
Q 2931 1769 2642 2001 
Q 2353 2234 1838 2234 
L 1294 2234 
L 1294 2753 
L 1863 2753 
Q 2328 2753 2575 2939 
Q 2822 3125 2822 3475 
Q 2822 3834 2567 4026 
Q 2313 4219 1838 4219 
Q 1578 4219 1281 4162 
Q 984 4106 628 3988 
L 628 4550 
Q 988 4650 1302 4700 
Q 1616 4750 1894 4750 
Q 2613 4750 3031 4423 
Q 3450 4097 3450 3541 
Q 3450 3153 3228 2886 
Q 3006 2619 2597 2516 
z
" transform="scale(0.015625)"/>
       </defs>
       <use xlink:href="#DejaVuSans-33"/>
       <use xlink:href="#DejaVuSans-30" transform="translate(63.623047 0)"/>
       <use xlink:href="#DejaVuSans-30" transform="translate(127.246094 0)"/>
      </g>
     </g>
    </g>
    <g id="ytick_9">
     <g id="line2d_61">
      <path d="M 39.30375 288.72 
L 546.18375 288.72 
" clip-path="url(#p521fa8721e)" style="fill: none; stroke: #bbbbbb; stroke-opacity: 0.15; stroke-width: 0.3; stroke-linecap: square"/>
     </g>
     <g id="line2d_62">
      <defs>
       <path id="m19bb43a3fc" d="M 0 0 
L -2 0 
" style="stroke: #000000; stroke-width: 0.6"/>
      </defs>
      <g>
       <use xlink:href="#m19bb43a3fc" x="39.30375" y="288.72" style="stroke: #000000; stroke-width: 0.6"/>
      </g>
     </g>
    </g>
    <g id="ytick_10">
     <g id="line2d_63">
      <path d="M 39.30375 274.644 
L 546.18375 274.644 
" clip-path="url(#p521fa8721e)" style="fill: none; stroke: #bbbbbb; stroke-opacity: 0.15; stroke-width: 0.3; stroke-linecap: square"/>
     </g>
     <g id="line2d_64">
      <g>
       <use xlink:href="#m19bb43a3fc" x="39.30375" y="274.644" style="stroke: #000000; stroke-width: 0.6"/>
      </g>
     </g>
    </g>
    <g id="ytick_11">
     <g id="line2d_65">
      <path d="M 39.30375 267.606 
L 546.18375 267.606 
" clip-path="url(#p521fa8721e)" style="fill: none; stroke: #bbbbbb; stroke-opacity: 0.15; stroke-width: 0.3; stroke-linecap: square"/>
     </g>
     <g id="line2d_66">
      <g>
       <use xlink:href="#m19bb43a3fc" x="39.30375" y="267.606" style="stroke: #000000; stroke-width: 0.6"/>
      </g>
     </g>
    </g>
    <g id="ytick_12">
     <g id="line2d_67">
      <path d="M 39.30375 260.568 
L 546.18375 260.568 
" clip-path="url(#p521fa8721e)" style="fill: none; stroke: #bbbbbb; stroke-opacity: 0.15; stroke-width: 0.3; stroke-linecap: square"/>
     </g>
     <g id="line2d_68">
      <g>
       <use xlink:href="#m19bb43a3fc" x="39.30375" y="260.568" style="stroke: #000000; stroke-width: 0.6"/>
      </g>
     </g>
    </g>
    <g id="ytick_13">
     <g id="line2d_69">
      <path d="M 39.30375 253.53 
L 546.18375 253.53 
" clip-path="url(#p521fa8721e)" style="fill: none; stroke: #bbbbbb; stroke-opacity: 0.15; stroke-width: 0.3; stroke-linecap: square"/>
     </g>
     <g id="line2d_70">
      <g>
       <use xlink:href="#m19bb43a3fc" x="39.30375" y="253.53" style="stroke: #000000; stroke-width: 0.6"/>
      </g>
     </g>
    </g>
    <g id="ytick_14">
     <g id="line2d_71">
      <path d="M 39.30375 239.454 
L 546.18375 239.454 
" clip-path="url(#p521fa8721e)" style="fill: none; stroke: #bbbbbb; stroke-opacity: 0.15; stroke-width: 0.3; stroke-linecap: square"/>
     </g>
     <g id="line2d_72">
      <g>
       <use xlink:href="#m19bb43a3fc" x="39.30375" y="239.454" style="stroke: #000000; stroke-width: 0.6"/>
      </g>
     </g>
    </g>
    <g id="ytick_15">
     <g id="line2d_73">
      <path d="M 39.30375 232.416 
L 546.18375 232.416 
" clip-path="url(#p521fa8721e)" style="fill: none; stroke: #bbbbbb; stroke-opacity: 0.15; stroke-width: 0.3; stroke-linecap: square"/>
     </g>
     <g id="line2d_74">
      <g>
       <use xlink:href="#m19bb43a3fc" x="39.30375" y="232.416" style="stroke: #000000; stroke-width: 0.6"/>
      </g>
     </g>
    </g>
    <g id="ytick_16">
     <g id="line2d_75">
      <path d="M 39.30375 225.378 
L 546.18375 225.378 
" clip-path="url(#p521fa8721e)" style="fill: none; stroke: #bbbbbb; stroke-opacity: 0.15; stroke-width: 0.3; stroke-linecap: square"/>
     </g>
     <g id="line2d_76">
      <g>
       <use xlink:href="#m19bb43a3fc" x="39.30375" y="225.378" style="stroke: #000000; stroke-width: 0.6"/>
      </g>
     </g>
    </g>
    <g id="ytick_17">
     <g id="line2d_77">
      <path d="M 39.30375 218.34 
L 546.18375 218.34 
" clip-path="url(#p521fa8721e)" style="fill: none; stroke: #bbbbbb; stroke-opacity: 0.15; stroke-width: 0.3; stroke-linecap: square"/>
     </g>
     <g id="line2d_78">
      <g>
       <use xlink:href="#m19bb43a3fc" x="39.30375" y="218.34" style="stroke: #000000; stroke-width: 0.6"/>
      </g>
     </g>
    </g>
    <g id="ytick_18">
     <g id="line2d_79">
      <path d="M 39.30375 204.264 
L 546.18375 204.264 
" clip-path="url(#p521fa8721e)" style="fill: none; stroke: #bbbbbb; stroke-opacity: 0.15; stroke-width: 0.3; stroke-linecap: square"/>
     </g>
     <g id="line2d_80">
      <g>
       <use xlink:href="#m19bb43a3fc" x="39.30375" y="204.264" style="stroke: #000000; stroke-width: 0.6"/>
      </g>
     </g>
    </g>
    <g id="ytick_19">
     <g id="line2d_81">
      <path d="M 39.30375 197.226 
L 546.18375 197.226 
" clip-path="url(#p521fa8721e)" style="fill: none; stroke: #bbbbbb; stroke-opacity: 0.15; stroke-width: 0.3; stroke-linecap: square"/>
     </g>
     <g id="line2d_82">
      <g>
       <use xlink:href="#m19bb43a3fc" x="39.30375" y="197.226" style="stroke: #000000; stroke-width: 0.6"/>
      </g>
     </g>
    </g>
    <g id="ytick_20">
     <g id="line2d_83">
      <path d="M 39.30375 190.188 
L 546.18375 190.188 
" clip-path="url(#p521fa8721e)" style="fill: none; stroke: #bbbbbb; stroke-opacity: 0.15; stroke-width: 0.3; stroke-linecap: square"/>
     </g>
     <g id="line2d_84">
      <g>
       <use xlink:href="#m19bb43a3fc" x="39.30375" y="190.188" style="stroke: #000000; stroke-width: 0.6"/>
      </g>
     </g>
    </g>
    <g id="ytick_21">
     <g id="line2d_85">
      <path d="M 39.30375 183.15 
L 546.18375 183.15 
" clip-path="url(#p521fa8721e)" style="fill: none; stroke: #bbbbbb; stroke-opacity: 0.15; stroke-width: 0.3; stroke-linecap: square"/>
     </g>
     <g id="line2d_86">
      <g>
       <use xlink:href="#m19bb43a3fc" x="39.30375" y="183.15" style="stroke: #000000; stroke-width: 0.6"/>
      </g>
     </g>
    </g>
    <g id="ytick_22">
     <g id="line2d_87">
      <path d="M 39.30375 169.074 
L 546.18375 169.074 
" clip-path="url(#p521fa8721e)" style="fill: none; stroke: #bbbbbb; stroke-opacity: 0.15; stroke-width: 0.3; stroke-linecap: square"/>
     </g>
     <g id="line2d_88">
      <g>
       <use xlink:href="#m19bb43a3fc" x="39.30375" y="169.074" style="stroke: #000000; stroke-width: 0.6"/>
      </g>
     </g>
    </g>
    <g id="ytick_23">
     <g id="line2d_89">
      <path d="M 39.30375 162.036 
L 546.18375 162.036 
" clip-path="url(#p521fa8721e)" style="fill: none; stroke: #bbbbbb; stroke-opacity: 0.15; stroke-width: 0.3; stroke-linecap: square"/>
     </g>
     <g id="line2d_90">
      <g>
       <use xlink:href="#m19bb43a3fc" x="39.30375" y="162.036" style="stroke: #000000; stroke-width: 0.6"/>
      </g>
     </g>
    </g>
    <g id="ytick_24">
     <g id="line2d_91">
      <path d="M 39.30375 154.998 
L 546.18375 154.998 
" clip-path="url(#p521fa8721e)" style="fill: none; stroke: #bbbbbb; stroke-opacity: 0.15; stroke-width: 0.3; stroke-linecap: square"/>
     </g>
     <g id="line2d_92">
      <g>
       <use xlink:href="#m19bb43a3fc" x="39.30375" y="154.998" style="stroke: #000000; stroke-width: 0.6"/>
      </g>
     </g>
    </g>
    <g id="ytick_25">
     <g id="line2d_93">
      <path d="M 39.30375 147.96 
L 546.18375 147.96 
" clip-path="url(#p521fa8721e)" style="fill: none; stroke: #bbbbbb; stroke-opacity: 0.15; stroke-width: 0.3; stroke-linecap: square"/>
     </g>
     <g id="line2d_94">
      <g>
       <use xlink:href="#m19bb43a3fc" x="39.30375" y="147.96" style="stroke: #000000; stroke-width: 0.6"/>
      </g>
     </g>
    </g>
    <g id="ytick_26">
     <g id="line2d_95">
      <path d="M 39.30375 133.884 
L 546.18375 133.884 
" clip-path="url(#p521fa8721e)" style="fill: none; stroke: #bbbbbb; stroke-opacity: 0.15; stroke-width: 0.3; stroke-linecap: square"/>
     </g>
     <g id="line2d_96">
      <g>
       <use xlink:href="#m19bb43a3fc" x="39.30375" y="133.884" style="stroke: #000000; stroke-width: 0.6"/>
      </g>
     </g>
    </g>
    <g id="ytick_27">
     <g id="line2d_97">
      <path d="M 39.30375 126.846 
L 546.18375 126.846 
" clip-path="url(#p521fa8721e)" style="fill: none; stroke: #bbbbbb; stroke-opacity: 0.15; stroke-width: 0.3; stroke-linecap: square"/>
     </g>
     <g id="line2d_98">
      <g>
       <use xlink:href="#m19bb43a3fc" x="39.30375" y="126.846" style="stroke: #000000; stroke-width: 0.6"/>
      </g>
     </g>
    </g>
    <g id="ytick_28">
     <g id="line2d_99">
      <path d="M 39.30375 119.808 
L 546.18375 119.808 
" clip-path="url(#p521fa8721e)" style="fill: none; stroke: #bbbbbb; stroke-opacity: 0.15; stroke-width: 0.3; stroke-linecap: square"/>
     </g>
     <g id="line2d_100">
      <g>
       <use xlink:href="#m19bb43a3fc" x="39.30375" y="119.808" style="stroke: #000000; stroke-width: 0.6"/>
      </g>
     </g>
    </g>
    <g id="ytick_29">
     <g id="line2d_101">
      <path d="M 39.30375 112.77 
L 546.18375 112.77 
" clip-path="url(#p521fa8721e)" style="fill: none; stroke: #bbbbbb; stroke-opacity: 0.15; stroke-width: 0.3; stroke-linecap: square"/>
     </g>
     <g id="line2d_102">
      <g>
       <use xlink:href="#m19bb43a3fc" x="39.30375" y="112.77" style="stroke: #000000; stroke-width: 0.6"/>
      </g>
     </g>
    </g>
    <g id="ytick_30">
     <g id="line2d_103">
      <path d="M 39.30375 98.694 
L 546.18375 98.694 
" clip-path="url(#p521fa8721e)" style="fill: none; stroke: #bbbbbb; stroke-opacity: 0.15; stroke-width: 0.3; stroke-linecap: square"/>
     </g>
     <g id="line2d_104">
      <g>
       <use xlink:href="#m19bb43a3fc" x="39.30375" y="98.694" style="stroke: #000000; stroke-width: 0.6"/>
      </g>
     </g>
    </g>
    <g id="ytick_31">
     <g id="line2d_105">
      <path d="M 39.30375 91.656 
L 546.18375 91.656 
" clip-path="url(#p521fa8721e)" style="fill: none; stroke: #bbbbbb; stroke-opacity: 0.15; stroke-width: 0.3; stroke-linecap: square"/>
     </g>
     <g id="line2d_106">
      <g>
       <use xlink:href="#m19bb43a3fc" x="39.30375" y="91.656" style="stroke: #000000; stroke-width: 0.6"/>
      </g>
     </g>
    </g>
    <g id="ytick_32">
     <g id="line2d_107">
      <path d="M 39.30375 84.618 
L 546.18375 84.618 
" clip-path="url(#p521fa8721e)" style="fill: none; stroke: #bbbbbb; stroke-opacity: 0.15; stroke-width: 0.3; stroke-linecap: square"/>
     </g>
     <g id="line2d_108">
      <g>
       <use xlink:href="#m19bb43a3fc" x="39.30375" y="84.618" style="stroke: #000000; stroke-width: 0.6"/>
      </g>
     </g>
    </g>
    <g id="ytick_33">
     <g id="line2d_109">
      <path d="M 39.30375 77.58 
L 546.18375 77.58 
" clip-path="url(#p521fa8721e)" style="fill: none; stroke: #bbbbbb; stroke-opacity: 0.15; stroke-width: 0.3; stroke-linecap: square"/>
     </g>
     <g id="line2d_110">
      <g>
       <use xlink:href="#m19bb43a3fc" x="39.30375" y="77.58" style="stroke: #000000; stroke-width: 0.6"/>
      </g>
     </g>
    </g>
    <g id="ytick_34">
     <g id="line2d_111">
      <path d="M 39.30375 63.504 
L 546.18375 63.504 
" clip-path="url(#p521fa8721e)" style="fill: none; stroke: #bbbbbb; stroke-opacity: 0.15; stroke-width: 0.3; stroke-linecap: square"/>
     </g>
     <g id="line2d_112">
      <g>
       <use xlink:href="#m19bb43a3fc" x="39.30375" y="63.504" style="stroke: #000000; stroke-width: 0.6"/>
      </g>
     </g>
    </g>
    <g id="ytick_35">
     <g id="line2d_113">
      <path d="M 39.30375 56.466 
L 546.18375 56.466 
" clip-path="url(#p521fa8721e)" style="fill: none; stroke: #bbbbbb; stroke-opacity: 0.15; stroke-width: 0.3; stroke-linecap: square"/>
     </g>
     <g id="line2d_114">
      <g>
       <use xlink:href="#m19bb43a3fc" x="39.30375" y="56.466" style="stroke: #000000; stroke-width: 0.6"/>
      </g>
     </g>
    </g>
    <g id="ytick_36">
     <g id="line2d_115">
      <path d="M 39.30375 49.428 
L 546.18375 49.428 
" clip-path="url(#p521fa8721e)" style="fill: none; stroke: #bbbbbb; stroke-opacity: 0.15; stroke-width: 0.3; stroke-linecap: square"/>
     </g>
     <g id="line2d_116">
      <g>
       <use xlink:href="#m19bb43a3fc" x="39.30375" y="49.428" style="stroke: #000000; stroke-width: 0.6"/>
      </g>
     </g>
    </g>
    <g id="ytick_37">
     <g id="line2d_117">
      <path d="M 39.30375 42.39 
L 546.18375 42.39 
" clip-path="url(#p521fa8721e)" style="fill: none; stroke: #bbbbbb; stroke-opacity: 0.15; stroke-width: 0.3; stroke-linecap: square"/>
     </g>
     <g id="line2d_118">
      <g>
       <use xlink:href="#m19bb43a3fc" x="39.30375" y="42.39" style="stroke: #000000; stroke-width: 0.6"/>
      </g>
     </g>
    </g>
    <g id="ytick_38">
     <g id="line2d_119">
      <path d="M 39.30375 28.314 
L 546.18375 28.314 
" clip-path="url(#p521fa8721e)" style="fill: none; stroke: #bbbbbb; stroke-opacity: 0.15; stroke-width: 0.3; stroke-linecap: square"/>
     </g>
     <g id="line2d_120">
      <g>
       <use xlink:href="#m19bb43a3fc" x="39.30375" y="28.314" style="stroke: #000000; stroke-width: 0.6"/>
      </g>
     </g>
    </g>
    <g id="ytick_39">
     <g id="line2d_121">
      <path d="M 39.30375 21.276 
L 546.18375 21.276 
" clip-path="url(#p521fa8721e)" style="fill: none; stroke: #bbbbbb; stroke-opacity: 0.15; stroke-width: 0.3; stroke-linecap: square"/>
     </g>
     <g id="line2d_122">
      <g>
       <use xlink:href="#m19bb43a3fc" x="39.30375" y="21.276" style="stroke: #000000; stroke-width: 0.6"/>
      </g>
     </g>
    </g>
    <g id="ytick_40">
     <g id="line2d_123">
      <path d="M 39.30375 14.238 
L 546.18375 14.238 
" clip-path="url(#p521fa8721e)" style="fill: none; stroke: #bbbbbb; stroke-opacity: 0.15; stroke-width: 0.3; stroke-linecap: square"/>
     </g>
     <g id="line2d_124">
      <g>
       <use xlink:href="#m19bb43a3fc" x="39.30375" y="14.238" style="stroke: #000000; stroke-width: 0.6"/>
      </g>
     </g>
    </g>
    <g id="ytick_41">
     <g id="line2d_125">
      <path d="M 39.30375 7.2 
L 546.18375 7.2 
" clip-path="url(#p521fa8721e)" style="fill: none; stroke: #bbbbbb; stroke-opacity: 0.15; stroke-width: 0.3; stroke-linecap: square"/>
     </g>
     <g id="line2d_126">
      <g>
       <use xlink:href="#m19bb43a3fc" x="39.30375" y="7.2" style="stroke: #000000; stroke-width: 0.6"/>
      </g>
     </g>
    </g>
    <g id="text_16">
     <!-- absolute val MSE -->
     <g transform="translate(13.27875 182.148125) rotate(-90) scale(0.08 -0.08)">
      <defs>
       <path id="DejaVuSans-62" d="M 3116 1747 
Q 3116 2381 2855 2742 
Q 2594 3103 2138 3103 
Q 1681 3103 1420 2742 
Q 1159 2381 1159 1747 
Q 1159 1113 1420 752 
Q 1681 391 2138 391 
Q 2594 391 2855 752 
Q 3116 1113 3116 1747 
z
M 1159 2969 
Q 1341 3281 1617 3432 
Q 1894 3584 2278 3584 
Q 2916 3584 3314 3078 
Q 3713 2572 3713 1747 
Q 3713 922 3314 415 
Q 2916 -91 2278 -91 
Q 1894 -91 1617 61 
Q 1341 213 1159 525 
L 1159 0 
L 581 0 
L 581 4863 
L 1159 4863 
L 1159 2969 
z
" transform="scale(0.015625)"/>
       <path id="DejaVuSans-6f" d="M 1959 3097 
Q 1497 3097 1228 2736 
Q 959 2375 959 1747 
Q 959 1119 1226 758 
Q 1494 397 1959 397 
Q 2419 397 2687 759 
Q 2956 1122 2956 1747 
Q 2956 2369 2687 2733 
Q 2419 3097 1959 3097 
z
M 1959 3584 
Q 2709 3584 3137 3096 
Q 3566 2609 3566 1747 
Q 3566 888 3137 398 
Q 2709 -91 1959 -91 
Q 1206 -91 779 398 
Q 353 888 353 1747 
Q 353 2609 779 3096 
Q 1206 3584 1959 3584 
z
" transform="scale(0.015625)"/>
       <path id="DejaVuSans-6c" d="M 603 4863 
L 1178 4863 
L 1178 0 
L 603 0 
L 603 4863 
z
" transform="scale(0.015625)"/>
       <path id="DejaVuSans-75" d="M 544 1381 
L 544 3500 
L 1119 3500 
L 1119 1403 
Q 1119 906 1312 657 
Q 1506 409 1894 409 
Q 2359 409 2629 706 
Q 2900 1003 2900 1516 
L 2900 3500 
L 3475 3500 
L 3475 0 
L 2900 0 
L 2900 538 
Q 2691 219 2414 64 
Q 2138 -91 1772 -91 
Q 1169 -91 856 284 
Q 544 659 544 1381 
z
M 1991 3584 
L 1991 3584 
z
" transform="scale(0.015625)"/>
       <path id="DejaVuSans-76" d="M 191 3500 
L 800 3500 
L 1894 563 
L 2988 3500 
L 3597 3500 
L 2284 0 
L 1503 0 
L 191 3500 
z
" transform="scale(0.015625)"/>
       <path id="DejaVuSans-4d" d="M 628 4666 
L 1569 4666 
L 2759 1491 
L 3956 4666 
L 4897 4666 
L 4897 0 
L 4281 0 
L 4281 4097 
L 3078 897 
L 2444 897 
L 1241 4097 
L 1241 0 
L 628 0 
L 628 4666 
z
" transform="scale(0.015625)"/>
       <path id="DejaVuSans-53" d="M 3425 4513 
L 3425 3897 
Q 3066 4069 2747 4153 
Q 2428 4238 2131 4238 
Q 1616 4238 1336 4038 
Q 1056 3838 1056 3469 
Q 1056 3159 1242 3001 
Q 1428 2844 1947 2747 
L 2328 2669 
Q 3034 2534 3370 2195 
Q 3706 1856 3706 1288 
Q 3706 609 3251 259 
Q 2797 -91 1919 -91 
Q 1588 -91 1214 -16 
Q 841 59 441 206 
L 441 856 
Q 825 641 1194 531 
Q 1563 422 1919 422 
Q 2459 422 2753 634 
Q 3047 847 3047 1241 
Q 3047 1584 2836 1778 
Q 2625 1972 2144 2069 
L 1759 2144 
Q 1053 2284 737 2584 
Q 422 2884 422 3419 
Q 422 4038 858 4394 
Q 1294 4750 2059 4750 
Q 2388 4750 2728 4690 
Q 3069 4631 3425 4513 
z
" transform="scale(0.015625)"/>
       <path id="DejaVuSans-45" d="M 628 4666 
L 3578 4666 
L 3578 4134 
L 1259 4134 
L 1259 2753 
L 3481 2753 
L 3481 2222 
L 1259 2222 
L 1259 531 
L 3634 531 
L 3634 0 
L 628 0 
L 628 4666 
z
" transform="scale(0.015625)"/>
      </defs>
      <use xlink:href="#DejaVuSans-61"/>
      <use xlink:href="#DejaVuSans-62" transform="translate(61.279297 0)"/>
      <use xlink:href="#DejaVuSans-73" transform="translate(124.755859 0)"/>
      <use xlink:href="#DejaVuSans-6f" transform="translate(176.855469 0)"/>
      <use xlink:href="#DejaVuSans-6c" transform="translate(238.037109 0)"/>
      <use xlink:href="#DejaVuSans-75" transform="translate(265.820312 0)"/>
      <use xlink:href="#DejaVuSans-74" transform="translate(329.199219 0)"/>
      <use xlink:href="#DejaVuSans-65" transform="translate(368.408203 0)"/>
      <use xlink:href="#DejaVuSans-20" transform="translate(429.931641 0)"/>
      <use xlink:href="#DejaVuSans-76" transform="translate(461.71875 0)"/>
      <use xlink:href="#DejaVuSans-61" transform="translate(520.898438 0)"/>
      <use xlink:href="#DejaVuSans-6c" transform="translate(582.177734 0)"/>
      <use xlink:href="#DejaVuSans-20" transform="translate(609.960938 0)"/>
      <use xlink:href="#DejaVuSans-4d" transform="translate(641.748047 0)"/>
      <use xlink:href="#DejaVuSans-53" transform="translate(728.027344 0)"/>
      <use xlink:href="#DejaVuSans-45" transform="translate(791.503906 0)"/>
     </g>
    </g>
   </g>
   <g id="line2d_127">
    <path d="M 62.34375 78.756648 
L 66.495101 78.772597 
L 70.646453 78.790584 
L 74.797804 78.91417 
L 78.949155 79.365631 
L 83.100507 80.532673 
L 87.251858 82.512843 
L 91.403209 85.167598 
L 95.554561 88.609918 
L 99.705912 92.974653 
L 103.857264 98.229051 
L 108.008615 104.533138 
L 112.159966 111.945289 
L 116.311318 120.216291 
L 120.462669 128.949487 
L 124.61402 138.047873 
L 128.765372 147.482969 
L 132.916723 157.552494 
L 137.068074 168.96737 
L 141.219426 182.947386 
L 145.370777 199.895007 
L 149.522128 216.985301 
L 153.67348 229.673547 
L 157.824831 235.199104 
L 161.976182 237.443994 
L 166.127534 239.4019 
L 170.278885 241.35145 
L 174.430236 243.269779 
L 178.581588 244.96265 
L 182.732939 246.309873 
L 186.884291 247.364907 
L 191.035642 248.02338 
L 195.186993 248.347043 
L 199.338345 248.557675 
L 203.489696 248.658867 
L 207.641047 248.718035 
L 211.792399 248.721758 
L 215.94375 248.727513 
L 220.095101 248.718726 
L 224.246453 248.684203 
L 228.397804 248.701926 
L 232.549155 248.735846 
L 236.700507 248.725182 
L 240.851858 248.739282 
L 245.003209 248.724061 
L 249.154561 248.738761 
L 253.305912 248.735641 
L 257.457264 248.727558 
L 261.608615 248.734118 
L 265.759966 248.740397 
L 269.911318 248.741632 
L 274.062669 248.715326 
L 278.21402 248.725759 
L 282.365372 248.71867 
L 286.516723 248.739289 
L 290.668074 248.714196 
L 294.819426 248.725296 
L 298.970777 248.722547 
L 303.122128 248.727619 
L 307.27348 248.746299 
L 311.424831 248.731956 
L 315.576182 248.737731 
L 319.727534 248.739507 
L 323.878885 248.741529 
L 328.030236 248.729277 
L 332.181588 248.73829 
L 336.332939 248.729384 
L 340.484291 248.740101 
L 344.635642 248.73304 
L 348.786993 248.742863 
L 352.938345 248.746795 
L 357.089696 248.744234 
L 361.241047 248.744837 
L 365.392399 248.741335 
L 369.54375 248.744682 
L 373.695101 248.729076 
L 377.846453 248.737749 
L 381.997804 248.743054 
L 386.149155 248.750749 
L 390.300507 248.73897 
L 394.451858 248.752896 
L 398.603209 248.741966 
L 402.754561 248.750415 
L 406.905912 248.746238 
L 411.057264 248.749501 
L 415.208615 248.743472 
L 419.359966 248.73912 
L 423.511318 248.75027 
L 427.662669 248.750256 
L 431.81402 248.746043 
L 435.965372 248.752516 
L 440.116723 248.747095 
L 444.268074 248.751535 
L 448.419426 248.750694 
L 452.570777 248.751456 
L 456.722128 248.751412 
L 460.87348 248.751041 
L 465.024831 248.75125 
L 469.176182 248.751987 
L 473.327534 248.75281 
L 477.478885 248.751319 
L 481.630236 248.754595 
L 485.781588 248.754542 
L 489.932939 248.755543 
L 494.084291 248.752745 
L 498.235642 248.751433 
L 502.386993 248.753833 
L 506.538345 248.753176 
L 510.689696 248.753267 
L 514.841047 248.750988 
L 518.992399 248.754464 
L 523.14375 248.75213 
" clip-path="url(#p521fa8721e)" style="fill: none; stroke: #08306b; stroke-opacity: 0.85; stroke-width: 1.5; stroke-linecap: square"/>
   </g>
   <g id="line2d_128">
    <path d="M 127.754102 -1 
L 128.765372 29.376182 
L 132.916723 106.063484 
L 137.068074 153.497933 
L 141.219426 173.567817 
L 145.370777 183.140663 
L 149.522128 189.596469 
L 153.67348 197.279569 
L 157.824831 203.749352 
L 161.976182 210.478173 
L 166.127534 217.110302 
L 170.278885 223.272388 
L 174.430236 228.740089 
L 178.581588 233.692716 
L 182.732939 238.238992 
L 186.884291 242.298651 
L 191.035642 245.903766 
L 195.186993 249.327546 
L 199.338345 252.395801 
L 203.489696 254.986733 
L 207.641047 257.076023 
L 211.792399 258.651901 
L 215.94375 259.696096 
L 220.095101 260.311052 
L 224.246453 260.602097 
L 228.397804 260.726182 
L 232.549155 260.758752 
L 236.700507 260.768615 
L 240.851858 260.767787 
L 245.003209 260.7531 
L 249.154561 260.767899 
L 253.305912 260.751581 
L 257.457264 260.74394 
L 261.608615 260.761422 
L 265.759966 260.759416 
L 269.911318 260.766471 
L 274.062669 260.746576 
L 278.21402 260.738101 
L 282.365372 260.727458 
L 286.516723 260.770373 
L 290.668074 260.751883 
L 294.819426 260.76482 
L 298.970777 260.760879 
L 303.122128 260.752578 
L 307.27348 260.758559 
L 311.424831 260.752809 
L 315.576182 260.765778 
L 319.727534 260.770991 
L 323.878885 260.749596 
L 328.030236 260.764138 
L 332.181588 260.752723 
L 336.332939 260.75759 
L 340.484291 260.77222 
L 344.635642 260.753701 
L 348.786993 260.756989 
L 352.938345 260.760176 
L 357.089696 260.764831 
L 361.241047 260.765132 
L 365.392399 260.754776 
L 369.54375 260.769657 
L 373.695101 260.762045 
L 377.846453 260.768961 
L 381.997804 260.768155 
L 386.149155 260.773424 
L 390.300507 260.770561 
L 394.451858 260.772006 
L 398.603209 260.768751 
L 402.754561 260.773227 
L 406.905912 260.765509 
L 411.057264 260.772978 
L 415.208615 260.768687 
L 419.359966 260.77128 
L 423.511318 260.771334 
L 427.662669 260.771818 
L 431.81402 260.768925 
L 435.965372 260.772126 
L 440.116723 260.771692 
L 444.268074 260.769087 
L 448.419426 260.769907 
L 452.570777 260.77466 
L 456.722128 260.772474 
L 460.87348 260.769961 
L 465.024831 260.775369 
L 469.176182 260.776058 
L 473.327534 260.772523 
L 477.478885 260.771034 
L 481.630236 260.774504 
L 485.781588 260.774389 
L 489.932939 260.774819 
L 494.084291 260.773642 
L 498.235642 260.774346 
L 502.386993 260.77333 
L 506.538345 260.773284 
L 510.689696 260.773327 
L 514.841047 260.772794 
L 518.992399 260.773643 
L 523.14375 260.774773 
" clip-path="url(#p521fa8721e)" style="fill: none; stroke: #56b4e9; stroke-opacity: 0.85; stroke-width: 1.5; stroke-linecap: square"/>
   </g>
   <g id="line2d_129">
    <path d="M 62.34375 234.455523 
L 66.495101 234.481859 
L 70.646453 234.520656 
L 74.797804 234.69745 
L 78.949155 235.095783 
L 83.100507 235.871286 
L 87.251858 237.095981 
L 91.403209 238.900457 
L 95.554561 241.425437 
L 99.705912 244.997897 
L 103.857264 249.828097 
L 108.008615 255.882467 
L 112.159966 262.51281 
L 116.311318 268.579635 
L 120.462669 272.798942 
L 124.61402 274.806708 
L 128.765372 275.40429 
L 132.916723 275.527456 
L 137.068074 275.548542 
L 141.219426 275.552221 
L 145.370777 275.574486 
L 149.522128 275.563994 
L 153.67348 275.541507 
L 157.824831 275.5725 
L 161.976182 275.553918 
L 166.127534 275.523698 
L 170.278885 275.507853 
L 174.430236 275.588817 
L 178.581588 275.587077 
L 182.732939 275.580216 
L 186.884291 275.563641 
L 191.035642 275.561461 
L 195.186993 275.561315 
L 199.338345 275.517653 
L 203.489696 275.5847 
L 207.641047 275.582485 
L 211.792399 275.569703 
L 215.94375 275.569688 
L 220.095101 275.582872 
L 224.246453 275.555909 
L 228.397804 275.577679 
L 232.549155 275.549644 
L 236.700507 275.580369 
L 240.851858 275.585969 
L 245.003209 275.581613 
L 249.154561 275.564156 
L 253.305912 275.578106 
L 257.457264 275.588913 
L 261.608615 275.576165 
L 265.759966 275.583786 
L 269.911318 275.583264 
L 274.062669 275.579179 
L 278.21402 275.574889 
L 282.365372 275.584911 
L 286.516723 275.584307 
L 290.668074 275.558117 
L 294.819426 275.584929 
L 298.970777 275.58671 
L 303.122128 275.588786 
L 307.27348 275.581423 
L 311.424831 275.587331 
L 315.576182 275.550191 
L 319.727534 275.590929 
L 323.878885 275.597438 
L 328.030236 275.596153 
L 332.181588 275.597145 
L 336.332939 275.592079 
L 340.484291 275.595198 
L 344.635642 275.584388 
L 348.786993 275.586851 
L 352.938345 275.560795 
L 357.089696 275.589924 
L 361.241047 275.588419 
L 365.392399 275.560874 
L 369.54375 275.593371 
L 373.695101 275.591128 
L 377.846453 275.587844 
L 381.997804 275.594971 
L 386.149155 275.587557 
L 390.300507 275.593893 
L 394.451858 275.597446 
L 398.603209 275.592683 
L 402.754561 275.593742 
L 406.905912 275.599376 
L 411.057264 275.592344 
L 415.208615 275.598457 
L 419.359966 275.594327 
L 423.511318 275.59165 
L 427.662669 275.598972 
L 431.81402 275.595792 
L 435.965372 275.593706 
L 440.116723 275.596797 
L 444.268074 275.594425 
L 448.419426 275.599545 
L 452.570777 275.585041 
L 456.722128 275.591313 
L 460.87348 275.597796 
L 465.024831 275.593054 
L 469.176182 275.597761 
L 473.327534 275.598235 
L 477.478885 275.597113 
L 481.630236 275.59295 
L 485.781588 275.598392 
L 489.932939 275.597469 
L 494.084291 275.598497 
L 498.235642 275.592823 
L 502.386993 275.597311 
L 506.538345 275.595884 
L 510.689696 275.595855 
L 514.841047 275.597557 
L 518.992399 275.591516 
L 523.14375 275.598309 
" clip-path="url(#p521fa8721e)" style="fill: none; stroke: #d55e00; stroke-opacity: 0.85; stroke-width: 1.5; stroke-linecap: square"/>
   </g>
   <g id="line2d_130">
    <path d="M 140.220272 -1 
L 141.219426 48.370808 
L 145.370777 171.845061 
L 149.522128 250.086792 
L 153.67348 258.213143 
L 157.824831 269.916189 
L 161.976182 273.914845 
L 166.127534 275.228335 
L 170.278885 275.369666 
L 174.430236 275.532563 
L 178.581588 275.583639 
L 182.732939 275.555032 
L 186.884291 275.582045 
L 191.035642 275.52617 
L 195.186993 275.581511 
L 199.338345 275.571982 
L 203.489696 275.595982 
L 207.641047 275.586182 
L 211.792399 275.576519 
L 215.94375 275.573599 
L 220.095101 275.577408 
L 224.246453 275.583172 
L 228.397804 275.592583 
L 232.549155 275.593918 
L 236.700507 275.583214 
L 240.851858 275.593041 
L 245.003209 275.593222 
L 249.154561 275.571673 
L 253.305912 275.57747 
L 257.457264 275.590059 
L 261.608615 275.581754 
L 265.759966 275.577724 
L 269.911318 275.586309 
L 274.062669 275.590959 
L 278.21402 275.590031 
L 282.365372 275.588311 
L 286.516723 275.583765 
L 290.668074 275.572183 
L 294.819426 275.590627 
L 298.970777 275.572698 
L 303.122128 275.579997 
L 307.27348 275.585269 
L 311.424831 275.595117 
L 315.576182 275.557328 
L 319.727534 275.589845 
L 323.878885 275.593462 
L 328.030236 275.593212 
L 332.181588 275.597627 
L 336.332939 275.591068 
L 340.484291 275.595961 
L 344.635642 275.570845 
L 348.786993 275.587715 
L 352.938345 275.572107 
L 357.089696 275.590375 
L 361.241047 275.589875 
L 365.392399 275.549511 
L 369.54375 275.592478 
L 373.695101 275.588865 
L 377.846453 275.590517 
L 381.997804 275.596204 
L 386.149155 275.587776 
L 390.300507 275.595859 
L 394.451858 275.596384 
L 398.603209 275.59196 
L 402.754561 275.591512 
L 406.905912 275.599463 
L 411.057264 275.594443 
L 415.208615 275.597923 
L 419.359966 275.594847 
L 423.511318 275.593126 
L 427.662669 275.598338 
L 431.81402 275.596662 
L 435.965372 275.592747 
L 440.116723 275.598549 
L 444.268074 275.594177 
L 448.419426 275.59886 
L 452.570777 275.58572 
L 456.722128 275.593126 
L 460.87348 275.597848 
L 465.024831 275.592576 
L 469.176182 275.598072 
L 473.327534 275.597747 
L 477.478885 275.596676 
L 481.630236 275.593781 
L 485.781588 275.597568 
L 489.932939 275.597621 
L 494.084291 275.598659 
L 498.235642 275.592981 
L 502.386993 275.597525 
L 506.538345 275.596159 
L 510.689696 275.596875 
L 514.841047 275.59771 
L 518.992399 275.59214 
L 523.14375 275.598163 
" clip-path="url(#p521fa8721e)" style="fill: none; stroke: #000000; stroke-opacity: 0.85; stroke-width: 1.5; stroke-linecap: square"/>
   </g>
   <g id="patch_3">
    <path d="M 39.30375 288.72 
L 39.30375 7.2 
" style="fill: none; stroke: #000000; stroke-width: 0.8; stroke-linejoin: miter; stroke-linecap: square"/>
   </g>
   <g id="patch_4">
    <path d="M 39.30375 288.72 
L 546.18375 288.72 
" style="fill: none; stroke: #000000; stroke-width: 0.8; stroke-linejoin: miter; stroke-linecap: square"/>
   </g>
   <g id="line2d_131">
    <path d="M 70.646453 78.790584 
L 99.705912 92.974653 
L 128.765372 147.482969 
L 157.824831 235.199104 
L 186.884291 247.364907 
L 215.94375 248.727513 
L 245.003209 248.724061 
L 274.062669 248.715326 
L 303.122128 248.727619 
L 332.181588 248.73829 
L 361.241047 248.744837 
L 390.300507 248.73897 
L 419.359966 248.73912 
L 448.419426 248.750694 
L 523.14375 248.75213 
" clip-path="url(#p521fa8721e)" style="fill: none"/>
    <defs>
     <path id="mc180dd79cd" d="M 0 2.5 
C 0.663008 2.5 1.29895 2.236584 1.767767 1.767767 
C 2.236584 1.29895 2.5 0.663008 2.5 0 
C 2.5 -0.663008 2.236584 -1.29895 1.767767 -1.767767 
C 1.29895 -2.236584 0.663008 -2.5 0 -2.5 
C -0.663008 -2.5 -1.29895 -2.236584 -1.767767 -1.767767 
C -2.236584 -1.29895 -2.5 -0.663008 -2.5 0 
C -2.5 0.663008 -2.236584 1.29895 -1.767767 1.767767 
C -1.29895 2.236584 -0.663008 2.5 0 2.5 
z
" style="stroke: #08306b"/>
    </defs>
    <g clip-path="url(#p521fa8721e)">
     <use xlink:href="#mc180dd79cd" x="70.646453" y="78.790584" style="fill: #08306b; stroke: #08306b"/>
     <use xlink:href="#mc180dd79cd" x="99.705912" y="92.974653" style="fill: #08306b; stroke: #08306b"/>
     <use xlink:href="#mc180dd79cd" x="128.765372" y="147.482969" style="fill: #08306b; stroke: #08306b"/>
     <use xlink:href="#mc180dd79cd" x="157.824831" y="235.199104" style="fill: #08306b; stroke: #08306b"/>
     <use xlink:href="#mc180dd79cd" x="186.884291" y="247.364907" style="fill: #08306b; stroke: #08306b"/>
     <use xlink:href="#mc180dd79cd" x="215.94375" y="248.727513" style="fill: #08306b; stroke: #08306b"/>
     <use xlink:href="#mc180dd79cd" x="245.003209" y="248.724061" style="fill: #08306b; stroke: #08306b"/>
     <use xlink:href="#mc180dd79cd" x="274.062669" y="248.715326" style="fill: #08306b; stroke: #08306b"/>
     <use xlink:href="#mc180dd79cd" x="303.122128" y="248.727619" style="fill: #08306b; stroke: #08306b"/>
     <use xlink:href="#mc180dd79cd" x="332.181588" y="248.73829" style="fill: #08306b; stroke: #08306b"/>
     <use xlink:href="#mc180dd79cd" x="361.241047" y="248.744837" style="fill: #08306b; stroke: #08306b"/>
     <use xlink:href="#mc180dd79cd" x="390.300507" y="248.73897" style="fill: #08306b; stroke: #08306b"/>
     <use xlink:href="#mc180dd79cd" x="419.359966" y="248.73912" style="fill: #08306b; stroke: #08306b"/>
     <use xlink:href="#mc180dd79cd" x="448.419426" y="248.750694" style="fill: #08306b; stroke: #08306b"/>
     <use xlink:href="#mc180dd79cd" x="523.14375" y="248.75213" style="fill: #08306b; stroke: #08306b"/>
    </g>
   </g>
   <g id="line2d_132">
    <path d="M 145.104661 -1 
L 153.67348 197.279569 
L 191.035642 245.903766 
L 228.397804 260.726182 
L 265.759966 260.759416 
L 303.122128 260.752578 
L 340.484291 260.77222 
L 377.846453 260.768961 
L 415.208615 260.768687 
L 452.570777 260.77466 
L 489.932939 260.774819 
L 523.14375 260.774773 
" clip-path="url(#p521fa8721e)" style="fill: none"/>
    <defs>
     <path id="mfa6f5aa760" d="M -1.25 2.5 
L 0 1.25 
L 1.25 2.5 
L 2.5 1.25 
L 1.25 0 
L 2.5 -1.25 
L 1.25 -2.5 
L 0 -1.25 
L -1.25 -2.5 
L -2.5 -1.25 
L -1.25 0 
L -2.5 1.25 
z
" style="stroke: #56b4e9; stroke-linejoin: miter"/>
    </defs>
    <g clip-path="url(#p521fa8721e)">
     <use xlink:href="#mfa6f5aa760" x="145.104661" y="-1" style="fill: #56b4e9; stroke: #56b4e9; stroke-linejoin: miter"/>
     <use xlink:href="#mfa6f5aa760" x="153.67348" y="197.279569" style="fill: #56b4e9; stroke: #56b4e9; stroke-linejoin: miter"/>
     <use xlink:href="#mfa6f5aa760" x="191.035642" y="245.903766" style="fill: #56b4e9; stroke: #56b4e9; stroke-linejoin: miter"/>
     <use xlink:href="#mfa6f5aa760" x="228.397804" y="260.726182" style="fill: #56b4e9; stroke: #56b4e9; stroke-linejoin: miter"/>
     <use xlink:href="#mfa6f5aa760" x="265.759966" y="260.759416" style="fill: #56b4e9; stroke: #56b4e9; stroke-linejoin: miter"/>
     <use xlink:href="#mfa6f5aa760" x="303.122128" y="260.752578" style="fill: #56b4e9; stroke: #56b4e9; stroke-linejoin: miter"/>
     <use xlink:href="#mfa6f5aa760" x="340.484291" y="260.77222" style="fill: #56b4e9; stroke: #56b4e9; stroke-linejoin: miter"/>
     <use xlink:href="#mfa6f5aa760" x="377.846453" y="260.768961" style="fill: #56b4e9; stroke: #56b4e9; stroke-linejoin: miter"/>
     <use xlink:href="#mfa6f5aa760" x="415.208615" y="260.768687" style="fill: #56b4e9; stroke: #56b4e9; stroke-linejoin: miter"/>
     <use xlink:href="#mfa6f5aa760" x="452.570777" y="260.77466" style="fill: #56b4e9; stroke: #56b4e9; stroke-linejoin: miter"/>
     <use xlink:href="#mfa6f5aa760" x="489.932939" y="260.774819" style="fill: #56b4e9; stroke: #56b4e9; stroke-linejoin: miter"/>
     <use xlink:href="#mfa6f5aa760" x="523.14375" y="260.774773" style="fill: #56b4e9; stroke: #56b4e9; stroke-linejoin: miter"/>
    </g>
   </g>
   <g id="line2d_133">
    <path d="M 87.251858 237.095981 
L 132.916723 275.527456 
L 178.581588 275.587077 
L 224.246453 275.555909 
L 269.911318 275.583264 
L 315.576182 275.550191 
L 361.241047 275.588419 
L 406.905912 275.599376 
L 452.570777 275.585041 
L 498.235642 275.592823 
L 523.14375 275.598309 
" clip-path="url(#p521fa8721e)" style="fill: none"/>
    <defs>
     <path id="m1aab41ab3a" d="M -2.5 2.5 
L 2.5 2.5 
L 2.5 -2.5 
L -2.5 -2.5 
z
" style="stroke: #d55e00; stroke-linejoin: miter"/>
    </defs>
    <g clip-path="url(#p521fa8721e)">
     <use xlink:href="#m1aab41ab3a" x="87.251858" y="237.095981" style="fill: #d55e00; stroke: #d55e00; stroke-linejoin: miter"/>
     <use xlink:href="#m1aab41ab3a" x="132.916723" y="275.527456" style="fill: #d55e00; stroke: #d55e00; stroke-linejoin: miter"/>
     <use xlink:href="#m1aab41ab3a" x="178.581588" y="275.587077" style="fill: #d55e00; stroke: #d55e00; stroke-linejoin: miter"/>
     <use xlink:href="#m1aab41ab3a" x="224.246453" y="275.555909" style="fill: #d55e00; stroke: #d55e00; stroke-linejoin: miter"/>
     <use xlink:href="#m1aab41ab3a" x="269.911318" y="275.583264" style="fill: #d55e00; stroke: #d55e00; stroke-linejoin: miter"/>
     <use xlink:href="#m1aab41ab3a" x="315.576182" y="275.550191" style="fill: #d55e00; stroke: #d55e00; stroke-linejoin: miter"/>
     <use xlink:href="#m1aab41ab3a" x="361.241047" y="275.588419" style="fill: #d55e00; stroke: #d55e00; stroke-linejoin: miter"/>
     <use xlink:href="#m1aab41ab3a" x="406.905912" y="275.599376" style="fill: #d55e00; stroke: #d55e00; stroke-linejoin: miter"/>
     <use xlink:href="#m1aab41ab3a" x="452.570777" y="275.585041" style="fill: #d55e00; stroke: #d55e00; stroke-linejoin: miter"/>
     <use xlink:href="#m1aab41ab3a" x="498.235642" y="275.592823" style="fill: #d55e00; stroke: #d55e00; stroke-linejoin: miter"/>
     <use xlink:href="#m1aab41ab3a" x="523.14375" y="275.598309" style="fill: #d55e00; stroke: #d55e00; stroke-linejoin: miter"/>
    </g>
   </g>
   <g id="line2d_134">
    <path d="M 148.476719 -1 
L 149.522128 250.086792 
L 203.489696 275.595982 
L 257.457264 275.590059 
L 311.424831 275.595117 
L 365.392399 275.549511 
L 419.359966 275.594847 
L 473.327534 275.597747 
L 523.14375 275.598163 
" clip-path="url(#p521fa8721e)" style="fill: none"/>
    <defs>
     <path id="mffd2a544e5" d="M -0 3.535534 
L 3.535534 0 
L 0 -3.535534 
L -3.535534 -0 
z
" style="stroke: #000000; stroke-linejoin: miter"/>
    </defs>
    <g clip-path="url(#p521fa8721e)">
     <use xlink:href="#mffd2a544e5" x="148.476719" y="-1" style="stroke: #000000; stroke-linejoin: miter"/>
     <use xlink:href="#mffd2a544e5" x="149.522128" y="250.086792" style="stroke: #000000; stroke-linejoin: miter"/>
     <use xlink:href="#mffd2a544e5" x="203.489696" y="275.595982" style="stroke: #000000; stroke-linejoin: miter"/>
     <use xlink:href="#mffd2a544e5" x="257.457264" y="275.590059" style="stroke: #000000; stroke-linejoin: miter"/>
     <use xlink:href="#mffd2a544e5" x="311.424831" y="275.595117" style="stroke: #000000; stroke-linejoin: miter"/>
     <use xlink:href="#mffd2a544e5" x="365.392399" y="275.549511" style="stroke: #000000; stroke-linejoin: miter"/>
     <use xlink:href="#mffd2a544e5" x="419.359966" y="275.594847" style="stroke: #000000; stroke-linejoin: miter"/>
     <use xlink:href="#mffd2a544e5" x="473.327534" y="275.597747" style="stroke: #000000; stroke-linejoin: miter"/>
     <use xlink:href="#mffd2a544e5" x="523.14375" y="275.598163" style="stroke: #000000; stroke-linejoin: miter"/>
    </g>
   </g>
   <g id="legend_1">
    <g id="patch_5">
     <path d="M 303.21375 54.59 
L 541.28375 54.59 
Q 542.68375 54.59 542.68375 53.19 
L 542.68375 12.1 
Q 542.68375 10.7 541.28375 10.7 
L 303.21375 10.7 
Q 301.81375 10.7 301.81375 12.1 
L 301.81375 53.19 
Q 301.81375 54.59 303.21375 54.59 
z
" style="fill: #ffffff; opacity: 0.85; stroke: #cccccc; stroke-linejoin: miter"/>
    </g>
    <g id="line2d_135">
     <path d="M 304.61375 16.37 
L 313.01375 16.37 
L 321.41375 16.37 
" style="fill: none"/>
     <g>
      <use xlink:href="#mc180dd79cd" x="313.01375" y="16.37" style="fill: #08306b; stroke: #08306b"/>
     </g>
    </g>
    <g id="text_17">
     <!-- qft (analytic init)  (269$\rightarrow$148.4) -->
     <g transform="translate(327.01375 18.82) scale(0.07 -0.07)">
      <defs>
       <path id="DejaVuSans-71" d="M 947 1747 
Q 947 1113 1208 752 
Q 1469 391 1925 391 
Q 2381 391 2643 752 
Q 2906 1113 2906 1747 
Q 2906 2381 2643 2742 
Q 2381 3103 1925 3103 
Q 1469 3103 1208 2742 
Q 947 2381 947 1747 
z
M 2906 525 
Q 2725 213 2448 61 
Q 2172 -91 1784 -91 
Q 1150 -91 751 415 
Q 353 922 353 1747 
Q 353 2572 751 3078 
Q 1150 3584 1784 3584 
Q 2172 3584 2448 3432 
Q 2725 3281 2906 2969 
L 2906 3500 
L 3481 3500 
L 3481 -1331 
L 2906 -1331 
L 2906 525 
z
" transform="scale(0.015625)"/>
       <path id="DejaVuSans-66" d="M 2375 4863 
L 2375 4384 
L 1825 4384 
Q 1516 4384 1395 4259 
Q 1275 4134 1275 3809 
L 1275 3500 
L 2222 3500 
L 2222 3053 
L 1275 3053 
L 1275 0 
L 697 0 
L 697 3053 
L 147 3053 
L 147 3500 
L 697 3500 
L 697 3744 
Q 697 4328 969 4595 
Q 1241 4863 1831 4863 
L 2375 4863 
z
" transform="scale(0.015625)"/>
       <path id="DejaVuSans-28" d="M 1984 4856 
Q 1566 4138 1362 3434 
Q 1159 2731 1159 2009 
Q 1159 1288 1364 580 
Q 1569 -128 1984 -844 
L 1484 -844 
Q 1016 -109 783 600 
Q 550 1309 550 2009 
Q 550 2706 781 3412 
Q 1013 4119 1484 4856 
L 1984 4856 
z
" transform="scale(0.015625)"/>
       <path id="DejaVuSans-79" d="M 2059 -325 
Q 1816 -950 1584 -1140 
Q 1353 -1331 966 -1331 
L 506 -1331 
L 506 -850 
L 844 -850 
Q 1081 -850 1212 -737 
Q 1344 -625 1503 -206 
L 1606 56 
L 191 3500 
L 800 3500 
L 1894 763 
L 2988 3500 
L 3597 3500 
L 2059 -325 
z
" transform="scale(0.015625)"/>
       <path id="DejaVuSans-63" d="M 3122 3366 
L 3122 2828 
Q 2878 2963 2633 3030 
Q 2388 3097 2138 3097 
Q 1578 3097 1268 2742 
Q 959 2388 959 1747 
Q 959 1106 1268 751 
Q 1578 397 2138 397 
Q 2388 397 2633 464 
Q 2878 531 3122 666 
L 3122 134 
Q 2881 22 2623 -34 
Q 2366 -91 2075 -91 
Q 1284 -91 818 406 
Q 353 903 353 1747 
Q 353 2603 823 3093 
Q 1294 3584 2113 3584 
Q 2378 3584 2631 3529 
Q 2884 3475 3122 3366 
z
" transform="scale(0.015625)"/>
       <path id="DejaVuSans-29" d="M 513 4856 
L 1013 4856 
Q 1481 4119 1714 3412 
Q 1947 2706 1947 2009 
Q 1947 1309 1714 600 
Q 1481 -109 1013 -844 
L 513 -844 
Q 928 -128 1133 580 
Q 1338 1288 1338 2009 
Q 1338 2731 1133 3434 
Q 928 4138 513 4856 
z
" transform="scale(0.015625)"/>
       <path id="DejaVuSans-39" d="M 703 97 
L 703 672 
Q 941 559 1184 500 
Q 1428 441 1663 441 
Q 2288 441 2617 861 
Q 2947 1281 2994 2138 
Q 2813 1869 2534 1725 
Q 2256 1581 1919 1581 
Q 1219 1581 811 2004 
Q 403 2428 403 3163 
Q 403 3881 828 4315 
Q 1253 4750 1959 4750 
Q 2769 4750 3195 4129 
Q 3622 3509 3622 2328 
Q 3622 1225 3098 567 
Q 2575 -91 1691 -91 
Q 1453 -91 1209 -44 
Q 966 3 703 97 
z
M 1959 2075 
Q 2384 2075 2632 2365 
Q 2881 2656 2881 3163 
Q 2881 3666 2632 3958 
Q 2384 4250 1959 4250 
Q 1534 4250 1286 3958 
Q 1038 3666 1038 3163 
Q 1038 2656 1286 2365 
Q 1534 2075 1959 2075 
z
" transform="scale(0.015625)"/>
       <path id="DejaVuSans-2192" d="M 5050 2147 
L 5050 1866 
L 3822 638 
L 3447 1013 
L 4175 1741 
L 366 1741 
L 366 2272 
L 4175 2272 
L 3447 3000 
L 3822 3375 
L 5050 2147 
z
" transform="scale(0.015625)"/>
       <path id="DejaVuSans-2e" d="M 684 794 
L 1344 794 
L 1344 0 
L 684 0 
L 684 794 
z
" transform="scale(0.015625)"/>
      </defs>
      <use xlink:href="#DejaVuSans-71" transform="translate(0 0.015625)"/>
      <use xlink:href="#DejaVuSans-66" transform="translate(63.476562 0.015625)"/>
      <use xlink:href="#DejaVuSans-74" transform="translate(98.681641 0.015625)"/>
      <use xlink:href="#DejaVuSans-20" transform="translate(137.890625 0.015625)"/>
      <use xlink:href="#DejaVuSans-28" transform="translate(169.677734 0.015625)"/>
      <use xlink:href="#DejaVuSans-61" transform="translate(208.691406 0.015625)"/>
      <use xlink:href="#DejaVuSans-6e" transform="translate(269.970703 0.015625)"/>
      <use xlink:href="#DejaVuSans-61" transform="translate(333.349609 0.015625)"/>
      <use xlink:href="#DejaVuSans-6c" transform="translate(394.628906 0.015625)"/>
      <use xlink:href="#DejaVuSans-79" transform="translate(422.412109 0.015625)"/>
      <use xlink:href="#DejaVuSans-74" transform="translate(481.591797 0.015625)"/>
      <use xlink:href="#DejaVuSans-69" transform="translate(520.800781 0.015625)"/>
      <use xlink:href="#DejaVuSans-63" transform="translate(548.583984 0.015625)"/>
      <use xlink:href="#DejaVuSans-20" transform="translate(603.564453 0.015625)"/>
      <use xlink:href="#DejaVuSans-69" transform="translate(635.351562 0.015625)"/>
      <use xlink:href="#DejaVuSans-6e" transform="translate(663.134766 0.015625)"/>
      <use xlink:href="#DejaVuSans-69" transform="translate(726.513672 0.015625)"/>
      <use xlink:href="#DejaVuSans-74" transform="translate(754.296875 0.015625)"/>
      <use xlink:href="#DejaVuSans-29" transform="translate(793.505859 0.015625)"/>
      <use xlink:href="#DejaVuSans-20" transform="translate(832.519531 0.015625)"/>
      <use xlink:href="#DejaVuSans-20" transform="translate(864.306641 0.015625)"/>
      <use xlink:href="#DejaVuSans-28" transform="translate(896.09375 0.015625)"/>
      <use xlink:href="#DejaVuSans-32" transform="translate(935.107422 0.015625)"/>
      <use xlink:href="#DejaVuSans-36" transform="translate(998.730469 0.015625)"/>
      <use xlink:href="#DejaVuSans-39" transform="translate(1062.353516 0.015625)"/>
      <use xlink:href="#DejaVuSans-2192" transform="translate(1145.458984 0.015625)"/>
      <use xlink:href="#DejaVuSans-31" transform="translate(1248.730469 0.015625)"/>
      <use xlink:href="#DejaVuSans-34" transform="translate(1312.353516 0.015625)"/>
      <use xlink:href="#DejaVuSans-38" transform="translate(1375.976562 0.015625)"/>
      <use xlink:href="#DejaVuSans-2e" transform="translate(1439.599609 0.015625)"/>
      <use xlink:href="#DejaVuSans-34" transform="translate(1471.386719 0.015625)"/>
      <use xlink:href="#DejaVuSans-29" transform="translate(1535.009766 0.015625)"/>
     </g>
    </g>
    <g id="line2d_136">
     <path d="M 304.61375 26.66 
L 313.01375 26.66 
L 321.41375 26.66 
" style="fill: none"/>
     <g>
      <use xlink:href="#mfa6f5aa760" x="313.01375" y="26.66" style="fill: #56b4e9; stroke: #56b4e9; stroke-linejoin: miter"/>
     </g>
    </g>
    <g id="text_18">
     <!-- qft_identity (identity init)  (13450$\rightarrow$139.9) -->
     <g transform="translate(327.01375 29.11) scale(0.07 -0.07)">
      <defs>
       <path id="DejaVuSans-5f" d="M 3263 -1063 
L 3263 -1509 
L -63 -1509 
L -63 -1063 
L 3263 -1063 
z
" transform="scale(0.015625)"/>
       <path id="DejaVuSans-64" d="M 2906 2969 
L 2906 4863 
L 3481 4863 
L 3481 0 
L 2906 0 
L 2906 525 
Q 2725 213 2448 61 
Q 2172 -91 1784 -91 
Q 1150 -91 751 415 
Q 353 922 353 1747 
Q 353 2572 751 3078 
Q 1150 3584 1784 3584 
Q 2172 3584 2448 3432 
Q 2725 3281 2906 2969 
z
M 947 1747 
Q 947 1113 1208 752 
Q 1469 391 1925 391 
Q 2381 391 2643 752 
Q 2906 1113 2906 1747 
Q 2906 2381 2643 2742 
Q 2381 3103 1925 3103 
Q 1469 3103 1208 2742 
Q 947 2381 947 1747 
z
" transform="scale(0.015625)"/>
      </defs>
      <use xlink:href="#DejaVuSans-71" transform="translate(0 0.015625)"/>
      <use xlink:href="#DejaVuSans-66" transform="translate(63.476562 0.015625)"/>
      <use xlink:href="#DejaVuSans-74" transform="translate(98.681641 0.015625)"/>
      <use xlink:href="#DejaVuSans-5f" transform="translate(137.890625 0.015625)"/>
      <use xlink:href="#DejaVuSans-69" transform="translate(187.890625 0.015625)"/>
      <use xlink:href="#DejaVuSans-64" transform="translate(215.673828 0.015625)"/>
      <use xlink:href="#DejaVuSans-65" transform="translate(279.150391 0.015625)"/>
      <use xlink:href="#DejaVuSans-6e" transform="translate(340.673828 0.015625)"/>
      <use xlink:href="#DejaVuSans-74" transform="translate(404.052734 0.015625)"/>
      <use xlink:href="#DejaVuSans-69" transform="translate(443.261719 0.015625)"/>
      <use xlink:href="#DejaVuSans-74" transform="translate(471.044922 0.015625)"/>
      <use xlink:href="#DejaVuSans-79" transform="translate(510.253906 0.015625)"/>
      <use xlink:href="#DejaVuSans-20" transform="translate(569.433594 0.015625)"/>
      <use xlink:href="#DejaVuSans-28" transform="translate(601.220703 0.015625)"/>
      <use xlink:href="#DejaVuSans-69" transform="translate(640.234375 0.015625)"/>
      <use xlink:href="#DejaVuSans-64" transform="translate(668.017578 0.015625)"/>
      <use xlink:href="#DejaVuSans-65" transform="translate(731.494141 0.015625)"/>
      <use xlink:href="#DejaVuSans-6e" transform="translate(793.017578 0.015625)"/>
      <use xlink:href="#DejaVuSans-74" transform="translate(856.396484 0.015625)"/>
      <use xlink:href="#DejaVuSans-69" transform="translate(895.605469 0.015625)"/>
      <use xlink:href="#DejaVuSans-74" transform="translate(923.388672 0.015625)"/>
      <use xlink:href="#DejaVuSans-79" transform="translate(962.597656 0.015625)"/>
      <use xlink:href="#DejaVuSans-20" transform="translate(1021.777344 0.015625)"/>
      <use xlink:href="#DejaVuSans-69" transform="translate(1053.564453 0.015625)"/>
      <use xlink:href="#DejaVuSans-6e" transform="translate(1081.347656 0.015625)"/>
      <use xlink:href="#DejaVuSans-69" transform="translate(1144.726562 0.015625)"/>
      <use xlink:href="#DejaVuSans-74" transform="translate(1172.509766 0.015625)"/>
      <use xlink:href="#DejaVuSans-29" transform="translate(1211.71875 0.015625)"/>
      <use xlink:href="#DejaVuSans-20" transform="translate(1250.732422 0.015625)"/>
      <use xlink:href="#DejaVuSans-20" transform="translate(1282.519531 0.015625)"/>
      <use xlink:href="#DejaVuSans-28" transform="translate(1314.306641 0.015625)"/>
      <use xlink:href="#DejaVuSans-31" transform="translate(1353.320312 0.015625)"/>
      <use xlink:href="#DejaVuSans-33" transform="translate(1416.943359 0.015625)"/>
      <use xlink:href="#DejaVuSans-34" transform="translate(1480.566406 0.015625)"/>
      <use xlink:href="#DejaVuSans-35" transform="translate(1544.189453 0.015625)"/>
      <use xlink:href="#DejaVuSans-30" transform="translate(1607.8125 0.015625)"/>
      <use xlink:href="#DejaVuSans-2192" transform="translate(1690.917969 0.015625)"/>
      <use xlink:href="#DejaVuSans-31" transform="translate(1794.189453 0.015625)"/>
      <use xlink:href="#DejaVuSans-33" transform="translate(1857.8125 0.015625)"/>
      <use xlink:href="#DejaVuSans-39" transform="translate(1921.435547 0.015625)"/>
      <use xlink:href="#DejaVuSans-2e" transform="translate(1985.058594 0.015625)"/>
      <use xlink:href="#DejaVuSans-39" transform="translate(2016.845703 0.015625)"/>
      <use xlink:href="#DejaVuSans-29" transform="translate(2080.46875 0.015625)"/>
     </g>
    </g>
    <g id="line2d_137">
     <path d="M 304.61375 37.16 
L 313.01375 37.16 
L 321.41375 37.16 
" style="fill: none"/>
     <g>
      <use xlink:href="#m1aab41ab3a" x="313.01375" y="37.16" style="fill: #d55e00; stroke: #d55e00; stroke-linejoin: miter"/>
     </g>
    </g>
    <g id="text_19">
     <!-- blocked_8 (BlockedBasis analytic)  (159$\rightarrow$129.3) -->
     <g transform="translate(327.01375 39.61) scale(0.07 -0.07)">
      <defs>
       <path id="DejaVuSans-6b" d="M 581 4863 
L 1159 4863 
L 1159 1991 
L 2875 3500 
L 3609 3500 
L 1753 1863 
L 3688 0 
L 2938 0 
L 1159 1709 
L 1159 0 
L 581 0 
L 581 4863 
z
" transform="scale(0.015625)"/>
       <path id="DejaVuSans-42" d="M 1259 2228 
L 1259 519 
L 2272 519 
Q 2781 519 3026 730 
Q 3272 941 3272 1375 
Q 3272 1813 3026 2020 
Q 2781 2228 2272 2228 
L 1259 2228 
z
M 1259 4147 
L 1259 2741 
L 2194 2741 
Q 2656 2741 2882 2914 
Q 3109 3088 3109 3444 
Q 3109 3797 2882 3972 
Q 2656 4147 2194 4147 
L 1259 4147 
z
M 628 4666 
L 2241 4666 
Q 2963 4666 3353 4366 
Q 3744 4066 3744 3513 
Q 3744 3084 3544 2831 
Q 3344 2578 2956 2516 
Q 3422 2416 3680 2098 
Q 3938 1781 3938 1306 
Q 3938 681 3513 340 
Q 3088 0 2303 0 
L 628 0 
L 628 4666 
z
" transform="scale(0.015625)"/>
      </defs>
      <use xlink:href="#DejaVuSans-62" transform="translate(0 0.015625)"/>
      <use xlink:href="#DejaVuSans-6c" transform="translate(63.476562 0.015625)"/>
      <use xlink:href="#DejaVuSans-6f" transform="translate(91.259766 0.015625)"/>
      <use xlink:href="#DejaVuSans-63" transform="translate(152.441406 0.015625)"/>
      <use xlink:href="#DejaVuSans-6b" transform="translate(207.421875 0.015625)"/>
      <use xlink:href="#DejaVuSans-65" transform="translate(265.332031 0.015625)"/>
      <use xlink:href="#DejaVuSans-64" transform="translate(326.855469 0.015625)"/>
      <use xlink:href="#DejaVuSans-5f" transform="translate(390.332031 0.015625)"/>
      <use xlink:href="#DejaVuSans-38" transform="translate(440.332031 0.015625)"/>
      <use xlink:href="#DejaVuSans-20" transform="translate(503.955078 0.015625)"/>
      <use xlink:href="#DejaVuSans-28" transform="translate(535.742188 0.015625)"/>
      <use xlink:href="#DejaVuSans-42" transform="translate(574.755859 0.015625)"/>
      <use xlink:href="#DejaVuSans-6c" transform="translate(643.359375 0.015625)"/>
      <use xlink:href="#DejaVuSans-6f" transform="translate(671.142578 0.015625)"/>
      <use xlink:href="#DejaVuSans-63" transform="translate(732.324219 0.015625)"/>
      <use xlink:href="#DejaVuSans-6b" transform="translate(787.304688 0.015625)"/>
      <use xlink:href="#DejaVuSans-65" transform="translate(845.214844 0.015625)"/>
      <use xlink:href="#DejaVuSans-64" transform="translate(906.738281 0.015625)"/>
      <use xlink:href="#DejaVuSans-42" transform="translate(970.214844 0.015625)"/>
      <use xlink:href="#DejaVuSans-61" transform="translate(1038.818359 0.015625)"/>
      <use xlink:href="#DejaVuSans-73" transform="translate(1100.097656 0.015625)"/>
      <use xlink:href="#DejaVuSans-69" transform="translate(1152.197266 0.015625)"/>
      <use xlink:href="#DejaVuSans-73" transform="translate(1179.980469 0.015625)"/>
      <use xlink:href="#DejaVuSans-20" transform="translate(1232.080078 0.015625)"/>
      <use xlink:href="#DejaVuSans-61" transform="translate(1263.867188 0.015625)"/>
      <use xlink:href="#DejaVuSans-6e" transform="translate(1325.146484 0.015625)"/>
      <use xlink:href="#DejaVuSans-61" transform="translate(1388.525391 0.015625)"/>
      <use xlink:href="#DejaVuSans-6c" transform="translate(1449.804688 0.015625)"/>
      <use xlink:href="#DejaVuSans-79" transform="translate(1477.587891 0.015625)"/>
      <use xlink:href="#DejaVuSans-74" transform="translate(1536.767578 0.015625)"/>
      <use xlink:href="#DejaVuSans-69" transform="translate(1575.976562 0.015625)"/>
      <use xlink:href="#DejaVuSans-63" transform="translate(1603.759766 0.015625)"/>
      <use xlink:href="#DejaVuSans-29" transform="translate(1658.740234 0.015625)"/>
      <use xlink:href="#DejaVuSans-20" transform="translate(1697.753906 0.015625)"/>
      <use xlink:href="#DejaVuSans-20" transform="translate(1729.541016 0.015625)"/>
      <use xlink:href="#DejaVuSans-28" transform="translate(1761.328125 0.015625)"/>
      <use xlink:href="#DejaVuSans-31" transform="translate(1800.341797 0.015625)"/>
      <use xlink:href="#DejaVuSans-35" transform="translate(1863.964844 0.015625)"/>
      <use xlink:href="#DejaVuSans-39" transform="translate(1922.087891 0.015625)"/>
      <use xlink:href="#DejaVuSans-2192" transform="translate(2005.193359 0.015625)"/>
      <use xlink:href="#DejaVuSans-31" transform="translate(2108.464844 0.015625)"/>
      <use xlink:href="#DejaVuSans-32" transform="translate(2172.087891 0.015625)"/>
      <use xlink:href="#DejaVuSans-39" transform="translate(2233.960938 0.015625)"/>
      <use xlink:href="#DejaVuSans-2e" transform="translate(2297.583984 0.015625)"/>
      <use xlink:href="#DejaVuSans-33" transform="translate(2329.371094 0.015625)"/>
      <use xlink:href="#DejaVuSans-29" transform="translate(2392.994141 0.015625)"/>
     </g>
    </g>
    <g id="line2d_138">
     <path d="M 304.61375 47.66 
L 313.01375 47.66 
L 321.41375 47.66 
" style="fill: none"/>
     <g>
      <use xlink:href="#mffd2a544e5" x="313.01375" y="47.66" style="stroke: #000000; stroke-linejoin: miter"/>
     </g>
    </g>
    <g id="text_20">
     <!-- qft_frozen_outer (identity + frozen_indices)  (13453$\rightarrow$129.3) -->
     <g transform="translate(327.01375 50.11) scale(0.07 -0.07)">
      <defs>
       <path id="DejaVuSans-7a" d="M 353 3500 
L 3084 3500 
L 3084 2975 
L 922 459 
L 3084 459 
L 3084 0 
L 275 0 
L 275 525 
L 2438 3041 
L 353 3041 
L 353 3500 
z
" transform="scale(0.015625)"/>
       <path id="DejaVuSans-2b" d="M 2944 4013 
L 2944 2272 
L 4684 2272 
L 4684 1741 
L 2944 1741 
L 2944 0 
L 2419 0 
L 2419 1741 
L 678 1741 
L 678 2272 
L 2419 2272 
L 2419 4013 
L 2944 4013 
z
" transform="scale(0.015625)"/>
      </defs>
      <use xlink:href="#DejaVuSans-71" transform="translate(0 0.015625)"/>
      <use xlink:href="#DejaVuSans-66" transform="translate(63.476562 0.015625)"/>
      <use xlink:href="#DejaVuSans-74" transform="translate(98.681641 0.015625)"/>
      <use xlink:href="#DejaVuSans-5f" transform="translate(137.890625 0.015625)"/>
      <use xlink:href="#DejaVuSans-66" transform="translate(187.890625 0.015625)"/>
      <use xlink:href="#DejaVuSans-72" transform="translate(223.095703 0.015625)"/>
      <use xlink:href="#DejaVuSans-6f" transform="translate(264.208984 0.015625)"/>
      <use xlink:href="#DejaVuSans-7a" transform="translate(325.390625 0.015625)"/>
      <use xlink:href="#DejaVuSans-65" transform="translate(377.880859 0.015625)"/>
      <use xlink:href="#DejaVuSans-6e" transform="translate(439.404297 0.015625)"/>
      <use xlink:href="#DejaVuSans-5f" transform="translate(502.783203 0.015625)"/>
      <use xlink:href="#DejaVuSans-6f" transform="translate(552.783203 0.015625)"/>
      <use xlink:href="#DejaVuSans-75" transform="translate(613.964844 0.015625)"/>
      <use xlink:href="#DejaVuSans-74" transform="translate(677.34375 0.015625)"/>
      <use xlink:href="#DejaVuSans-65" transform="translate(716.552734 0.015625)"/>
      <use xlink:href="#DejaVuSans-72" transform="translate(778.076172 0.015625)"/>
      <use xlink:href="#DejaVuSans-20" transform="translate(819.189453 0.015625)"/>
      <use xlink:href="#DejaVuSans-28" transform="translate(850.976562 0.015625)"/>
      <use xlink:href="#DejaVuSans-69" transform="translate(889.990234 0.015625)"/>
      <use xlink:href="#DejaVuSans-64" transform="translate(917.773438 0.015625)"/>
      <use xlink:href="#DejaVuSans-65" transform="translate(981.25 0.015625)"/>
      <use xlink:href="#DejaVuSans-6e" transform="translate(1042.773438 0.015625)"/>
      <use xlink:href="#DejaVuSans-74" transform="translate(1106.152344 0.015625)"/>
      <use xlink:href="#DejaVuSans-69" transform="translate(1145.361328 0.015625)"/>
      <use xlink:href="#DejaVuSans-74" transform="translate(1173.144531 0.015625)"/>
      <use xlink:href="#DejaVuSans-79" transform="translate(1212.353516 0.015625)"/>
      <use xlink:href="#DejaVuSans-20" transform="translate(1271.533203 0.015625)"/>
      <use xlink:href="#DejaVuSans-2b" transform="translate(1303.320312 0.015625)"/>
      <use xlink:href="#DejaVuSans-20" transform="translate(1387.109375 0.015625)"/>
      <use xlink:href="#DejaVuSans-66" transform="translate(1418.896484 0.015625)"/>
      <use xlink:href="#DejaVuSans-72" transform="translate(1454.101562 0.015625)"/>
      <use xlink:href="#DejaVuSans-6f" transform="translate(1495.214844 0.015625)"/>
      <use xlink:href="#DejaVuSans-7a" transform="translate(1556.396484 0.015625)"/>
      <use xlink:href="#DejaVuSans-65" transform="translate(1608.886719 0.015625)"/>
      <use xlink:href="#DejaVuSans-6e" transform="translate(1670.410156 0.015625)"/>
      <use xlink:href="#DejaVuSans-5f" transform="translate(1733.789062 0.015625)"/>
      <use xlink:href="#DejaVuSans-69" transform="translate(1783.789062 0.015625)"/>
      <use xlink:href="#DejaVuSans-6e" transform="translate(1811.572266 0.015625)"/>
      <use xlink:href="#DejaVuSans-64" transform="translate(1874.951172 0.015625)"/>
      <use xlink:href="#DejaVuSans-69" transform="translate(1938.427734 0.015625)"/>
      <use xlink:href="#DejaVuSans-63" transform="translate(1966.210938 0.015625)"/>
      <use xlink:href="#DejaVuSans-65" transform="translate(2021.191406 0.015625)"/>
      <use xlink:href="#DejaVuSans-73" transform="translate(2082.714844 0.015625)"/>
      <use xlink:href="#DejaVuSans-29" transform="translate(2134.814453 0.015625)"/>
      <use xlink:href="#DejaVuSans-20" transform="translate(2173.828125 0.015625)"/>
      <use xlink:href="#DejaVuSans-20" transform="translate(2205.615234 0.015625)"/>
      <use xlink:href="#DejaVuSans-28" transform="translate(2237.402344 0.015625)"/>
      <use xlink:href="#DejaVuSans-31" transform="translate(2276.416016 0.015625)"/>
      <use xlink:href="#DejaVuSans-33" transform="translate(2340.039062 0.015625)"/>
      <use xlink:href="#DejaVuSans-34" transform="translate(2403.662109 0.015625)"/>
      <use xlink:href="#DejaVuSans-35" transform="translate(2467.285156 0.015625)"/>
      <use xlink:href="#DejaVuSans-33" transform="translate(2530.908203 0.015625)"/>
      <use xlink:href="#DejaVuSans-2192" transform="translate(2614.013672 0.015625)"/>
      <use xlink:href="#DejaVuSans-31" transform="translate(2717.285156 0.015625)"/>
      <use xlink:href="#DejaVuSans-32" transform="translate(2780.908203 0.015625)"/>
      <use xlink:href="#DejaVuSans-39" transform="translate(2842.78125 0.015625)"/>
      <use xlink:href="#DejaVuSans-2e" transform="translate(2906.404297 0.015625)"/>
      <use xlink:href="#DejaVuSans-33" transform="translate(2938.191406 0.015625)"/>
      <use xlink:href="#DejaVuSans-29" transform="translate(3001.814453 0.015625)"/>
     </g>
    </g>
   </g>
  </g>
 </g>
 <defs>
  <clipPath id="p521fa8721e">
   <rect x="39.30375" y="7.2" width="506.88" height="281.52"/>
  </clipPath>
 </defs>
</svg>
