<?xml version="1.0" encoding="utf-8" standalone="no"?>
<!DOCTYPE svg PUBLIC "-//W3C//DTD SVG 1.1//EN"
  "http://www.w3.org/Graphics/SVG/1.1/DTD/svg11.dtd">
<svg xmlns:xlink="http://www.w3.org/1999/xlink" width="367.01375pt" height="251.19625pt" viewBox="0 0 367.01375 251.19625" xmlns="http://www.w3.org/2000/svg" version="1.1">
 <metadata>
  <rdf:RDF xmlns:dc="http://purl.org/dc/elements/1.1/" xmlns:cc="http://creativecommons.org/ns#" xmlns:rdf="http://www.w3.org/1999/02/22-rdf-syntax-ns#">
   <cc:Work>
    <dc:type rdf:resource="http://purl.org/dc/dcmitype/StillImage"/>
    <dc:date>2026-07-04T16:43:03.168317</dc:date>
    <dc:format>image/svg+xml</dc:format>
    <dc:creator>
     <cc:Agent>
      <dc:title>Matplotlib v3.10.9, https://matplotlib.org/</dc:title>
     </cc:Agent>
    </dc:creator>
   </cc:Work>
  </rdf:RDF>
 </metadata>
 <defs>
  <style type="text/css">*{stroke-linejoin: round; stroke-linecap: butt}</style>
 </defs>
 <g id="figure_1">
  <g id="patch_1">
   <path d="M -0 251.19625 
L 367.01375 251.19625 
L 367.01375 0 
L -0 0 
z
" style="fill: #ffffff"/>
  </g>
  <g id="axes_1">
   <g id="patch_2">
    <path d="M 50.14375 213.64 
L 359.81375 213.64 
L 359.81375 7.2 
L 50.14375 7.2 
z
" style="fill: #ffffff"/>
   </g>
   <g id="line2d_1">
    <path d="M 197.985073 213.64 
L 197.985073 7.2 
" clip-path="url(#pd7a6d1ae88)" style="fill: none; stroke-dasharray: 1,1.65; stroke-dashoffset: 0; stroke: #000000"/>
   </g>
   <g id="line2d_2">
    <path d="M 291.525042 213.64 
L 291.525042 7.2 
" clip-path="url(#pd7a6d1ae88)" style="fill: none; stroke-dasharray: 1,3; stroke-dashoffset: 0; stroke: #555555"/>
   </g>
   <g id="line2d_3">
    <path d="M 242.017287 213.64 
L 242.017287 7.2 
" clip-path="url(#pd7a6d1ae88)" style="fill: none; stroke-dasharray: 1,3; stroke-dashoffset: 0; stroke: #999999"/>
   </g>
   <g id="matplotlib.axis_1">
    <g id="xtick_1">
     <g id="line2d_4">
      <path d="M 92.765111 213.64 
L 92.765111 7.2 
" clip-path="url(#pd7a6d1ae88)" style="fill: none; stroke: #b0b0b0; stroke-opacity: 0.25; stroke-width: 0.5; stroke-linecap: square"/>
     </g>
     <g id="line2d_5">
      <defs>
       <path id="m2dbab66e8c" d="M 0 0 
L 0 3.5 
" style="stroke: #000000; stroke-width: 0.8"/>
      </defs>
      <g>
       <use xlink:href="#m2dbab66e8c" x="92.765111" y="213.64" style="stroke: #000000; stroke-width: 0.8"/>
      </g>
     </g>
     <g id="text_1">
      <!-- 10000 -->
      <g transform="translate(76.858861 228.238437) scale(0.1 -0.1)">
       <defs>
        <path id="DejaVuSans-31" d="M 794 531 
L 1825 531 
L 1825 4091 
L 703 3866 
L 703 4441 
L 1819 4666 
L 2450 4666 
L 2450 531 
L 3481 531 
L 3481 0 
L 794 0 
L 794 531 
z
" transform="scale(0.015625)"/>
        <path id="DejaVuSans-30" d="M 2034 4250 
Q 1547 4250 1301 3770 
Q 1056 3291 1056 2328 
Q 1056 1369 1301 889 
Q 1547 409 2034 409 
Q 2525 409 2770 889 
Q 3016 1369 3016 2328 
Q 3016 3291 2770 3770 
Q 2525 4250 2034 4250 
z
M 2034 4750 
Q 2819 4750 3233 4129 
Q 3647 3509 3647 2328 
Q 3647 1150 3233 529 
Q 2819 -91 2034 -91 
Q 1250 -91 836 529 
Q 422 1150 422 2328 
Q 422 3509 836 4129 
Q 1250 4750 2034 4750 
z
" transform="scale(0.015625)"/>
       </defs>
       <use xlink:href="#DejaVuSans-31"/>
       <use xlink:href="#DejaVuSans-30" transform="translate(63.623047 0)"/>
       <use xlink:href="#DejaVuSans-30" transform="translate(127.246094 0)"/>
       <use xlink:href="#DejaVuSans-30" transform="translate(190.869141 0)"/>
       <use xlink:href="#DejaVuSans-30" transform="translate(254.492188 0)"/>
      </g>
     </g>
    </g>
    <g id="xtick_2">
     <g id="line2d_6">
      <path d="M 138.979079 213.64 
L 138.979079 7.2 
" clip-path="url(#pd7a6d1ae88)" style="fill: none; stroke: #b0b0b0; stroke-opacity: 0.25; stroke-width: 0.5; stroke-linecap: square"/>
     </g>
     <g id="line2d_7">
      <g>
       <use xlink:href="#m2dbab66e8c" x="138.979079" y="213.64" style="stroke: #000000; stroke-width: 0.8"/>
      </g>
     </g>
     <g id="text_2">
      <!-- 20000 -->
      <g transform="translate(123.072829 228.238437) scale(0.1 -0.1)">
       <defs>
        <path id="DejaVuSans-32" d="M 1228 531 
L 3431 531 
L 3431 0 
L 469 0 
L 469 531 
Q 828 903 1448 1529 
Q 2069 2156 2228 2338 
Q 2531 2678 2651 2914 
Q 2772 3150 2772 3378 
Q 2772 3750 2511 3984 
Q 2250 4219 1831 4219 
Q 1534 4219 1204 4116 
Q 875 4013 500 3803 
L 500 4441 
Q 881 4594 1212 4672 
Q 1544 4750 1819 4750 
Q 2544 4750 2975 4387 
Q 3406 4025 3406 3419 
Q 3406 3131 3298 2873 
Q 3191 2616 2906 2266 
Q 2828 2175 2409 1742 
Q 1991 1309 1228 531 
z
" transform="scale(0.015625)"/>
       </defs>
       <use xlink:href="#DejaVuSans-32"/>
       <use xlink:href="#DejaVuSans-30" transform="translate(63.623047 0)"/>
       <use xlink:href="#DejaVuSans-30" transform="translate(127.246094 0)"/>
       <use xlink:href="#DejaVuSans-30" transform="translate(190.869141 0)"/>
       <use xlink:href="#DejaVuSans-30" transform="translate(254.492188 0)"/>
      </g>
     </g>
    </g>
    <g id="xtick_3">
     <g id="line2d_8">
      <path d="M 185.193046 213.64 
L 185.193046 7.2 
" clip-path="url(#pd7a6d1ae88)" style="fill: none; stroke: #b0b0b0; stroke-opacity: 0.25; stroke-width: 0.5; stroke-linecap: square"/>
     </g>
     <g id="line2d_9">
      <g>
       <use xlink:href="#m2dbab66e8c" x="185.193046" y="213.64" style="stroke: #000000; stroke-width: 0.8"/>
      </g>
     </g>
     <g id="text_3">
      <!-- 30000 -->
      <g transform="translate(169.286796 228.238437) scale(0.1 -0.1)">
       <defs>
        <path id="DejaVuSans-33" d="M 2597 2516 
Q 3050 2419 3304 2112 
Q 3559 1806 3559 1356 
Q 3559 666 3084 287 
Q 2609 -91 1734 -91 
Q 1441 -91 1130 -33 
Q 819 25 488 141 
L 488 750 
Q 750 597 1062 519 
Q 1375 441 1716 441 
Q 2309 441 2620 675 
Q 2931 909 2931 1356 
Q 2931 1769 2642 2001 
Q 2353 2234 1838 2234 
L 1294 2234 
L 1294 2753 
L 1863 2753 
Q 2328 2753 2575 2939 
Q 2822 3125 2822 3475 
Q 2822 3834 2567 4026 
Q 2313 4219 1838 4219 
Q 1578 4219 1281 4162 
Q 984 4106 628 3988 
L 628 4550 
Q 988 4650 1302 4700 
Q 1616 4750 1894 4750 
Q 2613 4750 3031 4423 
Q 3450 4097 3450 3541 
Q 3450 3153 3228 2886 
Q 3006 2619 2597 2516 
z
" transform="scale(0.015625)"/>
       </defs>
       <use xlink:href="#DejaVuSans-33"/>
       <use xlink:href="#DejaVuSans-30" transform="translate(63.623047 0)"/>
       <use xlink:href="#DejaVuSans-30" transform="translate(127.246094 0)"/>
       <use xlink:href="#DejaVuSans-30" transform="translate(190.869141 0)"/>
       <use xlink:href="#DejaVuSans-30" transform="translate(254.492188 0)"/>
      </g>
     </g>
    </g>
    <g id="xtick_4">
     <g id="line2d_10">
      <path d="M 231.407014 213.64 
L 231.407014 7.2 
" clip-path="url(#pd7a6d1ae88)" style="fill: none; stroke: #b0b0b0; stroke-opacity: 0.25; stroke-width: 0.5; stroke-linecap: square"/>
     </g>
     <g id="line2d_11">
      <g>
       <use xlink:href="#m2dbab66e8c" x="231.407014" y="213.64" style="stroke: #000000; stroke-width: 0.8"/>
      </g>
     </g>
     <g id="text_4">
      <!-- 40000 -->
      <g transform="translate(215.500764 228.238437) scale(0.1 -0.1)">
       <defs>
        <path id="DejaVuSans-34" d="M 2419 4116 
L 825 1625 
L 2419 1625 
L 2419 4116 
z
M 2253 4666 
L 3047 4666 
L 3047 1625 
L 3713 1625 
L 3713 1100 
L 3047 1100 
L 3047 0 
L 2419 0 
L 2419 1100 
L 313 1100 
L 313 1709 
L 2253 4666 
z
" transform="scale(0.015625)"/>
       </defs>
       <use xlink:href="#DejaVuSans-34"/>
       <use xlink:href="#DejaVuSans-30" transform="translate(63.623047 0)"/>
       <use xlink:href="#DejaVuSans-30" transform="translate(127.246094 0)"/>
       <use xlink:href="#DejaVuSans-30" transform="translate(190.869141 0)"/>
       <use xlink:href="#DejaVuSans-30" transform="translate(254.492188 0)"/>
      </g>
     </g>
    </g>
    <g id="xtick_5">
     <g id="line2d_12">
      <path d="M 277.620982 213.64 
L 277.620982 7.2 
" clip-path="url(#pd7a6d1ae88)" style="fill: none; stroke: #b0b0b0; stroke-opacity: 0.25; stroke-width: 0.5; stroke-linecap: square"/>
     </g>
     <g id="line2d_13">
      <g>
       <use xlink:href="#m2dbab66e8c" x="277.620982" y="213.64" style="stroke: #000000; stroke-width: 0.8"/>
      </g>
     </g>
     <g id="text_5">
      <!-- 50000 -->
      <g transform="translate(261.714732 228.238437) scale(0.1 -0.1)">
       <defs>
        <path id="DejaVuSans-35" d="M 691 4666 
L 3169 4666 
L 3169 4134 
L 1269 4134 
L 1269 2991 
Q 1406 3038 1543 3061 
Q 1681 3084 1819 3084 
Q 2600 3084 3056 2656 
Q 3513 2228 3513 1497 
Q 3513 744 3044 326 
Q 2575 -91 1722 -91 
Q 1428 -91 1123 -41 
Q 819 9 494 109 
L 494 744 
Q 775 591 1075 516 
Q 1375 441 1709 441 
Q 2250 441 2565 725 
Q 2881 1009 2881 1497 
Q 2881 1984 2565 2268 
Q 2250 2553 1709 2553 
Q 1456 2553 1204 2497 
Q 953 2441 691 2322 
L 691 4666 
z
" transform="scale(0.015625)"/>
       </defs>
       <use xlink:href="#DejaVuSans-35"/>
       <use xlink:href="#DejaVuSans-30" transform="translate(63.623047 0)"/>
       <use xlink:href="#DejaVuSans-30" transform="translate(127.246094 0)"/>
       <use xlink:href="#DejaVuSans-30" transform="translate(190.869141 0)"/>
       <use xlink:href="#DejaVuSans-30" transform="translate(254.492188 0)"/>
      </g>
     </g>
    </g>
    <g id="xtick_6">
     <g id="line2d_14">
      <path d="M 323.834949 213.64 
L 323.834949 7.2 
" clip-path="url(#pd7a6d1ae88)" style="fill: none; stroke: #b0b0b0; stroke-opacity: 0.25; stroke-width: 0.5; stroke-linecap: square"/>
     </g>
     <g id="line2d_15">
      <g>
       <use xlink:href="#m2dbab66e8c" x="323.834949" y="213.64" style="stroke: #000000; stroke-width: 0.8"/>
      </g>
     </g>
     <g id="text_6">
      <!-- 60000 -->
      <g transform="translate(307.928699 228.238437) scale(0.1 -0.1)">
       <defs>
        <path id="DejaVuSans-36" d="M 2113 2584 
Q 1688 2584 1439 2293 
Q 1191 2003 1191 1497 
Q 1191 994 1439 701 
Q 1688 409 2113 409 
Q 2538 409 2786 701 
Q 3034 994 3034 1497 
Q 3034 2003 2786 2293 
Q 2538 2584 2113 2584 
z
M 3366 4563 
L 3366 3988 
Q 3128 4100 2886 4159 
Q 2644 4219 2406 4219 
Q 1781 4219 1451 3797 
Q 1122 3375 1075 2522 
Q 1259 2794 1537 2939 
Q 1816 3084 2150 3084 
Q 2853 3084 3261 2657 
Q 3669 2231 3669 1497 
Q 3669 778 3244 343 
Q 2819 -91 2113 -91 
Q 1303 -91 875 529 
Q 447 1150 447 2328 
Q 447 3434 972 4092 
Q 1497 4750 2381 4750 
Q 2619 4750 2861 4703 
Q 3103 4656 3366 4563 
z
" transform="scale(0.015625)"/>
       </defs>
       <use xlink:href="#DejaVuSans-36"/>
       <use xlink:href="#DejaVuSans-30" transform="translate(63.623047 0)"/>
       <use xlink:href="#DejaVuSans-30" transform="translate(127.246094 0)"/>
       <use xlink:href="#DejaVuSans-30" transform="translate(190.869141 0)"/>
       <use xlink:href="#DejaVuSans-30" transform="translate(254.492188 0)"/>
      </g>
     </g>
    </g>
    <g id="text_7">
     <!-- compressed size (bytes / image, incl. basis file) -->
     <g transform="translate(86.567031 241.916562) scale(0.1 -0.1)">
      <defs>
       <path id="DejaVuSans-63" d="M 3122 3366 
L 3122 2828 
Q 2878 2963 2633 3030 
Q 2388 3097 2138 3097 
Q 1578 3097 1268 2742 
Q 959 2388 959 1747 
Q 959 1106 1268 751 
Q 1578 397 2138 397 
Q 2388 397 2633 464 
Q 2878 531 3122 666 
L 3122 134 
Q 2881 22 2623 -34 
Q 2366 -91 2075 -91 
Q 1284 -91 818 406 
Q 353 903 353 1747 
Q 353 2603 823 3093 
Q 1294 3584 2113 3584 
Q 2378 3584 2631 3529 
Q 2884 3475 3122 3366 
z
" transform="scale(0.015625)"/>
       <path id="DejaVuSans-6f" d="M 1959 3097 
Q 1497 3097 1228 2736 
Q 959 2375 959 1747 
Q 959 1119 1226 758 
Q 1494 397 1959 397 
Q 2419 397 2687 759 
Q 2956 1122 2956 1747 
Q 2956 2369 2687 2733 
Q 2419 3097 1959 3097 
z
M 1959 3584 
Q 2709 3584 3137 3096 
Q 3566 2609 3566 1747 
Q 3566 888 3137 398 
Q 2709 -91 1959 -91 
Q 1206 -91 779 398 
Q 353 888 353 1747 
Q 353 2609 779 3096 
Q 1206 3584 1959 3584 
z
" transform="scale(0.015625)"/>
       <path id="DejaVuSans-6d" d="M 3328 2828 
Q 3544 3216 3844 3400 
Q 4144 3584 4550 3584 
Q 5097 3584 5394 3201 
Q 5691 2819 5691 2113 
L 5691 0 
L 5113 0 
L 5113 2094 
Q 5113 2597 4934 2840 
Q 4756 3084 4391 3084 
Q 3944 3084 3684 2787 
Q 3425 2491 3425 1978 
L 3425 0 
L 2847 0 
L 2847 2094 
Q 2847 2600 2669 2842 
Q 2491 3084 2119 3084 
Q 1678 3084 1418 2786 
Q 1159 2488 1159 1978 
L 1159 0 
L 581 0 
L 581 3500 
L 1159 3500 
L 1159 2956 
Q 1356 3278 1631 3431 
Q 1906 3584 2284 3584 
Q 2666 3584 2933 3390 
Q 3200 3197 3328 2828 
z
" transform="scale(0.015625)"/>
       <path id="DejaVuSans-70" d="M 1159 525 
L 1159 -1331 
L 581 -1331 
L 581 3500 
L 1159 3500 
L 1159 2969 
Q 1341 3281 1617 3432 
Q 1894 3584 2278 3584 
Q 2916 3584 3314 3078 
Q 3713 2572 3713 1747 
Q 3713 922 3314 415 
Q 2916 -91 2278 -91 
Q 1894 -91 1617 61 
Q 1341 213 1159 525 
z
M 3116 1747 
Q 3116 2381 2855 2742 
Q 2594 3103 2138 3103 
Q 1681 3103 1420 2742 
Q 1159 2381 1159 1747 
Q 1159 1113 1420 752 
Q 1681 391 2138 391 
Q 2594 391 2855 752 
Q 3116 1113 3116 1747 
z
" transform="scale(0.015625)"/>
       <path id="DejaVuSans-72" d="M 2631 2963 
Q 2534 3019 2420 3045 
Q 2306 3072 2169 3072 
Q 1681 3072 1420 2755 
Q 1159 2438 1159 1844 
L 1159 0 
L 581 0 
L 581 3500 
L 1159 3500 
L 1159 2956 
Q 1341 3275 1631 3429 
Q 1922 3584 2338 3584 
Q 2397 3584 2469 3576 
Q 2541 3569 2628 3553 
L 2631 2963 
z
" transform="scale(0.015625)"/>
       <path id="DejaVuSans-65" d="M 3597 1894 
L 3597 1613 
L 953 1613 
Q 991 1019 1311 708 
Q 1631 397 2203 397 
Q 2534 397 2845 478 
Q 3156 559 3463 722 
L 3463 178 
Q 3153 47 2828 -22 
Q 2503 -91 2169 -91 
Q 1331 -91 842 396 
Q 353 884 353 1716 
Q 353 2575 817 3079 
Q 1281 3584 2069 3584 
Q 2775 3584 3186 3129 
Q 3597 2675 3597 1894 
z
M 3022 2063 
Q 3016 2534 2758 2815 
Q 2500 3097 2075 3097 
Q 1594 3097 1305 2825 
Q 1016 2553 972 2059 
L 3022 2063 
z
" transform="scale(0.015625)"/>
       <path id="DejaVuSans-73" d="M 2834 3397 
L 2834 2853 
Q 2591 2978 2328 3040 
Q 2066 3103 1784 3103 
Q 1356 3103 1142 2972 
Q 928 2841 928 2578 
Q 928 2378 1081 2264 
Q 1234 2150 1697 2047 
L 1894 2003 
Q 2506 1872 2764 1633 
Q 3022 1394 3022 966 
Q 3022 478 2636 193 
Q 2250 -91 1575 -91 
Q 1294 -91 989 -36 
Q 684 19 347 128 
L 347 722 
Q 666 556 975 473 
Q 1284 391 1588 391 
Q 1994 391 2212 530 
Q 2431 669 2431 922 
Q 2431 1156 2273 1281 
Q 2116 1406 1581 1522 
L 1381 1569 
Q 847 1681 609 1914 
Q 372 2147 372 2553 
Q 372 3047 722 3315 
Q 1072 3584 1716 3584 
Q 2034 3584 2315 3537 
Q 2597 3491 2834 3397 
z
" transform="scale(0.015625)"/>
       <path id="DejaVuSans-64" d="M 2906 2969 
L 2906 4863 
L 3481 4863 
L 3481 0 
L 2906 0 
L 2906 525 
Q 2725 213 2448 61 
Q 2172 -91 1784 -91 
Q 1150 -91 751 415 
Q 353 922 353 1747 
Q 353 2572 751 3078 
Q 1150 3584 1784 3584 
Q 2172 3584 2448 3432 
Q 2725 3281 2906 2969 
z
M 947 1747 
Q 947 1113 1208 752 
Q 1469 391 1925 391 
Q 2381 391 2643 752 
Q 2906 1113 2906 1747 
Q 2906 2381 2643 2742 
Q 2381 3103 1925 3103 
Q 1469 3103 1208 2742 
Q 947 2381 947 1747 
z
" transform="scale(0.015625)"/>
       <path id="DejaVuSans-20" transform="scale(0.015625)"/>
       <path id="DejaVuSans-69" d="M 603 3500 
L 1178 3500 
L 1178 0 
L 603 0 
L 603 3500 
z
M 603 4863 
L 1178 4863 
L 1178 4134 
L 603 4134 
L 603 4863 
z
" transform="scale(0.015625)"/>
       <path id="DejaVuSans-7a" d="M 353 3500 
L 3084 3500 
L 3084 2975 
L 922 459 
L 3084 459 
L 3084 0 
L 275 0 
L 275 525 
L 2438 3041 
L 353 3041 
L 353 3500 
z
" transform="scale(0.015625)"/>
       <path id="DejaVuSans-28" d="M 1984 4856 
Q 1566 4138 1362 3434 
Q 1159 2731 1159 2009 
Q 1159 1288 1364 580 
Q 1569 -128 1984 -844 
L 1484 -844 
Q 1016 -109 783 600 
Q 550 1309 550 2009 
Q 550 2706 781 3412 
Q 1013 4119 1484 4856 
L 1984 4856 
z
" transform="scale(0.015625)"/>
       <path id="DejaVuSans-62" d="M 3116 1747 
Q 3116 2381 2855 2742 
Q 2594 3103 2138 3103 
Q 1681 3103 1420 2742 
Q 1159 2381 1159 1747 
Q 1159 1113 1420 752 
Q 1681 391 2138 391 
Q 2594 391 2855 752 
Q 3116 1113 3116 1747 
z
M 1159 2969 
Q 1341 3281 1617 3432 
Q 1894 3584 2278 3584 
Q 2916 3584 3314 3078 
Q 3713 2572 3713 1747 
Q 3713 922 3314 415 
Q 2916 -91 2278 -91 
Q 1894 -91 1617 61 
Q 1341 213 1159 525 
L 1159 0 
L 581 0 
L 581 4863 
L 1159 4863 
L 1159 2969 
z
" transform="scale(0.015625)"/>
       <path id="DejaVuSans-79" d="M 2059 -325 
Q 1816 -950 1584 -1140 
Q 1353 -1331 966 -1331 
L 506 -1331 
L 506 -850 
L 844 -850 
Q 1081 -850 1212 -737 
Q 1344 -625 1503 -206 
L 1606 56 
L 191 3500 
L 800 3500 
L 1894 763 
L 2988 3500 
L 3597 3500 
L 2059 -325 
z
" transform="scale(0.015625)"/>
       <path id="DejaVuSans-74" d="M 1172 4494 
L 1172 3500 
L 2356 3500 
L 2356 3053 
L 1172 3053 
L 1172 1153 
Q 1172 725 1289 603 
Q 1406 481 1766 481 
L 2356 481 
L 2356 0 
L 1766 0 
Q 1100 0 847 248 
Q 594 497 594 1153 
L 594 3053 
L 172 3053 
L 172 3500 
L 594 3500 
L 594 4494 
L 1172 4494 
z
" transform="scale(0.015625)"/>
       <path id="DejaVuSans-2f" d="M 1625 4666 
L 2156 4666 
L 531 -594 
L 0 -594 
L 1625 4666 
z
" transform="scale(0.015625)"/>
       <path id="DejaVuSans-61" d="M 2194 1759 
Q 1497 1759 1228 1600 
Q 959 1441 959 1056 
Q 959 750 1161 570 
Q 1363 391 1709 391 
Q 2188 391 2477 730 
Q 2766 1069 2766 1631 
L 2766 1759 
L 2194 1759 
z
M 3341 1997 
L 3341 0 
L 2766 0 
L 2766 531 
Q 2569 213 2275 61 
Q 1981 -91 1556 -91 
Q 1019 -91 701 211 
Q 384 513 384 1019 
Q 384 1609 779 1909 
Q 1175 2209 1959 2209 
L 2766 2209 
L 2766 2266 
Q 2766 2663 2505 2880 
Q 2244 3097 1772 3097 
Q 1472 3097 1187 3025 
Q 903 2953 641 2809 
L 641 3341 
Q 956 3463 1253 3523 
Q 1550 3584 1831 3584 
Q 2591 3584 2966 3190 
Q 3341 2797 3341 1997 
z
" transform="scale(0.015625)"/>
       <path id="DejaVuSans-67" d="M 2906 1791 
Q 2906 2416 2648 2759 
Q 2391 3103 1925 3103 
Q 1463 3103 1205 2759 
Q 947 2416 947 1791 
Q 947 1169 1205 825 
Q 1463 481 1925 481 
Q 2391 481 2648 825 
Q 2906 1169 2906 1791 
z
M 3481 434 
Q 3481 -459 3084 -895 
Q 2688 -1331 1869 -1331 
Q 1566 -1331 1297 -1286 
Q 1028 -1241 775 -1147 
L 775 -588 
Q 1028 -725 1275 -790 
Q 1522 -856 1778 -856 
Q 2344 -856 2625 -561 
Q 2906 -266 2906 331 
L 2906 616 
Q 2728 306 2450 153 
Q 2172 0 1784 0 
Q 1141 0 747 490 
Q 353 981 353 1791 
Q 353 2603 747 3093 
Q 1141 3584 1784 3584 
Q 2172 3584 2450 3431 
Q 2728 3278 2906 2969 
L 2906 3500 
L 3481 3500 
L 3481 434 
z
" transform="scale(0.015625)"/>
       <path id="DejaVuSans-2c" d="M 750 794 
L 1409 794 
L 1409 256 
L 897 -744 
L 494 -744 
L 750 256 
L 750 794 
z
" transform="scale(0.015625)"/>
       <path id="DejaVuSans-6e" d="M 3513 2113 
L 3513 0 
L 2938 0 
L 2938 2094 
Q 2938 2591 2744 2837 
Q 2550 3084 2163 3084 
Q 1697 3084 1428 2787 
Q 1159 2491 1159 1978 
L 1159 0 
L 581 0 
L 581 3500 
L 1159 3500 
L 1159 2956 
Q 1366 3272 1645 3428 
Q 1925 3584 2291 3584 
Q 2894 3584 3203 3211 
Q 3513 2838 3513 2113 
z
" transform="scale(0.015625)"/>
       <path id="DejaVuSans-6c" d="M 603 4863 
L 1178 4863 
L 1178 0 
L 603 0 
L 603 4863 
z
" transform="scale(0.015625)"/>
       <path id="DejaVuSans-2e" d="M 684 794 
L 1344 794 
L 1344 0 
L 684 0 
L 684 794 
z
" transform="scale(0.015625)"/>
       <path id="DejaVuSans-66" d="M 2375 4863 
L 2375 4384 
L 1825 4384 
Q 1516 4384 1395 4259 
Q 1275 4134 1275 3809 
L 1275 3500 
L 2222 3500 
L 2222 3053 
L 1275 3053 
L 1275 0 
L 697 0 
L 697 3053 
L 147 3053 
L 147 3500 
L 697 3500 
L 697 3744 
Q 697 4328 969 4595 
Q 1241 4863 1831 4863 
L 2375 4863 
z
" transform="scale(0.015625)"/>
       <path id="DejaVuSans-29" d="M 513 4856 
L 1013 4856 
Q 1481 4119 1714 3412 
Q 1947 2706 1947 2009 
Q 1947 1309 1714 600 
Q 1481 -109 1013 -844 
L 513 -844 
Q 928 -128 1133 580 
Q 1338 1288 1338 2009 
Q 1338 2731 1133 3434 
Q 928 4138 513 4856 
z
" transform="scale(0.015625)"/>
      </defs>
      <use xlink:href="#DejaVuSans-63"/>
      <use xlink:href="#DejaVuSans-6f" transform="translate(54.980469 0)"/>
      <use xlink:href="#DejaVuSans-6d" transform="translate(116.162109 0)"/>
      <use xlink:href="#DejaVuSans-70" transform="translate(213.574219 0)"/>
      <use xlink:href="#DejaVuSans-72" transform="translate(277.050781 0)"/>
      <use xlink:href="#DejaVuSans-65" transform="translate(315.914062 0)"/>
      <use xlink:href="#DejaVuSans-73" transform="translate(377.4375 0)"/>
      <use xlink:href="#DejaVuSans-73" transform="translate(429.537109 0)"/>
      <use xlink:href="#DejaVuSans-65" transform="translate(481.636719 0)"/>
      <use xlink:href="#DejaVuSans-64" transform="translate(543.160156 0)"/>
      <use xlink:href="#DejaVuSans-20" transform="translate(606.636719 0)"/>
      <use xlink:href="#DejaVuSans-73" transform="translate(638.423828 0)"/>
      <use xlink:href="#DejaVuSans-69" transform="translate(690.523438 0)"/>
      <use xlink:href="#DejaVuSans-7a" transform="translate(718.306641 0)"/>
      <use xlink:href="#DejaVuSans-65" transform="translate(770.796875 0)"/>
      <use xlink:href="#DejaVuSans-20" transform="translate(832.320312 0)"/>
      <use xlink:href="#DejaVuSans-28" transform="translate(864.107422 0)"/>
      <use xlink:href="#DejaVuSans-62" transform="translate(903.121094 0)"/>
      <use xlink:href="#DejaVuSans-79" transform="translate(966.597656 0)"/>
      <use xlink:href="#DejaVuSans-74" transform="translate(1025.777344 0)"/>
      <use xlink:href="#DejaVuSans-65" transform="translate(1064.986328 0)"/>
      <use xlink:href="#DejaVuSans-73" transform="translate(1126.509766 0)"/>
      <use xlink:href="#DejaVuSans-20" transform="translate(1178.609375 0)"/>
      <use xlink:href="#DejaVuSans-2f" transform="translate(1210.396484 0)"/>
      <use xlink:href="#DejaVuSans-20" transform="translate(1244.087891 0)"/>
      <use xlink:href="#DejaVuSans-69" transform="translate(1275.875 0)"/>
      <use xlink:href="#DejaVuSans-6d" transform="translate(1303.658203 0)"/>
      <use xlink:href="#DejaVuSans-61" transform="translate(1401.070312 0)"/>
      <use xlink:href="#DejaVuSans-67" transform="translate(1462.349609 0)"/>
      <use xlink:href="#DejaVuSans-65" transform="translate(1525.826172 0)"/>
      <use xlink:href="#DejaVuSans-2c" transform="translate(1587.349609 0)"/>
      <use xlink:href="#DejaVuSans-20" transform="translate(1619.136719 0)"/>
      <use xlink:href="#DejaVuSans-69" transform="translate(1650.923828 0)"/>
      <use xlink:href="#DejaVuSans-6e" transform="translate(1678.707031 0)"/>
      <use xlink:href="#DejaVuSans-63" transform="translate(1742.085938 0)"/>
      <use xlink:href="#DejaVuSans-6c" transform="translate(1797.066406 0)"/>
      <use xlink:href="#DejaVuSans-2e" transform="translate(1824.849609 0)"/>
      <use xlink:href="#DejaVuSans-20" transform="translate(1856.636719 0)"/>
      <use xlink:href="#DejaVuSans-62" transform="translate(1888.423828 0)"/>
      <use xlink:href="#DejaVuSans-61" transform="translate(1951.900391 0)"/>
      <use xlink:href="#DejaVuSans-73" transform="translate(2013.179688 0)"/>
      <use xlink:href="#DejaVuSans-69" transform="translate(2065.279297 0)"/>
      <use xlink:href="#DejaVuSans-73" transform="translate(2093.0625 0)"/>
      <use xlink:href="#DejaVuSans-20" transform="translate(2145.162109 0)"/>
      <use xlink:href="#DejaVuSans-66" transform="translate(2176.949219 0)"/>
      <use xlink:href="#DejaVuSans-69" transform="translate(2212.154297 0)"/>
      <use xlink:href="#DejaVuSans-6c" transform="translate(2239.9375 0)"/>
      <use xlink:href="#DejaVuSans-65" transform="translate(2267.720703 0)"/>
      <use xlink:href="#DejaVuSans-29" transform="translate(2329.244141 0)"/>
     </g>
    </g>
   </g>
   <g id="matplotlib.axis_2">
    <g id="ytick_1">
     <g id="line2d_16">
      <path d="M 50.14375 209.334163 
L 359.81375 209.334163 
" clip-path="url(#pd7a6d1ae88)" style="fill: none; stroke: #b0b0b0; stroke-opacity: 0.25; stroke-width: 0.5; stroke-linecap: square"/>
     </g>
     <g id="line2d_17">
      <defs>
       <path id="m49cbf1cd8e" d="M 0 0 
L -3.5 0 
" style="stroke: #000000; stroke-width: 0.8"/>
      </defs>
      <g>
       <use xlink:href="#m49cbf1cd8e" x="50.14375" y="209.334163" style="stroke: #000000; stroke-width: 0.8"/>
      </g>
     </g>
     <g id="text_8">
      <!-- 25.0 -->
      <g transform="translate(20.878125 213.133382) scale(0.1 -0.1)">
       <use xlink:href="#DejaVuSans-32"/>
       <use xlink:href="#DejaVuSans-35" transform="translate(63.623047 0)"/>
       <use xlink:href="#DejaVuSans-2e" transform="translate(127.246094 0)"/>
       <use xlink:href="#DejaVuSans-30" transform="translate(159.033203 0)"/>
      </g>
     </g>
    </g>
    <g id="ytick_2">
     <g id="line2d_18">
      <path d="M 50.14375 183.966764 
L 359.81375 183.966764 
" clip-path="url(#pd7a6d1ae88)" style="fill: none; stroke: #b0b0b0; stroke-opacity: 0.25; stroke-width: 0.5; stroke-linecap: square"/>
     </g>
     <g id="line2d_19">
      <g>
       <use xlink:href="#m49cbf1cd8e" x="50.14375" y="183.966764" style="stroke: #000000; stroke-width: 0.8"/>
      </g>
     </g>
     <g id="text_9">
      <!-- 27.5 -->
      <g transform="translate(20.878125 187.765983) scale(0.1 -0.1)">
       <defs>
        <path id="DejaVuSans-37" d="M 525 4666 
L 3525 4666 
L 3525 4397 
L 1831 0 
L 1172 0 
L 2766 4134 
L 525 4134 
L 525 4666 
z
" transform="scale(0.015625)"/>
       </defs>
       <use xlink:href="#DejaVuSans-32"/>
       <use xlink:href="#DejaVuSans-37" transform="translate(63.623047 0)"/>
       <use xlink:href="#DejaVuSans-2e" transform="translate(127.246094 0)"/>
       <use xlink:href="#DejaVuSans-35" transform="translate(159.033203 0)"/>
      </g>
     </g>
    </g>
    <g id="ytick_3">
     <g id="line2d_20">
      <path d="M 50.14375 158.599365 
L 359.81375 158.599365 
" clip-path="url(#pd7a6d1ae88)" style="fill: none; stroke: #b0b0b0; stroke-opacity: 0.25; stroke-width: 0.5; stroke-linecap: square"/>
     </g>
     <g id="line2d_21">
      <g>
       <use xlink:href="#m49cbf1cd8e" x="50.14375" y="158.599365" style="stroke: #000000; stroke-width: 0.8"/>
      </g>
     </g>
     <g id="text_10">
      <!-- 30.0 -->
      <g transform="translate(20.878125 162.398584) scale(0.1 -0.1)">
       <use xlink:href="#DejaVuSans-33"/>
       <use xlink:href="#DejaVuSans-30" transform="translate(63.623047 0)"/>
       <use xlink:href="#DejaVuSans-2e" transform="translate(127.246094 0)"/>
       <use xlink:href="#DejaVuSans-30" transform="translate(159.033203 0)"/>
      </g>
     </g>
    </g>
    <g id="ytick_4">
     <g id="line2d_22">
      <path d="M 50.14375 133.231966 
L 359.81375 133.231966 
" clip-path="url(#pd7a6d1ae88)" style="fill: none; stroke: #b0b0b0; stroke-opacity: 0.25; stroke-width: 0.5; stroke-linecap: square"/>
     </g>
     <g id="line2d_23">
      <g>
       <use xlink:href="#m49cbf1cd8e" x="50.14375" y="133.231966" style="stroke: #000000; stroke-width: 0.8"/>
      </g>
     </g>
     <g id="text_11">
      <!-- 32.5 -->
      <g transform="translate(20.878125 137.031185) scale(0.1 -0.1)">
       <use xlink:href="#DejaVuSans-33"/>
       <use xlink:href="#DejaVuSans-32" transform="translate(63.623047 0)"/>
       <use xlink:href="#DejaVuSans-2e" transform="translate(127.246094 0)"/>
       <use xlink:href="#DejaVuSans-35" transform="translate(159.033203 0)"/>
      </g>
     </g>
    </g>
    <g id="ytick_5">
     <g id="line2d_24">
      <path d="M 50.14375 107.864568 
L 359.81375 107.864568 
" clip-path="url(#pd7a6d1ae88)" style="fill: none; stroke: #b0b0b0; stroke-opacity: 0.25; stroke-width: 0.5; stroke-linecap: square"/>
     </g>
     <g id="line2d_25">
      <g>
       <use xlink:href="#m49cbf1cd8e" x="50.14375" y="107.864568" style="stroke: #000000; stroke-width: 0.8"/>
      </g>
     </g>
     <g id="text_12">
      <!-- 35.0 -->
      <g transform="translate(20.878125 111.663786) scale(0.1 -0.1)">
       <use xlink:href="#DejaVuSans-33"/>
       <use xlink:href="#DejaVuSans-35" transform="translate(63.623047 0)"/>
       <use xlink:href="#DejaVuSans-2e" transform="translate(127.246094 0)"/>
       <use xlink:href="#DejaVuSans-30" transform="translate(159.033203 0)"/>
      </g>
     </g>
    </g>
    <g id="ytick_6">
     <g id="line2d_26">
      <path d="M 50.14375 82.497169 
L 359.81375 82.497169 
" clip-path="url(#pd7a6d1ae88)" style="fill: none; stroke: #b0b0b0; stroke-opacity: 0.25; stroke-width: 0.5; stroke-linecap: square"/>
     </g>
     <g id="line2d_27">
      <g>
       <use xlink:href="#m49cbf1cd8e" x="50.14375" y="82.497169" style="stroke: #000000; stroke-width: 0.8"/>
      </g>
     </g>
     <g id="text_13">
      <!-- 37.5 -->
      <g transform="translate(20.878125 86.296387) scale(0.1 -0.1)">
       <use xlink:href="#DejaVuSans-33"/>
       <use xlink:href="#DejaVuSans-37" transform="translate(63.623047 0)"/>
       <use xlink:href="#DejaVuSans-2e" transform="translate(127.246094 0)"/>
       <use xlink:href="#DejaVuSans-35" transform="translate(159.033203 0)"/>
      </g>
     </g>
    </g>
    <g id="ytick_7">
     <g id="line2d_28">
      <path d="M 50.14375 57.12977 
L 359.81375 57.12977 
" clip-path="url(#pd7a6d1ae88)" style="fill: none; stroke: #b0b0b0; stroke-opacity: 0.25; stroke-width: 0.5; stroke-linecap: square"/>
     </g>
     <g id="line2d_29">
      <g>
       <use xlink:href="#m49cbf1cd8e" x="50.14375" y="57.12977" style="stroke: #000000; stroke-width: 0.8"/>
      </g>
     </g>
     <g id="text_14">
      <!-- 40.0 -->
      <g transform="translate(20.878125 60.928988) scale(0.1 -0.1)">
       <use xlink:href="#DejaVuSans-34"/>
       <use xlink:href="#DejaVuSans-30" transform="translate(63.623047 0)"/>
       <use xlink:href="#DejaVuSans-2e" transform="translate(127.246094 0)"/>
       <use xlink:href="#DejaVuSans-30" transform="translate(159.033203 0)"/>
      </g>
     </g>
    </g>
    <g id="ytick_8">
     <g id="line2d_30">
      <path d="M 50.14375 31.762371 
L 359.81375 31.762371 
" clip-path="url(#pd7a6d1ae88)" style="fill: none; stroke: #b0b0b0; stroke-opacity: 0.25; stroke-width: 0.5; stroke-linecap: square"/>
     </g>
     <g id="line2d_31">
      <g>
       <use xlink:href="#m49cbf1cd8e" x="50.14375" y="31.762371" style="stroke: #000000; stroke-width: 0.8"/>
      </g>
     </g>
     <g id="text_15">
      <!-- 42.5 -->
      <g transform="translate(20.878125 35.56159) scale(0.1 -0.1)">
       <use xlink:href="#DejaVuSans-34"/>
       <use xlink:href="#DejaVuSans-32" transform="translate(63.623047 0)"/>
       <use xlink:href="#DejaVuSans-2e" transform="translate(127.246094 0)"/>
       <use xlink:href="#DejaVuSans-35" transform="translate(159.033203 0)"/>
      </g>
     </g>
    </g>
    <g id="text_16">
     <!-- test PSNR (dB) -->
     <g transform="translate(14.798438 147.109844) rotate(-90) scale(0.1 -0.1)">
      <defs>
       <path id="DejaVuSans-50" d="M 1259 4147 
L 1259 2394 
L 2053 2394 
Q 2494 2394 2734 2622 
Q 2975 2850 2975 3272 
Q 2975 3691 2734 3919 
Q 2494 4147 2053 4147 
L 1259 4147 
z
M 628 4666 
L 2053 4666 
Q 2838 4666 3239 4311 
Q 3641 3956 3641 3272 
Q 3641 2581 3239 2228 
Q 2838 1875 2053 1875 
L 1259 1875 
L 1259 0 
L 628 0 
L 628 4666 
z
" transform="scale(0.015625)"/>
       <path id="DejaVuSans-53" d="M 3425 4513 
L 3425 3897 
Q 3066 4069 2747 4153 
Q 2428 4238 2131 4238 
Q 1616 4238 1336 4038 
Q 1056 3838 1056 3469 
Q 1056 3159 1242 3001 
Q 1428 2844 1947 2747 
L 2328 2669 
Q 3034 2534 3370 2195 
Q 3706 1856 3706 1288 
Q 3706 609 3251 259 
Q 2797 -91 1919 -91 
Q 1588 -91 1214 -16 
Q 841 59 441 206 
L 441 856 
Q 825 641 1194 531 
Q 1563 422 1919 422 
Q 2459 422 2753 634 
Q 3047 847 3047 1241 
Q 3047 1584 2836 1778 
Q 2625 1972 2144 2069 
L 1759 2144 
Q 1053 2284 737 2584 
Q 422 2884 422 3419 
Q 422 4038 858 4394 
Q 1294 4750 2059 4750 
Q 2388 4750 2728 4690 
Q 3069 4631 3425 4513 
z
" transform="scale(0.015625)"/>
       <path id="DejaVuSans-4e" d="M 628 4666 
L 1478 4666 
L 3547 763 
L 3547 4666 
L 4159 4666 
L 4159 0 
L 3309 0 
L 1241 3903 
L 1241 0 
L 628 0 
L 628 4666 
z
" transform="scale(0.015625)"/>
       <path id="DejaVuSans-52" d="M 2841 2188 
Q 3044 2119 3236 1894 
Q 3428 1669 3622 1275 
L 4263 0 
L 3584 0 
L 2988 1197 
Q 2756 1666 2539 1819 
Q 2322 1972 1947 1972 
L 1259 1972 
L 1259 0 
L 628 0 
L 628 4666 
L 2053 4666 
Q 2853 4666 3247 4331 
Q 3641 3997 3641 3322 
Q 3641 2881 3436 2590 
Q 3231 2300 2841 2188 
z
M 1259 4147 
L 1259 2491 
L 2053 2491 
Q 2509 2491 2742 2702 
Q 2975 2913 2975 3322 
Q 2975 3731 2742 3939 
Q 2509 4147 2053 4147 
L 1259 4147 
z
" transform="scale(0.015625)"/>
       <path id="DejaVuSans-42" d="M 1259 2228 
L 1259 519 
L 2272 519 
Q 2781 519 3026 730 
Q 3272 941 3272 1375 
Q 3272 1813 3026 2020 
Q 2781 2228 2272 2228 
L 1259 2228 
z
M 1259 4147 
L 1259 2741 
L 2194 2741 
Q 2656 2741 2882 2914 
Q 3109 3088 3109 3444 
Q 3109 3797 2882 3972 
Q 2656 4147 2194 4147 
L 1259 4147 
z
M 628 4666 
L 2241 4666 
Q 2963 4666 3353 4366 
Q 3744 4066 3744 3513 
Q 3744 3084 3544 2831 
Q 3344 2578 2956 2516 
Q 3422 2416 3680 2098 
Q 3938 1781 3938 1306 
Q 3938 681 3513 340 
Q 3088 0 2303 0 
L 628 0 
L 628 4666 
z
" transform="scale(0.015625)"/>
      </defs>
      <use xlink:href="#DejaVuSans-74"/>
      <use xlink:href="#DejaVuSans-65" transform="translate(39.208984 0)"/>
      <use xlink:href="#DejaVuSans-73" transform="translate(100.732422 0)"/>
      <use xlink:href="#DejaVuSans-74" transform="translate(152.832031 0)"/>
      <use xlink:href="#DejaVuSans-20" transform="translate(192.041016 0)"/>
      <use xlink:href="#DejaVuSans-50" transform="translate(223.828125 0)"/>
      <use xlink:href="#DejaVuSans-53" transform="translate(284.130859 0)"/>
      <use xlink:href="#DejaVuSans-4e" transform="translate(347.607422 0)"/>
      <use xlink:href="#DejaVuSans-52" transform="translate(422.412109 0)"/>
      <use xlink:href="#DejaVuSans-20" transform="translate(491.894531 0)"/>
      <use xlink:href="#DejaVuSans-28" transform="translate(523.681641 0)"/>
      <use xlink:href="#DejaVuSans-64" transform="translate(562.695312 0)"/>
      <use xlink:href="#DejaVuSans-42" transform="translate(626.171875 0)"/>
      <use xlink:href="#DejaVuSans-29" transform="translate(694.775391 0)"/>
     </g>
    </g>
   </g>
   <g id="patch_3">
    <path d="M 50.14375 213.64 
L 50.14375 7.2 
" style="fill: none; stroke: #000000; stroke-width: 0.8; stroke-linejoin: miter; stroke-linecap: square"/>
   </g>
   <g id="patch_4">
    <path d="M 359.81375 213.64 
L 359.81375 7.2 
" style="fill: none; stroke: #000000; stroke-width: 0.8; stroke-linejoin: miter; stroke-linecap: square"/>
   </g>
   <g id="patch_5">
    <path d="M 50.14375 213.64 
L 359.81375 213.64 
" style="fill: none; stroke: #000000; stroke-width: 0.8; stroke-linejoin: miter; stroke-linecap: square"/>
   </g>
   <g id="patch_6">
    <path d="M 50.14375 7.2 
L 359.81375 7.2 
" style="fill: none; stroke: #000000; stroke-width: 0.8; stroke-linejoin: miter; stroke-linecap: square"/>
   </g>
   <g id="line2d_32">
    <path d="M 64.449561 204.256364 
L 66.683679 199.791335 
L 73.589432 199.48881 
L 77.070352 185.651621 
L 81.949135 168.389118 
L 94.67216 146.718331 
L 105.755857 129.294013 
L 124.662655 103.593351 
L 139.813745 89.085647 
L 151.398914 83.950608 
L 193.827143 50.310494 
L 217.81294 19.551938 
" clip-path="url(#pd7a6d1ae88)" style="fill: none; stroke: #0072b2; stroke-width: 1.6; stroke-linecap: square"/>
    <defs>
     <path id="m133771c102" d="M 0 1.5 
C 0.397805 1.5 0.77937 1.341951 1.06066 1.06066 
C 1.341951 0.77937 1.5 0.397805 1.5 0 
C 1.5 -0.397805 1.341951 -0.77937 1.06066 -1.06066 
C 0.77937 -1.341951 0.397805 -1.5 0 -1.5 
C -0.397805 -1.5 -0.77937 -1.341951 -1.06066 -1.06066 
C -1.341951 -0.77937 -1.5 -0.397805 -1.5 0 
C -1.5 0.397805 -1.341951 0.77937 -1.06066 1.06066 
C -0.77937 1.341951 -0.397805 1.5 0 1.5 
z
" style="stroke: #0072b2"/>
    </defs>
    <g clip-path="url(#pd7a6d1ae88)">
     <use xlink:href="#m133771c102" x="64.449561" y="204.256364" style="fill: #0072b2; stroke: #0072b2"/>
     <use xlink:href="#m133771c102" x="66.683679" y="199.791335" style="fill: #0072b2; stroke: #0072b2"/>
     <use xlink:href="#m133771c102" x="73.589432" y="199.48881" style="fill: #0072b2; stroke: #0072b2"/>
     <use xlink:href="#m133771c102" x="77.070352" y="185.651621" style="fill: #0072b2; stroke: #0072b2"/>
     <use xlink:href="#m133771c102" x="81.949135" y="168.389118" style="fill: #0072b2; stroke: #0072b2"/>
     <use xlink:href="#m133771c102" x="94.67216" y="146.718331" style="fill: #0072b2; stroke: #0072b2"/>
     <use xlink:href="#m133771c102" x="105.755857" y="129.294013" style="fill: #0072b2; stroke: #0072b2"/>
     <use xlink:href="#m133771c102" x="124.662655" y="103.593351" style="fill: #0072b2; stroke: #0072b2"/>
     <use xlink:href="#m133771c102" x="139.813745" y="89.085647" style="fill: #0072b2; stroke: #0072b2"/>
     <use xlink:href="#m133771c102" x="151.398914" y="83.950608" style="fill: #0072b2; stroke: #0072b2"/>
     <use xlink:href="#m133771c102" x="193.827143" y="50.310494" style="fill: #0072b2; stroke: #0072b2"/>
     <use xlink:href="#m133771c102" x="217.81294" y="19.551938" style="fill: #0072b2; stroke: #0072b2"/>
    </g>
   </g>
   <g id="line2d_33">
    <path d="M 74.203263 202.797754 
L 79.432323 199.527845 
L 92.401785 199.314437 
L 93.12858 181.117572 
L 104.189649 167.878686 
L 125.050727 145.647972 
L 142.965748 127.537091 
L 171.89186 99.684673 
L 194.002202 81.879473 
L 210.6032 73.604299 
L 304.634483 48.885857 
L 345.737841 16.583636 
" clip-path="url(#pd7a6d1ae88)" style="fill: none; stroke-dasharray: 5.92,2.56; stroke-dashoffset: 0; stroke: #e69f00; stroke-width: 1.6"/>
    <defs>
     <path id="m674e0aecf5" d="M 0 1.5 
C 0.397805 1.5 0.77937 1.341951 1.06066 1.06066 
C 1.341951 0.77937 1.5 0.397805 1.5 0 
C 1.5 -0.397805 1.341951 -0.77937 1.06066 -1.06066 
C 0.77937 -1.341951 0.397805 -1.5 0 -1.5 
C -0.397805 -1.5 -0.77937 -1.341951 -1.06066 -1.06066 
C -1.341951 -0.77937 -1.5 -0.397805 -1.5 0 
C -1.5 0.397805 -1.341951 0.77937 -1.06066 1.06066 
C -0.77937 1.341951 -0.397805 1.5 0 1.5 
z
" style="stroke: #e69f00"/>
    </defs>
    <g clip-path="url(#pd7a6d1ae88)">
     <use xlink:href="#m674e0aecf5" x="74.203263" y="202.797754" style="fill: #e69f00; stroke: #e69f00"/>
     <use xlink:href="#m674e0aecf5" x="79.432323" y="199.527845" style="fill: #e69f00; stroke: #e69f00"/>
     <use xlink:href="#m674e0aecf5" x="92.401785" y="199.314437" style="fill: #e69f00; stroke: #e69f00"/>
     <use xlink:href="#m674e0aecf5" x="93.12858" y="181.117572" style="fill: #e69f00; stroke: #e69f00"/>
     <use xlink:href="#m674e0aecf5" x="104.189649" y="167.878686" style="fill: #e69f00; stroke: #e69f00"/>
     <use xlink:href="#m674e0aecf5" x="125.050727" y="145.647972" style="fill: #e69f00; stroke: #e69f00"/>
     <use xlink:href="#m674e0aecf5" x="142.965748" y="127.537091" style="fill: #e69f00; stroke: #e69f00"/>
     <use xlink:href="#m674e0aecf5" x="171.89186" y="99.684673" style="fill: #e69f00; stroke: #e69f00"/>
     <use xlink:href="#m674e0aecf5" x="194.002202" y="81.879473" style="fill: #e69f00; stroke: #e69f00"/>
     <use xlink:href="#m674e0aecf5" x="210.6032" y="73.604299" style="fill: #e69f00; stroke: #e69f00"/>
     <use xlink:href="#m674e0aecf5" x="304.634483" y="48.885857" style="fill: #e69f00; stroke: #e69f00"/>
     <use xlink:href="#m674e0aecf5" x="345.737841" y="16.583636" style="fill: #e69f00; stroke: #e69f00"/>
    </g>
   </g>
   <g id="line2d_34">
    <path d="M 64.219659 202.988359 
L 66.450567 198.372245 
L 73.36626 198.05357 
L 76.6745 184.245511 
L 81.684296 166.264168 
L 94.362871 144.364494 
L 105.355762 127.02924 
L 123.874741 101.854471 
L 138.564775 87.96245 
L 149.683267 83.20437 
L 164.932549 81.095436 
L 191.792241 47.379182 
L 215.08735 17.002849 
" clip-path="url(#pd7a6d1ae88)" style="fill: none; stroke-dasharray: 10.24,2.56,1.6,2.56; stroke-dashoffset: 0; stroke: #009e73; stroke-width: 1.6"/>
    <defs>
     <path id="mbb729c8611" d="M 0 1.5 
C 0.397805 1.5 0.77937 1.341951 1.06066 1.06066 
C 1.341951 0.77937 1.5 0.397805 1.5 0 
C 1.5 -0.397805 1.341951 -0.77937 1.06066 -1.06066 
C 0.77937 -1.341951 0.397805 -1.5 0 -1.5 
C -0.397805 -1.5 -0.77937 -1.341951 -1.06066 -1.06066 
C -1.341951 -0.77937 -1.5 -0.397805 -1.5 0 
C -1.5 0.397805 -1.341951 0.77937 -1.06066 1.06066 
C -0.77937 1.341951 -0.397805 1.5 0 1.5 
z
" style="stroke: #009e73"/>
    </defs>
    <g clip-path="url(#pd7a6d1ae88)">
     <use xlink:href="#mbb729c8611" x="64.219659" y="202.988359" style="fill: #009e73; stroke: #009e73"/>
     <use xlink:href="#mbb729c8611" x="66.450567" y="198.372245" style="fill: #009e73; stroke: #009e73"/>
     <use xlink:href="#mbb729c8611" x="73.36626" y="198.05357" style="fill: #009e73; stroke: #009e73"/>
     <use xlink:href="#mbb729c8611" x="76.6745" y="184.245511" style="fill: #009e73; stroke: #009e73"/>
     <use xlink:href="#mbb729c8611" x="81.684296" y="166.264168" style="fill: #009e73; stroke: #009e73"/>
     <use xlink:href="#mbb729c8611" x="94.362871" y="144.364494" style="fill: #009e73; stroke: #009e73"/>
     <use xlink:href="#mbb729c8611" x="105.355762" y="127.02924" style="fill: #009e73; stroke: #009e73"/>
     <use xlink:href="#mbb729c8611" x="123.874741" y="101.854471" style="fill: #009e73; stroke: #009e73"/>
     <use xlink:href="#mbb729c8611" x="138.564775" y="87.96245" style="fill: #009e73; stroke: #009e73"/>
     <use xlink:href="#mbb729c8611" x="149.683267" y="83.20437" style="fill: #009e73; stroke: #009e73"/>
     <use xlink:href="#mbb729c8611" x="164.932549" y="81.095436" style="fill: #009e73; stroke: #009e73"/>
     <use xlink:href="#mbb729c8611" x="191.792241" y="47.379182" style="fill: #009e73; stroke: #009e73"/>
     <use xlink:href="#mbb729c8611" x="215.08735" y="17.002849" style="fill: #009e73; stroke: #009e73"/>
    </g>
   </g>
   <g id="text_17">
    <!-- 50% of raw -->
    <g transform="translate(207.063823 211.30375) rotate(-90) scale(0.08 -0.08)">
     <defs>
      <path id="DejaVuSans-25" d="M 4653 2053 
Q 4381 2053 4226 1822 
Q 4072 1591 4072 1178 
Q 4072 772 4226 539 
Q 4381 306 4653 306 
Q 4919 306 5073 539 
Q 5228 772 5228 1178 
Q 5228 1588 5073 1820 
Q 4919 2053 4653 2053 
z
M 4653 2450 
Q 5147 2450 5437 2106 
Q 5728 1763 5728 1178 
Q 5728 594 5436 251 
Q 5144 -91 4653 -91 
Q 4153 -91 3862 251 
Q 3572 594 3572 1178 
Q 3572 1766 3864 2108 
Q 4156 2450 4653 2450 
z
M 1428 4353 
Q 1159 4353 1004 4120 
Q 850 3888 850 3481 
Q 850 3069 1003 2837 
Q 1156 2606 1428 2606 
Q 1700 2606 1854 2837 
Q 2009 3069 2009 3481 
Q 2009 3884 1853 4118 
Q 1697 4353 1428 4353 
z
M 4250 4750 
L 4750 4750 
L 1831 -91 
L 1331 -91 
L 4250 4750 
z
M 1428 4750 
Q 1922 4750 2215 4408 
Q 2509 4066 2509 3481 
Q 2509 2891 2217 2550 
Q 1925 2209 1428 2209 
Q 931 2209 642 2551 
Q 353 2894 353 3481 
Q 353 4063 643 4406 
Q 934 4750 1428 4750 
z
" transform="scale(0.015625)"/>
      <path id="DejaVuSans-77" d="M 269 3500 
L 844 3500 
L 1563 769 
L 2278 3500 
L 2956 3500 
L 3675 769 
L 4391 3500 
L 4966 3500 
L 4050 0 
L 3372 0 
L 2619 2869 
L 1863 0 
L 1184 0 
L 269 3500 
z
" transform="scale(0.015625)"/>
     </defs>
     <use xlink:href="#DejaVuSans-35"/>
     <use xlink:href="#DejaVuSans-30" transform="translate(63.623047 0)"/>
     <use xlink:href="#DejaVuSans-25" transform="translate(127.246094 0)"/>
     <use xlink:href="#DejaVuSans-20" transform="translate(222.265625 0)"/>
     <use xlink:href="#DejaVuSans-6f" transform="translate(254.052734 0)"/>
     <use xlink:href="#DejaVuSans-66" transform="translate(315.234375 0)"/>
     <use xlink:href="#DejaVuSans-20" transform="translate(350.439453 0)"/>
     <use xlink:href="#DejaVuSans-72" transform="translate(382.226562 0)"/>
     <use xlink:href="#DejaVuSans-61" transform="translate(423.339844 0)"/>
     <use xlink:href="#DejaVuSans-77" transform="translate(484.619141 0)"/>
    </g>
   </g>
   <g id="text_18">
    <!-- deflate (lossless) -->
    <g style="fill: #555555" transform="translate(299.843948 211.095781) rotate(-90) scale(0.07 -0.07)">
     <use xlink:href="#DejaVuSans-64"/>
     <use xlink:href="#DejaVuSans-65" transform="translate(63.476562 0)"/>
     <use xlink:href="#DejaVuSans-66" transform="translate(125 0)"/>
     <use xlink:href="#DejaVuSans-6c" transform="translate(160.205078 0)"/>
     <use xlink:href="#DejaVuSans-61" transform="translate(187.988281 0)"/>
     <use xlink:href="#DejaVuSans-74" transform="translate(249.267578 0)"/>
     <use xlink:href="#DejaVuSans-65" transform="translate(288.476562 0)"/>
     <use xlink:href="#DejaVuSans-20" transform="translate(350 0)"/>
     <use xlink:href="#DejaVuSans-28" transform="translate(381.787109 0)"/>
     <use xlink:href="#DejaVuSans-6c" transform="translate(420.800781 0)"/>
     <use xlink:href="#DejaVuSans-6f" transform="translate(448.583984 0)"/>
     <use xlink:href="#DejaVuSans-73" transform="translate(509.765625 0)"/>
     <use xlink:href="#DejaVuSans-73" transform="translate(561.865234 0)"/>
     <use xlink:href="#DejaVuSans-6c" transform="translate(613.964844 0)"/>
     <use xlink:href="#DejaVuSans-65" transform="translate(641.748047 0)"/>
     <use xlink:href="#DejaVuSans-73" transform="translate(703.271484 0)"/>
     <use xlink:href="#DejaVuSans-73" transform="translate(755.371094 0)"/>
     <use xlink:href="#DejaVuSans-29" transform="translate(807.470703 0)"/>
    </g>
   </g>
   <g id="text_19">
    <!-- PNG (lossless) -->
    <g style="fill: #999999" transform="translate(250.336194 211.095781) rotate(-90) scale(0.07 -0.07)">
     <defs>
      <path id="DejaVuSans-47" d="M 3809 666 
L 3809 1919 
L 2778 1919 
L 2778 2438 
L 4434 2438 
L 4434 434 
Q 4069 175 3628 42 
Q 3188 -91 2688 -91 
Q 1594 -91 976 548 
Q 359 1188 359 2328 
Q 359 3472 976 4111 
Q 1594 4750 2688 4750 
Q 3144 4750 3555 4637 
Q 3966 4525 4313 4306 
L 4313 3634 
Q 3963 3931 3569 4081 
Q 3175 4231 2741 4231 
Q 1884 4231 1454 3753 
Q 1025 3275 1025 2328 
Q 1025 1384 1454 906 
Q 1884 428 2741 428 
Q 3075 428 3337 486 
Q 3600 544 3809 666 
z
" transform="scale(0.015625)"/>
     </defs>
     <use xlink:href="#DejaVuSans-50"/>
     <use xlink:href="#DejaVuSans-4e" transform="translate(60.302734 0)"/>
     <use xlink:href="#DejaVuSans-47" transform="translate(135.107422 0)"/>
     <use xlink:href="#DejaVuSans-20" transform="translate(212.597656 0)"/>
     <use xlink:href="#DejaVuSans-28" transform="translate(244.384766 0)"/>
     <use xlink:href="#DejaVuSans-6c" transform="translate(283.398438 0)"/>
     <use xlink:href="#DejaVuSans-6f" transform="translate(311.181641 0)"/>
     <use xlink:href="#DejaVuSans-73" transform="translate(372.363281 0)"/>
     <use xlink:href="#DejaVuSans-73" transform="translate(424.462891 0)"/>
     <use xlink:href="#DejaVuSans-6c" transform="translate(476.5625 0)"/>
     <use xlink:href="#DejaVuSans-65" transform="translate(504.345703 0)"/>
     <use xlink:href="#DejaVuSans-73" transform="translate(565.869141 0)"/>
     <use xlink:href="#DejaVuSans-73" transform="translate(617.96875 0)"/>
     <use xlink:href="#DejaVuSans-29" transform="translate(670.068359 0)"/>
    </g>
   </g>
   <g id="line2d_35">
    <path d="M 193.827143 50.310494 
" clip-path="url(#pd7a6d1ae88)" style="fill: none; stroke: #0072b2; stroke-width: 1.5; stroke-linecap: square"/>
    <defs>
     <path id="mbe57f50e5c" d="M 0 -5.5 
L -1.234827 -1.699593 
L -5.230811 -1.699593 
L -1.997992 0.649187 
L -3.232819 4.449593 
L -0 2.100813 
L 3.232819 4.449593 
L 1.997992 0.649187 
L 5.230811 -1.699593 
L 1.234827 -1.699593 
z
" style="stroke: #000000; stroke-width: 0.5; stroke-linejoin: bevel"/>
    </defs>
    <g clip-path="url(#pd7a6d1ae88)">
     <use xlink:href="#mbe57f50e5c" x="193.827143" y="50.310494" style="fill: #0072b2; stroke: #000000; stroke-width: 0.5; stroke-linejoin: bevel"/>
    </g>
   </g>
   <g id="line2d_36">
    <path d="M 194.002202 81.879473 
" clip-path="url(#pd7a6d1ae88)" style="fill: none; stroke: #e69f00; stroke-width: 1.5; stroke-linecap: square"/>
    <defs>
     <path id="maca1e3aee2" d="M 0 -5.5 
L -1.234827 -1.699593 
L -5.230811 -1.699593 
L -1.997992 0.649187 
L -3.232819 4.449593 
L -0 2.100813 
L 3.232819 4.449593 
L 1.997992 0.649187 
L 5.230811 -1.699593 
L 1.234827 -1.699593 
z
" style="stroke: #000000; stroke-width: 0.5; stroke-linejoin: bevel"/>
    </defs>
    <g clip-path="url(#pd7a6d1ae88)">
     <use xlink:href="#maca1e3aee2" x="194.002202" y="81.879473" style="fill: #e69f00; stroke: #000000; stroke-width: 0.5; stroke-linejoin: bevel"/>
    </g>
   </g>
   <g id="line2d_37">
    <path d="M 191.792241 47.379182 
" clip-path="url(#pd7a6d1ae88)" style="fill: none; stroke: #009e73; stroke-width: 1.5; stroke-linecap: square"/>
    <defs>
     <path id="m316e97aac6" d="M 0 -5.5 
L -1.234827 -1.699593 
L -5.230811 -1.699593 
L -1.997992 0.649187 
L -3.232819 4.449593 
L -0 2.100813 
L 3.232819 4.449593 
L 1.997992 0.649187 
L 5.230811 -1.699593 
L 1.234827 -1.699593 
z
" style="stroke: #000000; stroke-width: 0.5; stroke-linejoin: bevel"/>
    </defs>
    <g clip-path="url(#pd7a6d1ae88)">
     <use xlink:href="#m316e97aac6" x="191.792241" y="47.379182" style="fill: #009e73; stroke: #000000; stroke-width: 0.5; stroke-linejoin: bevel"/>
    </g>
   </g>
   <g id="legend_1">
    <g id="line2d_38">
     <path d="M 57.34375 17.67875 
L 65.34375 17.67875 
L 73.34375 17.67875 
" style="fill: none; stroke: #0072b2; stroke-width: 1.6; stroke-linecap: square"/>
     <g>
      <use xlink:href="#m133771c102" x="65.34375" y="17.67875" style="fill: #0072b2; stroke: #0072b2"/>
     </g>
    </g>
    <g id="text_20">
     <!-- real rich (trained) -->
     <g transform="translate(79.74375 20.47875) scale(0.08 -0.08)">
      <defs>
       <path id="DejaVuSans-68" d="M 3513 2113 
L 3513 0 
L 2938 0 
L 2938 2094 
Q 2938 2591 2744 2837 
Q 2550 3084 2163 3084 
Q 1697 3084 1428 2787 
Q 1159 2491 1159 1978 
L 1159 0 
L 581 0 
L 581 4863 
L 1159 4863 
L 1159 2956 
Q 1366 3272 1645 3428 
Q 1925 3584 2291 3584 
Q 2894 3584 3203 3211 
Q 3513 2838 3513 2113 
z
" transform="scale(0.015625)"/>
      </defs>
      <use xlink:href="#DejaVuSans-72"/>
      <use xlink:href="#DejaVuSans-65" transform="translate(38.863281 0)"/>
      <use xlink:href="#DejaVuSans-61" transform="translate(100.386719 0)"/>
      <use xlink:href="#DejaVuSans-6c" transform="translate(161.666016 0)"/>
      <use xlink:href="#DejaVuSans-20" transform="translate(189.449219 0)"/>
      <use xlink:href="#DejaVuSans-72" transform="translate(221.236328 0)"/>
      <use xlink:href="#DejaVuSans-69" transform="translate(262.349609 0)"/>
      <use xlink:href="#DejaVuSans-63" transform="translate(290.132812 0)"/>
      <use xlink:href="#DejaVuSans-68" transform="translate(345.113281 0)"/>
      <use xlink:href="#DejaVuSans-20" transform="translate(408.492188 0)"/>
      <use xlink:href="#DejaVuSans-28" transform="translate(440.279297 0)"/>
      <use xlink:href="#DejaVuSans-74" transform="translate(479.292969 0)"/>
      <use xlink:href="#DejaVuSans-72" transform="translate(518.501953 0)"/>
      <use xlink:href="#DejaVuSans-61" transform="translate(559.615234 0)"/>
      <use xlink:href="#DejaVuSans-69" transform="translate(620.894531 0)"/>
      <use xlink:href="#DejaVuSans-6e" transform="translate(648.677734 0)"/>
      <use xlink:href="#DejaVuSans-65" transform="translate(712.056641 0)"/>
      <use xlink:href="#DejaVuSans-64" transform="translate(773.580078 0)"/>
      <use xlink:href="#DejaVuSans-29" transform="translate(837.056641 0)"/>
     </g>
    </g>
    <g id="line2d_39">
     <path d="M 57.34375 29.42125 
L 65.34375 29.42125 
L 73.34375 29.42125 
" style="fill: none; stroke-dasharray: 5.92,2.56; stroke-dashoffset: 0; stroke: #e69f00; stroke-width: 1.6"/>
     <g>
      <use xlink:href="#m674e0aecf5" x="65.34375" y="29.42125" style="fill: #e69f00; stroke: #e69f00"/>
     </g>
    </g>
    <g id="text_21">
     <!-- rich (trained, complex) -->
     <g transform="translate(79.74375 32.22125) scale(0.08 -0.08)">
      <defs>
       <path id="DejaVuSans-78" d="M 3513 3500 
L 2247 1797 
L 3578 0 
L 2900 0 
L 1881 1375 
L 863 0 
L 184 0 
L 1544 1831 
L 300 3500 
L 978 3500 
L 1906 2253 
L 2834 3500 
L 3513 3500 
z
" transform="scale(0.015625)"/>
      </defs>
      <use xlink:href="#DejaVuSans-72"/>
      <use xlink:href="#DejaVuSans-69" transform="translate(41.113281 0)"/>
      <use xlink:href="#DejaVuSans-63" transform="translate(68.896484 0)"/>
      <use xlink:href="#DejaVuSans-68" transform="translate(123.876953 0)"/>
      <use xlink:href="#DejaVuSans-20" transform="translate(187.255859 0)"/>
      <use xlink:href="#DejaVuSans-28" transform="translate(219.042969 0)"/>
      <use xlink:href="#DejaVuSans-74" transform="translate(258.056641 0)"/>
      <use xlink:href="#DejaVuSans-72" transform="translate(297.265625 0)"/>
      <use xlink:href="#DejaVuSans-61" transform="translate(338.378906 0)"/>
      <use xlink:href="#DejaVuSans-69" transform="translate(399.658203 0)"/>
      <use xlink:href="#DejaVuSans-6e" transform="translate(427.441406 0)"/>
      <use xlink:href="#DejaVuSans-65" transform="translate(490.820312 0)"/>
      <use xlink:href="#DejaVuSans-64" transform="translate(552.34375 0)"/>
      <use xlink:href="#DejaVuSans-2c" transform="translate(615.820312 0)"/>
      <use xlink:href="#DejaVuSans-20" transform="translate(647.607422 0)"/>
      <use xlink:href="#DejaVuSans-63" transform="translate(679.394531 0)"/>
      <use xlink:href="#DejaVuSans-6f" transform="translate(734.375 0)"/>
      <use xlink:href="#DejaVuSans-6d" transform="translate(795.556641 0)"/>
      <use xlink:href="#DejaVuSans-70" transform="translate(892.96875 0)"/>
      <use xlink:href="#DejaVuSans-6c" transform="translate(956.445312 0)"/>
      <use xlink:href="#DejaVuSans-65" transform="translate(984.228516 0)"/>
      <use xlink:href="#DejaVuSans-78" transform="translate(1044.001953 0)"/>
      <use xlink:href="#DejaVuSans-29" transform="translate(1103.181641 0)"/>
     </g>
    </g>
    <g id="line2d_40">
     <path d="M 57.34375 41.16375 
L 65.34375 41.16375 
L 73.34375 41.16375 
" style="fill: none; stroke-dasharray: 10.24,2.56,1.6,2.56; stroke-dashoffset: 0; stroke: #009e73; stroke-width: 1.6"/>
     <g>
      <use xlink:href="#mbb729c8611" x="65.34375" y="41.16375" style="fill: #009e73; stroke: #009e73"/>
     </g>
    </g>
    <g id="text_22">
     <!-- block DCT 8x8 -->
     <g transform="translate(79.74375 43.96375) scale(0.08 -0.08)">
      <defs>
       <path id="DejaVuSans-6b" d="M 581 4863 
L 1159 4863 
L 1159 1991 
L 2875 3500 
L 3609 3500 
L 1753 1863 
L 3688 0 
L 2938 0 
L 1159 1709 
L 1159 0 
L 581 0 
L 581 4863 
z
" transform="scale(0.015625)"/>
       <path id="DejaVuSans-44" d="M 1259 4147 
L 1259 519 
L 2022 519 
Q 2988 519 3436 956 
Q 3884 1394 3884 2338 
Q 3884 3275 3436 3711 
Q 2988 4147 2022 4147 
L 1259 4147 
z
M 628 4666 
L 1925 4666 
Q 3281 4666 3915 4102 
Q 4550 3538 4550 2338 
Q 4550 1131 3912 565 
Q 3275 0 1925 0 
L 628 0 
L 628 4666 
z
" transform="scale(0.015625)"/>
       <path id="DejaVuSans-43" d="M 4122 4306 
L 4122 3641 
Q 3803 3938 3442 4084 
Q 3081 4231 2675 4231 
Q 1875 4231 1450 3742 
Q 1025 3253 1025 2328 
Q 1025 1406 1450 917 
Q 1875 428 2675 428 
Q 3081 428 3442 575 
Q 3803 722 4122 1019 
L 4122 359 
Q 3791 134 3420 21 
Q 3050 -91 2638 -91 
Q 1578 -91 968 557 
Q 359 1206 359 2328 
Q 359 3453 968 4101 
Q 1578 4750 2638 4750 
Q 3056 4750 3426 4639 
Q 3797 4528 4122 4306 
z
" transform="scale(0.015625)"/>
       <path id="DejaVuSans-54" d="M -19 4666 
L 3928 4666 
L 3928 4134 
L 2272 4134 
L 2272 0 
L 1638 0 
L 1638 4134 
L -19 4134 
L -19 4666 
z
" transform="scale(0.015625)"/>
       <path id="DejaVuSans-38" d="M 2034 2216 
Q 1584 2216 1326 1975 
Q 1069 1734 1069 1313 
Q 1069 891 1326 650 
Q 1584 409 2034 409 
Q 2484 409 2743 651 
Q 3003 894 3003 1313 
Q 3003 1734 2745 1975 
Q 2488 2216 2034 2216 
z
M 1403 2484 
Q 997 2584 770 2862 
Q 544 3141 544 3541 
Q 544 4100 942 4425 
Q 1341 4750 2034 4750 
Q 2731 4750 3128 4425 
Q 3525 4100 3525 3541 
Q 3525 3141 3298 2862 
Q 3072 2584 2669 2484 
Q 3125 2378 3379 2068 
Q 3634 1759 3634 1313 
Q 3634 634 3220 271 
Q 2806 -91 2034 -91 
Q 1263 -91 848 271 
Q 434 634 434 1313 
Q 434 1759 690 2068 
Q 947 2378 1403 2484 
z
M 1172 3481 
Q 1172 3119 1398 2916 
Q 1625 2713 2034 2713 
Q 2441 2713 2670 2916 
Q 2900 3119 2900 3481 
Q 2900 3844 2670 4047 
Q 2441 4250 2034 4250 
Q 1625 4250 1398 4047 
Q 1172 3844 1172 3481 
z
" transform="scale(0.015625)"/>
      </defs>
      <use xlink:href="#DejaVuSans-62"/>
      <use xlink:href="#DejaVuSans-6c" transform="translate(63.476562 0)"/>
      <use xlink:href="#DejaVuSans-6f" transform="translate(91.259766 0)"/>
      <use xlink:href="#DejaVuSans-63" transform="translate(152.441406 0)"/>
      <use xlink:href="#DejaVuSans-6b" transform="translate(207.421875 0)"/>
      <use xlink:href="#DejaVuSans-20" transform="translate(265.332031 0)"/>
      <use xlink:href="#DejaVuSans-44" transform="translate(297.119141 0)"/>
      <use xlink:href="#DejaVuSans-43" transform="translate(374.121094 0)"/>
      <use xlink:href="#DejaVuSans-54" transform="translate(443.945312 0)"/>
      <use xlink:href="#DejaVuSans-20" transform="translate(505.029297 0)"/>
      <use xlink:href="#DejaVuSans-38" transform="translate(536.816406 0)"/>
      <use xlink:href="#DejaVuSans-78" transform="translate(600.439453 0)"/>
      <use xlink:href="#DejaVuSans-38" transform="translate(659.619141 0)"/>
     </g>
    </g>
   </g>
  </g>
 </g>
 <defs>
  <clipPath id="pd7a6d1ae88">
   <rect x="50.14375" y="7.2" width="309.67" height="206.44"/>
  </clipPath>
 </defs>
</svg>
