<?xml version="1.0" encoding="utf-8" standalone="no"?>
<!DOCTYPE svg PUBLIC "-//W3C//DTD SVG 1.1//EN"
  "http://www.w3.org/Graphics/SVG/1.1/DTD/svg11.dtd">
<svg xmlns:xlink="http://www.w3.org/1999/xlink" width="350.810209pt" height="279.264531pt" viewBox="0 0 350.810209 279.264531" xmlns="http://www.w3.org/2000/svg" version="1.1">
 <metadata>
  <rdf:RDF xmlns:dc="http://purl.org/dc/elements/1.1/" xmlns:cc="http://creativecommons.org/ns#" xmlns:rdf="http://www.w3.org/1999/02/22-rdf-syntax-ns#">
   <cc:Work>
    <dc:type rdf:resource="http://purl.org/dc/dcmitype/StillImage"/>
    <dc:date>2026-06-22T05:18:07.154203</dc:date>
    <dc:format>image/svg+xml</dc:format>
    <dc:creator>
     <cc:Agent>
      <dc:title>Matplotlib v3.10.9, https://matplotlib.org/</dc:title>
     </cc:Agent>
    </dc:creator>
   </cc:Work>
  </rdf:RDF>
 </metadata>
 <defs>
  <style type="text/css">*{stroke-linejoin: round; stroke-linecap: butt}</style>
 </defs>
 <g id="figure_1">
  <g id="patch_1">
   <path d="M 0 279.264531 
L 350.810209 279.264531 
L 350.810209 0 
L 0 0 
z
" style="fill: #ffffff"/>
  </g>
  <g id="axes_1">
   <g id="patch_2">
    <path d="M 58.491203 116.72 
L 340.680266 116.72 
L 340.680266 7.2 
L 58.491203 7.2 
z
" style="fill: #ffffff"/>
   </g>
   <g id="line2d_1">
    <path d="M 76.12802 116.72 
L 76.12802 7.2 
" clip-path="url(#pfec9307600)" style="fill: none; stroke: #d9d9d9; stroke-width: 0.4; stroke-linecap: square"/>
   </g>
   <g id="line2d_2">
    <path d="M 93.764836 116.72 
L 93.764836 7.2 
" clip-path="url(#pfec9307600)" style="fill: none; stroke: #d9d9d9; stroke-width: 0.4; stroke-linecap: square"/>
   </g>
   <g id="line2d_3">
    <path d="M 111.401652 116.72 
L 111.401652 7.2 
" clip-path="url(#pfec9307600)" style="fill: none; stroke: #d9d9d9; stroke-width: 0.4; stroke-linecap: square"/>
   </g>
   <g id="line2d_4">
    <path d="M 129.038469 116.72 
L 129.038469 7.2 
" clip-path="url(#pfec9307600)" style="fill: none; stroke: #d9d9d9; stroke-width: 0.4; stroke-linecap: square"/>
   </g>
   <g id="line2d_5">
    <path d="M 146.675285 116.72 
L 146.675285 7.2 
" clip-path="url(#pfec9307600)" style="fill: none; stroke: #d9d9d9; stroke-width: 0.4; stroke-linecap: square"/>
   </g>
   <g id="line2d_6">
    <path d="M 164.312102 116.72 
L 164.312102 7.2 
" clip-path="url(#pfec9307600)" style="fill: none; stroke: #d9d9d9; stroke-width: 0.4; stroke-linecap: square"/>
   </g>
   <g id="line2d_7">
    <path d="M 181.948918 116.72 
L 181.948918 7.2 
" clip-path="url(#pfec9307600)" style="fill: none; stroke: #d9d9d9; stroke-width: 0.4; stroke-linecap: square"/>
   </g>
   <g id="line2d_8">
    <path d="M 199.585734 116.72 
L 199.585734 7.2 
" clip-path="url(#pfec9307600)" style="fill: none; stroke: #d9d9d9; stroke-width: 0.4; stroke-linecap: square"/>
   </g>
   <g id="line2d_9">
    <path d="M 217.222551 116.72 
L 217.222551 7.2 
" clip-path="url(#pfec9307600)" style="fill: none; stroke: #d9d9d9; stroke-width: 0.4; stroke-linecap: square"/>
   </g>
   <g id="line2d_10">
    <path d="M 234.859367 116.72 
L 234.859367 7.2 
" clip-path="url(#pfec9307600)" style="fill: none; stroke: #d9d9d9; stroke-width: 0.4; stroke-linecap: square"/>
   </g>
   <g id="line2d_11">
    <path d="M 252.496184 116.72 
L 252.496184 7.2 
" clip-path="url(#pfec9307600)" style="fill: none; stroke: #d9d9d9; stroke-width: 0.4; stroke-linecap: square"/>
   </g>
   <g id="line2d_12">
    <path d="M 270.133 116.72 
L 270.133 7.2 
" clip-path="url(#pfec9307600)" style="fill: none; stroke: #d9d9d9; stroke-width: 0.4; stroke-linecap: square"/>
   </g>
   <g id="line2d_13">
    <path d="M 287.769816 116.72 
L 287.769816 7.2 
" clip-path="url(#pfec9307600)" style="fill: none; stroke: #d9d9d9; stroke-width: 0.4; stroke-linecap: square"/>
   </g>
   <g id="line2d_14">
    <path d="M 305.406633 116.72 
L 305.406633 7.2 
" clip-path="url(#pfec9307600)" style="fill: none; stroke: #d9d9d9; stroke-width: 0.4; stroke-linecap: square"/>
   </g>
   <g id="line2d_15">
    <path d="M 323.043449 116.72 
L 323.043449 7.2 
" clip-path="url(#pfec9307600)" style="fill: none; stroke: #d9d9d9; stroke-width: 0.4; stroke-linecap: square"/>
   </g>
   <g id="matplotlib.axis_1">
    <g id="xtick_1">
     <g id="line2d_16">
      <defs>
       <path id="m53308d3a2d" d="M 0 0 
L 0 3.5 
" style="stroke: #000000; stroke-width: 0.8"/>
      </defs>
      <g>
       <use xlink:href="#m53308d3a2d" x="58.491203" y="116.72" style="stroke: #000000; stroke-width: 0.8"/>
      </g>
     </g>
    </g>
    <g id="xtick_2">
     <g id="line2d_17">
      <g>
       <use xlink:href="#m53308d3a2d" x="113.606254" y="116.72" style="stroke: #000000; stroke-width: 0.8"/>
      </g>
     </g>
    </g>
    <g id="xtick_3">
     <g id="line2d_18">
      <g>
       <use xlink:href="#m53308d3a2d" x="168.721306" y="116.72" style="stroke: #000000; stroke-width: 0.8"/>
      </g>
     </g>
    </g>
    <g id="xtick_4">
     <g id="line2d_19">
      <g>
       <use xlink:href="#m53308d3a2d" x="223.836357" y="116.72" style="stroke: #000000; stroke-width: 0.8"/>
      </g>
     </g>
    </g>
    <g id="xtick_5">
     <g id="line2d_20">
      <g>
       <use xlink:href="#m53308d3a2d" x="278.951408" y="116.72" style="stroke: #000000; stroke-width: 0.8"/>
      </g>
     </g>
    </g>
    <g id="xtick_6">
     <g id="line2d_21">
      <g>
       <use xlink:href="#m53308d3a2d" x="334.066459" y="116.72" style="stroke: #000000; stroke-width: 0.8"/>
      </g>
     </g>
    </g>
   </g>
   <g id="matplotlib.axis_2">
    <g id="ytick_1">
     <g id="line2d_22">
      <defs>
       <path id="ma73223095e" d="M 0 0 
L -3.5 0 
" style="stroke: #000000; stroke-width: 0.8"/>
      </defs>
      <g>
       <use xlink:href="#ma73223095e" x="58.491203" y="116.72" style="stroke: #000000; stroke-width: 0.8"/>
      </g>
     </g>
     <g id="text_1">
      <!-- 0.0 -->
      <g transform="translate(35.588078 120.519219) scale(0.1 -0.1)">
       <defs>
        <path id="DejaVuSans-30" d="M 2034 4250 
Q 1547 4250 1301 3770 
Q 1056 3291 1056 2328 
Q 1056 1369 1301 889 
Q 1547 409 2034 409 
Q 2525 409 2770 889 
Q 3016 1369 3016 2328 
Q 3016 3291 2770 3770 
Q 2525 4250 2034 4250 
z
M 2034 4750 
Q 2819 4750 3233 4129 
Q 3647 3509 3647 2328 
Q 3647 1150 3233 529 
Q 2819 -91 2034 -91 
Q 1250 -91 836 529 
Q 422 1150 422 2328 
Q 422 3509 836 4129 
Q 1250 4750 2034 4750 
z
" transform="scale(0.015625)"/>
        <path id="DejaVuSans-2e" d="M 684 794 
L 1344 794 
L 1344 0 
L 684 0 
L 684 794 
z
" transform="scale(0.015625)"/>
       </defs>
       <use xlink:href="#DejaVuSans-30"/>
       <use xlink:href="#DejaVuSans-2e" transform="translate(63.623047 0)"/>
       <use xlink:href="#DejaVuSans-30" transform="translate(95.410156 0)"/>
      </g>
     </g>
    </g>
    <g id="ytick_2">
     <g id="line2d_23">
      <g>
       <use xlink:href="#ma73223095e" x="58.491203" y="78.954483" style="stroke: #000000; stroke-width: 0.8"/>
      </g>
     </g>
     <g id="text_2">
      <!-- 0.5 -->
      <g transform="translate(35.588078 82.753702) scale(0.1 -0.1)">
       <defs>
        <path id="DejaVuSans-35" d="M 691 4666 
L 3169 4666 
L 3169 4134 
L 1269 4134 
L 1269 2991 
Q 1406 3038 1543 3061 
Q 1681 3084 1819 3084 
Q 2600 3084 3056 2656 
Q 3513 2228 3513 1497 
Q 3513 744 3044 326 
Q 2575 -91 1722 -91 
Q 1428 -91 1123 -41 
Q 819 9 494 109 
L 494 744 
Q 775 591 1075 516 
Q 1375 441 1709 441 
Q 2250 441 2565 725 
Q 2881 1009 2881 1497 
Q 2881 1984 2565 2268 
Q 2250 2553 1709 2553 
Q 1456 2553 1204 2497 
Q 953 2441 691 2322 
L 691 4666 
z
" transform="scale(0.015625)"/>
       </defs>
       <use xlink:href="#DejaVuSans-30"/>
       <use xlink:href="#DejaVuSans-2e" transform="translate(63.623047 0)"/>
       <use xlink:href="#DejaVuSans-35" transform="translate(95.410156 0)"/>
      </g>
     </g>
    </g>
    <g id="ytick_3">
     <g id="line2d_24">
      <g>
       <use xlink:href="#ma73223095e" x="58.491203" y="41.188966" style="stroke: #000000; stroke-width: 0.8"/>
      </g>
     </g>
     <g id="text_3">
      <!-- 1.0 -->
      <g transform="translate(35.588078 44.988184) scale(0.1 -0.1)">
       <defs>
        <path id="DejaVuSans-31" d="M 794 531 
L 1825 531 
L 1825 4091 
L 703 3866 
L 703 4441 
L 1819 4666 
L 2450 4666 
L 2450 531 
L 3481 531 
L 3481 0 
L 794 0 
L 794 531 
z
" transform="scale(0.015625)"/>
       </defs>
       <use xlink:href="#DejaVuSans-31"/>
       <use xlink:href="#DejaVuSans-2e" transform="translate(63.623047 0)"/>
       <use xlink:href="#DejaVuSans-30" transform="translate(95.410156 0)"/>
      </g>
     </g>
    </g>
    <g id="text_4">
     <!-- input -->
     <g transform="translate(20.302203 72.891797) rotate(-90) scale(0.085 -0.085)">
      <defs>
       <path id="DejaVuSans-69" d="M 603 3500 
L 1178 3500 
L 1178 0 
L 603 0 
L 603 3500 
z
M 603 4863 
L 1178 4863 
L 1178 4134 
L 603 4134 
L 603 4863 
z
" transform="scale(0.015625)"/>
       <path id="DejaVuSans-6e" d="M 3513 2113 
L 3513 0 
L 2938 0 
L 2938 2094 
Q 2938 2591 2744 2837 
Q 2550 3084 2163 3084 
Q 1697 3084 1428 2787 
Q 1159 2491 1159 1978 
L 1159 0 
L 581 0 
L 581 3500 
L 1159 3500 
L 1159 2956 
Q 1366 3272 1645 3428 
Q 1925 3584 2291 3584 
Q 2894 3584 3203 3211 
Q 3513 2838 3513 2113 
z
" transform="scale(0.015625)"/>
       <path id="DejaVuSans-70" d="M 1159 525 
L 1159 -1331 
L 581 -1331 
L 581 3500 
L 1159 3500 
L 1159 2969 
Q 1341 3281 1617 3432 
Q 1894 3584 2278 3584 
Q 2916 3584 3314 3078 
Q 3713 2572 3713 1747 
Q 3713 922 3314 415 
Q 2916 -91 2278 -91 
Q 1894 -91 1617 61 
Q 1341 213 1159 525 
z
M 3116 1747 
Q 3116 2381 2855 2742 
Q 2594 3103 2138 3103 
Q 1681 3103 1420 2742 
Q 1159 2381 1159 1747 
Q 1159 1113 1420 752 
Q 1681 391 2138 391 
Q 2594 391 2855 752 
Q 3116 1113 3116 1747 
z
" transform="scale(0.015625)"/>
       <path id="DejaVuSans-75" d="M 544 1381 
L 544 3500 
L 1119 3500 
L 1119 1403 
Q 1119 906 1312 657 
Q 1506 409 1894 409 
Q 2359 409 2629 706 
Q 2900 1003 2900 1516 
L 2900 3500 
L 3475 3500 
L 3475 0 
L 2900 0 
L 2900 538 
Q 2691 219 2414 64 
Q 2138 -91 1772 -91 
Q 1169 -91 856 284 
Q 544 659 544 1381 
z
M 1991 3584 
L 1991 3584 
z
" transform="scale(0.015625)"/>
       <path id="DejaVuSans-74" d="M 1172 4494 
L 1172 3500 
L 2356 3500 
L 2356 3053 
L 1172 3053 
L 1172 1153 
Q 1172 725 1289 603 
Q 1406 481 1766 481 
L 2356 481 
L 2356 0 
L 1766 0 
Q 1100 0 847 248 
Q 594 497 594 1153 
L 594 3053 
L 172 3053 
L 172 3500 
L 594 3500 
L 594 4494 
L 1172 4494 
z
" transform="scale(0.015625)"/>
      </defs>
      <use xlink:href="#DejaVuSans-69"/>
      <use xlink:href="#DejaVuSans-6e" transform="translate(27.783203 0)"/>
      <use xlink:href="#DejaVuSans-70" transform="translate(91.162109 0)"/>
      <use xlink:href="#DejaVuSans-75" transform="translate(154.638672 0)"/>
      <use xlink:href="#DejaVuSans-74" transform="translate(218.017578 0)"/>
     </g>
     <!-- (one pixel) -->
     <g transform="translate(29.820344 84.593242) rotate(-90) scale(0.085 -0.085)">
      <defs>
       <path id="DejaVuSans-28" d="M 1984 4856 
Q 1566 4138 1362 3434 
Q 1159 2731 1159 2009 
Q 1159 1288 1364 580 
Q 1569 -128 1984 -844 
L 1484 -844 
Q 1016 -109 783 600 
Q 550 1309 550 2009 
Q 550 2706 781 3412 
Q 1013 4119 1484 4856 
L 1984 4856 
z
" transform="scale(0.015625)"/>
       <path id="DejaVuSans-6f" d="M 1959 3097 
Q 1497 3097 1228 2736 
Q 959 2375 959 1747 
Q 959 1119 1226 758 
Q 1494 397 1959 397 
Q 2419 397 2687 759 
Q 2956 1122 2956 1747 
Q 2956 2369 2687 2733 
Q 2419 3097 1959 3097 
z
M 1959 3584 
Q 2709 3584 3137 3096 
Q 3566 2609 3566 1747 
Q 3566 888 3137 398 
Q 2709 -91 1959 -91 
Q 1206 -91 779 398 
Q 353 888 353 1747 
Q 353 2609 779 3096 
Q 1206 3584 1959 3584 
z
" transform="scale(0.015625)"/>
       <path id="DejaVuSans-65" d="M 3597 1894 
L 3597 1613 
L 953 1613 
Q 991 1019 1311 708 
Q 1631 397 2203 397 
Q 2534 397 2845 478 
Q 3156 559 3463 722 
L 3463 178 
Q 3153 47 2828 -22 
Q 2503 -91 2169 -91 
Q 1331 -91 842 396 
Q 353 884 353 1716 
Q 353 2575 817 3079 
Q 1281 3584 2069 3584 
Q 2775 3584 3186 3129 
Q 3597 2675 3597 1894 
z
M 3022 2063 
Q 3016 2534 2758 2815 
Q 2500 3097 2075 3097 
Q 1594 3097 1305 2825 
Q 1016 2553 972 2059 
L 3022 2063 
z
" transform="scale(0.015625)"/>
       <path id="DejaVuSans-20" transform="scale(0.015625)"/>
       <path id="DejaVuSans-78" d="M 3513 3500 
L 2247 1797 
L 3578 0 
L 2900 0 
L 1881 1375 
L 863 0 
L 184 0 
L 1544 1831 
L 300 3500 
L 978 3500 
L 1906 2253 
L 2834 3500 
L 3513 3500 
z
" transform="scale(0.015625)"/>
       <path id="DejaVuSans-6c" d="M 603 4863 
L 1178 4863 
L 1178 0 
L 603 0 
L 603 4863 
z
" transform="scale(0.015625)"/>
       <path id="DejaVuSans-29" d="M 513 4856 
L 1013 4856 
Q 1481 4119 1714 3412 
Q 1947 2706 1947 2009 
Q 1947 1309 1714 600 
Q 1481 -109 1013 -844 
L 513 -844 
Q 928 -128 1133 580 
Q 1338 1288 1338 2009 
Q 1338 2731 1133 3434 
Q 928 4138 513 4856 
z
" transform="scale(0.015625)"/>
      </defs>
      <use xlink:href="#DejaVuSans-28"/>
      <use xlink:href="#DejaVuSans-6f" transform="translate(39.013672 0)"/>
      <use xlink:href="#DejaVuSans-6e" transform="translate(100.195312 0)"/>
      <use xlink:href="#DejaVuSans-65" transform="translate(163.574219 0)"/>
      <use xlink:href="#DejaVuSans-20" transform="translate(225.097656 0)"/>
      <use xlink:href="#DejaVuSans-70" transform="translate(256.884766 0)"/>
      <use xlink:href="#DejaVuSans-69" transform="translate(320.361328 0)"/>
      <use xlink:href="#DejaVuSans-78" transform="translate(348.144531 0)"/>
      <use xlink:href="#DejaVuSans-65" transform="translate(404.199219 0)"/>
      <use xlink:href="#DejaVuSans-6c" transform="translate(465.722656 0)"/>
      <use xlink:href="#DejaVuSans-29" transform="translate(493.505859 0)"/>
     </g>
    </g>
   </g>
   <g id="LineCollection_1">
    <path d="M 102.583244 116.72 
L 102.583244 41.188966 
" clip-path="url(#pfec9307600)" style="fill: none; stroke: #0072b2; stroke-width: 2"/>
   </g>
   <g id="LineCollection_2">
    <path d="M 190.767326 116.72 
L 190.767326 41.188966 
" clip-path="url(#pfec9307600)" style="fill: none; stroke: #e69f00; stroke-width: 2"/>
   </g>
   <g id="LineCollection_3">
    <path d="M 289.974418 116.72 
L 289.974418 41.188966 
" clip-path="url(#pfec9307600)" style="fill: none; stroke: #009e73; stroke-width: 2"/>
   </g>
   <g id="patch_3">
    <path d="M 58.491203 116.72 
L 58.491203 7.2 
" style="fill: none; stroke: #000000; stroke-width: 0.8; stroke-linejoin: miter; stroke-linecap: square"/>
   </g>
   <g id="patch_4">
    <path d="M 340.680266 116.72 
L 340.680266 7.2 
" style="fill: none; stroke: #000000; stroke-width: 0.8; stroke-linejoin: miter; stroke-linecap: square"/>
   </g>
   <g id="patch_5">
    <path d="M 58.491203 116.72 
L 340.680266 116.72 
" style="fill: none; stroke: #000000; stroke-width: 0.8; stroke-linejoin: miter; stroke-linecap: square"/>
   </g>
   <g id="patch_6">
    <path d="M 58.491203 7.2 
L 340.680266 7.2 
" style="fill: none; stroke: #000000; stroke-width: 0.8; stroke-linejoin: miter; stroke-linecap: square"/>
   </g>
   <g id="legend_1">
    <g id="line2d_25">
     <path d="M 79.580078 16.106937 
L 86.380078 16.106937 
" style="fill: none; stroke: #0072b2; stroke-width: 2"/>
    </g>
    <g id="text_5">
     <!-- pixel 40 (block 2) -->
     <g transform="translate(91.820078 18.486937) scale(0.068 -0.068)">
      <defs>
       <path id="DejaVuSans-34" d="M 2419 4116 
L 825 1625 
L 2419 1625 
L 2419 4116 
z
M 2253 4666 
L 3047 4666 
L 3047 1625 
L 3713 1625 
L 3713 1100 
L 3047 1100 
L 3047 0 
L 2419 0 
L 2419 1100 
L 313 1100 
L 313 1709 
L 2253 4666 
z
" transform="scale(0.015625)"/>
       <path id="DejaVuSans-62" d="M 3116 1747 
Q 3116 2381 2855 2742 
Q 2594 3103 2138 3103 
Q 1681 3103 1420 2742 
Q 1159 2381 1159 1747 
Q 1159 1113 1420 752 
Q 1681 391 2138 391 
Q 2594 391 2855 752 
Q 3116 1113 3116 1747 
z
M 1159 2969 
Q 1341 3281 1617 3432 
Q 1894 3584 2278 3584 
Q 2916 3584 3314 3078 
Q 3713 2572 3713 1747 
Q 3713 922 3314 415 
Q 2916 -91 2278 -91 
Q 1894 -91 1617 61 
Q 1341 213 1159 525 
L 1159 0 
L 581 0 
L 581 4863 
L 1159 4863 
L 1159 2969 
z
" transform="scale(0.015625)"/>
       <path id="DejaVuSans-63" d="M 3122 3366 
L 3122 2828 
Q 2878 2963 2633 3030 
Q 2388 3097 2138 3097 
Q 1578 3097 1268 2742 
Q 959 2388 959 1747 
Q 959 1106 1268 751 
Q 1578 397 2138 397 
Q 2388 397 2633 464 
Q 2878 531 3122 666 
L 3122 134 
Q 2881 22 2623 -34 
Q 2366 -91 2075 -91 
Q 1284 -91 818 406 
Q 353 903 353 1747 
Q 353 2603 823 3093 
Q 1294 3584 2113 3584 
Q 2378 3584 2631 3529 
Q 2884 3475 3122 3366 
z
" transform="scale(0.015625)"/>
       <path id="DejaVuSans-6b" d="M 581 4863 
L 1159 4863 
L 1159 1991 
L 2875 3500 
L 3609 3500 
L 1753 1863 
L 3688 0 
L 2938 0 
L 1159 1709 
L 1159 0 
L 581 0 
L 581 4863 
z
" transform="scale(0.015625)"/>
       <path id="DejaVuSans-32" d="M 1228 531 
L 3431 531 
L 3431 0 
L 469 0 
L 469 531 
Q 828 903 1448 1529 
Q 2069 2156 2228 2338 
Q 2531 2678 2651 2914 
Q 2772 3150 2772 3378 
Q 2772 3750 2511 3984 
Q 2250 4219 1831 4219 
Q 1534 4219 1204 4116 
Q 875 4013 500 3803 
L 500 4441 
Q 881 4594 1212 4672 
Q 1544 4750 1819 4750 
Q 2544 4750 2975 4387 
Q 3406 4025 3406 3419 
Q 3406 3131 3298 2873 
Q 3191 2616 2906 2266 
Q 2828 2175 2409 1742 
Q 1991 1309 1228 531 
z
" transform="scale(0.015625)"/>
      </defs>
      <use xlink:href="#DejaVuSans-70"/>
      <use xlink:href="#DejaVuSans-69" transform="translate(63.476562 0)"/>
      <use xlink:href="#DejaVuSans-78" transform="translate(91.259766 0)"/>
      <use xlink:href="#DejaVuSans-65" transform="translate(147.314453 0)"/>
      <use xlink:href="#DejaVuSans-6c" transform="translate(208.837891 0)"/>
      <use xlink:href="#DejaVuSans-20" transform="translate(236.621094 0)"/>
      <use xlink:href="#DejaVuSans-34" transform="translate(268.408203 0)"/>
      <use xlink:href="#DejaVuSans-30" transform="translate(332.03125 0)"/>
      <use xlink:href="#DejaVuSans-20" transform="translate(395.654297 0)"/>
      <use xlink:href="#DejaVuSans-28" transform="translate(427.441406 0)"/>
      <use xlink:href="#DejaVuSans-62" transform="translate(466.455078 0)"/>
      <use xlink:href="#DejaVuSans-6c" transform="translate(529.931641 0)"/>
      <use xlink:href="#DejaVuSans-6f" transform="translate(557.714844 0)"/>
      <use xlink:href="#DejaVuSans-63" transform="translate(618.896484 0)"/>
      <use xlink:href="#DejaVuSans-6b" transform="translate(673.876953 0)"/>
      <use xlink:href="#DejaVuSans-20" transform="translate(731.787109 0)"/>
      <use xlink:href="#DejaVuSans-32" transform="translate(763.574219 0)"/>
      <use xlink:href="#DejaVuSans-29" transform="translate(827.197266 0)"/>
     </g>
    </g>
    <g id="line2d_26">
     <path d="M 157.524016 16.106937 
L 164.324016 16.106937 
" style="fill: none; stroke: #e69f00; stroke-width: 2"/>
    </g>
    <g id="text_6">
     <!-- pixel 120 (block 7) -->
     <g transform="translate(169.764016 18.486937) scale(0.068 -0.068)">
      <defs>
       <path id="DejaVuSans-37" d="M 525 4666 
L 3525 4666 
L 3525 4397 
L 1831 0 
L 1172 0 
L 2766 4134 
L 525 4134 
L 525 4666 
z
" transform="scale(0.015625)"/>
      </defs>
      <use xlink:href="#DejaVuSans-70"/>
      <use xlink:href="#DejaVuSans-69" transform="translate(63.476562 0)"/>
      <use xlink:href="#DejaVuSans-78" transform="translate(91.259766 0)"/>
      <use xlink:href="#DejaVuSans-65" transform="translate(147.314453 0)"/>
      <use xlink:href="#DejaVuSans-6c" transform="translate(208.837891 0)"/>
      <use xlink:href="#DejaVuSans-20" transform="translate(236.621094 0)"/>
      <use xlink:href="#DejaVuSans-31" transform="translate(268.408203 0)"/>
      <use xlink:href="#DejaVuSans-32" transform="translate(332.03125 0)"/>
      <use xlink:href="#DejaVuSans-30" transform="translate(395.654297 0)"/>
      <use xlink:href="#DejaVuSans-20" transform="translate(459.277344 0)"/>
      <use xlink:href="#DejaVuSans-28" transform="translate(491.064453 0)"/>
      <use xlink:href="#DejaVuSans-62" transform="translate(530.078125 0)"/>
      <use xlink:href="#DejaVuSans-6c" transform="translate(593.554688 0)"/>
      <use xlink:href="#DejaVuSans-6f" transform="translate(621.337891 0)"/>
      <use xlink:href="#DejaVuSans-63" transform="translate(682.519531 0)"/>
      <use xlink:href="#DejaVuSans-6b" transform="translate(737.5 0)"/>
      <use xlink:href="#DejaVuSans-20" transform="translate(795.410156 0)"/>
      <use xlink:href="#DejaVuSans-37" transform="translate(827.197266 0)"/>
      <use xlink:href="#DejaVuSans-29" transform="translate(890.820312 0)"/>
     </g>
    </g>
    <g id="line2d_27">
     <path d="M 239.794453 16.106937 
L 246.594453 16.106937 
" style="fill: none; stroke: #009e73; stroke-width: 2"/>
    </g>
    <g id="text_7">
     <!-- pixel 210 (block 13) -->
     <g transform="translate(252.034453 18.486937) scale(0.068 -0.068)">
      <defs>
       <path id="DejaVuSans-33" d="M 2597 2516 
Q 3050 2419 3304 2112 
Q 3559 1806 3559 1356 
Q 3559 666 3084 287 
Q 2609 -91 1734 -91 
Q 1441 -91 1130 -33 
Q 819 25 488 141 
L 488 750 
Q 750 597 1062 519 
Q 1375 441 1716 441 
Q 2309 441 2620 675 
Q 2931 909 2931 1356 
Q 2931 1769 2642 2001 
Q 2353 2234 1838 2234 
L 1294 2234 
L 1294 2753 
L 1863 2753 
Q 2328 2753 2575 2939 
Q 2822 3125 2822 3475 
Q 2822 3834 2567 4026 
Q 2313 4219 1838 4219 
Q 1578 4219 1281 4162 
Q 984 4106 628 3988 
L 628 4550 
Q 988 4650 1302 4700 
Q 1616 4750 1894 4750 
Q 2613 4750 3031 4423 
Q 3450 4097 3450 3541 
Q 3450 3153 3228 2886 
Q 3006 2619 2597 2516 
z
" transform="scale(0.015625)"/>
      </defs>
      <use xlink:href="#DejaVuSans-70"/>
      <use xlink:href="#DejaVuSans-69" transform="translate(63.476562 0)"/>
      <use xlink:href="#DejaVuSans-78" transform="translate(91.259766 0)"/>
      <use xlink:href="#DejaVuSans-65" transform="translate(147.314453 0)"/>
      <use xlink:href="#DejaVuSans-6c" transform="translate(208.837891 0)"/>
      <use xlink:href="#DejaVuSans-20" transform="translate(236.621094 0)"/>
      <use xlink:href="#DejaVuSans-32" transform="translate(268.408203 0)"/>
      <use xlink:href="#DejaVuSans-31" transform="translate(332.03125 0)"/>
      <use xlink:href="#DejaVuSans-30" transform="translate(395.654297 0)"/>
      <use xlink:href="#DejaVuSans-20" transform="translate(459.277344 0)"/>
      <use xlink:href="#DejaVuSans-28" transform="translate(491.064453 0)"/>
      <use xlink:href="#DejaVuSans-62" transform="translate(530.078125 0)"/>
      <use xlink:href="#DejaVuSans-6c" transform="translate(593.554688 0)"/>
      <use xlink:href="#DejaVuSans-6f" transform="translate(621.337891 0)"/>
      <use xlink:href="#DejaVuSans-63" transform="translate(682.519531 0)"/>
      <use xlink:href="#DejaVuSans-6b" transform="translate(737.5 0)"/>
      <use xlink:href="#DejaVuSans-20" transform="translate(795.410156 0)"/>
      <use xlink:href="#DejaVuSans-31" transform="translate(827.197266 0)"/>
      <use xlink:href="#DejaVuSans-33" transform="translate(890.820312 0)"/>
      <use xlink:href="#DejaVuSans-29" transform="translate(954.443359 0)"/>
     </g>
    </g>
   </g>
  </g>
  <g id="axes_2">
   <g id="patch_7">
    <path d="M 58.491203 243.16 
L 340.680266 243.16 
L 340.680266 133.64 
L 58.491203 133.64 
z
" style="fill: #ffffff"/>
   </g>
   <g id="line2d_28">
    <path d="M 76.12802 243.16 
L 76.12802 133.64 
" clip-path="url(#p20e57f4cf6)" style="fill: none; stroke: #d9d9d9; stroke-width: 0.4; stroke-linecap: square"/>
   </g>
   <g id="line2d_29">
    <path d="M 93.764836 243.16 
L 93.764836 133.64 
" clip-path="url(#p20e57f4cf6)" style="fill: none; stroke: #d9d9d9; stroke-width: 0.4; stroke-linecap: square"/>
   </g>
   <g id="line2d_30">
    <path d="M 111.401652 243.16 
L 111.401652 133.64 
" clip-path="url(#p20e57f4cf6)" style="fill: none; stroke: #d9d9d9; stroke-width: 0.4; stroke-linecap: square"/>
   </g>
   <g id="line2d_31">
    <path d="M 129.038469 243.16 
L 129.038469 133.64 
" clip-path="url(#p20e57f4cf6)" style="fill: none; stroke: #d9d9d9; stroke-width: 0.4; stroke-linecap: square"/>
   </g>
   <g id="line2d_32">
    <path d="M 146.675285 243.16 
L 146.675285 133.64 
" clip-path="url(#p20e57f4cf6)" style="fill: none; stroke: #d9d9d9; stroke-width: 0.4; stroke-linecap: square"/>
   </g>
   <g id="line2d_33">
    <path d="M 164.312102 243.16 
L 164.312102 133.64 
" clip-path="url(#p20e57f4cf6)" style="fill: none; stroke: #d9d9d9; stroke-width: 0.4; stroke-linecap: square"/>
   </g>
   <g id="line2d_34">
    <path d="M 181.948918 243.16 
L 181.948918 133.64 
" clip-path="url(#p20e57f4cf6)" style="fill: none; stroke: #d9d9d9; stroke-width: 0.4; stroke-linecap: square"/>
   </g>
   <g id="line2d_35">
    <path d="M 199.585734 243.16 
L 199.585734 133.64 
" clip-path="url(#p20e57f4cf6)" style="fill: none; stroke: #d9d9d9; stroke-width: 0.4; stroke-linecap: square"/>
   </g>
   <g id="line2d_36">
    <path d="M 217.222551 243.16 
L 217.222551 133.64 
" clip-path="url(#p20e57f4cf6)" style="fill: none; stroke: #d9d9d9; stroke-width: 0.4; stroke-linecap: square"/>
   </g>
   <g id="line2d_37">
    <path d="M 234.859367 243.16 
L 234.859367 133.64 
" clip-path="url(#p20e57f4cf6)" style="fill: none; stroke: #d9d9d9; stroke-width: 0.4; stroke-linecap: square"/>
   </g>
   <g id="line2d_38">
    <path d="M 252.496184 243.16 
L 252.496184 133.64 
" clip-path="url(#p20e57f4cf6)" style="fill: none; stroke: #d9d9d9; stroke-width: 0.4; stroke-linecap: square"/>
   </g>
   <g id="line2d_39">
    <path d="M 270.133 243.16 
L 270.133 133.64 
" clip-path="url(#p20e57f4cf6)" style="fill: none; stroke: #d9d9d9; stroke-width: 0.4; stroke-linecap: square"/>
   </g>
   <g id="line2d_40">
    <path d="M 287.769816 243.16 
L 287.769816 133.64 
" clip-path="url(#p20e57f4cf6)" style="fill: none; stroke: #d9d9d9; stroke-width: 0.4; stroke-linecap: square"/>
   </g>
   <g id="line2d_41">
    <path d="M 305.406633 243.16 
L 305.406633 133.64 
" clip-path="url(#p20e57f4cf6)" style="fill: none; stroke: #d9d9d9; stroke-width: 0.4; stroke-linecap: square"/>
   </g>
   <g id="line2d_42">
    <path d="M 323.043449 243.16 
L 323.043449 133.64 
" clip-path="url(#p20e57f4cf6)" style="fill: none; stroke: #d9d9d9; stroke-width: 0.4; stroke-linecap: square"/>
   </g>
   <g id="patch_8">
    <path d="M 252.496184 243.16 
L 270.133 243.16 
L 270.133 133.64 
L 252.496184 133.64 
z
" clip-path="url(#p20e57f4cf6)" style="fill: #0072b2; opacity: 0.12; stroke: #0072b2; stroke-linejoin: miter"/>
   </g>
   <g id="patch_9">
    <path d="M 305.406633 243.16 
L 323.043449 243.16 
L 323.043449 133.64 
L 305.406633 133.64 
z
" clip-path="url(#p20e57f4cf6)" style="fill: #e69f00; opacity: 0.12; stroke: #e69f00; stroke-linejoin: miter"/>
   </g>
   <g id="patch_10">
    <path d="M 129.038469 243.16 
L 146.675285 243.16 
L 146.675285 133.64 
L 129.038469 133.64 
z
" clip-path="url(#p20e57f4cf6)" style="fill: #009e73; opacity: 0.12; stroke: #009e73; stroke-linejoin: miter"/>
   </g>
   <g id="matplotlib.axis_3">
    <g id="xtick_7">
     <g id="line2d_43">
      <g>
       <use xlink:href="#m53308d3a2d" x="58.491203" y="243.16" style="stroke: #000000; stroke-width: 0.8"/>
      </g>
     </g>
     <g id="text_8">
      <!-- 0 -->
      <g transform="translate(55.309953 257.758437) scale(0.1 -0.1)">
       <use xlink:href="#DejaVuSans-30"/>
      </g>
     </g>
    </g>
    <g id="xtick_8">
     <g id="line2d_44">
      <g>
       <use xlink:href="#m53308d3a2d" x="113.606254" y="243.16" style="stroke: #000000; stroke-width: 0.8"/>
      </g>
     </g>
     <g id="text_9">
      <!-- 50 -->
      <g transform="translate(107.243754 257.758437) scale(0.1 -0.1)">
       <use xlink:href="#DejaVuSans-35"/>
       <use xlink:href="#DejaVuSans-30" transform="translate(63.623047 0)"/>
      </g>
     </g>
    </g>
    <g id="xtick_9">
     <g id="line2d_45">
      <g>
       <use xlink:href="#m53308d3a2d" x="168.721306" y="243.16" style="stroke: #000000; stroke-width: 0.8"/>
      </g>
     </g>
     <g id="text_10">
      <!-- 100 -->
      <g transform="translate(159.177556 257.758437) scale(0.1 -0.1)">
       <use xlink:href="#DejaVuSans-31"/>
       <use xlink:href="#DejaVuSans-30" transform="translate(63.623047 0)"/>
       <use xlink:href="#DejaVuSans-30" transform="translate(127.246094 0)"/>
      </g>
     </g>
    </g>
    <g id="xtick_10">
     <g id="line2d_46">
      <g>
       <use xlink:href="#m53308d3a2d" x="223.836357" y="243.16" style="stroke: #000000; stroke-width: 0.8"/>
      </g>
     </g>
     <g id="text_11">
      <!-- 150 -->
      <g transform="translate(214.292607 257.758437) scale(0.1 -0.1)">
       <use xlink:href="#DejaVuSans-31"/>
       <use xlink:href="#DejaVuSans-35" transform="translate(63.623047 0)"/>
       <use xlink:href="#DejaVuSans-30" transform="translate(127.246094 0)"/>
      </g>
     </g>
    </g>
    <g id="xtick_11">
     <g id="line2d_47">
      <g>
       <use xlink:href="#m53308d3a2d" x="278.951408" y="243.16" style="stroke: #000000; stroke-width: 0.8"/>
      </g>
     </g>
     <g id="text_12">
      <!-- 200 -->
      <g transform="translate(269.407658 257.758437) scale(0.1 -0.1)">
       <use xlink:href="#DejaVuSans-32"/>
       <use xlink:href="#DejaVuSans-30" transform="translate(63.623047 0)"/>
       <use xlink:href="#DejaVuSans-30" transform="translate(127.246094 0)"/>
      </g>
     </g>
    </g>
    <g id="xtick_12">
     <g id="line2d_48">
      <g>
       <use xlink:href="#m53308d3a2d" x="334.066459" y="243.16" style="stroke: #000000; stroke-width: 0.8"/>
      </g>
     </g>
     <g id="text_13">
      <!-- 250 -->
      <g transform="translate(324.522709 257.758437) scale(0.1 -0.1)">
       <use xlink:href="#DejaVuSans-32"/>
       <use xlink:href="#DejaVuSans-35" transform="translate(63.623047 0)"/>
       <use xlink:href="#DejaVuSans-30" transform="translate(127.246094 0)"/>
      </g>
     </g>
    </g>
    <g id="text_14">
     <!-- pixel / coefficient index (16-pixel blocks) -->
     <g transform="translate(113.691242 270.296797) scale(0.085 -0.085)">
      <defs>
       <path id="DejaVuSans-2f" d="M 1625 4666 
L 2156 4666 
L 531 -594 
L 0 -594 
L 1625 4666 
z
" transform="scale(0.015625)"/>
       <path id="DejaVuSans-66" d="M 2375 4863 
L 2375 4384 
L 1825 4384 
Q 1516 4384 1395 4259 
Q 1275 4134 1275 3809 
L 1275 3500 
L 2222 3500 
L 2222 3053 
L 1275 3053 
L 1275 0 
L 697 0 
L 697 3053 
L 147 3053 
L 147 3500 
L 697 3500 
L 697 3744 
Q 697 4328 969 4595 
Q 1241 4863 1831 4863 
L 2375 4863 
z
" transform="scale(0.015625)"/>
       <path id="DejaVuSans-64" d="M 2906 2969 
L 2906 4863 
L 3481 4863 
L 3481 0 
L 2906 0 
L 2906 525 
Q 2725 213 2448 61 
Q 2172 -91 1784 -91 
Q 1150 -91 751 415 
Q 353 922 353 1747 
Q 353 2572 751 3078 
Q 1150 3584 1784 3584 
Q 2172 3584 2448 3432 
Q 2725 3281 2906 2969 
z
M 947 1747 
Q 947 1113 1208 752 
Q 1469 391 1925 391 
Q 2381 391 2643 752 
Q 2906 1113 2906 1747 
Q 2906 2381 2643 2742 
Q 2381 3103 1925 3103 
Q 1469 3103 1208 2742 
Q 947 2381 947 1747 
z
" transform="scale(0.015625)"/>
       <path id="DejaVuSans-36" d="M 2113 2584 
Q 1688 2584 1439 2293 
Q 1191 2003 1191 1497 
Q 1191 994 1439 701 
Q 1688 409 2113 409 
Q 2538 409 2786 701 
Q 3034 994 3034 1497 
Q 3034 2003 2786 2293 
Q 2538 2584 2113 2584 
z
M 3366 4563 
L 3366 3988 
Q 3128 4100 2886 4159 
Q 2644 4219 2406 4219 
Q 1781 4219 1451 3797 
Q 1122 3375 1075 2522 
Q 1259 2794 1537 2939 
Q 1816 3084 2150 3084 
Q 2853 3084 3261 2657 
Q 3669 2231 3669 1497 
Q 3669 778 3244 343 
Q 2819 -91 2113 -91 
Q 1303 -91 875 529 
Q 447 1150 447 2328 
Q 447 3434 972 4092 
Q 1497 4750 2381 4750 
Q 2619 4750 2861 4703 
Q 3103 4656 3366 4563 
z
" transform="scale(0.015625)"/>
       <path id="DejaVuSans-2d" d="M 313 2009 
L 1997 2009 
L 1997 1497 
L 313 1497 
L 313 2009 
z
" transform="scale(0.015625)"/>
       <path id="DejaVuSans-73" d="M 2834 3397 
L 2834 2853 
Q 2591 2978 2328 3040 
Q 2066 3103 1784 3103 
Q 1356 3103 1142 2972 
Q 928 2841 928 2578 
Q 928 2378 1081 2264 
Q 1234 2150 1697 2047 
L 1894 2003 
Q 2506 1872 2764 1633 
Q 3022 1394 3022 966 
Q 3022 478 2636 193 
Q 2250 -91 1575 -91 
Q 1294 -91 989 -36 
Q 684 19 347 128 
L 347 722 
Q 666 556 975 473 
Q 1284 391 1588 391 
Q 1994 391 2212 530 
Q 2431 669 2431 922 
Q 2431 1156 2273 1281 
Q 2116 1406 1581 1522 
L 1381 1569 
Q 847 1681 609 1914 
Q 372 2147 372 2553 
Q 372 3047 722 3315 
Q 1072 3584 1716 3584 
Q 2034 3584 2315 3537 
Q 2597 3491 2834 3397 
z
" transform="scale(0.015625)"/>
      </defs>
      <use xlink:href="#DejaVuSans-70"/>
      <use xlink:href="#DejaVuSans-69" transform="translate(63.476562 0)"/>
      <use xlink:href="#DejaVuSans-78" transform="translate(91.259766 0)"/>
      <use xlink:href="#DejaVuSans-65" transform="translate(147.314453 0)"/>
      <use xlink:href="#DejaVuSans-6c" transform="translate(208.837891 0)"/>
      <use xlink:href="#DejaVuSans-20" transform="translate(236.621094 0)"/>
      <use xlink:href="#DejaVuSans-2f" transform="translate(268.408203 0)"/>
      <use xlink:href="#DejaVuSans-20" transform="translate(302.099609 0)"/>
      <use xlink:href="#DejaVuSans-63" transform="translate(333.886719 0)"/>
      <use xlink:href="#DejaVuSans-6f" transform="translate(388.867188 0)"/>
      <use xlink:href="#DejaVuSans-65" transform="translate(450.048828 0)"/>
      <use xlink:href="#DejaVuSans-66" transform="translate(511.572266 0)"/>
      <use xlink:href="#DejaVuSans-66" transform="translate(546.777344 0)"/>
      <use xlink:href="#DejaVuSans-69" transform="translate(581.982422 0)"/>
      <use xlink:href="#DejaVuSans-63" transform="translate(609.765625 0)"/>
      <use xlink:href="#DejaVuSans-69" transform="translate(664.746094 0)"/>
      <use xlink:href="#DejaVuSans-65" transform="translate(692.529297 0)"/>
      <use xlink:href="#DejaVuSans-6e" transform="translate(754.052734 0)"/>
      <use xlink:href="#DejaVuSans-74" transform="translate(817.431641 0)"/>
      <use xlink:href="#DejaVuSans-20" transform="translate(856.640625 0)"/>
      <use xlink:href="#DejaVuSans-69" transform="translate(888.427734 0)"/>
      <use xlink:href="#DejaVuSans-6e" transform="translate(916.210938 0)"/>
      <use xlink:href="#DejaVuSans-64" transform="translate(979.589844 0)"/>
      <use xlink:href="#DejaVuSans-65" transform="translate(1043.066406 0)"/>
      <use xlink:href="#DejaVuSans-78" transform="translate(1102.839844 0)"/>
      <use xlink:href="#DejaVuSans-20" transform="translate(1162.019531 0)"/>
      <use xlink:href="#DejaVuSans-28" transform="translate(1193.806641 0)"/>
      <use xlink:href="#DejaVuSans-31" transform="translate(1232.820312 0)"/>
      <use xlink:href="#DejaVuSans-36" transform="translate(1296.443359 0)"/>
      <use xlink:href="#DejaVuSans-2d" transform="translate(1360.066406 0)"/>
      <use xlink:href="#DejaVuSans-70" transform="translate(1396.150391 0)"/>
      <use xlink:href="#DejaVuSans-69" transform="translate(1459.626953 0)"/>
      <use xlink:href="#DejaVuSans-78" transform="translate(1487.410156 0)"/>
      <use xlink:href="#DejaVuSans-65" transform="translate(1543.464844 0)"/>
      <use xlink:href="#DejaVuSans-6c" transform="translate(1604.988281 0)"/>
      <use xlink:href="#DejaVuSans-20" transform="translate(1632.771484 0)"/>
      <use xlink:href="#DejaVuSans-62" transform="translate(1664.558594 0)"/>
      <use xlink:href="#DejaVuSans-6c" transform="translate(1728.035156 0)"/>
      <use xlink:href="#DejaVuSans-6f" transform="translate(1755.818359 0)"/>
      <use xlink:href="#DejaVuSans-63" transform="translate(1817 0)"/>
      <use xlink:href="#DejaVuSans-6b" transform="translate(1871.980469 0)"/>
      <use xlink:href="#DejaVuSans-73" transform="translate(1929.890625 0)"/>
      <use xlink:href="#DejaVuSans-29" transform="translate(1981.990234 0)"/>
     </g>
    </g>
   </g>
   <g id="matplotlib.axis_4">
    <g id="ytick_4">
     <g id="line2d_49">
      <g>
       <use xlink:href="#ma73223095e" x="58.491203" y="238.181818" style="stroke: #000000; stroke-width: 0.8"/>
      </g>
     </g>
     <g id="text_15">
      <!-- 0.00 -->
      <g transform="translate(29.225578 241.981037) scale(0.1 -0.1)">
       <use xlink:href="#DejaVuSans-30"/>
       <use xlink:href="#DejaVuSans-2e" transform="translate(63.623047 0)"/>
       <use xlink:href="#DejaVuSans-30" transform="translate(95.410156 0)"/>
       <use xlink:href="#DejaVuSans-30" transform="translate(159.033203 0)"/>
      </g>
     </g>
    </g>
    <g id="ytick_5">
     <g id="line2d_50">
      <g>
       <use xlink:href="#ma73223095e" x="58.491203" y="213.290909" style="stroke: #000000; stroke-width: 0.8"/>
      </g>
     </g>
     <g id="text_16">
      <!-- 0.25 -->
      <g transform="translate(29.225578 217.090128) scale(0.1 -0.1)">
       <use xlink:href="#DejaVuSans-30"/>
       <use xlink:href="#DejaVuSans-2e" transform="translate(63.623047 0)"/>
       <use xlink:href="#DejaVuSans-32" transform="translate(95.410156 0)"/>
       <use xlink:href="#DejaVuSans-35" transform="translate(159.033203 0)"/>
      </g>
     </g>
    </g>
    <g id="ytick_6">
     <g id="line2d_51">
      <g>
       <use xlink:href="#ma73223095e" x="58.491203" y="188.4" style="stroke: #000000; stroke-width: 0.8"/>
      </g>
     </g>
     <g id="text_17">
      <!-- 0.50 -->
      <g transform="translate(29.225578 192.199219) scale(0.1 -0.1)">
       <use xlink:href="#DejaVuSans-30"/>
       <use xlink:href="#DejaVuSans-2e" transform="translate(63.623047 0)"/>
       <use xlink:href="#DejaVuSans-35" transform="translate(95.410156 0)"/>
       <use xlink:href="#DejaVuSans-30" transform="translate(159.033203 0)"/>
      </g>
     </g>
    </g>
    <g id="ytick_7">
     <g id="line2d_52">
      <g>
       <use xlink:href="#ma73223095e" x="58.491203" y="163.509091" style="stroke: #000000; stroke-width: 0.8"/>
      </g>
     </g>
     <g id="text_18">
      <!-- 0.75 -->
      <g transform="translate(29.225578 167.30831) scale(0.1 -0.1)">
       <use xlink:href="#DejaVuSans-30"/>
       <use xlink:href="#DejaVuSans-2e" transform="translate(63.623047 0)"/>
       <use xlink:href="#DejaVuSans-37" transform="translate(95.410156 0)"/>
       <use xlink:href="#DejaVuSans-35" transform="translate(159.033203 0)"/>
      </g>
     </g>
    </g>
    <g id="ytick_8">
     <g id="line2d_53">
      <g>
       <use xlink:href="#ma73223095e" x="58.491203" y="138.618182" style="stroke: #000000; stroke-width: 0.8"/>
      </g>
     </g>
     <g id="text_19">
      <!-- 1.00 -->
      <g transform="translate(29.225578 142.417401) scale(0.1 -0.1)">
       <use xlink:href="#DejaVuSans-31"/>
       <use xlink:href="#DejaVuSans-2e" transform="translate(63.623047 0)"/>
       <use xlink:href="#DejaVuSans-30" transform="translate(95.410156 0)"/>
       <use xlink:href="#DejaVuSans-30" transform="translate(159.033203 0)"/>
      </g>
     </g>
    </g>
    <g id="text_20">
     <!-- output -->
     <g transform="translate(13.658672 202.417695) rotate(-90) scale(0.085 -0.085)">
      <use xlink:href="#DejaVuSans-6f"/>
      <use xlink:href="#DejaVuSans-75" transform="translate(61.181641 0)"/>
      <use xlink:href="#DejaVuSans-74" transform="translate(124.560547 0)"/>
      <use xlink:href="#DejaVuSans-70" transform="translate(163.769531 0)"/>
      <use xlink:href="#DejaVuSans-75" transform="translate(227.246094 0)"/>
      <use xlink:href="#DejaVuSans-74" transform="translate(290.625 0)"/>
     </g>
     <!-- |coefficient| -->
     <g transform="translate(23.221438 213.480977) rotate(-90) scale(0.085 -0.085)">
      <defs>
       <path id="DejaVuSans-7c" d="M 1344 4891 
L 1344 -1509 
L 813 -1509 
L 813 4891 
L 1344 4891 
z
" transform="scale(0.015625)"/>
      </defs>
      <use xlink:href="#DejaVuSans-7c"/>
      <use xlink:href="#DejaVuSans-63" transform="translate(33.691406 0)"/>
      <use xlink:href="#DejaVuSans-6f" transform="translate(88.671875 0)"/>
      <use xlink:href="#DejaVuSans-65" transform="translate(149.853516 0)"/>
      <use xlink:href="#DejaVuSans-66" transform="translate(211.376953 0)"/>
      <use xlink:href="#DejaVuSans-66" transform="translate(246.582031 0)"/>
      <use xlink:href="#DejaVuSans-69" transform="translate(281.787109 0)"/>
      <use xlink:href="#DejaVuSans-63" transform="translate(309.570312 0)"/>
      <use xlink:href="#DejaVuSans-69" transform="translate(364.550781 0)"/>
      <use xlink:href="#DejaVuSans-65" transform="translate(392.333984 0)"/>
      <use xlink:href="#DejaVuSans-6e" transform="translate(453.857422 0)"/>
      <use xlink:href="#DejaVuSans-74" transform="translate(517.236328 0)"/>
      <use xlink:href="#DejaVuSans-7c" transform="translate(556.445312 0)"/>
     </g>
    </g>
   </g>
   <g id="line2d_54">
    <path d="M 58.491203 238.181818 
L 233.757066 238.119745 
L 234.859367 237.991717 
L 251.393883 237.991419 
L 252.496184 138.869936 
L 255.803087 138.965814 
L 256.905388 138.821922 
L 260.212291 138.917847 
L 261.314592 138.666294 
L 264.621495 138.762369 
L 265.723796 138.618182 
L 269.030699 138.714303 
L 270.133 238.181818 
L 339.577965 238.162895 
L 339.577965 238.162895 
" clip-path="url(#p20e57f4cf6)" style="fill: none; stroke: #0072b2; stroke-linecap: square"/>
   </g>
   <g id="line2d_55">
    <path d="M 58.491203 238.181818 
L 304.304332 238.181699 
L 305.406633 138.869936 
L 308.713536 138.965814 
L 309.815837 138.821922 
L 313.12274 138.917847 
L 314.225041 138.666294 
L 317.531944 138.762369 
L 318.634245 138.618182 
L 321.941148 138.714303 
L 323.043449 237.991717 
L 339.577965 237.991419 
L 339.577965 237.991419 
" clip-path="url(#p20e57f4cf6)" style="fill: none; stroke: #e69f00; stroke-linecap: square"/>
   </g>
   <g id="line2d_56">
    <path d="M 58.491203 238.162893 
L 127.936168 238.181818 
L 129.038469 138.701221 
L 130.14077 138.762369 
L 131.243071 138.666294 
L 132.345372 138.727463 
L 133.447673 138.653125 
L 134.549974 138.714303 
L 135.652275 138.618182 
L 136.754576 138.679381 
L 137.856877 138.904791 
L 138.959178 138.965814 
L 140.061479 138.869936 
L 141.16378 138.93098 
L 142.266081 138.856794 
L 143.368382 138.917847 
L 144.470683 138.821922 
L 145.572984 138.882996 
L 146.675285 237.991394 
L 163.209801 237.991742 
L 164.312102 238.119736 
L 339.577965 238.181818 
L 339.577965 238.181818 
" clip-path="url(#p20e57f4cf6)" style="fill: none; stroke: #009e73; stroke-linecap: square"/>
   </g>
   <g id="patch_11">
    <path d="M 58.491203 243.16 
L 58.491203 133.64 
" style="fill: none; stroke: #000000; stroke-width: 0.8; stroke-linejoin: miter; stroke-linecap: square"/>
   </g>
   <g id="patch_12">
    <path d="M 340.680266 243.16 
L 340.680266 133.64 
" style="fill: none; stroke: #000000; stroke-width: 0.8; stroke-linejoin: miter; stroke-linecap: square"/>
   </g>
   <g id="patch_13">
    <path d="M 58.491203 243.16 
L 340.680266 243.16 
" style="fill: none; stroke: #000000; stroke-width: 0.8; stroke-linejoin: miter; stroke-linecap: square"/>
   </g>
   <g id="patch_14">
    <path d="M 58.491203 133.64 
L 340.680266 133.64 
" style="fill: none; stroke: #000000; stroke-width: 0.8; stroke-linejoin: miter; stroke-linecap: square"/>
   </g>
  </g>
 </g>
 <defs>
  <clipPath id="pfec9307600">
   <rect x="58.491203" y="7.2" width="282.189062" height="109.52"/>
  </clipPath>
  <clipPath id="p20e57f4cf6">
   <rect x="58.491203" y="133.64" width="282.189062" height="109.52"/>
  </clipPath>
 </defs>
</svg>
