<?xml version="1.0" encoding="utf-8" standalone="no"?>
<!DOCTYPE svg PUBLIC "-//W3C//DTD SVG 1.1//EN"
  "http://www.w3.org/Graphics/SVG/1.1/DTD/svg11.dtd">
<svg xmlns:xlink="http://www.w3.org/1999/xlink" width="330.101406pt" height="254.803125pt" viewBox="0 0 330.101406 254.803125" xmlns="http://www.w3.org/2000/svg" version="1.1">
 <metadata>
  <rdf:RDF xmlns:dc="http://purl.org/dc/elements/1.1/" xmlns:cc="http://creativecommons.org/ns#" xmlns:rdf="http://www.w3.org/1999/02/22-rdf-syntax-ns#">
   <cc:Work>
    <dc:type rdf:resource="http://purl.org/dc/dcmitype/StillImage"/>
    <dc:date>2026-06-14T09:40:23.411747</dc:date>
    <dc:format>image/svg+xml</dc:format>
    <dc:creator>
     <cc:Agent>
      <dc:title>Matplotlib v3.10.9, https://matplotlib.org/</dc:title>
     </cc:Agent>
    </dc:creator>
   </cc:Work>
  </rdf:RDF>
 </metadata>
 <defs>
  <style type="text/css">*{stroke-linejoin: round; stroke-linecap: butt}</style>
 </defs>
 <g id="figure_1">
  <g id="patch_1">
   <path d="M 0 254.803125 
L 330.101406 254.803125 
L 330.101406 0 
L 0 0 
z
" style="fill: #ffffff"/>
  </g>
  <g id="axes_1">
   <g id="patch_2">
    <path d="M 39.151406 218.68 
L 322.901406 218.68 
L 322.901406 7.2 
L 39.151406 7.2 
z
" style="fill: #ffffff"/>
   </g>
   <g id="patch_3">
    <path d="M 52.049134 218.68 
L 62.79724 218.68 
L 62.79724 145.440173 
L 52.049134 145.440173 
z
" clip-path="url(#p994901c5df)" style="fill: #0072b2; opacity: 0.75"/>
   </g>
   <g id="patch_4">
    <path d="M 62.79724 218.68 
L 73.545346 218.68 
L 73.545346 108.82026 
L 62.79724 108.82026 
z
" clip-path="url(#p994901c5df)" style="fill: #0072b2; opacity: 0.75"/>
   </g>
   <g id="patch_5">
    <path d="M 73.545346 218.68 
L 84.293452 218.68 
L 84.293452 108.82026 
L 73.545346 108.82026 
z
" clip-path="url(#p994901c5df)" style="fill: #0072b2; opacity: 0.75"/>
   </g>
   <g id="patch_6">
    <path d="M 84.293452 218.68 
L 95.041558 218.68 
L 95.041558 145.440173 
L 84.293452 145.440173 
z
" clip-path="url(#p994901c5df)" style="fill: #0072b2; opacity: 0.75"/>
   </g>
   <g id="patch_7">
    <path d="M 95.041558 218.68 
L 105.789664 218.68 
L 105.789664 163.75013 
L 95.041558 163.75013 
z
" clip-path="url(#p994901c5df)" style="fill: #0072b2; opacity: 0.75"/>
   </g>
   <g id="patch_8">
    <path d="M 105.789664 218.68 
L 116.53777 218.68 
L 116.53777 127.130216 
L 105.789664 127.130216 
z
" clip-path="url(#p994901c5df)" style="fill: #0072b2; opacity: 0.75"/>
   </g>
   <g id="patch_9">
    <path d="M 116.53777 218.68 
L 127.285876 218.68 
L 127.285876 53.89039 
L 116.53777 53.89039 
z
" clip-path="url(#p994901c5df)" style="fill: #0072b2; opacity: 0.75"/>
   </g>
   <g id="patch_10">
    <path d="M 127.285876 218.68 
L 138.033982 218.68 
L 138.033982 17.270476 
L 127.285876 17.270476 
z
" clip-path="url(#p994901c5df)" style="fill: #0072b2; opacity: 0.75"/>
   </g>
   <g id="patch_11">
    <path d="M 138.033982 218.68 
L 148.782088 218.68 
L 148.782088 35.580433 
L 138.033982 35.580433 
z
" clip-path="url(#p994901c5df)" style="fill: #0072b2; opacity: 0.75"/>
   </g>
   <g id="patch_12">
    <path d="M 148.782088 218.68 
L 159.530194 218.68 
L 159.530194 17.270476 
L 148.782088 17.270476 
z
" clip-path="url(#p994901c5df)" style="fill: #0072b2; opacity: 0.75"/>
   </g>
   <g id="patch_13">
    <path d="M 159.530194 218.68 
L 170.2783 218.68 
L 170.2783 35.580433 
L 159.530194 35.580433 
z
" clip-path="url(#p994901c5df)" style="fill: #0072b2; opacity: 0.75"/>
   </g>
   <g id="patch_14">
    <path d="M 170.2783 218.68 
L 181.026406 218.68 
L 181.026406 108.82026 
L 170.2783 108.82026 
z
" clip-path="url(#p994901c5df)" style="fill: #0072b2; opacity: 0.75"/>
   </g>
   <g id="patch_15">
    <path d="M 181.026406 218.68 
L 191.774512 218.68 
L 191.774512 200.370043 
L 181.026406 200.370043 
z
" clip-path="url(#p994901c5df)" style="fill: #0072b2; opacity: 0.75"/>
   </g>
   <g id="patch_16">
    <path d="M 191.774512 218.68 
L 202.522618 218.68 
L 202.522618 163.75013 
L 191.774512 163.75013 
z
" clip-path="url(#p994901c5df)" style="fill: #0072b2; opacity: 0.75"/>
   </g>
   <g id="patch_17">
    <path d="M 202.522618 218.68 
L 213.270724 218.68 
L 213.270724 200.370043 
L 202.522618 200.370043 
z
" clip-path="url(#p994901c5df)" style="fill: #0072b2; opacity: 0.75"/>
   </g>
   <g id="patch_18">
    <path d="M 213.270724 218.68 
L 224.01883 218.68 
L 224.01883 200.370043 
L 213.270724 200.370043 
z
" clip-path="url(#p994901c5df)" style="fill: #0072b2; opacity: 0.75"/>
   </g>
   <g id="patch_19">
    <path d="M 224.01883 218.68 
L 234.766937 218.68 
L 234.766937 182.060087 
L 224.01883 182.060087 
z
" clip-path="url(#p994901c5df)" style="fill: #0072b2; opacity: 0.75"/>
   </g>
   <g id="patch_20">
    <path d="M 234.766937 218.68 
L 245.515043 218.68 
L 245.515043 218.68 
L 234.766937 218.68 
z
" clip-path="url(#p994901c5df)" style="fill: #0072b2; opacity: 0.75"/>
   </g>
   <g id="patch_21">
    <path d="M 245.515043 218.68 
L 256.263149 218.68 
L 256.263149 200.370043 
L 245.515043 200.370043 
z
" clip-path="url(#p994901c5df)" style="fill: #0072b2; opacity: 0.75"/>
   </g>
   <g id="patch_22">
    <path d="M 256.263149 218.68 
L 267.011255 218.68 
L 267.011255 218.68 
L 256.263149 218.68 
z
" clip-path="url(#p994901c5df)" style="fill: #0072b2; opacity: 0.75"/>
   </g>
   <g id="patch_23">
    <path d="M 267.011255 218.68 
L 277.759361 218.68 
L 277.759361 218.68 
L 267.011255 218.68 
z
" clip-path="url(#p994901c5df)" style="fill: #0072b2; opacity: 0.75"/>
   </g>
   <g id="patch_24">
    <path d="M 277.759361 218.68 
L 288.507467 218.68 
L 288.507467 182.060087 
L 277.759361 182.060087 
z
" clip-path="url(#p994901c5df)" style="fill: #0072b2; opacity: 0.75"/>
   </g>
   <g id="patch_25">
    <path d="M 288.507467 218.68 
L 299.255573 218.68 
L 299.255573 200.370043 
L 288.507467 200.370043 
z
" clip-path="url(#p994901c5df)" style="fill: #0072b2; opacity: 0.75"/>
   </g>
   <g id="patch_26">
    <path d="M 299.255573 218.68 
L 310.003679 218.68 
L 310.003679 163.75013 
L 299.255573 163.75013 
z
" clip-path="url(#p994901c5df)" style="fill: #0072b2; opacity: 0.75"/>
   </g>
   <g id="matplotlib.axis_1">
    <g id="xtick_1">
     <g id="line2d_1">
      <defs>
       <path id="mbfb75ef5cb" d="M 0 0 
L 0 3.5 
" style="stroke: #000000; stroke-width: 0.8"/>
      </defs>
      <g>
       <use xlink:href="#mbfb75ef5cb" x="67.380646" y="218.68" style="stroke: #000000; stroke-width: 0.8"/>
      </g>
     </g>
     <g id="text_1">
      <!-- 500 -->
      <g transform="translate(57.836896 233.278438) scale(0.1 -0.1)">
       <defs>
        <path id="DejaVuSans-35" d="M 691 4666 
L 3169 4666 
L 3169 4134 
L 1269 4134 
L 1269 2991 
Q 1406 3038 1543 3061 
Q 1681 3084 1819 3084 
Q 2600 3084 3056 2656 
Q 3513 2228 3513 1497 
Q 3513 744 3044 326 
Q 2575 -91 1722 -91 
Q 1428 -91 1123 -41 
Q 819 9 494 109 
L 494 744 
Q 775 591 1075 516 
Q 1375 441 1709 441 
Q 2250 441 2565 725 
Q 2881 1009 2881 1497 
Q 2881 1984 2565 2268 
Q 2250 2553 1709 2553 
Q 1456 2553 1204 2497 
Q 953 2441 691 2322 
L 691 4666 
z
" transform="scale(0.015625)"/>
        <path id="DejaVuSans-30" d="M 2034 4250 
Q 1547 4250 1301 3770 
Q 1056 3291 1056 2328 
Q 1056 1369 1301 889 
Q 1547 409 2034 409 
Q 2525 409 2770 889 
Q 3016 1369 3016 2328 
Q 3016 3291 2770 3770 
Q 2525 4250 2034 4250 
z
M 2034 4750 
Q 2819 4750 3233 4129 
Q 3647 3509 3647 2328 
Q 3647 1150 3233 529 
Q 2819 -91 2034 -91 
Q 1250 -91 836 529 
Q 422 1150 422 2328 
Q 422 3509 836 4129 
Q 1250 4750 2034 4750 
z
" transform="scale(0.015625)"/>
       </defs>
       <use xlink:href="#DejaVuSans-35"/>
       <use xlink:href="#DejaVuSans-30" transform="translate(63.623047 0)"/>
       <use xlink:href="#DejaVuSans-30" transform="translate(127.246094 0)"/>
      </g>
     </g>
    </g>
    <g id="xtick_2">
     <g id="line2d_2">
      <g>
       <use xlink:href="#mbfb75ef5cb" x="101.398013" y="218.68" style="stroke: #000000; stroke-width: 0.8"/>
      </g>
     </g>
     <g id="text_2">
      <!-- 750 -->
      <g transform="translate(91.854263 233.278438) scale(0.1 -0.1)">
       <defs>
        <path id="DejaVuSans-37" d="M 525 4666 
L 3525 4666 
L 3525 4397 
L 1831 0 
L 1172 0 
L 2766 4134 
L 525 4134 
L 525 4666 
z
" transform="scale(0.015625)"/>
       </defs>
       <use xlink:href="#DejaVuSans-37"/>
       <use xlink:href="#DejaVuSans-35" transform="translate(63.623047 0)"/>
       <use xlink:href="#DejaVuSans-30" transform="translate(127.246094 0)"/>
      </g>
     </g>
    </g>
    <g id="xtick_3">
     <g id="line2d_3">
      <g>
       <use xlink:href="#mbfb75ef5cb" x="135.41538" y="218.68" style="stroke: #000000; stroke-width: 0.8"/>
      </g>
     </g>
     <g id="text_3">
      <!-- 1000 -->
      <g transform="translate(122.69038 233.278438) scale(0.1 -0.1)">
       <defs>
        <path id="DejaVuSans-31" d="M 794 531 
L 1825 531 
L 1825 4091 
L 703 3866 
L 703 4441 
L 1819 4666 
L 2450 4666 
L 2450 531 
L 3481 531 
L 3481 0 
L 794 0 
L 794 531 
z
" transform="scale(0.015625)"/>
       </defs>
       <use xlink:href="#DejaVuSans-31"/>
       <use xlink:href="#DejaVuSans-30" transform="translate(63.623047 0)"/>
       <use xlink:href="#DejaVuSans-30" transform="translate(127.246094 0)"/>
       <use xlink:href="#DejaVuSans-30" transform="translate(190.869141 0)"/>
      </g>
     </g>
    </g>
    <g id="xtick_4">
     <g id="line2d_4">
      <g>
       <use xlink:href="#mbfb75ef5cb" x="169.432747" y="218.68" style="stroke: #000000; stroke-width: 0.8"/>
      </g>
     </g>
     <g id="text_4">
      <!-- 1250 -->
      <g transform="translate(156.707747 233.278438) scale(0.1 -0.1)">
       <defs>
        <path id="DejaVuSans-32" d="M 1228 531 
L 3431 531 
L 3431 0 
L 469 0 
L 469 531 
Q 828 903 1448 1529 
Q 2069 2156 2228 2338 
Q 2531 2678 2651 2914 
Q 2772 3150 2772 3378 
Q 2772 3750 2511 3984 
Q 2250 4219 1831 4219 
Q 1534 4219 1204 4116 
Q 875 4013 500 3803 
L 500 4441 
Q 881 4594 1212 4672 
Q 1544 4750 1819 4750 
Q 2544 4750 2975 4387 
Q 3406 4025 3406 3419 
Q 3406 3131 3298 2873 
Q 3191 2616 2906 2266 
Q 2828 2175 2409 1742 
Q 1991 1309 1228 531 
z
" transform="scale(0.015625)"/>
       </defs>
       <use xlink:href="#DejaVuSans-31"/>
       <use xlink:href="#DejaVuSans-32" transform="translate(63.623047 0)"/>
       <use xlink:href="#DejaVuSans-35" transform="translate(127.246094 0)"/>
       <use xlink:href="#DejaVuSans-30" transform="translate(190.869141 0)"/>
      </g>
     </g>
    </g>
    <g id="xtick_5">
     <g id="line2d_5">
      <g>
       <use xlink:href="#mbfb75ef5cb" x="203.450114" y="218.68" style="stroke: #000000; stroke-width: 0.8"/>
      </g>
     </g>
     <g id="text_5">
      <!-- 1500 -->
      <g transform="translate(190.725114 233.278438) scale(0.1 -0.1)">
       <use xlink:href="#DejaVuSans-31"/>
       <use xlink:href="#DejaVuSans-35" transform="translate(63.623047 0)"/>
       <use xlink:href="#DejaVuSans-30" transform="translate(127.246094 0)"/>
       <use xlink:href="#DejaVuSans-30" transform="translate(190.869141 0)"/>
      </g>
     </g>
    </g>
    <g id="xtick_6">
     <g id="line2d_6">
      <g>
       <use xlink:href="#mbfb75ef5cb" x="237.467481" y="218.68" style="stroke: #000000; stroke-width: 0.8"/>
      </g>
     </g>
     <g id="text_6">
      <!-- 1750 -->
      <g transform="translate(224.742481 233.278438) scale(0.1 -0.1)">
       <use xlink:href="#DejaVuSans-31"/>
       <use xlink:href="#DejaVuSans-37" transform="translate(63.623047 0)"/>
       <use xlink:href="#DejaVuSans-35" transform="translate(127.246094 0)"/>
       <use xlink:href="#DejaVuSans-30" transform="translate(190.869141 0)"/>
      </g>
     </g>
    </g>
    <g id="xtick_7">
     <g id="line2d_7">
      <g>
       <use xlink:href="#mbfb75ef5cb" x="271.484848" y="218.68" style="stroke: #000000; stroke-width: 0.8"/>
      </g>
     </g>
     <g id="text_7">
      <!-- 2000 -->
      <g transform="translate(258.759848 233.278438) scale(0.1 -0.1)">
       <use xlink:href="#DejaVuSans-32"/>
       <use xlink:href="#DejaVuSans-30" transform="translate(63.623047 0)"/>
       <use xlink:href="#DejaVuSans-30" transform="translate(127.246094 0)"/>
       <use xlink:href="#DejaVuSans-30" transform="translate(190.869141 0)"/>
      </g>
     </g>
    </g>
    <g id="xtick_8">
     <g id="line2d_8">
      <g>
       <use xlink:href="#mbfb75ef5cb" x="305.502215" y="218.68" style="stroke: #000000; stroke-width: 0.8"/>
      </g>
     </g>
     <g id="text_8">
      <!-- 2250 -->
      <g transform="translate(292.777215 233.278438) scale(0.1 -0.1)">
       <use xlink:href="#DejaVuSans-32"/>
       <use xlink:href="#DejaVuSans-32" transform="translate(63.623047 0)"/>
       <use xlink:href="#DejaVuSans-35" transform="translate(127.246094 0)"/>
       <use xlink:href="#DejaVuSans-30" transform="translate(190.869141 0)"/>
      </g>
     </g>
    </g>
    <g id="text_9">
     <!-- initial top-$k$ MSE loss $L_0$  (random init) -->
     <g transform="translate(100.743906 245.818125) scale(0.085 -0.085)">
      <defs>
       <path id="DejaVuSans-69" d="M 603 3500 
L 1178 3500 
L 1178 0 
L 603 0 
L 603 3500 
z
M 603 4863 
L 1178 4863 
L 1178 4134 
L 603 4134 
L 603 4863 
z
" transform="scale(0.015625)"/>
       <path id="DejaVuSans-6e" d="M 3513 2113 
L 3513 0 
L 2938 0 
L 2938 2094 
Q 2938 2591 2744 2837 
Q 2550 3084 2163 3084 
Q 1697 3084 1428 2787 
Q 1159 2491 1159 1978 
L 1159 0 
L 581 0 
L 581 3500 
L 1159 3500 
L 1159 2956 
Q 1366 3272 1645 3428 
Q 1925 3584 2291 3584 
Q 2894 3584 3203 3211 
Q 3513 2838 3513 2113 
z
" transform="scale(0.015625)"/>
       <path id="DejaVuSans-74" d="M 1172 4494 
L 1172 3500 
L 2356 3500 
L 2356 3053 
L 1172 3053 
L 1172 1153 
Q 1172 725 1289 603 
Q 1406 481 1766 481 
L 2356 481 
L 2356 0 
L 1766 0 
Q 1100 0 847 248 
Q 594 497 594 1153 
L 594 3053 
L 172 3053 
L 172 3500 
L 594 3500 
L 594 4494 
L 1172 4494 
z
" transform="scale(0.015625)"/>
       <path id="DejaVuSans-61" d="M 2194 1759 
Q 1497 1759 1228 1600 
Q 959 1441 959 1056 
Q 959 750 1161 570 
Q 1363 391 1709 391 
Q 2188 391 2477 730 
Q 2766 1069 2766 1631 
L 2766 1759 
L 2194 1759 
z
M 3341 1997 
L 3341 0 
L 2766 0 
L 2766 531 
Q 2569 213 2275 61 
Q 1981 -91 1556 -91 
Q 1019 -91 701 211 
Q 384 513 384 1019 
Q 384 1609 779 1909 
Q 1175 2209 1959 2209 
L 2766 2209 
L 2766 2266 
Q 2766 2663 2505 2880 
Q 2244 3097 1772 3097 
Q 1472 3097 1187 3025 
Q 903 2953 641 2809 
L 641 3341 
Q 956 3463 1253 3523 
Q 1550 3584 1831 3584 
Q 2591 3584 2966 3190 
Q 3341 2797 3341 1997 
z
" transform="scale(0.015625)"/>
       <path id="DejaVuSans-6c" d="M 603 4863 
L 1178 4863 
L 1178 0 
L 603 0 
L 603 4863 
z
" transform="scale(0.015625)"/>
       <path id="DejaVuSans-20" transform="scale(0.015625)"/>
       <path id="DejaVuSans-6f" d="M 1959 3097 
Q 1497 3097 1228 2736 
Q 959 2375 959 1747 
Q 959 1119 1226 758 
Q 1494 397 1959 397 
Q 2419 397 2687 759 
Q 2956 1122 2956 1747 
Q 2956 2369 2687 2733 
Q 2419 3097 1959 3097 
z
M 1959 3584 
Q 2709 3584 3137 3096 
Q 3566 2609 3566 1747 
Q 3566 888 3137 398 
Q 2709 -91 1959 -91 
Q 1206 -91 779 398 
Q 353 888 353 1747 
Q 353 2609 779 3096 
Q 1206 3584 1959 3584 
z
" transform="scale(0.015625)"/>
       <path id="DejaVuSans-70" d="M 1159 525 
L 1159 -1331 
L 581 -1331 
L 581 3500 
L 1159 3500 
L 1159 2969 
Q 1341 3281 1617 3432 
Q 1894 3584 2278 3584 
Q 2916 3584 3314 3078 
Q 3713 2572 3713 1747 
Q 3713 922 3314 415 
Q 2916 -91 2278 -91 
Q 1894 -91 1617 61 
Q 1341 213 1159 525 
z
M 3116 1747 
Q 3116 2381 2855 2742 
Q 2594 3103 2138 3103 
Q 1681 3103 1420 2742 
Q 1159 2381 1159 1747 
Q 1159 1113 1420 752 
Q 1681 391 2138 391 
Q 2594 391 2855 752 
Q 3116 1113 3116 1747 
z
" transform="scale(0.015625)"/>
       <path id="DejaVuSans-2d" d="M 313 2009 
L 1997 2009 
L 1997 1497 
L 313 1497 
L 313 2009 
z
" transform="scale(0.015625)"/>
       <path id="DejaVuSans-Oblique-6b" d="M 1172 4863 
L 1747 4863 
L 1197 2028 
L 3169 3500 
L 3916 3500 
L 1716 1825 
L 3322 0 
L 2625 0 
L 1131 1709 
L 800 0 
L 225 0 
L 1172 4863 
z
" transform="scale(0.015625)"/>
       <path id="DejaVuSans-4d" d="M 628 4666 
L 1569 4666 
L 2759 1491 
L 3956 4666 
L 4897 4666 
L 4897 0 
L 4281 0 
L 4281 4097 
L 3078 897 
L 2444 897 
L 1241 4097 
L 1241 0 
L 628 0 
L 628 4666 
z
" transform="scale(0.015625)"/>
       <path id="DejaVuSans-53" d="M 3425 4513 
L 3425 3897 
Q 3066 4069 2747 4153 
Q 2428 4238 2131 4238 
Q 1616 4238 1336 4038 
Q 1056 3838 1056 3469 
Q 1056 3159 1242 3001 
Q 1428 2844 1947 2747 
L 2328 2669 
Q 3034 2534 3370 2195 
Q 3706 1856 3706 1288 
Q 3706 609 3251 259 
Q 2797 -91 1919 -91 
Q 1588 -91 1214 -16 
Q 841 59 441 206 
L 441 856 
Q 825 641 1194 531 
Q 1563 422 1919 422 
Q 2459 422 2753 634 
Q 3047 847 3047 1241 
Q 3047 1584 2836 1778 
Q 2625 1972 2144 2069 
L 1759 2144 
Q 1053 2284 737 2584 
Q 422 2884 422 3419 
Q 422 4038 858 4394 
Q 1294 4750 2059 4750 
Q 2388 4750 2728 4690 
Q 3069 4631 3425 4513 
z
" transform="scale(0.015625)"/>
       <path id="DejaVuSans-45" d="M 628 4666 
L 3578 4666 
L 3578 4134 
L 1259 4134 
L 1259 2753 
L 3481 2753 
L 3481 2222 
L 1259 2222 
L 1259 531 
L 3634 531 
L 3634 0 
L 628 0 
L 628 4666 
z
" transform="scale(0.015625)"/>
       <path id="DejaVuSans-73" d="M 2834 3397 
L 2834 2853 
Q 2591 2978 2328 3040 
Q 2066 3103 1784 3103 
Q 1356 3103 1142 2972 
Q 928 2841 928 2578 
Q 928 2378 1081 2264 
Q 1234 2150 1697 2047 
L 1894 2003 
Q 2506 1872 2764 1633 
Q 3022 1394 3022 966 
Q 3022 478 2636 193 
Q 2250 -91 1575 -91 
Q 1294 -91 989 -36 
Q 684 19 347 128 
L 347 722 
Q 666 556 975 473 
Q 1284 391 1588 391 
Q 1994 391 2212 530 
Q 2431 669 2431 922 
Q 2431 1156 2273 1281 
Q 2116 1406 1581 1522 
L 1381 1569 
Q 847 1681 609 1914 
Q 372 2147 372 2553 
Q 372 3047 722 3315 
Q 1072 3584 1716 3584 
Q 2034 3584 2315 3537 
Q 2597 3491 2834 3397 
z
" transform="scale(0.015625)"/>
       <path id="DejaVuSans-Oblique-4c" d="M 1075 4666 
L 1709 4666 
L 909 525 
L 3181 525 
L 3078 0 
L 172 0 
L 1075 4666 
z
" transform="scale(0.015625)"/>
       <path id="DejaVuSans-28" d="M 1984 4856 
Q 1566 4138 1362 3434 
Q 1159 2731 1159 2009 
Q 1159 1288 1364 580 
Q 1569 -128 1984 -844 
L 1484 -844 
Q 1016 -109 783 600 
Q 550 1309 550 2009 
Q 550 2706 781 3412 
Q 1013 4119 1484 4856 
L 1984 4856 
z
" transform="scale(0.015625)"/>
       <path id="DejaVuSans-72" d="M 2631 2963 
Q 2534 3019 2420 3045 
Q 2306 3072 2169 3072 
Q 1681 3072 1420 2755 
Q 1159 2438 1159 1844 
L 1159 0 
L 581 0 
L 581 3500 
L 1159 3500 
L 1159 2956 
Q 1341 3275 1631 3429 
Q 1922 3584 2338 3584 
Q 2397 3584 2469 3576 
Q 2541 3569 2628 3553 
L 2631 2963 
z
" transform="scale(0.015625)"/>
       <path id="DejaVuSans-64" d="M 2906 2969 
L 2906 4863 
L 3481 4863 
L 3481 0 
L 2906 0 
L 2906 525 
Q 2725 213 2448 61 
Q 2172 -91 1784 -91 
Q 1150 -91 751 415 
Q 353 922 353 1747 
Q 353 2572 751 3078 
Q 1150 3584 1784 3584 
Q 2172 3584 2448 3432 
Q 2725 3281 2906 2969 
z
M 947 1747 
Q 947 1113 1208 752 
Q 1469 391 1925 391 
Q 2381 391 2643 752 
Q 2906 1113 2906 1747 
Q 2906 2381 2643 2742 
Q 2381 3103 1925 3103 
Q 1469 3103 1208 2742 
Q 947 2381 947 1747 
z
" transform="scale(0.015625)"/>
       <path id="DejaVuSans-6d" d="M 3328 2828 
Q 3544 3216 3844 3400 
Q 4144 3584 4550 3584 
Q 5097 3584 5394 3201 
Q 5691 2819 5691 2113 
L 5691 0 
L 5113 0 
L 5113 2094 
Q 5113 2597 4934 2840 
Q 4756 3084 4391 3084 
Q 3944 3084 3684 2787 
Q 3425 2491 3425 1978 
L 3425 0 
L 2847 0 
L 2847 2094 
Q 2847 2600 2669 2842 
Q 2491 3084 2119 3084 
Q 1678 3084 1418 2786 
Q 1159 2488 1159 1978 
L 1159 0 
L 581 0 
L 581 3500 
L 1159 3500 
L 1159 2956 
Q 1356 3278 1631 3431 
Q 1906 3584 2284 3584 
Q 2666 3584 2933 3390 
Q 3200 3197 3328 2828 
z
" transform="scale(0.015625)"/>
       <path id="DejaVuSans-29" d="M 513 4856 
L 1013 4856 
Q 1481 4119 1714 3412 
Q 1947 2706 1947 2009 
Q 1947 1309 1714 600 
Q 1481 -109 1013 -844 
L 513 -844 
Q 928 -128 1133 580 
Q 1338 1288 1338 2009 
Q 1338 2731 1133 3434 
Q 928 4138 513 4856 
z
" transform="scale(0.015625)"/>
      </defs>
      <use xlink:href="#DejaVuSans-69" transform="translate(0 0.015625)"/>
      <use xlink:href="#DejaVuSans-6e" transform="translate(27.783203 0.015625)"/>
      <use xlink:href="#DejaVuSans-69" transform="translate(91.162109 0.015625)"/>
      <use xlink:href="#DejaVuSans-74" transform="translate(118.945312 0.015625)"/>
      <use xlink:href="#DejaVuSans-69" transform="translate(158.154297 0.015625)"/>
      <use xlink:href="#DejaVuSans-61" transform="translate(185.9375 0.015625)"/>
      <use xlink:href="#DejaVuSans-6c" transform="translate(247.216797 0.015625)"/>
      <use xlink:href="#DejaVuSans-20" transform="translate(275 0.015625)"/>
      <use xlink:href="#DejaVuSans-74" transform="translate(306.787109 0.015625)"/>
      <use xlink:href="#DejaVuSans-6f" transform="translate(345.996094 0.015625)"/>
      <use xlink:href="#DejaVuSans-70" transform="translate(407.177734 0.015625)"/>
      <use xlink:href="#DejaVuSans-2d" transform="translate(470.654297 0.015625)"/>
      <use xlink:href="#DejaVuSans-Oblique-6b" transform="translate(506.738281 0.015625)"/>
      <use xlink:href="#DejaVuSans-20" transform="translate(564.648438 0.015625)"/>
      <use xlink:href="#DejaVuSans-4d" transform="translate(596.435547 0.015625)"/>
      <use xlink:href="#DejaVuSans-53" transform="translate(682.714844 0.015625)"/>
      <use xlink:href="#DejaVuSans-45" transform="translate(746.191406 0.015625)"/>
      <use xlink:href="#DejaVuSans-20" transform="translate(809.375 0.015625)"/>
      <use xlink:href="#DejaVuSans-6c" transform="translate(841.162109 0.015625)"/>
      <use xlink:href="#DejaVuSans-6f" transform="translate(868.945312 0.015625)"/>
      <use xlink:href="#DejaVuSans-73" transform="translate(930.126953 0.015625)"/>
      <use xlink:href="#DejaVuSans-73" transform="translate(982.226562 0.015625)"/>
      <use xlink:href="#DejaVuSans-20" transform="translate(1034.326172 0.015625)"/>
      <use xlink:href="#DejaVuSans-Oblique-4c" transform="translate(1066.113281 0.015625)"/>
      <use xlink:href="#DejaVuSans-30" transform="translate(1121.826172 -16.390625) scale(0.7)"/>
      <use xlink:href="#DejaVuSans-20" transform="translate(1169.09668 0.015625)"/>
      <use xlink:href="#DejaVuSans-20" transform="translate(1200.883789 0.015625)"/>
      <use xlink:href="#DejaVuSans-28" transform="translate(1232.670898 0.015625)"/>
      <use xlink:href="#DejaVuSans-72" transform="translate(1271.68457 0.015625)"/>
      <use xlink:href="#DejaVuSans-61" transform="translate(1312.797852 0.015625)"/>
      <use xlink:href="#DejaVuSans-6e" transform="translate(1374.077148 0.015625)"/>
      <use xlink:href="#DejaVuSans-64" transform="translate(1437.456055 0.015625)"/>
      <use xlink:href="#DejaVuSans-6f" transform="translate(1500.932617 0.015625)"/>
      <use xlink:href="#DejaVuSans-6d" transform="translate(1562.114258 0.015625)"/>
      <use xlink:href="#DejaVuSans-20" transform="translate(1659.526367 0.015625)"/>
      <use xlink:href="#DejaVuSans-69" transform="translate(1691.313477 0.015625)"/>
      <use xlink:href="#DejaVuSans-6e" transform="translate(1719.09668 0.015625)"/>
      <use xlink:href="#DejaVuSans-69" transform="translate(1782.475586 0.015625)"/>
      <use xlink:href="#DejaVuSans-74" transform="translate(1810.258789 0.015625)"/>
      <use xlink:href="#DejaVuSans-29" transform="translate(1849.467773 0.015625)"/>
     </g>
    </g>
   </g>
   <g id="matplotlib.axis_2">
    <g id="ytick_1">
     <g id="line2d_9">
      <defs>
       <path id="m341b213da8" d="M 0 0 
L -3.5 0 
" style="stroke: #000000; stroke-width: 0.8"/>
      </defs>
      <g>
       <use xlink:href="#m341b213da8" x="39.151406" y="218.68" style="stroke: #000000; stroke-width: 0.8"/>
      </g>
     </g>
     <g id="text_10">
      <!-- 0 -->
      <g transform="translate(25.788906 222.479219) scale(0.1 -0.1)">
       <use xlink:href="#DejaVuSans-30"/>
      </g>
     </g>
    </g>
    <g id="ytick_2">
     <g id="line2d_10">
      <g>
       <use xlink:href="#m341b213da8" x="39.151406" y="182.060087" style="stroke: #000000; stroke-width: 0.8"/>
      </g>
     </g>
     <g id="text_11">
      <!-- 2 -->
      <g transform="translate(25.788906 185.859305) scale(0.1 -0.1)">
       <use xlink:href="#DejaVuSans-32"/>
      </g>
     </g>
    </g>
    <g id="ytick_3">
     <g id="line2d_11">
      <g>
       <use xlink:href="#m341b213da8" x="39.151406" y="145.440173" style="stroke: #000000; stroke-width: 0.8"/>
      </g>
     </g>
     <g id="text_12">
      <!-- 4 -->
      <g transform="translate(25.788906 149.239392) scale(0.1 -0.1)">
       <defs>
        <path id="DejaVuSans-34" d="M 2419 4116 
L 825 1625 
L 2419 1625 
L 2419 4116 
z
M 2253 4666 
L 3047 4666 
L 3047 1625 
L 3713 1625 
L 3713 1100 
L 3047 1100 
L 3047 0 
L 2419 0 
L 2419 1100 
L 313 1100 
L 313 1709 
L 2253 4666 
z
" transform="scale(0.015625)"/>
       </defs>
       <use xlink:href="#DejaVuSans-34"/>
      </g>
     </g>
    </g>
    <g id="ytick_4">
     <g id="line2d_12">
      <g>
       <use xlink:href="#m341b213da8" x="39.151406" y="108.82026" style="stroke: #000000; stroke-width: 0.8"/>
      </g>
     </g>
     <g id="text_13">
      <!-- 6 -->
      <g transform="translate(25.788906 112.619478) scale(0.1 -0.1)">
       <defs>
        <path id="DejaVuSans-36" d="M 2113 2584 
Q 1688 2584 1439 2293 
Q 1191 2003 1191 1497 
Q 1191 994 1439 701 
Q 1688 409 2113 409 
Q 2538 409 2786 701 
Q 3034 994 3034 1497 
Q 3034 2003 2786 2293 
Q 2538 2584 2113 2584 
z
M 3366 4563 
L 3366 3988 
Q 3128 4100 2886 4159 
Q 2644 4219 2406 4219 
Q 1781 4219 1451 3797 
Q 1122 3375 1075 2522 
Q 1259 2794 1537 2939 
Q 1816 3084 2150 3084 
Q 2853 3084 3261 2657 
Q 3669 2231 3669 1497 
Q 3669 778 3244 343 
Q 2819 -91 2113 -91 
Q 1303 -91 875 529 
Q 447 1150 447 2328 
Q 447 3434 972 4092 
Q 1497 4750 2381 4750 
Q 2619 4750 2861 4703 
Q 3103 4656 3366 4563 
z
" transform="scale(0.015625)"/>
       </defs>
       <use xlink:href="#DejaVuSans-36"/>
      </g>
     </g>
    </g>
    <g id="ytick_5">
     <g id="line2d_13">
      <g>
       <use xlink:href="#m341b213da8" x="39.151406" y="72.200346" style="stroke: #000000; stroke-width: 0.8"/>
      </g>
     </g>
     <g id="text_14">
      <!-- 8 -->
      <g transform="translate(25.788906 75.999565) scale(0.1 -0.1)">
       <defs>
        <path id="DejaVuSans-38" d="M 2034 2216 
Q 1584 2216 1326 1975 
Q 1069 1734 1069 1313 
Q 1069 891 1326 650 
Q 1584 409 2034 409 
Q 2484 409 2743 651 
Q 3003 894 3003 1313 
Q 3003 1734 2745 1975 
Q 2488 2216 2034 2216 
z
M 1403 2484 
Q 997 2584 770 2862 
Q 544 3141 544 3541 
Q 544 4100 942 4425 
Q 1341 4750 2034 4750 
Q 2731 4750 3128 4425 
Q 3525 4100 3525 3541 
Q 3525 3141 3298 2862 
Q 3072 2584 2669 2484 
Q 3125 2378 3379 2068 
Q 3634 1759 3634 1313 
Q 3634 634 3220 271 
Q 2806 -91 2034 -91 
Q 1263 -91 848 271 
Q 434 634 434 1313 
Q 434 1759 690 2068 
Q 947 2378 1403 2484 
z
M 1172 3481 
Q 1172 3119 1398 2916 
Q 1625 2713 2034 2713 
Q 2441 2713 2670 2916 
Q 2900 3119 2900 3481 
Q 2900 3844 2670 4047 
Q 2441 4250 2034 4250 
Q 1625 4250 1398 4047 
Q 1172 3844 1172 3481 
z
" transform="scale(0.015625)"/>
       </defs>
       <use xlink:href="#DejaVuSans-38"/>
      </g>
     </g>
    </g>
    <g id="ytick_6">
     <g id="line2d_14">
      <g>
       <use xlink:href="#m341b213da8" x="39.151406" y="35.580433" style="stroke: #000000; stroke-width: 0.8"/>
      </g>
     </g>
     <g id="text_15">
      <!-- 10 -->
      <g transform="translate(19.426406 39.379652) scale(0.1 -0.1)">
       <use xlink:href="#DejaVuSans-31"/>
       <use xlink:href="#DejaVuSans-30" transform="translate(63.623047 0)"/>
      </g>
     </g>
    </g>
    <g id="text_16">
     <!-- # seeds (n=100) -->
     <g transform="translate(13.658672 149.242305) rotate(-90) scale(0.085 -0.085)">
      <defs>
       <path id="DejaVuSans-23" d="M 3272 2816 
L 2363 2816 
L 2100 1772 
L 3016 1772 
L 3272 2816 
z
M 2803 4594 
L 2478 3297 
L 3391 3297 
L 3719 4594 
L 4219 4594 
L 3897 3297 
L 4872 3297 
L 4872 2816 
L 3775 2816 
L 3519 1772 
L 4513 1772 
L 4513 1294 
L 3397 1294 
L 3072 0 
L 2572 0 
L 2894 1294 
L 1978 1294 
L 1656 0 
L 1153 0 
L 1478 1294 
L 494 1294 
L 494 1772 
L 1594 1772 
L 1856 2816 
L 850 2816 
L 850 3297 
L 1978 3297 
L 2297 4594 
L 2803 4594 
z
" transform="scale(0.015625)"/>
       <path id="DejaVuSans-65" d="M 3597 1894 
L 3597 1613 
L 953 1613 
Q 991 1019 1311 708 
Q 1631 397 2203 397 
Q 2534 397 2845 478 
Q 3156 559 3463 722 
L 3463 178 
Q 3153 47 2828 -22 
Q 2503 -91 2169 -91 
Q 1331 -91 842 396 
Q 353 884 353 1716 
Q 353 2575 817 3079 
Q 1281 3584 2069 3584 
Q 2775 3584 3186 3129 
Q 3597 2675 3597 1894 
z
M 3022 2063 
Q 3016 2534 2758 2815 
Q 2500 3097 2075 3097 
Q 1594 3097 1305 2825 
Q 1016 2553 972 2059 
L 3022 2063 
z
" transform="scale(0.015625)"/>
       <path id="DejaVuSans-3d" d="M 678 2906 
L 4684 2906 
L 4684 2381 
L 678 2381 
L 678 2906 
z
M 678 1631 
L 4684 1631 
L 4684 1100 
L 678 1100 
L 678 1631 
z
" transform="scale(0.015625)"/>
      </defs>
      <use xlink:href="#DejaVuSans-23"/>
      <use xlink:href="#DejaVuSans-20" transform="translate(83.789062 0)"/>
      <use xlink:href="#DejaVuSans-73" transform="translate(115.576172 0)"/>
      <use xlink:href="#DejaVuSans-65" transform="translate(167.675781 0)"/>
      <use xlink:href="#DejaVuSans-65" transform="translate(229.199219 0)"/>
      <use xlink:href="#DejaVuSans-64" transform="translate(290.722656 0)"/>
      <use xlink:href="#DejaVuSans-73" transform="translate(354.199219 0)"/>
      <use xlink:href="#DejaVuSans-20" transform="translate(406.298828 0)"/>
      <use xlink:href="#DejaVuSans-28" transform="translate(438.085938 0)"/>
      <use xlink:href="#DejaVuSans-6e" transform="translate(477.099609 0)"/>
      <use xlink:href="#DejaVuSans-3d" transform="translate(540.478516 0)"/>
      <use xlink:href="#DejaVuSans-31" transform="translate(624.267578 0)"/>
      <use xlink:href="#DejaVuSans-30" transform="translate(687.890625 0)"/>
      <use xlink:href="#DejaVuSans-30" transform="translate(751.513672 0)"/>
      <use xlink:href="#DejaVuSans-29" transform="translate(815.136719 0)"/>
     </g>
    </g>
   </g>
   <g id="line2d_15">
    <path d="M 143.688248 218.68 
L 143.688248 7.2 
" clip-path="url(#p994901c5df)" style="fill: none; stroke-dasharray: 4.44,1.92; stroke-dashoffset: 0; stroke: #000000; stroke-width: 1.2"/>
   </g>
   <g id="patch_27">
    <path d="M 39.151406 218.68 
L 39.151406 7.2 
" style="fill: none; stroke: #000000; stroke-width: 0.8; stroke-linejoin: miter; stroke-linecap: square"/>
   </g>
   <g id="patch_28">
    <path d="M 322.901406 218.68 
L 322.901406 7.2 
" style="fill: none; stroke: #000000; stroke-width: 0.8; stroke-linejoin: miter; stroke-linecap: square"/>
   </g>
   <g id="patch_29">
    <path d="M 39.151406 218.68 
L 322.901406 218.68 
" style="fill: none; stroke: #000000; stroke-width: 0.8; stroke-linejoin: miter; stroke-linecap: square"/>
   </g>
   <g id="patch_30">
    <path d="M 39.151406 7.2 
L 322.901406 7.2 
" style="fill: none; stroke: #000000; stroke-width: 0.8; stroke-linejoin: miter; stroke-linecap: square"/>
   </g>
   <g id="legend_1">
    <g id="line2d_16">
     <path d="M 204.701406 17.023828 
L 212.201406 17.023828 
L 219.701406 17.023828 
" style="fill: none; stroke-dasharray: 4.44,1.92; stroke-dashoffset: 0; stroke: #000000; stroke-width: 1.2"/>
    </g>
    <g id="text_17">
     <!-- mean 1060.8 ($\sigma$=417.1) -->
     <g transform="translate(225.701406 19.648828) scale(0.075 -0.075)">
      <defs>
       <path id="DejaVuSans-2e" d="M 684 794 
L 1344 794 
L 1344 0 
L 684 0 
L 684 794 
z
" transform="scale(0.015625)"/>
       <path id="DejaVuSans-Oblique-3c3" d="M 2219 3044 
Q 1744 3044 1422 2700 
Q 1081 2341 969 1747 
Q 844 1119 1044 756 
Q 1241 397 1706 397 
Q 2166 397 2503 759 
Q 2844 1122 2966 1747 
Q 3075 2319 2881 2700 
Q 2700 3044 2219 3044 
z
M 2309 3503 
L 4219 3500 
L 4106 2925 
L 3463 2925 
Q 3706 2438 3575 1747 
Q 3406 888 2884 400 
Q 2359 -91 1609 -91 
Q 856 -91 525 400 
Q 194 888 363 1747 
Q 528 2609 1050 3097 
Q 1484 3503 2309 3503 
z
" transform="scale(0.015625)"/>
      </defs>
      <use xlink:href="#DejaVuSans-6d" transform="translate(0 0.125)"/>
      <use xlink:href="#DejaVuSans-65" transform="translate(97.412109 0.125)"/>
      <use xlink:href="#DejaVuSans-61" transform="translate(158.935547 0.125)"/>
      <use xlink:href="#DejaVuSans-6e" transform="translate(220.214844 0.125)"/>
      <use xlink:href="#DejaVuSans-20" transform="translate(283.59375 0.125)"/>
      <use xlink:href="#DejaVuSans-31" transform="translate(315.380859 0.125)"/>
      <use xlink:href="#DejaVuSans-30" transform="translate(379.003906 0.125)"/>
      <use xlink:href="#DejaVuSans-36" transform="translate(442.626953 0.125)"/>
      <use xlink:href="#DejaVuSans-30" transform="translate(506.25 0.125)"/>
      <use xlink:href="#DejaVuSans-2e" transform="translate(569.873047 0.125)"/>
      <use xlink:href="#DejaVuSans-38" transform="translate(599.035156 0.125)"/>
      <use xlink:href="#DejaVuSans-20" transform="translate(662.658203 0.125)"/>
      <use xlink:href="#DejaVuSans-28" transform="translate(694.445312 0.125)"/>
      <use xlink:href="#DejaVuSans-Oblique-3c3" transform="translate(733.458984 0.125)"/>
      <use xlink:href="#DejaVuSans-3d" transform="translate(796.837891 0.125)"/>
      <use xlink:href="#DejaVuSans-34" transform="translate(880.626953 0.125)"/>
      <use xlink:href="#DejaVuSans-31" transform="translate(944.25 0.125)"/>
      <use xlink:href="#DejaVuSans-37" transform="translate(1007.873047 0.125)"/>
      <use xlink:href="#DejaVuSans-2e" transform="translate(1071.496094 0.125)"/>
      <use xlink:href="#DejaVuSans-31" transform="translate(1103.283203 0.125)"/>
      <use xlink:href="#DejaVuSans-29" transform="translate(1166.90625 0.125)"/>
     </g>
    </g>
   </g>
  </g>
 </g>
 <defs>
  <clipPath id="p994901c5df">
   <rect x="39.151406" y="7.2" width="283.75" height="211.48"/>
  </clipPath>
 </defs>
</svg>
