<?xml version="1.0" encoding="utf-8" standalone="no"?>
<!DOCTYPE svg PUBLIC "-//W3C//DTD SVG 1.1//EN"
  "http://www.w3.org/Graphics/SVG/1.1/DTD/svg11.dtd">
<svg xmlns:xlink="http://www.w3.org/1999/xlink" width="322.838906pt" height="254.803125pt" viewBox="0 0 322.838906 254.803125" xmlns="http://www.w3.org/2000/svg" version="1.1">
 <metadata>
  <rdf:RDF xmlns:dc="http://purl.org/dc/elements/1.1/" xmlns:cc="http://creativecommons.org/ns#" xmlns:rdf="http://www.w3.org/1999/02/22-rdf-syntax-ns#">
   <cc:Work>
    <dc:type rdf:resource="http://purl.org/dc/dcmitype/StillImage"/>
    <dc:date>2026-06-14T09:40:20.065128</dc:date>
    <dc:format>image/svg+xml</dc:format>
    <dc:creator>
     <cc:Agent>
      <dc:title>Matplotlib v3.10.9, https://matplotlib.org/</dc:title>
     </cc:Agent>
    </dc:creator>
   </cc:Work>
  </rdf:RDF>
 </metadata>
 <defs>
  <style type="text/css">*{stroke-linejoin: round; stroke-linecap: butt}</style>
 </defs>
 <g id="figure_1">
  <g id="patch_1">
   <path d="M 0 254.803125 
L 322.838906 254.803125 
L 322.838906 0 
L 0 0 
z
" style="fill: #ffffff"/>
  </g>
  <g id="axes_1">
   <g id="patch_2">
    <path d="M 32.788906 218.68 
L 315.638906 218.68 
L 315.638906 7.2 
L 32.788906 7.2 
z
" style="fill: #ffffff"/>
   </g>
   <g id="patch_3">
    <path d="M 45.645724 218.68 
L 56.825566 218.68 
L 56.825566 218.68 
L 45.645724 218.68 
z
" clip-path="url(#pd883b892da)" style="fill: #0072b2; opacity: 0.3"/>
   </g>
   <g id="patch_4">
    <path d="M 56.825566 218.68 
L 68.005408 218.68 
L 68.005408 218.68 
L 56.825566 218.68 
z
" clip-path="url(#pd883b892da)" style="fill: #0072b2; opacity: 0.3"/>
   </g>
   <g id="patch_5">
    <path d="M 68.005408 218.68 
L 79.18525 218.68 
L 79.18525 218.68 
L 68.005408 218.68 
z
" clip-path="url(#pd883b892da)" style="fill: #0072b2; opacity: 0.3"/>
   </g>
   <g id="patch_6">
    <path d="M 79.18525 218.68 
L 90.365092 218.68 
L 90.365092 218.68 
L 79.18525 218.68 
z
" clip-path="url(#pd883b892da)" style="fill: #0072b2; opacity: 0.3"/>
   </g>
   <g id="patch_7">
    <path d="M 90.365092 218.68 
L 101.544934 218.68 
L 101.544934 218.68 
L 90.365092 218.68 
z
" clip-path="url(#pd883b892da)" style="fill: #0072b2; opacity: 0.3"/>
   </g>
   <g id="patch_8">
    <path d="M 101.544934 218.68 
L 112.724776 218.68 
L 112.724776 218.68 
L 101.544934 218.68 
z
" clip-path="url(#pd883b892da)" style="fill: #0072b2; opacity: 0.3"/>
   </g>
   <g id="patch_9">
    <path d="M 112.724776 218.68 
L 123.904618 218.68 
L 123.904618 218.68 
L 112.724776 218.68 
z
" clip-path="url(#pd883b892da)" style="fill: #0072b2; opacity: 0.3"/>
   </g>
   <g id="patch_10">
    <path d="M 123.904618 218.68 
L 135.08446 218.68 
L 135.08446 218.68 
L 123.904618 218.68 
z
" clip-path="url(#pd883b892da)" style="fill: #0072b2; opacity: 0.3"/>
   </g>
   <g id="patch_11">
    <path d="M 135.08446 218.68 
L 146.264302 218.68 
L 146.264302 218.68 
L 135.08446 218.68 
z
" clip-path="url(#pd883b892da)" style="fill: #0072b2; opacity: 0.3"/>
   </g>
   <g id="patch_12">
    <path d="M 146.264302 218.68 
L 157.444143 218.68 
L 157.444143 218.68 
L 146.264302 218.68 
z
" clip-path="url(#pd883b892da)" style="fill: #0072b2; opacity: 0.3"/>
   </g>
   <g id="patch_13">
    <path d="M 157.444143 218.68 
L 168.623985 218.68 
L 168.623985 218.68 
L 157.444143 218.68 
z
" clip-path="url(#pd883b892da)" style="fill: #0072b2; opacity: 0.3"/>
   </g>
   <g id="patch_14">
    <path d="M 168.623985 218.68 
L 179.803827 218.68 
L 179.803827 218.68 
L 168.623985 218.68 
z
" clip-path="url(#pd883b892da)" style="fill: #0072b2; opacity: 0.3"/>
   </g>
   <g id="patch_15">
    <path d="M 179.803827 218.68 
L 190.983669 218.68 
L 190.983669 218.68 
L 179.803827 218.68 
z
" clip-path="url(#pd883b892da)" style="fill: #0072b2; opacity: 0.3"/>
   </g>
   <g id="patch_16">
    <path d="M 190.983669 218.68 
L 202.163511 218.68 
L 202.163511 218.68 
L 190.983669 218.68 
z
" clip-path="url(#pd883b892da)" style="fill: #0072b2; opacity: 0.3"/>
   </g>
   <g id="patch_17">
    <path d="M 202.163511 218.68 
L 213.343353 218.68 
L 213.343353 218.68 
L 202.163511 218.68 
z
" clip-path="url(#pd883b892da)" style="fill: #0072b2; opacity: 0.3"/>
   </g>
   <g id="patch_18">
    <path d="M 213.343353 218.68 
L 224.523195 218.68 
L 224.523195 60.237841 
L 213.343353 60.237841 
z
" clip-path="url(#pd883b892da)" style="fill: #0072b2; opacity: 0.3"/>
   </g>
   <g id="patch_19">
    <path d="M 224.523195 218.68 
L 235.703037 218.68 
L 235.703037 207.938159 
L 224.523195 207.938159 
z
" clip-path="url(#pd883b892da)" style="fill: #0072b2; opacity: 0.3"/>
   </g>
   <g id="patch_20">
    <path d="M 235.703037 218.68 
L 246.882879 218.68 
L 246.882879 122.003429 
L 235.703037 122.003429 
z
" clip-path="url(#pd883b892da)" style="fill: #0072b2; opacity: 0.3"/>
   </g>
   <g id="patch_21">
    <path d="M 246.882879 218.68 
L 258.06272 218.68 
L 258.06272 218.68 
L 246.882879 218.68 
z
" clip-path="url(#pd883b892da)" style="fill: #0072b2; opacity: 0.3"/>
   </g>
   <g id="patch_22">
    <path d="M 258.06272 218.68 
L 269.242562 218.68 
L 269.242562 218.68 
L 258.06272 218.68 
z
" clip-path="url(#pd883b892da)" style="fill: #0072b2; opacity: 0.3"/>
   </g>
   <g id="patch_23">
    <path d="M 269.242562 218.68 
L 280.422404 218.68 
L 280.422404 215.99454 
L 269.242562 215.99454 
z
" clip-path="url(#pd883b892da)" style="fill: #0072b2; opacity: 0.3"/>
   </g>
   <g id="patch_24">
    <path d="M 280.422404 218.68 
L 291.602246 218.68 
L 291.602246 218.68 
L 280.422404 218.68 
z
" clip-path="url(#pd883b892da)" style="fill: #0072b2; opacity: 0.3"/>
   </g>
   <g id="patch_25">
    <path d="M 291.602246 218.68 
L 302.782088 218.68 
L 302.782088 218.68 
L 291.602246 218.68 
z
" clip-path="url(#pd883b892da)" style="fill: #0072b2; opacity: 0.3"/>
   </g>
   <g id="patch_26">
    <path d="M 45.645724 218.68 
L 56.825566 218.68 
L 56.825566 218.68 
L 45.645724 218.68 
z
" clip-path="url(#pd883b892da)" style="fill: #e69f00; opacity: 0.3"/>
   </g>
   <g id="patch_27">
    <path d="M 56.825566 218.68 
L 68.005408 218.68 
L 68.005408 218.68 
L 56.825566 218.68 
z
" clip-path="url(#pd883b892da)" style="fill: #e69f00; opacity: 0.3"/>
   </g>
   <g id="patch_28">
    <path d="M 68.005408 218.68 
L 79.18525 218.68 
L 79.18525 218.68 
L 68.005408 218.68 
z
" clip-path="url(#pd883b892da)" style="fill: #e69f00; opacity: 0.3"/>
   </g>
   <g id="patch_29">
    <path d="M 79.18525 218.68 
L 90.365092 218.68 
L 90.365092 218.68 
L 79.18525 218.68 
z
" clip-path="url(#pd883b892da)" style="fill: #e69f00; opacity: 0.3"/>
   </g>
   <g id="patch_30">
    <path d="M 90.365092 218.68 
L 101.544934 218.68 
L 101.544934 218.68 
L 90.365092 218.68 
z
" clip-path="url(#pd883b892da)" style="fill: #e69f00; opacity: 0.3"/>
   </g>
   <g id="patch_31">
    <path d="M 101.544934 218.68 
L 112.724776 218.68 
L 112.724776 218.68 
L 101.544934 218.68 
z
" clip-path="url(#pd883b892da)" style="fill: #e69f00; opacity: 0.3"/>
   </g>
   <g id="patch_32">
    <path d="M 112.724776 218.68 
L 123.904618 218.68 
L 123.904618 218.68 
L 112.724776 218.68 
z
" clip-path="url(#pd883b892da)" style="fill: #e69f00; opacity: 0.3"/>
   </g>
   <g id="patch_33">
    <path d="M 123.904618 218.68 
L 135.08446 218.68 
L 135.08446 218.68 
L 123.904618 218.68 
z
" clip-path="url(#pd883b892da)" style="fill: #e69f00; opacity: 0.3"/>
   </g>
   <g id="patch_34">
    <path d="M 135.08446 218.68 
L 146.264302 218.68 
L 146.264302 218.68 
L 135.08446 218.68 
z
" clip-path="url(#pd883b892da)" style="fill: #e69f00; opacity: 0.3"/>
   </g>
   <g id="patch_35">
    <path d="M 146.264302 218.68 
L 157.444143 218.68 
L 157.444143 218.68 
L 146.264302 218.68 
z
" clip-path="url(#pd883b892da)" style="fill: #e69f00; opacity: 0.3"/>
   </g>
   <g id="patch_36">
    <path d="M 157.444143 218.68 
L 168.623985 218.68 
L 168.623985 218.68 
L 157.444143 218.68 
z
" clip-path="url(#pd883b892da)" style="fill: #e69f00; opacity: 0.3"/>
   </g>
   <g id="patch_37">
    <path d="M 168.623985 218.68 
L 179.803827 218.68 
L 179.803827 218.68 
L 168.623985 218.68 
z
" clip-path="url(#pd883b892da)" style="fill: #e69f00; opacity: 0.3"/>
   </g>
   <g id="patch_38">
    <path d="M 179.803827 218.68 
L 190.983669 218.68 
L 190.983669 215.99454 
L 179.803827 215.99454 
z
" clip-path="url(#pd883b892da)" style="fill: #e69f00; opacity: 0.3"/>
   </g>
   <g id="patch_39">
    <path d="M 190.983669 218.68 
L 202.163511 218.68 
L 202.163511 215.99454 
L 190.983669 215.99454 
z
" clip-path="url(#pd883b892da)" style="fill: #e69f00; opacity: 0.3"/>
   </g>
   <g id="patch_40">
    <path d="M 202.163511 218.68 
L 213.343353 218.68 
L 213.343353 218.68 
L 202.163511 218.68 
z
" clip-path="url(#pd883b892da)" style="fill: #e69f00; opacity: 0.3"/>
   </g>
   <g id="patch_41">
    <path d="M 213.343353 218.68 
L 224.523195 218.68 
L 224.523195 17.270476 
L 213.343353 17.270476 
z
" clip-path="url(#pd883b892da)" style="fill: #e69f00; opacity: 0.3"/>
   </g>
   <g id="patch_42">
    <path d="M 224.523195 218.68 
L 235.703037 218.68 
L 235.703037 167.656254 
L 224.523195 167.656254 
z
" clip-path="url(#pd883b892da)" style="fill: #e69f00; opacity: 0.3"/>
   </g>
   <g id="patch_43">
    <path d="M 235.703037 218.68 
L 246.882879 218.68 
L 246.882879 207.938159 
L 235.703037 207.938159 
z
" clip-path="url(#pd883b892da)" style="fill: #e69f00; opacity: 0.3"/>
   </g>
   <g id="patch_44">
    <path d="M 246.882879 218.68 
L 258.06272 218.68 
L 258.06272 218.68 
L 246.882879 218.68 
z
" clip-path="url(#pd883b892da)" style="fill: #e69f00; opacity: 0.3"/>
   </g>
   <g id="patch_45">
    <path d="M 258.06272 218.68 
L 269.242562 218.68 
L 269.242562 218.68 
L 258.06272 218.68 
z
" clip-path="url(#pd883b892da)" style="fill: #e69f00; opacity: 0.3"/>
   </g>
   <g id="patch_46">
    <path d="M 269.242562 218.68 
L 280.422404 218.68 
L 280.422404 218.68 
L 269.242562 218.68 
z
" clip-path="url(#pd883b892da)" style="fill: #e69f00; opacity: 0.3"/>
   </g>
   <g id="patch_47">
    <path d="M 280.422404 218.68 
L 291.602246 218.68 
L 291.602246 218.68 
L 280.422404 218.68 
z
" clip-path="url(#pd883b892da)" style="fill: #e69f00; opacity: 0.3"/>
   </g>
   <g id="patch_48">
    <path d="M 291.602246 218.68 
L 302.782088 218.68 
L 302.782088 218.68 
L 291.602246 218.68 
z
" clip-path="url(#pd883b892da)" style="fill: #e69f00; opacity: 0.3"/>
   </g>
   <g id="patch_49">
    <path d="M 45.645724 218.68 
L 56.825566 218.68 
L 56.825566 218.68 
L 45.645724 218.68 
z
" clip-path="url(#pd883b892da)" style="fill: #009e73; opacity: 0.3"/>
   </g>
   <g id="patch_50">
    <path d="M 56.825566 218.68 
L 68.005408 218.68 
L 68.005408 218.68 
L 56.825566 218.68 
z
" clip-path="url(#pd883b892da)" style="fill: #009e73; opacity: 0.3"/>
   </g>
   <g id="patch_51">
    <path d="M 68.005408 218.68 
L 79.18525 218.68 
L 79.18525 215.99454 
L 68.005408 215.99454 
z
" clip-path="url(#pd883b892da)" style="fill: #009e73; opacity: 0.3"/>
   </g>
   <g id="patch_52">
    <path d="M 79.18525 218.68 
L 90.365092 218.68 
L 90.365092 218.68 
L 79.18525 218.68 
z
" clip-path="url(#pd883b892da)" style="fill: #009e73; opacity: 0.3"/>
   </g>
   <g id="patch_53">
    <path d="M 90.365092 218.68 
L 101.544934 218.68 
L 101.544934 218.68 
L 90.365092 218.68 
z
" clip-path="url(#pd883b892da)" style="fill: #009e73; opacity: 0.3"/>
   </g>
   <g id="patch_54">
    <path d="M 101.544934 218.68 
L 112.724776 218.68 
L 112.724776 218.68 
L 101.544934 218.68 
z
" clip-path="url(#pd883b892da)" style="fill: #009e73; opacity: 0.3"/>
   </g>
   <g id="patch_55">
    <path d="M 112.724776 218.68 
L 123.904618 218.68 
L 123.904618 218.68 
L 112.724776 218.68 
z
" clip-path="url(#pd883b892da)" style="fill: #009e73; opacity: 0.3"/>
   </g>
   <g id="patch_56">
    <path d="M 123.904618 218.68 
L 135.08446 218.68 
L 135.08446 213.309079 
L 123.904618 213.309079 
z
" clip-path="url(#pd883b892da)" style="fill: #009e73; opacity: 0.3"/>
   </g>
   <g id="patch_57">
    <path d="M 135.08446 218.68 
L 146.264302 218.68 
L 146.264302 186.454476 
L 135.08446 186.454476 
z
" clip-path="url(#pd883b892da)" style="fill: #009e73; opacity: 0.3"/>
   </g>
   <g id="patch_58">
    <path d="M 146.264302 218.68 
L 157.444143 218.68 
L 157.444143 183.769016 
L 146.264302 183.769016 
z
" clip-path="url(#pd883b892da)" style="fill: #009e73; opacity: 0.3"/>
   </g>
   <g id="patch_59">
    <path d="M 157.444143 218.68 
L 168.623985 218.68 
L 168.623985 213.309079 
L 157.444143 213.309079 
z
" clip-path="url(#pd883b892da)" style="fill: #009e73; opacity: 0.3"/>
   </g>
   <g id="patch_60">
    <path d="M 168.623985 218.68 
L 179.803827 218.68 
L 179.803827 218.68 
L 168.623985 218.68 
z
" clip-path="url(#pd883b892da)" style="fill: #009e73; opacity: 0.3"/>
   </g>
   <g id="patch_61">
    <path d="M 179.803827 218.68 
L 190.983669 218.68 
L 190.983669 164.970794 
L 179.803827 164.970794 
z
" clip-path="url(#pd883b892da)" style="fill: #009e73; opacity: 0.3"/>
   </g>
   <g id="patch_62">
    <path d="M 190.983669 218.68 
L 202.163511 218.68 
L 202.163511 108.576127 
L 190.983669 108.576127 
z
" clip-path="url(#pd883b892da)" style="fill: #009e73; opacity: 0.3"/>
   </g>
   <g id="patch_63">
    <path d="M 202.163511 218.68 
L 213.343353 218.68 
L 213.343353 218.68 
L 202.163511 218.68 
z
" clip-path="url(#pd883b892da)" style="fill: #009e73; opacity: 0.3"/>
   </g>
   <g id="patch_64">
    <path d="M 213.343353 218.68 
L 224.523195 218.68 
L 224.523195 197.196317 
L 213.343353 197.196317 
z
" clip-path="url(#pd883b892da)" style="fill: #009e73; opacity: 0.3"/>
   </g>
   <g id="patch_65">
    <path d="M 224.523195 218.68 
L 235.703037 218.68 
L 235.703037 218.68 
L 224.523195 218.68 
z
" clip-path="url(#pd883b892da)" style="fill: #009e73; opacity: 0.3"/>
   </g>
   <g id="patch_66">
    <path d="M 235.703037 218.68 
L 246.882879 218.68 
L 246.882879 215.99454 
L 235.703037 215.99454 
z
" clip-path="url(#pd883b892da)" style="fill: #009e73; opacity: 0.3"/>
   </g>
   <g id="patch_67">
    <path d="M 246.882879 218.68 
L 258.06272 218.68 
L 258.06272 218.68 
L 246.882879 218.68 
z
" clip-path="url(#pd883b892da)" style="fill: #009e73; opacity: 0.3"/>
   </g>
   <g id="patch_68">
    <path d="M 258.06272 218.68 
L 269.242562 218.68 
L 269.242562 218.68 
L 258.06272 218.68 
z
" clip-path="url(#pd883b892da)" style="fill: #009e73; opacity: 0.3"/>
   </g>
   <g id="patch_69">
    <path d="M 269.242562 218.68 
L 280.422404 218.68 
L 280.422404 218.68 
L 269.242562 218.68 
z
" clip-path="url(#pd883b892da)" style="fill: #009e73; opacity: 0.3"/>
   </g>
   <g id="patch_70">
    <path d="M 280.422404 218.68 
L 291.602246 218.68 
L 291.602246 218.68 
L 280.422404 218.68 
z
" clip-path="url(#pd883b892da)" style="fill: #009e73; opacity: 0.3"/>
   </g>
   <g id="patch_71">
    <path d="M 291.602246 218.68 
L 302.782088 218.68 
L 302.782088 218.68 
L 291.602246 218.68 
z
" clip-path="url(#pd883b892da)" style="fill: #009e73; opacity: 0.3"/>
   </g>
   <g id="matplotlib.axis_1">
    <g id="xtick_1">
     <g id="line2d_1">
      <defs>
       <path id="m7dcd257ada" d="M 0 0 
L 0 3.5 
" style="stroke: #000000; stroke-width: 0.8"/>
      </defs>
      <g>
       <use xlink:href="#m7dcd257ada" x="60.251003" y="218.68" style="stroke: #000000; stroke-width: 0.8"/>
      </g>
     </g>
     <g id="text_1">
      <!-- 30.0 -->
      <g transform="translate(49.118191 233.278438) scale(0.1 -0.1)">
       <defs>
        <path id="DejaVuSans-33" d="M 2597 2516 
Q 3050 2419 3304 2112 
Q 3559 1806 3559 1356 
Q 3559 666 3084 287 
Q 2609 -91 1734 -91 
Q 1441 -91 1130 -33 
Q 819 25 488 141 
L 488 750 
Q 750 597 1062 519 
Q 1375 441 1716 441 
Q 2309 441 2620 675 
Q 2931 909 2931 1356 
Q 2931 1769 2642 2001 
Q 2353 2234 1838 2234 
L 1294 2234 
L 1294 2753 
L 1863 2753 
Q 2328 2753 2575 2939 
Q 2822 3125 2822 3475 
Q 2822 3834 2567 4026 
Q 2313 4219 1838 4219 
Q 1578 4219 1281 4162 
Q 984 4106 628 3988 
L 628 4550 
Q 988 4650 1302 4700 
Q 1616 4750 1894 4750 
Q 2613 4750 3031 4423 
Q 3450 4097 3450 3541 
Q 3450 3153 3228 2886 
Q 3006 2619 2597 2516 
z
" transform="scale(0.015625)"/>
        <path id="DejaVuSans-30" d="M 2034 4250 
Q 1547 4250 1301 3770 
Q 1056 3291 1056 2328 
Q 1056 1369 1301 889 
Q 1547 409 2034 409 
Q 2525 409 2770 889 
Q 3016 1369 3016 2328 
Q 3016 3291 2770 3770 
Q 2525 4250 2034 4250 
z
M 2034 4750 
Q 2819 4750 3233 4129 
Q 3647 3509 3647 2328 
Q 3647 1150 3233 529 
Q 2819 -91 2034 -91 
Q 1250 -91 836 529 
Q 422 1150 422 2328 
Q 422 3509 836 4129 
Q 1250 4750 2034 4750 
z
" transform="scale(0.015625)"/>
        <path id="DejaVuSans-2e" d="M 684 794 
L 1344 794 
L 1344 0 
L 684 0 
L 684 794 
z
" transform="scale(0.015625)"/>
       </defs>
       <use xlink:href="#DejaVuSans-33"/>
       <use xlink:href="#DejaVuSans-30" transform="translate(63.623047 0)"/>
       <use xlink:href="#DejaVuSans-2e" transform="translate(127.246094 0)"/>
       <use xlink:href="#DejaVuSans-30" transform="translate(159.033203 0)"/>
      </g>
     </g>
    </g>
    <g id="xtick_2">
     <g id="line2d_2">
      <g>
       <use xlink:href="#m7dcd257ada" x="107.35089" y="218.68" style="stroke: #000000; stroke-width: 0.8"/>
      </g>
     </g>
     <g id="text_2">
      <!-- 30.5 -->
      <g transform="translate(96.218077 233.278438) scale(0.1 -0.1)">
       <defs>
        <path id="DejaVuSans-35" d="M 691 4666 
L 3169 4666 
L 3169 4134 
L 1269 4134 
L 1269 2991 
Q 1406 3038 1543 3061 
Q 1681 3084 1819 3084 
Q 2600 3084 3056 2656 
Q 3513 2228 3513 1497 
Q 3513 744 3044 326 
Q 2575 -91 1722 -91 
Q 1428 -91 1123 -41 
Q 819 9 494 109 
L 494 744 
Q 775 591 1075 516 
Q 1375 441 1709 441 
Q 2250 441 2565 725 
Q 2881 1009 2881 1497 
Q 2881 1984 2565 2268 
Q 2250 2553 1709 2553 
Q 1456 2553 1204 2497 
Q 953 2441 691 2322 
L 691 4666 
z
" transform="scale(0.015625)"/>
       </defs>
       <use xlink:href="#DejaVuSans-33"/>
       <use xlink:href="#DejaVuSans-30" transform="translate(63.623047 0)"/>
       <use xlink:href="#DejaVuSans-2e" transform="translate(127.246094 0)"/>
       <use xlink:href="#DejaVuSans-35" transform="translate(159.033203 0)"/>
      </g>
     </g>
    </g>
    <g id="xtick_3">
     <g id="line2d_3">
      <g>
       <use xlink:href="#m7dcd257ada" x="154.450776" y="218.68" style="stroke: #000000; stroke-width: 0.8"/>
      </g>
     </g>
     <g id="text_3">
      <!-- 31.0 -->
      <g transform="translate(143.317964 233.278438) scale(0.1 -0.1)">
       <defs>
        <path id="DejaVuSans-31" d="M 794 531 
L 1825 531 
L 1825 4091 
L 703 3866 
L 703 4441 
L 1819 4666 
L 2450 4666 
L 2450 531 
L 3481 531 
L 3481 0 
L 794 0 
L 794 531 
z
" transform="scale(0.015625)"/>
       </defs>
       <use xlink:href="#DejaVuSans-33"/>
       <use xlink:href="#DejaVuSans-31" transform="translate(63.623047 0)"/>
       <use xlink:href="#DejaVuSans-2e" transform="translate(127.246094 0)"/>
       <use xlink:href="#DejaVuSans-30" transform="translate(159.033203 0)"/>
      </g>
     </g>
    </g>
    <g id="xtick_4">
     <g id="line2d_4">
      <g>
       <use xlink:href="#m7dcd257ada" x="201.550663" y="218.68" style="stroke: #000000; stroke-width: 0.8"/>
      </g>
     </g>
     <g id="text_4">
      <!-- 31.5 -->
      <g transform="translate(190.41785 233.278438) scale(0.1 -0.1)">
       <use xlink:href="#DejaVuSans-33"/>
       <use xlink:href="#DejaVuSans-31" transform="translate(63.623047 0)"/>
       <use xlink:href="#DejaVuSans-2e" transform="translate(127.246094 0)"/>
       <use xlink:href="#DejaVuSans-35" transform="translate(159.033203 0)"/>
      </g>
     </g>
    </g>
    <g id="xtick_5">
     <g id="line2d_5">
      <g>
       <use xlink:href="#m7dcd257ada" x="248.650549" y="218.68" style="stroke: #000000; stroke-width: 0.8"/>
      </g>
     </g>
     <g id="text_5">
      <!-- 32.0 -->
      <g transform="translate(237.517737 233.278438) scale(0.1 -0.1)">
       <defs>
        <path id="DejaVuSans-32" d="M 1228 531 
L 3431 531 
L 3431 0 
L 469 0 
L 469 531 
Q 828 903 1448 1529 
Q 2069 2156 2228 2338 
Q 2531 2678 2651 2914 
Q 2772 3150 2772 3378 
Q 2772 3750 2511 3984 
Q 2250 4219 1831 4219 
Q 1534 4219 1204 4116 
Q 875 4013 500 3803 
L 500 4441 
Q 881 4594 1212 4672 
Q 1544 4750 1819 4750 
Q 2544 4750 2975 4387 
Q 3406 4025 3406 3419 
Q 3406 3131 3298 2873 
Q 3191 2616 2906 2266 
Q 2828 2175 2409 1742 
Q 1991 1309 1228 531 
z
" transform="scale(0.015625)"/>
       </defs>
       <use xlink:href="#DejaVuSans-33"/>
       <use xlink:href="#DejaVuSans-32" transform="translate(63.623047 0)"/>
       <use xlink:href="#DejaVuSans-2e" transform="translate(127.246094 0)"/>
       <use xlink:href="#DejaVuSans-30" transform="translate(159.033203 0)"/>
      </g>
     </g>
    </g>
    <g id="xtick_6">
     <g id="line2d_6">
      <g>
       <use xlink:href="#m7dcd257ada" x="295.750436" y="218.68" style="stroke: #000000; stroke-width: 0.8"/>
      </g>
     </g>
     <g id="text_6">
      <!-- 32.5 -->
      <g transform="translate(284.617623 233.278438) scale(0.1 -0.1)">
       <use xlink:href="#DejaVuSans-33"/>
       <use xlink:href="#DejaVuSans-32" transform="translate(63.623047 0)"/>
       <use xlink:href="#DejaVuSans-2e" transform="translate(127.246094 0)"/>
       <use xlink:href="#DejaVuSans-35" transform="translate(159.033203 0)"/>
      </g>
     </g>
    </g>
    <g id="text_7">
     <!-- test PSNR @ $\rho=.20$  (dB) -->
     <g transform="translate(119.346406 245.818125) scale(0.085 -0.085)">
      <defs>
       <path id="DejaVuSans-74" d="M 1172 4494 
L 1172 3500 
L 2356 3500 
L 2356 3053 
L 1172 3053 
L 1172 1153 
Q 1172 725 1289 603 
Q 1406 481 1766 481 
L 2356 481 
L 2356 0 
L 1766 0 
Q 1100 0 847 248 
Q 594 497 594 1153 
L 594 3053 
L 172 3053 
L 172 3500 
L 594 3500 
L 594 4494 
L 1172 4494 
z
" transform="scale(0.015625)"/>
       <path id="DejaVuSans-65" d="M 3597 1894 
L 3597 1613 
L 953 1613 
Q 991 1019 1311 708 
Q 1631 397 2203 397 
Q 2534 397 2845 478 
Q 3156 559 3463 722 
L 3463 178 
Q 3153 47 2828 -22 
Q 2503 -91 2169 -91 
Q 1331 -91 842 396 
Q 353 884 353 1716 
Q 353 2575 817 3079 
Q 1281 3584 2069 3584 
Q 2775 3584 3186 3129 
Q 3597 2675 3597 1894 
z
M 3022 2063 
Q 3016 2534 2758 2815 
Q 2500 3097 2075 3097 
Q 1594 3097 1305 2825 
Q 1016 2553 972 2059 
L 3022 2063 
z
" transform="scale(0.015625)"/>
       <path id="DejaVuSans-73" d="M 2834 3397 
L 2834 2853 
Q 2591 2978 2328 3040 
Q 2066 3103 1784 3103 
Q 1356 3103 1142 2972 
Q 928 2841 928 2578 
Q 928 2378 1081 2264 
Q 1234 2150 1697 2047 
L 1894 2003 
Q 2506 1872 2764 1633 
Q 3022 1394 3022 966 
Q 3022 478 2636 193 
Q 2250 -91 1575 -91 
Q 1294 -91 989 -36 
Q 684 19 347 128 
L 347 722 
Q 666 556 975 473 
Q 1284 391 1588 391 
Q 1994 391 2212 530 
Q 2431 669 2431 922 
Q 2431 1156 2273 1281 
Q 2116 1406 1581 1522 
L 1381 1569 
Q 847 1681 609 1914 
Q 372 2147 372 2553 
Q 372 3047 722 3315 
Q 1072 3584 1716 3584 
Q 2034 3584 2315 3537 
Q 2597 3491 2834 3397 
z
" transform="scale(0.015625)"/>
       <path id="DejaVuSans-20" transform="scale(0.015625)"/>
       <path id="DejaVuSans-50" d="M 1259 4147 
L 1259 2394 
L 2053 2394 
Q 2494 2394 2734 2622 
Q 2975 2850 2975 3272 
Q 2975 3691 2734 3919 
Q 2494 4147 2053 4147 
L 1259 4147 
z
M 628 4666 
L 2053 4666 
Q 2838 4666 3239 4311 
Q 3641 3956 3641 3272 
Q 3641 2581 3239 2228 
Q 2838 1875 2053 1875 
L 1259 1875 
L 1259 0 
L 628 0 
L 628 4666 
z
" transform="scale(0.015625)"/>
       <path id="DejaVuSans-53" d="M 3425 4513 
L 3425 3897 
Q 3066 4069 2747 4153 
Q 2428 4238 2131 4238 
Q 1616 4238 1336 4038 
Q 1056 3838 1056 3469 
Q 1056 3159 1242 3001 
Q 1428 2844 1947 2747 
L 2328 2669 
Q 3034 2534 3370 2195 
Q 3706 1856 3706 1288 
Q 3706 609 3251 259 
Q 2797 -91 1919 -91 
Q 1588 -91 1214 -16 
Q 841 59 441 206 
L 441 856 
Q 825 641 1194 531 
Q 1563 422 1919 422 
Q 2459 422 2753 634 
Q 3047 847 3047 1241 
Q 3047 1584 2836 1778 
Q 2625 1972 2144 2069 
L 1759 2144 
Q 1053 2284 737 2584 
Q 422 2884 422 3419 
Q 422 4038 858 4394 
Q 1294 4750 2059 4750 
Q 2388 4750 2728 4690 
Q 3069 4631 3425 4513 
z
" transform="scale(0.015625)"/>
       <path id="DejaVuSans-4e" d="M 628 4666 
L 1478 4666 
L 3547 763 
L 3547 4666 
L 4159 4666 
L 4159 0 
L 3309 0 
L 1241 3903 
L 1241 0 
L 628 0 
L 628 4666 
z
" transform="scale(0.015625)"/>
       <path id="DejaVuSans-52" d="M 2841 2188 
Q 3044 2119 3236 1894 
Q 3428 1669 3622 1275 
L 4263 0 
L 3584 0 
L 2988 1197 
Q 2756 1666 2539 1819 
Q 2322 1972 1947 1972 
L 1259 1972 
L 1259 0 
L 628 0 
L 628 4666 
L 2053 4666 
Q 2853 4666 3247 4331 
Q 3641 3997 3641 3322 
Q 3641 2881 3436 2590 
Q 3231 2300 2841 2188 
z
M 1259 4147 
L 1259 2491 
L 2053 2491 
Q 2509 2491 2742 2702 
Q 2975 2913 2975 3322 
Q 2975 3731 2742 3939 
Q 2509 4147 2053 4147 
L 1259 4147 
z
" transform="scale(0.015625)"/>
       <path id="DejaVuSans-40" d="M 2381 1678 
Q 2381 1231 2603 976 
Q 2825 722 3213 722 
Q 3597 722 3817 978 
Q 4038 1234 4038 1678 
Q 4038 2116 3813 2373 
Q 3588 2631 3206 2631 
Q 2828 2631 2604 2375 
Q 2381 2119 2381 1678 
z
M 4084 744 
Q 3897 503 3655 389 
Q 3413 275 3091 275 
Q 2553 275 2217 664 
Q 1881 1053 1881 1678 
Q 1881 2303 2218 2693 
Q 2556 3084 3091 3084 
Q 3413 3084 3656 2967 
Q 3900 2850 4084 2613 
L 4084 3022 
L 4531 3022 
L 4531 722 
Q 4988 791 5245 1139 
Q 5503 1488 5503 2041 
Q 5503 2375 5404 2669 
Q 5306 2963 5106 3213 
Q 4781 3622 4314 3839 
Q 3847 4056 3297 4056 
Q 2913 4056 2559 3954 
Q 2206 3853 1906 3653 
Q 1416 3334 1139 2817 
Q 863 2300 863 1697 
Q 863 1200 1042 765 
Q 1222 331 1563 0 
Q 1891 -325 2322 -495 
Q 2753 -666 3244 -666 
Q 3647 -666 4036 -530 
Q 4425 -394 4750 -141 
L 5031 -488 
Q 4641 -791 4180 -952 
Q 3719 -1113 3244 -1113 
Q 2666 -1113 2153 -908 
Q 1641 -703 1241 -313 
Q 841 78 631 592 
Q 422 1106 422 1697 
Q 422 2266 634 2781 
Q 847 3297 1241 3688 
Q 1644 4084 2172 4295 
Q 2700 4506 3291 4506 
Q 3953 4506 4520 4234 
Q 5088 3963 5472 3463 
Q 5706 3156 5829 2797 
Q 5953 2438 5953 2053 
Q 5953 1231 5456 756 
Q 4959 281 4084 263 
L 4084 744 
z
" transform="scale(0.015625)"/>
       <path id="DejaVuSans-Oblique-3c1" d="M 1203 2875 
Q 1453 3194 1981 3475 
Q 2188 3584 2756 3584 
Q 3394 3584 3694 3078 
Q 3994 2572 3834 1747 
Q 3672 922 3175 415 
Q 2678 -91 2041 -91 
Q 1656 -91 1409 63 
Q 1163 213 1044 525 
L 681 -1331 
L 103 -1331 
L 697 1716 
Q 838 2438 1203 2875 
z
M 3238 1747 
Q 3359 2381 3169 2744 
Q 2978 3103 2522 3103 
Q 2066 3103 1734 2744 
Q 1403 2381 1281 1747 
Q 1156 1113 1347 750 
Q 1538 391 1994 391 
Q 2450 391 2781 750 
Q 3113 1113 3238 1747 
z
" transform="scale(0.015625)"/>
       <path id="DejaVuSans-3d" d="M 678 2906 
L 4684 2906 
L 4684 2381 
L 678 2381 
L 678 2906 
z
M 678 1631 
L 4684 1631 
L 4684 1100 
L 678 1100 
L 678 1631 
z
" transform="scale(0.015625)"/>
       <path id="DejaVuSans-28" d="M 1984 4856 
Q 1566 4138 1362 3434 
Q 1159 2731 1159 2009 
Q 1159 1288 1364 580 
Q 1569 -128 1984 -844 
L 1484 -844 
Q 1016 -109 783 600 
Q 550 1309 550 2009 
Q 550 2706 781 3412 
Q 1013 4119 1484 4856 
L 1984 4856 
z
" transform="scale(0.015625)"/>
       <path id="DejaVuSans-64" d="M 2906 2969 
L 2906 4863 
L 3481 4863 
L 3481 0 
L 2906 0 
L 2906 525 
Q 2725 213 2448 61 
Q 2172 -91 1784 -91 
Q 1150 -91 751 415 
Q 353 922 353 1747 
Q 353 2572 751 3078 
Q 1150 3584 1784 3584 
Q 2172 3584 2448 3432 
Q 2725 3281 2906 2969 
z
M 947 1747 
Q 947 1113 1208 752 
Q 1469 391 1925 391 
Q 2381 391 2643 752 
Q 2906 1113 2906 1747 
Q 2906 2381 2643 2742 
Q 2381 3103 1925 3103 
Q 1469 3103 1208 2742 
Q 947 2381 947 1747 
z
" transform="scale(0.015625)"/>
       <path id="DejaVuSans-42" d="M 1259 2228 
L 1259 519 
L 2272 519 
Q 2781 519 3026 730 
Q 3272 941 3272 1375 
Q 3272 1813 3026 2020 
Q 2781 2228 2272 2228 
L 1259 2228 
z
M 1259 4147 
L 1259 2741 
L 2194 2741 
Q 2656 2741 2882 2914 
Q 3109 3088 3109 3444 
Q 3109 3797 2882 3972 
Q 2656 4147 2194 4147 
L 1259 4147 
z
M 628 4666 
L 2241 4666 
Q 2963 4666 3353 4366 
Q 3744 4066 3744 3513 
Q 3744 3084 3544 2831 
Q 3344 2578 2956 2516 
Q 3422 2416 3680 2098 
Q 3938 1781 3938 1306 
Q 3938 681 3513 340 
Q 3088 0 2303 0 
L 628 0 
L 628 4666 
z
" transform="scale(0.015625)"/>
       <path id="DejaVuSans-29" d="M 513 4856 
L 1013 4856 
Q 1481 4119 1714 3412 
Q 1947 2706 1947 2009 
Q 1947 1309 1714 600 
Q 1481 -109 1013 -844 
L 513 -844 
Q 928 -128 1133 580 
Q 1338 1288 1338 2009 
Q 1338 2731 1133 3434 
Q 928 4138 513 4856 
z
" transform="scale(0.015625)"/>
      </defs>
      <use xlink:href="#DejaVuSans-74" transform="translate(0 0.015625)"/>
      <use xlink:href="#DejaVuSans-65" transform="translate(39.208984 0.015625)"/>
      <use xlink:href="#DejaVuSans-73" transform="translate(100.732422 0.015625)"/>
      <use xlink:href="#DejaVuSans-74" transform="translate(152.832031 0.015625)"/>
      <use xlink:href="#DejaVuSans-20" transform="translate(192.041016 0.015625)"/>
      <use xlink:href="#DejaVuSans-50" transform="translate(223.828125 0.015625)"/>
      <use xlink:href="#DejaVuSans-53" transform="translate(284.130859 0.015625)"/>
      <use xlink:href="#DejaVuSans-4e" transform="translate(347.607422 0.015625)"/>
      <use xlink:href="#DejaVuSans-52" transform="translate(418.787109 0.015625)"/>
      <use xlink:href="#DejaVuSans-20" transform="translate(488.269531 0.015625)"/>
      <use xlink:href="#DejaVuSans-40" transform="translate(520.056641 0.015625)"/>
      <use xlink:href="#DejaVuSans-20" transform="translate(620.056641 0.015625)"/>
      <use xlink:href="#DejaVuSans-Oblique-3c1" transform="translate(651.84375 0.015625)"/>
      <use xlink:href="#DejaVuSans-3d" transform="translate(734.802734 0.015625)"/>
      <use xlink:href="#DejaVuSans-2e" transform="translate(838.074219 0.015625)"/>
      <use xlink:href="#DejaVuSans-32" transform="translate(889.34375 0.015625)"/>
      <use xlink:href="#DejaVuSans-30" transform="translate(952.966797 0.015625)"/>
      <use xlink:href="#DejaVuSans-20" transform="translate(1016.589844 0.015625)"/>
      <use xlink:href="#DejaVuSans-20" transform="translate(1048.376953 0.015625)"/>
      <use xlink:href="#DejaVuSans-28" transform="translate(1080.164062 0.015625)"/>
      <use xlink:href="#DejaVuSans-64" transform="translate(1119.177734 0.015625)"/>
      <use xlink:href="#DejaVuSans-42" transform="translate(1182.654297 0.015625)"/>
      <use xlink:href="#DejaVuSans-29" transform="translate(1251.257812 0.015625)"/>
     </g>
    </g>
   </g>
   <g id="matplotlib.axis_2">
    <g id="ytick_1">
     <g id="line2d_7">
      <defs>
       <path id="me632646c51" d="M 0 0 
L -3.5 0 
" style="stroke: #000000; stroke-width: 0.8"/>
      </defs>
      <g>
       <use xlink:href="#me632646c51" x="32.788906" y="218.68" style="stroke: #000000; stroke-width: 0.8"/>
      </g>
     </g>
     <g id="text_8">
      <!-- 0 -->
      <g transform="translate(19.426406 222.479219) scale(0.1 -0.1)">
       <use xlink:href="#DejaVuSans-30"/>
      </g>
     </g>
    </g>
    <g id="ytick_2">
     <g id="line2d_8">
      <g>
       <use xlink:href="#me632646c51" x="32.788906" y="186.80835" style="stroke: #000000; stroke-width: 0.8"/>
      </g>
     </g>
     <g id="text_9">
      <!-- 1 -->
      <g transform="translate(19.426406 190.607569) scale(0.1 -0.1)">
       <use xlink:href="#DejaVuSans-31"/>
      </g>
     </g>
    </g>
    <g id="ytick_3">
     <g id="line2d_9">
      <g>
       <use xlink:href="#me632646c51" x="32.788906" y="154.9367" style="stroke: #000000; stroke-width: 0.8"/>
      </g>
     </g>
     <g id="text_10">
      <!-- 2 -->
      <g transform="translate(19.426406 158.735919) scale(0.1 -0.1)">
       <use xlink:href="#DejaVuSans-32"/>
      </g>
     </g>
    </g>
    <g id="ytick_4">
     <g id="line2d_10">
      <g>
       <use xlink:href="#me632646c51" x="32.788906" y="123.065051" style="stroke: #000000; stroke-width: 0.8"/>
      </g>
     </g>
     <g id="text_11">
      <!-- 3 -->
      <g transform="translate(19.426406 126.864269) scale(0.1 -0.1)">
       <use xlink:href="#DejaVuSans-33"/>
      </g>
     </g>
    </g>
    <g id="ytick_5">
     <g id="line2d_11">
      <g>
       <use xlink:href="#me632646c51" x="32.788906" y="91.193401" style="stroke: #000000; stroke-width: 0.8"/>
      </g>
     </g>
     <g id="text_12">
      <!-- 4 -->
      <g transform="translate(19.426406 94.99262) scale(0.1 -0.1)">
       <defs>
        <path id="DejaVuSans-34" d="M 2419 4116 
L 825 1625 
L 2419 1625 
L 2419 4116 
z
M 2253 4666 
L 3047 4666 
L 3047 1625 
L 3713 1625 
L 3713 1100 
L 3047 1100 
L 3047 0 
L 2419 0 
L 2419 1100 
L 313 1100 
L 313 1709 
L 2253 4666 
z
" transform="scale(0.015625)"/>
       </defs>
       <use xlink:href="#DejaVuSans-34"/>
      </g>
     </g>
    </g>
    <g id="ytick_6">
     <g id="line2d_12">
      <g>
       <use xlink:href="#me632646c51" x="32.788906" y="59.321751" style="stroke: #000000; stroke-width: 0.8"/>
      </g>
     </g>
     <g id="text_13">
      <!-- 5 -->
      <g transform="translate(19.426406 63.12097) scale(0.1 -0.1)">
       <use xlink:href="#DejaVuSans-35"/>
      </g>
     </g>
    </g>
    <g id="ytick_7">
     <g id="line2d_13">
      <g>
       <use xlink:href="#me632646c51" x="32.788906" y="27.450101" style="stroke: #000000; stroke-width: 0.8"/>
      </g>
     </g>
     <g id="text_14">
      <!-- 6 -->
      <g transform="translate(19.426406 31.24932) scale(0.1 -0.1)">
       <defs>
        <path id="DejaVuSans-36" d="M 2113 2584 
Q 1688 2584 1439 2293 
Q 1191 2003 1191 1497 
Q 1191 994 1439 701 
Q 1688 409 2113 409 
Q 2538 409 2786 701 
Q 3034 994 3034 1497 
Q 3034 2003 2786 2293 
Q 2538 2584 2113 2584 
z
M 3366 4563 
L 3366 3988 
Q 3128 4100 2886 4159 
Q 2644 4219 2406 4219 
Q 1781 4219 1451 3797 
Q 1122 3375 1075 2522 
Q 1259 2794 1537 2939 
Q 1816 3084 2150 3084 
Q 2853 3084 3261 2657 
Q 3669 2231 3669 1497 
Q 3669 778 3244 343 
Q 2819 -91 2113 -91 
Q 1303 -91 875 529 
Q 447 1150 447 2328 
Q 447 3434 972 4092 
Q 1497 4750 2381 4750 
Q 2619 4750 2861 4703 
Q 3103 4656 3366 4563 
z
" transform="scale(0.015625)"/>
       </defs>
       <use xlink:href="#DejaVuSans-36"/>
      </g>
     </g>
    </g>
    <g id="text_15">
     <!-- density -->
     <g transform="translate(13.658672 128.522891) rotate(-90) scale(0.085 -0.085)">
      <defs>
       <path id="DejaVuSans-6e" d="M 3513 2113 
L 3513 0 
L 2938 0 
L 2938 2094 
Q 2938 2591 2744 2837 
Q 2550 3084 2163 3084 
Q 1697 3084 1428 2787 
Q 1159 2491 1159 1978 
L 1159 0 
L 581 0 
L 581 3500 
L 1159 3500 
L 1159 2956 
Q 1366 3272 1645 3428 
Q 1925 3584 2291 3584 
Q 2894 3584 3203 3211 
Q 3513 2838 3513 2113 
z
" transform="scale(0.015625)"/>
       <path id="DejaVuSans-69" d="M 603 3500 
L 1178 3500 
L 1178 0 
L 603 0 
L 603 3500 
z
M 603 4863 
L 1178 4863 
L 1178 4134 
L 603 4134 
L 603 4863 
z
" transform="scale(0.015625)"/>
       <path id="DejaVuSans-79" d="M 2059 -325 
Q 1816 -950 1584 -1140 
Q 1353 -1331 966 -1331 
L 506 -1331 
L 506 -850 
L 844 -850 
Q 1081 -850 1212 -737 
Q 1344 -625 1503 -206 
L 1606 56 
L 191 3500 
L 800 3500 
L 1894 763 
L 2988 3500 
L 3597 3500 
L 2059 -325 
z
" transform="scale(0.015625)"/>
      </defs>
      <use xlink:href="#DejaVuSans-64"/>
      <use xlink:href="#DejaVuSans-65" transform="translate(63.476562 0)"/>
      <use xlink:href="#DejaVuSans-6e" transform="translate(125 0)"/>
      <use xlink:href="#DejaVuSans-73" transform="translate(188.378906 0)"/>
      <use xlink:href="#DejaVuSans-69" transform="translate(240.478516 0)"/>
      <use xlink:href="#DejaVuSans-74" transform="translate(268.261719 0)"/>
      <use xlink:href="#DejaVuSans-79" transform="translate(307.470703 0)"/>
     </g>
    </g>
   </g>
   <g id="line2d_14">
    <path d="M 45.645724 218.68 
L 174.859978 218.572238 
L 180.028548 218.31456 
L 182.612833 218.037656 
L 185.197118 217.585451 
L 187.781403 216.871911 
L 190.365688 215.784514 
L 191.65783 215.05827 
L 192.949973 214.184893 
L 194.242115 213.144037 
L 195.534258 211.914879 
L 196.826401 210.476726 
L 198.118543 208.809752 
L 199.410686 206.895853 
L 200.702828 204.719612 
L 201.994971 202.269339 
L 203.287113 199.538151 
L 205.871398 193.235893 
L 208.455683 185.892562 
L 211.039968 177.721437 
L 217.500681 156.31378 
L 220.084966 148.79307 
L 221.377109 145.555469 
L 222.669251 142.75943 
L 223.961394 140.465899 
L 225.253536 138.726055 
L 226.545679 137.579418 
L 227.837821 137.052352 
L 229.129964 137.15706 
L 230.422106 137.891114 
L 231.714249 139.237547 
L 233.006391 141.165508 
L 234.298534 143.631434 
L 235.590676 146.580686 
L 236.882819 149.949563 
L 239.467104 157.659922 
L 243.343532 170.520994 
L 247.219959 183.235781 
L 249.804244 190.886909 
L 252.388529 197.552639 
L 253.680672 200.472794 
L 254.972814 203.110646 
L 256.264957 205.469261 
L 257.557099 207.557232 
L 258.849242 209.3876 
L 260.141385 210.976783 
L 261.433527 212.343556 
L 262.72567 213.508122 
L 264.017812 214.49129 
L 265.309955 215.313788 
L 267.89424 216.556015 
L 270.478525 217.380792 
L 273.06281 217.909589 
L 275.647095 218.237123 
L 279.523523 218.497886 
L 285.984235 218.644543 
L 302.782088 218.679797 
L 302.782088 218.679797 
" clip-path="url(#pd883b892da)" style="fill: none; stroke: #0072b2; stroke-width: 1.6; stroke-linecap: square"/>
   </g>
   <g id="line2d_15">
    <path d="M 45.645724 218.68 
L 185.197118 218.571018 
L 187.781403 218.382611 
L 190.365688 217.92848 
L 191.65783 217.519248 
L 192.949973 216.921266 
L 194.242115 216.065901 
L 195.534258 214.868419 
L 196.826401 213.228079 
L 198.118543 211.03011 
L 199.410686 208.15015 
L 200.702828 204.461609 
L 201.994971 199.846112 
L 203.287113 194.206797 
L 204.579256 187.483712 
L 205.871398 179.669967 
L 207.163541 170.8268 
L 209.747826 150.702657 
L 213.624253 119.023966 
L 214.916396 109.735335 
L 216.208539 101.845899 
L 217.500681 95.767922 
L 218.792824 91.832831 
L 220.084966 90.261296 
L 221.377109 91.142744 
L 222.669251 94.426928 
L 223.961394 99.928669 
L 225.253536 107.345152 
L 226.545679 116.283517 
L 229.129964 136.913253 
L 231.714249 158.21368 
L 234.298534 177.270929 
L 235.590676 185.385049 
L 236.882819 192.418317 
L 238.174962 198.359798 
L 239.467104 203.25608 
L 240.759247 207.195217 
L 242.051389 210.290963 
L 243.343532 212.668779 
L 244.635674 214.454534 
L 245.927817 215.76628 
L 247.219959 216.70902 
L 248.512102 217.37209 
L 249.804244 217.828597 
L 252.388529 218.339409 
L 254.972814 218.553824 
L 260.141385 218.666247 
L 285.984235 218.68 
L 302.782088 218.68 
L 302.782088 218.68 
" clip-path="url(#pd883b892da)" style="fill: none; stroke: #e69f00; stroke-width: 1.6; stroke-linecap: square"/>
   </g>
   <g id="line2d_16">
    <path d="M 45.645724 218.679505 
L 83.117858 218.568382 
L 93.454998 218.313762 
L 99.915711 217.960481 
L 105.084281 217.49021 
L 110.252851 216.776719 
L 114.129279 216.031009 
L 118.005706 215.061233 
L 121.882134 213.827747 
L 125.758561 212.294002 
L 129.634989 210.430707 
L 133.511417 208.220588 
L 137.387844 205.663313 
L 141.264272 202.780034 
L 145.140699 199.616854 
L 150.309269 195.093523 
L 159.354267 187.068571 
L 163.230695 183.938016 
L 165.81498 182.061851 
L 168.399265 180.402875 
L 170.98355 178.998928 
L 173.567835 177.882961 
L 176.15212 177.081753 
L 178.736405 176.614836 
L 181.32069 176.493714 
L 183.904975 176.721384 
L 186.48926 177.292216 
L 189.073545 178.192185 
L 191.65783 179.39944 
L 194.242115 180.885191 
L 196.826401 182.614845 
L 200.702828 185.580348 
L 204.579256 188.863158 
L 218.792824 201.347652 
L 222.669251 204.367755 
L 226.545679 207.079927 
L 230.422106 209.451815 
L 234.298534 211.474329 
L 238.174962 213.157507 
L 242.051389 214.525693 
L 245.927817 215.612642 
L 249.804244 216.457033 
L 253.680672 217.098736 
L 258.849242 217.704629 
L 265.309955 218.171099 
L 273.06281 218.46228 
L 284.692093 218.627025 
L 302.782088 218.675789 
L 302.782088 218.675789 
" clip-path="url(#pd883b892da)" style="fill: none; stroke: #009e73; stroke-width: 1.6; stroke-linecap: square"/>
   </g>
   <g id="line2d_17">
    <path d="M 134.292025 218.68 
L 134.292025 7.2 
" clip-path="url(#pd883b892da)" style="fill: none; stroke-dasharray: 4.44,1.92; stroke-dashoffset: 0; stroke: #000000; stroke-width: 1.2"/>
   </g>
   <g id="patch_72">
    <path d="M 32.788906 218.68 
L 32.788906 7.2 
" style="fill: none; stroke: #000000; stroke-width: 0.8; stroke-linejoin: miter; stroke-linecap: square"/>
   </g>
   <g id="patch_73">
    <path d="M 315.638906 218.68 
L 315.638906 7.2 
" style="fill: none; stroke: #000000; stroke-width: 0.8; stroke-linejoin: miter; stroke-linecap: square"/>
   </g>
   <g id="patch_74">
    <path d="M 32.788906 218.68 
L 315.638906 218.68 
" style="fill: none; stroke: #000000; stroke-width: 0.8; stroke-linejoin: miter; stroke-linecap: square"/>
   </g>
   <g id="patch_75">
    <path d="M 32.788906 7.2 
L 315.638906 7.2 
" style="fill: none; stroke: #000000; stroke-width: 0.8; stroke-linejoin: miter; stroke-linecap: square"/>
   </g>
   <g id="legend_1">
    <g id="patch_76">
     <path d="M 39.088906 18.818906 
L 53.088906 18.818906 
L 53.088906 13.918906 
L 39.088906 13.918906 
z
" style="fill: #0072b2; opacity: 0.3"/>
    </g>
    <g id="text_16">
     <!-- block-growth -->
     <g transform="translate(58.688906 18.818906) scale(0.07 -0.07)">
      <defs>
       <path id="DejaVuSans-62" d="M 3116 1747 
Q 3116 2381 2855 2742 
Q 2594 3103 2138 3103 
Q 1681 3103 1420 2742 
Q 1159 2381 1159 1747 
Q 1159 1113 1420 752 
Q 1681 391 2138 391 
Q 2594 391 2855 752 
Q 3116 1113 3116 1747 
z
M 1159 2969 
Q 1341 3281 1617 3432 
Q 1894 3584 2278 3584 
Q 2916 3584 3314 3078 
Q 3713 2572 3713 1747 
Q 3713 922 3314 415 
Q 2916 -91 2278 -91 
Q 1894 -91 1617 61 
Q 1341 213 1159 525 
L 1159 0 
L 581 0 
L 581 4863 
L 1159 4863 
L 1159 2969 
z
" transform="scale(0.015625)"/>
       <path id="DejaVuSans-6c" d="M 603 4863 
L 1178 4863 
L 1178 0 
L 603 0 
L 603 4863 
z
" transform="scale(0.015625)"/>
       <path id="DejaVuSans-6f" d="M 1959 3097 
Q 1497 3097 1228 2736 
Q 959 2375 959 1747 
Q 959 1119 1226 758 
Q 1494 397 1959 397 
Q 2419 397 2687 759 
Q 2956 1122 2956 1747 
Q 2956 2369 2687 2733 
Q 2419 3097 1959 3097 
z
M 1959 3584 
Q 2709 3584 3137 3096 
Q 3566 2609 3566 1747 
Q 3566 888 3137 398 
Q 2709 -91 1959 -91 
Q 1206 -91 779 398 
Q 353 888 353 1747 
Q 353 2609 779 3096 
Q 1206 3584 1959 3584 
z
" transform="scale(0.015625)"/>
       <path id="DejaVuSans-63" d="M 3122 3366 
L 3122 2828 
Q 2878 2963 2633 3030 
Q 2388 3097 2138 3097 
Q 1578 3097 1268 2742 
Q 959 2388 959 1747 
Q 959 1106 1268 751 
Q 1578 397 2138 397 
Q 2388 397 2633 464 
Q 2878 531 3122 666 
L 3122 134 
Q 2881 22 2623 -34 
Q 2366 -91 2075 -91 
Q 1284 -91 818 406 
Q 353 903 353 1747 
Q 353 2603 823 3093 
Q 1294 3584 2113 3584 
Q 2378 3584 2631 3529 
Q 2884 3475 3122 3366 
z
" transform="scale(0.015625)"/>
       <path id="DejaVuSans-6b" d="M 581 4863 
L 1159 4863 
L 1159 1991 
L 2875 3500 
L 3609 3500 
L 1753 1863 
L 3688 0 
L 2938 0 
L 1159 1709 
L 1159 0 
L 581 0 
L 581 4863 
z
" transform="scale(0.015625)"/>
       <path id="DejaVuSans-2d" d="M 313 2009 
L 1997 2009 
L 1997 1497 
L 313 1497 
L 313 2009 
z
" transform="scale(0.015625)"/>
       <path id="DejaVuSans-67" d="M 2906 1791 
Q 2906 2416 2648 2759 
Q 2391 3103 1925 3103 
Q 1463 3103 1205 2759 
Q 947 2416 947 1791 
Q 947 1169 1205 825 
Q 1463 481 1925 481 
Q 2391 481 2648 825 
Q 2906 1169 2906 1791 
z
M 3481 434 
Q 3481 -459 3084 -895 
Q 2688 -1331 1869 -1331 
Q 1566 -1331 1297 -1286 
Q 1028 -1241 775 -1147 
L 775 -588 
Q 1028 -725 1275 -790 
Q 1522 -856 1778 -856 
Q 2344 -856 2625 -561 
Q 2906 -266 2906 331 
L 2906 616 
Q 2728 306 2450 153 
Q 2172 0 1784 0 
Q 1141 0 747 490 
Q 353 981 353 1791 
Q 353 2603 747 3093 
Q 1141 3584 1784 3584 
Q 2172 3584 2450 3431 
Q 2728 3278 2906 2969 
L 2906 3500 
L 3481 3500 
L 3481 434 
z
" transform="scale(0.015625)"/>
       <path id="DejaVuSans-72" d="M 2631 2963 
Q 2534 3019 2420 3045 
Q 2306 3072 2169 3072 
Q 1681 3072 1420 2755 
Q 1159 2438 1159 1844 
L 1159 0 
L 581 0 
L 581 3500 
L 1159 3500 
L 1159 2956 
Q 1341 3275 1631 3429 
Q 1922 3584 2338 3584 
Q 2397 3584 2469 3576 
Q 2541 3569 2628 3553 
L 2631 2963 
z
" transform="scale(0.015625)"/>
       <path id="DejaVuSans-77" d="M 269 3500 
L 844 3500 
L 1563 769 
L 2278 3500 
L 2956 3500 
L 3675 769 
L 4391 3500 
L 4966 3500 
L 4050 0 
L 3372 0 
L 2619 2869 
L 1863 0 
L 1184 0 
L 269 3500 
z
" transform="scale(0.015625)"/>
       <path id="DejaVuSans-68" d="M 3513 2113 
L 3513 0 
L 2938 0 
L 2938 2094 
Q 2938 2591 2744 2837 
Q 2550 3084 2163 3084 
Q 1697 3084 1428 2787 
Q 1159 2491 1159 1978 
L 1159 0 
L 581 0 
L 581 4863 
L 1159 4863 
L 1159 2956 
Q 1366 3272 1645 3428 
Q 1925 3584 2291 3584 
Q 2894 3584 3203 3211 
Q 3513 2838 3513 2113 
z
" transform="scale(0.015625)"/>
      </defs>
      <use xlink:href="#DejaVuSans-62"/>
      <use xlink:href="#DejaVuSans-6c" transform="translate(63.476562 0)"/>
      <use xlink:href="#DejaVuSans-6f" transform="translate(91.259766 0)"/>
      <use xlink:href="#DejaVuSans-63" transform="translate(152.441406 0)"/>
      <use xlink:href="#DejaVuSans-6b" transform="translate(207.421875 0)"/>
      <use xlink:href="#DejaVuSans-2d" transform="translate(265.332031 0)"/>
      <use xlink:href="#DejaVuSans-67" transform="translate(301.416016 0)"/>
      <use xlink:href="#DejaVuSans-72" transform="translate(364.892578 0)"/>
      <use xlink:href="#DejaVuSans-6f" transform="translate(403.755859 0)"/>
      <use xlink:href="#DejaVuSans-77" transform="translate(464.9375 0)"/>
      <use xlink:href="#DejaVuSans-74" transform="translate(546.724609 0)"/>
      <use xlink:href="#DejaVuSans-68" transform="translate(585.933594 0)"/>
     </g>
    </g>
    <g id="patch_77">
     <path d="M 39.088906 29.093594 
L 53.088906 29.093594 
L 53.088906 24.193594 
L 39.088906 24.193594 
z
" style="fill: #e69f00; opacity: 0.3"/>
    </g>
    <g id="text_17">
     <!-- left→right -->
     <g transform="translate(58.688906 29.093594) scale(0.07 -0.07)">
      <defs>
       <path id="DejaVuSans-66" d="M 2375 4863 
L 2375 4384 
L 1825 4384 
Q 1516 4384 1395 4259 
Q 1275 4134 1275 3809 
L 1275 3500 
L 2222 3500 
L 2222 3053 
L 1275 3053 
L 1275 0 
L 697 0 
L 697 3053 
L 147 3053 
L 147 3500 
L 697 3500 
L 697 3744 
Q 697 4328 969 4595 
Q 1241 4863 1831 4863 
L 2375 4863 
z
" transform="scale(0.015625)"/>
       <path id="DejaVuSans-2192" d="M 5050 2147 
L 5050 1866 
L 3822 638 
L 3447 1013 
L 4175 1741 
L 366 1741 
L 366 2272 
L 4175 2272 
L 3447 3000 
L 3822 3375 
L 5050 2147 
z
" transform="scale(0.015625)"/>
      </defs>
      <use xlink:href="#DejaVuSans-6c"/>
      <use xlink:href="#DejaVuSans-65" transform="translate(27.783203 0)"/>
      <use xlink:href="#DejaVuSans-66" transform="translate(89.306641 0)"/>
      <use xlink:href="#DejaVuSans-74" transform="translate(122.761719 0)"/>
      <use xlink:href="#DejaVuSans-2192" transform="translate(161.970703 0)"/>
      <use xlink:href="#DejaVuSans-72" transform="translate(245.759766 0)"/>
      <use xlink:href="#DejaVuSans-69" transform="translate(286.873047 0)"/>
      <use xlink:href="#DejaVuSans-67" transform="translate(314.65625 0)"/>
      <use xlink:href="#DejaVuSans-68" transform="translate(378.132812 0)"/>
      <use xlink:href="#DejaVuSans-74" transform="translate(441.511719 0)"/>
     </g>
    </g>
    <g id="patch_78">
     <path d="M 39.088906 39.368281 
L 53.088906 39.368281 
L 53.088906 34.468281 
L 39.088906 34.468281 
z
" style="fill: #009e73; opacity: 0.3"/>
    </g>
    <g id="text_18">
     <!-- right→left -->
     <g transform="translate(58.688906 39.368281) scale(0.07 -0.07)">
      <use xlink:href="#DejaVuSans-72"/>
      <use xlink:href="#DejaVuSans-69" transform="translate(41.113281 0)"/>
      <use xlink:href="#DejaVuSans-67" transform="translate(68.896484 0)"/>
      <use xlink:href="#DejaVuSans-68" transform="translate(132.373047 0)"/>
      <use xlink:href="#DejaVuSans-74" transform="translate(195.751953 0)"/>
      <use xlink:href="#DejaVuSans-2192" transform="translate(234.960938 0)"/>
      <use xlink:href="#DejaVuSans-6c" transform="translate(318.75 0)"/>
      <use xlink:href="#DejaVuSans-65" transform="translate(346.533203 0)"/>
      <use xlink:href="#DejaVuSans-66" transform="translate(408.056641 0)"/>
      <use xlink:href="#DejaVuSans-74" transform="translate(441.511719 0)"/>
     </g>
    </g>
   </g>
  </g>
 </g>
 <defs>
  <clipPath id="pd883b892da">
   <rect x="32.788906" y="7.2" width="282.85" height="211.48"/>
  </clipPath>
 </defs>
</svg>
