<?xml version="1.0" encoding="utf-8" standalone="no"?>
<!DOCTYPE svg PUBLIC "-//W3C//DTD SVG 1.1//EN"
  "http://www.w3.org/Graphics/SVG/1.1/DTD/svg11.dtd">
<svg xmlns:xlink="http://www.w3.org/1999/xlink" width="298.659523pt" height="254.803125pt" viewBox="0 0 298.659523 254.803125" xmlns="http://www.w3.org/2000/svg" version="1.1">
 <metadata>
  <rdf:RDF xmlns:dc="http://purl.org/dc/elements/1.1/" xmlns:cc="http://creativecommons.org/ns#" xmlns:rdf="http://www.w3.org/1999/02/22-rdf-syntax-ns#">
   <cc:Work>
    <dc:type rdf:resource="http://purl.org/dc/dcmitype/StillImage"/>
    <dc:date>2026-07-01T05:12:33.760724</dc:date>
    <dc:format>image/svg+xml</dc:format>
    <dc:creator>
     <cc:Agent>
      <dc:title>Matplotlib v3.10.9, https://matplotlib.org/</dc:title>
     </cc:Agent>
    </dc:creator>
   </cc:Work>
  </rdf:RDF>
 </metadata>
 <defs>
  <style type="text/css">*{stroke-linejoin: round; stroke-linecap: butt}</style>
 </defs>
 <g id="figure_1">
  <g id="patch_1">
   <path d="M 0 254.803125 
L 298.659523 254.803125 
L 298.659523 0 
L 0 0 
z
" style="fill: #ffffff"/>
  </g>
  <g id="axes_1">
   <g id="patch_2">
    <path d="M 51.895 218.68 
L 290.573058 218.68 
L 290.573058 7.2 
L 51.895 7.2 
z
" style="fill: #ffffff"/>
   </g>
   <g id="PathCollection_1">
    <defs>
     <path id="C0_0_504aef4211" d="M 0 1.732051 
C 0.459345 1.732051 0.899939 1.549551 1.224745 1.224745 
C 1.549551 0.899939 1.732051 0.459345 1.732051 -0 
C 1.732051 -0.459345 1.549551 -0.899939 1.224745 -1.224745 
C 0.899939 -1.549551 0.459345 -1.732051 0 -1.732051 
C -0.459345 -1.732051 -0.899939 -1.549551 -1.224745 -1.224745 
C -1.549551 -0.899939 -1.732051 -0.459345 -1.732051 0 
C -1.732051 0.459345 -1.549551 0.899939 -1.224745 1.224745 
C -0.899939 1.549551 -0.459345 1.732051 0 1.732051 
z
"/>
    </defs>
    <g clip-path="url(#paba37434f8)">
     <use xlink:href="#C0_0_504aef4211" x="62.744003" y="209.067273" style="fill: #0072b2; fill-opacity: 0.7"/>
    </g>
    <g clip-path="url(#paba37434f8)">
     <use xlink:href="#C0_0_504aef4211" x="64.93572" y="198.705338" style="fill: #0072b2; fill-opacity: 0.7"/>
    </g>
    <g clip-path="url(#paba37434f8)">
     <use xlink:href="#C0_0_504aef4211" x="67.127438" y="173.876478" style="fill: #0072b2; fill-opacity: 0.7"/>
    </g>
    <g clip-path="url(#paba37434f8)">
     <use xlink:href="#C0_0_504aef4211" x="69.319156" y="148.228102" style="fill: #0072b2; fill-opacity: 0.7"/>
    </g>
    <g clip-path="url(#paba37434f8)">
     <use xlink:href="#C0_0_504aef4211" x="71.510873" y="147.356773" style="fill: #0072b2; fill-opacity: 0.7"/>
    </g>
    <g clip-path="url(#paba37434f8)">
     <use xlink:href="#C0_0_504aef4211" x="73.702591" y="135.331405" style="fill: #0072b2; fill-opacity: 0.7"/>
    </g>
    <g clip-path="url(#paba37434f8)">
     <use xlink:href="#C0_0_504aef4211" x="75.894309" y="134.669265" style="fill: #0072b2; fill-opacity: 0.7"/>
    </g>
    <g clip-path="url(#paba37434f8)">
     <use xlink:href="#C0_0_504aef4211" x="78.086027" y="134.621262" style="fill: #0072b2; fill-opacity: 0.7"/>
    </g>
    <g clip-path="url(#paba37434f8)">
     <use xlink:href="#C0_0_504aef4211" x="80.277744" y="134.075208" style="fill: #0072b2; fill-opacity: 0.7"/>
    </g>
    <g clip-path="url(#paba37434f8)">
     <use xlink:href="#C0_0_504aef4211" x="82.469462" y="125.419603" style="fill: #0072b2; fill-opacity: 0.7"/>
    </g>
    <g clip-path="url(#paba37434f8)">
     <use xlink:href="#C0_0_504aef4211" x="84.66118" y="123.255312" style="fill: #0072b2; fill-opacity: 0.7"/>
    </g>
    <g clip-path="url(#paba37434f8)">
     <use xlink:href="#C0_0_504aef4211" x="86.852897" y="122.169141" style="fill: #0072b2; fill-opacity: 0.7"/>
    </g>
    <g clip-path="url(#paba37434f8)">
     <use xlink:href="#C0_0_504aef4211" x="89.044615" y="121.639723" style="fill: #0072b2; fill-opacity: 0.7"/>
    </g>
    <g clip-path="url(#paba37434f8)">
     <use xlink:href="#C0_0_504aef4211" x="91.236333" y="120.38039" style="fill: #0072b2; fill-opacity: 0.7"/>
    </g>
    <g clip-path="url(#paba37434f8)">
     <use xlink:href="#C0_0_504aef4211" x="93.42805" y="119.852096" style="fill: #0072b2; fill-opacity: 0.7"/>
    </g>
    <g clip-path="url(#paba37434f8)">
     <use xlink:href="#C0_0_504aef4211" x="95.619768" y="118.994736" style="fill: #0072b2; fill-opacity: 0.7"/>
    </g>
    <g clip-path="url(#paba37434f8)">
     <use xlink:href="#C0_0_504aef4211" x="97.811486" y="118.335998" style="fill: #0072b2; fill-opacity: 0.7"/>
    </g>
    <g clip-path="url(#paba37434f8)">
     <use xlink:href="#C0_0_504aef4211" x="100.003204" y="116.104652" style="fill: #0072b2; fill-opacity: 0.7"/>
    </g>
    <g clip-path="url(#paba37434f8)">
     <use xlink:href="#C0_0_504aef4211" x="102.194921" y="113.22145" style="fill: #0072b2; fill-opacity: 0.7"/>
    </g>
    <g clip-path="url(#paba37434f8)">
     <use xlink:href="#C0_0_504aef4211" x="104.386639" y="113.001867" style="fill: #0072b2; fill-opacity: 0.7"/>
    </g>
    <g clip-path="url(#paba37434f8)">
     <use xlink:href="#C0_0_504aef4211" x="106.578357" y="112.759686" style="fill: #0072b2; fill-opacity: 0.7"/>
    </g>
    <g clip-path="url(#paba37434f8)">
     <use xlink:href="#C0_0_504aef4211" x="108.770074" y="112.563318" style="fill: #0072b2; fill-opacity: 0.7"/>
    </g>
    <g clip-path="url(#paba37434f8)">
     <use xlink:href="#C0_0_504aef4211" x="110.961792" y="112.331815" style="fill: #0072b2; fill-opacity: 0.7"/>
    </g>
    <g clip-path="url(#paba37434f8)">
     <use xlink:href="#C0_0_504aef4211" x="113.15351" y="112.120342" style="fill: #0072b2; fill-opacity: 0.7"/>
    </g>
    <g clip-path="url(#paba37434f8)">
     <use xlink:href="#C0_0_504aef4211" x="115.345228" y="111.269971" style="fill: #0072b2; fill-opacity: 0.7"/>
    </g>
    <g clip-path="url(#paba37434f8)">
     <use xlink:href="#C0_0_504aef4211" x="117.536945" y="111.207432" style="fill: #0072b2; fill-opacity: 0.7"/>
    </g>
    <g clip-path="url(#paba37434f8)">
     <use xlink:href="#C0_0_504aef4211" x="119.728663" y="108.793283" style="fill: #0072b2; fill-opacity: 0.7"/>
    </g>
    <g clip-path="url(#paba37434f8)">
     <use xlink:href="#C0_0_504aef4211" x="121.920381" y="108.336201" style="fill: #0072b2; fill-opacity: 0.7"/>
    </g>
    <g clip-path="url(#paba37434f8)">
     <use xlink:href="#C0_0_504aef4211" x="124.112098" y="107.542555" style="fill: #0072b2; fill-opacity: 0.7"/>
    </g>
    <g clip-path="url(#paba37434f8)">
     <use xlink:href="#C0_0_504aef4211" x="126.303816" y="107.413936" style="fill: #0072b2; fill-opacity: 0.7"/>
    </g>
    <g clip-path="url(#paba37434f8)">
     <use xlink:href="#C0_0_504aef4211" x="128.495534" y="106.132814" style="fill: #0072b2; fill-opacity: 0.7"/>
    </g>
    <g clip-path="url(#paba37434f8)">
     <use xlink:href="#C0_0_504aef4211" x="130.687251" y="103.982461" style="fill: #0072b2; fill-opacity: 0.7"/>
    </g>
    <g clip-path="url(#paba37434f8)">
     <use xlink:href="#C0_0_504aef4211" x="132.878969" y="102.276289" style="fill: #0072b2; fill-opacity: 0.7"/>
    </g>
    <g clip-path="url(#paba37434f8)">
     <use xlink:href="#C0_0_504aef4211" x="135.070687" y="102.077753" style="fill: #0072b2; fill-opacity: 0.7"/>
    </g>
    <g clip-path="url(#paba37434f8)">
     <use xlink:href="#C0_0_504aef4211" x="137.262405" y="101.787695" style="fill: #0072b2; fill-opacity: 0.7"/>
    </g>
    <g clip-path="url(#paba37434f8)">
     <use xlink:href="#C0_0_504aef4211" x="139.454122" y="101.626104" style="fill: #0072b2; fill-opacity: 0.7"/>
    </g>
    <g clip-path="url(#paba37434f8)">
     <use xlink:href="#C0_0_504aef4211" x="141.64584" y="101.612337" style="fill: #0072b2; fill-opacity: 0.7"/>
    </g>
    <g clip-path="url(#paba37434f8)">
     <use xlink:href="#C0_0_504aef4211" x="143.837558" y="100.766734" style="fill: #0072b2; fill-opacity: 0.7"/>
    </g>
    <g clip-path="url(#paba37434f8)">
     <use xlink:href="#C0_0_504aef4211" x="146.029275" y="100.365813" style="fill: #0072b2; fill-opacity: 0.7"/>
    </g>
    <g clip-path="url(#paba37434f8)">
     <use xlink:href="#C0_0_504aef4211" x="148.220993" y="100.295205" style="fill: #0072b2; fill-opacity: 0.7"/>
    </g>
    <g clip-path="url(#paba37434f8)">
     <use xlink:href="#C0_0_504aef4211" x="150.412711" y="100.120736" style="fill: #0072b2; fill-opacity: 0.7"/>
    </g>
    <g clip-path="url(#paba37434f8)">
     <use xlink:href="#C0_0_504aef4211" x="152.604428" y="99.861581" style="fill: #0072b2; fill-opacity: 0.7"/>
    </g>
    <g clip-path="url(#paba37434f8)">
     <use xlink:href="#C0_0_504aef4211" x="154.796146" y="98.758067" style="fill: #0072b2; fill-opacity: 0.7"/>
    </g>
    <g clip-path="url(#paba37434f8)">
     <use xlink:href="#C0_0_504aef4211" x="156.987864" y="97.772628" style="fill: #0072b2; fill-opacity: 0.7"/>
    </g>
    <g clip-path="url(#paba37434f8)">
     <use xlink:href="#C0_0_504aef4211" x="159.179582" y="97.71979" style="fill: #0072b2; fill-opacity: 0.7"/>
    </g>
    <g clip-path="url(#paba37434f8)">
     <use xlink:href="#C0_0_504aef4211" x="161.371299" y="97.220296" style="fill: #0072b2; fill-opacity: 0.7"/>
    </g>
    <g clip-path="url(#paba37434f8)">
     <use xlink:href="#C0_0_504aef4211" x="163.563017" y="96.27741" style="fill: #0072b2; fill-opacity: 0.7"/>
    </g>
    <g clip-path="url(#paba37434f8)">
     <use xlink:href="#C0_0_504aef4211" x="165.754735" y="94.890082" style="fill: #0072b2; fill-opacity: 0.7"/>
    </g>
    <g clip-path="url(#paba37434f8)">
     <use xlink:href="#C0_0_504aef4211" x="167.946452" y="93.807266" style="fill: #0072b2; fill-opacity: 0.7"/>
    </g>
    <g clip-path="url(#paba37434f8)">
     <use xlink:href="#C0_0_504aef4211" x="170.13817" y="93.084667" style="fill: #0072b2; fill-opacity: 0.7"/>
    </g>
    <g clip-path="url(#paba37434f8)">
     <use xlink:href="#C0_0_504aef4211" x="172.329888" y="92.598518" style="fill: #0072b2; fill-opacity: 0.7"/>
    </g>
    <g clip-path="url(#paba37434f8)">
     <use xlink:href="#C0_0_504aef4211" x="174.521605" y="91.914749" style="fill: #0072b2; fill-opacity: 0.7"/>
    </g>
    <g clip-path="url(#paba37434f8)">
     <use xlink:href="#C0_0_504aef4211" x="176.713323" y="91.179957" style="fill: #0072b2; fill-opacity: 0.7"/>
    </g>
    <g clip-path="url(#paba37434f8)">
     <use xlink:href="#C0_0_504aef4211" x="178.905041" y="90.140489" style="fill: #0072b2; fill-opacity: 0.7"/>
    </g>
    <g clip-path="url(#paba37434f8)">
     <use xlink:href="#C0_0_504aef4211" x="181.096759" y="89.750626" style="fill: #0072b2; fill-opacity: 0.7"/>
    </g>
    <g clip-path="url(#paba37434f8)">
     <use xlink:href="#C0_0_504aef4211" x="183.288476" y="87.619784" style="fill: #0072b2; fill-opacity: 0.7"/>
    </g>
    <g clip-path="url(#paba37434f8)">
     <use xlink:href="#C0_0_504aef4211" x="185.480194" y="86.793078" style="fill: #0072b2; fill-opacity: 0.7"/>
    </g>
    <g clip-path="url(#paba37434f8)">
     <use xlink:href="#C0_0_504aef4211" x="187.671912" y="86.096823" style="fill: #0072b2; fill-opacity: 0.7"/>
    </g>
    <g clip-path="url(#paba37434f8)">
     <use xlink:href="#C0_0_504aef4211" x="189.863629" y="84.561" style="fill: #0072b2; fill-opacity: 0.7"/>
    </g>
    <g clip-path="url(#paba37434f8)">
     <use xlink:href="#C0_0_504aef4211" x="192.055347" y="84.478345" style="fill: #0072b2; fill-opacity: 0.7"/>
    </g>
    <g clip-path="url(#paba37434f8)">
     <use xlink:href="#C0_0_504aef4211" x="194.247065" y="84.033038" style="fill: #0072b2; fill-opacity: 0.7"/>
    </g>
    <g clip-path="url(#paba37434f8)">
     <use xlink:href="#C0_0_504aef4211" x="196.438783" y="83.769002" style="fill: #0072b2; fill-opacity: 0.7"/>
    </g>
    <g clip-path="url(#paba37434f8)">
     <use xlink:href="#C0_0_504aef4211" x="198.6305" y="83.708723" style="fill: #0072b2; fill-opacity: 0.7"/>
    </g>
    <g clip-path="url(#paba37434f8)">
     <use xlink:href="#C0_0_504aef4211" x="200.822218" y="83.70591" style="fill: #0072b2; fill-opacity: 0.7"/>
    </g>
    <g clip-path="url(#paba37434f8)">
     <use xlink:href="#C0_0_504aef4211" x="203.013936" y="83.622413" style="fill: #0072b2; fill-opacity: 0.7"/>
    </g>
    <g clip-path="url(#paba37434f8)">
     <use xlink:href="#C0_0_504aef4211" x="205.205653" y="82.8883" style="fill: #0072b2; fill-opacity: 0.7"/>
    </g>
    <g clip-path="url(#paba37434f8)">
     <use xlink:href="#C0_0_504aef4211" x="207.397371" y="81.060378" style="fill: #0072b2; fill-opacity: 0.7"/>
    </g>
    <g clip-path="url(#paba37434f8)">
     <use xlink:href="#C0_0_504aef4211" x="209.589089" y="80.077925" style="fill: #0072b2; fill-opacity: 0.7"/>
    </g>
    <g clip-path="url(#paba37434f8)">
     <use xlink:href="#C0_0_504aef4211" x="211.780806" y="78.874272" style="fill: #0072b2; fill-opacity: 0.7"/>
    </g>
    <g clip-path="url(#paba37434f8)">
     <use xlink:href="#C0_0_504aef4211" x="213.972524" y="77.433312" style="fill: #0072b2; fill-opacity: 0.7"/>
    </g>
    <g clip-path="url(#paba37434f8)">
     <use xlink:href="#C0_0_504aef4211" x="216.164242" y="75.355045" style="fill: #0072b2; fill-opacity: 0.7"/>
    </g>
    <g clip-path="url(#paba37434f8)">
     <use xlink:href="#C0_0_504aef4211" x="218.35596" y="74.769894" style="fill: #0072b2; fill-opacity: 0.7"/>
    </g>
    <g clip-path="url(#paba37434f8)">
     <use xlink:href="#C0_0_504aef4211" x="220.547677" y="71.754791" style="fill: #0072b2; fill-opacity: 0.7"/>
    </g>
    <g clip-path="url(#paba37434f8)">
     <use xlink:href="#C0_0_504aef4211" x="222.739395" y="71.101865" style="fill: #0072b2; fill-opacity: 0.7"/>
    </g>
    <g clip-path="url(#paba37434f8)">
     <use xlink:href="#C0_0_504aef4211" x="224.931113" y="71.092095" style="fill: #0072b2; fill-opacity: 0.7"/>
    </g>
    <g clip-path="url(#paba37434f8)">
     <use xlink:href="#C0_0_504aef4211" x="227.12283" y="70.953236" style="fill: #0072b2; fill-opacity: 0.7"/>
    </g>
    <g clip-path="url(#paba37434f8)">
     <use xlink:href="#C0_0_504aef4211" x="229.314548" y="70.496619" style="fill: #0072b2; fill-opacity: 0.7"/>
    </g>
    <g clip-path="url(#paba37434f8)">
     <use xlink:href="#C0_0_504aef4211" x="231.506266" y="68.790845" style="fill: #0072b2; fill-opacity: 0.7"/>
    </g>
    <g clip-path="url(#paba37434f8)">
     <use xlink:href="#C0_0_504aef4211" x="233.697983" y="68.774886" style="fill: #0072b2; fill-opacity: 0.7"/>
    </g>
    <g clip-path="url(#paba37434f8)">
     <use xlink:href="#C0_0_504aef4211" x="235.889701" y="67.938149" style="fill: #0072b2; fill-opacity: 0.7"/>
    </g>
    <g clip-path="url(#paba37434f8)">
     <use xlink:href="#C0_0_504aef4211" x="238.081419" y="67.916819" style="fill: #0072b2; fill-opacity: 0.7"/>
    </g>
    <g clip-path="url(#paba37434f8)">
     <use xlink:href="#C0_0_504aef4211" x="240.273137" y="66.56504" style="fill: #0072b2; fill-opacity: 0.7"/>
    </g>
    <g clip-path="url(#paba37434f8)">
     <use xlink:href="#C0_0_504aef4211" x="242.464854" y="66.297984" style="fill: #0072b2; fill-opacity: 0.7"/>
    </g>
    <g clip-path="url(#paba37434f8)">
     <use xlink:href="#C0_0_504aef4211" x="244.656572" y="64.367108" style="fill: #0072b2; fill-opacity: 0.7"/>
    </g>
    <g clip-path="url(#paba37434f8)">
     <use xlink:href="#C0_0_504aef4211" x="246.84829" y="62.489033" style="fill: #0072b2; fill-opacity: 0.7"/>
    </g>
    <g clip-path="url(#paba37434f8)">
     <use xlink:href="#C0_0_504aef4211" x="249.040007" y="62.311961" style="fill: #0072b2; fill-opacity: 0.7"/>
    </g>
    <g clip-path="url(#paba37434f8)">
     <use xlink:href="#C0_0_504aef4211" x="251.231725" y="61.366864" style="fill: #0072b2; fill-opacity: 0.7"/>
    </g>
    <g clip-path="url(#paba37434f8)">
     <use xlink:href="#C0_0_504aef4211" x="253.423443" y="61.060644" style="fill: #0072b2; fill-opacity: 0.7"/>
    </g>
    <g clip-path="url(#paba37434f8)">
     <use xlink:href="#C0_0_504aef4211" x="255.61516" y="60.701153" style="fill: #0072b2; fill-opacity: 0.7"/>
    </g>
    <g clip-path="url(#paba37434f8)">
     <use xlink:href="#C0_0_504aef4211" x="257.806878" y="58.256234" style="fill: #0072b2; fill-opacity: 0.7"/>
    </g>
    <g clip-path="url(#paba37434f8)">
     <use xlink:href="#C0_0_504aef4211" x="259.998596" y="56.928131" style="fill: #0072b2; fill-opacity: 0.7"/>
    </g>
    <g clip-path="url(#paba37434f8)">
     <use xlink:href="#C0_0_504aef4211" x="262.190314" y="55.214356" style="fill: #0072b2; fill-opacity: 0.7"/>
    </g>
    <g clip-path="url(#paba37434f8)">
     <use xlink:href="#C0_0_504aef4211" x="264.382031" y="53.284387" style="fill: #0072b2; fill-opacity: 0.7"/>
    </g>
    <g clip-path="url(#paba37434f8)">
     <use xlink:href="#C0_0_504aef4211" x="266.573749" y="49.493242" style="fill: #0072b2; fill-opacity: 0.7"/>
    </g>
    <g clip-path="url(#paba37434f8)">
     <use xlink:href="#C0_0_504aef4211" x="268.765467" y="47.955186" style="fill: #0072b2; fill-opacity: 0.7"/>
    </g>
    <g clip-path="url(#paba37434f8)">
     <use xlink:href="#C0_0_504aef4211" x="270.957184" y="41.179605" style="fill: #0072b2; fill-opacity: 0.7"/>
    </g>
    <g clip-path="url(#paba37434f8)">
     <use xlink:href="#C0_0_504aef4211" x="273.148902" y="38.105687" style="fill: #0072b2; fill-opacity: 0.7"/>
    </g>
    <g clip-path="url(#paba37434f8)">
     <use xlink:href="#C0_0_504aef4211" x="275.34062" y="28.666402" style="fill: #0072b2; fill-opacity: 0.7"/>
    </g>
    <g clip-path="url(#paba37434f8)">
     <use xlink:href="#C0_0_504aef4211" x="277.532338" y="23.867764" style="fill: #0072b2; fill-opacity: 0.7"/>
    </g>
    <g clip-path="url(#paba37434f8)">
     <use xlink:href="#C0_0_504aef4211" x="279.724055" y="16.812727" style="fill: #0072b2; fill-opacity: 0.7"/>
    </g>
   </g>
   <g id="matplotlib.axis_1">
    <g id="xtick_1">
     <g id="line2d_1">
      <defs>
       <path id="me01059f11e" d="M 0 0 
L 0 3.5 
" style="stroke: #000000; stroke-width: 0.8"/>
      </defs>
      <g>
       <use xlink:href="#me01059f11e" x="62.744003" y="218.68" style="stroke: #000000; stroke-width: 0.8"/>
      </g>
     </g>
     <g id="text_1">
      <!-- 0 -->
      <g transform="translate(59.562753 233.278438) scale(0.1 -0.1)">
       <defs>
        <path id="DejaVuSans-30" d="M 2034 4250 
Q 1547 4250 1301 3770 
Q 1056 3291 1056 2328 
Q 1056 1369 1301 889 
Q 1547 409 2034 409 
Q 2525 409 2770 889 
Q 3016 1369 3016 2328 
Q 3016 3291 2770 3770 
Q 2525 4250 2034 4250 
z
M 2034 4750 
Q 2819 4750 3233 4129 
Q 3647 3509 3647 2328 
Q 3647 1150 3233 529 
Q 2819 -91 2034 -91 
Q 1250 -91 836 529 
Q 422 1150 422 2328 
Q 422 3509 836 4129 
Q 1250 4750 2034 4750 
z
" transform="scale(0.015625)"/>
       </defs>
       <use xlink:href="#DejaVuSans-30"/>
      </g>
     </g>
    </g>
    <g id="xtick_2">
     <g id="line2d_2">
      <g>
       <use xlink:href="#me01059f11e" x="106.578357" y="218.68" style="stroke: #000000; stroke-width: 0.8"/>
      </g>
     </g>
     <g id="text_2">
      <!-- 20 -->
      <g transform="translate(100.215857 233.278438) scale(0.1 -0.1)">
       <defs>
        <path id="DejaVuSans-32" d="M 1228 531 
L 3431 531 
L 3431 0 
L 469 0 
L 469 531 
Q 828 903 1448 1529 
Q 2069 2156 2228 2338 
Q 2531 2678 2651 2914 
Q 2772 3150 2772 3378 
Q 2772 3750 2511 3984 
Q 2250 4219 1831 4219 
Q 1534 4219 1204 4116 
Q 875 4013 500 3803 
L 500 4441 
Q 881 4594 1212 4672 
Q 1544 4750 1819 4750 
Q 2544 4750 2975 4387 
Q 3406 4025 3406 3419 
Q 3406 3131 3298 2873 
Q 3191 2616 2906 2266 
Q 2828 2175 2409 1742 
Q 1991 1309 1228 531 
z
" transform="scale(0.015625)"/>
       </defs>
       <use xlink:href="#DejaVuSans-32"/>
       <use xlink:href="#DejaVuSans-30" transform="translate(63.623047 0)"/>
      </g>
     </g>
    </g>
    <g id="xtick_3">
     <g id="line2d_3">
      <g>
       <use xlink:href="#me01059f11e" x="150.412711" y="218.68" style="stroke: #000000; stroke-width: 0.8"/>
      </g>
     </g>
     <g id="text_3">
      <!-- 40 -->
      <g transform="translate(144.050211 233.278438) scale(0.1 -0.1)">
       <defs>
        <path id="DejaVuSans-34" d="M 2419 4116 
L 825 1625 
L 2419 1625 
L 2419 4116 
z
M 2253 4666 
L 3047 4666 
L 3047 1625 
L 3713 1625 
L 3713 1100 
L 3047 1100 
L 3047 0 
L 2419 0 
L 2419 1100 
L 313 1100 
L 313 1709 
L 2253 4666 
z
" transform="scale(0.015625)"/>
       </defs>
       <use xlink:href="#DejaVuSans-34"/>
       <use xlink:href="#DejaVuSans-30" transform="translate(63.623047 0)"/>
      </g>
     </g>
    </g>
    <g id="xtick_4">
     <g id="line2d_4">
      <g>
       <use xlink:href="#me01059f11e" x="194.247065" y="218.68" style="stroke: #000000; stroke-width: 0.8"/>
      </g>
     </g>
     <g id="text_4">
      <!-- 60 -->
      <g transform="translate(187.884565 233.278438) scale(0.1 -0.1)">
       <defs>
        <path id="DejaVuSans-36" d="M 2113 2584 
Q 1688 2584 1439 2293 
Q 1191 2003 1191 1497 
Q 1191 994 1439 701 
Q 1688 409 2113 409 
Q 2538 409 2786 701 
Q 3034 994 3034 1497 
Q 3034 2003 2786 2293 
Q 2538 2584 2113 2584 
z
M 3366 4563 
L 3366 3988 
Q 3128 4100 2886 4159 
Q 2644 4219 2406 4219 
Q 1781 4219 1451 3797 
Q 1122 3375 1075 2522 
Q 1259 2794 1537 2939 
Q 1816 3084 2150 3084 
Q 2853 3084 3261 2657 
Q 3669 2231 3669 1497 
Q 3669 778 3244 343 
Q 2819 -91 2113 -91 
Q 1303 -91 875 529 
Q 447 1150 447 2328 
Q 447 3434 972 4092 
Q 1497 4750 2381 4750 
Q 2619 4750 2861 4703 
Q 3103 4656 3366 4563 
z
" transform="scale(0.015625)"/>
       </defs>
       <use xlink:href="#DejaVuSans-36"/>
       <use xlink:href="#DejaVuSans-30" transform="translate(63.623047 0)"/>
      </g>
     </g>
    </g>
    <g id="xtick_5">
     <g id="line2d_5">
      <g>
       <use xlink:href="#me01059f11e" x="238.081419" y="218.68" style="stroke: #000000; stroke-width: 0.8"/>
      </g>
     </g>
     <g id="text_5">
      <!-- 80 -->
      <g transform="translate(231.718919 233.278438) scale(0.1 -0.1)">
       <defs>
        <path id="DejaVuSans-38" d="M 2034 2216 
Q 1584 2216 1326 1975 
Q 1069 1734 1069 1313 
Q 1069 891 1326 650 
Q 1584 409 2034 409 
Q 2484 409 2743 651 
Q 3003 894 3003 1313 
Q 3003 1734 2745 1975 
Q 2488 2216 2034 2216 
z
M 1403 2484 
Q 997 2584 770 2862 
Q 544 3141 544 3541 
Q 544 4100 942 4425 
Q 1341 4750 2034 4750 
Q 2731 4750 3128 4425 
Q 3525 4100 3525 3541 
Q 3525 3141 3298 2862 
Q 3072 2584 2669 2484 
Q 3125 2378 3379 2068 
Q 3634 1759 3634 1313 
Q 3634 634 3220 271 
Q 2806 -91 2034 -91 
Q 1263 -91 848 271 
Q 434 634 434 1313 
Q 434 1759 690 2068 
Q 947 2378 1403 2484 
z
M 1172 3481 
Q 1172 3119 1398 2916 
Q 1625 2713 2034 2713 
Q 2441 2713 2670 2916 
Q 2900 3119 2900 3481 
Q 2900 3844 2670 4047 
Q 2441 4250 2034 4250 
Q 1625 4250 1398 4047 
Q 1172 3844 1172 3481 
z
" transform="scale(0.015625)"/>
       </defs>
       <use xlink:href="#DejaVuSans-38"/>
       <use xlink:href="#DejaVuSans-30" transform="translate(63.623047 0)"/>
      </g>
     </g>
    </g>
    <g id="xtick_6">
     <g id="line2d_6">
      <g>
       <use xlink:href="#me01059f11e" x="281.915773" y="218.68" style="stroke: #000000; stroke-width: 0.8"/>
      </g>
     </g>
     <g id="text_6">
      <!-- 100 -->
      <g transform="translate(272.372023 233.278438) scale(0.1 -0.1)">
       <defs>
        <path id="DejaVuSans-31" d="M 794 531 
L 1825 531 
L 1825 4091 
L 703 3866 
L 703 4441 
L 1819 4666 
L 2450 4666 
L 2450 531 
L 3481 531 
L 3481 0 
L 794 0 
L 794 531 
z
" transform="scale(0.015625)"/>
       </defs>
       <use xlink:href="#DejaVuSans-31"/>
       <use xlink:href="#DejaVuSans-30" transform="translate(63.623047 0)"/>
       <use xlink:href="#DejaVuSans-30" transform="translate(127.246094 0)"/>
      </g>
     </g>
    </g>
    <g id="text_7">
     <!-- seed (sorted by $L_0$) -->
     <g transform="translate(130.561529 245.818125) scale(0.085 -0.085)">
      <defs>
       <path id="DejaVuSans-73" d="M 2834 3397 
L 2834 2853 
Q 2591 2978 2328 3040 
Q 2066 3103 1784 3103 
Q 1356 3103 1142 2972 
Q 928 2841 928 2578 
Q 928 2378 1081 2264 
Q 1234 2150 1697 2047 
L 1894 2003 
Q 2506 1872 2764 1633 
Q 3022 1394 3022 966 
Q 3022 478 2636 193 
Q 2250 -91 1575 -91 
Q 1294 -91 989 -36 
Q 684 19 347 128 
L 347 722 
Q 666 556 975 473 
Q 1284 391 1588 391 
Q 1994 391 2212 530 
Q 2431 669 2431 922 
Q 2431 1156 2273 1281 
Q 2116 1406 1581 1522 
L 1381 1569 
Q 847 1681 609 1914 
Q 372 2147 372 2553 
Q 372 3047 722 3315 
Q 1072 3584 1716 3584 
Q 2034 3584 2315 3537 
Q 2597 3491 2834 3397 
z
" transform="scale(0.015625)"/>
       <path id="DejaVuSans-65" d="M 3597 1894 
L 3597 1613 
L 953 1613 
Q 991 1019 1311 708 
Q 1631 397 2203 397 
Q 2534 397 2845 478 
Q 3156 559 3463 722 
L 3463 178 
Q 3153 47 2828 -22 
Q 2503 -91 2169 -91 
Q 1331 -91 842 396 
Q 353 884 353 1716 
Q 353 2575 817 3079 
Q 1281 3584 2069 3584 
Q 2775 3584 3186 3129 
Q 3597 2675 3597 1894 
z
M 3022 2063 
Q 3016 2534 2758 2815 
Q 2500 3097 2075 3097 
Q 1594 3097 1305 2825 
Q 1016 2553 972 2059 
L 3022 2063 
z
" transform="scale(0.015625)"/>
       <path id="DejaVuSans-64" d="M 2906 2969 
L 2906 4863 
L 3481 4863 
L 3481 0 
L 2906 0 
L 2906 525 
Q 2725 213 2448 61 
Q 2172 -91 1784 -91 
Q 1150 -91 751 415 
Q 353 922 353 1747 
Q 353 2572 751 3078 
Q 1150 3584 1784 3584 
Q 2172 3584 2448 3432 
Q 2725 3281 2906 2969 
z
M 947 1747 
Q 947 1113 1208 752 
Q 1469 391 1925 391 
Q 2381 391 2643 752 
Q 2906 1113 2906 1747 
Q 2906 2381 2643 2742 
Q 2381 3103 1925 3103 
Q 1469 3103 1208 2742 
Q 947 2381 947 1747 
z
" transform="scale(0.015625)"/>
       <path id="DejaVuSans-20" transform="scale(0.015625)"/>
       <path id="DejaVuSans-28" d="M 1984 4856 
Q 1566 4138 1362 3434 
Q 1159 2731 1159 2009 
Q 1159 1288 1364 580 
Q 1569 -128 1984 -844 
L 1484 -844 
Q 1016 -109 783 600 
Q 550 1309 550 2009 
Q 550 2706 781 3412 
Q 1013 4119 1484 4856 
L 1984 4856 
z
" transform="scale(0.015625)"/>
       <path id="DejaVuSans-6f" d="M 1959 3097 
Q 1497 3097 1228 2736 
Q 959 2375 959 1747 
Q 959 1119 1226 758 
Q 1494 397 1959 397 
Q 2419 397 2687 759 
Q 2956 1122 2956 1747 
Q 2956 2369 2687 2733 
Q 2419 3097 1959 3097 
z
M 1959 3584 
Q 2709 3584 3137 3096 
Q 3566 2609 3566 1747 
Q 3566 888 3137 398 
Q 2709 -91 1959 -91 
Q 1206 -91 779 398 
Q 353 888 353 1747 
Q 353 2609 779 3096 
Q 1206 3584 1959 3584 
z
" transform="scale(0.015625)"/>
       <path id="DejaVuSans-72" d="M 2631 2963 
Q 2534 3019 2420 3045 
Q 2306 3072 2169 3072 
Q 1681 3072 1420 2755 
Q 1159 2438 1159 1844 
L 1159 0 
L 581 0 
L 581 3500 
L 1159 3500 
L 1159 2956 
Q 1341 3275 1631 3429 
Q 1922 3584 2338 3584 
Q 2397 3584 2469 3576 
Q 2541 3569 2628 3553 
L 2631 2963 
z
" transform="scale(0.015625)"/>
       <path id="DejaVuSans-74" d="M 1172 4494 
L 1172 3500 
L 2356 3500 
L 2356 3053 
L 1172 3053 
L 1172 1153 
Q 1172 725 1289 603 
Q 1406 481 1766 481 
L 2356 481 
L 2356 0 
L 1766 0 
Q 1100 0 847 248 
Q 594 497 594 1153 
L 594 3053 
L 172 3053 
L 172 3500 
L 594 3500 
L 594 4494 
L 1172 4494 
z
" transform="scale(0.015625)"/>
       <path id="DejaVuSans-62" d="M 3116 1747 
Q 3116 2381 2855 2742 
Q 2594 3103 2138 3103 
Q 1681 3103 1420 2742 
Q 1159 2381 1159 1747 
Q 1159 1113 1420 752 
Q 1681 391 2138 391 
Q 2594 391 2855 752 
Q 3116 1113 3116 1747 
z
M 1159 2969 
Q 1341 3281 1617 3432 
Q 1894 3584 2278 3584 
Q 2916 3584 3314 3078 
Q 3713 2572 3713 1747 
Q 3713 922 3314 415 
Q 2916 -91 2278 -91 
Q 1894 -91 1617 61 
Q 1341 213 1159 525 
L 1159 0 
L 581 0 
L 581 4863 
L 1159 4863 
L 1159 2969 
z
" transform="scale(0.015625)"/>
       <path id="DejaVuSans-79" d="M 2059 -325 
Q 1816 -950 1584 -1140 
Q 1353 -1331 966 -1331 
L 506 -1331 
L 506 -850 
L 844 -850 
Q 1081 -850 1212 -737 
Q 1344 -625 1503 -206 
L 1606 56 
L 191 3500 
L 800 3500 
L 1894 763 
L 2988 3500 
L 3597 3500 
L 2059 -325 
z
" transform="scale(0.015625)"/>
       <path id="DejaVuSans-Oblique-4c" d="M 1075 4666 
L 1709 4666 
L 909 525 
L 3181 525 
L 3078 0 
L 172 0 
L 1075 4666 
z
" transform="scale(0.015625)"/>
       <path id="DejaVuSans-29" d="M 513 4856 
L 1013 4856 
Q 1481 4119 1714 3412 
Q 1947 2706 1947 2009 
Q 1947 1309 1714 600 
Q 1481 -109 1013 -844 
L 513 -844 
Q 928 -128 1133 580 
Q 1338 1288 1338 2009 
Q 1338 2731 1133 3434 
Q 928 4138 513 4856 
z
" transform="scale(0.015625)"/>
      </defs>
      <use xlink:href="#DejaVuSans-73" transform="translate(0 0.015625)"/>
      <use xlink:href="#DejaVuSans-65" transform="translate(52.099609 0.015625)"/>
      <use xlink:href="#DejaVuSans-65" transform="translate(113.623047 0.015625)"/>
      <use xlink:href="#DejaVuSans-64" transform="translate(175.146484 0.015625)"/>
      <use xlink:href="#DejaVuSans-20" transform="translate(238.623047 0.015625)"/>
      <use xlink:href="#DejaVuSans-28" transform="translate(270.410156 0.015625)"/>
      <use xlink:href="#DejaVuSans-73" transform="translate(309.423828 0.015625)"/>
      <use xlink:href="#DejaVuSans-6f" transform="translate(361.523438 0.015625)"/>
      <use xlink:href="#DejaVuSans-72" transform="translate(422.705078 0.015625)"/>
      <use xlink:href="#DejaVuSans-74" transform="translate(463.818359 0.015625)"/>
      <use xlink:href="#DejaVuSans-65" transform="translate(503.027344 0.015625)"/>
      <use xlink:href="#DejaVuSans-64" transform="translate(564.550781 0.015625)"/>
      <use xlink:href="#DejaVuSans-20" transform="translate(628.027344 0.015625)"/>
      <use xlink:href="#DejaVuSans-62" transform="translate(659.814453 0.015625)"/>
      <use xlink:href="#DejaVuSans-79" transform="translate(723.291016 0.015625)"/>
      <use xlink:href="#DejaVuSans-20" transform="translate(782.470703 0.015625)"/>
      <use xlink:href="#DejaVuSans-Oblique-4c" transform="translate(814.257812 0.015625)"/>
      <use xlink:href="#DejaVuSans-30" transform="translate(869.970703 -16.390625) scale(0.7)"/>
      <use xlink:href="#DejaVuSans-29" transform="translate(917.241211 0.015625)"/>
     </g>
    </g>
   </g>
   <g id="matplotlib.axis_2">
    <g id="ytick_1">
     <g id="line2d_7">
      <defs>
       <path id="m7c6813e264" d="M 0 0 
L -3.5 0 
" style="stroke: #000000; stroke-width: 0.8"/>
      </defs>
      <g>
       <use xlink:href="#m7c6813e264" x="51.895" y="208.46974" style="stroke: #000000; stroke-width: 0.8"/>
      </g>
     </g>
     <g id="text_8">
      <!-- 1750 -->
      <g transform="translate(19.445 212.268959) scale(0.1 -0.1)">
       <defs>
        <path id="DejaVuSans-37" d="M 525 4666 
L 3525 4666 
L 3525 4397 
L 1831 0 
L 1172 0 
L 2766 4134 
L 525 4134 
L 525 4666 
z
" transform="scale(0.015625)"/>
        <path id="DejaVuSans-35" d="M 691 4666 
L 3169 4666 
L 3169 4134 
L 1269 4134 
L 1269 2991 
Q 1406 3038 1543 3061 
Q 1681 3084 1819 3084 
Q 2600 3084 3056 2656 
Q 3513 2228 3513 1497 
Q 3513 744 3044 326 
Q 2575 -91 1722 -91 
Q 1428 -91 1123 -41 
Q 819 9 494 109 
L 494 744 
Q 775 591 1075 516 
Q 1375 441 1709 441 
Q 2250 441 2565 725 
Q 2881 1009 2881 1497 
Q 2881 1984 2565 2268 
Q 2250 2553 1709 2553 
Q 1456 2553 1204 2497 
Q 953 2441 691 2322 
L 691 4666 
z
" transform="scale(0.015625)"/>
       </defs>
       <use xlink:href="#DejaVuSans-31"/>
       <use xlink:href="#DejaVuSans-37" transform="translate(63.623047 0)"/>
       <use xlink:href="#DejaVuSans-35" transform="translate(127.246094 0)"/>
       <use xlink:href="#DejaVuSans-30" transform="translate(190.869141 0)"/>
      </g>
     </g>
    </g>
    <g id="ytick_2">
     <g id="line2d_8">
      <g>
       <use xlink:href="#m7c6813e264" x="51.895" y="183.919492" style="stroke: #000000; stroke-width: 0.8"/>
      </g>
     </g>
     <g id="text_9">
      <!-- 2000 -->
      <g transform="translate(19.445 187.71871) scale(0.1 -0.1)">
       <use xlink:href="#DejaVuSans-32"/>
       <use xlink:href="#DejaVuSans-30" transform="translate(63.623047 0)"/>
       <use xlink:href="#DejaVuSans-30" transform="translate(127.246094 0)"/>
       <use xlink:href="#DejaVuSans-30" transform="translate(190.869141 0)"/>
      </g>
     </g>
    </g>
    <g id="ytick_3">
     <g id="line2d_9">
      <g>
       <use xlink:href="#m7c6813e264" x="51.895" y="159.369243" style="stroke: #000000; stroke-width: 0.8"/>
      </g>
     </g>
     <g id="text_10">
      <!-- 2250 -->
      <g transform="translate(19.445 163.168462) scale(0.1 -0.1)">
       <use xlink:href="#DejaVuSans-32"/>
       <use xlink:href="#DejaVuSans-32" transform="translate(63.623047 0)"/>
       <use xlink:href="#DejaVuSans-35" transform="translate(127.246094 0)"/>
       <use xlink:href="#DejaVuSans-30" transform="translate(190.869141 0)"/>
      </g>
     </g>
    </g>
    <g id="ytick_4">
     <g id="line2d_10">
      <g>
       <use xlink:href="#m7c6813e264" x="51.895" y="134.818995" style="stroke: #000000; stroke-width: 0.8"/>
      </g>
     </g>
     <g id="text_11">
      <!-- 2500 -->
      <g transform="translate(19.445 138.618213) scale(0.1 -0.1)">
       <use xlink:href="#DejaVuSans-32"/>
       <use xlink:href="#DejaVuSans-35" transform="translate(63.623047 0)"/>
       <use xlink:href="#DejaVuSans-30" transform="translate(127.246094 0)"/>
       <use xlink:href="#DejaVuSans-30" transform="translate(190.869141 0)"/>
      </g>
     </g>
    </g>
    <g id="ytick_5">
     <g id="line2d_11">
      <g>
       <use xlink:href="#m7c6813e264" x="51.895" y="110.268746" style="stroke: #000000; stroke-width: 0.8"/>
      </g>
     </g>
     <g id="text_12">
      <!-- 2750 -->
      <g transform="translate(19.445 114.067965) scale(0.1 -0.1)">
       <use xlink:href="#DejaVuSans-32"/>
       <use xlink:href="#DejaVuSans-37" transform="translate(63.623047 0)"/>
       <use xlink:href="#DejaVuSans-35" transform="translate(127.246094 0)"/>
       <use xlink:href="#DejaVuSans-30" transform="translate(190.869141 0)"/>
      </g>
     </g>
    </g>
    <g id="ytick_6">
     <g id="line2d_12">
      <g>
       <use xlink:href="#m7c6813e264" x="51.895" y="85.718497" style="stroke: #000000; stroke-width: 0.8"/>
      </g>
     </g>
     <g id="text_13">
      <!-- 3000 -->
      <g transform="translate(19.445 89.517716) scale(0.1 -0.1)">
       <defs>
        <path id="DejaVuSans-33" d="M 2597 2516 
Q 3050 2419 3304 2112 
Q 3559 1806 3559 1356 
Q 3559 666 3084 287 
Q 2609 -91 1734 -91 
Q 1441 -91 1130 -33 
Q 819 25 488 141 
L 488 750 
Q 750 597 1062 519 
Q 1375 441 1716 441 
Q 2309 441 2620 675 
Q 2931 909 2931 1356 
Q 2931 1769 2642 2001 
Q 2353 2234 1838 2234 
L 1294 2234 
L 1294 2753 
L 1863 2753 
Q 2328 2753 2575 2939 
Q 2822 3125 2822 3475 
Q 2822 3834 2567 4026 
Q 2313 4219 1838 4219 
Q 1578 4219 1281 4162 
Q 984 4106 628 3988 
L 628 4550 
Q 988 4650 1302 4700 
Q 1616 4750 1894 4750 
Q 2613 4750 3031 4423 
Q 3450 4097 3450 3541 
Q 3450 3153 3228 2886 
Q 3006 2619 2597 2516 
z
" transform="scale(0.015625)"/>
       </defs>
       <use xlink:href="#DejaVuSans-33"/>
       <use xlink:href="#DejaVuSans-30" transform="translate(63.623047 0)"/>
       <use xlink:href="#DejaVuSans-30" transform="translate(127.246094 0)"/>
       <use xlink:href="#DejaVuSans-30" transform="translate(190.869141 0)"/>
      </g>
     </g>
    </g>
    <g id="ytick_7">
     <g id="line2d_13">
      <g>
       <use xlink:href="#m7c6813e264" x="51.895" y="61.168249" style="stroke: #000000; stroke-width: 0.8"/>
      </g>
     </g>
     <g id="text_14">
      <!-- 3250 -->
      <g transform="translate(19.445 64.967468) scale(0.1 -0.1)">
       <use xlink:href="#DejaVuSans-33"/>
       <use xlink:href="#DejaVuSans-32" transform="translate(63.623047 0)"/>
       <use xlink:href="#DejaVuSans-35" transform="translate(127.246094 0)"/>
       <use xlink:href="#DejaVuSans-30" transform="translate(190.869141 0)"/>
      </g>
     </g>
    </g>
    <g id="ytick_8">
     <g id="line2d_14">
      <g>
       <use xlink:href="#m7c6813e264" x="51.895" y="36.618" style="stroke: #000000; stroke-width: 0.8"/>
      </g>
     </g>
     <g id="text_15">
      <!-- 3500 -->
      <g transform="translate(19.445 40.417219) scale(0.1 -0.1)">
       <use xlink:href="#DejaVuSans-33"/>
       <use xlink:href="#DejaVuSans-35" transform="translate(63.623047 0)"/>
       <use xlink:href="#DejaVuSans-30" transform="translate(127.246094 0)"/>
       <use xlink:href="#DejaVuSans-30" transform="translate(190.869141 0)"/>
      </g>
     </g>
    </g>
    <g id="ytick_9">
     <g id="line2d_15">
      <g>
       <use xlink:href="#m7c6813e264" x="51.895" y="12.067752" style="stroke: #000000; stroke-width: 0.8"/>
      </g>
     </g>
     <g id="text_16">
      <!-- 3750 -->
      <g transform="translate(19.445 15.86697) scale(0.1 -0.1)">
       <use xlink:href="#DejaVuSans-33"/>
       <use xlink:href="#DejaVuSans-37" transform="translate(63.623047 0)"/>
       <use xlink:href="#DejaVuSans-35" transform="translate(127.246094 0)"/>
       <use xlink:href="#DejaVuSans-30" transform="translate(190.869141 0)"/>
      </g>
     </g>
    </g>
    <g id="text_17">
     <!-- initial top-$k$ MSE  $L_0$ -->
     <g transform="translate(13.66 154.42) rotate(-90) scale(0.085 -0.085)">
      <defs>
       <path id="DejaVuSans-69" d="M 603 3500 
L 1178 3500 
L 1178 0 
L 603 0 
L 603 3500 
z
M 603 4863 
L 1178 4863 
L 1178 4134 
L 603 4134 
L 603 4863 
z
" transform="scale(0.015625)"/>
       <path id="DejaVuSans-6e" d="M 3513 2113 
L 3513 0 
L 2938 0 
L 2938 2094 
Q 2938 2591 2744 2837 
Q 2550 3084 2163 3084 
Q 1697 3084 1428 2787 
Q 1159 2491 1159 1978 
L 1159 0 
L 581 0 
L 581 3500 
L 1159 3500 
L 1159 2956 
Q 1366 3272 1645 3428 
Q 1925 3584 2291 3584 
Q 2894 3584 3203 3211 
Q 3513 2838 3513 2113 
z
" transform="scale(0.015625)"/>
       <path id="DejaVuSans-61" d="M 2194 1759 
Q 1497 1759 1228 1600 
Q 959 1441 959 1056 
Q 959 750 1161 570 
Q 1363 391 1709 391 
Q 2188 391 2477 730 
Q 2766 1069 2766 1631 
L 2766 1759 
L 2194 1759 
z
M 3341 1997 
L 3341 0 
L 2766 0 
L 2766 531 
Q 2569 213 2275 61 
Q 1981 -91 1556 -91 
Q 1019 -91 701 211 
Q 384 513 384 1019 
Q 384 1609 779 1909 
Q 1175 2209 1959 2209 
L 2766 2209 
L 2766 2266 
Q 2766 2663 2505 2880 
Q 2244 3097 1772 3097 
Q 1472 3097 1187 3025 
Q 903 2953 641 2809 
L 641 3341 
Q 956 3463 1253 3523 
Q 1550 3584 1831 3584 
Q 2591 3584 2966 3190 
Q 3341 2797 3341 1997 
z
" transform="scale(0.015625)"/>
       <path id="DejaVuSans-6c" d="M 603 4863 
L 1178 4863 
L 1178 0 
L 603 0 
L 603 4863 
z
" transform="scale(0.015625)"/>
       <path id="DejaVuSans-70" d="M 1159 525 
L 1159 -1331 
L 581 -1331 
L 581 3500 
L 1159 3500 
L 1159 2969 
Q 1341 3281 1617 3432 
Q 1894 3584 2278 3584 
Q 2916 3584 3314 3078 
Q 3713 2572 3713 1747 
Q 3713 922 3314 415 
Q 2916 -91 2278 -91 
Q 1894 -91 1617 61 
Q 1341 213 1159 525 
z
M 3116 1747 
Q 3116 2381 2855 2742 
Q 2594 3103 2138 3103 
Q 1681 3103 1420 2742 
Q 1159 2381 1159 1747 
Q 1159 1113 1420 752 
Q 1681 391 2138 391 
Q 2594 391 2855 752 
Q 3116 1113 3116 1747 
z
" transform="scale(0.015625)"/>
       <path id="DejaVuSans-2d" d="M 313 2009 
L 1997 2009 
L 1997 1497 
L 313 1497 
L 313 2009 
z
" transform="scale(0.015625)"/>
       <path id="DejaVuSans-Oblique-6b" d="M 1172 4863 
L 1747 4863 
L 1197 2028 
L 3169 3500 
L 3916 3500 
L 1716 1825 
L 3322 0 
L 2625 0 
L 1131 1709 
L 800 0 
L 225 0 
L 1172 4863 
z
" transform="scale(0.015625)"/>
       <path id="DejaVuSans-4d" d="M 628 4666 
L 1569 4666 
L 2759 1491 
L 3956 4666 
L 4897 4666 
L 4897 0 
L 4281 0 
L 4281 4097 
L 3078 897 
L 2444 897 
L 1241 4097 
L 1241 0 
L 628 0 
L 628 4666 
z
" transform="scale(0.015625)"/>
       <path id="DejaVuSans-53" d="M 3425 4513 
L 3425 3897 
Q 3066 4069 2747 4153 
Q 2428 4238 2131 4238 
Q 1616 4238 1336 4038 
Q 1056 3838 1056 3469 
Q 1056 3159 1242 3001 
Q 1428 2844 1947 2747 
L 2328 2669 
Q 3034 2534 3370 2195 
Q 3706 1856 3706 1288 
Q 3706 609 3251 259 
Q 2797 -91 1919 -91 
Q 1588 -91 1214 -16 
Q 841 59 441 206 
L 441 856 
Q 825 641 1194 531 
Q 1563 422 1919 422 
Q 2459 422 2753 634 
Q 3047 847 3047 1241 
Q 3047 1584 2836 1778 
Q 2625 1972 2144 2069 
L 1759 2144 
Q 1053 2284 737 2584 
Q 422 2884 422 3419 
Q 422 4038 858 4394 
Q 1294 4750 2059 4750 
Q 2388 4750 2728 4690 
Q 3069 4631 3425 4513 
z
" transform="scale(0.015625)"/>
       <path id="DejaVuSans-45" d="M 628 4666 
L 3578 4666 
L 3578 4134 
L 1259 4134 
L 1259 2753 
L 3481 2753 
L 3481 2222 
L 1259 2222 
L 1259 531 
L 3634 531 
L 3634 0 
L 628 0 
L 628 4666 
z
" transform="scale(0.015625)"/>
      </defs>
      <use xlink:href="#DejaVuSans-69" transform="translate(0 0.015625)"/>
      <use xlink:href="#DejaVuSans-6e" transform="translate(27.783203 0.015625)"/>
      <use xlink:href="#DejaVuSans-69" transform="translate(91.162109 0.015625)"/>
      <use xlink:href="#DejaVuSans-74" transform="translate(118.945312 0.015625)"/>
      <use xlink:href="#DejaVuSans-69" transform="translate(158.154297 0.015625)"/>
      <use xlink:href="#DejaVuSans-61" transform="translate(185.9375 0.015625)"/>
      <use xlink:href="#DejaVuSans-6c" transform="translate(247.216797 0.015625)"/>
      <use xlink:href="#DejaVuSans-20" transform="translate(275 0.015625)"/>
      <use xlink:href="#DejaVuSans-74" transform="translate(306.787109 0.015625)"/>
      <use xlink:href="#DejaVuSans-6f" transform="translate(345.996094 0.015625)"/>
      <use xlink:href="#DejaVuSans-70" transform="translate(407.177734 0.015625)"/>
      <use xlink:href="#DejaVuSans-2d" transform="translate(470.654297 0.015625)"/>
      <use xlink:href="#DejaVuSans-Oblique-6b" transform="translate(506.738281 0.015625)"/>
      <use xlink:href="#DejaVuSans-20" transform="translate(564.648438 0.015625)"/>
      <use xlink:href="#DejaVuSans-4d" transform="translate(596.435547 0.015625)"/>
      <use xlink:href="#DejaVuSans-53" transform="translate(682.714844 0.015625)"/>
      <use xlink:href="#DejaVuSans-45" transform="translate(746.191406 0.015625)"/>
      <use xlink:href="#DejaVuSans-20" transform="translate(809.375 0.015625)"/>
      <use xlink:href="#DejaVuSans-20" transform="translate(841.162109 0.015625)"/>
      <use xlink:href="#DejaVuSans-Oblique-4c" transform="translate(872.949219 0.015625)"/>
      <use xlink:href="#DejaVuSans-30" transform="translate(928.662109 -16.390625) scale(0.7)"/>
     </g>
    </g>
   </g>
   <g id="line2d_16">
    <path d="M 51.895 92.812547 
L 290.573058 92.812547 
" clip-path="url(#paba37434f8)" style="fill: none; stroke-dasharray: 3.7,1.6; stroke-dashoffset: 0; stroke: #000000"/>
   </g>
   <g id="patch_3">
    <path d="M 51.895 218.68 
L 51.895 7.2 
" style="fill: none; stroke: #000000; stroke-width: 0.8; stroke-linejoin: miter; stroke-linecap: square"/>
   </g>
   <g id="patch_4">
    <path d="M 290.573058 218.68 
L 290.573058 7.2 
" style="fill: none; stroke: #000000; stroke-width: 0.8; stroke-linejoin: miter; stroke-linecap: square"/>
   </g>
   <g id="patch_5">
    <path d="M 51.895 218.68 
L 290.573058 218.68 
" style="fill: none; stroke: #000000; stroke-width: 0.8; stroke-linejoin: miter; stroke-linecap: square"/>
   </g>
   <g id="patch_6">
    <path d="M 51.895 7.2 
L 290.573058 7.2 
" style="fill: none; stroke: #000000; stroke-width: 0.8; stroke-linejoin: miter; stroke-linecap: square"/>
   </g>
   <g id="legend_1">
    <g id="line2d_17">
     <path d="M 58.645 17.023828 
L 66.145 17.023828 
L 73.645 17.023828 
" style="fill: none; stroke-dasharray: 3.7,1.6; stroke-dashoffset: 0; stroke: #000000"/>
    </g>
    <g id="text_18">
     <!-- mean 2928 -->
     <g transform="translate(79.645 19.648828) scale(0.075 -0.075)">
      <defs>
       <path id="DejaVuSans-6d" d="M 3328 2828 
Q 3544 3216 3844 3400 
Q 4144 3584 4550 3584 
Q 5097 3584 5394 3201 
Q 5691 2819 5691 2113 
L 5691 0 
L 5113 0 
L 5113 2094 
Q 5113 2597 4934 2840 
Q 4756 3084 4391 3084 
Q 3944 3084 3684 2787 
Q 3425 2491 3425 1978 
L 3425 0 
L 2847 0 
L 2847 2094 
Q 2847 2600 2669 2842 
Q 2491 3084 2119 3084 
Q 1678 3084 1418 2786 
Q 1159 2488 1159 1978 
L 1159 0 
L 581 0 
L 581 3500 
L 1159 3500 
L 1159 2956 
Q 1356 3278 1631 3431 
Q 1906 3584 2284 3584 
Q 2666 3584 2933 3390 
Q 3200 3197 3328 2828 
z
" transform="scale(0.015625)"/>
       <path id="DejaVuSans-39" d="M 703 97 
L 703 672 
Q 941 559 1184 500 
Q 1428 441 1663 441 
Q 2288 441 2617 861 
Q 2947 1281 2994 2138 
Q 2813 1869 2534 1725 
Q 2256 1581 1919 1581 
Q 1219 1581 811 2004 
Q 403 2428 403 3163 
Q 403 3881 828 4315 
Q 1253 4750 1959 4750 
Q 2769 4750 3195 4129 
Q 3622 3509 3622 2328 
Q 3622 1225 3098 567 
Q 2575 -91 1691 -91 
Q 1453 -91 1209 -44 
Q 966 3 703 97 
z
M 1959 2075 
Q 2384 2075 2632 2365 
Q 2881 2656 2881 3163 
Q 2881 3666 2632 3958 
Q 2384 4250 1959 4250 
Q 1534 4250 1286 3958 
Q 1038 3666 1038 3163 
Q 1038 2656 1286 2365 
Q 1534 2075 1959 2075 
z
" transform="scale(0.015625)"/>
      </defs>
      <use xlink:href="#DejaVuSans-6d"/>
      <use xlink:href="#DejaVuSans-65" transform="translate(97.412109 0)"/>
      <use xlink:href="#DejaVuSans-61" transform="translate(158.935547 0)"/>
      <use xlink:href="#DejaVuSans-6e" transform="translate(220.214844 0)"/>
      <use xlink:href="#DejaVuSans-20" transform="translate(283.59375 0)"/>
      <use xlink:href="#DejaVuSans-32" transform="translate(315.380859 0)"/>
      <use xlink:href="#DejaVuSans-39" transform="translate(379.003906 0)"/>
      <use xlink:href="#DejaVuSans-32" transform="translate(442.626953 0)"/>
      <use xlink:href="#DejaVuSans-38" transform="translate(506.25 0)"/>
     </g>
    </g>
   </g>
  </g>
 </g>
 <defs>
  <clipPath id="paba37434f8">
   <rect x="51.895" y="7.2" width="238.678058" height="211.48"/>
  </clipPath>
 </defs>
</svg>
