<?xml version="1.0" encoding="utf-8" standalone="no"?>
<!DOCTYPE svg PUBLIC "-//W3C//DTD SVG 1.1//EN"
  "http://www.w3.org/Graphics/SVG/1.1/DTD/svg11.dtd">
<svg xmlns:xlink="http://www.w3.org/1999/xlink" width="492.507497pt" height="383.352019pt" viewBox="0 0 492.507497 383.352019" xmlns="http://www.w3.org/2000/svg" version="1.1">
 <metadata>
  <rdf:RDF xmlns:dc="http://purl.org/dc/elements/1.1/" xmlns:cc="http://creativecommons.org/ns#" xmlns:rdf="http://www.w3.org/1999/02/22-rdf-syntax-ns#">
   <cc:Work>
    <dc:type rdf:resource="http://purl.org/dc/dcmitype/StillImage"/>
    <dc:date>2026-05-27T12:51:00.169402</dc:date>
    <dc:format>image/svg+xml</dc:format>
    <dc:creator>
     <cc:Agent>
      <dc:title>Matplotlib v3.10.9, https://matplotlib.org/</dc:title>
     </cc:Agent>
    </dc:creator>
   </cc:Work>
  </rdf:RDF>
 </metadata>
 <defs>
  <style type="text/css">*{stroke-linejoin: round; stroke-linecap: butt}</style>
 </defs>
 <g id="figure_1">
  <g id="patch_1">
   <path d="M 0 383.352019 
L 492.507497 383.352019 
L 492.507497 0 
L 0 0 
z
" style="fill: #ffffff"/>
  </g>
  <g id="axes_1">
   <g id="patch_2">
    <path d="M 51.8 170.625769 
L 484.548447 170.625769 
L 484.548447 9.755769 
L 51.8 9.755769 
z
" style="fill: #ffffff"/>
   </g>
   <g id="matplotlib.axis_1">
    <g id="xtick_1">
     <g id="line2d_1">
      <path d="M 71.309875 170.625769 
L 71.309875 9.755769 
" clip-path="url(#pe9eb44da77)" style="fill: none; stroke: #b0b0b0; stroke-opacity: 0.25; stroke-width: 0.5; stroke-linecap: square"/>
     </g>
     <g id="line2d_2">
      <defs>
       <path id="m60302849d1" d="M 0 0 
L 0 3.5 
" style="stroke: #000000; stroke-width: 0.8"/>
      </defs>
      <g>
       <use xlink:href="#m60302849d1" x="71.309875" y="170.625769" style="stroke: #000000; stroke-width: 0.8"/>
      </g>
     </g>
    </g>
    <g id="xtick_2">
     <g id="line2d_3">
      <path d="M 151.564399 170.625769 
L 151.564399 9.755769 
" clip-path="url(#pe9eb44da77)" style="fill: none; stroke: #b0b0b0; stroke-opacity: 0.25; stroke-width: 0.5; stroke-linecap: square"/>
     </g>
     <g id="line2d_4">
      <g>
       <use xlink:href="#m60302849d1" x="151.564399" y="170.625769" style="stroke: #000000; stroke-width: 0.8"/>
      </g>
     </g>
    </g>
    <g id="xtick_3">
     <g id="line2d_5">
      <path d="M 231.818924 170.625769 
L 231.818924 9.755769 
" clip-path="url(#pe9eb44da77)" style="fill: none; stroke: #b0b0b0; stroke-opacity: 0.25; stroke-width: 0.5; stroke-linecap: square"/>
     </g>
     <g id="line2d_6">
      <g>
       <use xlink:href="#m60302849d1" x="231.818924" y="170.625769" style="stroke: #000000; stroke-width: 0.8"/>
      </g>
     </g>
    </g>
    <g id="xtick_4">
     <g id="line2d_7">
      <path d="M 312.073448 170.625769 
L 312.073448 9.755769 
" clip-path="url(#pe9eb44da77)" style="fill: none; stroke: #b0b0b0; stroke-opacity: 0.25; stroke-width: 0.5; stroke-linecap: square"/>
     </g>
     <g id="line2d_8">
      <g>
       <use xlink:href="#m60302849d1" x="312.073448" y="170.625769" style="stroke: #000000; stroke-width: 0.8"/>
      </g>
     </g>
    </g>
    <g id="xtick_5">
     <g id="line2d_9">
      <path d="M 392.327973 170.625769 
L 392.327973 9.755769 
" clip-path="url(#pe9eb44da77)" style="fill: none; stroke: #b0b0b0; stroke-opacity: 0.25; stroke-width: 0.5; stroke-linecap: square"/>
     </g>
     <g id="line2d_10">
      <g>
       <use xlink:href="#m60302849d1" x="392.327973" y="170.625769" style="stroke: #000000; stroke-width: 0.8"/>
      </g>
     </g>
    </g>
    <g id="xtick_6">
     <g id="line2d_11">
      <path d="M 472.582497 170.625769 
L 472.582497 9.755769 
" clip-path="url(#pe9eb44da77)" style="fill: none; stroke: #b0b0b0; stroke-opacity: 0.25; stroke-width: 0.5; stroke-linecap: square"/>
     </g>
     <g id="line2d_12">
      <g>
       <use xlink:href="#m60302849d1" x="472.582497" y="170.625769" style="stroke: #000000; stroke-width: 0.8"/>
      </g>
     </g>
    </g>
   </g>
   <g id="matplotlib.axis_2">
    <g id="ytick_1">
     <g id="line2d_13">
      <path d="M 51.8 153.296134 
L 484.548447 153.296134 
" clip-path="url(#pe9eb44da77)" style="fill: none; stroke: #b0b0b0; stroke-opacity: 0.25; stroke-width: 0.5; stroke-linecap: square"/>
     </g>
     <g id="line2d_14">
      <defs>
       <path id="m58af5b5320" d="M 0 0 
L -3.5 0 
" style="stroke: #000000; stroke-width: 0.8"/>
      </defs>
      <g>
       <use xlink:href="#m58af5b5320" x="51.8" y="153.296134" style="stroke: #000000; stroke-width: 0.8"/>
      </g>
     </g>
     <g id="text_1">
      <!-- 10 -->
      <g transform="translate(32.075 157.095353) scale(0.1 -0.1)">
       <defs>
        <path id="DejaVuSans-31" d="M 794 531 
L 1825 531 
L 1825 4091 
L 703 3866 
L 703 4441 
L 1819 4666 
L 2450 4666 
L 2450 531 
L 3481 531 
L 3481 0 
L 794 0 
L 794 531 
z
" transform="scale(0.015625)"/>
        <path id="DejaVuSans-30" d="M 2034 4250 
Q 1547 4250 1301 3770 
Q 1056 3291 1056 2328 
Q 1056 1369 1301 889 
Q 1547 409 2034 409 
Q 2525 409 2770 889 
Q 3016 1369 3016 2328 
Q 3016 3291 2770 3770 
Q 2525 4250 2034 4250 
z
M 2034 4750 
Q 2819 4750 3233 4129 
Q 3647 3509 3647 2328 
Q 3647 1150 3233 529 
Q 2819 -91 2034 -91 
Q 1250 -91 836 529 
Q 422 1150 422 2328 
Q 422 3509 836 4129 
Q 1250 4750 2034 4750 
z
" transform="scale(0.015625)"/>
       </defs>
       <use xlink:href="#DejaVuSans-31"/>
       <use xlink:href="#DejaVuSans-30" transform="translate(63.623047 0)"/>
      </g>
     </g>
    </g>
    <g id="ytick_2">
     <g id="line2d_15">
      <path d="M 51.8 132.968004 
L 484.548447 132.968004 
" clip-path="url(#pe9eb44da77)" style="fill: none; stroke: #b0b0b0; stroke-opacity: 0.25; stroke-width: 0.5; stroke-linecap: square"/>
     </g>
     <g id="line2d_16">
      <g>
       <use xlink:href="#m58af5b5320" x="51.8" y="132.968004" style="stroke: #000000; stroke-width: 0.8"/>
      </g>
     </g>
     <g id="text_2">
      <!-- 15 -->
      <g transform="translate(32.075 136.767222) scale(0.1 -0.1)">
       <defs>
        <path id="DejaVuSans-35" d="M 691 4666 
L 3169 4666 
L 3169 4134 
L 1269 4134 
L 1269 2991 
Q 1406 3038 1543 3061 
Q 1681 3084 1819 3084 
Q 2600 3084 3056 2656 
Q 3513 2228 3513 1497 
Q 3513 744 3044 326 
Q 2575 -91 1722 -91 
Q 1428 -91 1123 -41 
Q 819 9 494 109 
L 494 744 
Q 775 591 1075 516 
Q 1375 441 1709 441 
Q 2250 441 2565 725 
Q 2881 1009 2881 1497 
Q 2881 1984 2565 2268 
Q 2250 2553 1709 2553 
Q 1456 2553 1204 2497 
Q 953 2441 691 2322 
L 691 4666 
z
" transform="scale(0.015625)"/>
       </defs>
       <use xlink:href="#DejaVuSans-31"/>
       <use xlink:href="#DejaVuSans-35" transform="translate(63.623047 0)"/>
      </g>
     </g>
    </g>
    <g id="ytick_3">
     <g id="line2d_17">
      <path d="M 51.8 112.639873 
L 484.548447 112.639873 
" clip-path="url(#pe9eb44da77)" style="fill: none; stroke: #b0b0b0; stroke-opacity: 0.25; stroke-width: 0.5; stroke-linecap: square"/>
     </g>
     <g id="line2d_18">
      <g>
       <use xlink:href="#m58af5b5320" x="51.8" y="112.639873" style="stroke: #000000; stroke-width: 0.8"/>
      </g>
     </g>
     <g id="text_3">
      <!-- 20 -->
      <g transform="translate(32.075 116.439092) scale(0.1 -0.1)">
       <defs>
        <path id="DejaVuSans-32" d="M 1228 531 
L 3431 531 
L 3431 0 
L 469 0 
L 469 531 
Q 828 903 1448 1529 
Q 2069 2156 2228 2338 
Q 2531 2678 2651 2914 
Q 2772 3150 2772 3378 
Q 2772 3750 2511 3984 
Q 2250 4219 1831 4219 
Q 1534 4219 1204 4116 
Q 875 4013 500 3803 
L 500 4441 
Q 881 4594 1212 4672 
Q 1544 4750 1819 4750 
Q 2544 4750 2975 4387 
Q 3406 4025 3406 3419 
Q 3406 3131 3298 2873 
Q 3191 2616 2906 2266 
Q 2828 2175 2409 1742 
Q 1991 1309 1228 531 
z
" transform="scale(0.015625)"/>
       </defs>
       <use xlink:href="#DejaVuSans-32"/>
       <use xlink:href="#DejaVuSans-30" transform="translate(63.623047 0)"/>
      </g>
     </g>
    </g>
    <g id="ytick_4">
     <g id="line2d_19">
      <path d="M 51.8 92.311742 
L 484.548447 92.311742 
" clip-path="url(#pe9eb44da77)" style="fill: none; stroke: #b0b0b0; stroke-opacity: 0.25; stroke-width: 0.5; stroke-linecap: square"/>
     </g>
     <g id="line2d_20">
      <g>
       <use xlink:href="#m58af5b5320" x="51.8" y="92.311742" style="stroke: #000000; stroke-width: 0.8"/>
      </g>
     </g>
     <g id="text_4">
      <!-- 25 -->
      <g transform="translate(32.075 96.110961) scale(0.1 -0.1)">
       <use xlink:href="#DejaVuSans-32"/>
       <use xlink:href="#DejaVuSans-35" transform="translate(63.623047 0)"/>
      </g>
     </g>
    </g>
    <g id="ytick_5">
     <g id="line2d_21">
      <path d="M 51.8 71.983611 
L 484.548447 71.983611 
" clip-path="url(#pe9eb44da77)" style="fill: none; stroke: #b0b0b0; stroke-opacity: 0.25; stroke-width: 0.5; stroke-linecap: square"/>
     </g>
     <g id="line2d_22">
      <g>
       <use xlink:href="#m58af5b5320" x="51.8" y="71.983611" style="stroke: #000000; stroke-width: 0.8"/>
      </g>
     </g>
     <g id="text_5">
      <!-- 30 -->
      <g transform="translate(32.075 75.78283) scale(0.1 -0.1)">
       <defs>
        <path id="DejaVuSans-33" d="M 2597 2516 
Q 3050 2419 3304 2112 
Q 3559 1806 3559 1356 
Q 3559 666 3084 287 
Q 2609 -91 1734 -91 
Q 1441 -91 1130 -33 
Q 819 25 488 141 
L 488 750 
Q 750 597 1062 519 
Q 1375 441 1716 441 
Q 2309 441 2620 675 
Q 2931 909 2931 1356 
Q 2931 1769 2642 2001 
Q 2353 2234 1838 2234 
L 1294 2234 
L 1294 2753 
L 1863 2753 
Q 2328 2753 2575 2939 
Q 2822 3125 2822 3475 
Q 2822 3834 2567 4026 
Q 2313 4219 1838 4219 
Q 1578 4219 1281 4162 
Q 984 4106 628 3988 
L 628 4550 
Q 988 4650 1302 4700 
Q 1616 4750 1894 4750 
Q 2613 4750 3031 4423 
Q 3450 4097 3450 3541 
Q 3450 3153 3228 2886 
Q 3006 2619 2597 2516 
z
" transform="scale(0.015625)"/>
       </defs>
       <use xlink:href="#DejaVuSans-33"/>
       <use xlink:href="#DejaVuSans-30" transform="translate(63.623047 0)"/>
      </g>
     </g>
    </g>
    <g id="ytick_6">
     <g id="line2d_23">
      <path d="M 51.8 51.65548 
L 484.548447 51.65548 
" clip-path="url(#pe9eb44da77)" style="fill: none; stroke: #b0b0b0; stroke-opacity: 0.25; stroke-width: 0.5; stroke-linecap: square"/>
     </g>
     <g id="line2d_24">
      <g>
       <use xlink:href="#m58af5b5320" x="51.8" y="51.65548" style="stroke: #000000; stroke-width: 0.8"/>
      </g>
     </g>
     <g id="text_6">
      <!-- 35 -->
      <g transform="translate(32.075 55.454699) scale(0.1 -0.1)">
       <use xlink:href="#DejaVuSans-33"/>
       <use xlink:href="#DejaVuSans-35" transform="translate(63.623047 0)"/>
      </g>
     </g>
    </g>
    <g id="ytick_7">
     <g id="line2d_25">
      <path d="M 51.8 31.32735 
L 484.548447 31.32735 
" clip-path="url(#pe9eb44da77)" style="fill: none; stroke: #b0b0b0; stroke-opacity: 0.25; stroke-width: 0.5; stroke-linecap: square"/>
     </g>
     <g id="line2d_26">
      <g>
       <use xlink:href="#m58af5b5320" x="51.8" y="31.32735" style="stroke: #000000; stroke-width: 0.8"/>
      </g>
     </g>
     <g id="text_7">
      <!-- 40 -->
      <g transform="translate(32.075 35.126568) scale(0.1 -0.1)">
       <defs>
        <path id="DejaVuSans-34" d="M 2419 4116 
L 825 1625 
L 2419 1625 
L 2419 4116 
z
M 2253 4666 
L 3047 4666 
L 3047 1625 
L 3713 1625 
L 3713 1100 
L 3047 1100 
L 3047 0 
L 2419 0 
L 2419 1100 
L 313 1100 
L 313 1709 
L 2253 4666 
z
" transform="scale(0.015625)"/>
       </defs>
       <use xlink:href="#DejaVuSans-34"/>
       <use xlink:href="#DejaVuSans-30" transform="translate(63.623047 0)"/>
      </g>
     </g>
    </g>
    <g id="ytick_8">
     <g id="line2d_27">
      <path d="M 51.8 10.999219 
L 484.548447 10.999219 
" clip-path="url(#pe9eb44da77)" style="fill: none; stroke: #b0b0b0; stroke-opacity: 0.25; stroke-width: 0.5; stroke-linecap: square"/>
     </g>
     <g id="line2d_28">
      <g>
       <use xlink:href="#m58af5b5320" x="51.8" y="10.999219" style="stroke: #000000; stroke-width: 0.8"/>
      </g>
     </g>
     <g id="text_8">
      <!-- 45 -->
      <g transform="translate(32.075 14.798437) scale(0.1 -0.1)">
       <use xlink:href="#DejaVuSans-34"/>
       <use xlink:href="#DejaVuSans-35" transform="translate(63.623047 0)"/>
      </g>
     </g>
    </g>
    <g id="text_9">
     <!-- top-$k$ MSE loss -->
     <g transform="translate(25.975 126.590769) rotate(-90) scale(0.1 -0.1)">
      <defs>
       <path id="DejaVuSans-74" d="M 1172 4494 
L 1172 3500 
L 2356 3500 
L 2356 3053 
L 1172 3053 
L 1172 1153 
Q 1172 725 1289 603 
Q 1406 481 1766 481 
L 2356 481 
L 2356 0 
L 1766 0 
Q 1100 0 847 248 
Q 594 497 594 1153 
L 594 3053 
L 172 3053 
L 172 3500 
L 594 3500 
L 594 4494 
L 1172 4494 
z
" transform="scale(0.015625)"/>
       <path id="DejaVuSans-6f" d="M 1959 3097 
Q 1497 3097 1228 2736 
Q 959 2375 959 1747 
Q 959 1119 1226 758 
Q 1494 397 1959 397 
Q 2419 397 2687 759 
Q 2956 1122 2956 1747 
Q 2956 2369 2687 2733 
Q 2419 3097 1959 3097 
z
M 1959 3584 
Q 2709 3584 3137 3096 
Q 3566 2609 3566 1747 
Q 3566 888 3137 398 
Q 2709 -91 1959 -91 
Q 1206 -91 779 398 
Q 353 888 353 1747 
Q 353 2609 779 3096 
Q 1206 3584 1959 3584 
z
" transform="scale(0.015625)"/>
       <path id="DejaVuSans-70" d="M 1159 525 
L 1159 -1331 
L 581 -1331 
L 581 3500 
L 1159 3500 
L 1159 2969 
Q 1341 3281 1617 3432 
Q 1894 3584 2278 3584 
Q 2916 3584 3314 3078 
Q 3713 2572 3713 1747 
Q 3713 922 3314 415 
Q 2916 -91 2278 -91 
Q 1894 -91 1617 61 
Q 1341 213 1159 525 
z
M 3116 1747 
Q 3116 2381 2855 2742 
Q 2594 3103 2138 3103 
Q 1681 3103 1420 2742 
Q 1159 2381 1159 1747 
Q 1159 1113 1420 752 
Q 1681 391 2138 391 
Q 2594 391 2855 752 
Q 3116 1113 3116 1747 
z
" transform="scale(0.015625)"/>
       <path id="DejaVuSans-2d" d="M 313 2009 
L 1997 2009 
L 1997 1497 
L 313 1497 
L 313 2009 
z
" transform="scale(0.015625)"/>
       <path id="DejaVuSans-Oblique-6b" d="M 1172 4863 
L 1747 4863 
L 1197 2028 
L 3169 3500 
L 3916 3500 
L 1716 1825 
L 3322 0 
L 2625 0 
L 1131 1709 
L 800 0 
L 225 0 
L 1172 4863 
z
" transform="scale(0.015625)"/>
       <path id="DejaVuSans-20" transform="scale(0.015625)"/>
       <path id="DejaVuSans-4d" d="M 628 4666 
L 1569 4666 
L 2759 1491 
L 3956 4666 
L 4897 4666 
L 4897 0 
L 4281 0 
L 4281 4097 
L 3078 897 
L 2444 897 
L 1241 4097 
L 1241 0 
L 628 0 
L 628 4666 
z
" transform="scale(0.015625)"/>
       <path id="DejaVuSans-53" d="M 3425 4513 
L 3425 3897 
Q 3066 4069 2747 4153 
Q 2428 4238 2131 4238 
Q 1616 4238 1336 4038 
Q 1056 3838 1056 3469 
Q 1056 3159 1242 3001 
Q 1428 2844 1947 2747 
L 2328 2669 
Q 3034 2534 3370 2195 
Q 3706 1856 3706 1288 
Q 3706 609 3251 259 
Q 2797 -91 1919 -91 
Q 1588 -91 1214 -16 
Q 841 59 441 206 
L 441 856 
Q 825 641 1194 531 
Q 1563 422 1919 422 
Q 2459 422 2753 634 
Q 3047 847 3047 1241 
Q 3047 1584 2836 1778 
Q 2625 1972 2144 2069 
L 1759 2144 
Q 1053 2284 737 2584 
Q 422 2884 422 3419 
Q 422 4038 858 4394 
Q 1294 4750 2059 4750 
Q 2388 4750 2728 4690 
Q 3069 4631 3425 4513 
z
" transform="scale(0.015625)"/>
       <path id="DejaVuSans-45" d="M 628 4666 
L 3578 4666 
L 3578 4134 
L 1259 4134 
L 1259 2753 
L 3481 2753 
L 3481 2222 
L 1259 2222 
L 1259 531 
L 3634 531 
L 3634 0 
L 628 0 
L 628 4666 
z
" transform="scale(0.015625)"/>
       <path id="DejaVuSans-6c" d="M 603 4863 
L 1178 4863 
L 1178 0 
L 603 0 
L 603 4863 
z
" transform="scale(0.015625)"/>
       <path id="DejaVuSans-73" d="M 2834 3397 
L 2834 2853 
Q 2591 2978 2328 3040 
Q 2066 3103 1784 3103 
Q 1356 3103 1142 2972 
Q 928 2841 928 2578 
Q 928 2378 1081 2264 
Q 1234 2150 1697 2047 
L 1894 2003 
Q 2506 1872 2764 1633 
Q 3022 1394 3022 966 
Q 3022 478 2636 193 
Q 2250 -91 1575 -91 
Q 1294 -91 989 -36 
Q 684 19 347 128 
L 347 722 
Q 666 556 975 473 
Q 1284 391 1588 391 
Q 1994 391 2212 530 
Q 2431 669 2431 922 
Q 2431 1156 2273 1281 
Q 2116 1406 1581 1522 
L 1381 1569 
Q 847 1681 609 1914 
Q 372 2147 372 2553 
Q 372 3047 722 3315 
Q 1072 3584 1716 3584 
Q 2034 3584 2315 3537 
Q 2597 3491 2834 3397 
z
" transform="scale(0.015625)"/>
      </defs>
      <use xlink:href="#DejaVuSans-74" transform="translate(0 0.015625)"/>
      <use xlink:href="#DejaVuSans-6f" transform="translate(39.208984 0.015625)"/>
      <use xlink:href="#DejaVuSans-70" transform="translate(100.390625 0.015625)"/>
      <use xlink:href="#DejaVuSans-2d" transform="translate(163.867188 0.015625)"/>
      <use xlink:href="#DejaVuSans-Oblique-6b" transform="translate(199.951172 0.015625)"/>
      <use xlink:href="#DejaVuSans-20" transform="translate(257.861328 0.015625)"/>
      <use xlink:href="#DejaVuSans-4d" transform="translate(289.648438 0.015625)"/>
      <use xlink:href="#DejaVuSans-53" transform="translate(375.927734 0.015625)"/>
      <use xlink:href="#DejaVuSans-45" transform="translate(439.404297 0.015625)"/>
      <use xlink:href="#DejaVuSans-20" transform="translate(502.587891 0.015625)"/>
      <use xlink:href="#DejaVuSans-6c" transform="translate(534.375 0.015625)"/>
      <use xlink:href="#DejaVuSans-6f" transform="translate(562.158203 0.015625)"/>
      <use xlink:href="#DejaVuSans-73" transform="translate(623.339844 0.015625)"/>
      <use xlink:href="#DejaVuSans-73" transform="translate(675.439453 0.015625)"/>
     </g>
    </g>
   </g>
   <g id="line2d_29">
    <path d="M 71.470384 17.068041 
L 75.001583 23.748625 
L 77.730237 28.714624 
L 79.495836 31.494428 
L 80.940418 33.392649 
L 82.22449 34.759154 
L 83.508563 35.825951 
L 84.792635 36.619563 
L 86.237216 37.244288 
L 87.842307 37.682686 
L 89.768416 37.963259 
L 92.497069 38.111552 
L 98.756922 38.151665 
L 99.238449 38.151778 
L 99.559468 39.374412 
L 100.201504 43.037366 
L 101.806594 52.656504 
L 102.609139 56.008395 
L 103.251176 57.742696 
L 103.732703 58.551305 
L 104.21423 59.030917 
L 104.856266 59.318439 
L 105.658811 59.375807 
L 109.19001 59.339773 
L 113.684264 59.586894 
L 114.3263 59.928237 
L 114.968336 60.490748 
L 115.770881 61.530831 
L 116.733936 63.223002 
L 118.339026 66.676799 
L 119.623099 69.287463 
L 120.586153 70.728496 
L 121.228189 71.344106 
L 121.870225 71.68264 
L 122.672771 71.82516 
L 124.43837 71.779117 
L 127.648551 71.820775 
L 130.537714 71.969788 
L 132.94535 72.937184 
L 134.068913 73.145339 
L 135.834513 73.183983 
L 141.131311 73.188804 
L 141.452329 73.661923 
L 141.933856 74.787202 
L 142.736402 77.313767 
L 144.823019 84.292533 
L 145.304546 85.139382 
L 145.786074 85.529448 
L 146.267601 85.577928 
L 148.193709 85.321764 
L 151.243381 85.589644 
L 156.219162 85.644833 
L 157.021707 85.717416 
L 160.071379 85.727058 
L 160.552906 85.791261 
L 161.997488 87.296891 
L 162.800033 87.857045 
L 163.602578 88.143031 
L 164.726141 88.263993 
L 171.146503 88.284512 
L 171.307012 88.193009 
L 171.467521 88.282327 
L 171.78854 88.232139 
L 172.109558 88.257868 
L 172.912103 88.264196 
L 174.517193 88.295325 
L 182.863664 88.35892 
L 183.345191 88.593114 
L 183.987227 88.885311 
L 185.110791 89.068545 
L 188.160463 89.087442 
L 191.370643 89.199972 
L 191.852171 89.270615 
L 194.099297 89.31778 
L 198.272533 89.334364 
L 198.433042 89.281348 
L 198.593551 89.452341 
L 198.914569 89.54682 
L 199.235587 89.751857 
L 201.161695 90.340537 
L 203.569331 90.341597 
L 203.72984 90.466041 
L 204.532386 92.168021 
L 205.334931 93.593354 
L 205.816458 94.117335 
L 206.297985 94.416645 
L 207.10053 94.537947 
L 212.557838 94.547984 
L 214.483947 94.54585 
L 214.644456 94.389597 
L 214.804965 94.545634 
L 214.965474 94.419137 
L 216.089037 94.518456 
L 216.570564 94.545846 
L 218.015146 94.547534 
L 220.262272 94.547601 
L 222.509399 94.54872 
L 222.669908 94.396638 
L 222.830417 94.547726 
L 222.990926 94.421128 
L 223.95398 94.547616 
L 224.435508 94.528618 
L 225.398562 94.542419 
L 226.682634 94.550882 
L 231.016379 94.518632 
L 231.818924 94.547535 
L 232.781978 94.536511 
L 235.992159 94.608953 
L 239.844376 94.590771 
L 240.004885 94.907482 
L 240.165394 94.977242 
L 241.449467 97.27348 
L 242.252012 98.756376 
L 243.054557 99.864049 
L 244.017612 100.722251 
L 245.141175 101.683924 
L 245.783211 102.608198 
L 246.585756 104.308309 
L 248.030338 107.531989 
L 248.672374 108.30686 
L 249.31441 108.66594 
L 250.116955 108.815005 
L 251.722046 108.761067 
L 254.4507 108.827991 
L 261.352589 108.85645 
L 262.155134 108.856678 
L 262.315643 108.680105 
L 262.476152 108.845466 
L 262.636661 108.702056 
L 263.118188 108.787481 
L 263.920734 108.813972 
L 264.723279 108.849031 
L 271.464659 108.863303 
L 271.625168 108.643435 
L 271.785677 108.861825 
L 271.946186 108.680481 
L 272.90924 108.859095 
L 273.390767 108.817383 
L 273.711786 108.846102 
L 274.193313 108.855567 
L 278.848075 108.868241 
L 279.008584 108.663408 
L 279.169093 108.871964 
L 279.329602 108.711271 
L 279.811129 108.829582 
L 280.132148 108.854919 
L 280.453166 108.867855 
L 281.255711 108.90872 
L 282.218765 108.9979 
L 287.515564 109.113909 
L 287.676073 109.552777 
L 288.478618 115.738174 
L 289.441672 125.291708 
L 290.244218 132.303929 
L 290.725745 135.198482 
L 291.207272 136.845415 
L 291.52829 137.306342 
L 291.849308 137.425841 
L 292.330835 137.250734 
L 293.133381 136.862149 
L 293.614908 136.818986 
L 294.417453 137.023541 
L 295.701525 137.381996 
L 296.825089 137.436112 
L 302.924433 137.383811 
L 303.245451 137.399468 
L 303.726978 137.432528 
L 305.171559 137.435556 
L 307.900213 137.440992 
L 310.14734 137.442052 
L 310.307849 137.240734 
L 310.468358 137.431959 
L 310.628867 137.268113 
L 311.270903 137.335813 
L 311.75243 137.41292 
L 312.073448 137.397188 
L 312.394466 137.425101 
L 313.036503 137.436585 
L 314.160066 137.432421 
L 316.567702 137.442511 
L 318.172792 137.442757 
L 318.333301 137.182181 
L 318.49381 137.44186 
L 318.654319 137.229895 
L 319.135846 137.375598 
L 319.296355 137.300421 
L 319.617374 137.437217 
L 320.098901 137.396298 
L 320.419919 137.418525 
L 320.901446 137.436374 
L 327.482317 137.445102 
L 327.642826 137.160286 
L 327.803335 137.444786 
L 327.963844 137.211966 
L 328.124353 137.261187 
L 328.284862 137.433248 
L 328.766389 137.359517 
L 328.926898 137.441898 
L 329.408426 137.38467 
L 329.729444 137.424642 
L 330.050462 137.395818 
L 330.531989 137.414601 
L 332.779116 137.436872 
L 333.902679 137.52504 
L 335.026242 143.04185 
L 336.310315 152.698744 
L 337.11286 158.548508 
L 337.594387 160.795487 
L 337.915405 161.607605 
L 338.236423 161.904115 
L 338.557441 161.900949 
L 339.841514 161.270732 
L 340.48355 161.406503 
L 341.928131 161.908813 
L 342.891186 161.947175 
L 345.780349 161.9464 
L 347.22493 161.955263 
L 347.385439 161.654597 
L 347.545948 161.941415 
L 347.706457 161.724497 
L 348.187984 161.882662 
L 348.509002 161.864396 
L 348.83002 161.914516 
L 349.151039 161.889731 
L 349.632566 161.911364 
L 353.163765 161.958823 
L 353.324274 161.702331 
L 353.484783 161.959379 
L 353.645292 161.758147 
L 354.126819 161.882339 
L 354.287328 161.834788 
L 354.608346 161.949888 
L 354.929364 161.889127 
L 355.410892 161.927743 
L 356.855473 161.949682 
L 360.065654 161.965268 
L 360.226163 161.733425 
L 360.386672 161.957684 
L 360.547181 161.758008 
L 361.028708 161.886862 
L 361.349726 161.912587 
L 361.670744 161.904929 
L 362.47329 161.917825 
L 363.275835 161.948505 
L 364.559907 161.957623 
L 366.807034 161.967506 
L 366.967543 161.65512 
L 367.128052 161.96359 
L 367.288561 161.709921 
L 367.770088 161.877672 
L 367.930597 161.794054 
L 368.251615 161.963535 
L 368.572634 161.862655 
L 369.054161 161.931725 
L 369.375179 161.930301 
L 369.856706 161.930305 
L 372.58536 161.966752 
L 374.671977 161.970078 
L 374.671977 161.970078 
" clip-path="url(#pe9eb44da77)" style="fill: none; stroke: #0072b2; stroke-width: 1.4; stroke-linecap: square"/>
   </g>
   <g id="line2d_30">
    <path d="M 374.671977 161.970078 
" clip-path="url(#pe9eb44da77)" style="fill: none; stroke: #0072b2; stroke-width: 1.5; stroke-linecap: square"/>
    <defs>
     <path id="mf398168d89" d="M 0 2 
C 0.530406 2 1.03916 1.789267 1.414214 1.414214 
C 1.789267 1.03916 2 0.530406 2 0 
C 2 -0.530406 1.789267 -1.03916 1.414214 -1.414214 
C 1.03916 -1.789267 0.530406 -2 0 -2 
C -0.530406 -2 -1.03916 -1.789267 -1.414214 -1.414214 
C -1.789267 -1.03916 -2 -0.530406 -2 0 
C -2 0.530406 -1.789267 1.03916 -1.414214 1.414214 
C -1.03916 1.789267 -0.530406 2 0 2 
z
" style="stroke: #0072b2"/>
    </defs>
    <g clip-path="url(#pe9eb44da77)">
     <use xlink:href="#mf398168d89" x="374.671977" y="161.970078" style="fill: #0072b2; stroke: #0072b2"/>
    </g>
   </g>
   <g id="line2d_31">
    <path d="M 71.470384 17.068041 
L 75.001583 23.748625 
L 77.730237 28.714624 
L 79.495836 31.494428 
L 80.940418 33.392649 
L 82.22449 34.759154 
L 83.508563 35.825951 
L 84.792635 36.619563 
L 86.237216 37.244288 
L 87.842307 37.682686 
L 89.768416 37.963259 
L 92.497069 38.111552 
L 98.756922 38.151665 
L 118.820553 38.268115 
L 143.217929 38.423226 
L 148.996255 39.252761 
L 155.737635 40.505347 
L 158.626798 40.711134 
L 163.763087 40.787262 
L 176.443302 40.927854 
L 179.332465 41.568317 
L 180.937555 41.663201 
L 188.963008 41.758679 
L 189.444535 42.290293 
L 190.086571 43.528565 
L 190.728607 45.43419 
L 191.531153 48.633131 
L 193.457261 56.899022 
L 193.938788 58.075291 
L 194.420315 58.70548 
L 194.901843 58.881368 
L 195.543879 58.729771 
L 196.346424 58.545769 
L 197.148969 58.630268 
L 200.038132 59.199615 
L 204.211367 59.521715 
L 215.60751 59.842053 
L 219.941254 60.021038 
L 223.95398 60.224018 
L 226.843143 60.337793 
L 228.769252 60.427158 
L 229.411288 60.490645 
L 230.374342 60.525602 
L 232.300451 60.521535 
L 234.066051 60.62998 
L 234.868596 60.731974 
L 238.078777 60.758713 
L 249.153901 60.774468 
L 249.31441 60.674196 
L 249.474919 60.808131 
L 249.635428 60.735688 
L 250.598483 60.969855 
L 251.401028 61.0429 
L 254.290191 61.278671 
L 258.784444 61.509182 
L 262.476152 61.557417 
L 263.118188 62.221374 
L 264.56277 63.168752 
L 265.525824 63.67595 
L 266.488878 63.943973 
L 270.341096 64.343597 
L 273.551277 64.473763 
L 284.626401 64.491652 
L 286.713019 64.583386 
L 287.676073 64.726831 
L 293.133381 65.288242 
L 295.862034 65.288413 
L 296.183052 66.806825 
L 296.66458 70.33386 
L 298.430179 83.804466 
L 298.911706 85.947716 
L 299.393233 87.267575 
L 299.874761 87.887609 
L 300.356288 88.037699 
L 300.998324 87.917393 
L 301.961378 87.723844 
L 302.924433 87.785506 
L 305.171559 88.037554 
L 307.900213 88.037646 
L 308.221231 90.177209 
L 308.863267 96.516019 
L 309.665813 103.851755 
L 309.986831 105.551739 
L 310.307849 106.310823 
L 310.468358 106.405017 
L 310.789376 106.175539 
L 311.431412 105.396969 
L 311.75243 105.273983 
L 312.073448 105.375321 
L 312.715484 105.918416 
L 313.357521 106.376842 
L 313.999557 106.505388 
L 316.728211 106.521582 
L 319.777883 106.541276 
L 321.8645 106.643577 
L 322.185518 106.735739 
L 322.667046 106.796583 
L 323.309082 107.108868 
L 325.23519 107.562332 
L 326.679772 107.551558 
L 331.013516 107.540584 
L 331.174025 107.779615 
L 331.334534 107.793761 
L 332.939625 109.697952 
L 334.063188 110.941913 
L 334.865733 111.501776 
L 335.668278 111.762981 
L 336.791842 111.84106 
L 347.064421 111.852449 
L 351.879692 111.92168 
L 353.324274 116.309601 
L 354.287328 119.49225 
L 354.608346 120.025136 
L 354.929364 120.176754 
L 356.213437 119.940881 
L 358.139545 120.708761 
L 370.338233 120.657126 
L 370.498742 120.975447 
L 370.659251 121.02295 
L 371.461796 122.201573 
L 372.103833 122.872114 
L 372.58536 123.155397 
L 373.227396 123.265036 
L 376.598086 123.264079 
L 380.93183 123.281684 
L 382.376412 123.283169 
L 382.536921 123.133212 
L 382.69743 123.457155 
L 382.857939 123.406735 
L 383.339466 123.807218 
L 384.463029 123.96049 
L 385.265575 123.923965 
L 390.080846 124.027736 
L 390.241355 123.833563 
L 390.401864 124.075402 
L 390.562373 123.955577 
L 391.0439 124.123899 
L 391.364918 124.143071 
L 391.846446 124.11594 
L 394.093572 124.187203 
L 398.748335 124.197986 
L 399.871898 124.198051 
L 400.032407 124.032528 
L 400.192916 124.346005 
L 400.353425 124.289442 
L 400.834952 124.761772 
L 401.637498 125.149697 
L 402.279534 125.115856 
L 403.403097 125.115457 
L 405.489715 125.204178 
L 408.218369 125.217143 
L 408.378878 124.933915 
L 408.539387 125.185751 
L 408.699896 124.991173 
L 409.181423 125.1373 
L 409.502441 125.145225 
L 409.823459 125.168852 
L 410.144477 125.178661 
L 410.786513 125.194595 
L 412.552113 125.219467 
L 415.280767 125.22729 
L 415.441276 124.951336 
L 415.601785 125.306679 
L 415.762294 125.106249 
L 416.243821 125.451455 
L 416.40433 125.434772 
L 416.725348 125.601605 
L 417.206875 125.551665 
L 417.527893 125.553685 
L 417.848912 125.537383 
L 418.330439 125.563055 
L 419.614511 125.626658 
L 421.380111 125.635276 
L 425.071819 125.640274 
L 425.232328 125.272354 
L 425.392837 125.768987 
L 425.553346 125.504673 
L 425.713855 125.67321 
L 425.874364 126.013344 
L 426.195382 126.003975 
L 426.676909 126.478497 
L 426.837418 126.525261 
L 427.639964 127.52433 
L 428.121491 128.662541 
L 428.603018 130.369242 
L 429.405563 134.293196 
L 430.208108 137.954977 
L 430.689635 138.987848 
L 431.171163 139.416224 
L 431.65269 139.526431 
L 432.455235 139.447054 
L 433.25778 139.391437 
L 437.270506 139.703368 
L 440.801706 139.721275 
L 440.962215 139.489602 
L 441.122724 139.680845 
L 441.283233 139.53992 
L 441.76476 139.661458 
L 442.085778 139.704163 
L 443.851377 139.845903 
L 445.616977 139.969154 
L 447.864104 140.040202 
L 448.827158 140.003246 
L 449.148176 141.02001 
L 449.790212 144.073385 
L 450.753267 150.654981 
L 452.037339 159.70035 
L 452.518866 161.46356 
L 452.839884 161.910944 
L 453.160902 161.917646 
L 454.444975 161.184721 
L 454.926502 161.314674 
L 456.371083 161.929546 
L 457.334138 161.946791 
L 459.420755 161.938296 
L 462.951954 161.962881 
L 464.878063 161.966159 
L 464.878063 161.966159 
" clip-path="url(#pe9eb44da77)" style="fill: none; stroke-dasharray: 5.18,2.24; stroke-dashoffset: 0; stroke: #e69f00; stroke-width: 1.4"/>
   </g>
   <g id="line2d_32">
    <path d="M 464.878063 161.966159 
" clip-path="url(#pe9eb44da77)" style="fill: none; stroke: #e69f00; stroke-width: 1.5; stroke-linecap: square"/>
    <defs>
     <path id="m7d2ecb704c" d="M 0 2 
C 0.530406 2 1.03916 1.789267 1.414214 1.414214 
C 1.789267 1.03916 2 0.530406 2 0 
C 2 -0.530406 1.789267 -1.03916 1.414214 -1.414214 
C 1.03916 -1.789267 0.530406 -2 0 -2 
C -0.530406 -2 -1.03916 -1.789267 -1.414214 -1.414214 
C -1.789267 -1.03916 -2 -0.530406 -2 0 
C -2 0.530406 -1.789267 1.03916 -1.414214 1.414214 
C -1.03916 1.789267 -0.530406 2 0 2 
z
" style="stroke: #e69f00"/>
    </defs>
    <g clip-path="url(#pe9eb44da77)">
     <use xlink:href="#m7d2ecb704c" x="464.878063" y="161.966159" style="fill: #e69f00; stroke: #e69f00"/>
    </g>
   </g>
   <g id="line2d_33">
    <path d="M 71.470384 17.068041 
L 75.162092 17.976223 
L 79.014309 18.646474 
L 84.311108 19.594082 
L 92.33656 21.182 
L 95.867759 21.625869 
L 100.201504 21.928523 
L 106.461357 22.09809 
L 119.141571 22.154089 
L 124.117352 22.263668 
L 127.969569 22.764387 
L 131.500768 22.779653 
L 131.821786 23.332682 
L 132.303313 24.703644 
L 132.94535 27.284539 
L 133.908404 32.28394 
L 136.31604 45.478303 
L 137.118585 48.576248 
L 137.92113 50.779296 
L 138.563166 51.984278 
L 139.205203 52.804501 
L 140.007748 53.441287 
L 140.810293 53.799838 
L 141.933856 54.041912 
L 143.859965 54.181491 
L 148.514727 54.239813 
L 159.589852 54.255702 
L 159.91087 55.175224 
L 160.552906 58.082257 
L 161.997488 65.182425 
L 162.639524 67.415273 
L 163.28156 68.972206 
L 163.923596 69.969047 
L 164.565632 70.558032 
L 165.207669 70.868155 
L 166.170723 71.041785 
L 168.25734 71.057826 
L 183.184682 71.100727 
L 200.840677 71.13576 
L 201.161695 71.338589 
L 201.643223 71.806891 
L 202.12475 72.478815 
L 202.766786 73.836517 
L 203.890349 76.356123 
L 204.371876 76.825631 
L 204.853404 76.86125 
L 206.137476 76.569538 
L 207.10053 76.745925 
L 208.224094 76.89514 
L 216.731073 76.905176 
L 237.436741 77.044154 
L 238.078777 77.077903 
L 239.844376 77.086105 
L 242.252012 77.097171 
L 242.57303 79.624259 
L 243.215066 87.192637 
L 244.017612 95.970529 
L 244.499139 98.824561 
L 244.820157 99.67709 
L 245.141175 99.876971 
L 245.462193 99.724195 
L 246.264738 99.08886 
L 246.746265 99.050368 
L 247.388302 99.36575 
L 248.351356 99.920591 
L 249.153901 100.08839 
L 253.487645 100.117555 
L 254.932227 100.115853 
L 255.253245 101.553487 
L 255.895281 106.295256 
L 257.981899 123.22539 
L 258.463426 125.250032 
L 258.944953 126.28407 
L 259.265971 126.556087 
L 259.586989 126.610527 
L 260.229025 126.412989 
L 261.031571 126.18175 
L 261.834116 126.222557 
L 264.402261 126.615139 
L 270.020077 126.618631 
L 270.180587 126.500613 
L 270.341096 126.609196 
L 270.662114 126.561679 
L 270.983132 126.597039 
L 271.785677 126.60425 
L 276.119421 126.656959 
L 276.27993 126.656406 
L 276.440439 127.346291 
L 278.206039 140.065006 
L 278.527057 140.904665 
L 278.848075 141.280941 
L 279.169093 141.301208 
L 279.811129 140.943241 
L 280.453166 140.695947 
L 280.934693 140.738728 
L 283.342329 141.335546 
L 285.107928 141.301346 
L 285.268437 141.189857 
L 285.428946 141.326484 
L 285.589455 141.18618 
L 286.070982 141.29583 
L 286.392 141.283346 
L 286.713019 141.307625 
L 287.515564 141.305795 
L 289.602181 141.33311 
L 293.454399 141.344244 
L 293.614908 141.178756 
L 293.775417 141.3442 
L 293.935926 141.206312 
L 294.89898 141.345987 
L 295.541016 141.349148 
L 297.306616 141.350152 
L 300.516797 141.37575 
L 302.924433 141.376509 
L 303.084942 141.762271 
L 304.529523 149.790916 
L 305.01105 151.19453 
L 305.332068 151.554957 
L 305.653086 151.691839 
L 306.134613 151.519666 
L 307.097668 151.222415 
L 307.739704 151.321332 
L 309.344794 151.691051 
L 311.431412 151.676348 
L 314.160066 151.707561 
L 314.320575 151.509857 
L 314.481084 151.705811 
L 314.641593 151.545807 
L 315.604647 151.698759 
L 316.567702 151.674443 
L 323.790609 151.709137 
L 323.951118 151.501234 
L 324.111627 151.708886 
L 324.272136 151.541217 
L 325.395699 151.67942 
L 325.716717 151.662663 
L 326.198245 151.670844 
L 332.939625 151.709101 
L 333.100134 151.502673 
L 333.260643 151.709162 
L 333.421152 151.54316 
L 334.544715 151.680134 
L 334.865733 151.66426 
L 335.34726 151.670001 
L 340.644059 151.710486 
L 342.730677 151.622334 
L 342.891186 151.952362 
L 343.051695 151.922017 
L 343.533222 152.275012 
L 343.85424 152.278447 
L 344.175258 152.250929 
L 344.496276 152.189833 
L 345.940858 152.336189 
L 349.151039 152.345677 
L 352.040201 152.350079 
L 352.200711 152.152518 
L 352.36122 152.347389 
L 352.521729 152.196025 
L 353.645292 152.322905 
L 353.96631 152.308315 
L 354.447837 152.318764 
L 361.670744 152.351796 
L 361.831253 152.133684 
L 361.991763 152.347515 
L 362.152272 152.177813 
L 363.115326 152.333596 
L 364.238889 152.321443 
L 365.362453 152.342189 
L 368.251615 152.350291 
L 368.412124 152.140065 
L 368.572634 152.351434 
L 368.733143 152.182761 
L 369.21467 152.292776 
L 369.375179 152.23933 
L 369.696197 152.347221 
L 370.177724 152.322752 
L 370.980269 152.348321 
L 372.906378 152.347257 
L 376.758595 152.352125 
L 376.919104 152.128437 
L 377.079613 152.357857 
L 377.240122 152.180192 
L 378.203176 152.395195 
L 378.684704 152.37085 
L 379.005722 152.404967 
L 379.647758 152.4239 
L 380.771321 152.416685 
L 383.499975 152.430041 
L 385.747102 152.432235 
L 385.907611 152.559456 
L 387.352192 159.604014 
L 387.994228 162.365265 
L 388.315247 163.050248 
L 388.636265 163.304947 
L 388.957283 163.147498 
L 389.920337 162.543353 
L 390.401864 162.614906 
L 392.006955 163.284396 
L 392.970009 163.28453 
L 394.575099 163.274566 
L 396.18019 163.313496 
L 396.18019 163.313496 
" clip-path="url(#pe9eb44da77)" style="fill: none; stroke-dasharray: 8.96,2.24,1.4,2.24; stroke-dashoffset: 0; stroke: #009e73; stroke-width: 1.4"/>
   </g>
   <g id="line2d_34">
    <path d="M 396.18019 163.313496 
" clip-path="url(#pe9eb44da77)" style="fill: none; stroke: #009e73; stroke-width: 1.5; stroke-linecap: square"/>
    <defs>
     <path id="md444699f12" d="M 0 2 
C 0.530406 2 1.03916 1.789267 1.414214 1.414214 
C 1.789267 1.03916 2 0.530406 2 0 
C 2 -0.530406 1.789267 -1.03916 1.414214 -1.414214 
C 1.03916 -1.789267 0.530406 -2 0 -2 
C -0.530406 -2 -1.03916 -1.789267 -1.414214 -1.414214 
C -1.789267 -1.03916 -2 -0.530406 -2 0 
C -2 0.530406 -1.789267 1.03916 -1.414214 1.414214 
C -1.03916 1.789267 -0.530406 2 0 2 
z
" style="stroke: #009e73"/>
    </defs>
    <g clip-path="url(#pe9eb44da77)">
     <use xlink:href="#md444699f12" x="396.18019" y="163.313496" style="fill: #009e73; stroke: #009e73"/>
    </g>
   </g>
   <g id="patch_3">
    <path d="M 51.8 170.625769 
L 51.8 9.755769 
" style="fill: none; stroke: #000000; stroke-width: 0.8; stroke-linejoin: miter; stroke-linecap: square"/>
   </g>
   <g id="patch_4">
    <path d="M 484.548447 170.625769 
L 484.548447 9.755769 
" style="fill: none; stroke: #000000; stroke-width: 0.8; stroke-linejoin: miter; stroke-linecap: square"/>
   </g>
   <g id="patch_5">
    <path d="M 51.8 170.625769 
L 484.548447 170.625769 
" style="fill: none; stroke: #000000; stroke-width: 0.8; stroke-linejoin: miter; stroke-linecap: square"/>
   </g>
   <g id="patch_6">
    <path d="M 51.8 9.755769 
L 484.548447 9.755769 
" style="fill: none; stroke: #000000; stroke-width: 0.8; stroke-linejoin: miter; stroke-linecap: square"/>
   </g>
   <g id="text_10">
    <!-- block-growth: MSE=7.867  PSNR@.20=28.92 dB -->
    <g style="fill: #0072b2" transform="translate(308.486595 23.118175) scale(0.07 -0.07)">
     <defs>
      <path id="DejaVuSans-62" d="M 3116 1747 
Q 3116 2381 2855 2742 
Q 2594 3103 2138 3103 
Q 1681 3103 1420 2742 
Q 1159 2381 1159 1747 
Q 1159 1113 1420 752 
Q 1681 391 2138 391 
Q 2594 391 2855 752 
Q 3116 1113 3116 1747 
z
M 1159 2969 
Q 1341 3281 1617 3432 
Q 1894 3584 2278 3584 
Q 2916 3584 3314 3078 
Q 3713 2572 3713 1747 
Q 3713 922 3314 415 
Q 2916 -91 2278 -91 
Q 1894 -91 1617 61 
Q 1341 213 1159 525 
L 1159 0 
L 581 0 
L 581 4863 
L 1159 4863 
L 1159 2969 
z
" transform="scale(0.015625)"/>
      <path id="DejaVuSans-63" d="M 3122 3366 
L 3122 2828 
Q 2878 2963 2633 3030 
Q 2388 3097 2138 3097 
Q 1578 3097 1268 2742 
Q 959 2388 959 1747 
Q 959 1106 1268 751 
Q 1578 397 2138 397 
Q 2388 397 2633 464 
Q 2878 531 3122 666 
L 3122 134 
Q 2881 22 2623 -34 
Q 2366 -91 2075 -91 
Q 1284 -91 818 406 
Q 353 903 353 1747 
Q 353 2603 823 3093 
Q 1294 3584 2113 3584 
Q 2378 3584 2631 3529 
Q 2884 3475 3122 3366 
z
" transform="scale(0.015625)"/>
      <path id="DejaVuSans-6b" d="M 581 4863 
L 1159 4863 
L 1159 1991 
L 2875 3500 
L 3609 3500 
L 1753 1863 
L 3688 0 
L 2938 0 
L 1159 1709 
L 1159 0 
L 581 0 
L 581 4863 
z
" transform="scale(0.015625)"/>
      <path id="DejaVuSans-67" d="M 2906 1791 
Q 2906 2416 2648 2759 
Q 2391 3103 1925 3103 
Q 1463 3103 1205 2759 
Q 947 2416 947 1791 
Q 947 1169 1205 825 
Q 1463 481 1925 481 
Q 2391 481 2648 825 
Q 2906 1169 2906 1791 
z
M 3481 434 
Q 3481 -459 3084 -895 
Q 2688 -1331 1869 -1331 
Q 1566 -1331 1297 -1286 
Q 1028 -1241 775 -1147 
L 775 -588 
Q 1028 -725 1275 -790 
Q 1522 -856 1778 -856 
Q 2344 -856 2625 -561 
Q 2906 -266 2906 331 
L 2906 616 
Q 2728 306 2450 153 
Q 2172 0 1784 0 
Q 1141 0 747 490 
Q 353 981 353 1791 
Q 353 2603 747 3093 
Q 1141 3584 1784 3584 
Q 2172 3584 2450 3431 
Q 2728 3278 2906 2969 
L 2906 3500 
L 3481 3500 
L 3481 434 
z
" transform="scale(0.015625)"/>
      <path id="DejaVuSans-72" d="M 2631 2963 
Q 2534 3019 2420 3045 
Q 2306 3072 2169 3072 
Q 1681 3072 1420 2755 
Q 1159 2438 1159 1844 
L 1159 0 
L 581 0 
L 581 3500 
L 1159 3500 
L 1159 2956 
Q 1341 3275 1631 3429 
Q 1922 3584 2338 3584 
Q 2397 3584 2469 3576 
Q 2541 3569 2628 3553 
L 2631 2963 
z
" transform="scale(0.015625)"/>
      <path id="DejaVuSans-77" d="M 269 3500 
L 844 3500 
L 1563 769 
L 2278 3500 
L 2956 3500 
L 3675 769 
L 4391 3500 
L 4966 3500 
L 4050 0 
L 3372 0 
L 2619 2869 
L 1863 0 
L 1184 0 
L 269 3500 
z
" transform="scale(0.015625)"/>
      <path id="DejaVuSans-68" d="M 3513 2113 
L 3513 0 
L 2938 0 
L 2938 2094 
Q 2938 2591 2744 2837 
Q 2550 3084 2163 3084 
Q 1697 3084 1428 2787 
Q 1159 2491 1159 1978 
L 1159 0 
L 581 0 
L 581 4863 
L 1159 4863 
L 1159 2956 
Q 1366 3272 1645 3428 
Q 1925 3584 2291 3584 
Q 2894 3584 3203 3211 
Q 3513 2838 3513 2113 
z
" transform="scale(0.015625)"/>
      <path id="DejaVuSans-3a" d="M 750 794 
L 1409 794 
L 1409 0 
L 750 0 
L 750 794 
z
M 750 3309 
L 1409 3309 
L 1409 2516 
L 750 2516 
L 750 3309 
z
" transform="scale(0.015625)"/>
      <path id="DejaVuSans-3d" d="M 678 2906 
L 4684 2906 
L 4684 2381 
L 678 2381 
L 678 2906 
z
M 678 1631 
L 4684 1631 
L 4684 1100 
L 678 1100 
L 678 1631 
z
" transform="scale(0.015625)"/>
      <path id="DejaVuSans-37" d="M 525 4666 
L 3525 4666 
L 3525 4397 
L 1831 0 
L 1172 0 
L 2766 4134 
L 525 4134 
L 525 4666 
z
" transform="scale(0.015625)"/>
      <path id="DejaVuSans-2e" d="M 684 794 
L 1344 794 
L 1344 0 
L 684 0 
L 684 794 
z
" transform="scale(0.015625)"/>
      <path id="DejaVuSans-38" d="M 2034 2216 
Q 1584 2216 1326 1975 
Q 1069 1734 1069 1313 
Q 1069 891 1326 650 
Q 1584 409 2034 409 
Q 2484 409 2743 651 
Q 3003 894 3003 1313 
Q 3003 1734 2745 1975 
Q 2488 2216 2034 2216 
z
M 1403 2484 
Q 997 2584 770 2862 
Q 544 3141 544 3541 
Q 544 4100 942 4425 
Q 1341 4750 2034 4750 
Q 2731 4750 3128 4425 
Q 3525 4100 3525 3541 
Q 3525 3141 3298 2862 
Q 3072 2584 2669 2484 
Q 3125 2378 3379 2068 
Q 3634 1759 3634 1313 
Q 3634 634 3220 271 
Q 2806 -91 2034 -91 
Q 1263 -91 848 271 
Q 434 634 434 1313 
Q 434 1759 690 2068 
Q 947 2378 1403 2484 
z
M 1172 3481 
Q 1172 3119 1398 2916 
Q 1625 2713 2034 2713 
Q 2441 2713 2670 2916 
Q 2900 3119 2900 3481 
Q 2900 3844 2670 4047 
Q 2441 4250 2034 4250 
Q 1625 4250 1398 4047 
Q 1172 3844 1172 3481 
z
" transform="scale(0.015625)"/>
      <path id="DejaVuSans-36" d="M 2113 2584 
Q 1688 2584 1439 2293 
Q 1191 2003 1191 1497 
Q 1191 994 1439 701 
Q 1688 409 2113 409 
Q 2538 409 2786 701 
Q 3034 994 3034 1497 
Q 3034 2003 2786 2293 
Q 2538 2584 2113 2584 
z
M 3366 4563 
L 3366 3988 
Q 3128 4100 2886 4159 
Q 2644 4219 2406 4219 
Q 1781 4219 1451 3797 
Q 1122 3375 1075 2522 
Q 1259 2794 1537 2939 
Q 1816 3084 2150 3084 
Q 2853 3084 3261 2657 
Q 3669 2231 3669 1497 
Q 3669 778 3244 343 
Q 2819 -91 2113 -91 
Q 1303 -91 875 529 
Q 447 1150 447 2328 
Q 447 3434 972 4092 
Q 1497 4750 2381 4750 
Q 2619 4750 2861 4703 
Q 3103 4656 3366 4563 
z
" transform="scale(0.015625)"/>
      <path id="DejaVuSans-50" d="M 1259 4147 
L 1259 2394 
L 2053 2394 
Q 2494 2394 2734 2622 
Q 2975 2850 2975 3272 
Q 2975 3691 2734 3919 
Q 2494 4147 2053 4147 
L 1259 4147 
z
M 628 4666 
L 2053 4666 
Q 2838 4666 3239 4311 
Q 3641 3956 3641 3272 
Q 3641 2581 3239 2228 
Q 2838 1875 2053 1875 
L 1259 1875 
L 1259 0 
L 628 0 
L 628 4666 
z
" transform="scale(0.015625)"/>
      <path id="DejaVuSans-4e" d="M 628 4666 
L 1478 4666 
L 3547 763 
L 3547 4666 
L 4159 4666 
L 4159 0 
L 3309 0 
L 1241 3903 
L 1241 0 
L 628 0 
L 628 4666 
z
" transform="scale(0.015625)"/>
      <path id="DejaVuSans-52" d="M 2841 2188 
Q 3044 2119 3236 1894 
Q 3428 1669 3622 1275 
L 4263 0 
L 3584 0 
L 2988 1197 
Q 2756 1666 2539 1819 
Q 2322 1972 1947 1972 
L 1259 1972 
L 1259 0 
L 628 0 
L 628 4666 
L 2053 4666 
Q 2853 4666 3247 4331 
Q 3641 3997 3641 3322 
Q 3641 2881 3436 2590 
Q 3231 2300 2841 2188 
z
M 1259 4147 
L 1259 2491 
L 2053 2491 
Q 2509 2491 2742 2702 
Q 2975 2913 2975 3322 
Q 2975 3731 2742 3939 
Q 2509 4147 2053 4147 
L 1259 4147 
z
" transform="scale(0.015625)"/>
      <path id="DejaVuSans-40" d="M 2381 1678 
Q 2381 1231 2603 976 
Q 2825 722 3213 722 
Q 3597 722 3817 978 
Q 4038 1234 4038 1678 
Q 4038 2116 3813 2373 
Q 3588 2631 3206 2631 
Q 2828 2631 2604 2375 
Q 2381 2119 2381 1678 
z
M 4084 744 
Q 3897 503 3655 389 
Q 3413 275 3091 275 
Q 2553 275 2217 664 
Q 1881 1053 1881 1678 
Q 1881 2303 2218 2693 
Q 2556 3084 3091 3084 
Q 3413 3084 3656 2967 
Q 3900 2850 4084 2613 
L 4084 3022 
L 4531 3022 
L 4531 722 
Q 4988 791 5245 1139 
Q 5503 1488 5503 2041 
Q 5503 2375 5404 2669 
Q 5306 2963 5106 3213 
Q 4781 3622 4314 3839 
Q 3847 4056 3297 4056 
Q 2913 4056 2559 3954 
Q 2206 3853 1906 3653 
Q 1416 3334 1139 2817 
Q 863 2300 863 1697 
Q 863 1200 1042 765 
Q 1222 331 1563 0 
Q 1891 -325 2322 -495 
Q 2753 -666 3244 -666 
Q 3647 -666 4036 -530 
Q 4425 -394 4750 -141 
L 5031 -488 
Q 4641 -791 4180 -952 
Q 3719 -1113 3244 -1113 
Q 2666 -1113 2153 -908 
Q 1641 -703 1241 -313 
Q 841 78 631 592 
Q 422 1106 422 1697 
Q 422 2266 634 2781 
Q 847 3297 1241 3688 
Q 1644 4084 2172 4295 
Q 2700 4506 3291 4506 
Q 3953 4506 4520 4234 
Q 5088 3963 5472 3463 
Q 5706 3156 5829 2797 
Q 5953 2438 5953 2053 
Q 5953 1231 5456 756 
Q 4959 281 4084 263 
L 4084 744 
z
" transform="scale(0.015625)"/>
      <path id="DejaVuSans-39" d="M 703 97 
L 703 672 
Q 941 559 1184 500 
Q 1428 441 1663 441 
Q 2288 441 2617 861 
Q 2947 1281 2994 2138 
Q 2813 1869 2534 1725 
Q 2256 1581 1919 1581 
Q 1219 1581 811 2004 
Q 403 2428 403 3163 
Q 403 3881 828 4315 
Q 1253 4750 1959 4750 
Q 2769 4750 3195 4129 
Q 3622 3509 3622 2328 
Q 3622 1225 3098 567 
Q 2575 -91 1691 -91 
Q 1453 -91 1209 -44 
Q 966 3 703 97 
z
M 1959 2075 
Q 2384 2075 2632 2365 
Q 2881 2656 2881 3163 
Q 2881 3666 2632 3958 
Q 2384 4250 1959 4250 
Q 1534 4250 1286 3958 
Q 1038 3666 1038 3163 
Q 1038 2656 1286 2365 
Q 1534 2075 1959 2075 
z
" transform="scale(0.015625)"/>
      <path id="DejaVuSans-64" d="M 2906 2969 
L 2906 4863 
L 3481 4863 
L 3481 0 
L 2906 0 
L 2906 525 
Q 2725 213 2448 61 
Q 2172 -91 1784 -91 
Q 1150 -91 751 415 
Q 353 922 353 1747 
Q 353 2572 751 3078 
Q 1150 3584 1784 3584 
Q 2172 3584 2448 3432 
Q 2725 3281 2906 2969 
z
M 947 1747 
Q 947 1113 1208 752 
Q 1469 391 1925 391 
Q 2381 391 2643 752 
Q 2906 1113 2906 1747 
Q 2906 2381 2643 2742 
Q 2381 3103 1925 3103 
Q 1469 3103 1208 2742 
Q 947 2381 947 1747 
z
" transform="scale(0.015625)"/>
      <path id="DejaVuSans-42" d="M 1259 2228 
L 1259 519 
L 2272 519 
Q 2781 519 3026 730 
Q 3272 941 3272 1375 
Q 3272 1813 3026 2020 
Q 2781 2228 2272 2228 
L 1259 2228 
z
M 1259 4147 
L 1259 2741 
L 2194 2741 
Q 2656 2741 2882 2914 
Q 3109 3088 3109 3444 
Q 3109 3797 2882 3972 
Q 2656 4147 2194 4147 
L 1259 4147 
z
M 628 4666 
L 2241 4666 
Q 2963 4666 3353 4366 
Q 3744 4066 3744 3513 
Q 3744 3084 3544 2831 
Q 3344 2578 2956 2516 
Q 3422 2416 3680 2098 
Q 3938 1781 3938 1306 
Q 3938 681 3513 340 
Q 3088 0 2303 0 
L 628 0 
L 628 4666 
z
" transform="scale(0.015625)"/>
     </defs>
     <use xlink:href="#DejaVuSans-62"/>
     <use xlink:href="#DejaVuSans-6c" transform="translate(63.476562 0)"/>
     <use xlink:href="#DejaVuSans-6f" transform="translate(91.259766 0)"/>
     <use xlink:href="#DejaVuSans-63" transform="translate(152.441406 0)"/>
     <use xlink:href="#DejaVuSans-6b" transform="translate(207.421875 0)"/>
     <use xlink:href="#DejaVuSans-2d" transform="translate(265.332031 0)"/>
     <use xlink:href="#DejaVuSans-67" transform="translate(301.416016 0)"/>
     <use xlink:href="#DejaVuSans-72" transform="translate(364.892578 0)"/>
     <use xlink:href="#DejaVuSans-6f" transform="translate(403.755859 0)"/>
     <use xlink:href="#DejaVuSans-77" transform="translate(464.9375 0)"/>
     <use xlink:href="#DejaVuSans-74" transform="translate(546.724609 0)"/>
     <use xlink:href="#DejaVuSans-68" transform="translate(585.933594 0)"/>
     <use xlink:href="#DejaVuSans-3a" transform="translate(649.3125 0)"/>
     <use xlink:href="#DejaVuSans-20" transform="translate(683.003906 0)"/>
     <use xlink:href="#DejaVuSans-4d" transform="translate(714.791016 0)"/>
     <use xlink:href="#DejaVuSans-53" transform="translate(801.070312 0)"/>
     <use xlink:href="#DejaVuSans-45" transform="translate(864.546875 0)"/>
     <use xlink:href="#DejaVuSans-3d" transform="translate(927.730469 0)"/>
     <use xlink:href="#DejaVuSans-37" transform="translate(1011.519531 0)"/>
     <use xlink:href="#DejaVuSans-2e" transform="translate(1075.142578 0)"/>
     <use xlink:href="#DejaVuSans-38" transform="translate(1106.929688 0)"/>
     <use xlink:href="#DejaVuSans-36" transform="translate(1170.552734 0)"/>
     <use xlink:href="#DejaVuSans-37" transform="translate(1234.175781 0)"/>
     <use xlink:href="#DejaVuSans-20" transform="translate(1297.798828 0)"/>
     <use xlink:href="#DejaVuSans-20" transform="translate(1329.585938 0)"/>
     <use xlink:href="#DejaVuSans-50" transform="translate(1361.373047 0)"/>
     <use xlink:href="#DejaVuSans-53" transform="translate(1421.675781 0)"/>
     <use xlink:href="#DejaVuSans-4e" transform="translate(1485.152344 0)"/>
     <use xlink:href="#DejaVuSans-52" transform="translate(1559.957031 0)"/>
     <use xlink:href="#DejaVuSans-40" transform="translate(1629.439453 0)"/>
     <use xlink:href="#DejaVuSans-2e" transform="translate(1729.439453 0)"/>
     <use xlink:href="#DejaVuSans-32" transform="translate(1761.226562 0)"/>
     <use xlink:href="#DejaVuSans-30" transform="translate(1824.849609 0)"/>
     <use xlink:href="#DejaVuSans-3d" transform="translate(1888.472656 0)"/>
     <use xlink:href="#DejaVuSans-32" transform="translate(1972.261719 0)"/>
     <use xlink:href="#DejaVuSans-38" transform="translate(2035.884766 0)"/>
     <use xlink:href="#DejaVuSans-2e" transform="translate(2099.507812 0)"/>
     <use xlink:href="#DejaVuSans-39" transform="translate(2131.294922 0)"/>
     <use xlink:href="#DejaVuSans-32" transform="translate(2194.917969 0)"/>
     <use xlink:href="#DejaVuSans-20" transform="translate(2258.541016 0)"/>
     <use xlink:href="#DejaVuSans-64" transform="translate(2290.328125 0)"/>
     <use xlink:href="#DejaVuSans-42" transform="translate(2353.804688 0)"/>
    </g>
   </g>
   <g id="text_11">
    <!-- left→right: MSE=7.867  PSNR@.20=28.92 dB -->
    <g style="fill: #e69f00" transform="translate(320.288158 35.183425) scale(0.07 -0.07)">
     <defs>
      <path id="DejaVuSans-65" d="M 3597 1894 
L 3597 1613 
L 953 1613 
Q 991 1019 1311 708 
Q 1631 397 2203 397 
Q 2534 397 2845 478 
Q 3156 559 3463 722 
L 3463 178 
Q 3153 47 2828 -22 
Q 2503 -91 2169 -91 
Q 1331 -91 842 396 
Q 353 884 353 1716 
Q 353 2575 817 3079 
Q 1281 3584 2069 3584 
Q 2775 3584 3186 3129 
Q 3597 2675 3597 1894 
z
M 3022 2063 
Q 3016 2534 2758 2815 
Q 2500 3097 2075 3097 
Q 1594 3097 1305 2825 
Q 1016 2553 972 2059 
L 3022 2063 
z
" transform="scale(0.015625)"/>
      <path id="DejaVuSans-66" d="M 2375 4863 
L 2375 4384 
L 1825 4384 
Q 1516 4384 1395 4259 
Q 1275 4134 1275 3809 
L 1275 3500 
L 2222 3500 
L 2222 3053 
L 1275 3053 
L 1275 0 
L 697 0 
L 697 3053 
L 147 3053 
L 147 3500 
L 697 3500 
L 697 3744 
Q 697 4328 969 4595 
Q 1241 4863 1831 4863 
L 2375 4863 
z
" transform="scale(0.015625)"/>
      <path id="DejaVuSans-2192" d="M 5050 2147 
L 5050 1866 
L 3822 638 
L 3447 1013 
L 4175 1741 
L 366 1741 
L 366 2272 
L 4175 2272 
L 3447 3000 
L 3822 3375 
L 5050 2147 
z
" transform="scale(0.015625)"/>
      <path id="DejaVuSans-69" d="M 603 3500 
L 1178 3500 
L 1178 0 
L 603 0 
L 603 3500 
z
M 603 4863 
L 1178 4863 
L 1178 4134 
L 603 4134 
L 603 4863 
z
" transform="scale(0.015625)"/>
     </defs>
     <use xlink:href="#DejaVuSans-6c"/>
     <use xlink:href="#DejaVuSans-65" transform="translate(27.783203 0)"/>
     <use xlink:href="#DejaVuSans-66" transform="translate(89.306641 0)"/>
     <use xlink:href="#DejaVuSans-74" transform="translate(122.761719 0)"/>
     <use xlink:href="#DejaVuSans-2192" transform="translate(161.970703 0)"/>
     <use xlink:href="#DejaVuSans-72" transform="translate(245.759766 0)"/>
     <use xlink:href="#DejaVuSans-69" transform="translate(286.873047 0)"/>
     <use xlink:href="#DejaVuSans-67" transform="translate(314.65625 0)"/>
     <use xlink:href="#DejaVuSans-68" transform="translate(378.132812 0)"/>
     <use xlink:href="#DejaVuSans-74" transform="translate(441.511719 0)"/>
     <use xlink:href="#DejaVuSans-3a" transform="translate(480.720703 0)"/>
     <use xlink:href="#DejaVuSans-20" transform="translate(514.412109 0)"/>
     <use xlink:href="#DejaVuSans-4d" transform="translate(546.199219 0)"/>
     <use xlink:href="#DejaVuSans-53" transform="translate(632.478516 0)"/>
     <use xlink:href="#DejaVuSans-45" transform="translate(695.955078 0)"/>
     <use xlink:href="#DejaVuSans-3d" transform="translate(759.138672 0)"/>
     <use xlink:href="#DejaVuSans-37" transform="translate(842.927734 0)"/>
     <use xlink:href="#DejaVuSans-2e" transform="translate(906.550781 0)"/>
     <use xlink:href="#DejaVuSans-38" transform="translate(938.337891 0)"/>
     <use xlink:href="#DejaVuSans-36" transform="translate(1001.960938 0)"/>
     <use xlink:href="#DejaVuSans-37" transform="translate(1065.583984 0)"/>
     <use xlink:href="#DejaVuSans-20" transform="translate(1129.207031 0)"/>
     <use xlink:href="#DejaVuSans-20" transform="translate(1160.994141 0)"/>
     <use xlink:href="#DejaVuSans-50" transform="translate(1192.78125 0)"/>
     <use xlink:href="#DejaVuSans-53" transform="translate(1253.083984 0)"/>
     <use xlink:href="#DejaVuSans-4e" transform="translate(1316.560547 0)"/>
     <use xlink:href="#DejaVuSans-52" transform="translate(1391.365234 0)"/>
     <use xlink:href="#DejaVuSans-40" transform="translate(1460.847656 0)"/>
     <use xlink:href="#DejaVuSans-2e" transform="translate(1560.847656 0)"/>
     <use xlink:href="#DejaVuSans-32" transform="translate(1592.634766 0)"/>
     <use xlink:href="#DejaVuSans-30" transform="translate(1656.257812 0)"/>
     <use xlink:href="#DejaVuSans-3d" transform="translate(1719.880859 0)"/>
     <use xlink:href="#DejaVuSans-32" transform="translate(1803.669922 0)"/>
     <use xlink:href="#DejaVuSans-38" transform="translate(1867.292969 0)"/>
     <use xlink:href="#DejaVuSans-2e" transform="translate(1930.916016 0)"/>
     <use xlink:href="#DejaVuSans-39" transform="translate(1962.703125 0)"/>
     <use xlink:href="#DejaVuSans-32" transform="translate(2026.326172 0)"/>
     <use xlink:href="#DejaVuSans-20" transform="translate(2089.949219 0)"/>
     <use xlink:href="#DejaVuSans-64" transform="translate(2121.736328 0)"/>
     <use xlink:href="#DejaVuSans-42" transform="translate(2185.212891 0)"/>
    </g>
   </g>
   <g id="text_12">
    <!-- right→left: MSE=7.536  PSNR@.20=31.53 dB -->
    <g style="fill: #009e73" transform="translate(320.288158 47.248675) scale(0.07 -0.07)">
     <use xlink:href="#DejaVuSans-72"/>
     <use xlink:href="#DejaVuSans-69" transform="translate(41.113281 0)"/>
     <use xlink:href="#DejaVuSans-67" transform="translate(68.896484 0)"/>
     <use xlink:href="#DejaVuSans-68" transform="translate(132.373047 0)"/>
     <use xlink:href="#DejaVuSans-74" transform="translate(195.751953 0)"/>
     <use xlink:href="#DejaVuSans-2192" transform="translate(234.960938 0)"/>
     <use xlink:href="#DejaVuSans-6c" transform="translate(318.75 0)"/>
     <use xlink:href="#DejaVuSans-65" transform="translate(346.533203 0)"/>
     <use xlink:href="#DejaVuSans-66" transform="translate(408.056641 0)"/>
     <use xlink:href="#DejaVuSans-74" transform="translate(441.511719 0)"/>
     <use xlink:href="#DejaVuSans-3a" transform="translate(480.720703 0)"/>
     <use xlink:href="#DejaVuSans-20" transform="translate(514.412109 0)"/>
     <use xlink:href="#DejaVuSans-4d" transform="translate(546.199219 0)"/>
     <use xlink:href="#DejaVuSans-53" transform="translate(632.478516 0)"/>
     <use xlink:href="#DejaVuSans-45" transform="translate(695.955078 0)"/>
     <use xlink:href="#DejaVuSans-3d" transform="translate(759.138672 0)"/>
     <use xlink:href="#DejaVuSans-37" transform="translate(842.927734 0)"/>
     <use xlink:href="#DejaVuSans-2e" transform="translate(906.550781 0)"/>
     <use xlink:href="#DejaVuSans-35" transform="translate(938.337891 0)"/>
     <use xlink:href="#DejaVuSans-33" transform="translate(1001.960938 0)"/>
     <use xlink:href="#DejaVuSans-36" transform="translate(1065.583984 0)"/>
     <use xlink:href="#DejaVuSans-20" transform="translate(1129.207031 0)"/>
     <use xlink:href="#DejaVuSans-20" transform="translate(1160.994141 0)"/>
     <use xlink:href="#DejaVuSans-50" transform="translate(1192.78125 0)"/>
     <use xlink:href="#DejaVuSans-53" transform="translate(1253.083984 0)"/>
     <use xlink:href="#DejaVuSans-4e" transform="translate(1316.560547 0)"/>
     <use xlink:href="#DejaVuSans-52" transform="translate(1391.365234 0)"/>
     <use xlink:href="#DejaVuSans-40" transform="translate(1460.847656 0)"/>
     <use xlink:href="#DejaVuSans-2e" transform="translate(1560.847656 0)"/>
     <use xlink:href="#DejaVuSans-32" transform="translate(1592.634766 0)"/>
     <use xlink:href="#DejaVuSans-30" transform="translate(1656.257812 0)"/>
     <use xlink:href="#DejaVuSans-3d" transform="translate(1719.880859 0)"/>
     <use xlink:href="#DejaVuSans-33" transform="translate(1803.669922 0)"/>
     <use xlink:href="#DejaVuSans-31" transform="translate(1867.292969 0)"/>
     <use xlink:href="#DejaVuSans-2e" transform="translate(1930.916016 0)"/>
     <use xlink:href="#DejaVuSans-35" transform="translate(1962.703125 0)"/>
     <use xlink:href="#DejaVuSans-33" transform="translate(2026.326172 0)"/>
     <use xlink:href="#DejaVuSans-20" transform="translate(2089.949219 0)"/>
     <use xlink:href="#DejaVuSans-64" transform="translate(2121.736328 0)"/>
     <use xlink:href="#DejaVuSans-42" transform="translate(2185.212891 0)"/>
    </g>
   </g>
   <g id="legend_1">
    <g id="line2d_35">
     <path d="M 403.003447 20.234519 
L 411.003447 20.234519 
L 419.003447 20.234519 
" style="fill: none; stroke: #0072b2; stroke-width: 1.4; stroke-linecap: square"/>
    </g>
    <g id="text_13">
     <!-- block-growth -->
     <g transform="translate(425.403447 23.034519) scale(0.08 -0.08)">
      <use xlink:href="#DejaVuSans-62"/>
      <use xlink:href="#DejaVuSans-6c" transform="translate(63.476562 0)"/>
      <use xlink:href="#DejaVuSans-6f" transform="translate(91.259766 0)"/>
      <use xlink:href="#DejaVuSans-63" transform="translate(152.441406 0)"/>
      <use xlink:href="#DejaVuSans-6b" transform="translate(207.421875 0)"/>
      <use xlink:href="#DejaVuSans-2d" transform="translate(265.332031 0)"/>
      <use xlink:href="#DejaVuSans-67" transform="translate(301.416016 0)"/>
      <use xlink:href="#DejaVuSans-72" transform="translate(364.892578 0)"/>
      <use xlink:href="#DejaVuSans-6f" transform="translate(403.755859 0)"/>
      <use xlink:href="#DejaVuSans-77" transform="translate(464.9375 0)"/>
      <use xlink:href="#DejaVuSans-74" transform="translate(546.724609 0)"/>
      <use xlink:href="#DejaVuSans-68" transform="translate(585.933594 0)"/>
     </g>
    </g>
    <g id="line2d_36">
     <path d="M 403.003447 31.977019 
L 411.003447 31.977019 
L 419.003447 31.977019 
" style="fill: none; stroke-dasharray: 5.18,2.24; stroke-dashoffset: 0; stroke: #e69f00; stroke-width: 1.4"/>
    </g>
    <g id="text_14">
     <!-- left→right -->
     <g transform="translate(425.403447 34.777019) scale(0.08 -0.08)">
      <use xlink:href="#DejaVuSans-6c"/>
      <use xlink:href="#DejaVuSans-65" transform="translate(27.783203 0)"/>
      <use xlink:href="#DejaVuSans-66" transform="translate(89.306641 0)"/>
      <use xlink:href="#DejaVuSans-74" transform="translate(122.761719 0)"/>
      <use xlink:href="#DejaVuSans-2192" transform="translate(161.970703 0)"/>
      <use xlink:href="#DejaVuSans-72" transform="translate(245.759766 0)"/>
      <use xlink:href="#DejaVuSans-69" transform="translate(286.873047 0)"/>
      <use xlink:href="#DejaVuSans-67" transform="translate(314.65625 0)"/>
      <use xlink:href="#DejaVuSans-68" transform="translate(378.132812 0)"/>
      <use xlink:href="#DejaVuSans-74" transform="translate(441.511719 0)"/>
     </g>
    </g>
    <g id="line2d_37">
     <path d="M 403.003447 43.719519 
L 411.003447 43.719519 
L 419.003447 43.719519 
" style="fill: none; stroke-dasharray: 8.96,2.24,1.4,2.24; stroke-dashoffset: 0; stroke: #009e73; stroke-width: 1.4"/>
    </g>
    <g id="text_15">
     <!-- right→left -->
     <g transform="translate(425.403447 46.519519) scale(0.08 -0.08)">
      <use xlink:href="#DejaVuSans-72"/>
      <use xlink:href="#DejaVuSans-69" transform="translate(41.113281 0)"/>
      <use xlink:href="#DejaVuSans-67" transform="translate(68.896484 0)"/>
      <use xlink:href="#DejaVuSans-68" transform="translate(132.373047 0)"/>
      <use xlink:href="#DejaVuSans-74" transform="translate(195.751953 0)"/>
      <use xlink:href="#DejaVuSans-2192" transform="translate(234.960938 0)"/>
      <use xlink:href="#DejaVuSans-6c" transform="translate(318.75 0)"/>
      <use xlink:href="#DejaVuSans-65" transform="translate(346.533203 0)"/>
      <use xlink:href="#DejaVuSans-66" transform="translate(408.056641 0)"/>
      <use xlink:href="#DejaVuSans-74" transform="translate(441.511719 0)"/>
     </g>
    </g>
   </g>
  </g>
  <g id="axes_2">
   <g id="patch_7">
    <path d="M 51.8 345.795769 
L 484.548447 345.795769 
L 484.548447 184.925769 
L 51.8 184.925769 
z
" style="fill: #ffffff"/>
   </g>
   <g id="matplotlib.axis_3">
    <g id="xtick_7">
     <g id="line2d_38">
      <path d="M 71.309875 345.795769 
L 71.309875 184.925769 
" clip-path="url(#p403c3f7ee0)" style="fill: none; stroke: #b0b0b0; stroke-opacity: 0.25; stroke-width: 0.5; stroke-linecap: square"/>
     </g>
     <g id="line2d_39">
      <g>
       <use xlink:href="#m60302849d1" x="71.309875" y="345.795769" style="stroke: #000000; stroke-width: 0.8"/>
      </g>
     </g>
     <g id="text_16">
      <!-- 0 -->
      <g transform="translate(68.128625 360.394206) scale(0.1 -0.1)">
       <use xlink:href="#DejaVuSans-30"/>
      </g>
     </g>
    </g>
    <g id="xtick_8">
     <g id="line2d_40">
      <path d="M 151.564399 345.795769 
L 151.564399 184.925769 
" clip-path="url(#p403c3f7ee0)" style="fill: none; stroke: #b0b0b0; stroke-opacity: 0.25; stroke-width: 0.5; stroke-linecap: square"/>
     </g>
     <g id="line2d_41">
      <g>
       <use xlink:href="#m60302849d1" x="151.564399" y="345.795769" style="stroke: #000000; stroke-width: 0.8"/>
      </g>
     </g>
     <g id="text_17">
      <!-- 500 -->
      <g transform="translate(142.020649 360.394206) scale(0.1 -0.1)">
       <use xlink:href="#DejaVuSans-35"/>
       <use xlink:href="#DejaVuSans-30" transform="translate(63.623047 0)"/>
       <use xlink:href="#DejaVuSans-30" transform="translate(127.246094 0)"/>
      </g>
     </g>
    </g>
    <g id="xtick_9">
     <g id="line2d_42">
      <path d="M 231.818924 345.795769 
L 231.818924 184.925769 
" clip-path="url(#p403c3f7ee0)" style="fill: none; stroke: #b0b0b0; stroke-opacity: 0.25; stroke-width: 0.5; stroke-linecap: square"/>
     </g>
     <g id="line2d_43">
      <g>
       <use xlink:href="#m60302849d1" x="231.818924" y="345.795769" style="stroke: #000000; stroke-width: 0.8"/>
      </g>
     </g>
     <g id="text_18">
      <!-- 1000 -->
      <g transform="translate(219.093924 360.394206) scale(0.1 -0.1)">
       <use xlink:href="#DejaVuSans-31"/>
       <use xlink:href="#DejaVuSans-30" transform="translate(63.623047 0)"/>
       <use xlink:href="#DejaVuSans-30" transform="translate(127.246094 0)"/>
       <use xlink:href="#DejaVuSans-30" transform="translate(190.869141 0)"/>
      </g>
     </g>
    </g>
    <g id="xtick_10">
     <g id="line2d_44">
      <path d="M 312.073448 345.795769 
L 312.073448 184.925769 
" clip-path="url(#p403c3f7ee0)" style="fill: none; stroke: #b0b0b0; stroke-opacity: 0.25; stroke-width: 0.5; stroke-linecap: square"/>
     </g>
     <g id="line2d_45">
      <g>
       <use xlink:href="#m60302849d1" x="312.073448" y="345.795769" style="stroke: #000000; stroke-width: 0.8"/>
      </g>
     </g>
     <g id="text_19">
      <!-- 1500 -->
      <g transform="translate(299.348448 360.394206) scale(0.1 -0.1)">
       <use xlink:href="#DejaVuSans-31"/>
       <use xlink:href="#DejaVuSans-35" transform="translate(63.623047 0)"/>
       <use xlink:href="#DejaVuSans-30" transform="translate(127.246094 0)"/>
       <use xlink:href="#DejaVuSans-30" transform="translate(190.869141 0)"/>
      </g>
     </g>
    </g>
    <g id="xtick_11">
     <g id="line2d_46">
      <path d="M 392.327973 345.795769 
L 392.327973 184.925769 
" clip-path="url(#p403c3f7ee0)" style="fill: none; stroke: #b0b0b0; stroke-opacity: 0.25; stroke-width: 0.5; stroke-linecap: square"/>
     </g>
     <g id="line2d_47">
      <g>
       <use xlink:href="#m60302849d1" x="392.327973" y="345.795769" style="stroke: #000000; stroke-width: 0.8"/>
      </g>
     </g>
     <g id="text_20">
      <!-- 2000 -->
      <g transform="translate(379.602973 360.394206) scale(0.1 -0.1)">
       <use xlink:href="#DejaVuSans-32"/>
       <use xlink:href="#DejaVuSans-30" transform="translate(63.623047 0)"/>
       <use xlink:href="#DejaVuSans-30" transform="translate(127.246094 0)"/>
       <use xlink:href="#DejaVuSans-30" transform="translate(190.869141 0)"/>
      </g>
     </g>
    </g>
    <g id="xtick_12">
     <g id="line2d_48">
      <path d="M 472.582497 345.795769 
L 472.582497 184.925769 
" clip-path="url(#p403c3f7ee0)" style="fill: none; stroke: #b0b0b0; stroke-opacity: 0.25; stroke-width: 0.5; stroke-linecap: square"/>
     </g>
     <g id="line2d_49">
      <g>
       <use xlink:href="#m60302849d1" x="472.582497" y="345.795769" style="stroke: #000000; stroke-width: 0.8"/>
      </g>
     </g>
     <g id="text_21">
      <!-- 2500 -->
      <g transform="translate(459.857497 360.394206) scale(0.1 -0.1)">
       <use xlink:href="#DejaVuSans-32"/>
       <use xlink:href="#DejaVuSans-35" transform="translate(63.623047 0)"/>
       <use xlink:href="#DejaVuSans-30" transform="translate(127.246094 0)"/>
       <use xlink:href="#DejaVuSans-30" transform="translate(190.869141 0)"/>
      </g>
     </g>
    </g>
    <g id="text_22">
     <!-- cumulative training step -->
     <g transform="translate(207.01563 374.072331) scale(0.1 -0.1)">
      <defs>
       <path id="DejaVuSans-75" d="M 544 1381 
L 544 3500 
L 1119 3500 
L 1119 1403 
Q 1119 906 1312 657 
Q 1506 409 1894 409 
Q 2359 409 2629 706 
Q 2900 1003 2900 1516 
L 2900 3500 
L 3475 3500 
L 3475 0 
L 2900 0 
L 2900 538 
Q 2691 219 2414 64 
Q 2138 -91 1772 -91 
Q 1169 -91 856 284 
Q 544 659 544 1381 
z
M 1991 3584 
L 1991 3584 
z
" transform="scale(0.015625)"/>
       <path id="DejaVuSans-6d" d="M 3328 2828 
Q 3544 3216 3844 3400 
Q 4144 3584 4550 3584 
Q 5097 3584 5394 3201 
Q 5691 2819 5691 2113 
L 5691 0 
L 5113 0 
L 5113 2094 
Q 5113 2597 4934 2840 
Q 4756 3084 4391 3084 
Q 3944 3084 3684 2787 
Q 3425 2491 3425 1978 
L 3425 0 
L 2847 0 
L 2847 2094 
Q 2847 2600 2669 2842 
Q 2491 3084 2119 3084 
Q 1678 3084 1418 2786 
Q 1159 2488 1159 1978 
L 1159 0 
L 581 0 
L 581 3500 
L 1159 3500 
L 1159 2956 
Q 1356 3278 1631 3431 
Q 1906 3584 2284 3584 
Q 2666 3584 2933 3390 
Q 3200 3197 3328 2828 
z
" transform="scale(0.015625)"/>
       <path id="DejaVuSans-61" d="M 2194 1759 
Q 1497 1759 1228 1600 
Q 959 1441 959 1056 
Q 959 750 1161 570 
Q 1363 391 1709 391 
Q 2188 391 2477 730 
Q 2766 1069 2766 1631 
L 2766 1759 
L 2194 1759 
z
M 3341 1997 
L 3341 0 
L 2766 0 
L 2766 531 
Q 2569 213 2275 61 
Q 1981 -91 1556 -91 
Q 1019 -91 701 211 
Q 384 513 384 1019 
Q 384 1609 779 1909 
Q 1175 2209 1959 2209 
L 2766 2209 
L 2766 2266 
Q 2766 2663 2505 2880 
Q 2244 3097 1772 3097 
Q 1472 3097 1187 3025 
Q 903 2953 641 2809 
L 641 3341 
Q 956 3463 1253 3523 
Q 1550 3584 1831 3584 
Q 2591 3584 2966 3190 
Q 3341 2797 3341 1997 
z
" transform="scale(0.015625)"/>
       <path id="DejaVuSans-76" d="M 191 3500 
L 800 3500 
L 1894 563 
L 2988 3500 
L 3597 3500 
L 2284 0 
L 1503 0 
L 191 3500 
z
" transform="scale(0.015625)"/>
       <path id="DejaVuSans-6e" d="M 3513 2113 
L 3513 0 
L 2938 0 
L 2938 2094 
Q 2938 2591 2744 2837 
Q 2550 3084 2163 3084 
Q 1697 3084 1428 2787 
Q 1159 2491 1159 1978 
L 1159 0 
L 581 0 
L 581 3500 
L 1159 3500 
L 1159 2956 
Q 1366 3272 1645 3428 
Q 1925 3584 2291 3584 
Q 2894 3584 3203 3211 
Q 3513 2838 3513 2113 
z
" transform="scale(0.015625)"/>
      </defs>
      <use xlink:href="#DejaVuSans-63"/>
      <use xlink:href="#DejaVuSans-75" transform="translate(54.980469 0)"/>
      <use xlink:href="#DejaVuSans-6d" transform="translate(118.359375 0)"/>
      <use xlink:href="#DejaVuSans-75" transform="translate(215.771484 0)"/>
      <use xlink:href="#DejaVuSans-6c" transform="translate(279.150391 0)"/>
      <use xlink:href="#DejaVuSans-61" transform="translate(306.933594 0)"/>
      <use xlink:href="#DejaVuSans-74" transform="translate(368.212891 0)"/>
      <use xlink:href="#DejaVuSans-69" transform="translate(407.421875 0)"/>
      <use xlink:href="#DejaVuSans-76" transform="translate(435.205078 0)"/>
      <use xlink:href="#DejaVuSans-65" transform="translate(494.384766 0)"/>
      <use xlink:href="#DejaVuSans-20" transform="translate(555.908203 0)"/>
      <use xlink:href="#DejaVuSans-74" transform="translate(587.695312 0)"/>
      <use xlink:href="#DejaVuSans-72" transform="translate(626.904297 0)"/>
      <use xlink:href="#DejaVuSans-61" transform="translate(668.017578 0)"/>
      <use xlink:href="#DejaVuSans-69" transform="translate(729.296875 0)"/>
      <use xlink:href="#DejaVuSans-6e" transform="translate(757.080078 0)"/>
      <use xlink:href="#DejaVuSans-69" transform="translate(820.458984 0)"/>
      <use xlink:href="#DejaVuSans-6e" transform="translate(848.242188 0)"/>
      <use xlink:href="#DejaVuSans-67" transform="translate(911.621094 0)"/>
      <use xlink:href="#DejaVuSans-20" transform="translate(975.097656 0)"/>
      <use xlink:href="#DejaVuSans-73" transform="translate(1006.884766 0)"/>
      <use xlink:href="#DejaVuSans-74" transform="translate(1058.984375 0)"/>
      <use xlink:href="#DejaVuSans-65" transform="translate(1098.193359 0)"/>
      <use xlink:href="#DejaVuSans-70" transform="translate(1159.716797 0)"/>
     </g>
    </g>
   </g>
   <g id="matplotlib.axis_4">
    <g id="ytick_9">
     <g id="line2d_50">
      <path d="M 51.8 332.188121 
L 484.548447 332.188121 
" clip-path="url(#p403c3f7ee0)" style="fill: none; stroke: #b0b0b0; stroke-opacity: 0.25; stroke-width: 0.5; stroke-linecap: square"/>
     </g>
     <g id="line2d_51">
      <g>
       <use xlink:href="#m58af5b5320" x="51.8" y="332.188121" style="stroke: #000000; stroke-width: 0.8"/>
      </g>
     </g>
     <g id="text_23">
      <!-- $\mathdefault{10^{-2}}$ -->
      <g transform="translate(21.3 335.98734) scale(0.1 -0.1)">
       <defs>
        <path id="DejaVuSans-2212" d="M 678 2272 
L 4684 2272 
L 4684 1741 
L 678 1741 
L 678 2272 
z
" transform="scale(0.015625)"/>
       </defs>
       <use xlink:href="#DejaVuSans-31" transform="translate(0 0.765625)"/>
       <use xlink:href="#DejaVuSans-30" transform="translate(63.623047 0.765625)"/>
       <use xlink:href="#DejaVuSans-2212" transform="translate(128.203125 39.046875) scale(0.7)"/>
       <use xlink:href="#DejaVuSans-32" transform="translate(186.855469 39.046875) scale(0.7)"/>
      </g>
     </g>
    </g>
    <g id="ytick_10">
     <g id="line2d_52">
      <path d="M 51.8 289.029355 
L 484.548447 289.029355 
" clip-path="url(#p403c3f7ee0)" style="fill: none; stroke: #b0b0b0; stroke-opacity: 0.25; stroke-width: 0.5; stroke-linecap: square"/>
     </g>
     <g id="line2d_53">
      <g>
       <use xlink:href="#m58af5b5320" x="51.8" y="289.029355" style="stroke: #000000; stroke-width: 0.8"/>
      </g>
     </g>
     <g id="text_24">
      <!-- $\mathdefault{10^{-1}}$ -->
      <g transform="translate(21.3 292.828574) scale(0.1 -0.1)">
       <use xlink:href="#DejaVuSans-31" transform="translate(0 0.684375)"/>
       <use xlink:href="#DejaVuSans-30" transform="translate(63.623047 0.684375)"/>
       <use xlink:href="#DejaVuSans-2212" transform="translate(128.203125 38.965625) scale(0.7)"/>
       <use xlink:href="#DejaVuSans-31" transform="translate(186.855469 38.965625) scale(0.7)"/>
      </g>
     </g>
    </g>
    <g id="ytick_11">
     <g id="line2d_54">
      <path d="M 51.8 245.870588 
L 484.548447 245.870588 
" clip-path="url(#p403c3f7ee0)" style="fill: none; stroke: #b0b0b0; stroke-opacity: 0.25; stroke-width: 0.5; stroke-linecap: square"/>
     </g>
     <g id="line2d_55">
      <g>
       <use xlink:href="#m58af5b5320" x="51.8" y="245.870588" style="stroke: #000000; stroke-width: 0.8"/>
      </g>
     </g>
     <g id="text_25">
      <!-- $\mathdefault{10^{0}}$ -->
      <g transform="translate(27.2 249.669807) scale(0.1 -0.1)">
       <use xlink:href="#DejaVuSans-31" transform="translate(0 0.765625)"/>
       <use xlink:href="#DejaVuSans-30" transform="translate(63.623047 0.765625)"/>
       <use xlink:href="#DejaVuSans-30" transform="translate(128.203125 39.046875) scale(0.7)"/>
      </g>
     </g>
    </g>
    <g id="ytick_12">
     <g id="line2d_56">
      <path d="M 51.8 202.711822 
L 484.548447 202.711822 
" clip-path="url(#p403c3f7ee0)" style="fill: none; stroke: #b0b0b0; stroke-opacity: 0.25; stroke-width: 0.5; stroke-linecap: square"/>
     </g>
     <g id="line2d_57">
      <g>
       <use xlink:href="#m58af5b5320" x="51.8" y="202.711822" style="stroke: #000000; stroke-width: 0.8"/>
      </g>
     </g>
     <g id="text_26">
      <!-- $\mathdefault{10^{1}}$ -->
      <g transform="translate(27.2 206.511041) scale(0.1 -0.1)">
       <use xlink:href="#DejaVuSans-31" transform="translate(0 0.684375)"/>
       <use xlink:href="#DejaVuSans-30" transform="translate(63.623047 0.684375)"/>
       <use xlink:href="#DejaVuSans-31" transform="translate(128.203125 38.965625) scale(0.7)"/>
      </g>
     </g>
    </g>
    <g id="ytick_13">
     <g id="line2d_58">
      <defs>
       <path id="m425c5d3be6" d="M 0 0 
L -2 0 
" style="stroke: #000000; stroke-width: 0.6"/>
      </defs>
      <g>
       <use xlink:href="#m425c5d3be6" x="51.8" y="345.180204" style="stroke: #000000; stroke-width: 0.6"/>
      </g>
     </g>
    </g>
    <g id="ytick_14">
     <g id="line2d_59">
      <g>
       <use xlink:href="#m425c5d3be6" x="51.8" y="341.762839" style="stroke: #000000; stroke-width: 0.6"/>
      </g>
     </g>
    </g>
    <g id="ytick_15">
     <g id="line2d_60">
      <g>
       <use xlink:href="#m425c5d3be6" x="51.8" y="338.873499" style="stroke: #000000; stroke-width: 0.6"/>
      </g>
     </g>
    </g>
    <g id="ytick_16">
     <g id="line2d_61">
      <g>
       <use xlink:href="#m425c5d3be6" x="51.8" y="336.370638" style="stroke: #000000; stroke-width: 0.6"/>
      </g>
     </g>
    </g>
    <g id="ytick_17">
     <g id="line2d_62">
      <g>
       <use xlink:href="#m425c5d3be6" x="51.8" y="334.162958" style="stroke: #000000; stroke-width: 0.6"/>
      </g>
     </g>
    </g>
    <g id="ytick_18">
     <g id="line2d_63">
      <g>
       <use xlink:href="#m425c5d3be6" x="51.8" y="319.196038" style="stroke: #000000; stroke-width: 0.6"/>
      </g>
     </g>
    </g>
    <g id="ytick_19">
     <g id="line2d_64">
      <g>
       <use xlink:href="#m425c5d3be6" x="51.8" y="311.596156" style="stroke: #000000; stroke-width: 0.6"/>
      </g>
     </g>
    </g>
    <g id="ytick_20">
     <g id="line2d_65">
      <g>
       <use xlink:href="#m425c5d3be6" x="51.8" y="306.203955" style="stroke: #000000; stroke-width: 0.6"/>
      </g>
     </g>
    </g>
    <g id="ytick_21">
     <g id="line2d_66">
      <g>
       <use xlink:href="#m425c5d3be6" x="51.8" y="302.021438" style="stroke: #000000; stroke-width: 0.6"/>
      </g>
     </g>
    </g>
    <g id="ytick_22">
     <g id="line2d_67">
      <g>
       <use xlink:href="#m425c5d3be6" x="51.8" y="298.604073" style="stroke: #000000; stroke-width: 0.6"/>
      </g>
     </g>
    </g>
    <g id="ytick_23">
     <g id="line2d_68">
      <g>
       <use xlink:href="#m425c5d3be6" x="51.8" y="295.714732" style="stroke: #000000; stroke-width: 0.6"/>
      </g>
     </g>
    </g>
    <g id="ytick_24">
     <g id="line2d_69">
      <g>
       <use xlink:href="#m425c5d3be6" x="51.8" y="293.211871" style="stroke: #000000; stroke-width: 0.6"/>
      </g>
     </g>
    </g>
    <g id="ytick_25">
     <g id="line2d_70">
      <g>
       <use xlink:href="#m425c5d3be6" x="51.8" y="291.004192" style="stroke: #000000; stroke-width: 0.6"/>
      </g>
     </g>
    </g>
    <g id="ytick_26">
     <g id="line2d_71">
      <g>
       <use xlink:href="#m425c5d3be6" x="51.8" y="276.037272" style="stroke: #000000; stroke-width: 0.6"/>
      </g>
     </g>
    </g>
    <g id="ytick_27">
     <g id="line2d_72">
      <g>
       <use xlink:href="#m425c5d3be6" x="51.8" y="268.43739" style="stroke: #000000; stroke-width: 0.6"/>
      </g>
     </g>
    </g>
    <g id="ytick_28">
     <g id="line2d_73">
      <g>
       <use xlink:href="#m425c5d3be6" x="51.8" y="263.045188" style="stroke: #000000; stroke-width: 0.6"/>
      </g>
     </g>
    </g>
    <g id="ytick_29">
     <g id="line2d_74">
      <g>
       <use xlink:href="#m425c5d3be6" x="51.8" y="258.862672" style="stroke: #000000; stroke-width: 0.6"/>
      </g>
     </g>
    </g>
    <g id="ytick_30">
     <g id="line2d_75">
      <g>
       <use xlink:href="#m425c5d3be6" x="51.8" y="255.445307" style="stroke: #000000; stroke-width: 0.6"/>
      </g>
     </g>
    </g>
    <g id="ytick_31">
     <g id="line2d_76">
      <g>
       <use xlink:href="#m425c5d3be6" x="51.8" y="252.555966" style="stroke: #000000; stroke-width: 0.6"/>
      </g>
     </g>
    </g>
    <g id="ytick_32">
     <g id="line2d_77">
      <g>
       <use xlink:href="#m425c5d3be6" x="51.8" y="250.053105" style="stroke: #000000; stroke-width: 0.6"/>
      </g>
     </g>
    </g>
    <g id="ytick_33">
     <g id="line2d_78">
      <g>
       <use xlink:href="#m425c5d3be6" x="51.8" y="247.845425" style="stroke: #000000; stroke-width: 0.6"/>
      </g>
     </g>
    </g>
    <g id="ytick_34">
     <g id="line2d_79">
      <g>
       <use xlink:href="#m425c5d3be6" x="51.8" y="232.878505" style="stroke: #000000; stroke-width: 0.6"/>
      </g>
     </g>
    </g>
    <g id="ytick_35">
     <g id="line2d_80">
      <g>
       <use xlink:href="#m425c5d3be6" x="51.8" y="225.278624" style="stroke: #000000; stroke-width: 0.6"/>
      </g>
     </g>
    </g>
    <g id="ytick_36">
     <g id="line2d_81">
      <g>
       <use xlink:href="#m425c5d3be6" x="51.8" y="219.886422" style="stroke: #000000; stroke-width: 0.6"/>
      </g>
     </g>
    </g>
    <g id="ytick_37">
     <g id="line2d_82">
      <g>
       <use xlink:href="#m425c5d3be6" x="51.8" y="215.703905" style="stroke: #000000; stroke-width: 0.6"/>
      </g>
     </g>
    </g>
    <g id="ytick_38">
     <g id="line2d_83">
      <g>
       <use xlink:href="#m425c5d3be6" x="51.8" y="212.28654" style="stroke: #000000; stroke-width: 0.6"/>
      </g>
     </g>
    </g>
    <g id="ytick_39">
     <g id="line2d_84">
      <g>
       <use xlink:href="#m425c5d3be6" x="51.8" y="209.3972" style="stroke: #000000; stroke-width: 0.6"/>
      </g>
     </g>
    </g>
    <g id="ytick_40">
     <g id="line2d_85">
      <g>
       <use xlink:href="#m425c5d3be6" x="51.8" y="206.894339" style="stroke: #000000; stroke-width: 0.6"/>
      </g>
     </g>
    </g>
    <g id="ytick_41">
     <g id="line2d_86">
      <g>
       <use xlink:href="#m425c5d3be6" x="51.8" y="204.686659" style="stroke: #000000; stroke-width: 0.6"/>
      </g>
     </g>
    </g>
    <g id="ytick_42">
     <g id="line2d_87">
      <g>
       <use xlink:href="#m425c5d3be6" x="51.8" y="189.719739" style="stroke: #000000; stroke-width: 0.6"/>
      </g>
     </g>
    </g>
    <g id="text_27">
     <!-- grad norm  $\|g\|$ -->
     <g transform="translate(14.9 302.960769) rotate(-90) scale(0.1 -0.1)">
      <defs>
       <path id="DejaVuSans-2016" d="M 1344 4891 
L 1344 -1509 
L 813 -1509 
L 813 4891 
L 1344 4891 
z
M 2376 4891 
L 2376 -1509 
L 1845 -1509 
L 1845 4891 
L 2376 4891 
z
" transform="scale(0.015625)"/>
       <path id="DejaVuSans-Oblique-67" d="M 3816 3500 
L 3219 434 
Q 3047 -456 2561 -893 
Q 2075 -1331 1253 -1331 
Q 950 -1331 690 -1286 
Q 431 -1241 206 -1147 
L 313 -588 
Q 525 -725 762 -790 
Q 1000 -856 1269 -856 
Q 1816 -856 2167 -557 
Q 2519 -259 2631 300 
L 2681 563 
Q 2441 288 2122 144 
Q 1803 0 1434 0 
Q 903 0 598 351 
Q 294 703 294 1319 
Q 294 1803 478 2267 
Q 663 2731 997 3091 
Q 1219 3328 1514 3456 
Q 1809 3584 2131 3584 
Q 2484 3584 2746 3420 
Q 3009 3256 3138 2956 
L 3238 3500 
L 3816 3500 
z
M 2950 2216 
Q 2950 2641 2750 2872 
Q 2550 3103 2181 3103 
Q 1953 3103 1747 3012 
Q 1541 2922 1394 2759 
Q 1156 2491 1023 2127 
Q 891 1763 891 1375 
Q 891 944 1092 712 
Q 1294 481 1672 481 
Q 2219 481 2584 976 
Q 2950 1472 2950 2216 
z
" transform="scale(0.015625)"/>
      </defs>
      <use xlink:href="#DejaVuSans-67" transform="translate(0 0.578125)"/>
      <use xlink:href="#DejaVuSans-72" transform="translate(63.476562 0.578125)"/>
      <use xlink:href="#DejaVuSans-61" transform="translate(104.589844 0.578125)"/>
      <use xlink:href="#DejaVuSans-64" transform="translate(165.869141 0.578125)"/>
      <use xlink:href="#DejaVuSans-20" transform="translate(229.345703 0.578125)"/>
      <use xlink:href="#DejaVuSans-6e" transform="translate(261.132812 0.578125)"/>
      <use xlink:href="#DejaVuSans-6f" transform="translate(324.511719 0.578125)"/>
      <use xlink:href="#DejaVuSans-72" transform="translate(385.693359 0.578125)"/>
      <use xlink:href="#DejaVuSans-6d" transform="translate(426.806641 0.578125)"/>
      <use xlink:href="#DejaVuSans-20" transform="translate(524.21875 0.578125)"/>
      <use xlink:href="#DejaVuSans-20" transform="translate(556.005859 0.578125)"/>
      <use xlink:href="#DejaVuSans-2016" transform="translate(587.792969 0.578125)"/>
      <use xlink:href="#DejaVuSans-Oblique-67" transform="translate(637.792969 0.578125)"/>
      <use xlink:href="#DejaVuSans-2016" transform="translate(701.269531 0.578125)"/>
     </g>
    </g>
   </g>
   <g id="line2d_88">
    <path d="M 71.470384 197.530079 
L 75.162092 197.530079 
L 75.322601 198.019845 
L 79.174818 198.019845 
L 79.335327 202.287354 
L 83.187545 202.287354 
L 83.348054 211.087705 
L 87.200271 211.087705 
L 87.36078 224.198011 
L 91.212997 224.198011 
L 91.373506 242.904338 
L 95.225723 242.904338 
L 95.386232 267.977139 
L 99.07794 267.977139 
L 99.238449 192.586303 
L 102.930158 192.586303 
L 103.090667 210.042686 
L 106.942884 210.042686 
L 107.103393 236.469911 
L 110.95561 236.469911 
L 111.116119 265.473608 
L 112.72121 265.473608 
L 112.881719 246.481223 
L 116.573427 246.481223 
L 116.733936 219.552295 
L 120.586153 219.552295 
L 120.746662 230.007454 
L 124.598879 230.007454 
L 124.759388 254.092066 
L 128.611605 254.092066 
L 128.772114 293.149956 
L 129.735169 293.149956 
L 129.895678 246.596354 
L 133.587386 246.596354 
L 133.747895 266.770885 
L 137.600112 266.770885 
L 137.760621 285.709362 
L 140.970802 285.709362 
L 141.131311 215.669458 
L 144.823019 215.669458 
L 144.983528 225.556092 
L 148.835746 225.556092 
L 148.996255 241.284805 
L 152.848472 241.284805 
L 153.008981 263.405543 
L 155.416617 263.405543 
L 155.577126 242.596802 
L 159.268834 242.596802 
L 159.429343 271.621881 
L 160.231888 271.621881 
L 160.392397 227.530754 
L 164.084105 227.530754 
L 164.244614 262.966345 
L 168.096831 262.966345 
L 168.25734 277.21028 
L 170.985994 277.21028 
L 171.146503 237.007267 
L 174.838211 237.007267 
L 174.998721 269.779945 
L 178.850938 269.779945 
L 179.011447 238.075538 
L 182.542646 238.075538 
L 182.703155 236.762842 
L 186.394863 236.762842 
L 186.555372 264.682417 
L 190.086571 264.682417 
L 190.24708 235.577628 
L 193.938788 235.577628 
L 194.099297 284.369018 
L 197.951515 284.369018 
L 198.112024 297.12174 
L 198.272533 233.506605 
L 201.964241 233.506605 
L 202.12475 267.275916 
L 203.408822 267.275916 
L 203.569331 216.835897 
L 207.261039 216.835897 
L 207.421548 256.271438 
L 211.273766 256.271438 
L 211.434275 279.804178 
L 214.323437 279.804178 
L 214.483947 231.722956 
L 218.175655 231.722956 
L 218.336164 261.918782 
L 222.188381 261.918782 
L 222.34889 285.195485 
L 222.509399 232.180624 
L 226.201107 232.180624 
L 226.361616 266.567656 
L 229.571797 266.567656 
L 229.732306 232.143196 
L 233.424014 232.143196 
L 233.584523 273.638797 
L 237.436741 273.638797 
L 237.59725 283.18843 
L 239.523358 283.18843 
L 239.683867 225.935671 
L 243.375575 225.935671 
L 243.536084 237.340685 
L 247.388302 237.340685 
L 247.548811 224.720786 
L 251.401028 224.720786 
L 251.561537 250.188855 
L 255.413754 250.188855 
L 255.574263 289.599827 
L 259.42648 289.599827 
L 259.586989 293.102889 
L 261.994625 293.102889 
L 262.155134 230.348739 
L 265.846842 230.348739 
L 266.007351 278.24515 
L 269.859568 278.24515 
L 270.020077 288.797629 
L 271.30415 288.797629 
L 271.464659 226.780229 
L 275.156367 226.780229 
L 275.316876 253.743709 
L 278.687566 253.743709 
L 278.848075 227.189058 
L 282.539783 227.189058 
L 282.700292 265.679752 
L 286.55251 265.679752 
L 286.713019 279.606227 
L 287.355055 279.606227 
L 287.515564 201.13125 
L 291.207272 201.13125 
L 291.367781 233.100707 
L 295.219998 233.100707 
L 295.380507 237.16424 
L 299.232724 237.16424 
L 299.393233 255.46998 
L 301.479851 255.46998 
L 301.64036 228.504017 
L 305.332068 228.504017 
L 305.492577 259.617521 
L 309.344794 259.617521 
L 309.505304 279.08864 
L 309.986831 279.08864 
L 310.14734 228.455899 
L 313.839048 228.455899 
L 313.999557 255.833514 
L 317.851774 255.833514 
L 318.012283 278.647317 
L 318.172792 225.247132 
L 321.8645 225.247132 
L 322.025009 255.821922 
L 325.877226 255.821922 
L 326.037736 274.992261 
L 327.321808 274.992261 
L 327.482317 224.35861 
L 331.174025 224.35861 
L 331.334534 250.960409 
L 333.581661 250.960409 
L 333.74217 212.341606 
L 337.433878 212.341606 
L 337.594387 218.88804 
L 341.446604 218.88804 
L 341.607113 239.354185 
L 345.45933 239.354185 
L 345.61984 259.897633 
L 347.064421 259.897633 
L 347.22493 223.837439 
L 350.916638 223.837439 
L 351.077147 252.789195 
L 353.003256 252.789195 
L 353.163765 225.400279 
L 356.855473 225.400279 
L 357.015982 260.80834 
L 359.905145 260.80834 
L 360.065654 226.532492 
L 363.757362 226.532492 
L 363.917871 265.587284 
L 366.646525 265.587284 
L 366.807034 223.238064 
L 370.498742 223.238064 
L 370.659251 255.893771 
L 374.511468 255.893771 
L 374.671977 276.722182 
L 374.671977 276.722182 
" clip-path="url(#p403c3f7ee0)" style="fill: none; stroke: #0072b2; stroke-width: 1.4; stroke-linecap: square"/>
   </g>
   <g id="line2d_89">
    <path d="M 374.671977 276.722182 
" clip-path="url(#p403c3f7ee0)" style="fill: none; stroke: #0072b2; stroke-width: 1.5; stroke-linecap: square"/>
    <g clip-path="url(#p403c3f7ee0)">
     <use xlink:href="#mf398168d89" x="374.671977" y="276.722182" style="fill: #0072b2; stroke: #0072b2"/>
    </g>
   </g>
   <g id="line2d_90">
    <path d="M 71.470384 197.530079 
L 75.162092 197.530079 
L 75.322601 198.019845 
L 79.174818 198.019845 
L 79.335327 202.287354 
L 83.187545 202.287354 
L 83.348054 211.087705 
L 87.200271 211.087705 
L 87.36078 224.198011 
L 91.212997 224.198011 
L 91.373506 242.904338 
L 95.225723 242.904338 
L 95.386232 267.977139 
L 99.07794 267.977139 
L 99.238449 272.042243 
L 102.930158 272.042243 
L 103.090667 294.535429 
L 106.942884 294.535429 
L 107.103393 325.461387 
L 110.95561 325.461387 
L 111.116119 334.948171 
L 114.968336 334.948171 
L 115.128845 331.570132 
L 118.981062 331.570132 
L 119.141571 331.956453 
L 122.993789 331.956453 
L 123.154298 324.257359 
L 127.006515 324.257359 
L 127.167024 321.979956 
L 131.019241 321.979956 
L 131.17975 322.205749 
L 135.031967 322.205749 
L 135.192476 332.317253 
L 139.044694 332.317253 
L 139.205203 338.483496 
L 141.773347 338.483496 
L 141.933856 258.558056 
L 145.625565 258.558056 
L 145.786074 268.172888 
L 149.638291 268.172888 
L 149.7988 257.568938 
L 153.651017 257.568938 
L 153.811526 259.039733 
L 157.663743 259.039733 
L 157.824252 270.476244 
L 161.676469 270.476244 
L 161.836978 288.069564 
L 165.689196 288.069564 
L 165.849705 306.219313 
L 169.701922 306.219313 
L 169.862431 321.160943 
L 170.343958 321.160943 
L 170.504467 256.502699 
L 174.196175 256.502699 
L 174.356684 287.496744 
L 176.122284 287.496744 
L 176.282793 251.214393 
L 179.974501 251.214393 
L 180.13501 284.258272 
L 183.987227 284.258272 
L 184.147736 302.95033 
L 187.999953 302.95033 
L 188.160463 323.153042 
L 188.64199 323.153042 
L 188.802499 229.820792 
L 192.494207 229.820792 
L 192.654716 214.070897 
L 196.506933 214.070897 
L 196.667442 233.548058 
L 200.519659 233.548058 
L 200.680168 263.144742 
L 204.532386 263.144742 
L 204.692895 297.127853 
L 205.334931 297.127853 
L 205.49544 245.153866 
L 209.187148 245.153866 
L 209.347657 277.482757 
L 213.199874 277.482757 
L 213.360383 296.922826 
L 213.520892 248.26282 
L 217.2126 248.26282 
L 217.373109 275.133494 
L 221.225327 275.133494 
L 221.385836 289.669388 
L 225.238053 289.669388 
L 225.398562 295.427541 
L 227.32467 295.427541 
L 227.48518 238.206969 
L 231.176888 238.206969 
L 231.337397 264.866322 
L 232.781978 264.866322 
L 232.942487 239.474175 
L 236.634195 239.474175 
L 236.794704 272.64355 
L 240.646922 272.64355 
L 240.807431 293.448595 
L 241.128449 293.448595 
L 241.288958 239.040368 
L 244.980666 239.040368 
L 245.141175 283.209092 
L 248.993392 283.209092 
L 249.153901 236.264345 
L 252.845609 236.264345 
L 253.006118 268.164925 
L 256.858335 268.164925 
L 257.018845 280.810554 
L 260.871062 280.810554 
L 261.031571 296.004192 
L 262.155134 296.004192 
L 262.315643 229.001974 
L 266.007351 229.001974 
L 266.16786 260.91296 
L 270.020077 260.91296 
L 270.180587 277.238398 
L 274.032804 277.238398 
L 274.193313 300.450551 
L 278.04553 300.450551 
L 278.206039 317.810663 
L 282.058256 317.810663 
L 282.218765 323.793565 
L 285.428946 323.793565 
L 285.589455 239.426288 
L 289.281163 239.426288 
L 289.441672 274.130581 
L 293.29389 274.130581 
L 293.454399 290.252065 
L 295.701525 290.252065 
L 295.862034 201.768591 
L 299.553742 201.768591 
L 299.714252 235.427879 
L 303.566469 235.427879 
L 303.726978 239.059434 
L 307.579195 239.059434 
L 307.739704 262.774638 
L 307.900213 196.644561 
L 311.591921 196.644561 
L 311.75243 212.290998 
L 315.604647 212.290998 
L 315.765156 237.545282 
L 319.617374 237.545282 
L 319.777883 267.263319 
L 321.061955 267.263319 
L 321.222464 231.708569 
L 322.346027 231.708569 
L 322.506536 237.29454 
L 326.198245 237.29454 
L 326.358754 267.631845 
L 330.210971 267.631845 
L 330.37148 291.462056 
L 330.692498 291.462056 
L 330.853007 229.696249 
L 334.544715 229.696249 
L 334.705224 245.663939 
L 338.557441 245.663939 
L 338.71795 268.680929 
L 342.570168 268.680929 
L 342.730677 303.139799 
L 343.372713 303.139799 
L 343.533222 231.53736 
L 347.22493 231.53736 
L 347.385439 263.225586 
L 351.237656 263.225586 
L 351.398165 289.351338 
L 351.558674 289.351338 
L 351.719183 219.311638 
L 355.410892 219.311638 
L 355.571401 230.977094 
L 359.423618 230.977094 
L 359.584127 248.782828 
L 363.436344 248.782828 
L 363.596853 276.333794 
L 367.44907 276.333794 
L 367.609579 309.271496 
L 370.017215 309.271496 
L 370.177724 227.255676 
L 373.869432 227.255676 
L 374.029941 253.244329 
L 377.882158 253.244329 
L 378.042667 281.392841 
L 381.894885 281.392841 
L 382.055394 304.794401 
L 382.215903 304.794401 
L 382.376412 226.883266 
L 386.06812 226.883266 
L 386.228629 255.553779 
L 389.920337 255.553779 
L 390.080846 228.308719 
L 393.772554 228.308719 
L 393.933063 259.428943 
L 397.78528 259.428943 
L 397.945789 281.820813 
L 399.711389 281.820813 
L 399.871898 226.803191 
L 403.563606 226.803191 
L 403.724115 256.552175 
L 407.576332 256.552175 
L 407.736841 284.895479 
L 408.05786 284.895479 
L 408.218369 225.462228 
L 411.910077 225.462228 
L 412.070586 257.453438 
L 415.120258 257.453438 
L 415.280767 224.278928 
L 418.972475 224.278928 
L 419.132984 256.05461 
L 422.985201 256.05461 
L 423.14571 273.66805 
L 424.91131 273.66805 
L 425.071819 221.123237 
L 428.763527 221.123237 
L 428.924036 219.440462 
L 432.776253 219.440462 
L 432.936762 235.258285 
L 436.788979 235.258285 
L 436.949488 264.791754 
L 440.641196 264.791754 
L 440.801706 228.100791 
L 444.493414 228.100791 
L 444.653923 252.593078 
L 448.50614 252.593078 
L 448.666649 214.315904 
L 452.358357 214.315904 
L 452.518866 230.01033 
L 456.371083 230.01033 
L 456.531592 268.057948 
L 460.38381 268.057948 
L 460.544319 290.725737 
L 464.396536 290.725737 
L 464.557045 313.812867 
L 464.878063 313.812867 
L 464.878063 313.812867 
" clip-path="url(#p403c3f7ee0)" style="fill: none; stroke-dasharray: 5.18,2.24; stroke-dashoffset: 0; stroke: #e69f00; stroke-width: 1.4"/>
   </g>
   <g id="line2d_91">
    <path d="M 464.878063 313.812867 
" clip-path="url(#p403c3f7ee0)" style="fill: none; stroke: #e69f00; stroke-width: 1.5; stroke-linecap: square"/>
    <g clip-path="url(#p403c3f7ee0)">
     <use xlink:href="#m7d2ecb704c" x="464.878063" y="313.812867" style="fill: #e69f00; stroke: #e69f00"/>
    </g>
   </g>
   <g id="line2d_92">
    <path d="M 71.470384 234.422147 
L 75.162092 234.422147 
L 75.322601 238.852549 
L 79.174818 238.852549 
L 79.335327 240.661018 
L 83.187545 240.661018 
L 83.348054 237.771567 
L 87.200271 237.771567 
L 87.36078 236.793749 
L 91.212997 236.793749 
L 91.373506 239.516155 
L 95.225723 239.516155 
L 95.386232 244.595315 
L 99.238449 244.595315 
L 99.398958 251.515677 
L 103.251176 251.515677 
L 103.411685 259.370961 
L 107.263902 259.370961 
L 107.424411 267.385412 
L 111.276628 267.385412 
L 111.437137 278.102972 
L 115.289354 278.102972 
L 115.449863 288.114566 
L 119.302081 288.114566 
L 119.46259 296.356471 
L 122.83328 296.356471 
L 122.993789 276.286965 
L 126.685497 276.286965 
L 126.846006 275.752375 
L 130.698223 275.752375 
L 130.858732 302.619998 
L 131.340259 302.619998 
L 131.500768 214.264295 
L 135.192476 214.264295 
L 135.352985 201.587363 
L 139.205203 201.587363 
L 139.365712 221.654695 
L 143.217929 221.654695 
L 143.378438 253.924163 
L 147.230655 253.924163 
L 147.391164 280.583305 
L 151.243381 280.583305 
L 151.40389 290.456548 
L 152.687963 290.456548 
L 152.848472 259.344724 
L 156.54018 259.344724 
L 156.700689 287.725548 
L 157.021707 287.725548 
L 157.182216 260.917643 
L 159.429343 260.917643 
L 159.589852 206.432854 
L 163.28156 206.432854 
L 163.442069 219.62924 
L 167.294286 219.62924 
L 167.454795 259.686313 
L 171.307012 259.686313 
L 171.467521 266.856063 
L 175.319739 266.856063 
L 175.480248 316.879344 
L 179.332465 316.879344 
L 179.492974 256.852287 
L 183.184682 256.852287 
L 183.345191 289.66172 
L 183.5057 289.66172 
L 183.666209 256.703713 
L 187.357917 256.703713 
L 187.518426 284.470498 
L 191.370643 284.470498 
L 191.531153 313.216338 
L 195.38337 313.216338 
L 195.543879 337.99176 
L 195.864897 337.99176 
L 196.025406 252.263579 
L 199.717114 252.263579 
L 199.877623 279.636737 
L 200.680168 279.636737 
L 200.840677 235.185905 
L 204.532386 235.185905 
L 204.692895 260.016267 
L 208.545112 260.016267 
L 208.705621 272.520581 
L 212.557838 272.520581 
L 212.718347 248.126122 
L 216.410055 248.126122 
L 216.570564 284.89666 
L 220.422781 284.89666 
L 220.58329 244.518648 
L 224.274999 244.518648 
L 224.435508 277.763601 
L 227.645689 277.763601 
L 227.806198 244.391616 
L 231.497906 244.391616 
L 231.658415 282.2281 
L 235.510632 282.2281 
L 235.671141 297.093298 
L 236.152668 297.093298 
L 236.313177 237.817855 
L 240.004885 237.817855 
L 240.165394 270.386849 
L 242.091503 270.386849 
L 242.252012 192.238041 
L 245.94372 192.238041 
L 246.104229 213.330488 
L 249.956446 213.330488 
L 250.116955 241.326521 
L 253.969173 241.326521 
L 254.129682 268.532614 
L 254.771718 268.532614 
L 254.932227 201.844822 
L 258.623935 201.844822 
L 258.784444 225.69136 
L 262.636661 225.69136 
L 262.79717 233.309096 
L 266.649387 233.309096 
L 266.809896 255.609126 
L 269.859568 255.609126 
L 270.020077 234.174005 
L 273.711786 234.174005 
L 273.872295 261.399873 
L 276.119421 261.399873 
L 276.27993 195.616139 
L 279.971639 195.616139 
L 280.132148 218.482654 
L 283.984365 218.482654 
L 284.144874 246.922369 
L 284.947419 246.922369 
L 285.107928 231.09913 
L 288.799636 231.09913 
L 288.960145 259.491706 
L 292.812362 259.491706 
L 292.972871 282.065438 
L 293.29389 282.065438 
L 293.454399 229.921422 
L 297.146107 229.921422 
L 297.306616 258.555088 
L 301.158833 258.555088 
L 301.319342 283.44734 
L 302.763923 283.44734 
L 302.924433 202.806166 
L 306.616141 202.806166 
L 306.77665 223.819291 
L 310.628867 223.819291 
L 310.789376 250.282349 
L 313.999557 250.282349 
L 314.160066 227.957269 
L 317.851774 227.957269 
L 318.012283 255.755941 
L 321.8645 255.755941 
L 322.025009 293.507566 
L 323.6301 293.507566 
L 323.790609 227.367742 
L 327.482317 227.367742 
L 327.642826 254.020488 
L 331.495043 254.020488 
L 331.655552 282.936907 
L 332.779116 282.936907 
L 332.939625 227.609609 
L 336.631333 227.609609 
L 336.791842 253.955504 
L 340.644059 253.955504 
L 340.804568 290.209459 
L 342.409659 290.209459 
L 342.570168 223.629177 
L 346.261876 223.629177 
L 346.422385 252.688081 
L 350.274602 252.688081 
L 350.435111 280.248087 
L 351.879692 280.248087 
L 352.040201 228.415416 
L 355.73191 228.415416 
L 355.892419 256.420424 
L 359.744636 256.420424 
L 359.905145 287.19167 
L 361.510235 287.19167 
L 361.670744 227.18828 
L 365.362453 227.18828 
L 365.522962 256.290423 
L 368.091106 256.290423 
L 368.251615 226.800319 
L 371.943324 226.800319 
L 372.103833 261.840605 
L 375.95605 261.840605 
L 376.116559 281.000596 
L 376.598086 281.000596 
L 376.758595 226.550341 
L 380.450303 226.550341 
L 380.610812 255.376478 
L 384.463029 255.376478 
L 384.623538 278.925838 
L 385.586593 278.925838 
L 385.747102 211.693706 
L 389.43881 211.693706 
L 389.599319 225.87035 
L 393.451536 225.87035 
L 393.612045 248.488835 
L 396.18019 248.488835 
L 396.18019 248.488835 
" clip-path="url(#p403c3f7ee0)" style="fill: none; stroke-dasharray: 8.96,2.24,1.4,2.24; stroke-dashoffset: 0; stroke: #009e73; stroke-width: 1.4"/>
   </g>
   <g id="line2d_93">
    <path d="M 396.18019 248.488835 
" clip-path="url(#p403c3f7ee0)" style="fill: none; stroke: #009e73; stroke-width: 1.5; stroke-linecap: square"/>
    <g clip-path="url(#p403c3f7ee0)">
     <use xlink:href="#md444699f12" x="396.18019" y="248.488835" style="fill: #009e73; stroke: #009e73"/>
    </g>
   </g>
   <g id="patch_8">
    <path d="M 51.8 345.795769 
L 51.8 184.925769 
" style="fill: none; stroke: #000000; stroke-width: 0.8; stroke-linejoin: miter; stroke-linecap: square"/>
   </g>
   <g id="patch_9">
    <path d="M 484.548447 345.795769 
L 484.548447 184.925769 
" style="fill: none; stroke: #000000; stroke-width: 0.8; stroke-linejoin: miter; stroke-linecap: square"/>
   </g>
   <g id="patch_10">
    <path d="M 51.8 345.795769 
L 484.548447 345.795769 
" style="fill: none; stroke: #000000; stroke-width: 0.8; stroke-linejoin: miter; stroke-linecap: square"/>
   </g>
   <g id="patch_11">
    <path d="M 51.8 184.925769 
L 484.548447 184.925769 
" style="fill: none; stroke: #000000; stroke-width: 0.8; stroke-linejoin: miter; stroke-linecap: square"/>
   </g>
  </g>
 </g>
 <defs>
  <clipPath id="pe9eb44da77">
   <rect x="51.8" y="9.755769" width="432.748447" height="160.87"/>
  </clipPath>
  <clipPath id="p403c3f7ee0">
   <rect x="51.8" y="184.925769" width="432.748447" height="160.87"/>
  </clipPath>
 </defs>
</svg>
