<?xml version="1.0" encoding="utf-8" standalone="no"?>
<!DOCTYPE svg PUBLIC "-//W3C//DTD SVG 1.1//EN"
  "http://www.w3.org/Graphics/SVG/1.1/DTD/svg11.dtd">
<svg xmlns:xlink="http://www.w3.org/1999/xlink" width="635.546873pt" height="396.802272pt" viewBox="0 0 635.546873 396.802272" xmlns="http://www.w3.org/2000/svg" version="1.1">
 <metadata>
  <rdf:RDF xmlns:dc="http://purl.org/dc/elements/1.1/" xmlns:cc="http://creativecommons.org/ns#" xmlns:rdf="http://www.w3.org/1999/02/22-rdf-syntax-ns#">
   <cc:Work>
    <dc:type rdf:resource="http://purl.org/dc/dcmitype/StillImage"/>
    <dc:date>2026-07-02T18:56:38.316916</dc:date>
    <dc:format>image/svg+xml</dc:format>
    <dc:creator>
     <cc:Agent>
      <dc:title>Matplotlib v3.10.9, https://matplotlib.org/</dc:title>
     </cc:Agent>
    </dc:creator>
   </cc:Work>
  </rdf:RDF>
 </metadata>
 <defs>
  <style type="text/css">*{stroke-linejoin: round; stroke-linecap: butt}</style>
 </defs>
 <g id="figure_1">
  <g id="patch_1">
   <path d="M 0 396.802272 
L 635.546873 396.802272 
L 635.546873 0 
L 0 0 
z
" style="fill: #ffffff"/>
  </g>
  <g id="axes_1">
   <g id="patch_2">
    <path d="M 64.525938 170.086022 
L 621.47921 170.086022 
L 621.47921 8.806022 
L 64.525938 8.806022 
z
" style="fill: #ffffff"/>
   </g>
   <g id="line2d_1">
    <path d="M 117.912514 170.086022 
L 117.912514 8.806022 
" clip-path="url(#pd054364757)" style="fill: none; stroke: #d9d9d9; stroke-width: 0.6; stroke-linecap: square"/>
   </g>
   <g id="line2d_2">
    <path d="M 146.048771 170.086022 
L 146.048771 8.806022 
" clip-path="url(#pd054364757)" style="fill: none; stroke: #d9d9d9; stroke-width: 0.6; stroke-linecap: square"/>
   </g>
   <g id="line2d_3">
    <path d="M 174.185029 170.086022 
L 174.185029 8.806022 
" clip-path="url(#pd054364757)" style="fill: none; stroke: #d9d9d9; stroke-width: 0.6; stroke-linecap: square"/>
   </g>
   <g id="line2d_4">
    <path d="M 202.321286 170.086022 
L 202.321286 8.806022 
" clip-path="url(#pd054364757)" style="fill: none; stroke: #d9d9d9; stroke-width: 0.6; stroke-linecap: square"/>
   </g>
   <g id="line2d_5">
    <path d="M 230.457544 170.086022 
L 230.457544 8.806022 
" clip-path="url(#pd054364757)" style="fill: none; stroke: #d9d9d9; stroke-width: 0.6; stroke-linecap: square"/>
   </g>
   <g id="line2d_6">
    <path d="M 258.593801 170.086022 
L 258.593801 8.806022 
" clip-path="url(#pd054364757)" style="fill: none; stroke: #d9d9d9; stroke-width: 0.6; stroke-linecap: square"/>
   </g>
   <g id="line2d_7">
    <path d="M 286.730059 170.086022 
L 286.730059 8.806022 
" clip-path="url(#pd054364757)" style="fill: none; stroke: #d9d9d9; stroke-width: 0.6; stroke-linecap: square"/>
   </g>
   <g id="line2d_8">
    <path d="M 314.866316 170.086022 
L 314.866316 8.806022 
" clip-path="url(#pd054364757)" style="fill: none; stroke: #d9d9d9; stroke-width: 0.6; stroke-linecap: square"/>
   </g>
   <g id="line2d_9">
    <path d="M 343.002574 170.086022 
L 343.002574 8.806022 
" clip-path="url(#pd054364757)" style="fill: none; stroke: #d9d9d9; stroke-width: 0.6; stroke-linecap: square"/>
   </g>
   <g id="line2d_10">
    <path d="M 371.138831 170.086022 
L 371.138831 8.806022 
" clip-path="url(#pd054364757)" style="fill: none; stroke: #d9d9d9; stroke-width: 0.6; stroke-linecap: square"/>
   </g>
   <g id="line2d_11">
    <path d="M 399.275089 170.086022 
L 399.275089 8.806022 
" clip-path="url(#pd054364757)" style="fill: none; stroke: #d9d9d9; stroke-width: 0.6; stroke-linecap: square"/>
   </g>
   <g id="line2d_12">
    <path d="M 427.411346 170.086022 
L 427.411346 8.806022 
" clip-path="url(#pd054364757)" style="fill: none; stroke: #d9d9d9; stroke-width: 0.6; stroke-linecap: square"/>
   </g>
   <g id="line2d_13">
    <path d="M 455.547604 170.086022 
L 455.547604 8.806022 
" clip-path="url(#pd054364757)" style="fill: none; stroke: #d9d9d9; stroke-width: 0.6; stroke-linecap: square"/>
   </g>
   <g id="line2d_14">
    <path d="M 483.683861 170.086022 
L 483.683861 8.806022 
" clip-path="url(#pd054364757)" style="fill: none; stroke: #d9d9d9; stroke-width: 0.6; stroke-linecap: square"/>
   </g>
   <g id="line2d_15">
    <path d="M 117.912514 170.086022 
L 117.912514 8.806022 
" clip-path="url(#pd054364757)" style="fill: none; stroke: #d9d9d9; stroke-width: 0.6; stroke-linecap: square"/>
   </g>
   <g id="line2d_16">
    <path d="M 146.048771 170.086022 
L 146.048771 8.806022 
" clip-path="url(#pd054364757)" style="fill: none; stroke: #d9d9d9; stroke-width: 0.6; stroke-linecap: square"/>
   </g>
   <g id="line2d_17">
    <path d="M 174.185029 170.086022 
L 174.185029 8.806022 
" clip-path="url(#pd054364757)" style="fill: none; stroke: #d9d9d9; stroke-width: 0.6; stroke-linecap: square"/>
   </g>
   <g id="line2d_18">
    <path d="M 202.321286 170.086022 
L 202.321286 8.806022 
" clip-path="url(#pd054364757)" style="fill: none; stroke: #d9d9d9; stroke-width: 0.6; stroke-linecap: square"/>
   </g>
   <g id="line2d_19">
    <path d="M 230.457544 170.086022 
L 230.457544 8.806022 
" clip-path="url(#pd054364757)" style="fill: none; stroke: #d9d9d9; stroke-width: 0.6; stroke-linecap: square"/>
   </g>
   <g id="line2d_20">
    <path d="M 258.593801 170.086022 
L 258.593801 8.806022 
" clip-path="url(#pd054364757)" style="fill: none; stroke: #d9d9d9; stroke-width: 0.6; stroke-linecap: square"/>
   </g>
   <g id="line2d_21">
    <path d="M 286.730059 170.086022 
L 286.730059 8.806022 
" clip-path="url(#pd054364757)" style="fill: none; stroke: #d9d9d9; stroke-width: 0.6; stroke-linecap: square"/>
   </g>
   <g id="line2d_22">
    <path d="M 314.866316 170.086022 
L 314.866316 8.806022 
" clip-path="url(#pd054364757)" style="fill: none; stroke: #d9d9d9; stroke-width: 0.6; stroke-linecap: square"/>
   </g>
   <g id="line2d_23">
    <path d="M 343.002574 170.086022 
L 343.002574 8.806022 
" clip-path="url(#pd054364757)" style="fill: none; stroke: #d9d9d9; stroke-width: 0.6; stroke-linecap: square"/>
   </g>
   <g id="line2d_24">
    <path d="M 371.138831 170.086022 
L 371.138831 8.806022 
" clip-path="url(#pd054364757)" style="fill: none; stroke: #d9d9d9; stroke-width: 0.6; stroke-linecap: square"/>
   </g>
   <g id="line2d_25">
    <path d="M 399.275089 170.086022 
L 399.275089 8.806022 
" clip-path="url(#pd054364757)" style="fill: none; stroke: #d9d9d9; stroke-width: 0.6; stroke-linecap: square"/>
   </g>
   <g id="line2d_26">
    <path d="M 427.411346 170.086022 
L 427.411346 8.806022 
" clip-path="url(#pd054364757)" style="fill: none; stroke: #d9d9d9; stroke-width: 0.6; stroke-linecap: square"/>
   </g>
   <g id="line2d_27">
    <path d="M 455.547604 170.086022 
L 455.547604 8.806022 
" clip-path="url(#pd054364757)" style="fill: none; stroke: #d9d9d9; stroke-width: 0.6; stroke-linecap: square"/>
   </g>
   <g id="line2d_28">
    <path d="M 483.683861 170.086022 
L 483.683861 8.806022 
" clip-path="url(#pd054364757)" style="fill: none; stroke: #d9d9d9; stroke-width: 0.6; stroke-linecap: square"/>
   </g>
   <g id="line2d_29">
    <path d="M 511.820119 170.086022 
L 511.820119 8.806022 
" clip-path="url(#pd054364757)" style="fill: none; stroke: #d9d9d9; stroke-width: 0.6; stroke-linecap: square"/>
   </g>
   <g id="line2d_30">
    <path d="M 539.956376 170.086022 
L 539.956376 8.806022 
" clip-path="url(#pd054364757)" style="fill: none; stroke: #d9d9d9; stroke-width: 0.6; stroke-linecap: square"/>
   </g>
   <g id="line2d_31">
    <path d="M 568.092634 170.086022 
L 568.092634 8.806022 
" clip-path="url(#pd054364757)" style="fill: none; stroke: #d9d9d9; stroke-width: 0.6; stroke-linecap: square"/>
   </g>
   <g id="matplotlib.axis_1">
    <g id="xtick_1">
     <g id="line2d_32">
      <defs>
       <path id="md883e995d9" d="M 0 0 
L 0 3.5 
" style="stroke: #000000; stroke-width: 0.8"/>
      </defs>
      <g>
       <use xlink:href="#md883e995d9" x="89.710518" y="170.086022" style="stroke: #000000; stroke-width: 0.8"/>
      </g>
     </g>
     <g id="text_1">
      <!-- 0 -->
      <g transform="translate(86.529268 184.68446) scale(0.1 -0.1)">
       <defs>
        <path id="DejaVuSans-30" d="M 2034 4250 
Q 1547 4250 1301 3770 
Q 1056 3291 1056 2328 
Q 1056 1369 1301 889 
Q 1547 409 2034 409 
Q 2525 409 2770 889 
Q 3016 1369 3016 2328 
Q 3016 3291 2770 3770 
Q 2525 4250 2034 4250 
z
M 2034 4750 
Q 2819 4750 3233 4129 
Q 3647 3509 3647 2328 
Q 3647 1150 3233 529 
Q 2819 -91 2034 -91 
Q 1250 -91 836 529 
Q 422 1150 422 2328 
Q 422 3509 836 4129 
Q 1250 4750 2034 4750 
z
" transform="scale(0.015625)"/>
       </defs>
       <use xlink:href="#DejaVuSans-30"/>
      </g>
     </g>
    </g>
    <g id="xtick_2">
     <g id="line2d_33">
      <g>
       <use xlink:href="#md883e995d9" x="155.449437" y="170.086022" style="stroke: #000000; stroke-width: 0.8"/>
      </g>
     </g>
     <g id="text_2">
      <!-- 500 -->
      <g transform="translate(145.905687 184.68446) scale(0.1 -0.1)">
       <defs>
        <path id="DejaVuSans-35" d="M 691 4666 
L 3169 4666 
L 3169 4134 
L 1269 4134 
L 1269 2991 
Q 1406 3038 1543 3061 
Q 1681 3084 1819 3084 
Q 2600 3084 3056 2656 
Q 3513 2228 3513 1497 
Q 3513 744 3044 326 
Q 2575 -91 1722 -91 
Q 1428 -91 1123 -41 
Q 819 9 494 109 
L 494 744 
Q 775 591 1075 516 
Q 1375 441 1709 441 
Q 2250 441 2565 725 
Q 2881 1009 2881 1497 
Q 2881 1984 2565 2268 
Q 2250 2553 1709 2553 
Q 1456 2553 1204 2497 
Q 953 2441 691 2322 
L 691 4666 
z
" transform="scale(0.015625)"/>
       </defs>
       <use xlink:href="#DejaVuSans-35"/>
       <use xlink:href="#DejaVuSans-30" transform="translate(63.623047 0)"/>
       <use xlink:href="#DejaVuSans-30" transform="translate(127.246094 0)"/>
      </g>
     </g>
    </g>
    <g id="xtick_3">
     <g id="line2d_34">
      <g>
       <use xlink:href="#md883e995d9" x="221.188356" y="170.086022" style="stroke: #000000; stroke-width: 0.8"/>
      </g>
     </g>
     <g id="text_3">
      <!-- 1000 -->
      <g transform="translate(208.463356 184.68446) scale(0.1 -0.1)">
       <defs>
        <path id="DejaVuSans-31" d="M 794 531 
L 1825 531 
L 1825 4091 
L 703 3866 
L 703 4441 
L 1819 4666 
L 2450 4666 
L 2450 531 
L 3481 531 
L 3481 0 
L 794 0 
L 794 531 
z
" transform="scale(0.015625)"/>
       </defs>
       <use xlink:href="#DejaVuSans-31"/>
       <use xlink:href="#DejaVuSans-30" transform="translate(63.623047 0)"/>
       <use xlink:href="#DejaVuSans-30" transform="translate(127.246094 0)"/>
       <use xlink:href="#DejaVuSans-30" transform="translate(190.869141 0)"/>
      </g>
     </g>
    </g>
    <g id="xtick_4">
     <g id="line2d_35">
      <g>
       <use xlink:href="#md883e995d9" x="286.927276" y="170.086022" style="stroke: #000000; stroke-width: 0.8"/>
      </g>
     </g>
     <g id="text_4">
      <!-- 1500 -->
      <g transform="translate(274.202276 184.68446) scale(0.1 -0.1)">
       <use xlink:href="#DejaVuSans-31"/>
       <use xlink:href="#DejaVuSans-35" transform="translate(63.623047 0)"/>
       <use xlink:href="#DejaVuSans-30" transform="translate(127.246094 0)"/>
       <use xlink:href="#DejaVuSans-30" transform="translate(190.869141 0)"/>
      </g>
     </g>
    </g>
    <g id="xtick_5">
     <g id="line2d_36">
      <g>
       <use xlink:href="#md883e995d9" x="352.666195" y="170.086022" style="stroke: #000000; stroke-width: 0.8"/>
      </g>
     </g>
     <g id="text_5">
      <!-- 2000 -->
      <g transform="translate(339.941195 184.68446) scale(0.1 -0.1)">
       <defs>
        <path id="DejaVuSans-32" d="M 1228 531 
L 3431 531 
L 3431 0 
L 469 0 
L 469 531 
Q 828 903 1448 1529 
Q 2069 2156 2228 2338 
Q 2531 2678 2651 2914 
Q 2772 3150 2772 3378 
Q 2772 3750 2511 3984 
Q 2250 4219 1831 4219 
Q 1534 4219 1204 4116 
Q 875 4013 500 3803 
L 500 4441 
Q 881 4594 1212 4672 
Q 1544 4750 1819 4750 
Q 2544 4750 2975 4387 
Q 3406 4025 3406 3419 
Q 3406 3131 3298 2873 
Q 3191 2616 2906 2266 
Q 2828 2175 2409 1742 
Q 1991 1309 1228 531 
z
" transform="scale(0.015625)"/>
       </defs>
       <use xlink:href="#DejaVuSans-32"/>
       <use xlink:href="#DejaVuSans-30" transform="translate(63.623047 0)"/>
       <use xlink:href="#DejaVuSans-30" transform="translate(127.246094 0)"/>
       <use xlink:href="#DejaVuSans-30" transform="translate(190.869141 0)"/>
      </g>
     </g>
    </g>
    <g id="xtick_6">
     <g id="line2d_37">
      <g>
       <use xlink:href="#md883e995d9" x="418.405114" y="170.086022" style="stroke: #000000; stroke-width: 0.8"/>
      </g>
     </g>
     <g id="text_6">
      <!-- 2500 -->
      <g transform="translate(405.680114 184.68446) scale(0.1 -0.1)">
       <use xlink:href="#DejaVuSans-32"/>
       <use xlink:href="#DejaVuSans-35" transform="translate(63.623047 0)"/>
       <use xlink:href="#DejaVuSans-30" transform="translate(127.246094 0)"/>
       <use xlink:href="#DejaVuSans-30" transform="translate(190.869141 0)"/>
      </g>
     </g>
    </g>
    <g id="xtick_7">
     <g id="line2d_38">
      <g>
       <use xlink:href="#md883e995d9" x="484.144034" y="170.086022" style="stroke: #000000; stroke-width: 0.8"/>
      </g>
     </g>
     <g id="text_7">
      <!-- 3000 -->
      <g transform="translate(471.419034 184.68446) scale(0.1 -0.1)">
       <defs>
        <path id="DejaVuSans-33" d="M 2597 2516 
Q 3050 2419 3304 2112 
Q 3559 1806 3559 1356 
Q 3559 666 3084 287 
Q 2609 -91 1734 -91 
Q 1441 -91 1130 -33 
Q 819 25 488 141 
L 488 750 
Q 750 597 1062 519 
Q 1375 441 1716 441 
Q 2309 441 2620 675 
Q 2931 909 2931 1356 
Q 2931 1769 2642 2001 
Q 2353 2234 1838 2234 
L 1294 2234 
L 1294 2753 
L 1863 2753 
Q 2328 2753 2575 2939 
Q 2822 3125 2822 3475 
Q 2822 3834 2567 4026 
Q 2313 4219 1838 4219 
Q 1578 4219 1281 4162 
Q 984 4106 628 3988 
L 628 4550 
Q 988 4650 1302 4700 
Q 1616 4750 1894 4750 
Q 2613 4750 3031 4423 
Q 3450 4097 3450 3541 
Q 3450 3153 3228 2886 
Q 3006 2619 2597 2516 
z
" transform="scale(0.015625)"/>
       </defs>
       <use xlink:href="#DejaVuSans-33"/>
       <use xlink:href="#DejaVuSans-30" transform="translate(63.623047 0)"/>
       <use xlink:href="#DejaVuSans-30" transform="translate(127.246094 0)"/>
       <use xlink:href="#DejaVuSans-30" transform="translate(190.869141 0)"/>
      </g>
     </g>
    </g>
    <g id="xtick_8">
     <g id="line2d_39">
      <g>
       <use xlink:href="#md883e995d9" x="549.882953" y="170.086022" style="stroke: #000000; stroke-width: 0.8"/>
      </g>
     </g>
     <g id="text_8">
      <!-- 3500 -->
      <g transform="translate(537.157953 184.68446) scale(0.1 -0.1)">
       <use xlink:href="#DejaVuSans-33"/>
       <use xlink:href="#DejaVuSans-35" transform="translate(63.623047 0)"/>
       <use xlink:href="#DejaVuSans-30" transform="translate(127.246094 0)"/>
       <use xlink:href="#DejaVuSans-30" transform="translate(190.869141 0)"/>
      </g>
     </g>
    </g>
    <g id="xtick_9">
     <g id="line2d_40">
      <g>
       <use xlink:href="#md883e995d9" x="615.621873" y="170.086022" style="stroke: #000000; stroke-width: 0.8"/>
      </g>
     </g>
     <g id="text_9">
      <!-- 4000 -->
      <g transform="translate(602.896873 184.68446) scale(0.1 -0.1)">
       <defs>
        <path id="DejaVuSans-34" d="M 2419 4116 
L 825 1625 
L 2419 1625 
L 2419 4116 
z
M 2253 4666 
L 3047 4666 
L 3047 1625 
L 3713 1625 
L 3713 1100 
L 3047 1100 
L 3047 0 
L 2419 0 
L 2419 1100 
L 313 1100 
L 313 1709 
L 2253 4666 
z
" transform="scale(0.015625)"/>
       </defs>
       <use xlink:href="#DejaVuSans-34"/>
       <use xlink:href="#DejaVuSans-30" transform="translate(63.623047 0)"/>
       <use xlink:href="#DejaVuSans-30" transform="translate(127.246094 0)"/>
       <use xlink:href="#DejaVuSans-30" transform="translate(190.869141 0)"/>
      </g>
     </g>
    </g>
   </g>
   <g id="matplotlib.axis_2">
    <g id="ytick_1">
     <g id="line2d_41">
      <defs>
       <path id="maea53bbbca" d="M 0 0 
L -3.5 0 
" style="stroke: #000000; stroke-width: 0.8"/>
      </defs>
      <g>
       <use xlink:href="#maea53bbbca" x="64.525938" y="166.862212" style="stroke: #000000; stroke-width: 0.8"/>
      </g>
     </g>
     <g id="text_10">
      <!-- 144 -->
      <g transform="translate(38.438438 170.661431) scale(0.1 -0.1)">
       <use xlink:href="#DejaVuSans-31"/>
       <use xlink:href="#DejaVuSans-34" transform="translate(63.623047 0)"/>
       <use xlink:href="#DejaVuSans-34" transform="translate(127.246094 0)"/>
      </g>
     </g>
    </g>
    <g id="ytick_2">
     <g id="line2d_42">
      <g>
       <use xlink:href="#maea53bbbca" x="64.525938" y="144.59607" style="stroke: #000000; stroke-width: 0.8"/>
      </g>
     </g>
     <g id="text_11">
      <!-- 146 -->
      <g transform="translate(38.438438 148.395289) scale(0.1 -0.1)">
       <defs>
        <path id="DejaVuSans-36" d="M 2113 2584 
Q 1688 2584 1439 2293 
Q 1191 2003 1191 1497 
Q 1191 994 1439 701 
Q 1688 409 2113 409 
Q 2538 409 2786 701 
Q 3034 994 3034 1497 
Q 3034 2003 2786 2293 
Q 2538 2584 2113 2584 
z
M 3366 4563 
L 3366 3988 
Q 3128 4100 2886 4159 
Q 2644 4219 2406 4219 
Q 1781 4219 1451 3797 
Q 1122 3375 1075 2522 
Q 1259 2794 1537 2939 
Q 1816 3084 2150 3084 
Q 2853 3084 3261 2657 
Q 3669 2231 3669 1497 
Q 3669 778 3244 343 
Q 2819 -91 2113 -91 
Q 1303 -91 875 529 
Q 447 1150 447 2328 
Q 447 3434 972 4092 
Q 1497 4750 2381 4750 
Q 2619 4750 2861 4703 
Q 3103 4656 3366 4563 
z
" transform="scale(0.015625)"/>
       </defs>
       <use xlink:href="#DejaVuSans-31"/>
       <use xlink:href="#DejaVuSans-34" transform="translate(63.623047 0)"/>
       <use xlink:href="#DejaVuSans-36" transform="translate(127.246094 0)"/>
      </g>
     </g>
    </g>
    <g id="ytick_3">
     <g id="line2d_43">
      <g>
       <use xlink:href="#maea53bbbca" x="64.525938" y="122.329928" style="stroke: #000000; stroke-width: 0.8"/>
      </g>
     </g>
     <g id="text_12">
      <!-- 148 -->
      <g transform="translate(38.438438 126.129147) scale(0.1 -0.1)">
       <defs>
        <path id="DejaVuSans-38" d="M 2034 2216 
Q 1584 2216 1326 1975 
Q 1069 1734 1069 1313 
Q 1069 891 1326 650 
Q 1584 409 2034 409 
Q 2484 409 2743 651 
Q 3003 894 3003 1313 
Q 3003 1734 2745 1975 
Q 2488 2216 2034 2216 
z
M 1403 2484 
Q 997 2584 770 2862 
Q 544 3141 544 3541 
Q 544 4100 942 4425 
Q 1341 4750 2034 4750 
Q 2731 4750 3128 4425 
Q 3525 4100 3525 3541 
Q 3525 3141 3298 2862 
Q 3072 2584 2669 2484 
Q 3125 2378 3379 2068 
Q 3634 1759 3634 1313 
Q 3634 634 3220 271 
Q 2806 -91 2034 -91 
Q 1263 -91 848 271 
Q 434 634 434 1313 
Q 434 1759 690 2068 
Q 947 2378 1403 2484 
z
M 1172 3481 
Q 1172 3119 1398 2916 
Q 1625 2713 2034 2713 
Q 2441 2713 2670 2916 
Q 2900 3119 2900 3481 
Q 2900 3844 2670 4047 
Q 2441 4250 2034 4250 
Q 1625 4250 1398 4047 
Q 1172 3844 1172 3481 
z
" transform="scale(0.015625)"/>
       </defs>
       <use xlink:href="#DejaVuSans-31"/>
       <use xlink:href="#DejaVuSans-34" transform="translate(63.623047 0)"/>
       <use xlink:href="#DejaVuSans-38" transform="translate(127.246094 0)"/>
      </g>
     </g>
    </g>
    <g id="ytick_4">
     <g id="line2d_44">
      <g>
       <use xlink:href="#maea53bbbca" x="64.525938" y="100.063786" style="stroke: #000000; stroke-width: 0.8"/>
      </g>
     </g>
     <g id="text_13">
      <!-- 150 -->
      <g transform="translate(38.438438 103.863005) scale(0.1 -0.1)">
       <use xlink:href="#DejaVuSans-31"/>
       <use xlink:href="#DejaVuSans-35" transform="translate(63.623047 0)"/>
       <use xlink:href="#DejaVuSans-30" transform="translate(127.246094 0)"/>
      </g>
     </g>
    </g>
    <g id="ytick_5">
     <g id="line2d_45">
      <g>
       <use xlink:href="#maea53bbbca" x="64.525938" y="77.797645" style="stroke: #000000; stroke-width: 0.8"/>
      </g>
     </g>
     <g id="text_14">
      <!-- 152 -->
      <g transform="translate(38.438438 81.596863) scale(0.1 -0.1)">
       <use xlink:href="#DejaVuSans-31"/>
       <use xlink:href="#DejaVuSans-35" transform="translate(63.623047 0)"/>
       <use xlink:href="#DejaVuSans-32" transform="translate(127.246094 0)"/>
      </g>
     </g>
    </g>
    <g id="ytick_6">
     <g id="line2d_46">
      <g>
       <use xlink:href="#maea53bbbca" x="64.525938" y="55.531503" style="stroke: #000000; stroke-width: 0.8"/>
      </g>
     </g>
     <g id="text_15">
      <!-- 154 -->
      <g transform="translate(38.438438 59.330721) scale(0.1 -0.1)">
       <use xlink:href="#DejaVuSans-31"/>
       <use xlink:href="#DejaVuSans-35" transform="translate(63.623047 0)"/>
       <use xlink:href="#DejaVuSans-34" transform="translate(127.246094 0)"/>
      </g>
     </g>
    </g>
    <g id="ytick_7">
     <g id="line2d_47">
      <g>
       <use xlink:href="#maea53bbbca" x="64.525938" y="33.265361" style="stroke: #000000; stroke-width: 0.8"/>
      </g>
     </g>
     <g id="text_16">
      <!-- 156 -->
      <g transform="translate(38.438438 37.064579) scale(0.1 -0.1)">
       <use xlink:href="#DejaVuSans-31"/>
       <use xlink:href="#DejaVuSans-35" transform="translate(63.623047 0)"/>
       <use xlink:href="#DejaVuSans-36" transform="translate(127.246094 0)"/>
      </g>
     </g>
    </g>
    <g id="ytick_8">
     <g id="line2d_48">
      <g>
       <use xlink:href="#maea53bbbca" x="64.525938" y="10.999219" style="stroke: #000000; stroke-width: 0.8"/>
      </g>
     </g>
     <g id="text_17">
      <!-- 158 -->
      <g transform="translate(38.438438 14.798438) scale(0.1 -0.1)">
       <use xlink:href="#DejaVuSans-31"/>
       <use xlink:href="#DejaVuSans-35" transform="translate(63.623047 0)"/>
       <use xlink:href="#DejaVuSans-38" transform="translate(127.246094 0)"/>
      </g>
     </g>
    </g>
    <g id="text_18">
     <!-- exact init -->
     <g transform="translate(21.160938 112.663991) rotate(-90) scale(0.1 -0.1)">
      <defs>
       <path id="DejaVuSans-65" d="M 3597 1894 
L 3597 1613 
L 953 1613 
Q 991 1019 1311 708 
Q 1631 397 2203 397 
Q 2534 397 2845 478 
Q 3156 559 3463 722 
L 3463 178 
Q 3153 47 2828 -22 
Q 2503 -91 2169 -91 
Q 1331 -91 842 396 
Q 353 884 353 1716 
Q 353 2575 817 3079 
Q 1281 3584 2069 3584 
Q 2775 3584 3186 3129 
Q 3597 2675 3597 1894 
z
M 3022 2063 
Q 3016 2534 2758 2815 
Q 2500 3097 2075 3097 
Q 1594 3097 1305 2825 
Q 1016 2553 972 2059 
L 3022 2063 
z
" transform="scale(0.015625)"/>
       <path id="DejaVuSans-78" d="M 3513 3500 
L 2247 1797 
L 3578 0 
L 2900 0 
L 1881 1375 
L 863 0 
L 184 0 
L 1544 1831 
L 300 3500 
L 978 3500 
L 1906 2253 
L 2834 3500 
L 3513 3500 
z
" transform="scale(0.015625)"/>
       <path id="DejaVuSans-61" d="M 2194 1759 
Q 1497 1759 1228 1600 
Q 959 1441 959 1056 
Q 959 750 1161 570 
Q 1363 391 1709 391 
Q 2188 391 2477 730 
Q 2766 1069 2766 1631 
L 2766 1759 
L 2194 1759 
z
M 3341 1997 
L 3341 0 
L 2766 0 
L 2766 531 
Q 2569 213 2275 61 
Q 1981 -91 1556 -91 
Q 1019 -91 701 211 
Q 384 513 384 1019 
Q 384 1609 779 1909 
Q 1175 2209 1959 2209 
L 2766 2209 
L 2766 2266 
Q 2766 2663 2505 2880 
Q 2244 3097 1772 3097 
Q 1472 3097 1187 3025 
Q 903 2953 641 2809 
L 641 3341 
Q 956 3463 1253 3523 
Q 1550 3584 1831 3584 
Q 2591 3584 2966 3190 
Q 3341 2797 3341 1997 
z
" transform="scale(0.015625)"/>
       <path id="DejaVuSans-63" d="M 3122 3366 
L 3122 2828 
Q 2878 2963 2633 3030 
Q 2388 3097 2138 3097 
Q 1578 3097 1268 2742 
Q 959 2388 959 1747 
Q 959 1106 1268 751 
Q 1578 397 2138 397 
Q 2388 397 2633 464 
Q 2878 531 3122 666 
L 3122 134 
Q 2881 22 2623 -34 
Q 2366 -91 2075 -91 
Q 1284 -91 818 406 
Q 353 903 353 1747 
Q 353 2603 823 3093 
Q 1294 3584 2113 3584 
Q 2378 3584 2631 3529 
Q 2884 3475 3122 3366 
z
" transform="scale(0.015625)"/>
       <path id="DejaVuSans-74" d="M 1172 4494 
L 1172 3500 
L 2356 3500 
L 2356 3053 
L 1172 3053 
L 1172 1153 
Q 1172 725 1289 603 
Q 1406 481 1766 481 
L 2356 481 
L 2356 0 
L 1766 0 
Q 1100 0 847 248 
Q 594 497 594 1153 
L 594 3053 
L 172 3053 
L 172 3500 
L 594 3500 
L 594 4494 
L 1172 4494 
z
" transform="scale(0.015625)"/>
       <path id="DejaVuSans-20" transform="scale(0.015625)"/>
       <path id="DejaVuSans-69" d="M 603 3500 
L 1178 3500 
L 1178 0 
L 603 0 
L 603 3500 
z
M 603 4863 
L 1178 4863 
L 1178 4134 
L 603 4134 
L 603 4863 
z
" transform="scale(0.015625)"/>
       <path id="DejaVuSans-6e" d="M 3513 2113 
L 3513 0 
L 2938 0 
L 2938 2094 
Q 2938 2591 2744 2837 
Q 2550 3084 2163 3084 
Q 1697 3084 1428 2787 
Q 1159 2491 1159 1978 
L 1159 0 
L 581 0 
L 581 3500 
L 1159 3500 
L 1159 2956 
Q 1366 3272 1645 3428 
Q 1925 3584 2291 3584 
Q 2894 3584 3203 3211 
Q 3513 2838 3513 2113 
z
" transform="scale(0.015625)"/>
      </defs>
      <use xlink:href="#DejaVuSans-65"/>
      <use xlink:href="#DejaVuSans-78" transform="translate(59.773438 0)"/>
      <use xlink:href="#DejaVuSans-61" transform="translate(118.953125 0)"/>
      <use xlink:href="#DejaVuSans-63" transform="translate(180.232422 0)"/>
      <use xlink:href="#DejaVuSans-74" transform="translate(235.212891 0)"/>
      <use xlink:href="#DejaVuSans-20" transform="translate(274.421875 0)"/>
      <use xlink:href="#DejaVuSans-69" transform="translate(306.208984 0)"/>
      <use xlink:href="#DejaVuSans-6e" transform="translate(333.992188 0)"/>
      <use xlink:href="#DejaVuSans-69" transform="translate(397.371094 0)"/>
      <use xlink:href="#DejaVuSans-74" transform="translate(425.154297 0)"/>
     </g>
     <!-- top-10% train loss -->
     <g transform="translate(32.35875 135.030397) rotate(-90) scale(0.1 -0.1)">
      <defs>
       <path id="DejaVuSans-6f" d="M 1959 3097 
Q 1497 3097 1228 2736 
Q 959 2375 959 1747 
Q 959 1119 1226 758 
Q 1494 397 1959 397 
Q 2419 397 2687 759 
Q 2956 1122 2956 1747 
Q 2956 2369 2687 2733 
Q 2419 3097 1959 3097 
z
M 1959 3584 
Q 2709 3584 3137 3096 
Q 3566 2609 3566 1747 
Q 3566 888 3137 398 
Q 2709 -91 1959 -91 
Q 1206 -91 779 398 
Q 353 888 353 1747 
Q 353 2609 779 3096 
Q 1206 3584 1959 3584 
z
" transform="scale(0.015625)"/>
       <path id="DejaVuSans-70" d="M 1159 525 
L 1159 -1331 
L 581 -1331 
L 581 3500 
L 1159 3500 
L 1159 2969 
Q 1341 3281 1617 3432 
Q 1894 3584 2278 3584 
Q 2916 3584 3314 3078 
Q 3713 2572 3713 1747 
Q 3713 922 3314 415 
Q 2916 -91 2278 -91 
Q 1894 -91 1617 61 
Q 1341 213 1159 525 
z
M 3116 1747 
Q 3116 2381 2855 2742 
Q 2594 3103 2138 3103 
Q 1681 3103 1420 2742 
Q 1159 2381 1159 1747 
Q 1159 1113 1420 752 
Q 1681 391 2138 391 
Q 2594 391 2855 752 
Q 3116 1113 3116 1747 
z
" transform="scale(0.015625)"/>
       <path id="DejaVuSans-2d" d="M 313 2009 
L 1997 2009 
L 1997 1497 
L 313 1497 
L 313 2009 
z
" transform="scale(0.015625)"/>
       <path id="DejaVuSans-25" d="M 4653 2053 
Q 4381 2053 4226 1822 
Q 4072 1591 4072 1178 
Q 4072 772 4226 539 
Q 4381 306 4653 306 
Q 4919 306 5073 539 
Q 5228 772 5228 1178 
Q 5228 1588 5073 1820 
Q 4919 2053 4653 2053 
z
M 4653 2450 
Q 5147 2450 5437 2106 
Q 5728 1763 5728 1178 
Q 5728 594 5436 251 
Q 5144 -91 4653 -91 
Q 4153 -91 3862 251 
Q 3572 594 3572 1178 
Q 3572 1766 3864 2108 
Q 4156 2450 4653 2450 
z
M 1428 4353 
Q 1159 4353 1004 4120 
Q 850 3888 850 3481 
Q 850 3069 1003 2837 
Q 1156 2606 1428 2606 
Q 1700 2606 1854 2837 
Q 2009 3069 2009 3481 
Q 2009 3884 1853 4118 
Q 1697 4353 1428 4353 
z
M 4250 4750 
L 4750 4750 
L 1831 -91 
L 1331 -91 
L 4250 4750 
z
M 1428 4750 
Q 1922 4750 2215 4408 
Q 2509 4066 2509 3481 
Q 2509 2891 2217 2550 
Q 1925 2209 1428 2209 
Q 931 2209 642 2551 
Q 353 2894 353 3481 
Q 353 4063 643 4406 
Q 934 4750 1428 4750 
z
" transform="scale(0.015625)"/>
       <path id="DejaVuSans-72" d="M 2631 2963 
Q 2534 3019 2420 3045 
Q 2306 3072 2169 3072 
Q 1681 3072 1420 2755 
Q 1159 2438 1159 1844 
L 1159 0 
L 581 0 
L 581 3500 
L 1159 3500 
L 1159 2956 
Q 1341 3275 1631 3429 
Q 1922 3584 2338 3584 
Q 2397 3584 2469 3576 
Q 2541 3569 2628 3553 
L 2631 2963 
z
" transform="scale(0.015625)"/>
       <path id="DejaVuSans-6c" d="M 603 4863 
L 1178 4863 
L 1178 0 
L 603 0 
L 603 4863 
z
" transform="scale(0.015625)"/>
       <path id="DejaVuSans-73" d="M 2834 3397 
L 2834 2853 
Q 2591 2978 2328 3040 
Q 2066 3103 1784 3103 
Q 1356 3103 1142 2972 
Q 928 2841 928 2578 
Q 928 2378 1081 2264 
Q 1234 2150 1697 2047 
L 1894 2003 
Q 2506 1872 2764 1633 
Q 3022 1394 3022 966 
Q 3022 478 2636 193 
Q 2250 -91 1575 -91 
Q 1294 -91 989 -36 
Q 684 19 347 128 
L 347 722 
Q 666 556 975 473 
Q 1284 391 1588 391 
Q 1994 391 2212 530 
Q 2431 669 2431 922 
Q 2431 1156 2273 1281 
Q 2116 1406 1581 1522 
L 1381 1569 
Q 847 1681 609 1914 
Q 372 2147 372 2553 
Q 372 3047 722 3315 
Q 1072 3584 1716 3584 
Q 2034 3584 2315 3537 
Q 2597 3491 2834 3397 
z
" transform="scale(0.015625)"/>
      </defs>
      <use xlink:href="#DejaVuSans-74"/>
      <use xlink:href="#DejaVuSans-6f" transform="translate(39.208984 0)"/>
      <use xlink:href="#DejaVuSans-70" transform="translate(100.390625 0)"/>
      <use xlink:href="#DejaVuSans-2d" transform="translate(163.867188 0)"/>
      <use xlink:href="#DejaVuSans-31" transform="translate(199.951172 0)"/>
      <use xlink:href="#DejaVuSans-30" transform="translate(263.574219 0)"/>
      <use xlink:href="#DejaVuSans-25" transform="translate(327.197266 0)"/>
      <use xlink:href="#DejaVuSans-20" transform="translate(422.216797 0)"/>
      <use xlink:href="#DejaVuSans-74" transform="translate(454.003906 0)"/>
      <use xlink:href="#DejaVuSans-72" transform="translate(493.212891 0)"/>
      <use xlink:href="#DejaVuSans-61" transform="translate(534.326172 0)"/>
      <use xlink:href="#DejaVuSans-69" transform="translate(595.605469 0)"/>
      <use xlink:href="#DejaVuSans-6e" transform="translate(623.388672 0)"/>
      <use xlink:href="#DejaVuSans-20" transform="translate(686.767578 0)"/>
      <use xlink:href="#DejaVuSans-6c" transform="translate(718.554688 0)"/>
      <use xlink:href="#DejaVuSans-6f" transform="translate(746.337891 0)"/>
      <use xlink:href="#DejaVuSans-73" transform="translate(807.519531 0)"/>
      <use xlink:href="#DejaVuSans-73" transform="translate(859.619141 0)"/>
     </g>
    </g>
   </g>
   <g id="line2d_49">
    <path d="M 89.841995 16.136931 
L 91.814163 16.136931 
L 92.077119 27.914178 
L 92.208596 31.20427 
L 92.471552 31.274135 
L 93.786331 31.274135 
L 93.917808 46.489897 
L 94.049286 47.068389 
L 94.706675 47.068389 
L 94.838153 47.829483 
L 104.830469 47.918974 
L 105.224902 49.311791 
L 105.619336 49.357511 
L 106.802637 49.357511 
L 106.934114 52.287673 
L 107.065592 52.289239 
L 107.19707 52.595266 
L 107.722981 52.595266 
L 108.117415 54.750398 
L 109.432193 54.750398 
L 109.563671 56.951065 
L 111.667317 56.951065 
L 111.798794 57.260637 
L 119.95042 57.260637 
L 120.081898 57.537518 
L 120.213376 58.140758 
L 120.344854 63.408499 
L 121.79111 63.408499 
L 122.054066 64.501709 
L 122.185544 65.260703 
L 122.842933 65.260703 
L 122.974411 65.717694 
L 124.683623 65.717694 
L 124.946578 65.871905 
L 132.966726 65.871905 
L 133.098204 77.639885 
L 134.938894 77.639885 
L 135.070372 79.583373 
L 135.859239 79.583373 
L 135.990717 79.902352 
L 139.803574 79.902352 
L 139.935052 80.650267 
L 148.086678 80.650267 
L 148.218156 84.142503 
L 148.349634 84.52406 
L 150.058845 84.52406 
L 150.190323 85.354129 
L 150.716235 85.38362 
L 152.688402 85.38362 
L 152.81988 86.264945 
L 153.082836 86.359 
L 161.102984 86.359 
L 161.234462 88.012524 
L 161.36594 88.131395 
L 161.497417 89.077361 
L 162.680718 89.077361 
L 162.812196 89.942749 
L 163.075152 89.942749 
L 163.206629 93.007362 
L 163.995496 93.007362 
L 164.126974 93.300475 
L 166.625053 93.300475 
L 166.756531 95.747634 
L 176.222935 95.774578 
L 176.485891 110.257246 
L 178.195103 110.279645 
L 178.458059 113.234867 
L 189.239241 113.234867 
L 189.370719 113.941862 
L 191.342887 114.00049 
L 191.474365 114.413585 
L 204.227715 114.418237 
L 204.359193 115.403073 
L 204.622149 120.591584 
L 206.33136 120.591584 
L 206.594316 122.772834 
L 207.251705 122.772834 
L 207.383183 127.078194 
L 207.646139 127.233138 
L 208.960917 127.233138 
L 209.092395 128.491875 
L 209.749784 128.491875 
L 209.881262 129.194848 
L 211.196041 129.194848 
L 211.327518 129.463802 
L 217.506977 129.51039 
L 217.638455 129.842118 
L 219.347667 129.842118 
L 219.479144 130.953663 
L 219.610622 130.953663 
L 219.7421 131.404202 
L 232.49545 131.404202 
L 232.626928 134.508707 
L 232.758406 134.746575 
L 234.467618 134.746575 
L 234.599096 136.580554 
L 234.730574 136.85252 
L 235.387963 136.85252 
L 235.519441 137.706725 
L 237.886042 137.736012 
L 238.01752 139.272896 
L 250.902348 139.3602 
L 251.165303 139.545043 
L 260.631708 139.545043 
L 261.026141 145.472197 
L 262.603875 145.472197 
L 262.735353 150.316695 
L 262.866831 150.767504 
L 263.52422 150.767504 
L 263.655698 153.489688 
L 265.233432 153.489688 
L 265.36491 154.080259 
L 288.767965 154.130845 
L 289.030921 155.301228 
L 290.871611 155.301228 
L 291.003089 155.786735 
L 291.660478 155.786735 
L 291.791956 156.74993 
L 293.106734 156.74993 
L 293.238212 157.493187 
L 293.36969 157.493187 
L 293.501168 160.758683 
L 317.035701 160.816933 
L 317.298656 160.998923 
L 319.007868 160.998923 
L 319.139346 161.266856 
L 326.107672 161.358886 
L 326.370627 161.425225 
L 347.012648 161.50732 
L 347.407081 161.926561 
L 349.642205 162.001831 
L 350.168116 162.039362 
L 375.280383 162.062087 
L 375.543339 162.242895 
L 404.205508 162.328081 
L 404.862897 162.354726 
L 405.91472 162.354726 
L 406.177675 162.491049 
L 431.42142 162.546508 
L 431.947332 162.727323 
L 511.75438 162.755113 
L 511.75438 162.755113 
" clip-path="url(#pd054364757)" style="fill: none; stroke: #0072b2; stroke-width: 1.1; stroke-linecap: square"/>
   </g>
   <g id="line2d_50">
    <path d="M 89.841995 16.136931 
L 93.917808 16.136931 
L 94.049286 16.449589 
L 97.204754 16.482514 
L 97.46771 16.596905 
L 97.862144 16.596905 
L 98.125099 17.001679 
L 99.571355 17.001679 
L 99.834311 19.042804 
L 100.4917 19.131671 
L 100.623178 19.235109 
L 100.886134 20.120394 
L 102.33239 20.120394 
L 102.463868 20.747486 
L 102.595346 20.799103 
L 102.726824 21.213518 
L 108.774804 21.226173 
L 108.906282 22.206154 
L 110.22106 22.206154 
L 110.352538 23.745659 
L 111.009927 23.745659 
L 111.272883 23.904253 
L 112.587661 23.904253 
L 112.719139 24.592386 
L 112.850617 27.355068 
L 113.508006 27.355068 
L 113.639484 30.649858 
L 113.770962 47.697753 
L 114.428351 47.721282 
L 115.348696 47.721282 
L 115.480174 47.910046 
L 115.74313 52.765279 
L 125.998401 52.765279 
L 126.129879 52.968845 
L 126.261357 57.436575 
L 127.839091 57.436575 
L 127.970569 58.04403 
L 128.759436 58.04873 
L 128.890913 62.775456 
L 129.811258 62.775456 
L 129.942736 63.520799 
L 130.468648 63.520799 
L 130.994559 67.480638 
L 139.146185 67.480638 
L 139.277663 69.185196 
L 141.644264 69.20578 
L 141.775742 69.712262 
L 141.907219 70.6856 
L 143.616431 70.6856 
L 143.879387 74.259885 
L 152.031013 74.259885 
L 152.162491 74.642635 
L 154.266136 74.735642 
L 154.397614 78.854102 
L 156.632737 78.854102 
L 156.895693 79.946007 
L 157.027171 82.687393 
L 157.290127 82.687393 
L 157.421604 83.017364 
L 158.604905 83.017364 
L 158.736383 83.701479 
L 158.867861 83.701479 
L 158.999339 85.723306 
L 162.54924 85.766784 
L 162.812196 85.838106 
L 169.911999 85.948904 
L 170.043477 93.030901 
L 170.569388 93.065666 
L 171.752689 93.065666 
L 172.015645 102.002453 
L 181.482049 102.002453 
L 181.613527 102.474948 
L 185.031951 102.474948 
L 185.163428 104.519269 
L 187.004118 104.519269 
L 187.135596 105.489678 
L 193.183577 105.489678 
L 193.315054 105.757304 
L 197.916779 105.79421 
L 198.179734 107.855555 
L 199.888946 107.855555 
L 200.151902 113.566073 
L 213.03673 113.566073 
L 213.168208 113.774133 
L 215.140376 113.810462 
L 215.403331 113.959226 
L 222.76609 114.020028 
L 222.897568 114.303763 
L 223.554957 114.340995 
L 223.817913 118.516901 
L 225.264169 118.51913 
L 225.395647 119.254468 
L 226.053036 119.254468 
L 226.315992 125.946715 
L 226.44747 127.460132 
L 228.025204 127.460132 
L 228.156682 128.667081 
L 228.28816 132.129414 
L 238.674909 132.129414 
L 238.806387 134.456715 
L 243.145155 134.456715 
L 243.408111 135.00208 
L 249.456092 135.010522 
L 249.587569 135.934629 
L 250.77087 135.934629 
L 250.902348 136.964416 
L 251.691215 136.964416 
L 251.822693 138.727876 
L 253.268949 138.727876 
L 253.531905 140.958976 
L 254.189294 140.958976 
L 254.320772 141.944267 
L 279.038605 142.002721 
L 279.170083 142.268017 
L 279.827472 142.268017 
L 279.95895 144.474344 
L 281.536684 144.474344 
L 281.668162 146.195907 
L 282.325551 146.195907 
L 282.588507 146.614942 
L 284.297719 146.614942 
L 284.429197 147.986308 
L 307.174863 147.993789 
L 307.306341 149.064638 
L 307.96373 149.064638 
L 308.095208 149.355983 
L 309.409986 149.355983 
L 309.672942 149.632825 
L 309.80442 153.622306 
L 310.461809 153.622306 
L 310.593287 154.442159 
L 310.724764 156.550997 
L 333.864864 156.604066 
L 333.996342 157.057413 
L 335.31112 157.057413 
L 335.442598 157.546923 
L 338.598066 157.546923 
L 338.729544 158.068349 
L 338.861022 159.602633 
L 340.701712 159.602633 
L 340.83319 159.811337 
L 368.837969 159.898377 
L 369.100925 160.069332 
L 394.870581 160.179763 
L 395.002059 160.207656 
L 395.133537 160.750612 
L 418.273637 160.768509 
L 418.405114 161.066716 
L 419.719893 161.066716 
L 419.982848 161.256325 
L 474.546152 161.350687 
L 475.335019 161.373187 
L 507.547089 161.445981 
L 507.810045 161.513392 
L 596.163152 161.60593 
L 596.163152 161.60593 
" clip-path="url(#pd054364757)" style="fill: none; stroke: #d55e00; stroke-width: 1.1; stroke-linecap: square"/>
   </g>
   <g id="patch_3">
    <path d="M 64.525938 170.086022 
L 64.525938 8.806022 
" style="fill: none; stroke: #000000; stroke-width: 0.8; stroke-linejoin: miter; stroke-linecap: square"/>
   </g>
   <g id="patch_4">
    <path d="M 621.47921 170.086022 
L 621.47921 8.806022 
" style="fill: none; stroke: #000000; stroke-width: 0.8; stroke-linejoin: miter; stroke-linecap: square"/>
   </g>
   <g id="patch_5">
    <path d="M 64.525937 170.086022 
L 621.47921 170.086022 
" style="fill: none; stroke: #000000; stroke-width: 0.8; stroke-linejoin: miter; stroke-linecap: square"/>
   </g>
   <g id="patch_6">
    <path d="M 64.525937 8.806022 
L 621.47921 8.806022 
" style="fill: none; stroke: #000000; stroke-width: 0.8; stroke-linejoin: miter; stroke-linecap: square"/>
   </g>
   <g id="text_19">
    <!-- U4[8,7] -->
    <g style="fill: #0072b2" transform="translate(95.917808 40.489897) scale(0.06 -0.06)">
     <defs>
      <path id="DejaVuSans-55" d="M 556 4666 
L 1191 4666 
L 1191 1831 
Q 1191 1081 1462 751 
Q 1734 422 2344 422 
Q 2950 422 3222 751 
Q 3494 1081 3494 1831 
L 3494 4666 
L 4128 4666 
L 4128 1753 
Q 4128 841 3676 375 
Q 3225 -91 2344 -91 
Q 1459 -91 1007 375 
Q 556 841 556 1753 
L 556 4666 
z
" transform="scale(0.015625)"/>
      <path id="DejaVuSans-5b" d="M 550 4863 
L 1875 4863 
L 1875 4416 
L 1125 4416 
L 1125 -397 
L 1875 -397 
L 1875 -844 
L 550 -844 
L 550 4863 
z
" transform="scale(0.015625)"/>
      <path id="DejaVuSans-2c" d="M 750 794 
L 1409 794 
L 1409 256 
L 897 -744 
L 494 -744 
L 750 256 
L 750 794 
z
" transform="scale(0.015625)"/>
      <path id="DejaVuSans-37" d="M 525 4666 
L 3525 4666 
L 3525 4397 
L 1831 0 
L 1172 0 
L 2766 4134 
L 525 4134 
L 525 4666 
z
" transform="scale(0.015625)"/>
      <path id="DejaVuSans-5d" d="M 1947 4863 
L 1947 -844 
L 622 -844 
L 622 -397 
L 1369 -397 
L 1369 4416 
L 622 4416 
L 622 4863 
L 1947 4863 
z
" transform="scale(0.015625)"/>
     </defs>
     <use xlink:href="#DejaVuSans-55"/>
     <use xlink:href="#DejaVuSans-34" transform="translate(73.193359 0)"/>
     <use xlink:href="#DejaVuSans-5b" transform="translate(136.816406 0)"/>
     <use xlink:href="#DejaVuSans-38" transform="translate(175.830078 0)"/>
     <use xlink:href="#DejaVuSans-2c" transform="translate(239.453125 0)"/>
     <use xlink:href="#DejaVuSans-37" transform="translate(271.240234 0)"/>
     <use xlink:href="#DejaVuSans-5d" transform="translate(334.863281 0)"/>
    </g>
   </g>
   <g id="text_20">
    <!-- U4[8,7] -->
    <g style="fill: #0072b2" transform="translate(178.354413 101.784071) scale(0.06 -0.06)">
     <use xlink:href="#DejaVuSans-55"/>
     <use xlink:href="#DejaVuSans-34" transform="translate(73.193359 0)"/>
     <use xlink:href="#DejaVuSans-5b" transform="translate(136.816406 0)"/>
     <use xlink:href="#DejaVuSans-38" transform="translate(175.830078 0)"/>
     <use xlink:href="#DejaVuSans-2c" transform="translate(239.453125 0)"/>
     <use xlink:href="#DejaVuSans-37" transform="translate(271.240234 0)"/>
     <use xlink:href="#DejaVuSans-5d" transform="translate(334.863281 0)"/>
    </g>
   </g>
   <g id="text_21">
    <!-- U4[16,15] -->
    <g style="fill: #0072b2" transform="translate(135.098204 71.639885) scale(0.06 -0.06)">
     <use xlink:href="#DejaVuSans-55"/>
     <use xlink:href="#DejaVuSans-34" transform="translate(73.193359 0)"/>
     <use xlink:href="#DejaVuSans-5b" transform="translate(136.816406 0)"/>
     <use xlink:href="#DejaVuSans-31" transform="translate(175.830078 0)"/>
     <use xlink:href="#DejaVuSans-36" transform="translate(239.453125 0)"/>
     <use xlink:href="#DejaVuSans-2c" transform="translate(303.076172 0)"/>
     <use xlink:href="#DejaVuSans-31" transform="translate(334.863281 0)"/>
     <use xlink:href="#DejaVuSans-35" transform="translate(398.486328 0)"/>
     <use xlink:href="#DejaVuSans-5d" transform="translate(462.109375 0)"/>
    </g>
   </g>
   <g id="text_22">
    <!-- U4[8,7] -->
    <g style="fill: #0072b2" transform="translate(93.945641 20.215706) scale(0.06 -0.06)">
     <use xlink:href="#DejaVuSans-55"/>
     <use xlink:href="#DejaVuSans-34" transform="translate(73.193359 0)"/>
     <use xlink:href="#DejaVuSans-5b" transform="translate(136.816406 0)"/>
     <use xlink:href="#DejaVuSans-38" transform="translate(175.830078 0)"/>
     <use xlink:href="#DejaVuSans-2c" transform="translate(239.453125 0)"/>
     <use xlink:href="#DejaVuSans-37" transform="translate(271.240234 0)"/>
     <use xlink:href="#DejaVuSans-5d" transform="translate(334.863281 0)"/>
    </g>
   </g>
   <g id="text_23">
    <!-- 30.9 dB -->
    <g style="fill: #0072b2" transform="translate(515.75438 162.755113) scale(0.07 -0.07)">
     <defs>
      <path id="DejaVuSans-2e" d="M 684 794 
L 1344 794 
L 1344 0 
L 684 0 
L 684 794 
z
" transform="scale(0.015625)"/>
      <path id="DejaVuSans-39" d="M 703 97 
L 703 672 
Q 941 559 1184 500 
Q 1428 441 1663 441 
Q 2288 441 2617 861 
Q 2947 1281 2994 2138 
Q 2813 1869 2534 1725 
Q 2256 1581 1919 1581 
Q 1219 1581 811 2004 
Q 403 2428 403 3163 
Q 403 3881 828 4315 
Q 1253 4750 1959 4750 
Q 2769 4750 3195 4129 
Q 3622 3509 3622 2328 
Q 3622 1225 3098 567 
Q 2575 -91 1691 -91 
Q 1453 -91 1209 -44 
Q 966 3 703 97 
z
M 1959 2075 
Q 2384 2075 2632 2365 
Q 2881 2656 2881 3163 
Q 2881 3666 2632 3958 
Q 2384 4250 1959 4250 
Q 1534 4250 1286 3958 
Q 1038 3666 1038 3163 
Q 1038 2656 1286 2365 
Q 1534 2075 1959 2075 
z
" transform="scale(0.015625)"/>
      <path id="DejaVuSans-64" d="M 2906 2969 
L 2906 4863 
L 3481 4863 
L 3481 0 
L 2906 0 
L 2906 525 
Q 2725 213 2448 61 
Q 2172 -91 1784 -91 
Q 1150 -91 751 415 
Q 353 922 353 1747 
Q 353 2572 751 3078 
Q 1150 3584 1784 3584 
Q 2172 3584 2448 3432 
Q 2725 3281 2906 2969 
z
M 947 1747 
Q 947 1113 1208 752 
Q 1469 391 1925 391 
Q 2381 391 2643 752 
Q 2906 1113 2906 1747 
Q 2906 2381 2643 2742 
Q 2381 3103 1925 3103 
Q 1469 3103 1208 2742 
Q 947 2381 947 1747 
z
" transform="scale(0.015625)"/>
      <path id="DejaVuSans-42" d="M 1259 2228 
L 1259 519 
L 2272 519 
Q 2781 519 3026 730 
Q 3272 941 3272 1375 
Q 3272 1813 3026 2020 
Q 2781 2228 2272 2228 
L 1259 2228 
z
M 1259 4147 
L 1259 2741 
L 2194 2741 
Q 2656 2741 2882 2914 
Q 3109 3088 3109 3444 
Q 3109 3797 2882 3972 
Q 2656 4147 2194 4147 
L 1259 4147 
z
M 628 4666 
L 2241 4666 
Q 2963 4666 3353 4366 
Q 3744 4066 3744 3513 
Q 3744 3084 3544 2831 
Q 3344 2578 2956 2516 
Q 3422 2416 3680 2098 
Q 3938 1781 3938 1306 
Q 3938 681 3513 340 
Q 3088 0 2303 0 
L 628 0 
L 628 4666 
z
" transform="scale(0.015625)"/>
     </defs>
     <use xlink:href="#DejaVuSans-33"/>
     <use xlink:href="#DejaVuSans-30" transform="translate(63.623047 0)"/>
     <use xlink:href="#DejaVuSans-2e" transform="translate(127.246094 0)"/>
     <use xlink:href="#DejaVuSans-39" transform="translate(159.033203 0)"/>
     <use xlink:href="#DejaVuSans-20" transform="translate(222.65625 0)"/>
     <use xlink:href="#DejaVuSans-64" transform="translate(254.443359 0)"/>
     <use xlink:href="#DejaVuSans-42" transform="translate(317.919922 0)"/>
    </g>
   </g>
   <g id="text_24">
    <!-- U4[8,7] -->
    <g style="fill: #d55e00" transform="translate(115.770962 41.697753) scale(0.06 -0.06)">
     <use xlink:href="#DejaVuSans-55"/>
     <use xlink:href="#DejaVuSans-34" transform="translate(73.193359 0)"/>
     <use xlink:href="#DejaVuSans-5b" transform="translate(136.816406 0)"/>
     <use xlink:href="#DejaVuSans-38" transform="translate(175.830078 0)"/>
     <use xlink:href="#DejaVuSans-2c" transform="translate(239.453125 0)"/>
     <use xlink:href="#DejaVuSans-37" transform="translate(271.240234 0)"/>
     <use xlink:href="#DejaVuSans-5d" transform="translate(334.863281 0)"/>
    </g>
   </g>
   <g id="text_25">
    <!-- U4[8,7] -->
    <g style="fill: #d55e00" transform="translate(172.043477 87.030901) scale(0.06 -0.06)">
     <use xlink:href="#DejaVuSans-55"/>
     <use xlink:href="#DejaVuSans-34" transform="translate(73.193359 0)"/>
     <use xlink:href="#DejaVuSans-5b" transform="translate(136.816406 0)"/>
     <use xlink:href="#DejaVuSans-38" transform="translate(175.830078 0)"/>
     <use xlink:href="#DejaVuSans-2c" transform="translate(239.453125 0)"/>
     <use xlink:href="#DejaVuSans-37" transform="translate(271.240234 0)"/>
     <use xlink:href="#DejaVuSans-5d" transform="translate(334.863281 0)"/>
    </g>
   </g>
   <g id="text_26">
    <!-- U4[8,6] -->
    <g style="fill: #d55e00" transform="translate(173.884167 92.87442) scale(0.06 -0.06)">
     <use xlink:href="#DejaVuSans-55"/>
     <use xlink:href="#DejaVuSans-34" transform="translate(73.193359 0)"/>
     <use xlink:href="#DejaVuSans-5b" transform="translate(136.816406 0)"/>
     <use xlink:href="#DejaVuSans-38" transform="translate(175.830078 0)"/>
     <use xlink:href="#DejaVuSans-2c" transform="translate(239.453125 0)"/>
     <use xlink:href="#DejaVuSans-36" transform="translate(271.240234 0)"/>
     <use xlink:href="#DejaVuSans-5d" transform="translate(334.863281 0)"/>
    </g>
   </g>
   <g id="text_27">
    <!-- U4[16,15] -->
    <g style="fill: #d55e00" transform="translate(130.890913 56.775456) scale(0.06 -0.06)">
     <use xlink:href="#DejaVuSans-55"/>
     <use xlink:href="#DejaVuSans-34" transform="translate(73.193359 0)"/>
     <use xlink:href="#DejaVuSans-5b" transform="translate(136.816406 0)"/>
     <use xlink:href="#DejaVuSans-31" transform="translate(175.830078 0)"/>
     <use xlink:href="#DejaVuSans-36" transform="translate(239.453125 0)"/>
     <use xlink:href="#DejaVuSans-2c" transform="translate(303.076172 0)"/>
     <use xlink:href="#DejaVuSans-31" transform="translate(334.863281 0)"/>
     <use xlink:href="#DejaVuSans-35" transform="translate(398.486328 0)"/>
     <use xlink:href="#DejaVuSans-5d" transform="translate(462.109375 0)"/>
    </g>
   </g>
   <g id="text_28">
    <!-- 30.9 dB -->
    <g style="fill: #d55e00" transform="translate(600.163152 161.60593) scale(0.07 -0.07)">
     <use xlink:href="#DejaVuSans-33"/>
     <use xlink:href="#DejaVuSans-30" transform="translate(63.623047 0)"/>
     <use xlink:href="#DejaVuSans-2e" transform="translate(127.246094 0)"/>
     <use xlink:href="#DejaVuSans-39" transform="translate(159.033203 0)"/>
     <use xlink:href="#DejaVuSans-20" transform="translate(222.65625 0)"/>
     <use xlink:href="#DejaVuSans-64" transform="translate(254.443359 0)"/>
     <use xlink:href="#DejaVuSans-42" transform="translate(317.919922 0)"/>
    </g>
   </g>
   <g id="legend_1">
    <g id="text_29">
     <!-- order -->
     <g transform="translate(585.263585 22.084772) scale(0.08 -0.08)">
      <use xlink:href="#DejaVuSans-6f"/>
      <use xlink:href="#DejaVuSans-72" transform="translate(61.181641 0)"/>
      <use xlink:href="#DejaVuSans-64" transform="translate(100.544922 0)"/>
      <use xlink:href="#DejaVuSans-65" transform="translate(164.021484 0)"/>
      <use xlink:href="#DejaVuSans-72" transform="translate(225.544922 0)"/>
     </g>
    </g>
    <g id="line2d_51">
     <path d="M 577.58171 31.027272 
L 585.58171 31.027272 
L 593.58171 31.027272 
" style="fill: none; stroke: #0072b2; stroke-width: 1.1; stroke-linecap: square"/>
    </g>
    <g id="text_30">
     <!-- fwd -->
     <g transform="translate(599.98171 33.827272) scale(0.08 -0.08)">
      <defs>
       <path id="DejaVuSans-66" d="M 2375 4863 
L 2375 4384 
L 1825 4384 
Q 1516 4384 1395 4259 
Q 1275 4134 1275 3809 
L 1275 3500 
L 2222 3500 
L 2222 3053 
L 1275 3053 
L 1275 0 
L 697 0 
L 697 3053 
L 147 3053 
L 147 3500 
L 697 3500 
L 697 3744 
Q 697 4328 969 4595 
Q 1241 4863 1831 4863 
L 2375 4863 
z
" transform="scale(0.015625)"/>
       <path id="DejaVuSans-77" d="M 269 3500 
L 844 3500 
L 1563 769 
L 2278 3500 
L 2956 3500 
L 3675 769 
L 4391 3500 
L 4966 3500 
L 4050 0 
L 3372 0 
L 2619 2869 
L 1863 0 
L 1184 0 
L 269 3500 
z
" transform="scale(0.015625)"/>
      </defs>
      <use xlink:href="#DejaVuSans-66"/>
      <use xlink:href="#DejaVuSans-77" transform="translate(33.455078 0)"/>
      <use xlink:href="#DejaVuSans-64" transform="translate(115.242188 0)"/>
     </g>
    </g>
    <g id="line2d_52">
     <path d="M 577.58171 42.769772 
L 585.58171 42.769772 
L 593.58171 42.769772 
" style="fill: none; stroke: #d55e00; stroke-width: 1.1; stroke-linecap: square"/>
    </g>
    <g id="text_31">
     <!-- rev -->
     <g transform="translate(599.98171 45.569772) scale(0.08 -0.08)">
      <defs>
       <path id="DejaVuSans-76" d="M 191 3500 
L 800 3500 
L 1894 563 
L 2988 3500 
L 3597 3500 
L 2284 0 
L 1503 0 
L 191 3500 
z
" transform="scale(0.015625)"/>
      </defs>
      <use xlink:href="#DejaVuSans-72"/>
      <use xlink:href="#DejaVuSans-65" transform="translate(38.863281 0)"/>
      <use xlink:href="#DejaVuSans-76" transform="translate(100.386719 0)"/>
     </g>
    </g>
   </g>
  </g>
  <g id="axes_2">
   <g id="patch_7">
    <path d="M 64.525938 359.246022 
L 621.47921 359.246022 
L 621.47921 197.966022 
L 64.525938 197.966022 
z
" style="fill: #ffffff"/>
   </g>
   <g id="line2d_53">
    <path d="M 115.104806 359.246022 
L 115.104806 197.966022 
" clip-path="url(#paf2da2f14d)" style="fill: none; stroke: #d9d9d9; stroke-width: 0.6; stroke-linecap: square"/>
   </g>
   <g id="line2d_54">
    <path d="M 140.42678 359.246022 
L 140.42678 197.966022 
" clip-path="url(#paf2da2f14d)" style="fill: none; stroke: #d9d9d9; stroke-width: 0.6; stroke-linecap: square"/>
   </g>
   <g id="line2d_55">
    <path d="M 165.748754 359.246022 
L 165.748754 197.966022 
" clip-path="url(#paf2da2f14d)" style="fill: none; stroke: #d9d9d9; stroke-width: 0.6; stroke-linecap: square"/>
   </g>
   <g id="line2d_56">
    <path d="M 191.070729 359.246022 
L 191.070729 197.966022 
" clip-path="url(#paf2da2f14d)" style="fill: none; stroke: #d9d9d9; stroke-width: 0.6; stroke-linecap: square"/>
   </g>
   <g id="line2d_57">
    <path d="M 216.392703 359.246022 
L 216.392703 197.966022 
" clip-path="url(#paf2da2f14d)" style="fill: none; stroke: #d9d9d9; stroke-width: 0.6; stroke-linecap: square"/>
   </g>
   <g id="line2d_58">
    <path d="M 241.714677 359.246022 
L 241.714677 197.966022 
" clip-path="url(#paf2da2f14d)" style="fill: none; stroke: #d9d9d9; stroke-width: 0.6; stroke-linecap: square"/>
   </g>
   <g id="line2d_59">
    <path d="M 267.036651 359.246022 
L 267.036651 197.966022 
" clip-path="url(#paf2da2f14d)" style="fill: none; stroke: #d9d9d9; stroke-width: 0.6; stroke-linecap: square"/>
   </g>
   <g id="line2d_60">
    <path d="M 292.358625 359.246022 
L 292.358625 197.966022 
" clip-path="url(#paf2da2f14d)" style="fill: none; stroke: #d9d9d9; stroke-width: 0.6; stroke-linecap: square"/>
   </g>
   <g id="line2d_61">
    <path d="M 317.6806 359.246022 
L 317.6806 197.966022 
" clip-path="url(#paf2da2f14d)" style="fill: none; stroke: #d9d9d9; stroke-width: 0.6; stroke-linecap: square"/>
   </g>
   <g id="line2d_62">
    <path d="M 343.002574 359.246022 
L 343.002574 197.966022 
" clip-path="url(#paf2da2f14d)" style="fill: none; stroke: #d9d9d9; stroke-width: 0.6; stroke-linecap: square"/>
   </g>
   <g id="line2d_63">
    <path d="M 368.324548 359.246022 
L 368.324548 197.966022 
" clip-path="url(#paf2da2f14d)" style="fill: none; stroke: #d9d9d9; stroke-width: 0.6; stroke-linecap: square"/>
   </g>
   <g id="line2d_64">
    <path d="M 393.646522 359.246022 
L 393.646522 197.966022 
" clip-path="url(#paf2da2f14d)" style="fill: none; stroke: #d9d9d9; stroke-width: 0.6; stroke-linecap: square"/>
   </g>
   <g id="line2d_65">
    <path d="M 418.968496 359.246022 
L 418.968496 197.966022 
" clip-path="url(#paf2da2f14d)" style="fill: none; stroke: #d9d9d9; stroke-width: 0.6; stroke-linecap: square"/>
   </g>
   <g id="line2d_66">
    <path d="M 444.290471 359.246022 
L 444.290471 197.966022 
" clip-path="url(#paf2da2f14d)" style="fill: none; stroke: #d9d9d9; stroke-width: 0.6; stroke-linecap: square"/>
   </g>
   <g id="line2d_67">
    <path d="M 469.612445 359.246022 
L 469.612445 197.966022 
" clip-path="url(#paf2da2f14d)" style="fill: none; stroke: #d9d9d9; stroke-width: 0.6; stroke-linecap: square"/>
   </g>
   <g id="line2d_68">
    <path d="M 494.934419 359.246022 
L 494.934419 197.966022 
" clip-path="url(#paf2da2f14d)" style="fill: none; stroke: #d9d9d9; stroke-width: 0.6; stroke-linecap: square"/>
   </g>
   <g id="line2d_69">
    <path d="M 520.256393 359.246022 
L 520.256393 197.966022 
" clip-path="url(#paf2da2f14d)" style="fill: none; stroke: #d9d9d9; stroke-width: 0.6; stroke-linecap: square"/>
   </g>
   <g id="line2d_70">
    <path d="M 545.578367 359.246022 
L 545.578367 197.966022 
" clip-path="url(#paf2da2f14d)" style="fill: none; stroke: #d9d9d9; stroke-width: 0.6; stroke-linecap: square"/>
   </g>
   <g id="line2d_71">
    <path d="M 570.900342 359.246022 
L 570.900342 197.966022 
" clip-path="url(#paf2da2f14d)" style="fill: none; stroke: #d9d9d9; stroke-width: 0.6; stroke-linecap: square"/>
   </g>
   <g id="line2d_72">
    <path d="M 115.104806 359.246022 
L 115.104806 197.966022 
" clip-path="url(#paf2da2f14d)" style="fill: none; stroke: #d9d9d9; stroke-width: 0.6; stroke-linecap: square"/>
   </g>
   <g id="line2d_73">
    <path d="M 140.42678 359.246022 
L 140.42678 197.966022 
" clip-path="url(#paf2da2f14d)" style="fill: none; stroke: #d9d9d9; stroke-width: 0.6; stroke-linecap: square"/>
   </g>
   <g id="line2d_74">
    <path d="M 165.748754 359.246022 
L 165.748754 197.966022 
" clip-path="url(#paf2da2f14d)" style="fill: none; stroke: #d9d9d9; stroke-width: 0.6; stroke-linecap: square"/>
   </g>
   <g id="line2d_75">
    <path d="M 191.070729 359.246022 
L 191.070729 197.966022 
" clip-path="url(#paf2da2f14d)" style="fill: none; stroke: #d9d9d9; stroke-width: 0.6; stroke-linecap: square"/>
   </g>
   <g id="line2d_76">
    <path d="M 216.392703 359.246022 
L 216.392703 197.966022 
" clip-path="url(#paf2da2f14d)" style="fill: none; stroke: #d9d9d9; stroke-width: 0.6; stroke-linecap: square"/>
   </g>
   <g id="line2d_77">
    <path d="M 241.714677 359.246022 
L 241.714677 197.966022 
" clip-path="url(#paf2da2f14d)" style="fill: none; stroke: #d9d9d9; stroke-width: 0.6; stroke-linecap: square"/>
   </g>
   <g id="line2d_78">
    <path d="M 267.036651 359.246022 
L 267.036651 197.966022 
" clip-path="url(#paf2da2f14d)" style="fill: none; stroke: #d9d9d9; stroke-width: 0.6; stroke-linecap: square"/>
   </g>
   <g id="line2d_79">
    <path d="M 292.358625 359.246022 
L 292.358625 197.966022 
" clip-path="url(#paf2da2f14d)" style="fill: none; stroke: #d9d9d9; stroke-width: 0.6; stroke-linecap: square"/>
   </g>
   <g id="line2d_80">
    <path d="M 317.6806 359.246022 
L 317.6806 197.966022 
" clip-path="url(#paf2da2f14d)" style="fill: none; stroke: #d9d9d9; stroke-width: 0.6; stroke-linecap: square"/>
   </g>
   <g id="line2d_81">
    <path d="M 343.002574 359.246022 
L 343.002574 197.966022 
" clip-path="url(#paf2da2f14d)" style="fill: none; stroke: #d9d9d9; stroke-width: 0.6; stroke-linecap: square"/>
   </g>
   <g id="line2d_82">
    <path d="M 368.324548 359.246022 
L 368.324548 197.966022 
" clip-path="url(#paf2da2f14d)" style="fill: none; stroke: #d9d9d9; stroke-width: 0.6; stroke-linecap: square"/>
   </g>
   <g id="line2d_83">
    <path d="M 393.646522 359.246022 
L 393.646522 197.966022 
" clip-path="url(#paf2da2f14d)" style="fill: none; stroke: #d9d9d9; stroke-width: 0.6; stroke-linecap: square"/>
   </g>
   <g id="line2d_84">
    <path d="M 418.968496 359.246022 
L 418.968496 197.966022 
" clip-path="url(#paf2da2f14d)" style="fill: none; stroke: #d9d9d9; stroke-width: 0.6; stroke-linecap: square"/>
   </g>
   <g id="line2d_85">
    <path d="M 444.290471 359.246022 
L 444.290471 197.966022 
" clip-path="url(#paf2da2f14d)" style="fill: none; stroke: #d9d9d9; stroke-width: 0.6; stroke-linecap: square"/>
   </g>
   <g id="line2d_86">
    <path d="M 469.612445 359.246022 
L 469.612445 197.966022 
" clip-path="url(#paf2da2f14d)" style="fill: none; stroke: #d9d9d9; stroke-width: 0.6; stroke-linecap: square"/>
   </g>
   <g id="line2d_87">
    <path d="M 494.934419 359.246022 
L 494.934419 197.966022 
" clip-path="url(#paf2da2f14d)" style="fill: none; stroke: #d9d9d9; stroke-width: 0.6; stroke-linecap: square"/>
   </g>
   <g id="line2d_88">
    <path d="M 520.256393 359.246022 
L 520.256393 197.966022 
" clip-path="url(#paf2da2f14d)" style="fill: none; stroke: #d9d9d9; stroke-width: 0.6; stroke-linecap: square"/>
   </g>
   <g id="line2d_89">
    <path d="M 545.578367 359.246022 
L 545.578367 197.966022 
" clip-path="url(#paf2da2f14d)" style="fill: none; stroke: #d9d9d9; stroke-width: 0.6; stroke-linecap: square"/>
   </g>
   <g id="line2d_90">
    <path d="M 570.900342 359.246022 
L 570.900342 197.966022 
" clip-path="url(#paf2da2f14d)" style="fill: none; stroke: #d9d9d9; stroke-width: 0.6; stroke-linecap: square"/>
   </g>
   <g id="matplotlib.axis_3">
    <g id="xtick_10">
     <g id="line2d_91">
      <g>
       <use xlink:href="#md883e995d9" x="89.723668" y="359.246022" style="stroke: #000000; stroke-width: 0.8"/>
      </g>
     </g>
     <g id="text_32">
      <!-- 0 -->
      <g transform="translate(86.542418 373.84446) scale(0.1 -0.1)">
       <use xlink:href="#DejaVuSans-30"/>
      </g>
     </g>
    </g>
    <g id="xtick_11">
     <g id="line2d_92">
      <g>
       <use xlink:href="#md883e995d9" x="208.050651" y="359.246022" style="stroke: #000000; stroke-width: 0.8"/>
      </g>
     </g>
     <g id="text_33">
      <!-- 1000 -->
      <g transform="translate(195.325651 373.84446) scale(0.1 -0.1)">
       <use xlink:href="#DejaVuSans-31"/>
       <use xlink:href="#DejaVuSans-30" transform="translate(63.623047 0)"/>
       <use xlink:href="#DejaVuSans-30" transform="translate(127.246094 0)"/>
       <use xlink:href="#DejaVuSans-30" transform="translate(190.869141 0)"/>
      </g>
     </g>
    </g>
    <g id="xtick_12">
     <g id="line2d_93">
      <g>
       <use xlink:href="#md883e995d9" x="326.377633" y="359.246022" style="stroke: #000000; stroke-width: 0.8"/>
      </g>
     </g>
     <g id="text_34">
      <!-- 2000 -->
      <g transform="translate(313.652633 373.84446) scale(0.1 -0.1)">
       <use xlink:href="#DejaVuSans-32"/>
       <use xlink:href="#DejaVuSans-30" transform="translate(63.623047 0)"/>
       <use xlink:href="#DejaVuSans-30" transform="translate(127.246094 0)"/>
       <use xlink:href="#DejaVuSans-30" transform="translate(190.869141 0)"/>
      </g>
     </g>
    </g>
    <g id="xtick_13">
     <g id="line2d_94">
      <g>
       <use xlink:href="#md883e995d9" x="444.704615" y="359.246022" style="stroke: #000000; stroke-width: 0.8"/>
      </g>
     </g>
     <g id="text_35">
      <!-- 3000 -->
      <g transform="translate(431.979615 373.84446) scale(0.1 -0.1)">
       <use xlink:href="#DejaVuSans-33"/>
       <use xlink:href="#DejaVuSans-30" transform="translate(63.623047 0)"/>
       <use xlink:href="#DejaVuSans-30" transform="translate(127.246094 0)"/>
       <use xlink:href="#DejaVuSans-30" transform="translate(190.869141 0)"/>
      </g>
     </g>
    </g>
    <g id="xtick_14">
     <g id="line2d_95">
      <g>
       <use xlink:href="#md883e995d9" x="563.031597" y="359.246022" style="stroke: #000000; stroke-width: 0.8"/>
      </g>
     </g>
     <g id="text_36">
      <!-- 4000 -->
      <g transform="translate(550.306597 373.84446) scale(0.1 -0.1)">
       <use xlink:href="#DejaVuSans-34"/>
       <use xlink:href="#DejaVuSans-30" transform="translate(63.623047 0)"/>
       <use xlink:href="#DejaVuSans-30" transform="translate(127.246094 0)"/>
       <use xlink:href="#DejaVuSans-30" transform="translate(190.869141 0)"/>
      </g>
     </g>
    </g>
    <g id="text_37">
     <!-- cumulative gate visit -->
     <g transform="translate(290.451793 387.522585) scale(0.1 -0.1)">
      <defs>
       <path id="DejaVuSans-75" d="M 544 1381 
L 544 3500 
L 1119 3500 
L 1119 1403 
Q 1119 906 1312 657 
Q 1506 409 1894 409 
Q 2359 409 2629 706 
Q 2900 1003 2900 1516 
L 2900 3500 
L 3475 3500 
L 3475 0 
L 2900 0 
L 2900 538 
Q 2691 219 2414 64 
Q 2138 -91 1772 -91 
Q 1169 -91 856 284 
Q 544 659 544 1381 
z
M 1991 3584 
L 1991 3584 
z
" transform="scale(0.015625)"/>
       <path id="DejaVuSans-6d" d="M 3328 2828 
Q 3544 3216 3844 3400 
Q 4144 3584 4550 3584 
Q 5097 3584 5394 3201 
Q 5691 2819 5691 2113 
L 5691 0 
L 5113 0 
L 5113 2094 
Q 5113 2597 4934 2840 
Q 4756 3084 4391 3084 
Q 3944 3084 3684 2787 
Q 3425 2491 3425 1978 
L 3425 0 
L 2847 0 
L 2847 2094 
Q 2847 2600 2669 2842 
Q 2491 3084 2119 3084 
Q 1678 3084 1418 2786 
Q 1159 2488 1159 1978 
L 1159 0 
L 581 0 
L 581 3500 
L 1159 3500 
L 1159 2956 
Q 1356 3278 1631 3431 
Q 1906 3584 2284 3584 
Q 2666 3584 2933 3390 
Q 3200 3197 3328 2828 
z
" transform="scale(0.015625)"/>
       <path id="DejaVuSans-67" d="M 2906 1791 
Q 2906 2416 2648 2759 
Q 2391 3103 1925 3103 
Q 1463 3103 1205 2759 
Q 947 2416 947 1791 
Q 947 1169 1205 825 
Q 1463 481 1925 481 
Q 2391 481 2648 825 
Q 2906 1169 2906 1791 
z
M 3481 434 
Q 3481 -459 3084 -895 
Q 2688 -1331 1869 -1331 
Q 1566 -1331 1297 -1286 
Q 1028 -1241 775 -1147 
L 775 -588 
Q 1028 -725 1275 -790 
Q 1522 -856 1778 -856 
Q 2344 -856 2625 -561 
Q 2906 -266 2906 331 
L 2906 616 
Q 2728 306 2450 153 
Q 2172 0 1784 0 
Q 1141 0 747 490 
Q 353 981 353 1791 
Q 353 2603 747 3093 
Q 1141 3584 1784 3584 
Q 2172 3584 2450 3431 
Q 2728 3278 2906 2969 
L 2906 3500 
L 3481 3500 
L 3481 434 
z
" transform="scale(0.015625)"/>
      </defs>
      <use xlink:href="#DejaVuSans-63"/>
      <use xlink:href="#DejaVuSans-75" transform="translate(54.980469 0)"/>
      <use xlink:href="#DejaVuSans-6d" transform="translate(118.359375 0)"/>
      <use xlink:href="#DejaVuSans-75" transform="translate(215.771484 0)"/>
      <use xlink:href="#DejaVuSans-6c" transform="translate(279.150391 0)"/>
      <use xlink:href="#DejaVuSans-61" transform="translate(306.933594 0)"/>
      <use xlink:href="#DejaVuSans-74" transform="translate(368.212891 0)"/>
      <use xlink:href="#DejaVuSans-69" transform="translate(407.421875 0)"/>
      <use xlink:href="#DejaVuSans-76" transform="translate(435.205078 0)"/>
      <use xlink:href="#DejaVuSans-65" transform="translate(494.384766 0)"/>
      <use xlink:href="#DejaVuSans-20" transform="translate(555.908203 0)"/>
      <use xlink:href="#DejaVuSans-67" transform="translate(587.695312 0)"/>
      <use xlink:href="#DejaVuSans-61" transform="translate(651.171875 0)"/>
      <use xlink:href="#DejaVuSans-74" transform="translate(712.451172 0)"/>
      <use xlink:href="#DejaVuSans-65" transform="translate(751.660156 0)"/>
      <use xlink:href="#DejaVuSans-20" transform="translate(813.183594 0)"/>
      <use xlink:href="#DejaVuSans-76" transform="translate(844.970703 0)"/>
      <use xlink:href="#DejaVuSans-69" transform="translate(904.150391 0)"/>
      <use xlink:href="#DejaVuSans-73" transform="translate(931.933594 0)"/>
      <use xlink:href="#DejaVuSans-69" transform="translate(984.033203 0)"/>
      <use xlink:href="#DejaVuSans-74" transform="translate(1011.816406 0)"/>
     </g>
    </g>
   </g>
   <g id="matplotlib.axis_4">
    <g id="ytick_9">
     <g id="line2d_96">
      <g>
       <use xlink:href="#maea53bbbca" x="64.525938" y="327.058958" style="stroke: #000000; stroke-width: 0.8"/>
      </g>
     </g>
     <g id="text_38">
      <!-- 1000 -->
      <g transform="translate(32.075938 330.858177) scale(0.1 -0.1)">
       <use xlink:href="#DejaVuSans-31"/>
       <use xlink:href="#DejaVuSans-30" transform="translate(63.623047 0)"/>
       <use xlink:href="#DejaVuSans-30" transform="translate(127.246094 0)"/>
       <use xlink:href="#DejaVuSans-30" transform="translate(190.869141 0)"/>
      </g>
     </g>
    </g>
    <g id="ytick_10">
     <g id="line2d_97">
      <g>
       <use xlink:href="#maea53bbbca" x="64.525938" y="291.678349" style="stroke: #000000; stroke-width: 0.8"/>
      </g>
     </g>
     <g id="text_39">
      <!-- 2000 -->
      <g transform="translate(32.075938 295.477568) scale(0.1 -0.1)">
       <use xlink:href="#DejaVuSans-32"/>
       <use xlink:href="#DejaVuSans-30" transform="translate(63.623047 0)"/>
       <use xlink:href="#DejaVuSans-30" transform="translate(127.246094 0)"/>
       <use xlink:href="#DejaVuSans-30" transform="translate(190.869141 0)"/>
      </g>
     </g>
    </g>
    <g id="ytick_11">
     <g id="line2d_98">
      <g>
       <use xlink:href="#maea53bbbca" x="64.525938" y="256.297741" style="stroke: #000000; stroke-width: 0.8"/>
      </g>
     </g>
     <g id="text_40">
      <!-- 3000 -->
      <g transform="translate(32.075938 260.096959) scale(0.1 -0.1)">
       <use xlink:href="#DejaVuSans-33"/>
       <use xlink:href="#DejaVuSans-30" transform="translate(63.623047 0)"/>
       <use xlink:href="#DejaVuSans-30" transform="translate(127.246094 0)"/>
       <use xlink:href="#DejaVuSans-30" transform="translate(190.869141 0)"/>
      </g>
     </g>
    </g>
    <g id="ytick_12">
     <g id="line2d_99">
      <g>
       <use xlink:href="#maea53bbbca" x="64.525938" y="220.917132" style="stroke: #000000; stroke-width: 0.8"/>
      </g>
     </g>
     <g id="text_41">
      <!-- 4000 -->
      <g transform="translate(32.075938 224.716351) scale(0.1 -0.1)">
       <use xlink:href="#DejaVuSans-34"/>
       <use xlink:href="#DejaVuSans-30" transform="translate(63.623047 0)"/>
       <use xlink:href="#DejaVuSans-30" transform="translate(127.246094 0)"/>
       <use xlink:href="#DejaVuSans-30" transform="translate(190.869141 0)"/>
      </g>
     </g>
    </g>
    <g id="text_42">
     <!-- random init -->
     <g transform="translate(14.798438 307.494304) rotate(-90) scale(0.1 -0.1)">
      <use xlink:href="#DejaVuSans-72"/>
      <use xlink:href="#DejaVuSans-61" transform="translate(41.113281 0)"/>
      <use xlink:href="#DejaVuSans-6e" transform="translate(102.392578 0)"/>
      <use xlink:href="#DejaVuSans-64" transform="translate(165.771484 0)"/>
      <use xlink:href="#DejaVuSans-6f" transform="translate(229.248047 0)"/>
      <use xlink:href="#DejaVuSans-6d" transform="translate(290.429688 0)"/>
      <use xlink:href="#DejaVuSans-20" transform="translate(387.841797 0)"/>
      <use xlink:href="#DejaVuSans-69" transform="translate(419.628906 0)"/>
      <use xlink:href="#DejaVuSans-6e" transform="translate(447.412109 0)"/>
      <use xlink:href="#DejaVuSans-69" transform="translate(510.791016 0)"/>
      <use xlink:href="#DejaVuSans-74" transform="translate(538.574219 0)"/>
     </g>
     <!-- top-10% train loss -->
     <g transform="translate(25.99625 324.190397) rotate(-90) scale(0.1 -0.1)">
      <use xlink:href="#DejaVuSans-74"/>
      <use xlink:href="#DejaVuSans-6f" transform="translate(39.208984 0)"/>
      <use xlink:href="#DejaVuSans-70" transform="translate(100.390625 0)"/>
      <use xlink:href="#DejaVuSans-2d" transform="translate(163.867188 0)"/>
      <use xlink:href="#DejaVuSans-31" transform="translate(199.951172 0)"/>
      <use xlink:href="#DejaVuSans-30" transform="translate(263.574219 0)"/>
      <use xlink:href="#DejaVuSans-25" transform="translate(327.197266 0)"/>
      <use xlink:href="#DejaVuSans-20" transform="translate(422.216797 0)"/>
      <use xlink:href="#DejaVuSans-74" transform="translate(454.003906 0)"/>
      <use xlink:href="#DejaVuSans-72" transform="translate(493.212891 0)"/>
      <use xlink:href="#DejaVuSans-61" transform="translate(534.326172 0)"/>
      <use xlink:href="#DejaVuSans-69" transform="translate(595.605469 0)"/>
      <use xlink:href="#DejaVuSans-6e" transform="translate(623.388672 0)"/>
      <use xlink:href="#DejaVuSans-20" transform="translate(686.767578 0)"/>
      <use xlink:href="#DejaVuSans-6c" transform="translate(718.554688 0)"/>
      <use xlink:href="#DejaVuSans-6f" transform="translate(746.337891 0)"/>
      <use xlink:href="#DejaVuSans-73" transform="translate(807.519531 0)"/>
      <use xlink:href="#DejaVuSans-73" transform="translate(859.619141 0)"/>
     </g>
    </g>
   </g>
   <g id="line2d_100">
    <path d="M 89.841995 205.296931 
L 89.960322 205.296931 
L 90.551957 222.484457 
L 90.788611 257.868596 
L 91.025265 257.868596 
L 91.261919 264.749133 
L 91.380246 264.749133 
L 91.498573 265.2366 
L 91.735227 265.305814 
L 91.853554 265.420049 
L 92.090208 265.919597 
L 92.681843 266.09945 
L 93.036824 266.09945 
L 93.273478 300.862896 
L 93.510132 302.131388 
L 93.628459 302.174551 
L 93.865113 302.383756 
L 94.220094 302.462849 
L 94.575075 302.610754 
L 95.403364 302.610829 
L 95.52169 304.287017 
L 95.758344 304.357524 
L 95.876671 304.951827 
L 95.994998 306.989581 
L 96.349979 307.096001 
L 96.586633 307.564453 
L 97.059941 307.686782 
L 97.178268 307.686782 
L 97.414922 307.895753 
L 97.533249 307.895753 
L 97.769903 308.008625 
L 99.544808 308.07333 
L 99.781462 308.666322 
L 100.136443 308.704953 
L 100.25477 310.166332 
L 100.846405 310.166332 
L 101.083059 310.350101 
L 101.201386 311.648687 
L 101.319713 315.872221 
L 101.556367 315.872221 
L 102.148002 319.130458 
L 102.266328 319.133268 
L 102.384655 320.086218 
L 102.857963 320.086218 
L 103.094617 320.40862 
L 103.686252 320.46339 
L 104.15956 320.576147 
L 104.751195 320.576147 
L 104.987849 321.1318 
L 105.224503 321.728843 
L 105.34283 321.830916 
L 105.579484 322.302166 
L 106.052792 322.561013 
L 106.171119 324.472739 
L 106.644427 324.855852 
L 107.117735 324.855852 
L 109.129293 326.817896 
L 109.602601 326.999148 
L 109.839255 327.319118 
L 109.957582 327.319118 
L 110.194236 327.526349 
L 110.312563 327.527669 
L 110.785871 327.955179 
L 111.022525 327.967969 
L 111.259179 328.119802 
L 111.377506 328.143194 
L 111.969141 328.988838 
L 112.442449 329.057534 
L 112.79743 329.338473 
L 113.034084 330.554101 
L 113.389065 330.554101 
L 113.625719 330.840152 
L 113.862373 330.968196 
L 114.690662 331.019327 
L 114.927316 331.11531 
L 115.755604 331.179979 
L 115.873931 332.662898 
L 119.778722 332.760876 
L 120.015376 332.881343 
L 120.488684 332.962562 
L 120.725338 333.263182 
L 121.080319 333.364748 
L 121.671954 333.637046 
L 121.908608 333.858178 
L 122.500242 333.966151 
L 122.97355 333.966151 
L 123.328531 334.357179 
L 125.34009 334.451243 
L 125.576744 334.939475 
L 126.168379 334.973338 
L 126.286706 335.564267 
L 126.405033 335.569044 
L 126.52336 335.921576 
L 127.233322 335.962516 
L 127.469976 336.121261 
L 129.24488 336.225771 
L 130.664804 336.406292 
L 130.901458 336.704231 
L 131.256439 336.77208 
L 132.321382 336.864866 
L 132.913017 336.980472 
L 133.149671 337.278492 
L 133.386325 337.438832 
L 134.806249 337.571056 
L 135.042903 337.7387 
L 135.397884 337.785574 
L 135.634537 337.914343 
L 135.989518 337.99996 
L 136.69948 338.053703 
L 136.936134 338.346165 
L 137.172788 338.389849 
L 137.409442 338.520211 
L 138.237731 338.623093 
L 139.657655 339.133946 
L 140.959252 339.133946 
L 141.077579 340.751034 
L 143.207464 340.817671 
L 143.444118 340.973111 
L 143.680772 341.059786 
L 144.15408 341.113979 
L 144.509061 341.204908 
L 145.810658 341.209466 
L 146.047312 341.413224 
L 146.283966 341.494902 
L 146.402293 341.494902 
L 146.638947 341.781192 
L 146.993928 341.828461 
L 147.585563 341.896516 
L 147.822217 342.007715 
L 150.070429 342.064975 
L 150.307083 342.14658 
L 154.330201 342.250241 
L 154.921836 342.275875 
L 156.578413 342.381046 
L 157.406702 342.565347 
L 158.234991 342.567568 
L 158.471645 342.746314 
L 163.441378 343.221597 
L 163.796359 343.298893 
L 172.78921 343.395426 
L 173.97248 343.481466 
L 176.694 343.523628 
L 176.930654 343.615674 
L 179.533848 343.720116 
L 179.888829 343.789857 
L 181.782061 343.929353 
L 192.78647 344.356501 
L 201.306013 344.466183 
L 209.588901 345.135622 
L 209.825555 345.245925 
L 212.547076 345.319581 
L 212.902057 345.376238 
L 219.173387 345.484186 
L 220.120003 345.504031 
L 223.433158 345.614911 
L 224.024793 345.707836 
L 224.261447 345.774101 
L 231.834374 345.84413 
L 232.071028 345.912013 
L 238.224031 346.022745 
L 238.697339 346.053182 
L 247.335209 346.147937 
L 247.808517 346.180028 
L 253.014904 346.233338 
L 253.251558 346.35718 
L 253.843193 346.430262 
L 254.079847 346.582994 
L 263.191024 346.691615 
L 264.255967 346.719127 
L 274.905396 346.821206 
L 275.970338 346.854006 
L 278.336878 346.89224 
L 278.573532 347.096585 
L 278.928513 347.096585 
L 279.165167 347.363528 
L 292.536116 347.442828 
L 292.77277 347.519157 
L 301.528967 347.615524 
L 301.883948 347.664429 
L 303.303871 347.713671 
L 303.540525 347.782431 
L 304.368814 347.87337 
L 304.960449 347.971735 
L 323.774439 348.079777 
L 329.690788 348.446276 
L 330.045769 348.495032 
L 346.019912 348.564999 
L 346.256566 348.641651 
L 354.421128 348.696571 
L 354.657782 348.861797 
L 371.105232 348.910406 
L 371.341886 348.977687 
L 378.678159 349.067868 
L 379.269794 349.092168 
L 395.835571 349.201944 
L 423.879066 349.411306 
L 430.742031 349.529824 
L 430.978685 349.678325 
L 454.644082 349.788479 
L 455.47237 349.806448 
L 456.182332 349.865696 
L 456.418986 349.958979 
L 460.20545 349.997044 
L 460.442104 350.12918 
L 477.599516 350.226421 
L 478.191151 350.251647 
L 498.188411 350.398667 
L 498.780046 350.442239 
L 517.594036 350.623429 
L 525.521944 350.705653 
L 525.758598 350.772637 
L 576.875854 350.881978 
L 578.414105 350.898654 
L 596.163152 350.943115 
L 596.163152 350.943115 
" clip-path="url(#paf2da2f14d)" style="fill: none; stroke-dasharray: 4.07,1.76; stroke-dashoffset: 0; stroke: #0072b2; stroke-width: 1.1"/>
   </g>
   <g id="line2d_101">
    <path d="M 89.841995 205.296931 
L 89.960322 205.296931 
L 90.43363 211.281578 
L 90.551957 217.089301 
L 90.670284 217.089301 
L 90.788611 224.483539 
L 91.025265 224.724212 
L 91.498573 231.273318 
L 91.735227 231.273318 
L 92.445189 247.543793 
L 92.80017 247.543793 
L 93.273478 250.603419 
L 93.391805 250.613746 
L 93.510132 251.651985 
L 93.628459 254.965286 
L 94.338421 254.96563 
L 94.693402 257.354516 
L 94.930056 257.437296 
L 95.403364 273.57089 
L 95.758344 273.57089 
L 95.876671 274.294802 
L 96.113325 274.350371 
L 96.349979 274.884962 
L 96.468306 275.958741 
L 96.586633 275.981919 
L 96.823287 279.441976 
L 96.941614 279.606057 
L 97.178268 281.856048 
L 97.769903 281.856048 
L 98.124884 283.311797 
L 98.479865 283.60736 
L 98.834846 284.275059 
L 98.953173 284.293499 
L 99.0715 284.562941 
L 99.189827 287.371304 
L 99.544808 287.872768 
L 99.663135 290.19028 
L 100.136443 290.19028 
L 100.25477 290.839899 
L 101.083059 290.940422 
L 101.43804 291.033315 
L 101.556367 291.751489 
L 102.384655 291.752068 
L 102.502982 292.647447 
L 102.739636 292.647447 
L 103.212944 294.157064 
L 103.331271 294.157064 
L 103.686252 302.660846 
L 103.804579 303.166645 
L 104.041233 304.694575 
L 104.277887 304.749755 
L 104.751195 305.056097 
L 104.987849 305.112463 
L 105.106176 309.000083 
L 105.224503 309.175769 
L 105.579484 309.976165 
L 106.052792 309.998268 
L 106.407773 311.0535 
L 106.762754 311.09013 
L 107.117735 312.229476 
L 107.70937 312.229476 
L 107.946024 312.58861 
L 108.064351 312.641765 
L 108.301005 313.149453 
L 108.892639 313.263617 
L 109.129293 313.462608 
L 109.365947 313.462608 
L 109.720928 313.814293 
L 110.312563 313.924272 
L 110.549217 314.019289 
L 110.904198 314.371918 
L 111.140852 314.443345 
L 111.377506 315.190076 
L 112.324122 315.286074 
L 112.560776 315.468452 
L 113.862373 315.740553 
L 114.099027 317.612463 
L 114.217354 318.843822 
L 114.335681 318.843822 
L 114.572335 320.646217 
L 114.690662 322.282308 
L 114.927316 322.35609 
L 115.992258 322.35609 
L 116.110585 323.107659 
L 116.347239 323.107659 
L 116.583893 323.255764 
L 116.70222 323.723833 
L 117.175528 323.747919 
L 117.412182 324.158072 
L 117.648836 324.966708 
L 118.358798 325.026571 
L 118.595452 325.616447 
L 118.713779 325.782598 
L 118.950433 326.482412 
L 119.542068 326.486905 
L 119.778722 326.963764 
L 120.015376 327.004686 
L 120.25203 327.250797 
L 120.488684 327.327492 
L 121.790281 327.489418 
L 122.263588 327.687388 
L 122.500242 328.001779 
L 122.855223 328.056988 
L 123.683512 328.144493 
L 124.630128 328.62145 
L 126.405033 328.740818 
L 127.114995 328.776484 
L 127.70663 328.776484 
L 127.943284 328.894476 
L 128.179938 328.952079 
L 128.534919 329.333714 
L 128.771573 329.333714 
L 129.008226 329.700189 
L 129.24488 329.981028 
L 129.836515 330.256901 
L 130.42815 330.399445 
L 130.546477 330.753802 
L 130.901458 330.754064 
L 131.138112 330.905287 
L 131.729747 330.954256 
L 131.848074 331.040354 
L 132.084728 331.274688 
L 132.676363 331.296884 
L 133.149671 332.015383 
L 134.806249 332.210935 
L 135.042903 332.684762 
L 135.397884 332.792186 
L 135.634537 332.90417 
L 135.752864 332.916271 
L 136.107845 333.450642 
L 136.462826 333.542655 
L 136.581153 333.58814 
L 136.817807 333.961446 
L 138.356058 334.067716 
L 138.592712 334.153674 
L 141.787541 334.175755 
L 142.024195 334.352461 
L 142.734156 334.416641 
L 142.97081 334.659456 
L 143.680772 334.680349 
L 144.15408 334.909169 
L 144.390734 334.98411 
L 144.627388 334.98411 
L 144.864042 335.137493 
L 145.100696 335.137493 
L 145.33735 335.344514 
L 145.574004 335.344514 
L 145.810658 335.651598 
L 148.295525 335.784571 
L 148.532179 335.873382 
L 149.005486 335.971859 
L 149.478794 336.049744 
L 152.910277 336.257934 
L 153.97522 336.342222 
L 154.211874 336.779724 
L 154.448528 337.387913 
L 155.15849 337.409012 
L 157.051721 337.572868 
L 158.234991 337.843743 
L 158.589972 338.356844 
L 159.536588 338.4443 
L 160.128223 338.469143 
L 162.494762 338.725925 
L 162.96807 339.237611 
L 163.678032 339.33643 
L 178.350578 339.57405 
L 178.468905 340.129838 
L 178.705559 340.129838 
L 178.942213 340.771255 
L 179.770502 340.884731 
L 179.888829 341.270948 
L 180.953772 341.343739 
L 182.018715 341.653336 
L 183.083657 341.68501 
L 185.33187 341.754166 
L 185.568524 341.875941 
L 187.69841 341.976686 
L 188.290045 342.177165 
L 188.526699 342.431109 
L 189.709968 342.468741 
L 194.679702 342.503208 
L 194.916356 342.593458 
L 200.832705 342.677087 
L 201.187686 342.734038 
L 203.317571 342.806935 
L 203.554225 342.907554 
L 203.672552 342.907554 
L 203.790879 343.364489 
L 204.14586 343.364489 
L 204.382514 343.564067 
L 206.039092 343.627126 
L 206.275746 343.695036 
L 206.394073 343.695036 
L 206.630727 343.884638 
L 207.932324 343.995061 
L 213.138711 344.14918 
L 213.848673 344.254203 
L 214.440308 344.266129 
L 214.676962 345.321931 
L 214.913616 345.410569 
L 215.15027 345.504456 
L 215.741904 345.504456 
L 215.860231 345.968484 
L 218.700079 346.060547 
L 220.001676 346.267262 
L 220.23833 346.434463 
L 225.089736 346.544735 
L 225.681371 346.642916 
L 226.273006 346.721757 
L 228.994526 346.798136 
L 229.23118 346.876746 
L 229.467834 346.889199 
L 229.704488 347.084965 
L 231.361066 347.185714 
L 231.716047 347.214886 
L 231.952701 347.449276 
L 233.017644 347.555733 
L 236.094145 347.600054 
L 245.205323 347.695984 
L 245.560304 347.755195 
L 248.045171 347.81767 
L 248.281825 347.891827 
L 254.908136 348.001446 
L 256.328059 348.011025 
L 260.587831 348.121081 
L 275.14205 348.424351 
L 275.615357 348.478534 
L 280.23011 348.560968 
L 280.466764 348.638471 
L 282.596649 348.742581 
L 283.543265 348.791998 
L 291.471173 348.839316 
L 291.707827 348.904799 
L 296.795887 349.013597 
L 298.807446 349.032998 
L 306.143719 349.117537 
L 306.380373 349.242443 
L 347.67649 350.160008 
L 347.913144 350.270757 
L 352.291242 350.325898 
L 352.527896 350.393864 
L 356.314359 350.485156 
L 366.845461 350.579536 
L 367.200442 350.621922 
L 370.276943 350.705224 
L 370.513597 350.784066 
L 374.063407 350.860116 
L 374.418388 350.920804 
L 383.529565 351.014449 
L 383.884546 351.059223 
L 394.533975 351.158274 
L 395.835571 351.225452 
L 408.378232 351.335587 
L 412.164695 351.391644 
L 578.177451 351.825897 
L 578.532432 351.870849 
L 596.163152 351.915113 
L 596.163152 351.915113 
" clip-path="url(#paf2da2f14d)" style="fill: none; stroke-dasharray: 4.07,1.76; stroke-dashoffset: 0; stroke: #d55e00; stroke-width: 1.1"/>
   </g>
   <g id="patch_8">
    <path d="M 64.525938 359.246022 
L 64.525938 197.966022 
" style="fill: none; stroke: #000000; stroke-width: 0.8; stroke-linejoin: miter; stroke-linecap: square"/>
   </g>
   <g id="patch_9">
    <path d="M 621.47921 359.246022 
L 621.47921 197.966022 
" style="fill: none; stroke: #000000; stroke-width: 0.8; stroke-linejoin: miter; stroke-linecap: square"/>
   </g>
   <g id="patch_10">
    <path d="M 64.525937 359.246022 
L 621.47921 359.246022 
" style="fill: none; stroke: #000000; stroke-width: 0.8; stroke-linejoin: miter; stroke-linecap: square"/>
   </g>
   <g id="patch_11">
    <path d="M 64.525937 197.966022 
L 621.47921 197.966022 
" style="fill: none; stroke: #000000; stroke-width: 0.8; stroke-linejoin: miter; stroke-linecap: square"/>
   </g>
   <g id="text_43">
    <!-- H[8] -->
    <g style="fill: #0072b2" transform="translate(92.670284 243.4934) scale(0.06 -0.06)">
     <defs>
      <path id="DejaVuSans-48" d="M 628 4666 
L 1259 4666 
L 1259 2753 
L 3553 2753 
L 3553 4666 
L 4184 4666 
L 4184 0 
L 3553 0 
L 3553 2222 
L 1259 2222 
L 1259 0 
L 628 0 
L 628 4666 
z
" transform="scale(0.015625)"/>
     </defs>
     <use xlink:href="#DejaVuSans-48"/>
     <use xlink:href="#DejaVuSans-5b" transform="translate(75.195312 0)"/>
     <use xlink:href="#DejaVuSans-38" transform="translate(114.208984 0)"/>
     <use xlink:href="#DejaVuSans-5d" transform="translate(177.832031 0)"/>
    </g>
   </g>
   <g id="text_44">
    <!-- CRY[5,8] -->
    <g style="fill: #0072b2" transform="translate(95.155151 285.28517) scale(0.06 -0.06)">
     <defs>
      <path id="DejaVuSans-43" d="M 4122 4306 
L 4122 3641 
Q 3803 3938 3442 4084 
Q 3081 4231 2675 4231 
Q 1875 4231 1450 3742 
Q 1025 3253 1025 2328 
Q 1025 1406 1450 917 
Q 1875 428 2675 428 
Q 3081 428 3442 575 
Q 3803 722 4122 1019 
L 4122 359 
Q 3791 134 3420 21 
Q 3050 -91 2638 -91 
Q 1578 -91 968 557 
Q 359 1206 359 2328 
Q 359 3453 968 4101 
Q 1578 4750 2638 4750 
Q 3056 4750 3426 4639 
Q 3797 4528 4122 4306 
z
" transform="scale(0.015625)"/>
      <path id="DejaVuSans-52" d="M 2841 2188 
Q 3044 2119 3236 1894 
Q 3428 1669 3622 1275 
L 4263 0 
L 3584 0 
L 2988 1197 
Q 2756 1666 2539 1819 
Q 2322 1972 1947 1972 
L 1259 1972 
L 1259 0 
L 628 0 
L 628 4666 
L 2053 4666 
Q 2853 4666 3247 4331 
Q 3641 3997 3641 3322 
Q 3641 2881 3436 2590 
Q 3231 2300 2841 2188 
z
M 1259 4147 
L 1259 2491 
L 2053 2491 
Q 2509 2491 2742 2702 
Q 2975 2913 2975 3322 
Q 2975 3731 2742 3939 
Q 2509 4147 2053 4147 
L 1259 4147 
z
" transform="scale(0.015625)"/>
      <path id="DejaVuSans-59" d="M -13 4666 
L 666 4666 
L 1959 2747 
L 3244 4666 
L 3922 4666 
L 2272 2222 
L 2272 0 
L 1638 0 
L 1638 2222 
L -13 4666 
z
" transform="scale(0.015625)"/>
     </defs>
     <use xlink:href="#DejaVuSans-43"/>
     <use xlink:href="#DejaVuSans-52" transform="translate(69.824219 0)"/>
     <use xlink:href="#DejaVuSans-59" transform="translate(132.931641 0)"/>
     <use xlink:href="#DejaVuSans-5b" transform="translate(194.015625 0)"/>
     <use xlink:href="#DejaVuSans-35" transform="translate(233.029297 0)"/>
     <use xlink:href="#DejaVuSans-2c" transform="translate(296.652344 0)"/>
     <use xlink:href="#DejaVuSans-38" transform="translate(328.439453 0)"/>
     <use xlink:href="#DejaVuSans-5d" transform="translate(392.0625 0)"/>
    </g>
   </g>
   <g id="text_45">
    <!-- CRY[6,8] -->
    <g style="fill: #0072b2" transform="translate(95.273478 294.862896) scale(0.06 -0.06)">
     <use xlink:href="#DejaVuSans-43"/>
     <use xlink:href="#DejaVuSans-52" transform="translate(69.824219 0)"/>
     <use xlink:href="#DejaVuSans-59" transform="translate(132.931641 0)"/>
     <use xlink:href="#DejaVuSans-5b" transform="translate(194.015625 0)"/>
     <use xlink:href="#DejaVuSans-36" transform="translate(233.029297 0)"/>
     <use xlink:href="#DejaVuSans-2c" transform="translate(296.652344 0)"/>
     <use xlink:href="#DejaVuSans-38" transform="translate(328.439453 0)"/>
     <use xlink:href="#DejaVuSans-5d" transform="translate(392.0625 0)"/>
    </g>
   </g>
   <g id="text_46">
    <!-- H[9] -->
    <g style="fill: #0072b2" transform="translate(92.788611 251.868596) scale(0.06 -0.06)">
     <use xlink:href="#DejaVuSans-48"/>
     <use xlink:href="#DejaVuSans-5b" transform="translate(75.195312 0)"/>
     <use xlink:href="#DejaVuSans-39" transform="translate(114.208984 0)"/>
     <use xlink:href="#DejaVuSans-5d" transform="translate(177.832031 0)"/>
    </g>
   </g>
   <g id="text_47">
    <!-- 27.0 dB -->
    <g style="fill: #0072b2" transform="translate(600.163152 350.943115) scale(0.07 -0.07)">
     <use xlink:href="#DejaVuSans-32"/>
     <use xlink:href="#DejaVuSans-37" transform="translate(63.623047 0)"/>
     <use xlink:href="#DejaVuSans-2e" transform="translate(127.246094 0)"/>
     <use xlink:href="#DejaVuSans-30" transform="translate(159.033203 0)"/>
     <use xlink:href="#DejaVuSans-20" transform="translate(222.65625 0)"/>
     <use xlink:href="#DejaVuSans-64" transform="translate(254.443359 0)"/>
     <use xlink:href="#DejaVuSans-42" transform="translate(317.919922 0)"/>
    </g>
   </g>
   <g id="text_48">
    <!-- U4[10,9] -->
    <g style="fill: #d55e00" transform="translate(92.788611 218.483539) scale(0.06 -0.06)">
     <use xlink:href="#DejaVuSans-55"/>
     <use xlink:href="#DejaVuSans-34" transform="translate(73.193359 0)"/>
     <use xlink:href="#DejaVuSans-5b" transform="translate(136.816406 0)"/>
     <use xlink:href="#DejaVuSans-31" transform="translate(175.830078 0)"/>
     <use xlink:href="#DejaVuSans-30" transform="translate(239.453125 0)"/>
     <use xlink:href="#DejaVuSans-2c" transform="translate(303.076172 0)"/>
     <use xlink:href="#DejaVuSans-39" transform="translate(334.863281 0)"/>
     <use xlink:href="#DejaVuSans-5d" transform="translate(398.486328 0)"/>
    </g>
   </g>
   <g id="text_49">
    <!-- U4[14,13] -->
    <g style="fill: #d55e00" transform="translate(97.285037 267.57089) scale(0.06 -0.06)">
     <use xlink:href="#DejaVuSans-55"/>
     <use xlink:href="#DejaVuSans-34" transform="translate(73.193359 0)"/>
     <use xlink:href="#DejaVuSans-5b" transform="translate(136.816406 0)"/>
     <use xlink:href="#DejaVuSans-31" transform="translate(175.830078 0)"/>
     <use xlink:href="#DejaVuSans-34" transform="translate(239.453125 0)"/>
     <use xlink:href="#DejaVuSans-2c" transform="translate(303.076172 0)"/>
     <use xlink:href="#DejaVuSans-31" transform="translate(334.863281 0)"/>
     <use xlink:href="#DejaVuSans-33" transform="translate(398.486328 0)"/>
     <use xlink:href="#DejaVuSans-5d" transform="translate(462.109375 0)"/>
    </g>
   </g>
   <g id="text_50">
    <!-- U4[12,9] -->
    <g style="fill: #d55e00" transform="translate(94.090208 235.74579) scale(0.06 -0.06)">
     <use xlink:href="#DejaVuSans-55"/>
     <use xlink:href="#DejaVuSans-34" transform="translate(73.193359 0)"/>
     <use xlink:href="#DejaVuSans-5b" transform="translate(136.816406 0)"/>
     <use xlink:href="#DejaVuSans-31" transform="translate(175.830078 0)"/>
     <use xlink:href="#DejaVuSans-32" transform="translate(239.453125 0)"/>
     <use xlink:href="#DejaVuSans-2c" transform="translate(303.076172 0)"/>
     <use xlink:href="#DejaVuSans-39" transform="translate(334.863281 0)"/>
     <use xlink:href="#DejaVuSans-5d" transform="translate(398.486328 0)"/>
    </g>
   </g>
   <g id="text_51">
    <!-- CP[10,9] -->
    <g style="fill: #d55e00" transform="translate(92.551957 211.089301) scale(0.06 -0.06)">
     <defs>
      <path id="DejaVuSans-50" d="M 1259 4147 
L 1259 2394 
L 2053 2394 
Q 2494 2394 2734 2622 
Q 2975 2850 2975 3272 
Q 2975 3691 2734 3919 
Q 2494 4147 2053 4147 
L 1259 4147 
z
M 628 4666 
L 2053 4666 
Q 2838 4666 3239 4311 
Q 3641 3956 3641 3272 
Q 3641 2581 3239 2228 
Q 2838 1875 2053 1875 
L 1259 1875 
L 1259 0 
L 628 0 
L 628 4666 
z
" transform="scale(0.015625)"/>
     </defs>
     <use xlink:href="#DejaVuSans-43"/>
     <use xlink:href="#DejaVuSans-50" transform="translate(69.824219 0)"/>
     <use xlink:href="#DejaVuSans-5b" transform="translate(130.126953 0)"/>
     <use xlink:href="#DejaVuSans-31" transform="translate(169.140625 0)"/>
     <use xlink:href="#DejaVuSans-30" transform="translate(232.763672 0)"/>
     <use xlink:href="#DejaVuSans-2c" transform="translate(296.386719 0)"/>
     <use xlink:href="#DejaVuSans-39" transform="translate(328.173828 0)"/>
     <use xlink:href="#DejaVuSans-5d" transform="translate(391.796875 0)"/>
    </g>
   </g>
   <g id="text_52">
    <!-- 27.3 dB -->
    <g style="fill: #d55e00" transform="translate(600.163152 351.915113) scale(0.07 -0.07)">
     <use xlink:href="#DejaVuSans-32"/>
     <use xlink:href="#DejaVuSans-37" transform="translate(63.623047 0)"/>
     <use xlink:href="#DejaVuSans-2e" transform="translate(127.246094 0)"/>
     <use xlink:href="#DejaVuSans-33" transform="translate(159.033203 0)"/>
     <use xlink:href="#DejaVuSans-20" transform="translate(222.65625 0)"/>
     <use xlink:href="#DejaVuSans-64" transform="translate(254.443359 0)"/>
     <use xlink:href="#DejaVuSans-42" transform="translate(317.919922 0)"/>
    </g>
   </g>
   <g id="legend_2">
    <g id="text_53">
     <!-- order -->
     <g transform="translate(585.263585 211.244772) scale(0.08 -0.08)">
      <use xlink:href="#DejaVuSans-6f"/>
      <use xlink:href="#DejaVuSans-72" transform="translate(61.181641 0)"/>
      <use xlink:href="#DejaVuSans-64" transform="translate(100.544922 0)"/>
      <use xlink:href="#DejaVuSans-65" transform="translate(164.021484 0)"/>
      <use xlink:href="#DejaVuSans-72" transform="translate(225.544922 0)"/>
     </g>
    </g>
    <g id="line2d_102">
     <path d="M 577.58171 220.187272 
L 585.58171 220.187272 
L 593.58171 220.187272 
" style="fill: none; stroke-dasharray: 4.07,1.76; stroke-dashoffset: 0; stroke: #0072b2; stroke-width: 1.1"/>
    </g>
    <g id="text_54">
     <!-- fwd -->
     <g transform="translate(599.98171 222.987272) scale(0.08 -0.08)">
      <use xlink:href="#DejaVuSans-66"/>
      <use xlink:href="#DejaVuSans-77" transform="translate(33.455078 0)"/>
      <use xlink:href="#DejaVuSans-64" transform="translate(115.242188 0)"/>
     </g>
    </g>
    <g id="line2d_103">
     <path d="M 577.58171 231.929772 
L 585.58171 231.929772 
L 593.58171 231.929772 
" style="fill: none; stroke-dasharray: 4.07,1.76; stroke-dashoffset: 0; stroke: #d55e00; stroke-width: 1.1"/>
    </g>
    <g id="text_55">
     <!-- rev -->
     <g transform="translate(599.98171 234.729772) scale(0.08 -0.08)">
      <use xlink:href="#DejaVuSans-72"/>
      <use xlink:href="#DejaVuSans-65" transform="translate(38.863281 0)"/>
      <use xlink:href="#DejaVuSans-76" transform="translate(100.386719 0)"/>
     </g>
    </g>
   </g>
  </g>
 </g>
 <defs>
  <clipPath id="pd054364757">
   <rect x="64.525938" y="8.806022" width="556.953273" height="161.28"/>
  </clipPath>
  <clipPath id="paf2da2f14d">
   <rect x="64.525938" y="197.966022" width="556.953273" height="161.28"/>
  </clipPath>
 </defs>
</svg>
