<?xml version="1.0" encoding="utf-8" standalone="no"?>
<!DOCTYPE svg PUBLIC "-//W3C//DTD SVG 1.1//EN"
  "http://www.w3.org/Graphics/SVG/1.1/DTD/svg11.dtd">
<svg xmlns:xlink="http://www.w3.org/1999/xlink" width="748.558125pt" height="200.744165pt" viewBox="0 0 748.558125 200.744165" xmlns="http://www.w3.org/2000/svg" version="1.1">
 <metadata>
  <rdf:RDF xmlns:dc="http://purl.org/dc/elements/1.1/" xmlns:cc="http://creativecommons.org/ns#" xmlns:rdf="http://www.w3.org/1999/02/22-rdf-syntax-ns#">
   <cc:Work>
    <dc:type rdf:resource="http://purl.org/dc/dcmitype/StillImage"/>
    <dc:date>2026-07-02T18:56:38.948629</dc:date>
    <dc:format>image/svg+xml</dc:format>
    <dc:creator>
     <cc:Agent>
      <dc:title>Matplotlib v3.10.9, https://matplotlib.org/</dc:title>
     </cc:Agent>
    </dc:creator>
   </cc:Work>
  </rdf:RDF>
 </metadata>
 <defs>
  <style type="text/css">*{stroke-linejoin: round; stroke-linecap: butt}</style>
 </defs>
 <g id="figure_1">
  <g id="patch_1">
   <path d="M 0 200.744165 
L 748.558125 200.744165 
L 748.558125 0 
L 0 0 
z
" style="fill: #ffffff"/>
  </g>
  <g id="axes_1">
   <g id="patch_2">
    <path d="M 53.328125 163.187915 
L 250.858125 163.187915 
L 250.858125 7.955445 
L 53.328125 7.955445 
z
" style="fill: #ffffff"/>
   </g>
   <g id="matplotlib.axis_1">
    <g id="xtick_1">
     <g id="line2d_1">
      <defs>
       <path id="md98860dcc5" d="M 0 0 
L 0 3.5 
" style="stroke: #000000; stroke-width: 0.8"/>
      </defs>
      <g>
       <use xlink:href="#md98860dcc5" x="100.111546" y="163.187915" style="stroke: #000000; stroke-width: 0.8"/>
      </g>
     </g>
     <g id="text_1">
      <!-- 5 -->
      <g transform="translate(96.930296 177.786353) scale(0.1 -0.1)">
       <defs>
        <path id="DejaVuSans-35" d="M 691 4666 
L 3169 4666 
L 3169 4134 
L 1269 4134 
L 1269 2991 
Q 1406 3038 1543 3061 
Q 1681 3084 1819 3084 
Q 2600 3084 3056 2656 
Q 3513 2228 3513 1497 
Q 3513 744 3044 326 
Q 2575 -91 1722 -91 
Q 1428 -91 1123 -41 
Q 819 9 494 109 
L 494 744 
Q 775 591 1075 516 
Q 1375 441 1709 441 
Q 2250 441 2565 725 
Q 2881 1009 2881 1497 
Q 2881 1984 2565 2268 
Q 2250 2553 1709 2553 
Q 1456 2553 1204 2497 
Q 953 2441 691 2322 
L 691 4666 
z
" transform="scale(0.015625)"/>
       </defs>
       <use xlink:href="#DejaVuSans-35"/>
      </g>
     </g>
    </g>
    <g id="xtick_2">
     <g id="line2d_2">
      <g>
       <use xlink:href="#md98860dcc5" x="147.367527" y="163.187915" style="stroke: #000000; stroke-width: 0.8"/>
      </g>
     </g>
     <g id="text_2">
      <!-- 10 -->
      <g transform="translate(141.005027 177.786353) scale(0.1 -0.1)">
       <defs>
        <path id="DejaVuSans-31" d="M 794 531 
L 1825 531 
L 1825 4091 
L 703 3866 
L 703 4441 
L 1819 4666 
L 2450 4666 
L 2450 531 
L 3481 531 
L 3481 0 
L 794 0 
L 794 531 
z
" transform="scale(0.015625)"/>
        <path id="DejaVuSans-30" d="M 2034 4250 
Q 1547 4250 1301 3770 
Q 1056 3291 1056 2328 
Q 1056 1369 1301 889 
Q 1547 409 2034 409 
Q 2525 409 2770 889 
Q 3016 1369 3016 2328 
Q 3016 3291 2770 3770 
Q 2525 4250 2034 4250 
z
M 2034 4750 
Q 2819 4750 3233 4129 
Q 3647 3509 3647 2328 
Q 3647 1150 3233 529 
Q 2819 -91 2034 -91 
Q 1250 -91 836 529 
Q 422 1150 422 2328 
Q 422 3509 836 4129 
Q 1250 4750 2034 4750 
z
" transform="scale(0.015625)"/>
       </defs>
       <use xlink:href="#DejaVuSans-31"/>
       <use xlink:href="#DejaVuSans-30" transform="translate(63.623047 0)"/>
      </g>
     </g>
    </g>
    <g id="xtick_3">
     <g id="line2d_3">
      <g>
       <use xlink:href="#md98860dcc5" x="194.623508" y="163.187915" style="stroke: #000000; stroke-width: 0.8"/>
      </g>
     </g>
     <g id="text_3">
      <!-- 15 -->
      <g transform="translate(188.261008 177.786353) scale(0.1 -0.1)">
       <use xlink:href="#DejaVuSans-31"/>
       <use xlink:href="#DejaVuSans-35" transform="translate(63.623047 0)"/>
      </g>
     </g>
    </g>
    <g id="xtick_4">
     <g id="line2d_4">
      <g>
       <use xlink:href="#md98860dcc5" x="241.879489" y="163.187915" style="stroke: #000000; stroke-width: 0.8"/>
      </g>
     </g>
     <g id="text_4">
      <!-- 20 -->
      <g transform="translate(235.516989 177.786353) scale(0.1 -0.1)">
       <defs>
        <path id="DejaVuSans-32" d="M 1228 531 
L 3431 531 
L 3431 0 
L 469 0 
L 469 531 
Q 828 903 1448 1529 
Q 2069 2156 2228 2338 
Q 2531 2678 2651 2914 
Q 2772 3150 2772 3378 
Q 2772 3750 2511 3984 
Q 2250 4219 1831 4219 
Q 1534 4219 1204 4116 
Q 875 4013 500 3803 
L 500 4441 
Q 881 4594 1212 4672 
Q 1544 4750 1819 4750 
Q 2544 4750 2975 4387 
Q 3406 4025 3406 3419 
Q 3406 3131 3298 2873 
Q 3191 2616 2906 2266 
Q 2828 2175 2409 1742 
Q 1991 1309 1228 531 
z
" transform="scale(0.015625)"/>
       </defs>
       <use xlink:href="#DejaVuSans-32"/>
       <use xlink:href="#DejaVuSans-30" transform="translate(63.623047 0)"/>
      </g>
     </g>
    </g>
    <g id="text_5">
     <!-- sweep -->
     <g transform="translate(136.072031 191.464478) scale(0.1 -0.1)">
      <defs>
       <path id="DejaVuSans-73" d="M 2834 3397 
L 2834 2853 
Q 2591 2978 2328 3040 
Q 2066 3103 1784 3103 
Q 1356 3103 1142 2972 
Q 928 2841 928 2578 
Q 928 2378 1081 2264 
Q 1234 2150 1697 2047 
L 1894 2003 
Q 2506 1872 2764 1633 
Q 3022 1394 3022 966 
Q 3022 478 2636 193 
Q 2250 -91 1575 -91 
Q 1294 -91 989 -36 
Q 684 19 347 128 
L 347 722 
Q 666 556 975 473 
Q 1284 391 1588 391 
Q 1994 391 2212 530 
Q 2431 669 2431 922 
Q 2431 1156 2273 1281 
Q 2116 1406 1581 1522 
L 1381 1569 
Q 847 1681 609 1914 
Q 372 2147 372 2553 
Q 372 3047 722 3315 
Q 1072 3584 1716 3584 
Q 2034 3584 2315 3537 
Q 2597 3491 2834 3397 
z
" transform="scale(0.015625)"/>
       <path id="DejaVuSans-77" d="M 269 3500 
L 844 3500 
L 1563 769 
L 2278 3500 
L 2956 3500 
L 3675 769 
L 4391 3500 
L 4966 3500 
L 4050 0 
L 3372 0 
L 2619 2869 
L 1863 0 
L 1184 0 
L 269 3500 
z
" transform="scale(0.015625)"/>
       <path id="DejaVuSans-65" d="M 3597 1894 
L 3597 1613 
L 953 1613 
Q 991 1019 1311 708 
Q 1631 397 2203 397 
Q 2534 397 2845 478 
Q 3156 559 3463 722 
L 3463 178 
Q 3153 47 2828 -22 
Q 2503 -91 2169 -91 
Q 1331 -91 842 396 
Q 353 884 353 1716 
Q 353 2575 817 3079 
Q 1281 3584 2069 3584 
Q 2775 3584 3186 3129 
Q 3597 2675 3597 1894 
z
M 3022 2063 
Q 3016 2534 2758 2815 
Q 2500 3097 2075 3097 
Q 1594 3097 1305 2825 
Q 1016 2553 972 2059 
L 3022 2063 
z
" transform="scale(0.015625)"/>
       <path id="DejaVuSans-70" d="M 1159 525 
L 1159 -1331 
L 581 -1331 
L 581 3500 
L 1159 3500 
L 1159 2969 
Q 1341 3281 1617 3432 
Q 1894 3584 2278 3584 
Q 2916 3584 3314 3078 
Q 3713 2572 3713 1747 
Q 3713 922 3314 415 
Q 2916 -91 2278 -91 
Q 1894 -91 1617 61 
Q 1341 213 1159 525 
z
M 3116 1747 
Q 3116 2381 2855 2742 
Q 2594 3103 2138 3103 
Q 1681 3103 1420 2742 
Q 1159 2381 1159 1747 
Q 1159 1113 1420 752 
Q 1681 391 2138 391 
Q 2594 391 2855 752 
Q 3116 1113 3116 1747 
z
" transform="scale(0.015625)"/>
      </defs>
      <use xlink:href="#DejaVuSans-73"/>
      <use xlink:href="#DejaVuSans-77" transform="translate(52.099609 0)"/>
      <use xlink:href="#DejaVuSans-65" transform="translate(133.886719 0)"/>
      <use xlink:href="#DejaVuSans-65" transform="translate(195.410156 0)"/>
      <use xlink:href="#DejaVuSans-70" transform="translate(256.933594 0)"/>
     </g>
    </g>
   </g>
   <g id="matplotlib.axis_2">
    <g id="ytick_1">
     <g id="line2d_5">
      <defs>
       <path id="m3a5ef0590c" d="M 0 0 
L -3.5 0 
" style="stroke: #000000; stroke-width: 0.8"/>
      </defs>
      <g>
       <use xlink:href="#m3a5ef0590c" x="53.328125" y="148.190306" style="stroke: #000000; stroke-width: 0.8"/>
      </g>
     </g>
     <g id="text_6">
      <!-- 200 -->
      <g transform="translate(27.240625 151.989525) scale(0.1 -0.1)">
       <use xlink:href="#DejaVuSans-32"/>
       <use xlink:href="#DejaVuSans-30" transform="translate(63.623047 0)"/>
       <use xlink:href="#DejaVuSans-30" transform="translate(127.246094 0)"/>
      </g>
     </g>
    </g>
    <g id="ytick_2">
     <g id="line2d_6">
      <g>
       <use xlink:href="#m3a5ef0590c" x="53.328125" y="119.639407" style="stroke: #000000; stroke-width: 0.8"/>
      </g>
     </g>
     <g id="text_7">
      <!-- 400 -->
      <g transform="translate(27.240625 123.438625) scale(0.1 -0.1)">
       <defs>
        <path id="DejaVuSans-34" d="M 2419 4116 
L 825 1625 
L 2419 1625 
L 2419 4116 
z
M 2253 4666 
L 3047 4666 
L 3047 1625 
L 3713 1625 
L 3713 1100 
L 3047 1100 
L 3047 0 
L 2419 0 
L 2419 1100 
L 313 1100 
L 313 1709 
L 2253 4666 
z
" transform="scale(0.015625)"/>
       </defs>
       <use xlink:href="#DejaVuSans-34"/>
       <use xlink:href="#DejaVuSans-30" transform="translate(63.623047 0)"/>
       <use xlink:href="#DejaVuSans-30" transform="translate(127.246094 0)"/>
      </g>
     </g>
    </g>
    <g id="ytick_3">
     <g id="line2d_7">
      <g>
       <use xlink:href="#m3a5ef0590c" x="53.328125" y="91.088507" style="stroke: #000000; stroke-width: 0.8"/>
      </g>
     </g>
     <g id="text_8">
      <!-- 600 -->
      <g transform="translate(27.240625 94.887726) scale(0.1 -0.1)">
       <defs>
        <path id="DejaVuSans-36" d="M 2113 2584 
Q 1688 2584 1439 2293 
Q 1191 2003 1191 1497 
Q 1191 994 1439 701 
Q 1688 409 2113 409 
Q 2538 409 2786 701 
Q 3034 994 3034 1497 
Q 3034 2003 2786 2293 
Q 2538 2584 2113 2584 
z
M 3366 4563 
L 3366 3988 
Q 3128 4100 2886 4159 
Q 2644 4219 2406 4219 
Q 1781 4219 1451 3797 
Q 1122 3375 1075 2522 
Q 1259 2794 1537 2939 
Q 1816 3084 2150 3084 
Q 2853 3084 3261 2657 
Q 3669 2231 3669 1497 
Q 3669 778 3244 343 
Q 2819 -91 2113 -91 
Q 1303 -91 875 529 
Q 447 1150 447 2328 
Q 447 3434 972 4092 
Q 1497 4750 2381 4750 
Q 2619 4750 2861 4703 
Q 3103 4656 3366 4563 
z
" transform="scale(0.015625)"/>
       </defs>
       <use xlink:href="#DejaVuSans-36"/>
       <use xlink:href="#DejaVuSans-30" transform="translate(63.623047 0)"/>
       <use xlink:href="#DejaVuSans-30" transform="translate(127.246094 0)"/>
      </g>
     </g>
    </g>
    <g id="ytick_4">
     <g id="line2d_8">
      <g>
       <use xlink:href="#m3a5ef0590c" x="53.328125" y="62.537608" style="stroke: #000000; stroke-width: 0.8"/>
      </g>
     </g>
     <g id="text_9">
      <!-- 800 -->
      <g transform="translate(27.240625 66.336827) scale(0.1 -0.1)">
       <defs>
        <path id="DejaVuSans-38" d="M 2034 2216 
Q 1584 2216 1326 1975 
Q 1069 1734 1069 1313 
Q 1069 891 1326 650 
Q 1584 409 2034 409 
Q 2484 409 2743 651 
Q 3003 894 3003 1313 
Q 3003 1734 2745 1975 
Q 2488 2216 2034 2216 
z
M 1403 2484 
Q 997 2584 770 2862 
Q 544 3141 544 3541 
Q 544 4100 942 4425 
Q 1341 4750 2034 4750 
Q 2731 4750 3128 4425 
Q 3525 4100 3525 3541 
Q 3525 3141 3298 2862 
Q 3072 2584 2669 2484 
Q 3125 2378 3379 2068 
Q 3634 1759 3634 1313 
Q 3634 634 3220 271 
Q 2806 -91 2034 -91 
Q 1263 -91 848 271 
Q 434 634 434 1313 
Q 434 1759 690 2068 
Q 947 2378 1403 2484 
z
M 1172 3481 
Q 1172 3119 1398 2916 
Q 1625 2713 2034 2713 
Q 2441 2713 2670 2916 
Q 2900 3119 2900 3481 
Q 2900 3844 2670 4047 
Q 2441 4250 2034 4250 
Q 1625 4250 1398 4047 
Q 1172 3844 1172 3481 
z
" transform="scale(0.015625)"/>
       </defs>
       <use xlink:href="#DejaVuSans-38"/>
       <use xlink:href="#DejaVuSans-30" transform="translate(63.623047 0)"/>
       <use xlink:href="#DejaVuSans-30" transform="translate(127.246094 0)"/>
      </g>
     </g>
    </g>
    <g id="ytick_5">
     <g id="line2d_9">
      <g>
       <use xlink:href="#m3a5ef0590c" x="53.328125" y="33.986709" style="stroke: #000000; stroke-width: 0.8"/>
      </g>
     </g>
     <g id="text_10">
      <!-- 1000 -->
      <g transform="translate(20.878125 37.785928) scale(0.1 -0.1)">
       <use xlink:href="#DejaVuSans-31"/>
       <use xlink:href="#DejaVuSans-30" transform="translate(63.623047 0)"/>
       <use xlink:href="#DejaVuSans-30" transform="translate(127.246094 0)"/>
       <use xlink:href="#DejaVuSans-30" transform="translate(190.869141 0)"/>
      </g>
     </g>
    </g>
    <g id="text_11">
     <!-- top-10% train loss -->
     <g transform="translate(14.798438 131.156055) rotate(-90) scale(0.1 -0.1)">
      <defs>
       <path id="DejaVuSans-74" d="M 1172 4494 
L 1172 3500 
L 2356 3500 
L 2356 3053 
L 1172 3053 
L 1172 1153 
Q 1172 725 1289 603 
Q 1406 481 1766 481 
L 2356 481 
L 2356 0 
L 1766 0 
Q 1100 0 847 248 
Q 594 497 594 1153 
L 594 3053 
L 172 3053 
L 172 3500 
L 594 3500 
L 594 4494 
L 1172 4494 
z
" transform="scale(0.015625)"/>
       <path id="DejaVuSans-6f" d="M 1959 3097 
Q 1497 3097 1228 2736 
Q 959 2375 959 1747 
Q 959 1119 1226 758 
Q 1494 397 1959 397 
Q 2419 397 2687 759 
Q 2956 1122 2956 1747 
Q 2956 2369 2687 2733 
Q 2419 3097 1959 3097 
z
M 1959 3584 
Q 2709 3584 3137 3096 
Q 3566 2609 3566 1747 
Q 3566 888 3137 398 
Q 2709 -91 1959 -91 
Q 1206 -91 779 398 
Q 353 888 353 1747 
Q 353 2609 779 3096 
Q 1206 3584 1959 3584 
z
" transform="scale(0.015625)"/>
       <path id="DejaVuSans-2d" d="M 313 2009 
L 1997 2009 
L 1997 1497 
L 313 1497 
L 313 2009 
z
" transform="scale(0.015625)"/>
       <path id="DejaVuSans-25" d="M 4653 2053 
Q 4381 2053 4226 1822 
Q 4072 1591 4072 1178 
Q 4072 772 4226 539 
Q 4381 306 4653 306 
Q 4919 306 5073 539 
Q 5228 772 5228 1178 
Q 5228 1588 5073 1820 
Q 4919 2053 4653 2053 
z
M 4653 2450 
Q 5147 2450 5437 2106 
Q 5728 1763 5728 1178 
Q 5728 594 5436 251 
Q 5144 -91 4653 -91 
Q 4153 -91 3862 251 
Q 3572 594 3572 1178 
Q 3572 1766 3864 2108 
Q 4156 2450 4653 2450 
z
M 1428 4353 
Q 1159 4353 1004 4120 
Q 850 3888 850 3481 
Q 850 3069 1003 2837 
Q 1156 2606 1428 2606 
Q 1700 2606 1854 2837 
Q 2009 3069 2009 3481 
Q 2009 3884 1853 4118 
Q 1697 4353 1428 4353 
z
M 4250 4750 
L 4750 4750 
L 1831 -91 
L 1331 -91 
L 4250 4750 
z
M 1428 4750 
Q 1922 4750 2215 4408 
Q 2509 4066 2509 3481 
Q 2509 2891 2217 2550 
Q 1925 2209 1428 2209 
Q 931 2209 642 2551 
Q 353 2894 353 3481 
Q 353 4063 643 4406 
Q 934 4750 1428 4750 
z
" transform="scale(0.015625)"/>
       <path id="DejaVuSans-20" transform="scale(0.015625)"/>
       <path id="DejaVuSans-72" d="M 2631 2963 
Q 2534 3019 2420 3045 
Q 2306 3072 2169 3072 
Q 1681 3072 1420 2755 
Q 1159 2438 1159 1844 
L 1159 0 
L 581 0 
L 581 3500 
L 1159 3500 
L 1159 2956 
Q 1341 3275 1631 3429 
Q 1922 3584 2338 3584 
Q 2397 3584 2469 3576 
Q 2541 3569 2628 3553 
L 2631 2963 
z
" transform="scale(0.015625)"/>
       <path id="DejaVuSans-61" d="M 2194 1759 
Q 1497 1759 1228 1600 
Q 959 1441 959 1056 
Q 959 750 1161 570 
Q 1363 391 1709 391 
Q 2188 391 2477 730 
Q 2766 1069 2766 1631 
L 2766 1759 
L 2194 1759 
z
M 3341 1997 
L 3341 0 
L 2766 0 
L 2766 531 
Q 2569 213 2275 61 
Q 1981 -91 1556 -91 
Q 1019 -91 701 211 
Q 384 513 384 1019 
Q 384 1609 779 1909 
Q 1175 2209 1959 2209 
L 2766 2209 
L 2766 2266 
Q 2766 2663 2505 2880 
Q 2244 3097 1772 3097 
Q 1472 3097 1187 3025 
Q 903 2953 641 2809 
L 641 3341 
Q 956 3463 1253 3523 
Q 1550 3584 1831 3584 
Q 2591 3584 2966 3190 
Q 3341 2797 3341 1997 
z
" transform="scale(0.015625)"/>
       <path id="DejaVuSans-69" d="M 603 3500 
L 1178 3500 
L 1178 0 
L 603 0 
L 603 3500 
z
M 603 4863 
L 1178 4863 
L 1178 4134 
L 603 4134 
L 603 4863 
z
" transform="scale(0.015625)"/>
       <path id="DejaVuSans-6e" d="M 3513 2113 
L 3513 0 
L 2938 0 
L 2938 2094 
Q 2938 2591 2744 2837 
Q 2550 3084 2163 3084 
Q 1697 3084 1428 2787 
Q 1159 2491 1159 1978 
L 1159 0 
L 581 0 
L 581 3500 
L 1159 3500 
L 1159 2956 
Q 1366 3272 1645 3428 
Q 1925 3584 2291 3584 
Q 2894 3584 3203 3211 
Q 3513 2838 3513 2113 
z
" transform="scale(0.015625)"/>
       <path id="DejaVuSans-6c" d="M 603 4863 
L 1178 4863 
L 1178 0 
L 603 0 
L 603 4863 
z
" transform="scale(0.015625)"/>
      </defs>
      <use xlink:href="#DejaVuSans-74"/>
      <use xlink:href="#DejaVuSans-6f" transform="translate(39.208984 0)"/>
      <use xlink:href="#DejaVuSans-70" transform="translate(100.390625 0)"/>
      <use xlink:href="#DejaVuSans-2d" transform="translate(163.867188 0)"/>
      <use xlink:href="#DejaVuSans-31" transform="translate(199.951172 0)"/>
      <use xlink:href="#DejaVuSans-30" transform="translate(263.574219 0)"/>
      <use xlink:href="#DejaVuSans-25" transform="translate(327.197266 0)"/>
      <use xlink:href="#DejaVuSans-20" transform="translate(422.216797 0)"/>
      <use xlink:href="#DejaVuSans-74" transform="translate(454.003906 0)"/>
      <use xlink:href="#DejaVuSans-72" transform="translate(493.212891 0)"/>
      <use xlink:href="#DejaVuSans-61" transform="translate(534.326172 0)"/>
      <use xlink:href="#DejaVuSans-69" transform="translate(595.605469 0)"/>
      <use xlink:href="#DejaVuSans-6e" transform="translate(623.388672 0)"/>
      <use xlink:href="#DejaVuSans-20" transform="translate(686.767578 0)"/>
      <use xlink:href="#DejaVuSans-6c" transform="translate(718.554688 0)"/>
      <use xlink:href="#DejaVuSans-6f" transform="translate(746.337891 0)"/>
      <use xlink:href="#DejaVuSans-73" transform="translate(807.519531 0)"/>
      <use xlink:href="#DejaVuSans-73" transform="translate(859.619141 0)"/>
     </g>
    </g>
   </g>
   <g id="line2d_10">
    <path d="M 62.306761 154.779185 
L 71.757958 155.0791 
L 81.209154 155.273032 
L 90.66035 155.512091 
L 100.111546 155.729895 
L 109.562742 155.834281 
L 119.013938 156.021309 
L 128.465135 156.106295 
L 137.916331 156.114841 
L 147.367527 156.122716 
L 156.818723 156.125578 
L 166.269919 156.128508 
L 175.721115 156.131538 
L 185.172312 156.131853 
L 194.623508 156.131894 
" clip-path="url(#pa4720d010f)" style="fill: none; stroke: #0072b2; stroke-width: 1.3; stroke-linecap: square"/>
    <defs>
     <path id="m9d6db72d10" d="M 0 1.25 
C 0.331504 1.25 0.649475 1.118292 0.883883 0.883883 
C 1.118292 0.649475 1.25 0.331504 1.25 0 
C 1.25 -0.331504 1.118292 -0.649475 0.883883 -0.883883 
C 0.649475 -1.118292 0.331504 -1.25 0 -1.25 
C -0.331504 -1.25 -0.649475 -1.118292 -0.883883 -0.883883 
C -1.118292 -0.649475 -1.25 -0.331504 -1.25 0 
C -1.25 0.331504 -1.118292 0.649475 -0.883883 0.883883 
C -0.649475 1.118292 -0.331504 1.25 0 1.25 
z
" style="stroke: #0072b2"/>
    </defs>
    <g clip-path="url(#pa4720d010f)">
     <use xlink:href="#m9d6db72d10" x="62.306761" y="154.779185" style="fill: #0072b2; stroke: #0072b2"/>
     <use xlink:href="#m9d6db72d10" x="71.757958" y="155.0791" style="fill: #0072b2; stroke: #0072b2"/>
     <use xlink:href="#m9d6db72d10" x="81.209154" y="155.273032" style="fill: #0072b2; stroke: #0072b2"/>
     <use xlink:href="#m9d6db72d10" x="90.66035" y="155.512091" style="fill: #0072b2; stroke: #0072b2"/>
     <use xlink:href="#m9d6db72d10" x="100.111546" y="155.729895" style="fill: #0072b2; stroke: #0072b2"/>
     <use xlink:href="#m9d6db72d10" x="109.562742" y="155.834281" style="fill: #0072b2; stroke: #0072b2"/>
     <use xlink:href="#m9d6db72d10" x="119.013938" y="156.021309" style="fill: #0072b2; stroke: #0072b2"/>
     <use xlink:href="#m9d6db72d10" x="128.465135" y="156.106295" style="fill: #0072b2; stroke: #0072b2"/>
     <use xlink:href="#m9d6db72d10" x="137.916331" y="156.114841" style="fill: #0072b2; stroke: #0072b2"/>
     <use xlink:href="#m9d6db72d10" x="147.367527" y="156.122716" style="fill: #0072b2; stroke: #0072b2"/>
     <use xlink:href="#m9d6db72d10" x="156.818723" y="156.125578" style="fill: #0072b2; stroke: #0072b2"/>
     <use xlink:href="#m9d6db72d10" x="166.269919" y="156.128508" style="fill: #0072b2; stroke: #0072b2"/>
     <use xlink:href="#m9d6db72d10" x="175.721115" y="156.131538" style="fill: #0072b2; stroke: #0072b2"/>
     <use xlink:href="#m9d6db72d10" x="185.172312" y="156.131853" style="fill: #0072b2; stroke: #0072b2"/>
     <use xlink:href="#m9d6db72d10" x="194.623508" y="156.131894" style="fill: #0072b2; stroke: #0072b2"/>
    </g>
   </g>
   <g id="line2d_11">
    <path d="M 62.306761 154.721543 
L 71.757958 154.997158 
L 81.209154 155.352889 
L 90.66035 155.501164 
L 100.111546 155.739194 
L 109.562742 155.865795 
L 119.013938 155.94252 
L 128.465135 156.053022 
L 137.916331 156.094147 
L 147.367527 156.097455 
L 156.818723 156.106191 
L 166.269919 156.112828 
L 175.721115 156.113886 
L 185.172312 156.115108 
L 194.623508 156.115972 
L 204.074704 156.116825 
L 213.5259 156.117159 
L 222.977096 156.117159 
" clip-path="url(#pa4720d010f)" style="fill: none; stroke: #d55e00; stroke-width: 1.3; stroke-linecap: square"/>
    <defs>
     <path id="ma7a59acab6" d="M 0 1.25 
C 0.331504 1.25 0.649475 1.118292 0.883883 0.883883 
C 1.118292 0.649475 1.25 0.331504 1.25 0 
C 1.25 -0.331504 1.118292 -0.649475 0.883883 -0.883883 
C 0.649475 -1.118292 0.331504 -1.25 0 -1.25 
C -0.331504 -1.25 -0.649475 -1.118292 -0.883883 -0.883883 
C -1.118292 -0.649475 -1.25 -0.331504 -1.25 0 
C -1.25 0.331504 -1.118292 0.649475 -0.883883 0.883883 
C -0.649475 1.118292 -0.331504 1.25 0 1.25 
z
" style="stroke: #d55e00"/>
    </defs>
    <g clip-path="url(#pa4720d010f)">
     <use xlink:href="#ma7a59acab6" x="62.306761" y="154.721543" style="fill: #d55e00; stroke: #d55e00"/>
     <use xlink:href="#ma7a59acab6" x="71.757958" y="154.997158" style="fill: #d55e00; stroke: #d55e00"/>
     <use xlink:href="#ma7a59acab6" x="81.209154" y="155.352889" style="fill: #d55e00; stroke: #d55e00"/>
     <use xlink:href="#ma7a59acab6" x="90.66035" y="155.501164" style="fill: #d55e00; stroke: #d55e00"/>
     <use xlink:href="#ma7a59acab6" x="100.111546" y="155.739194" style="fill: #d55e00; stroke: #d55e00"/>
     <use xlink:href="#ma7a59acab6" x="109.562742" y="155.865795" style="fill: #d55e00; stroke: #d55e00"/>
     <use xlink:href="#ma7a59acab6" x="119.013938" y="155.94252" style="fill: #d55e00; stroke: #d55e00"/>
     <use xlink:href="#ma7a59acab6" x="128.465135" y="156.053022" style="fill: #d55e00; stroke: #d55e00"/>
     <use xlink:href="#ma7a59acab6" x="137.916331" y="156.094147" style="fill: #d55e00; stroke: #d55e00"/>
     <use xlink:href="#ma7a59acab6" x="147.367527" y="156.097455" style="fill: #d55e00; stroke: #d55e00"/>
     <use xlink:href="#ma7a59acab6" x="156.818723" y="156.106191" style="fill: #d55e00; stroke: #d55e00"/>
     <use xlink:href="#ma7a59acab6" x="166.269919" y="156.112828" style="fill: #d55e00; stroke: #d55e00"/>
     <use xlink:href="#ma7a59acab6" x="175.721115" y="156.113886" style="fill: #d55e00; stroke: #d55e00"/>
     <use xlink:href="#ma7a59acab6" x="185.172312" y="156.115108" style="fill: #d55e00; stroke: #d55e00"/>
     <use xlink:href="#ma7a59acab6" x="194.623508" y="156.115972" style="fill: #d55e00; stroke: #d55e00"/>
     <use xlink:href="#ma7a59acab6" x="204.074704" y="156.116825" style="fill: #d55e00; stroke: #d55e00"/>
     <use xlink:href="#ma7a59acab6" x="213.5259" y="156.117159" style="fill: #d55e00; stroke: #d55e00"/>
     <use xlink:href="#ma7a59acab6" x="222.977096" y="156.117159" style="fill: #d55e00; stroke: #d55e00"/>
    </g>
   </g>
   <g id="line2d_12">
    <path d="M 62.306761 50.353371 
L 71.757958 82.707147 
L 81.209154 99.61194 
L 90.66035 103.779235 
L 100.111546 108.251711 
L 109.562742 110.718727 
L 119.013938 113.31201 
L 128.465135 116.232019 
L 137.916331 118.572119 
L 147.367527 120.684322 
L 156.818723 122.101813 
L 166.269919 123.25917 
L 175.721115 124.145221 
L 185.172312 125.31289 
L 194.623508 127.087906 
L 204.074704 127.900839 
L 213.5259 129.066628 
L 222.977096 129.782076 
L 232.428292 130.05356 
L 241.879489 130.355054 
" clip-path="url(#pa4720d010f)" style="fill: none; stroke-dasharray: 4.81,2.08; stroke-dashoffset: 0; stroke: #0072b2; stroke-width: 1.3"/>
    <g clip-path="url(#pa4720d010f)">
     <use xlink:href="#m9d6db72d10" x="62.306761" y="50.353371" style="fill: #0072b2; stroke: #0072b2"/>
     <use xlink:href="#m9d6db72d10" x="71.757958" y="82.707147" style="fill: #0072b2; stroke: #0072b2"/>
     <use xlink:href="#m9d6db72d10" x="81.209154" y="99.61194" style="fill: #0072b2; stroke: #0072b2"/>
     <use xlink:href="#m9d6db72d10" x="90.66035" y="103.779235" style="fill: #0072b2; stroke: #0072b2"/>
     <use xlink:href="#m9d6db72d10" x="100.111546" y="108.251711" style="fill: #0072b2; stroke: #0072b2"/>
     <use xlink:href="#m9d6db72d10" x="109.562742" y="110.718727" style="fill: #0072b2; stroke: #0072b2"/>
     <use xlink:href="#m9d6db72d10" x="119.013938" y="113.31201" style="fill: #0072b2; stroke: #0072b2"/>
     <use xlink:href="#m9d6db72d10" x="128.465135" y="116.232019" style="fill: #0072b2; stroke: #0072b2"/>
     <use xlink:href="#m9d6db72d10" x="137.916331" y="118.572119" style="fill: #0072b2; stroke: #0072b2"/>
     <use xlink:href="#m9d6db72d10" x="147.367527" y="120.684322" style="fill: #0072b2; stroke: #0072b2"/>
     <use xlink:href="#m9d6db72d10" x="156.818723" y="122.101813" style="fill: #0072b2; stroke: #0072b2"/>
     <use xlink:href="#m9d6db72d10" x="166.269919" y="123.25917" style="fill: #0072b2; stroke: #0072b2"/>
     <use xlink:href="#m9d6db72d10" x="175.721115" y="124.145221" style="fill: #0072b2; stroke: #0072b2"/>
     <use xlink:href="#m9d6db72d10" x="185.172312" y="125.31289" style="fill: #0072b2; stroke: #0072b2"/>
     <use xlink:href="#m9d6db72d10" x="194.623508" y="127.087906" style="fill: #0072b2; stroke: #0072b2"/>
     <use xlink:href="#m9d6db72d10" x="204.074704" y="127.900839" style="fill: #0072b2; stroke: #0072b2"/>
     <use xlink:href="#m9d6db72d10" x="213.5259" y="129.066628" style="fill: #0072b2; stroke: #0072b2"/>
     <use xlink:href="#m9d6db72d10" x="222.977096" y="129.782076" style="fill: #0072b2; stroke: #0072b2"/>
     <use xlink:href="#m9d6db72d10" x="232.428292" y="130.05356" style="fill: #0072b2; stroke: #0072b2"/>
     <use xlink:href="#m9d6db72d10" x="241.879489" y="130.355054" style="fill: #0072b2; stroke: #0072b2"/>
    </g>
   </g>
   <g id="line2d_13">
    <path d="M 62.306761 15.011466 
L 71.757958 62.612632 
L 81.209154 83.53007 
L 90.66035 96.162457 
L 100.111546 110.283299 
L 109.562742 116.960481 
L 119.013938 119.132776 
L 128.465135 122.13081 
L 137.916331 124.142611 
L 147.367527 126.462154 
L 156.818723 129.059097 
L 166.269919 131.223184 
L 175.721115 132.483564 
L 185.172312 132.80603 
L 194.623508 132.98594 
L 204.074704 133.178425 
L 213.5259 133.309363 
L 222.977096 133.421679 
L 232.428292 133.666624 
L 241.879489 134.276896 
" clip-path="url(#pa4720d010f)" style="fill: none; stroke-dasharray: 4.81,2.08; stroke-dashoffset: 0; stroke: #d55e00; stroke-width: 1.3"/>
    <g clip-path="url(#pa4720d010f)">
     <use xlink:href="#ma7a59acab6" x="62.306761" y="15.011466" style="fill: #d55e00; stroke: #d55e00"/>
     <use xlink:href="#ma7a59acab6" x="71.757958" y="62.612632" style="fill: #d55e00; stroke: #d55e00"/>
     <use xlink:href="#ma7a59acab6" x="81.209154" y="83.53007" style="fill: #d55e00; stroke: #d55e00"/>
     <use xlink:href="#ma7a59acab6" x="90.66035" y="96.162457" style="fill: #d55e00; stroke: #d55e00"/>
     <use xlink:href="#ma7a59acab6" x="100.111546" y="110.283299" style="fill: #d55e00; stroke: #d55e00"/>
     <use xlink:href="#ma7a59acab6" x="109.562742" y="116.960481" style="fill: #d55e00; stroke: #d55e00"/>
     <use xlink:href="#ma7a59acab6" x="119.013938" y="119.132776" style="fill: #d55e00; stroke: #d55e00"/>
     <use xlink:href="#ma7a59acab6" x="128.465135" y="122.13081" style="fill: #d55e00; stroke: #d55e00"/>
     <use xlink:href="#ma7a59acab6" x="137.916331" y="124.142611" style="fill: #d55e00; stroke: #d55e00"/>
     <use xlink:href="#ma7a59acab6" x="147.367527" y="126.462154" style="fill: #d55e00; stroke: #d55e00"/>
     <use xlink:href="#ma7a59acab6" x="156.818723" y="129.059097" style="fill: #d55e00; stroke: #d55e00"/>
     <use xlink:href="#ma7a59acab6" x="166.269919" y="131.223184" style="fill: #d55e00; stroke: #d55e00"/>
     <use xlink:href="#ma7a59acab6" x="175.721115" y="132.483564" style="fill: #d55e00; stroke: #d55e00"/>
     <use xlink:href="#ma7a59acab6" x="185.172312" y="132.80603" style="fill: #d55e00; stroke: #d55e00"/>
     <use xlink:href="#ma7a59acab6" x="194.623508" y="132.98594" style="fill: #d55e00; stroke: #d55e00"/>
     <use xlink:href="#ma7a59acab6" x="204.074704" y="133.178425" style="fill: #d55e00; stroke: #d55e00"/>
     <use xlink:href="#ma7a59acab6" x="213.5259" y="133.309363" style="fill: #d55e00; stroke: #d55e00"/>
     <use xlink:href="#ma7a59acab6" x="222.977096" y="133.421679" style="fill: #d55e00; stroke: #d55e00"/>
     <use xlink:href="#ma7a59acab6" x="232.428292" y="133.666624" style="fill: #d55e00; stroke: #d55e00"/>
     <use xlink:href="#ma7a59acab6" x="241.879489" y="134.276896" style="fill: #d55e00; stroke: #d55e00"/>
    </g>
   </g>
   <g id="patch_3">
    <path d="M 53.328125 163.187915 
L 53.328125 7.955445 
" style="fill: none; stroke: #000000; stroke-width: 0.8; stroke-linejoin: miter; stroke-linecap: square"/>
   </g>
   <g id="patch_4">
    <path d="M 250.858125 163.187915 
L 250.858125 7.955445 
" style="fill: none; stroke: #000000; stroke-width: 0.8; stroke-linejoin: miter; stroke-linecap: square"/>
   </g>
   <g id="patch_5">
    <path d="M 53.328125 163.187915 
L 250.858125 163.187915 
" style="fill: none; stroke: #000000; stroke-width: 0.8; stroke-linejoin: miter; stroke-linecap: square"/>
   </g>
   <g id="patch_6">
    <path d="M 53.328125 7.955445 
L 250.858125 7.955445 
" style="fill: none; stroke: #000000; stroke-width: 0.8; stroke-linejoin: miter; stroke-linecap: square"/>
   </g>
   <g id="legend_1">
    <g id="line2d_14">
     <path d="M 183.074063 17.124351 
L 190.074063 17.124351 
L 197.074063 17.124351 
" style="fill: none; stroke: #0072b2; stroke-width: 1.3; stroke-linecap: square"/>
     <g>
      <use xlink:href="#m9d6db72d10" x="190.074063" y="17.124351" style="fill: #0072b2; stroke: #0072b2"/>
     </g>
    </g>
    <g id="text_12">
     <!-- exact·fwd -->
     <g transform="translate(202.674063 19.574351) scale(0.07 -0.07)">
      <defs>
       <path id="DejaVuSans-78" d="M 3513 3500 
L 2247 1797 
L 3578 0 
L 2900 0 
L 1881 1375 
L 863 0 
L 184 0 
L 1544 1831 
L 300 3500 
L 978 3500 
L 1906 2253 
L 2834 3500 
L 3513 3500 
z
" transform="scale(0.015625)"/>
       <path id="DejaVuSans-63" d="M 3122 3366 
L 3122 2828 
Q 2878 2963 2633 3030 
Q 2388 3097 2138 3097 
Q 1578 3097 1268 2742 
Q 959 2388 959 1747 
Q 959 1106 1268 751 
Q 1578 397 2138 397 
Q 2388 397 2633 464 
Q 2878 531 3122 666 
L 3122 134 
Q 2881 22 2623 -34 
Q 2366 -91 2075 -91 
Q 1284 -91 818 406 
Q 353 903 353 1747 
Q 353 2603 823 3093 
Q 1294 3584 2113 3584 
Q 2378 3584 2631 3529 
Q 2884 3475 3122 3366 
z
" transform="scale(0.015625)"/>
       <path id="DejaVuSans-b7" d="M 684 2619 
L 1344 2619 
L 1344 1825 
L 684 1825 
L 684 2619 
z
" transform="scale(0.015625)"/>
       <path id="DejaVuSans-66" d="M 2375 4863 
L 2375 4384 
L 1825 4384 
Q 1516 4384 1395 4259 
Q 1275 4134 1275 3809 
L 1275 3500 
L 2222 3500 
L 2222 3053 
L 1275 3053 
L 1275 0 
L 697 0 
L 697 3053 
L 147 3053 
L 147 3500 
L 697 3500 
L 697 3744 
Q 697 4328 969 4595 
Q 1241 4863 1831 4863 
L 2375 4863 
z
" transform="scale(0.015625)"/>
       <path id="DejaVuSans-64" d="M 2906 2969 
L 2906 4863 
L 3481 4863 
L 3481 0 
L 2906 0 
L 2906 525 
Q 2725 213 2448 61 
Q 2172 -91 1784 -91 
Q 1150 -91 751 415 
Q 353 922 353 1747 
Q 353 2572 751 3078 
Q 1150 3584 1784 3584 
Q 2172 3584 2448 3432 
Q 2725 3281 2906 2969 
z
M 947 1747 
Q 947 1113 1208 752 
Q 1469 391 1925 391 
Q 2381 391 2643 752 
Q 2906 1113 2906 1747 
Q 2906 2381 2643 2742 
Q 2381 3103 1925 3103 
Q 1469 3103 1208 2742 
Q 947 2381 947 1747 
z
" transform="scale(0.015625)"/>
      </defs>
      <use xlink:href="#DejaVuSans-65"/>
      <use xlink:href="#DejaVuSans-78" transform="translate(59.773438 0)"/>
      <use xlink:href="#DejaVuSans-61" transform="translate(118.953125 0)"/>
      <use xlink:href="#DejaVuSans-63" transform="translate(180.232422 0)"/>
      <use xlink:href="#DejaVuSans-74" transform="translate(235.212891 0)"/>
      <use xlink:href="#DejaVuSans-b7" transform="translate(274.421875 0)"/>
      <use xlink:href="#DejaVuSans-66" transform="translate(306.208984 0)"/>
      <use xlink:href="#DejaVuSans-77" transform="translate(339.664062 0)"/>
      <use xlink:href="#DejaVuSans-64" transform="translate(421.451172 0)"/>
     </g>
    </g>
    <g id="line2d_15">
     <path d="M 183.074063 27.399039 
L 190.074063 27.399039 
L 197.074063 27.399039 
" style="fill: none; stroke: #d55e00; stroke-width: 1.3; stroke-linecap: square"/>
     <g>
      <use xlink:href="#ma7a59acab6" x="190.074063" y="27.399039" style="fill: #d55e00; stroke: #d55e00"/>
     </g>
    </g>
    <g id="text_13">
     <!-- exact·rev -->
     <g transform="translate(202.674063 29.849039) scale(0.07 -0.07)">
      <defs>
       <path id="DejaVuSans-76" d="M 191 3500 
L 800 3500 
L 1894 563 
L 2988 3500 
L 3597 3500 
L 2284 0 
L 1503 0 
L 191 3500 
z
" transform="scale(0.015625)"/>
      </defs>
      <use xlink:href="#DejaVuSans-65"/>
      <use xlink:href="#DejaVuSans-78" transform="translate(59.773438 0)"/>
      <use xlink:href="#DejaVuSans-61" transform="translate(118.953125 0)"/>
      <use xlink:href="#DejaVuSans-63" transform="translate(180.232422 0)"/>
      <use xlink:href="#DejaVuSans-74" transform="translate(235.212891 0)"/>
      <use xlink:href="#DejaVuSans-b7" transform="translate(274.421875 0)"/>
      <use xlink:href="#DejaVuSans-72" transform="translate(306.208984 0)"/>
      <use xlink:href="#DejaVuSans-65" transform="translate(345.072266 0)"/>
      <use xlink:href="#DejaVuSans-76" transform="translate(406.595703 0)"/>
     </g>
    </g>
    <g id="line2d_16">
     <path d="M 183.074063 37.673726 
L 190.074063 37.673726 
L 197.074063 37.673726 
" style="fill: none; stroke-dasharray: 4.81,2.08; stroke-dashoffset: 0; stroke: #0072b2; stroke-width: 1.3"/>
     <g>
      <use xlink:href="#m9d6db72d10" x="190.074063" y="37.673726" style="fill: #0072b2; stroke: #0072b2"/>
     </g>
    </g>
    <g id="text_14">
     <!-- random·fwd -->
     <g transform="translate(202.674063 40.123726) scale(0.07 -0.07)">
      <defs>
       <path id="DejaVuSans-6d" d="M 3328 2828 
Q 3544 3216 3844 3400 
Q 4144 3584 4550 3584 
Q 5097 3584 5394 3201 
Q 5691 2819 5691 2113 
L 5691 0 
L 5113 0 
L 5113 2094 
Q 5113 2597 4934 2840 
Q 4756 3084 4391 3084 
Q 3944 3084 3684 2787 
Q 3425 2491 3425 1978 
L 3425 0 
L 2847 0 
L 2847 2094 
Q 2847 2600 2669 2842 
Q 2491 3084 2119 3084 
Q 1678 3084 1418 2786 
Q 1159 2488 1159 1978 
L 1159 0 
L 581 0 
L 581 3500 
L 1159 3500 
L 1159 2956 
Q 1356 3278 1631 3431 
Q 1906 3584 2284 3584 
Q 2666 3584 2933 3390 
Q 3200 3197 3328 2828 
z
" transform="scale(0.015625)"/>
      </defs>
      <use xlink:href="#DejaVuSans-72"/>
      <use xlink:href="#DejaVuSans-61" transform="translate(41.113281 0)"/>
      <use xlink:href="#DejaVuSans-6e" transform="translate(102.392578 0)"/>
      <use xlink:href="#DejaVuSans-64" transform="translate(165.771484 0)"/>
      <use xlink:href="#DejaVuSans-6f" transform="translate(229.248047 0)"/>
      <use xlink:href="#DejaVuSans-6d" transform="translate(290.429688 0)"/>
      <use xlink:href="#DejaVuSans-b7" transform="translate(387.841797 0)"/>
      <use xlink:href="#DejaVuSans-66" transform="translate(419.628906 0)"/>
      <use xlink:href="#DejaVuSans-77" transform="translate(453.083984 0)"/>
      <use xlink:href="#DejaVuSans-64" transform="translate(534.871094 0)"/>
     </g>
    </g>
    <g id="line2d_17">
     <path d="M 183.074063 47.948414 
L 190.074063 47.948414 
L 197.074063 47.948414 
" style="fill: none; stroke-dasharray: 4.81,2.08; stroke-dashoffset: 0; stroke: #d55e00; stroke-width: 1.3"/>
     <g>
      <use xlink:href="#ma7a59acab6" x="190.074063" y="47.948414" style="fill: #d55e00; stroke: #d55e00"/>
     </g>
    </g>
    <g id="text_15">
     <!-- random·rev -->
     <g transform="translate(202.674063 50.398414) scale(0.07 -0.07)">
      <use xlink:href="#DejaVuSans-72"/>
      <use xlink:href="#DejaVuSans-61" transform="translate(41.113281 0)"/>
      <use xlink:href="#DejaVuSans-6e" transform="translate(102.392578 0)"/>
      <use xlink:href="#DejaVuSans-64" transform="translate(165.771484 0)"/>
      <use xlink:href="#DejaVuSans-6f" transform="translate(229.248047 0)"/>
      <use xlink:href="#DejaVuSans-6d" transform="translate(290.429688 0)"/>
      <use xlink:href="#DejaVuSans-b7" transform="translate(387.841797 0)"/>
      <use xlink:href="#DejaVuSans-72" transform="translate(419.628906 0)"/>
      <use xlink:href="#DejaVuSans-65" transform="translate(458.492188 0)"/>
      <use xlink:href="#DejaVuSans-76" transform="translate(520.015625 0)"/>
     </g>
    </g>
   </g>
  </g>
  <g id="axes_2">
   <g id="patch_7">
    <path d="M 298.578125 163.187915 
L 496.108125 163.187915 
L 496.108125 7.955445 
L 298.578125 7.955445 
z
" style="fill: #ffffff"/>
   </g>
   <g id="matplotlib.axis_3">
    <g id="xtick_5">
     <g id="line2d_18">
      <g>
       <use xlink:href="#md98860dcc5" x="345.361546" y="163.187915" style="stroke: #000000; stroke-width: 0.8"/>
      </g>
     </g>
     <g id="text_16">
      <!-- 5 -->
      <g transform="translate(342.180296 177.786353) scale(0.1 -0.1)">
       <use xlink:href="#DejaVuSans-35"/>
      </g>
     </g>
    </g>
    <g id="xtick_6">
     <g id="line2d_19">
      <g>
       <use xlink:href="#md98860dcc5" x="392.617527" y="163.187915" style="stroke: #000000; stroke-width: 0.8"/>
      </g>
     </g>
     <g id="text_17">
      <!-- 10 -->
      <g transform="translate(386.255027 177.786353) scale(0.1 -0.1)">
       <use xlink:href="#DejaVuSans-31"/>
       <use xlink:href="#DejaVuSans-30" transform="translate(63.623047 0)"/>
      </g>
     </g>
    </g>
    <g id="xtick_7">
     <g id="line2d_20">
      <g>
       <use xlink:href="#md98860dcc5" x="439.873508" y="163.187915" style="stroke: #000000; stroke-width: 0.8"/>
      </g>
     </g>
     <g id="text_18">
      <!-- 15 -->
      <g transform="translate(433.511008 177.786353) scale(0.1 -0.1)">
       <use xlink:href="#DejaVuSans-31"/>
       <use xlink:href="#DejaVuSans-35" transform="translate(63.623047 0)"/>
      </g>
     </g>
    </g>
    <g id="xtick_8">
     <g id="line2d_21">
      <g>
       <use xlink:href="#md98860dcc5" x="487.129489" y="163.187915" style="stroke: #000000; stroke-width: 0.8"/>
      </g>
     </g>
     <g id="text_19">
      <!-- 20 -->
      <g transform="translate(480.766989 177.786353) scale(0.1 -0.1)">
       <use xlink:href="#DejaVuSans-32"/>
       <use xlink:href="#DejaVuSans-30" transform="translate(63.623047 0)"/>
      </g>
     </g>
    </g>
    <g id="text_20">
     <!-- sweep -->
     <g transform="translate(381.322031 191.464478) scale(0.1 -0.1)">
      <use xlink:href="#DejaVuSans-73"/>
      <use xlink:href="#DejaVuSans-77" transform="translate(52.099609 0)"/>
      <use xlink:href="#DejaVuSans-65" transform="translate(133.886719 0)"/>
      <use xlink:href="#DejaVuSans-65" transform="translate(195.410156 0)"/>
      <use xlink:href="#DejaVuSans-70" transform="translate(256.933594 0)"/>
     </g>
    </g>
   </g>
   <g id="matplotlib.axis_4">
    <g id="ytick_6">
     <g id="line2d_22">
      <g>
       <use xlink:href="#m3a5ef0590c" x="298.578125" y="145.438074" style="stroke: #000000; stroke-width: 0.8"/>
      </g>
     </g>
     <g id="text_21">
      <!-- 22 -->
      <g transform="translate(278.853125 149.237293) scale(0.1 -0.1)">
       <use xlink:href="#DejaVuSans-32"/>
       <use xlink:href="#DejaVuSans-32" transform="translate(63.623047 0)"/>
      </g>
     </g>
    </g>
    <g id="ytick_7">
     <g id="line2d_23">
      <g>
       <use xlink:href="#m3a5ef0590c" x="298.578125" y="116.281683" style="stroke: #000000; stroke-width: 0.8"/>
      </g>
     </g>
     <g id="text_22">
      <!-- 24 -->
      <g transform="translate(278.853125 120.080902) scale(0.1 -0.1)">
       <use xlink:href="#DejaVuSans-32"/>
       <use xlink:href="#DejaVuSans-34" transform="translate(63.623047 0)"/>
      </g>
     </g>
    </g>
    <g id="ytick_8">
     <g id="line2d_24">
      <g>
       <use xlink:href="#m3a5ef0590c" x="298.578125" y="87.125292" style="stroke: #000000; stroke-width: 0.8"/>
      </g>
     </g>
     <g id="text_23">
      <!-- 26 -->
      <g transform="translate(278.853125 90.92451) scale(0.1 -0.1)">
       <use xlink:href="#DejaVuSans-32"/>
       <use xlink:href="#DejaVuSans-36" transform="translate(63.623047 0)"/>
      </g>
     </g>
    </g>
    <g id="ytick_9">
     <g id="line2d_25">
      <g>
       <use xlink:href="#m3a5ef0590c" x="298.578125" y="57.9689" style="stroke: #000000; stroke-width: 0.8"/>
      </g>
     </g>
     <g id="text_24">
      <!-- 28 -->
      <g transform="translate(278.853125 61.768119) scale(0.1 -0.1)">
       <use xlink:href="#DejaVuSans-32"/>
       <use xlink:href="#DejaVuSans-38" transform="translate(63.623047 0)"/>
      </g>
     </g>
    </g>
    <g id="ytick_10">
     <g id="line2d_26">
      <g>
       <use xlink:href="#m3a5ef0590c" x="298.578125" y="28.812509" style="stroke: #000000; stroke-width: 0.8"/>
      </g>
     </g>
     <g id="text_25">
      <!-- 30 -->
      <g transform="translate(278.853125 32.611728) scale(0.1 -0.1)">
       <defs>
        <path id="DejaVuSans-33" d="M 2597 2516 
Q 3050 2419 3304 2112 
Q 3559 1806 3559 1356 
Q 3559 666 3084 287 
Q 2609 -91 1734 -91 
Q 1441 -91 1130 -33 
Q 819 25 488 141 
L 488 750 
Q 750 597 1062 519 
Q 1375 441 1716 441 
Q 2309 441 2620 675 
Q 2931 909 2931 1356 
Q 2931 1769 2642 2001 
Q 2353 2234 1838 2234 
L 1294 2234 
L 1294 2753 
L 1863 2753 
Q 2328 2753 2575 2939 
Q 2822 3125 2822 3475 
Q 2822 3834 2567 4026 
Q 2313 4219 1838 4219 
Q 1578 4219 1281 4162 
Q 984 4106 628 3988 
L 628 4550 
Q 988 4650 1302 4700 
Q 1616 4750 1894 4750 
Q 2613 4750 3031 4423 
Q 3450 4097 3450 3541 
Q 3450 3153 3228 2886 
Q 3006 2619 2597 2516 
z
" transform="scale(0.015625)"/>
       </defs>
       <use xlink:href="#DejaVuSans-33"/>
       <use xlink:href="#DejaVuSans-30" transform="translate(63.623047 0)"/>
      </g>
     </g>
    </g>
    <g id="text_26">
     <!-- test PSNR@$\rho{=}.20$ (dB) -->
     <g transform="translate(272.753125 145.32168) rotate(-90) scale(0.1 -0.1)">
      <defs>
       <path id="DejaVuSans-50" d="M 1259 4147 
L 1259 2394 
L 2053 2394 
Q 2494 2394 2734 2622 
Q 2975 2850 2975 3272 
Q 2975 3691 2734 3919 
Q 2494 4147 2053 4147 
L 1259 4147 
z
M 628 4666 
L 2053 4666 
Q 2838 4666 3239 4311 
Q 3641 3956 3641 3272 
Q 3641 2581 3239 2228 
Q 2838 1875 2053 1875 
L 1259 1875 
L 1259 0 
L 628 0 
L 628 4666 
z
" transform="scale(0.015625)"/>
       <path id="DejaVuSans-53" d="M 3425 4513 
L 3425 3897 
Q 3066 4069 2747 4153 
Q 2428 4238 2131 4238 
Q 1616 4238 1336 4038 
Q 1056 3838 1056 3469 
Q 1056 3159 1242 3001 
Q 1428 2844 1947 2747 
L 2328 2669 
Q 3034 2534 3370 2195 
Q 3706 1856 3706 1288 
Q 3706 609 3251 259 
Q 2797 -91 1919 -91 
Q 1588 -91 1214 -16 
Q 841 59 441 206 
L 441 856 
Q 825 641 1194 531 
Q 1563 422 1919 422 
Q 2459 422 2753 634 
Q 3047 847 3047 1241 
Q 3047 1584 2836 1778 
Q 2625 1972 2144 2069 
L 1759 2144 
Q 1053 2284 737 2584 
Q 422 2884 422 3419 
Q 422 4038 858 4394 
Q 1294 4750 2059 4750 
Q 2388 4750 2728 4690 
Q 3069 4631 3425 4513 
z
" transform="scale(0.015625)"/>
       <path id="DejaVuSans-4e" d="M 628 4666 
L 1478 4666 
L 3547 763 
L 3547 4666 
L 4159 4666 
L 4159 0 
L 3309 0 
L 1241 3903 
L 1241 0 
L 628 0 
L 628 4666 
z
" transform="scale(0.015625)"/>
       <path id="DejaVuSans-52" d="M 2841 2188 
Q 3044 2119 3236 1894 
Q 3428 1669 3622 1275 
L 4263 0 
L 3584 0 
L 2988 1197 
Q 2756 1666 2539 1819 
Q 2322 1972 1947 1972 
L 1259 1972 
L 1259 0 
L 628 0 
L 628 4666 
L 2053 4666 
Q 2853 4666 3247 4331 
Q 3641 3997 3641 3322 
Q 3641 2881 3436 2590 
Q 3231 2300 2841 2188 
z
M 1259 4147 
L 1259 2491 
L 2053 2491 
Q 2509 2491 2742 2702 
Q 2975 2913 2975 3322 
Q 2975 3731 2742 3939 
Q 2509 4147 2053 4147 
L 1259 4147 
z
" transform="scale(0.015625)"/>
       <path id="DejaVuSans-40" d="M 2381 1678 
Q 2381 1231 2603 976 
Q 2825 722 3213 722 
Q 3597 722 3817 978 
Q 4038 1234 4038 1678 
Q 4038 2116 3813 2373 
Q 3588 2631 3206 2631 
Q 2828 2631 2604 2375 
Q 2381 2119 2381 1678 
z
M 4084 744 
Q 3897 503 3655 389 
Q 3413 275 3091 275 
Q 2553 275 2217 664 
Q 1881 1053 1881 1678 
Q 1881 2303 2218 2693 
Q 2556 3084 3091 3084 
Q 3413 3084 3656 2967 
Q 3900 2850 4084 2613 
L 4084 3022 
L 4531 3022 
L 4531 722 
Q 4988 791 5245 1139 
Q 5503 1488 5503 2041 
Q 5503 2375 5404 2669 
Q 5306 2963 5106 3213 
Q 4781 3622 4314 3839 
Q 3847 4056 3297 4056 
Q 2913 4056 2559 3954 
Q 2206 3853 1906 3653 
Q 1416 3334 1139 2817 
Q 863 2300 863 1697 
Q 863 1200 1042 765 
Q 1222 331 1563 0 
Q 1891 -325 2322 -495 
Q 2753 -666 3244 -666 
Q 3647 -666 4036 -530 
Q 4425 -394 4750 -141 
L 5031 -488 
Q 4641 -791 4180 -952 
Q 3719 -1113 3244 -1113 
Q 2666 -1113 2153 -908 
Q 1641 -703 1241 -313 
Q 841 78 631 592 
Q 422 1106 422 1697 
Q 422 2266 634 2781 
Q 847 3297 1241 3688 
Q 1644 4084 2172 4295 
Q 2700 4506 3291 4506 
Q 3953 4506 4520 4234 
Q 5088 3963 5472 3463 
Q 5706 3156 5829 2797 
Q 5953 2438 5953 2053 
Q 5953 1231 5456 756 
Q 4959 281 4084 263 
L 4084 744 
z
" transform="scale(0.015625)"/>
       <path id="DejaVuSans-Oblique-3c1" d="M 1203 2875 
Q 1453 3194 1981 3475 
Q 2188 3584 2756 3584 
Q 3394 3584 3694 3078 
Q 3994 2572 3834 1747 
Q 3672 922 3175 415 
Q 2678 -91 2041 -91 
Q 1656 -91 1409 63 
Q 1163 213 1044 525 
L 681 -1331 
L 103 -1331 
L 697 1716 
Q 838 2438 1203 2875 
z
M 3238 1747 
Q 3359 2381 3169 2744 
Q 2978 3103 2522 3103 
Q 2066 3103 1734 2744 
Q 1403 2381 1281 1747 
Q 1156 1113 1347 750 
Q 1538 391 1994 391 
Q 2450 391 2781 750 
Q 3113 1113 3238 1747 
z
" transform="scale(0.015625)"/>
       <path id="DejaVuSans-3d" d="M 678 2906 
L 4684 2906 
L 4684 2381 
L 678 2381 
L 678 2906 
z
M 678 1631 
L 4684 1631 
L 4684 1100 
L 678 1100 
L 678 1631 
z
" transform="scale(0.015625)"/>
       <path id="DejaVuSans-2e" d="M 684 794 
L 1344 794 
L 1344 0 
L 684 0 
L 684 794 
z
" transform="scale(0.015625)"/>
       <path id="DejaVuSans-28" d="M 1984 4856 
Q 1566 4138 1362 3434 
Q 1159 2731 1159 2009 
Q 1159 1288 1364 580 
Q 1569 -128 1984 -844 
L 1484 -844 
Q 1016 -109 783 600 
Q 550 1309 550 2009 
Q 550 2706 781 3412 
Q 1013 4119 1484 4856 
L 1984 4856 
z
" transform="scale(0.015625)"/>
       <path id="DejaVuSans-42" d="M 1259 2228 
L 1259 519 
L 2272 519 
Q 2781 519 3026 730 
Q 3272 941 3272 1375 
Q 3272 1813 3026 2020 
Q 2781 2228 2272 2228 
L 1259 2228 
z
M 1259 4147 
L 1259 2741 
L 2194 2741 
Q 2656 2741 2882 2914 
Q 3109 3088 3109 3444 
Q 3109 3797 2882 3972 
Q 2656 4147 2194 4147 
L 1259 4147 
z
M 628 4666 
L 2241 4666 
Q 2963 4666 3353 4366 
Q 3744 4066 3744 3513 
Q 3744 3084 3544 2831 
Q 3344 2578 2956 2516 
Q 3422 2416 3680 2098 
Q 3938 1781 3938 1306 
Q 3938 681 3513 340 
Q 3088 0 2303 0 
L 628 0 
L 628 4666 
z
" transform="scale(0.015625)"/>
       <path id="DejaVuSans-29" d="M 513 4856 
L 1013 4856 
Q 1481 4119 1714 3412 
Q 1947 2706 1947 2009 
Q 1947 1309 1714 600 
Q 1481 -109 1013 -844 
L 513 -844 
Q 928 -128 1133 580 
Q 1338 1288 1338 2009 
Q 1338 2731 1133 3434 
Q 928 4138 513 4856 
z
" transform="scale(0.015625)"/>
      </defs>
      <use xlink:href="#DejaVuSans-74" transform="translate(0 0.015625)"/>
      <use xlink:href="#DejaVuSans-65" transform="translate(39.208984 0.015625)"/>
      <use xlink:href="#DejaVuSans-73" transform="translate(100.732422 0.015625)"/>
      <use xlink:href="#DejaVuSans-74" transform="translate(152.832031 0.015625)"/>
      <use xlink:href="#DejaVuSans-20" transform="translate(192.041016 0.015625)"/>
      <use xlink:href="#DejaVuSans-50" transform="translate(223.828125 0.015625)"/>
      <use xlink:href="#DejaVuSans-53" transform="translate(284.130859 0.015625)"/>
      <use xlink:href="#DejaVuSans-4e" transform="translate(347.607422 0.015625)"/>
      <use xlink:href="#DejaVuSans-52" transform="translate(418.787109 0.015625)"/>
      <use xlink:href="#DejaVuSans-40" transform="translate(488.269531 0.015625)"/>
      <use xlink:href="#DejaVuSans-Oblique-3c1" transform="translate(588.269531 0.015625)"/>
      <use xlink:href="#DejaVuSans-3d" transform="translate(671.228516 0.015625)"/>
      <use xlink:href="#DejaVuSans-2e" transform="translate(774.5 0.015625)"/>
      <use xlink:href="#DejaVuSans-32" transform="translate(825.769531 0.015625)"/>
      <use xlink:href="#DejaVuSans-30" transform="translate(889.392578 0.015625)"/>
      <use xlink:href="#DejaVuSans-20" transform="translate(953.015625 0.015625)"/>
      <use xlink:href="#DejaVuSans-28" transform="translate(984.802734 0.015625)"/>
      <use xlink:href="#DejaVuSans-64" transform="translate(1023.816406 0.015625)"/>
      <use xlink:href="#DejaVuSans-42" transform="translate(1087.292969 0.015625)"/>
      <use xlink:href="#DejaVuSans-29" transform="translate(1155.896484 0.015625)"/>
     </g>
    </g>
   </g>
   <g id="line2d_27">
    <path d="M 307.556761 20.134119 
L 317.007958 19.20307 
L 326.459154 18.424411 
L 335.91035 17.53109 
L 345.361546 16.710215 
L 354.812742 16.164554 
L 364.263938 15.380661 
L 373.715135 15.135993 
L 383.166331 15.122355 
L 392.617527 15.114385 
L 402.068723 15.078231 
L 411.519919 15.071366 
L 420.971115 15.040781 
L 430.422312 15.011466 
L 439.873508 15.034476 
" clip-path="url(#pef525c6160)" style="fill: none; stroke: #0072b2; stroke-width: 1.3; stroke-linecap: square"/>
    <g clip-path="url(#pef525c6160)">
     <use xlink:href="#m9d6db72d10" x="307.556761" y="20.134119" style="fill: #0072b2; stroke: #0072b2"/>
     <use xlink:href="#m9d6db72d10" x="317.007958" y="19.20307" style="fill: #0072b2; stroke: #0072b2"/>
     <use xlink:href="#m9d6db72d10" x="326.459154" y="18.424411" style="fill: #0072b2; stroke: #0072b2"/>
     <use xlink:href="#m9d6db72d10" x="335.91035" y="17.53109" style="fill: #0072b2; stroke: #0072b2"/>
     <use xlink:href="#m9d6db72d10" x="345.361546" y="16.710215" style="fill: #0072b2; stroke: #0072b2"/>
     <use xlink:href="#m9d6db72d10" x="354.812742" y="16.164554" style="fill: #0072b2; stroke: #0072b2"/>
     <use xlink:href="#m9d6db72d10" x="364.263938" y="15.380661" style="fill: #0072b2; stroke: #0072b2"/>
     <use xlink:href="#m9d6db72d10" x="373.715135" y="15.135993" style="fill: #0072b2; stroke: #0072b2"/>
     <use xlink:href="#m9d6db72d10" x="383.166331" y="15.122355" style="fill: #0072b2; stroke: #0072b2"/>
     <use xlink:href="#m9d6db72d10" x="392.617527" y="15.114385" style="fill: #0072b2; stroke: #0072b2"/>
     <use xlink:href="#m9d6db72d10" x="402.068723" y="15.078231" style="fill: #0072b2; stroke: #0072b2"/>
     <use xlink:href="#m9d6db72d10" x="411.519919" y="15.071366" style="fill: #0072b2; stroke: #0072b2"/>
     <use xlink:href="#m9d6db72d10" x="420.971115" y="15.040781" style="fill: #0072b2; stroke: #0072b2"/>
     <use xlink:href="#m9d6db72d10" x="430.422312" y="15.011466" style="fill: #0072b2; stroke: #0072b2"/>
     <use xlink:href="#m9d6db72d10" x="439.873508" y="15.034476" style="fill: #0072b2; stroke: #0072b2"/>
    </g>
   </g>
   <g id="line2d_28">
    <path d="M 307.556761 20.249358 
L 317.007958 19.861085 
L 326.459154 18.923183 
L 335.91035 18.185839 
L 345.361546 17.384897 
L 354.812742 16.959488 
L 364.263938 16.579802 
L 373.715135 16.078961 
L 383.166331 15.771617 
L 392.617527 15.774736 
L 402.068723 15.730679 
L 411.519919 15.695442 
L 420.971115 15.678684 
L 430.422312 15.685299 
L 439.873508 15.682283 
L 449.324704 15.679374 
L 458.7759 15.68435 
L 468.227096 15.68435 
" clip-path="url(#pef525c6160)" style="fill: none; stroke: #d55e00; stroke-width: 1.3; stroke-linecap: square"/>
    <g clip-path="url(#pef525c6160)">
     <use xlink:href="#ma7a59acab6" x="307.556761" y="20.249358" style="fill: #d55e00; stroke: #d55e00"/>
     <use xlink:href="#ma7a59acab6" x="317.007958" y="19.861085" style="fill: #d55e00; stroke: #d55e00"/>
     <use xlink:href="#ma7a59acab6" x="326.459154" y="18.923183" style="fill: #d55e00; stroke: #d55e00"/>
     <use xlink:href="#ma7a59acab6" x="335.91035" y="18.185839" style="fill: #d55e00; stroke: #d55e00"/>
     <use xlink:href="#ma7a59acab6" x="345.361546" y="17.384897" style="fill: #d55e00; stroke: #d55e00"/>
     <use xlink:href="#ma7a59acab6" x="354.812742" y="16.959488" style="fill: #d55e00; stroke: #d55e00"/>
     <use xlink:href="#ma7a59acab6" x="364.263938" y="16.579802" style="fill: #d55e00; stroke: #d55e00"/>
     <use xlink:href="#ma7a59acab6" x="373.715135" y="16.078961" style="fill: #d55e00; stroke: #d55e00"/>
     <use xlink:href="#ma7a59acab6" x="383.166331" y="15.771617" style="fill: #d55e00; stroke: #d55e00"/>
     <use xlink:href="#ma7a59acab6" x="392.617527" y="15.774736" style="fill: #d55e00; stroke: #d55e00"/>
     <use xlink:href="#ma7a59acab6" x="402.068723" y="15.730679" style="fill: #d55e00; stroke: #d55e00"/>
     <use xlink:href="#ma7a59acab6" x="411.519919" y="15.695442" style="fill: #d55e00; stroke: #d55e00"/>
     <use xlink:href="#ma7a59acab6" x="420.971115" y="15.678684" style="fill: #d55e00; stroke: #d55e00"/>
     <use xlink:href="#ma7a59acab6" x="430.422312" y="15.685299" style="fill: #d55e00; stroke: #d55e00"/>
     <use xlink:href="#ma7a59acab6" x="439.873508" y="15.682283" style="fill: #d55e00; stroke: #d55e00"/>
     <use xlink:href="#ma7a59acab6" x="449.324704" y="15.679374" style="fill: #d55e00; stroke: #d55e00"/>
     <use xlink:href="#ma7a59acab6" x="458.7759" y="15.68435" style="fill: #d55e00; stroke: #d55e00"/>
     <use xlink:href="#ma7a59acab6" x="468.227096" y="15.68435" style="fill: #d55e00; stroke: #d55e00"/>
    </g>
   </g>
   <g id="line2d_29">
    <path d="M 307.556761 139.867668 
L 317.007958 120.486772 
L 326.459154 107.75041 
L 335.91035 103.889576 
L 345.361546 99.995634 
L 354.812742 97.541306 
L 364.263938 94.600611 
L 373.715135 91.172237 
L 383.166331 88.515294 
L 392.617527 86.290413 
L 402.068723 84.315267 
L 411.519919 82.327062 
L 420.971115 81.076415 
L 430.422312 79.711201 
L 439.873508 77.128506 
L 449.324704 76.386288 
L 458.7759 74.481183 
L 468.227096 73.470341 
L 477.678292 72.937524 
L 487.129489 72.4736 
" clip-path="url(#pef525c6160)" style="fill: none; stroke-dasharray: 4.81,2.08; stroke-dashoffset: 0; stroke: #0072b2; stroke-width: 1.3"/>
    <g clip-path="url(#pef525c6160)">
     <use xlink:href="#m9d6db72d10" x="307.556761" y="139.867668" style="fill: #0072b2; stroke: #0072b2"/>
     <use xlink:href="#m9d6db72d10" x="317.007958" y="120.486772" style="fill: #0072b2; stroke: #0072b2"/>
     <use xlink:href="#m9d6db72d10" x="326.459154" y="107.75041" style="fill: #0072b2; stroke: #0072b2"/>
     <use xlink:href="#m9d6db72d10" x="335.91035" y="103.889576" style="fill: #0072b2; stroke: #0072b2"/>
     <use xlink:href="#m9d6db72d10" x="345.361546" y="99.995634" style="fill: #0072b2; stroke: #0072b2"/>
     <use xlink:href="#m9d6db72d10" x="354.812742" y="97.541306" style="fill: #0072b2; stroke: #0072b2"/>
     <use xlink:href="#m9d6db72d10" x="364.263938" y="94.600611" style="fill: #0072b2; stroke: #0072b2"/>
     <use xlink:href="#m9d6db72d10" x="373.715135" y="91.172237" style="fill: #0072b2; stroke: #0072b2"/>
     <use xlink:href="#m9d6db72d10" x="383.166331" y="88.515294" style="fill: #0072b2; stroke: #0072b2"/>
     <use xlink:href="#m9d6db72d10" x="392.617527" y="86.290413" style="fill: #0072b2; stroke: #0072b2"/>
     <use xlink:href="#m9d6db72d10" x="402.068723" y="84.315267" style="fill: #0072b2; stroke: #0072b2"/>
     <use xlink:href="#m9d6db72d10" x="411.519919" y="82.327062" style="fill: #0072b2; stroke: #0072b2"/>
     <use xlink:href="#m9d6db72d10" x="420.971115" y="81.076415" style="fill: #0072b2; stroke: #0072b2"/>
     <use xlink:href="#m9d6db72d10" x="430.422312" y="79.711201" style="fill: #0072b2; stroke: #0072b2"/>
     <use xlink:href="#m9d6db72d10" x="439.873508" y="77.128506" style="fill: #0072b2; stroke: #0072b2"/>
     <use xlink:href="#m9d6db72d10" x="449.324704" y="76.386288" style="fill: #0072b2; stroke: #0072b2"/>
     <use xlink:href="#m9d6db72d10" x="458.7759" y="74.481183" style="fill: #0072b2; stroke: #0072b2"/>
     <use xlink:href="#m9d6db72d10" x="468.227096" y="73.470341" style="fill: #0072b2; stroke: #0072b2"/>
     <use xlink:href="#m9d6db72d10" x="477.678292" y="72.937524" style="fill: #0072b2; stroke: #0072b2"/>
     <use xlink:href="#m9d6db72d10" x="487.129489" y="72.4736" style="fill: #0072b2; stroke: #0072b2"/>
    </g>
   </g>
   <g id="line2d_30">
    <path d="M 307.556761 156.131894 
L 317.007958 134.965589 
L 326.459154 120.986763 
L 335.91035 110.110949 
L 345.361546 97.448308 
L 354.812742 90.806877 
L 364.263938 88.710413 
L 373.715135 84.732087 
L 383.166331 82.216957 
L 392.617527 79.44079 
L 402.068723 75.947747 
L 411.519919 73.039991 
L 420.971115 71.161499 
L 430.422312 70.839198 
L 439.873508 70.605618 
L 449.324704 70.371094 
L 458.7759 70.169745 
L 468.227096 69.936529 
L 477.678292 69.463641 
L 487.129489 68.522136 
" clip-path="url(#pef525c6160)" style="fill: none; stroke-dasharray: 4.81,2.08; stroke-dashoffset: 0; stroke: #d55e00; stroke-width: 1.3"/>
    <g clip-path="url(#pef525c6160)">
     <use xlink:href="#ma7a59acab6" x="307.556761" y="156.131894" style="fill: #d55e00; stroke: #d55e00"/>
     <use xlink:href="#ma7a59acab6" x="317.007958" y="134.965589" style="fill: #d55e00; stroke: #d55e00"/>
     <use xlink:href="#ma7a59acab6" x="326.459154" y="120.986763" style="fill: #d55e00; stroke: #d55e00"/>
     <use xlink:href="#ma7a59acab6" x="335.91035" y="110.110949" style="fill: #d55e00; stroke: #d55e00"/>
     <use xlink:href="#ma7a59acab6" x="345.361546" y="97.448308" style="fill: #d55e00; stroke: #d55e00"/>
     <use xlink:href="#ma7a59acab6" x="354.812742" y="90.806877" style="fill: #d55e00; stroke: #d55e00"/>
     <use xlink:href="#ma7a59acab6" x="364.263938" y="88.710413" style="fill: #d55e00; stroke: #d55e00"/>
     <use xlink:href="#ma7a59acab6" x="373.715135" y="84.732087" style="fill: #d55e00; stroke: #d55e00"/>
     <use xlink:href="#ma7a59acab6" x="383.166331" y="82.216957" style="fill: #d55e00; stroke: #d55e00"/>
     <use xlink:href="#ma7a59acab6" x="392.617527" y="79.44079" style="fill: #d55e00; stroke: #d55e00"/>
     <use xlink:href="#ma7a59acab6" x="402.068723" y="75.947747" style="fill: #d55e00; stroke: #d55e00"/>
     <use xlink:href="#ma7a59acab6" x="411.519919" y="73.039991" style="fill: #d55e00; stroke: #d55e00"/>
     <use xlink:href="#ma7a59acab6" x="420.971115" y="71.161499" style="fill: #d55e00; stroke: #d55e00"/>
     <use xlink:href="#ma7a59acab6" x="430.422312" y="70.839198" style="fill: #d55e00; stroke: #d55e00"/>
     <use xlink:href="#ma7a59acab6" x="439.873508" y="70.605618" style="fill: #d55e00; stroke: #d55e00"/>
     <use xlink:href="#ma7a59acab6" x="449.324704" y="70.371094" style="fill: #d55e00; stroke: #d55e00"/>
     <use xlink:href="#ma7a59acab6" x="458.7759" y="70.169745" style="fill: #d55e00; stroke: #d55e00"/>
     <use xlink:href="#ma7a59acab6" x="468.227096" y="69.936529" style="fill: #d55e00; stroke: #d55e00"/>
     <use xlink:href="#ma7a59acab6" x="477.678292" y="69.463641" style="fill: #d55e00; stroke: #d55e00"/>
     <use xlink:href="#ma7a59acab6" x="487.129489" y="68.522136" style="fill: #d55e00; stroke: #d55e00"/>
    </g>
   </g>
   <g id="patch_8">
    <path d="M 298.578125 163.187915 
L 298.578125 7.955445 
" style="fill: none; stroke: #000000; stroke-width: 0.8; stroke-linejoin: miter; stroke-linecap: square"/>
   </g>
   <g id="patch_9">
    <path d="M 496.108125 163.187915 
L 496.108125 7.955445 
" style="fill: none; stroke: #000000; stroke-width: 0.8; stroke-linejoin: miter; stroke-linecap: square"/>
   </g>
   <g id="patch_10">
    <path d="M 298.578125 163.187915 
L 496.108125 163.187915 
" style="fill: none; stroke: #000000; stroke-width: 0.8; stroke-linejoin: miter; stroke-linecap: square"/>
   </g>
   <g id="patch_11">
    <path d="M 298.578125 7.955445 
L 496.108125 7.955445 
" style="fill: none; stroke: #000000; stroke-width: 0.8; stroke-linejoin: miter; stroke-linecap: square"/>
   </g>
  </g>
  <g id="axes_3">
   <g id="patch_12">
    <path d="M 543.828125 163.187915 
L 741.358125 163.187915 
L 741.358125 7.955445 
L 543.828125 7.955445 
z
" style="fill: #ffffff"/>
   </g>
   <g id="matplotlib.axis_5">
    <g id="xtick_9">
     <g id="line2d_31">
      <g>
       <use xlink:href="#md98860dcc5" x="590.611546" y="163.187915" style="stroke: #000000; stroke-width: 0.8"/>
      </g>
     </g>
     <g id="text_27">
      <!-- 5 -->
      <g transform="translate(587.430296 177.786353) scale(0.1 -0.1)">
       <use xlink:href="#DejaVuSans-35"/>
      </g>
     </g>
    </g>
    <g id="xtick_10">
     <g id="line2d_32">
      <g>
       <use xlink:href="#md98860dcc5" x="637.867527" y="163.187915" style="stroke: #000000; stroke-width: 0.8"/>
      </g>
     </g>
     <g id="text_28">
      <!-- 10 -->
      <g transform="translate(631.505027 177.786353) scale(0.1 -0.1)">
       <use xlink:href="#DejaVuSans-31"/>
       <use xlink:href="#DejaVuSans-30" transform="translate(63.623047 0)"/>
      </g>
     </g>
    </g>
    <g id="xtick_11">
     <g id="line2d_33">
      <g>
       <use xlink:href="#md98860dcc5" x="685.123508" y="163.187915" style="stroke: #000000; stroke-width: 0.8"/>
      </g>
     </g>
     <g id="text_29">
      <!-- 15 -->
      <g transform="translate(678.761008 177.786353) scale(0.1 -0.1)">
       <use xlink:href="#DejaVuSans-31"/>
       <use xlink:href="#DejaVuSans-35" transform="translate(63.623047 0)"/>
      </g>
     </g>
    </g>
    <g id="xtick_12">
     <g id="line2d_34">
      <g>
       <use xlink:href="#md98860dcc5" x="732.379489" y="163.187915" style="stroke: #000000; stroke-width: 0.8"/>
      </g>
     </g>
     <g id="text_30">
      <!-- 20 -->
      <g transform="translate(726.016989 177.786353) scale(0.1 -0.1)">
       <use xlink:href="#DejaVuSans-32"/>
       <use xlink:href="#DejaVuSans-30" transform="translate(63.623047 0)"/>
      </g>
     </g>
    </g>
    <g id="text_31">
     <!-- sweep -->
     <g transform="translate(626.572031 191.464478) scale(0.1 -0.1)">
      <use xlink:href="#DejaVuSans-73"/>
      <use xlink:href="#DejaVuSans-77" transform="translate(52.099609 0)"/>
      <use xlink:href="#DejaVuSans-65" transform="translate(133.886719 0)"/>
      <use xlink:href="#DejaVuSans-65" transform="translate(195.410156 0)"/>
      <use xlink:href="#DejaVuSans-70" transform="translate(256.933594 0)"/>
     </g>
    </g>
   </g>
   <g id="matplotlib.axis_6">
    <g id="ytick_11">
     <g id="line2d_35">
      <g>
       <use xlink:href="#m3a5ef0590c" x="543.828125" y="163.187915" style="stroke: #000000; stroke-width: 0.8"/>
      </g>
     </g>
     <g id="text_32">
      <!-- 0.0 -->
      <g transform="translate(520.925 166.987134) scale(0.1 -0.1)">
       <use xlink:href="#DejaVuSans-30"/>
       <use xlink:href="#DejaVuSans-2e" transform="translate(63.623047 0)"/>
       <use xlink:href="#DejaVuSans-30" transform="translate(95.410156 0)"/>
      </g>
     </g>
    </g>
    <g id="ytick_12">
     <g id="line2d_36">
      <g>
       <use xlink:href="#m3a5ef0590c" x="543.828125" y="132.750176" style="stroke: #000000; stroke-width: 0.8"/>
      </g>
     </g>
     <g id="text_33">
      <!-- 0.2 -->
      <g transform="translate(520.925 136.549395) scale(0.1 -0.1)">
       <use xlink:href="#DejaVuSans-30"/>
       <use xlink:href="#DejaVuSans-2e" transform="translate(63.623047 0)"/>
       <use xlink:href="#DejaVuSans-32" transform="translate(95.410156 0)"/>
      </g>
     </g>
    </g>
    <g id="ytick_13">
     <g id="line2d_37">
      <g>
       <use xlink:href="#m3a5ef0590c" x="543.828125" y="102.312437" style="stroke: #000000; stroke-width: 0.8"/>
      </g>
     </g>
     <g id="text_34">
      <!-- 0.4 -->
      <g transform="translate(520.925 106.111655) scale(0.1 -0.1)">
       <use xlink:href="#DejaVuSans-30"/>
       <use xlink:href="#DejaVuSans-2e" transform="translate(63.623047 0)"/>
       <use xlink:href="#DejaVuSans-34" transform="translate(95.410156 0)"/>
      </g>
     </g>
    </g>
    <g id="ytick_14">
     <g id="line2d_38">
      <g>
       <use xlink:href="#m3a5ef0590c" x="543.828125" y="71.874697" style="stroke: #000000; stroke-width: 0.8"/>
      </g>
     </g>
     <g id="text_35">
      <!-- 0.6 -->
      <g transform="translate(520.925 75.673916) scale(0.1 -0.1)">
       <use xlink:href="#DejaVuSans-30"/>
       <use xlink:href="#DejaVuSans-2e" transform="translate(63.623047 0)"/>
       <use xlink:href="#DejaVuSans-36" transform="translate(95.410156 0)"/>
      </g>
     </g>
    </g>
    <g id="ytick_15">
     <g id="line2d_39">
      <g>
       <use xlink:href="#m3a5ef0590c" x="543.828125" y="41.436958" style="stroke: #000000; stroke-width: 0.8"/>
      </g>
     </g>
     <g id="text_36">
      <!-- 0.8 -->
      <g transform="translate(520.925 45.236177) scale(0.1 -0.1)">
       <use xlink:href="#DejaVuSans-30"/>
       <use xlink:href="#DejaVuSans-2e" transform="translate(63.623047 0)"/>
       <use xlink:href="#DejaVuSans-38" transform="translate(95.410156 0)"/>
      </g>
     </g>
    </g>
    <g id="ytick_16">
     <g id="line2d_40">
      <g>
       <use xlink:href="#m3a5ef0590c" x="543.828125" y="10.999219" style="stroke: #000000; stroke-width: 0.8"/>
      </g>
     </g>
     <g id="text_37">
      <!-- 1.0 -->
      <g transform="translate(520.925 14.798437) scale(0.1 -0.1)">
       <use xlink:href="#DejaVuSans-31"/>
       <use xlink:href="#DejaVuSans-2e" transform="translate(63.623047 0)"/>
       <use xlink:href="#DejaVuSans-30" transform="translate(95.410156 0)"/>
      </g>
     </g>
    </g>
    <g id="text_38">
     <!-- accepted fraction -->
     <g transform="translate(514.845313 129.391211) rotate(-90) scale(0.1 -0.1)">
      <use xlink:href="#DejaVuSans-61"/>
      <use xlink:href="#DejaVuSans-63" transform="translate(61.279297 0)"/>
      <use xlink:href="#DejaVuSans-63" transform="translate(116.259766 0)"/>
      <use xlink:href="#DejaVuSans-65" transform="translate(171.240234 0)"/>
      <use xlink:href="#DejaVuSans-70" transform="translate(232.763672 0)"/>
      <use xlink:href="#DejaVuSans-74" transform="translate(296.240234 0)"/>
      <use xlink:href="#DejaVuSans-65" transform="translate(335.449219 0)"/>
      <use xlink:href="#DejaVuSans-64" transform="translate(396.972656 0)"/>
      <use xlink:href="#DejaVuSans-20" transform="translate(460.449219 0)"/>
      <use xlink:href="#DejaVuSans-66" transform="translate(492.236328 0)"/>
      <use xlink:href="#DejaVuSans-72" transform="translate(527.441406 0)"/>
      <use xlink:href="#DejaVuSans-61" transform="translate(568.554688 0)"/>
      <use xlink:href="#DejaVuSans-63" transform="translate(629.833984 0)"/>
      <use xlink:href="#DejaVuSans-74" transform="translate(684.814453 0)"/>
      <use xlink:href="#DejaVuSans-69" transform="translate(724.023438 0)"/>
      <use xlink:href="#DejaVuSans-6f" transform="translate(751.806641 0)"/>
      <use xlink:href="#DejaVuSans-6e" transform="translate(812.988281 0)"/>
     </g>
    </g>
   </g>
   <g id="line2d_41">
    <path d="M 552.806761 149.675835 
L 562.257958 154.65397 
L 571.709154 152.520483 
L 581.16035 155.365132 
L 590.611546 152.520483 
L 600.062742 156.076294 
L 609.513938 157.498618 
L 618.965135 158.920943 
L 628.416331 158.920943 
L 637.867527 158.920943 
L 647.318723 158.20978 
L 656.769919 158.20978 
L 666.221115 159.632105 
L 675.672312 161.054429 
L 685.123508 161.765591 
" clip-path="url(#p0a02450089)" style="fill: none; stroke: #0072b2; stroke-width: 1.3; stroke-linecap: square"/>
    <g clip-path="url(#p0a02450089)">
     <use xlink:href="#m9d6db72d10" x="552.806761" y="149.675835" style="fill: #0072b2; stroke: #0072b2"/>
     <use xlink:href="#m9d6db72d10" x="562.257958" y="154.65397" style="fill: #0072b2; stroke: #0072b2"/>
     <use xlink:href="#m9d6db72d10" x="571.709154" y="152.520483" style="fill: #0072b2; stroke: #0072b2"/>
     <use xlink:href="#m9d6db72d10" x="581.16035" y="155.365132" style="fill: #0072b2; stroke: #0072b2"/>
     <use xlink:href="#m9d6db72d10" x="590.611546" y="152.520483" style="fill: #0072b2; stroke: #0072b2"/>
     <use xlink:href="#m9d6db72d10" x="600.062742" y="156.076294" style="fill: #0072b2; stroke: #0072b2"/>
     <use xlink:href="#m9d6db72d10" x="609.513938" y="157.498618" style="fill: #0072b2; stroke: #0072b2"/>
     <use xlink:href="#m9d6db72d10" x="618.965135" y="158.920943" style="fill: #0072b2; stroke: #0072b2"/>
     <use xlink:href="#m9d6db72d10" x="628.416331" y="158.920943" style="fill: #0072b2; stroke: #0072b2"/>
     <use xlink:href="#m9d6db72d10" x="637.867527" y="158.920943" style="fill: #0072b2; stroke: #0072b2"/>
     <use xlink:href="#m9d6db72d10" x="647.318723" y="158.20978" style="fill: #0072b2; stroke: #0072b2"/>
     <use xlink:href="#m9d6db72d10" x="656.769919" y="158.20978" style="fill: #0072b2; stroke: #0072b2"/>
     <use xlink:href="#m9d6db72d10" x="666.221115" y="159.632105" style="fill: #0072b2; stroke: #0072b2"/>
     <use xlink:href="#m9d6db72d10" x="675.672312" y="161.054429" style="fill: #0072b2; stroke: #0072b2"/>
     <use xlink:href="#m9d6db72d10" x="685.123508" y="161.765591" style="fill: #0072b2; stroke: #0072b2"/>
    </g>
   </g>
   <g id="line2d_42">
    <path d="M 552.806761 139.008403 
L 562.257958 146.120024 
L 571.709154 148.253511 
L 581.16035 153.231646 
L 590.611546 148.964673 
L 600.062742 152.520483 
L 609.513938 154.65397 
L 618.965135 153.942808 
L 628.416331 157.498618 
L 637.867527 159.632105 
L 647.318723 158.20978 
L 656.769919 158.920943 
L 666.221115 158.920943 
L 675.672312 160.343267 
L 685.123508 161.054429 
L 694.574704 161.054429 
L 704.0259 161.054429 
L 713.477096 161.765591 
" clip-path="url(#p0a02450089)" style="fill: none; stroke: #d55e00; stroke-width: 1.3; stroke-linecap: square"/>
    <g clip-path="url(#p0a02450089)">
     <use xlink:href="#ma7a59acab6" x="552.806761" y="139.008403" style="fill: #d55e00; stroke: #d55e00"/>
     <use xlink:href="#ma7a59acab6" x="562.257958" y="146.120024" style="fill: #d55e00; stroke: #d55e00"/>
     <use xlink:href="#ma7a59acab6" x="571.709154" y="148.253511" style="fill: #d55e00; stroke: #d55e00"/>
     <use xlink:href="#ma7a59acab6" x="581.16035" y="153.231646" style="fill: #d55e00; stroke: #d55e00"/>
     <use xlink:href="#ma7a59acab6" x="590.611546" y="148.964673" style="fill: #d55e00; stroke: #d55e00"/>
     <use xlink:href="#ma7a59acab6" x="600.062742" y="152.520483" style="fill: #d55e00; stroke: #d55e00"/>
     <use xlink:href="#ma7a59acab6" x="609.513938" y="154.65397" style="fill: #d55e00; stroke: #d55e00"/>
     <use xlink:href="#ma7a59acab6" x="618.965135" y="153.942808" style="fill: #d55e00; stroke: #d55e00"/>
     <use xlink:href="#ma7a59acab6" x="628.416331" y="157.498618" style="fill: #d55e00; stroke: #d55e00"/>
     <use xlink:href="#ma7a59acab6" x="637.867527" y="159.632105" style="fill: #d55e00; stroke: #d55e00"/>
     <use xlink:href="#ma7a59acab6" x="647.318723" y="158.20978" style="fill: #d55e00; stroke: #d55e00"/>
     <use xlink:href="#ma7a59acab6" x="656.769919" y="158.920943" style="fill: #d55e00; stroke: #d55e00"/>
     <use xlink:href="#ma7a59acab6" x="666.221115" y="158.920943" style="fill: #d55e00; stroke: #d55e00"/>
     <use xlink:href="#ma7a59acab6" x="675.672312" y="160.343267" style="fill: #d55e00; stroke: #d55e00"/>
     <use xlink:href="#ma7a59acab6" x="685.123508" y="161.054429" style="fill: #d55e00; stroke: #d55e00"/>
     <use xlink:href="#ma7a59acab6" x="694.574704" y="161.054429" style="fill: #d55e00; stroke: #d55e00"/>
     <use xlink:href="#ma7a59acab6" x="704.0259" y="161.054429" style="fill: #d55e00; stroke: #d55e00"/>
     <use xlink:href="#ma7a59acab6" x="713.477096" y="161.765591" style="fill: #d55e00; stroke: #d55e00"/>
    </g>
   </g>
   <g id="line2d_43">
    <path d="M 552.806761 73.581487 
L 562.257958 77.848459 
L 571.709154 100.605648 
L 581.16035 109.850755 
L 590.611546 114.117728 
L 600.062742 116.251215 
L 609.513938 120.518187 
L 618.965135 124.073998 
L 628.416331 124.78516 
L 637.867527 120.518187 
L 647.318723 131.896782 
L 656.769919 129.052133 
L 666.221115 131.896782 
L 675.672312 134.74143 
L 685.123508 130.474457 
L 694.574704 124.073998 
L 704.0259 120.518187 
L 713.477096 133.319106 
L 722.928292 130.474457 
L 732.379489 134.74143 
" clip-path="url(#p0a02450089)" style="fill: none; stroke-dasharray: 4.81,2.08; stroke-dashoffset: 0; stroke: #0072b2; stroke-width: 1.3"/>
    <g clip-path="url(#p0a02450089)">
     <use xlink:href="#m9d6db72d10" x="552.806761" y="73.581487" style="fill: #0072b2; stroke: #0072b2"/>
     <use xlink:href="#m9d6db72d10" x="562.257958" y="77.848459" style="fill: #0072b2; stroke: #0072b2"/>
     <use xlink:href="#m9d6db72d10" x="571.709154" y="100.605648" style="fill: #0072b2; stroke: #0072b2"/>
     <use xlink:href="#m9d6db72d10" x="581.16035" y="109.850755" style="fill: #0072b2; stroke: #0072b2"/>
     <use xlink:href="#m9d6db72d10" x="590.611546" y="114.117728" style="fill: #0072b2; stroke: #0072b2"/>
     <use xlink:href="#m9d6db72d10" x="600.062742" y="116.251215" style="fill: #0072b2; stroke: #0072b2"/>
     <use xlink:href="#m9d6db72d10" x="609.513938" y="120.518187" style="fill: #0072b2; stroke: #0072b2"/>
     <use xlink:href="#m9d6db72d10" x="618.965135" y="124.073998" style="fill: #0072b2; stroke: #0072b2"/>
     <use xlink:href="#m9d6db72d10" x="628.416331" y="124.78516" style="fill: #0072b2; stroke: #0072b2"/>
     <use xlink:href="#m9d6db72d10" x="637.867527" y="120.518187" style="fill: #0072b2; stroke: #0072b2"/>
     <use xlink:href="#m9d6db72d10" x="647.318723" y="131.896782" style="fill: #0072b2; stroke: #0072b2"/>
     <use xlink:href="#m9d6db72d10" x="656.769919" y="129.052133" style="fill: #0072b2; stroke: #0072b2"/>
     <use xlink:href="#m9d6db72d10" x="666.221115" y="131.896782" style="fill: #0072b2; stroke: #0072b2"/>
     <use xlink:href="#m9d6db72d10" x="675.672312" y="134.74143" style="fill: #0072b2; stroke: #0072b2"/>
     <use xlink:href="#m9d6db72d10" x="685.123508" y="130.474457" style="fill: #0072b2; stroke: #0072b2"/>
     <use xlink:href="#m9d6db72d10" x="694.574704" y="124.073998" style="fill: #0072b2; stroke: #0072b2"/>
     <use xlink:href="#m9d6db72d10" x="704.0259" y="120.518187" style="fill: #0072b2; stroke: #0072b2"/>
     <use xlink:href="#m9d6db72d10" x="713.477096" y="133.319106" style="fill: #0072b2; stroke: #0072b2"/>
     <use xlink:href="#m9d6db72d10" x="722.928292" y="130.474457" style="fill: #0072b2; stroke: #0072b2"/>
     <use xlink:href="#m9d6db72d10" x="732.379489" y="134.74143" style="fill: #0072b2; stroke: #0072b2"/>
    </g>
   </g>
   <g id="line2d_44">
    <path d="M 552.806761 62.202892 
L 562.257958 72.870324 
L 571.709154 84.960081 
L 581.16035 97.760999 
L 590.611546 97.760999 
L 600.062742 95.627513 
L 609.513938 101.31681 
L 618.965135 110.561917 
L 628.416331 111.27308 
L 637.867527 116.251215 
L 647.318723 114.82889 
L 656.769919 123.362836 
L 666.221115 122.651674 
L 675.672312 129.052133 
L 685.123508 126.207484 
L 694.574704 121.940512 
L 704.0259 128.340971 
L 713.477096 130.474457 
L 722.928292 129.763295 
L 732.379489 125.496322 
" clip-path="url(#p0a02450089)" style="fill: none; stroke-dasharray: 4.81,2.08; stroke-dashoffset: 0; stroke: #d55e00; stroke-width: 1.3"/>
    <g clip-path="url(#p0a02450089)">
     <use xlink:href="#ma7a59acab6" x="552.806761" y="62.202892" style="fill: #d55e00; stroke: #d55e00"/>
     <use xlink:href="#ma7a59acab6" x="562.257958" y="72.870324" style="fill: #d55e00; stroke: #d55e00"/>
     <use xlink:href="#ma7a59acab6" x="571.709154" y="84.960081" style="fill: #d55e00; stroke: #d55e00"/>
     <use xlink:href="#ma7a59acab6" x="581.16035" y="97.760999" style="fill: #d55e00; stroke: #d55e00"/>
     <use xlink:href="#ma7a59acab6" x="590.611546" y="97.760999" style="fill: #d55e00; stroke: #d55e00"/>
     <use xlink:href="#ma7a59acab6" x="600.062742" y="95.627513" style="fill: #d55e00; stroke: #d55e00"/>
     <use xlink:href="#ma7a59acab6" x="609.513938" y="101.31681" style="fill: #d55e00; stroke: #d55e00"/>
     <use xlink:href="#ma7a59acab6" x="618.965135" y="110.561917" style="fill: #d55e00; stroke: #d55e00"/>
     <use xlink:href="#ma7a59acab6" x="628.416331" y="111.27308" style="fill: #d55e00; stroke: #d55e00"/>
     <use xlink:href="#ma7a59acab6" x="637.867527" y="116.251215" style="fill: #d55e00; stroke: #d55e00"/>
     <use xlink:href="#ma7a59acab6" x="647.318723" y="114.82889" style="fill: #d55e00; stroke: #d55e00"/>
     <use xlink:href="#ma7a59acab6" x="656.769919" y="123.362836" style="fill: #d55e00; stroke: #d55e00"/>
     <use xlink:href="#ma7a59acab6" x="666.221115" y="122.651674" style="fill: #d55e00; stroke: #d55e00"/>
     <use xlink:href="#ma7a59acab6" x="675.672312" y="129.052133" style="fill: #d55e00; stroke: #d55e00"/>
     <use xlink:href="#ma7a59acab6" x="685.123508" y="126.207484" style="fill: #d55e00; stroke: #d55e00"/>
     <use xlink:href="#ma7a59acab6" x="694.574704" y="121.940512" style="fill: #d55e00; stroke: #d55e00"/>
     <use xlink:href="#ma7a59acab6" x="704.0259" y="128.340971" style="fill: #d55e00; stroke: #d55e00"/>
     <use xlink:href="#ma7a59acab6" x="713.477096" y="130.474457" style="fill: #d55e00; stroke: #d55e00"/>
     <use xlink:href="#ma7a59acab6" x="722.928292" y="129.763295" style="fill: #d55e00; stroke: #d55e00"/>
     <use xlink:href="#ma7a59acab6" x="732.379489" y="125.496322" style="fill: #d55e00; stroke: #d55e00"/>
    </g>
   </g>
   <g id="patch_13">
    <path d="M 543.828125 163.187915 
L 543.828125 7.955445 
" style="fill: none; stroke: #000000; stroke-width: 0.8; stroke-linejoin: miter; stroke-linecap: square"/>
   </g>
   <g id="patch_14">
    <path d="M 741.358125 163.187915 
L 741.358125 7.955445 
" style="fill: none; stroke: #000000; stroke-width: 0.8; stroke-linejoin: miter; stroke-linecap: square"/>
   </g>
   <g id="patch_15">
    <path d="M 543.828125 163.187915 
L 741.358125 163.187915 
" style="fill: none; stroke: #000000; stroke-width: 0.8; stroke-linejoin: miter; stroke-linecap: square"/>
   </g>
   <g id="patch_16">
    <path d="M 543.828125 7.955445 
L 741.358125 7.955445 
" style="fill: none; stroke: #000000; stroke-width: 0.8; stroke-linejoin: miter; stroke-linecap: square"/>
   </g>
  </g>
 </g>
 <defs>
  <clipPath id="pa4720d010f">
   <rect x="53.328125" y="7.955445" width="197.53" height="155.232471"/>
  </clipPath>
  <clipPath id="pef525c6160">
   <rect x="298.578125" y="7.955445" width="197.53" height="155.232471"/>
  </clipPath>
  <clipPath id="p0a02450089">
   <rect x="543.828125" y="7.955445" width="197.53" height="155.232471"/>
  </clipPath>
 </defs>
</svg>
